<?xml version="1.0" encoding="utf-8"?>
<!-- Generator: Adobe Illustrator 25.4.1, SVG Export Plug-In . SVG Version: 6.00 Build 0)  -->
<svg version="1.1" id="Layer_1" xmlns="http://www.w3.org/2000/svg" xmlns:xlink="http://www.w3.org/1999/xlink" x="0px" y="0px"
	 viewBox="0 0 24 48" style="enable-background:new 0 0 24 48;" xml:space="preserve">
<style type="text/css">
	.st0{fill:#5387C6;}
	.st1{fill:none;}
</style>
<g>
	<path d="M9.6,3.7c1.2,0,2.2,1,2.2,2.2s-1,2.2-2.2,2.2s-2.2-1-2.2-2.2S8.4,3.7,9.6,3.7z M9.6,1.7c-2.3,0-4.2,1.9-4.2,4.2
		s1.9,4.2,4.2,4.2s4.2-1.9,4.2-4.2S12,1.7,9.6,1.7z"/>
	<path d="M17,11.1h-1.5c0.8,0.5,1.4,1.2,1.8,2c1.3,0.1,2.4,1.3,2.4,2.6v4.6H18v1.3c0,0.2-0.1,0.5-0.1,0.7H21c0.4,0,0.7-0.3,0.7-0.7
		v-5.9C21.7,13.2,19.6,11.1,17,11.1z"/>
	<path d="M14.4,1.7c-0.5,0-0.9,0.1-1.4,0.2c0.6,0.5,1,1.1,1.4,1.8c1.2,0,2.2,1,2.2,2.2s-1,2.2-2.2,2.2C14,8.8,13.6,9.4,13,9.9
		c0.4,0.2,0.9,0.2,1.4,0.2c2.3,0,4.2-1.9,4.2-4.2S16.7,1.7,14.4,1.7z"/>
	<path d="M8.5,18.8h2.3c0.7,0,1.1-0.6,1-1.3l-1.3-4.3l0.8-0.8l1.2-1.2c-0.1,0-0.1,0-0.2,0H7c-0.1,0-0.1,0-0.2,0L8,12.4l0.8,0.8
		l-1.3,4.3C7.3,18.1,7.8,18.8,8.5,18.8z"/>
	<path d="M13.7,11.3l-0.5,0.5L12,13l-0.1,0.1h0.4c1.5,0,2.7,1.2,2.7,2.7v4.6h-1H5.1H4.7H4.3v-4.6c0-1.5,1.2-2.7,2.7-2.7h0.4L7.3,13
		l-1.2-1.2l-0.5-0.5c-1.9,0.6-3.3,2.3-3.3,4.4v5.9c0,0.4,0.3,0.7,0.7,0.7h1.7h0.4h8.1h3.1c0.4,0,0.7-0.3,0.7-0.7v-5.9
		C17,13.6,15.6,11.9,13.7,11.3z"/>
</g>
<g>
	<path class="st0" d="M9.6,27.7c1.2,0,2.2,1,2.2,2.2c0,1.2-1,2.2-2.2,2.2s-2.2-1-2.2-2.2C7.4,28.7,8.4,27.7,9.6,27.7z M9.6,25.7
		c-2.3,0-4.2,1.9-4.2,4.2s1.9,4.2,4.2,4.2s4.2-1.9,4.2-4.2S12,25.7,9.6,25.7z"/>
	<path class="st0" d="M17,35.1h-1.5c0.8,0.5,1.4,1.2,1.8,2c1.3,0.1,2.4,1.3,2.4,2.6v4.6H18v1.3c0,0.2-0.1,0.5-0.1,0.7H21
		c0.4,0,0.7-0.3,0.7-0.7v-5.9C21.7,37.2,19.6,35.1,17,35.1z"/>
	<path class="st0" d="M14.4,25.7c-0.5,0-0.9,0.1-1.4,0.2c0.6,0.5,1,1.1,1.4,1.8c1.2,0,2.2,1,2.2,2.2c0,1.2-1,2.2-2.2,2.2
		c-0.4,0.7-0.8,1.3-1.4,1.8c0.4,0.2,0.9,0.2,1.4,0.2c2.3,0,4.2-1.9,4.2-4.2S16.7,25.7,14.4,25.7z"/>
	<path class="st0" d="M8.5,42.8h2.3c0.7,0,1.1-0.6,1-1.3l-1.3-4.3l0.8-0.8l1.2-1.2c-0.1,0-0.1,0-0.2,0H7c-0.1,0-0.1,0-0.2,0L8,36.4
		l0.8,0.8l-1.3,4.3C7.3,42.1,7.8,42.8,8.5,42.8z"/>
	<path class="st0" d="M13.7,35.3l-0.5,0.5L12,37l-0.1,0.1h0.4c1.5,0,2.7,1.2,2.7,2.7v4.6h-1H5.1H4.7H4.3v-4.6c0-1.5,1.2-2.7,2.7-2.7
		h0.4L7.3,37l-1.2-1.2l-0.5-0.5c-1.9,0.6-3.3,2.3-3.3,4.4v5.9c0,0.4,0.3,0.7,0.7,0.7h1.7h0.4h8.1h3.1c0.4,0,0.7-0.3,0.7-0.7v-5.9
		C17,37.6,15.6,35.9,13.7,35.3z"/>
</g>
<rect x="24" class="st1" width="11.7" height="24"/>
<rect x="35.7" y="24" class="st1" width="4" height="24"/>
</svg>
