<?xml version="1.0" encoding="utf-8"?>
<!-- Generator: Adobe Illustrator 25.4.1, SVG Export Plug-In . SVG Version: 6.00 Build 0)  -->
<svg version="1.1" id="Layer_1" xmlns="http://www.w3.org/2000/svg" xmlns:xlink="http://www.w3.org/1999/xlink" x="0px" y="0px"
	 viewBox="0 0 48 48" style="enable-background:new 0 0 48 48;" xml:space="preserve">
<style type="text/css">
	.st0{fill-rule:evenodd;clip-rule:evenodd;fill:#FFFFFF;}
	.st1{fill-rule:evenodd;clip-rule:evenodd;fill:#969696;}
</style>
<rect x="0" class="st0" width="48" height="48"/>
<path class="st1" d="M16.3,34c1,0,2-0.6,2.4-1.5l2.8-5.7c0.3-0.6,0.4-1.2,0.4-1.8V16c0-1.1-0.9-2-2-2h-8c-1.1,0-2,0.9-2,2v8
	c0,1.1,0.9,2,2,2h4l-2.1,4.1C13,31.9,14.3,34,16.3,34z M32.3,34c1,0,2-0.6,2.4-1.5l2.8-5.7c0.3-0.6,0.4-1.2,0.4-1.8V16
	c0-1.1-0.9-2-2-2h-8c-1.1,0-2,0.9-2,2v8c0,1.1,0.9,2,2,2h4l-2.1,4.1C29,31.9,30.3,34,32.3,34z"/>
</svg>
