<?xml version="1.0" encoding="utf-8"?>
<!-- Generator: Adobe Illustrator 25.4.1, SVG Export Plug-In . SVG Version: 6.00 Build 0)  -->
<svg version="1.1" id="Layer_1" xmlns="http://www.w3.org/2000/svg" xmlns:xlink="http://www.w3.org/1999/xlink" x="0px" y="0px"
	 viewBox="0 0 24 48" style="enable-background:new 0 0 24 48;" xml:space="preserve">
<style type="text/css">
	.st0{fill:none;}
	.st1{fill:#1B1B1B;}
	.st2{fill:#5387C6;}
</style>
<rect x="24" class="st0" width="11.7" height="24"/>
<rect x="35.7" y="24" class="st0" width="4" height="24"/>
<g>
	<path class="st1" d="M20.7,9.2c0.2,0,0.5,0.2,0.5,0.5s-0.2,0.5-0.5,0.5H3.3c-0.2,0-0.5-0.2-0.5-0.5S3,9.2,3.3,9.2H20.7z M20.7,7.3
		H3.3C2,7.3,1,8.4,1,9.6c0,1.3,1,2.3,2.3,2.3h17.4c1.3,0,2.3-1,2.3-2.3C23,8.4,22,7.3,20.7,7.3z"/>
	<path class="st1" d="M20.7,20.2c0.2,0,0.5,0.2,0.5,0.5s-0.2,0.5-0.5,0.5H3.3c-0.2,0-0.5-0.2-0.5-0.5s0.2-0.5,0.5-0.5H20.7z
		 M20.7,18.4H3.3c-1.3,0-2.3,1-2.3,2.3C1,22,2,23,3.3,23h17.4c1.3,0,2.3-1,2.3-2.3C23,19.4,22,18.4,20.7,18.4z"/>
	<path class="st1" d="M6.5,19.4H3.7v-9h2.8V19.4z M4.7,18.4h0.9v-7.2H4.7V18.4z"/>
	<path class="st1" d="M20.2,19.3h-2.8v-9.2h2.8V19.3z M18.4,18.4h0.9V11h-0.9V18.4z"/>
	<path class="st1" d="M12.1,2.8c0.1,0,0.4,0,0.6,0.2l5.2,4.3H6.2L11.5,3C11.7,2.9,11.9,2.8,12.1,2.8z M12.1,1
		c-0.6,0-1.2,0.2-1.7,0.6l-8.6,7C1.5,8.8,1.6,9.2,1.9,9.2h19.9c0.4,0,0.6-0.5,0.3-0.7l-8.3-6.8C13.3,1.2,12.7,1,12.1,1z"/>
	<path class="st1" d="M9,12.9c0.4-0.1,0.8-0.1,1.1-0.1c0.5,0,0.9,0.1,1.2,0.3c0.3,0.2,0.4,0.5,0.4,0.9c0,0.5-0.2,0.8-0.5,1l0.6,1.3
		h-1l-0.5-1.1c-0.1,0-0.1,0-0.2,0H10v1.1H9V12.9z M10.2,14.6c0.3,0,0.5-0.2,0.5-0.6s-0.2-0.6-0.5-0.6c-0.1,0-0.2,0-0.3,0.1v1.1
		L10.2,14.6L10.2,14.6z"/>
	<path class="st1" d="M12.3,14c0.2-0.1,0.4-0.2,0.6-0.2c0.2-0.1,0.4-0.1,0.6-0.1c0.3,0,0.5,0.1,0.7,0.2c0.2,0.1,0.4,0.2,0.4,0.4
		c0.1,0.2,0.2,0.4,0.2,0.7v0.2c0,0.4-0.1,0.7-0.3,1c-0.2,0.2-0.5,0.3-1,0.3c0,0-0.1,0-0.2,0v0.9l-0.9,0.1V14z M13.7,15.7
		c0.1-0.1,0.1-0.1,0.1-0.2v-0.7c0-0.1,0-0.2-0.1-0.2c-0.1-0.1-0.1-0.1-0.3-0.1c-0.1,0-0.2,0-0.2,0.1v1.2c0.1,0,0.2,0,0.2,0
		C13.6,15.7,13.7,15.7,13.7,15.7z"/>
</g>
<g>
	<path class="st2" d="M20.7,33.2c0.2,0,0.5,0.2,0.5,0.5s-0.2,0.5-0.5,0.5H3.3c-0.2,0-0.5-0.2-0.5-0.5s0.2-0.5,0.5-0.5H20.7z
		 M20.7,31.3H3.3c-1.3,0-2.3,1-2.3,2.3c0,1.3,1,2.3,2.3,2.3h17.4c1.3,0,2.3-1,2.3-2.3C23,32.4,22,31.3,20.7,31.3z"/>
	<path class="st2" d="M20.7,44.2c0.2,0,0.5,0.2,0.5,0.5s-0.2,0.5-0.5,0.5H3.3c-0.2,0-0.5-0.2-0.5-0.5s0.2-0.5,0.5-0.5H20.7z
		 M20.7,42.4H3.3c-1.3,0-2.3,1-2.3,2.3C1,46,2,47,3.3,47h17.4c1.3,0,2.3-1,2.3-2.3C23,43.4,22,42.4,20.7,42.4z"/>
	<path class="st2" d="M6.5,43.4H3.7v-9h2.8V43.4z M4.7,42.4h0.9v-7.2H4.7V42.4z"/>
	<path class="st2" d="M20.2,43.3h-2.8v-9.2h2.8V43.3z M18.4,42.4h0.9V35h-0.9V42.4z"/>
	<path class="st2" d="M12.1,26.8c0.1,0,0.4,0,0.6,0.2l5.2,4.3H6.2l5.3-4.3C11.7,26.9,11.9,26.8,12.1,26.8z M12.1,25
		c-0.6,0-1.2,0.2-1.7,0.6l-8.6,7c-0.2,0.2-0.1,0.6,0.2,0.6h19.9c0.4,0,0.6-0.5,0.3-0.7l-8.3-6.8C13.3,25.2,12.7,25,12.1,25z"/>
	<path class="st2" d="M9,36.9c0.4-0.1,0.8-0.1,1.1-0.1c0.5,0,0.9,0.1,1.2,0.3c0.3,0.2,0.4,0.5,0.4,1c0,0.5-0.2,0.8-0.5,1l0.6,1.3h-1
		l-0.5-1.1c-0.1,0-0.1,0-0.2,0H10v1.1H9V36.9z M10.2,38.6c0.3,0,0.5-0.2,0.5-0.6c0-0.4-0.2-0.6-0.5-0.6c-0.1,0-0.2,0-0.3,0v1.1
		L10.2,38.6L10.2,38.6z"/>
	<path class="st2" d="M12.3,38c0.2-0.1,0.4-0.2,0.6-0.2c0.2-0.1,0.4-0.1,0.6-0.1c0.3,0,0.5,0,0.7,0.1c0.2,0.1,0.4,0.2,0.4,0.4
		c0.1,0.2,0.2,0.4,0.2,0.7v0.2c0,0.4-0.1,0.7-0.3,1c-0.2,0.2-0.5,0.3-1,0.3c0,0-0.1,0-0.2,0v0.9l-0.9,0.1V38z M13.7,39.7
		c0.1-0.1,0.1-0.1,0.1-0.2v-0.7c0-0.1,0-0.2-0.1-0.2c-0.1-0.1-0.1-0.1-0.3-0.1c-0.1,0-0.2,0-0.2,0v1.2c0.1,0,0.2,0,0.2,0
		C13.6,39.7,13.7,39.7,13.7,39.7z"/>
</g>
</svg>
