<?xml version="1.0" encoding="utf-8"?>
<!-- Generator: Adobe Illustrator 25.4.1, SVG Export Plug-In . SVG Version: 6.00 Build 0)  -->
<svg version="1.1" id="Layer_1" xmlns="http://www.w3.org/2000/svg" xmlns:xlink="http://www.w3.org/1999/xlink" x="0px" y="0px"
	 viewBox="0 0 30 30" style="enable-background:new 0 0 30 30;" xml:space="preserve">
<style type="text/css">
	.st0{fill-rule:evenodd;clip-rule:evenodd;fill:#030203;}
	.st1{fill-rule:evenodd;clip-rule:evenodd;fill:#FFFFFF;filter:url(#Adobe_OpacityMaskFilter);}
	.st2{mask:url(#mask0_1362:21462_00000065766208237213270090000004297723776029415588_);}
	.st3{fill:#1B1B1B;}
</style>
<path class="st0" d="M23.7,20c0,0.3,0,0.5-0.3,0.7L21,23.2c-0.1,0.1-0.3,0.2-0.4,0.3c-0.2,0.1-0.4,0.1-0.5,0.2c0,0,0,0-0.1,0
	c-0.1,0-0.1,0-0.2,0c-0.2,0-0.6,0-1.1-0.1c-0.5-0.1-1.2-0.3-1.9-0.6c-0.8-0.3-1.6-0.8-2.6-1.4c-1-0.6-2-1.5-3.1-2.6
	c-0.9-0.8-1.6-1.7-2.1-2.4c-0.6-0.8-1-1.5-1.4-2.2c-0.3-0.7-0.6-1.3-0.8-1.8c-0.2-0.5-0.3-1-0.4-1.4c-0.1-0.4-0.1-0.7-0.1-0.9
	c0-0.2,0-0.3,0-0.4c0-0.2,0.1-0.3,0.2-0.5C6.6,9.3,6.7,9.1,6.8,9l2.5-2.5c0.2-0.2,0.4-0.3,0.6-0.3c0.2,0,0.3,0,0.4,0.1
	c0.1,0.1,0.2,0.2,0.3,0.3l2,3.7c0.1,0.2,0.1,0.4,0.1,0.6c0,0.2-0.2,0.4-0.3,0.6l-0.9,0.9c0,0,0,0.1-0.1,0.1c0,0.1,0,0.1,0,0.1
	c0,0.3,0.2,0.6,0.3,0.9c0.1,0.3,0.4,0.7,0.7,1.1c0.3,0.4,0.7,0.9,1.3,1.5c0.6,0.6,1,1,1.5,1.3c0.4,0.3,0.8,0.5,1.1,0.7
	c0.3,0.1,0.5,0.2,0.7,0.3l0.2,0c0,0,0.1,0,0.1,0c0.1,0,0.1,0,0.1-0.1l1.1-1.1c0.2-0.2,0.5-0.3,0.8-0.3c0.2,0,0.4,0,0.5,0.1h0
	l3.6,2.1C23.5,19.6,23.7,19.8,23.7,20z"/>
<defs>
	<filter id="Adobe_OpacityMaskFilter" filterUnits="userSpaceOnUse" x="5.9" y="5.9" width="18.3" height="18.3">
		<feColorMatrix  type="matrix" values="1 0 0 0 0  0 1 0 0 0  0 0 1 0 0  0 0 0 1 0"/>
	</filter>
</defs>
<mask maskUnits="userSpaceOnUse" x="5.9" y="5.9" width="18.3" height="18.3" id="mask0_1362:21462_00000065766208237213270090000004297723776029415588_">
	<path class="st1" d="M23.9,19.9c0,0.3,0,0.5-0.3,0.7l-2.5,2.4c-0.1,0.1-0.3,0.2-0.4,0.3c-0.2,0.1-0.4,0.1-0.5,0.2c0,0,0,0-0.1,0
		c-0.1,0-0.1,0-0.2,0c-0.2,0-0.6,0-1.1-0.1c-0.5-0.1-1.2-0.3-1.9-0.6c-0.8-0.3-1.6-0.8-2.6-1.4c-1-0.6-2-1.5-3.1-2.6
		C10.3,18,9.6,17.2,9,16.4c-0.6-0.8-1-1.5-1.4-2.2C7.3,13.6,7,13,6.8,12.5c-0.2-0.5-0.3-1-0.4-1.4c-0.1-0.4-0.1-0.7-0.1-0.9
		c0-0.2,0-0.3,0-0.4c0-0.2,0.1-0.3,0.2-0.5C6.7,9.1,6.8,9,6.9,8.9l2.5-2.5C9.5,6.2,9.7,6.1,10,6.1c0.2,0,0.3,0,0.4,0.1
		c0.1,0.1,0.2,0.2,0.3,0.3l2,3.7c0.1,0.2,0.1,0.4,0.1,0.6c0,0.2-0.2,0.4-0.3,0.6l-0.9,0.9c0,0,0,0.1-0.1,0.1c0,0.1,0,0.1,0,0.1
		c0,0.3,0.2,0.6,0.3,0.9c0.1,0.3,0.4,0.7,0.7,1.1c0.3,0.4,0.7,0.9,1.3,1.5c0.6,0.6,1,1,1.5,1.3c0.4,0.3,0.8,0.5,1.1,0.7
		c0.3,0.1,0.5,0.2,0.7,0.3l0.2,0c0,0,0.1,0,0.1,0c0.1,0,0.1,0,0.1-0.1l1.1-1.1c0.2-0.2,0.5-0.3,0.8-0.3c0.2,0,0.4,0,0.5,0.1h0
		l3.6,2.1C23.6,19.4,23.8,19.6,23.9,19.9z"/>
</mask>
<g class="st2">
	<rect x="5.9" y="5.9" class="st3" width="18.3" height="18.3"/>
</g>
</svg>
