<?xml version="1.0" encoding="utf-8"?>
<!-- Generator: Adobe Illustrator 25.4.1, SVG Export Plug-In . SVG Version: 6.00 Build 0)  -->
<svg version="1.1" id="Layer_1" xmlns="http://www.w3.org/2000/svg" xmlns:xlink="http://www.w3.org/1999/xlink" x="0px" y="0px"
	 viewBox="0 0 18 18" style="enable-background:new 0 0 18 18;" xml:space="preserve">
<style type="text/css">
	.st0{fill:#1B1B1B;}
</style>
<path class="st0" d="M6.9,4.1c0,0.4,0,2.2,0,2.2H5.3V9h1.6v8h3.3V9h2.2c0,0,0.2-1.3,0.3-2.7c-0.3,0-2.5,0-2.5,0s0-1.6,0-1.8
	c0-0.3,0.4-0.6,0.7-0.6c0.4,0,1.1,0,1.8,0c0-0.4,0-1.6,0-2.8c-0.9,0-2,0-2.5,0C6.8,1,6.9,3.7,6.9,4.1z"/>
</svg>
