<?xml version="1.0" encoding="utf-8"?>
<!-- Generator: Adobe Illustrator 25.4.1, SVG Export Plug-In . SVG Version: 6.00 Build 0)  -->
<svg version="1.1" id="Layer_1" xmlns="http://www.w3.org/2000/svg" xmlns:xlink="http://www.w3.org/1999/xlink" x="0px" y="0px"
	 viewBox="0 0 24 48" style="enable-background:new 0 0 24 48;" xml:space="preserve">
<style type="text/css">
	.st0{fill:none;}
	.st1{fill:#1B1B1B;}
	.st2{fill:#5387C6;}
</style>
<rect x="24" class="st0" width="11.7" height="24"/>
<rect x="35.7" y="24" class="st0" width="4" height="24"/>
<g>
	<path class="st1" d="M10.9,11.8c0.4,0,0.8,0.2,1.2,0.6c0.4,0.4,0.6,0.8,0.6,1.2c0,0.4-0.2,0.8-0.5,1.2c-0.4,0.4-0.8,0.5-1.2,0.5
		c-0.4,0-0.8-0.2-1.2-0.6c-0.4-0.4-0.6-0.8-0.6-1.2c0-0.4,0.2-0.8,0.5-1.2C10,12,10.4,11.8,10.9,11.8z M10.1,13.4
		c0,0.2,0.2,0.4,0.4,0.6c0.2,0.2,0.4,0.3,0.6,0.4c0.2,0,0.4,0,0.5-0.2c0.1-0.2,0.2-0.3,0.2-0.5c0-0.2-0.2-0.4-0.4-0.6
		s-0.4-0.3-0.6-0.4c-0.2,0-0.4,0-0.5,0.2C10.1,13,10,13.2,10.1,13.4z M12.6,9.6l0.7-0.7l1,6.9l-0.7,0.7L12.6,9.6z M15.8,10.2
		c0.4,0,0.8,0.2,1.2,0.6c0.4,0.4,0.6,0.8,0.6,1.2c0,0.4-0.2,0.8-0.5,1.2c-0.4,0.4-0.8,0.5-1.2,0.5c-0.4,0-0.9-0.2-1.2-0.6
		c-0.4-0.4-0.6-0.8-0.6-1.2c0-0.4,0.1-0.8,0.5-1.2C15,10.3,15.4,10.2,15.8,10.2z M15,11.8c0,0.2,0.2,0.4,0.4,0.6
		c0.2,0.2,0.4,0.3,0.6,0.4c0.2,0,0.4,0,0.5-0.2c0.1-0.2,0.2-0.3,0.2-0.5c0-0.2-0.2-0.4-0.4-0.6c-0.2-0.2-0.4-0.3-0.6-0.4
		c-0.2,0-0.4,0-0.5,0.2C15.1,11.4,15,11.6,15,11.8z"/>
	<path class="st1" d="M21.9,21l-0.7-0.4c0,0-0.1-0.1-0.1-0.1l-0.4-0.7c0-0.1-0.1-0.1-0.2-0.1s-0.2,0-0.2,0.1l-0.4,0.7
		c0,0,0,0.1-0.1,0.1L19.2,21c-0.2,0.1-0.2,0.3,0,0.4l0.7,0.4c0,0,0.1,0.1,0.1,0.1l0.4,0.7c0,0.1,0.1,0.1,0.2,0.1s0.2,0,0.2-0.1
		l0.4-0.7c0,0,0.1-0.1,0.1-0.1l0.7-0.4C22.1,21.3,22.1,21.1,21.9,21z"/>
	<path class="st1" d="M23,10.1c0.1-0.3,0-0.7-0.2-1l-5.3-5.3c-0.2-0.2-0.4-0.3-0.7-0.3c-0.1,0-0.2,0-0.3,0.1c-0.1,0-0.2,0.1-0.3,0.1
		l-4.4-2.3c-0.2-0.1-0.5-0.2-0.8-0.1c-0.1,0-0.2,0.1-0.3,0.2C10.4,1.8,9.9,2,9.5,2.1C9.1,2.3,8.6,2.3,8.2,2.3c-0.1,0-0.2,0-0.3,0.1
		C7.6,2.4,7.4,2.6,7.3,2.9L1.1,15c-0.2,0.4-0.1,0.8,0.1,1.1c0.5,0.7,0.8,1.6,0.8,2.5c0,0.4,0.2,0.8,0.6,1L9,22.9c0,0,0.1,0,0.1,0
		c0.2,0.2,0.4,0.3,0.6,0.3c0.1,0,0.2,0,0.3-0.1c0.4-0.2,0.9-0.3,1.4-0.3c0.5,0,0.9,0.1,1.4,0.3c0.1,0,0.2,0.1,0.3,0.1
		c0.2,0,0.5-0.1,0.7-0.3l9-9.1c0.2-0.3,0.3-0.6,0.2-1C22.7,12,22.7,11,23,10.1z M8.8,4.3c0.5,0,0.9-0.1,1.4-0.3
		c0.4-0.1,0.9-0.3,1.2-0.6l1.2,0.6l-7.6,7.7L8.8,4.3z M3.7,14.3c0.2,0.7,0.2,1.5-0.1,2.2c-0.1-0.4-0.3-0.8-0.5-1.1L3.7,14.3z
		 M20.9,12.9L12.8,21c-0.4-0.1-0.9-0.2-1.4-0.2S10.5,20.9,10,21l-4.4-4.4c0.2-0.9,0.2-1.8,0-2.7l8.1-8.2c0.4,0.1,0.9,0.2,1.4,0.2
		s0.9-0.1,1.4-0.2l4.4,4.4C20.7,11,20.7,12,20.9,12.9z"/>
	<path class="st1" d="M3.8,0.9l0.4,0.7c0,0,0.1,0.1,0.1,0.1L5,2.1c0.2,0.1,0.2,0.3,0,0.4L4.3,2.9c0,0-0.1,0.1-0.1,0.1L3.8,3.7
		c-0.1,0.2-0.3,0.2-0.4,0L3,3c0,0-0.1-0.1-0.1-0.1L2.2,2.5c-0.2-0.1-0.2-0.3,0-0.4l0.7-0.4c0,0,0.1-0.1,0.1-0.1l0.4-0.7
		C3.5,0.8,3.7,0.8,3.8,0.9z"/>
	<path class="st1" d="M2.2,4.9l0.2,0.5c0,0,0,0.1,0.1,0.1L3,5.7c0.1,0.1,0.1,0.2,0,0.3L2.5,6.2c0,0,0,0-0.1,0.1L2.2,6.7
		C2.2,6.8,2,6.8,2,6.7L1.7,6.3c0,0,0-0.1-0.1-0.1L1.2,5.9c-0.1-0.1-0.1-0.2,0-0.3l0.5-0.3c0,0,0,0,0.1-0.1L2,4.9
		C2,4.8,2.2,4.8,2.2,4.9z"/>
</g>
<g>
	<path class="st2" d="M10.9,35.8c0.4,0,0.8,0.2,1.2,0.6c0.4,0.4,0.6,0.8,0.6,1.2c0,0.4-0.2,0.8-0.5,1.2c-0.4,0.4-0.8,0.5-1.2,0.5
		c-0.4,0-0.8-0.2-1.2-0.6c-0.4-0.4-0.6-0.8-0.6-1.2c0-0.4,0.2-0.8,0.5-1.2C10,36,10.4,35.8,10.9,35.8z M10.1,37.4
		c0,0.2,0.2,0.4,0.4,0.6s0.4,0.3,0.6,0.4c0.2,0,0.4,0,0.5-0.2c0.1-0.2,0.2-0.3,0.2-0.5c0-0.2-0.2-0.4-0.4-0.6
		c-0.2-0.2-0.4-0.3-0.6-0.4c-0.2,0-0.4,0-0.5,0.2C10.1,37,10,37.2,10.1,37.4z M12.6,33.6l0.7-0.7l1,6.9l-0.7,0.7L12.6,33.6z
		 M15.8,34.2c0.4,0,0.8,0.2,1.2,0.6c0.4,0.4,0.6,0.8,0.6,1.2c0,0.4-0.2,0.8-0.5,1.2c-0.4,0.4-0.8,0.5-1.2,0.5
		c-0.4,0-0.9-0.2-1.2-0.6c-0.4-0.4-0.6-0.8-0.6-1.2c0-0.4,0.1-0.8,0.5-1.2C15,34.3,15.4,34.2,15.8,34.2z M15,35.8
		c0,0.2,0.2,0.4,0.4,0.6c0.2,0.2,0.4,0.3,0.6,0.4c0.2,0,0.4,0,0.5-0.2c0.1-0.2,0.2-0.3,0.2-0.5c0-0.2-0.2-0.4-0.4-0.6
		c-0.2-0.2-0.4-0.3-0.6-0.4c-0.2,0-0.4,0-0.5,0.2C15.1,35.4,15,35.6,15,35.8z"/>
	<path class="st2" d="M21.9,45l-0.7-0.4c0,0-0.1-0.1-0.1-0.1l-0.4-0.7c0-0.1-0.1-0.1-0.2-0.1s-0.2,0-0.2,0.1l-0.4,0.7
		c0,0,0,0.1-0.1,0.1L19.2,45c-0.2,0.1-0.2,0.3,0,0.4l0.7,0.4c0,0,0.1,0.1,0.1,0.1l0.4,0.7c0,0.1,0.1,0.1,0.2,0.1s0.2,0,0.2-0.1
		l0.4-0.7c0,0,0.1-0.1,0.1-0.1l0.7-0.4C22.1,45.3,22.1,45.1,21.9,45z"/>
	<path class="st2" d="M23,34.1c0.1-0.3,0-0.7-0.2-1l-5.3-5.3c-0.2-0.2-0.4-0.3-0.7-0.3c-0.1,0-0.2,0-0.3,0.1c-0.1,0-0.2,0.1-0.3,0.1
		l-4.4-2.3c-0.2-0.1-0.5-0.2-0.8-0.1c-0.1,0-0.2,0.1-0.3,0.2c-0.3,0.3-0.7,0.5-1.2,0.6c-0.4,0.1-0.9,0.2-1.3,0.2
		c-0.1,0-0.2,0-0.3,0.1c-0.2,0.1-0.5,0.3-0.6,0.5L1.1,39c-0.2,0.4-0.1,0.8,0.1,1.1c0.5,0.7,0.8,1.6,0.8,2.5c0,0.4,0.2,0.8,0.6,1
		L9,46.9c0,0,0.1,0,0.1,0c0.2,0.2,0.4,0.3,0.6,0.3c0.1,0,0.2,0,0.3-0.1c0.4-0.2,0.9-0.3,1.4-0.3c0.5,0,0.9,0.1,1.4,0.3
		c0.1,0,0.2,0.1,0.3,0.1c0.2,0,0.5-0.1,0.7-0.3l9-9.1c0.2-0.3,0.3-0.6,0.2-1C22.7,36,22.7,35,23,34.1z M8.8,28.3
		c0.5,0,0.9-0.1,1.4-0.3c0.4-0.1,0.9-0.3,1.2-0.6l1.2,0.6l-7.6,7.7L8.8,28.3z M3.7,38.3c0.2,0.7,0.2,1.5-0.1,2.2
		c-0.1-0.4-0.3-0.8-0.5-1.1L3.7,38.3z M20.9,36.9L12.8,45c-0.4-0.1-0.9-0.2-1.4-0.2S10.5,44.9,10,45l-4.4-4.4c0.2-0.9,0.2-1.8,0-2.7
		l8.1-8.2c0.4,0.1,0.9,0.2,1.4,0.2s0.9-0.1,1.4-0.2l4.4,4.4C20.7,35,20.7,36,20.9,36.9z"/>
	<path class="st2" d="M3.8,24.9l0.4,0.7c0,0,0.1,0.1,0.1,0.1L5,26.1c0.2,0.1,0.2,0.3,0,0.4l-0.7,0.4c0,0-0.1,0.1-0.1,0.1l-0.4,0.7
		c-0.1,0.2-0.3,0.2-0.4,0L3,27c0,0-0.1-0.1-0.1-0.1l-0.7-0.4c-0.2-0.1-0.2-0.3,0-0.4l0.7-0.4c0,0,0.1-0.1,0.1-0.1l0.4-0.7
		C3.5,24.8,3.7,24.8,3.8,24.9z"/>
	<path class="st2" d="M2.2,28.9l0.2,0.5c0,0,0,0.1,0.1,0.1L3,29.7c0.1,0.1,0.1,0.2,0,0.3l-0.5,0.3c0,0,0,0-0.1,0.1l-0.2,0.5
		c-0.1,0.1-0.2,0.1-0.3,0l-0.3-0.5c0,0,0-0.1-0.1-0.1l-0.5-0.3c-0.1-0.1-0.1-0.2,0-0.3l0.5-0.3c0,0,0,0,0.1-0.1L2,28.9
		C2,28.8,2.2,28.8,2.2,28.9z"/>
</g>
</svg>
