<?xml version="1.0" encoding="utf-8"?>
<!-- Generator: Adobe Illustrator 25.4.1, SVG Export Plug-In . SVG Version: 6.00 Build 0)  -->
<svg version="1.1" id="Layer_1" xmlns="http://www.w3.org/2000/svg" xmlns:xlink="http://www.w3.org/1999/xlink" x="0px" y="0px"
	 viewBox="0 0 18 18" style="enable-background:new 0 0 18 18;" xml:space="preserve">
<style type="text/css">
	.st0{fill-rule:evenodd;clip-rule:evenodd;fill:#1B1B1B;}
</style>
<path class="st0" d="M12.9,10.7H9.1l0,0l0,0c-0.3,0-0.6-0.3-0.6-0.6V3.7c0-0.3,0.3-0.6,0.6-0.6s0.6,0.3,0.6,0.6v5.7H13
	c0.3,0,0.6,0.3,0.6,0.6C13.5,10.4,13.2,10.7,12.9,10.7z M9,0C4,0,0,4,0,9s4,9,9,9s9-4,9-9S14,0,9,0z"/>
</svg>
