<?xml version="1.0" encoding="utf-8"?>
<!-- Generator: Adobe Illustrator 25.4.1, SVG Export Plug-In . SVG Version: 6.00 Build 0)  -->
<svg version="1.1" id="Layer_1" xmlns="http://www.w3.org/2000/svg" xmlns:xlink="http://www.w3.org/1999/xlink" x="0px" y="0px"
	 viewBox="0 0 30 30" style="enable-background:new 0 0 30 30;" xml:space="preserve">
<style type="text/css">
	.st0{fill-rule:evenodd;clip-rule:evenodd;fill:#1B1B1B;}
</style>
<g>
	<path class="st0" d="M6.4,9.1C6.1,9.5,6,9.9,6,10.3v9.3c0,0.4,0.1,0.8,0.3,1.1l5.7-6.6L6.4,9.1z M17.2,15l-1.8,1.6
		c-0.1,0.1-0.2,0.1-0.4,0.1c-0.1,0-0.3,0-0.4-0.1L12.8,15l-5.8,6.7C7.4,21.9,7.8,22,8.3,22h13.5c0.4,0,0.8-0.1,1.2-0.4L17.2,15z
		 M15,15.4l7.8-7.1C22.5,8.1,22.1,8,21.7,8H8.2C7.9,8,7.5,8.1,7.2,8.3L15,15.4z M24,19.7c0,0.4-0.1,0.8-0.3,1.1L18,14.2l5.6-5.1
		c0.2,0.4,0.4,0.8,0.4,1.2V19.7z"/>
</g>
</svg>
