<?xml version="1.0" encoding="utf-8"?>
<!-- Generator: Adobe Illustrator 25.4.1, SVG Export Plug-In . SVG Version: 6.00 Build 0)  -->
<svg version="1.1" id="Layer_1" xmlns="http://www.w3.org/2000/svg" xmlns:xlink="http://www.w3.org/1999/xlink" x="0px" y="0px"
	 viewBox="0 0 18 18" style="enable-background:new 0 0 18 18;" xml:space="preserve">
<style type="text/css">
	.st0{fill:#1B1B1B;}
</style>
<g>
	<path class="st0" d="M9,5.8c-1.8,0-3.3,1.5-3.3,3.3s1.5,3.3,3.3,3.3s3.3-1.5,3.3-3.3S10.8,5.8,9,5.8z M9,5.8
		c-1.8,0-3.3,1.5-3.3,3.3s1.5,3.3,3.3,3.3s3.3-1.5,3.3-3.3S10.8,5.8,9,5.8z M14.7,1H3.3C2.1,1,1,2.1,1,3.3v11.3C1,16,2.1,17,3.3,17
		h11.3c1.3,0,2.3-1,2.3-2.3V3.3C17,2.1,16,1,14.7,1z M9,13.2c-2.3,0-4.2-1.9-4.2-4.2S6.7,4.8,9,4.8s4.2,1.9,4.2,4.2
		C13.2,11.4,11.3,13.2,9,13.2z M14.2,4.8c-0.5,0-0.9-0.4-0.9-0.9S13.7,3,14.2,3s0.9,0.4,0.9,0.9S14.7,4.8,14.2,4.8z M9,5.8
		c-1.8,0-3.3,1.5-3.3,3.3s1.5,3.3,3.3,3.3s3.3-1.5,3.3-3.3S10.8,5.8,9,5.8z M9,5.8c-1.8,0-3.3,1.5-3.3,3.3s1.5,3.3,3.3,3.3
		s3.3-1.5,3.3-3.3S10.8,5.8,9,5.8z M9,5.8c-1.8,0-3.3,1.5-3.3,3.3s1.5,3.3,3.3,3.3s3.3-1.5,3.3-3.3S10.8,5.8,9,5.8z"/>
</g>
</svg>
