<?xml version="1.0" encoding="utf-8"?>
<!-- Generator: Adobe Illustrator 25.4.1, SVG Export Plug-In . SVG Version: 6.00 Build 0)  -->
<svg version="1.1" id="Layer_1" xmlns="http://www.w3.org/2000/svg" xmlns:xlink="http://www.w3.org/1999/xlink" x="0px" y="0px"
	 viewBox="0 0 30 30" style="enable-background:new 0 0 30 30;" xml:space="preserve">
<style type="text/css">
	.st0{fill:#1B1B1B;}
</style>
<path class="st0" d="M22.4,10.3c-0.6-0.7-1.6-1-3.7-1h-7.4c-2.1,0-3.2,0.3-3.7,1C7,11.1,7,12.2,7,13.6v2.8c0,2.8,0.7,4.2,4.3,4.2
	h7.4c1.8,0,2.7-0.2,3.4-0.9c0.6-0.6,0.9-1.6,0.9-3.4v-2.8C23,12.1,23,11,22.4,10.3z M17.3,15.4l-3.4,1.8c-0.1,0-0.2,0.1-0.2,0.1
	c-0.1,0-0.2,0-0.3-0.1c-0.2-0.1-0.2-0.3-0.2-0.4v-3.5c0-0.2,0.1-0.3,0.2-0.4c0.2-0.1,0.3-0.1,0.5,0l3.4,1.7c0.2,0.1,0.3,0.3,0.3,0.5
	C17.5,15.1,17.4,15.3,17.3,15.4z"/>
</svg>
