<?xml version="1.0" encoding="utf-8"?>
<!-- Generator: Adobe Illustrator 25.4.1, SVG Export Plug-In . SVG Version: 6.00 Build 0)  -->
<svg version="1.1" id="Layer_1" xmlns="http://www.w3.org/2000/svg" xmlns:xlink="http://www.w3.org/1999/xlink" x="0px" y="0px"
	 viewBox="0 0 18 18" style="enable-background:new 0 0 18 18;" xml:space="preserve">
<style type="text/css">
	.st0{fill:#1B1B1B;}
</style>
<path class="st0" d="M16.4,4.4c-0.6-0.7-1.6-1-3.7-1H5.3c-2.1,0-3.2,0.3-3.7,1C1,5.2,1,6.3,1,7.7v2.8c0,2.8,0.7,4.2,4.3,4.2h7.4
	c1.8,0,2.7-0.2,3.4-0.9c0.6-0.6,0.9-1.6,0.9-3.4V7.5C17,6.2,17,5.1,16.4,4.4z M11.3,9.5l-3.4,1.8c-0.1,0-0.2,0.1-0.2,0.1
	c-0.1,0-0.2,0-0.3-0.1c-0.2-0.1-0.2-0.3-0.2-0.4V7.3C7.2,7.2,7.3,7,7.4,7c0.2-0.1,0.3-0.1,0.5,0l3.4,1.7c0.2,0.1,0.3,0.3,0.3,0.5
	C11.5,9.2,11.4,9.4,11.3,9.5z"/>
</svg>
