<?xml version="1.0" encoding="utf-8"?>
<!-- Generator: Adobe Illustrator 25.4.1, SVG Export Plug-In . SVG Version: 6.00 Build 0)  -->
<svg version="1.1" id="Layer_1" xmlns="http://www.w3.org/2000/svg" xmlns:xlink="http://www.w3.org/1999/xlink" x="0px" y="0px"
	 viewBox="0 0 18 18" style="enable-background:new 0 0 18 18;" xml:space="preserve">
<style type="text/css">
	.st0{fill-rule:evenodd;clip-rule:evenodd;fill:#1B1B1B;}
</style>
<g>
	<path class="st0" d="M0.4,3.1C0.1,3.5,0,3.9,0,4.3v9.3c0,0.4,0.1,0.8,0.3,1.1L6,8.1L0.4,3.1z M11.2,9l-1.8,1.6
		c-0.1,0.1-0.2,0.1-0.4,0.1c-0.1,0-0.3,0-0.4-0.1L6.8,9L1,15.7C1.4,15.9,1.8,16,2.3,16h13.5c0.4,0,0.8-0.1,1.2-0.4L11.2,9z M9,9.4
		l7.8-7.1C16.5,2.1,16.1,2,15.7,2H2.2c-0.3,0-0.7,0.1-1,0.3L9,9.4z M18,13.7c0,0.4-0.1,0.8-0.3,1.1L12,8.2l5.6-5.1
		C17.8,3.5,18,3.9,18,4.3V13.7z"/>
</g>
</svg>
