<?xml version="1.0" encoding="utf-8"?>
<!-- Generator: Adobe Illustrator 25.4.1, SVG Export Plug-In . SVG Version: 6.00 Build 0)  -->
<svg version="1.1" id="Layer_1" xmlns="http://www.w3.org/2000/svg" xmlns:xlink="http://www.w3.org/1999/xlink" x="0px" y="0px"
	 viewBox="0 0 18 18" style="enable-background:new 0 0 18 18;" xml:space="preserve">
<style type="text/css">
	.st0{fill:#1B1B1B;}
</style>
<g>
	<path class="st0" d="M4.6,6.2H1.2v10.3h3.4V6.2z"/>
	<path class="st0" d="M15.9,7.2c-0.7-0.8-1.7-1.2-2.9-1.2c-0.4,0-0.8,0.1-1.2,0.2c-0.4,0.1-0.7,0.3-0.9,0.5
		c-0.2,0.2-0.4,0.4-0.6,0.5C10.2,7.4,10,7.6,9.9,7.9V6.4H6.5v0.5c0,0.3,0,1.4,0,3.1s0,4,0,6.7H10v-5.8c0-0.4,0-0.6,0.1-0.8
		c0.1-0.4,0.4-0.7,0.7-0.9c0.3-0.2,0.7-0.4,1.1-0.4c0.6,0,1,0.2,1.3,0.6c0.3,0.4,0.4,1,0.4,1.7v5.5H17v-5.9
		C17,9.1,16.6,8.1,15.9,7.2z"/>
	<path class="st0" d="M2.9,1.3c-0.6,0-1,0.2-1.4,0.5C1.2,2.1,1,2.5,1,3s0.2,0.9,0.5,1.3c0.3,0.3,0.8,0.5,1.4,0.5l0,0
		c0.6,0,1.1-0.2,1.4-0.5C4.7,4.1,4.8,3.5,4.8,3S4.6,2.2,4.3,1.7C4,1.4,3.5,1.3,2.9,1.3z"/>
</g>
</svg>
