<svg width="232" height="62" viewBox="0 0 232 62" fill="none" xmlns="http://www.w3.org/2000/svg">
<path fill-rule="evenodd" clip-rule="evenodd" d="M55.68 15.3683C55.68 16.1294 55.5452 17.2985 55.2762 18.8778C54.7082 22.5044 53.4384 25.1441 51.4659 26.7961C49.4934 28.4486 47.2218 29.2745 44.6514 29.2745C43.3065 29.2745 41.9393 29.1867 40.5495 29.0113C39.1601 28.8358 38.0761 28.6314 37.2995 28.3971L35.5959 38.75H27.84L33.13 6.19995H46.6239C49.4329 6.19995 51.6449 6.89503 53.2588 8.28381C54.8727 9.67315 55.68 12.0344 55.68 15.3683ZM46.2207 21.2684C46.908 20.4647 47.356 19.3898 47.5657 18.0443C47.7146 17.1669 47.7898 16.5239 47.7898 16.1141C47.7898 15.003 47.5657 14.206 47.1173 13.7234C46.6688 13.2409 45.9963 12.9995 45.1 12.9995H39.7649L38.2409 22.475H43.5757C44.6514 22.475 45.5327 22.0733 46.2207 21.2684Z" fill="white"/>
<path fill-rule="evenodd" clip-rule="evenodd" d="M49.4933 38.75L64.6265 6.19995H74.1288L78.88 38.75H71.0054L70.3012 32.8281H59.8754L57.2799 38.75H49.4933ZM68.2779 12.6924L62.7349 26.0283H69.5976L68.2779 12.6924Z" fill="white"/>
<path d="M98.0172 6.19995L90.0249 21.466L87.2276 6.19995H78.88L84.9187 29.6254L83.4534 38.75H91.1349L92.6002 29.6254L106.72 6.19995H98.0172Z" fill="white"/>
<path d="M111.581 26.7963L123.112 26.4052L124.12 20.4523L112.633 20.1047L113.291 15.8463C113.437 14.9487 113.729 14.2821 114.168 13.8475C114.606 13.413 115.308 13.1958 116.272 13.1958H127.365L128.373 6.85173C124.105 6.44636 119.663 6.2291 115.045 6.19995C112.794 6.19995 110.843 6.76483 109.192 7.89459C107.54 9.02434 106.495 10.9945 106.057 13.8041L104.623 22.7601L101.457 41.42L104.178 40.9455L100.533 55.7999L115.851 32.9419L110.465 33.6895L111.581 26.7963Z" fill="white"/>
<path fill-rule="evenodd" clip-rule="evenodd" d="M123.733 38.75L138.867 6.19995H148.369L153.12 38.75H145.246L144.541 32.8281H134.115L131.52 38.75H123.733ZM142.518 12.6924L136.975 26.0283H143.838L142.518 12.6924Z" fill="white"/>
<path d="M181.464 12.6485L182.507 6.19995H160.017L158.883 12.9995H172.441L155.709 32.3452L154.667 38.75H177.655L178.789 31.9504H164.778L181.464 12.6485Z" fill="white"/>
<path d="M207.253 6.19995H184.764L183.63 12.9995H197.187L180.456 32.3452L179.413 38.75H202.401L203.535 31.9504H189.525L206.21 12.6485L207.253 6.19995Z" fill="white"/>
<path fill-rule="evenodd" clip-rule="evenodd" d="M140.747 55.7999L147.142 43.3999H150.448L153.12 55.7999H149.675L149.336 53.8187H144.964L144.021 55.7999H140.747ZM148.177 47.0438L146.246 51.13H148.872L148.177 47.0438Z" fill="white"/>
<path d="M161.621 46.8151C162.146 46.5027 162.714 46.3465 163.326 46.3465C163.856 46.3465 164.39 46.4661 164.927 46.7042C165.463 46.9427 165.922 47.2608 166.302 47.658L168.587 45.2394C167.998 44.6719 167.26 44.2232 166.372 43.8938C165.483 43.5647 164.577 43.3999 163.655 43.3999C162.282 43.3999 161.027 43.6955 159.891 44.2856C158.754 44.8763 157.857 45.6852 157.2 46.7129C156.542 47.7406 156.213 48.8844 156.213 50.1448C156.213 51.2236 156.464 52.1919 156.966 53.049C157.468 53.9064 158.168 54.5793 159.069 55.0672C159.969 55.5557 160.995 55.7999 162.149 55.7999C162.991 55.7999 163.871 55.655 164.788 55.3654C165.705 55.0759 166.527 54.6986 167.254 54.2326L168.24 49.3783H168.233L168.372 48.7025H163.072L162.601 50.9999H164.817L164.537 52.3931C163.822 52.6997 163.21 52.8533 162.703 52.8533C162.172 52.8533 161.693 52.7254 161.266 52.4699C160.839 52.2144 160.508 51.8596 160.271 51.4052C160.035 50.9514 159.916 50.4459 159.916 49.8893C159.916 49.2421 160.069 48.6459 160.375 48.1012C160.681 47.5559 161.096 47.1274 161.621 46.8151Z" fill="white"/>
<path d="M171.68 55.7999H181.783L182.338 52.9697H175.822L176.22 51.0062H181.974L182.528 48.1759H176.775L177.156 46.2301H183.498L184.053 43.3999H174.106L171.68 55.7999Z" fill="white"/>
<path d="M196.221 43.3999L194.874 50.334L191.092 43.3999H188.018L185.6 55.7999H188.916L190.263 48.9189L194.028 55.7999H197.102L199.52 43.3999H196.221Z" fill="white"/>
</svg>
