<svg width="232" height="62" viewBox="0 0 232 62" fill="none" xmlns="http://www.w3.org/2000/svg">
<path fill-rule="evenodd" clip-rule="evenodd" d="M55.68 15.3683C55.68 16.1294 55.5452 17.2985 55.2762 18.8778C54.7082 22.5044 53.4384 25.1441 51.4659 26.7961C49.4934 28.4486 47.2218 29.2745 44.6514 29.2745C43.3065 29.2745 41.9393 29.1867 40.5495 29.0113C39.1601 28.8358 38.0761 28.6314 37.2995 28.3971L35.5959 38.75H27.84L33.13 6.19995H46.6239C49.4329 6.19995 51.6449 6.89503 53.2588 8.28381C54.8727 9.67315 55.68 12.0344 55.68 15.3683ZM46.2207 21.2684C46.908 20.4647 47.356 19.3898 47.5657 18.0443C47.7146 17.1669 47.7898 16.5239 47.7898 16.1141C47.7898 15.003 47.5657 14.206 47.1173 13.7234C46.6688 13.2409 45.9963 12.9995 45.1 12.9995H39.7649L38.2409 22.475H43.5757C44.6514 22.475 45.5327 22.0733 46.2207 21.2684Z" fill="white"/>
<path fill-rule="evenodd" clip-rule="evenodd" d="M49.4933 38.75L64.6265 6.19995H74.1288L78.88 38.75H71.0054L70.3012 32.8281H59.8754L57.2799 38.75H49.4933ZM68.2779 12.6924L62.7349 26.0283H69.5976L68.2779 12.6924Z" fill="white"/>
<path d="M98.0172 6.19995L90.0249 21.466L87.2276 6.19995H78.88L84.9187 29.6254L83.4534 38.75H91.1349L92.6002 29.6254L106.72 6.19995H98.0172Z" fill="white"/>
<path d="M111.581 26.7963L123.112 26.4052L124.12 20.4523L112.633 20.1047L113.291 15.8463C113.437 14.9487 113.729 14.2821 114.168 13.8475C114.606 13.413 115.308 13.1958 116.272 13.1958H127.365L128.373 6.85173C124.105 6.44636 119.663 6.2291 115.045 6.19995C112.794 6.19995 110.843 6.76483 109.192 7.89459C107.54 9.02434 106.495 10.9945 106.057 13.8041L104.623 22.7601L101.457 41.42L104.178 40.9455L100.533 55.7999L115.851 32.9419L110.465 33.6895L111.581 26.7963Z" fill="white"/>
<path fill-rule="evenodd" clip-rule="evenodd" d="M123.733 38.75L138.867 6.19995H148.369L153.12 38.75H145.246L144.541 32.8281H134.115L131.52 38.75H123.733ZM142.518 12.6924L136.975 26.0283H143.838L142.518 12.6924Z" fill="white"/>
<path d="M181.464 12.6485L182.507 6.19995H160.017L158.883 12.9995H172.441L155.709 32.3452L154.667 38.75H177.655L178.789 31.9504H164.778L181.464 12.6485Z" fill="white"/>
<path d="M207.253 6.19995H184.764L183.63 12.9995H197.187L180.456 32.3452L179.413 38.75H202.401L203.535 31.9504H189.525L206.21 12.6485L207.253 6.19995Z" fill="white"/>
<path d="M121.715 45.3306L119.862 49.9935L119.303 45.3306H115.658L114.303 55H116.857L117.618 49.5757L118.07 53.3087H120.705L122.207 49.5622L121.446 55H124L125.354 45.3306H121.715ZM124.977 55H127.76L128.379 53.248H130.583L130.718 55H133.501L132.49 45.3306H128.689L124.977 55ZM129.02 51.2333L130.28 47.5812L130.509 51.2333H129.02ZM137.038 55.128C139.269 55.128 140.751 54.0566 141.007 52.2575C141.202 50.8762 140.421 50.1687 138.911 49.3196L138.244 48.9423C137.813 48.6997 137.591 48.3426 137.638 48.0057C137.712 47.4666 138.298 47.1499 139.167 47.1499C139.626 47.1499 140.205 47.2038 140.711 47.2914L141.189 45.7281C140.468 45.3643 139.774 45.2025 138.804 45.2025C136.668 45.2025 135.185 46.3076 134.936 48.1C134.747 49.4409 135.333 50.2158 136.58 50.9233L137.2 51.2737C137.914 51.678 138.372 51.8937 138.305 52.3653C138.224 52.9246 137.658 53.1807 136.546 53.1807C136.021 53.1807 135.293 53.0931 134.606 52.965L134.114 54.5351C134.99 54.8922 135.846 55.128 137.038 55.128ZM142.772 55H145.468L146.539 47.3453H148.473L148.756 45.3306H142.193L141.91 47.3453H143.844L142.772 55ZM148.251 55H154.719L155.002 52.9853H151.229L151.485 51.1659H154.78L155.063 49.1512H151.768L152.017 47.3453H155.791L156.074 45.3306H149.605L148.251 55ZM156.209 55H158.904L159.308 52.1228H159.712C159.921 52.1228 160.137 52.1228 160.332 52.1093L161.148 55H163.985L162.893 51.395C163.769 50.8088 164.288 49.8991 164.463 48.6593C164.793 46.3346 163.553 45.2025 160.676 45.2025C159.8 45.2025 158.85 45.3036 157.536 45.5597L156.209 55ZM159.591 50.108L159.982 47.3251C160.292 47.2442 160.474 47.2173 160.663 47.2173C161.451 47.2173 161.768 47.6957 161.633 48.6593C161.498 49.6296 161.047 50.108 160.272 50.108H159.591ZM167.805 55H170.588L171.208 53.248H173.411L173.546 55H176.329L175.318 45.3306H171.518L167.805 55ZM171.848 51.2333L173.108 47.5812L173.337 51.2333H171.848ZM181.295 55.128C182.589 55.128 183.681 54.9461 184.631 54.6024L185.399 49.1512H181.524L181.262 51.0312H182.575L182.279 53.1335C182.171 53.12 181.807 53.1133 181.605 53.1133C180.177 53.1133 180.062 52.1901 180.237 51.0716L180.507 49.2725C180.689 48.0798 181.14 47.2173 182.987 47.2173C183.977 47.2173 184.496 47.3318 185.008 47.4262L185.5 45.7888C184.846 45.4249 183.95 45.2025 182.832 45.2025C179.415 45.2025 177.993 47.0421 177.582 49.9328L177.522 50.4112C177.084 53.5108 178.384 55.128 181.295 55.128ZM186.012 55H192.481L192.764 52.9853H188.99L189.246 51.1659H192.541L192.824 49.1512H189.529L189.779 47.3453H193.552L193.835 45.3306H187.366L186.012 55ZM200.54 45.3306L199.859 50.2023L197.878 45.3306H195.331L193.977 55H196.53L197.218 50.1417L199.185 55H201.739L203.094 45.3306H200.54Z" fill="white"/>
</svg>
