<svg width="179" height="59" viewBox="0 0 179 59" fill="none" xmlns="http://www.w3.org/2000/svg">
<mask id="mask0" mask-type="alpha" maskUnits="userSpaceOnUse" x="0" y="0" width="179" height="59">
<path fill-rule="evenodd" clip-rule="evenodd" d="M19.1353 0.432373C23.499 0.432373 28.5441 2.84564 27.1387 11.9093C25.5365 22.3962 19.7352 22.0438 15.802 21.8051L15.7455 21.8019C13.9314 21.7003 9.66922 21.0641 9.44265 20.9295L7.43576 33.607H0L5.25954 0.432373H19.1353ZM16.0632 15.3877C17.9452 15.3877 19.1465 14.2323 19.6569 10.9918C20.1439 7.80846 19.0675 6.89088 17.4348 6.89088H11.6761L10.3159 15.3877H16.0632ZM117.595 33.607H125.028L119.949 0.432373H111.532L95.8255 33.607H103.855L106.943 26.9453H116.468L117.595 33.607ZM109.696 20.4981L114.419 9.87099L115.879 20.4981H109.696ZM84.7323 22.2776L84.9944 20.6311L96.972 20.2151L97.9017 14.1138L86.0934 13.63L86.6691 9.89438C86.8456 8.67847 87.1109 7.37306 89.367 7.37306H101.063L101.992 1.2161C98.1775 0.674265 88.4373 0.494455 88.4373 0.494455C84.6122 0.449302 80.6218 2.06998 79.6816 8.03584L77.8819 19.6579L74.8994 36.3598L77.6183 35.8728L73.9762 51.116L89.2783 27.6597L83.7736 28.4443L84.7323 22.2776ZM137.574 26.8542H150.972L149.884 33.607H126.852L127.94 26.8542L145.067 7.18519H131.024L132.112 0.432373H155.144L154.055 7.18519L137.574 26.8542ZM155.945 0.494455L154.857 7.23438H168.914L151.77 26.8663L150.682 33.6062H173.736L174.826 26.8663H161.414L177.911 7.23438L179 0.494455H155.945ZM37.6102 0.432373L21.9041 33.607H29.9349L33.0223 26.9453H42.5464L43.6744 33.607H51.1085L46.0288 0.432373H37.6102ZM35.775 20.4981L40.4984 9.87099L41.9586 20.4981H35.775ZM61.0446 15.7619L69.3464 0.432373H77.5715L63.5176 23.8628L62.0058 33.607H54.7635L56.2761 23.8628L50.1926 0.432373H58.042L61.0446 15.7619ZM119.844 39.9043C117.888 39.9269 115.942 40.1921 114.05 40.6921L113.833 40.7485L111.469 57.5874L111.748 57.6688C113.603 58.2058 115.523 58.4808 117.453 58.4848C122.516 58.4848 125.578 56.5739 126.078 53.0995C126.347 51.0741 125.594 49.3905 124.162 48.6592C124.789 48.2391 125.317 47.6892 125.713 47.0457C126.108 46.4031 126.361 45.6823 126.455 44.9324C126.636 43.6536 126.363 42.5853 125.644 41.7556C124.582 40.5268 122.63 39.9043 119.844 39.9043ZM121.656 52.6544V52.6568C121.449 54.2082 120.373 54.9298 118.266 54.9298C117.615 54.9403 116.965 54.8613 116.335 54.6944L116.924 50.5822H119.882C120.149 50.558 120.418 50.5927 120.67 50.683C120.923 50.7733 121.152 50.9184 121.343 51.1063C121.502 51.3272 121.613 51.5796 121.667 51.8465C121.721 52.1134 121.717 52.3883 121.656 52.6544ZM121.934 45.3001C121.762 46.5321 120.977 47.211 119.721 47.211H117.391L117.877 43.723C118.559 43.5512 119.26 43.4617 119.963 43.4577C120.789 43.4577 121.364 43.6391 121.673 43.9963C121.808 44.1818 121.901 44.3946 121.946 44.6188C121.991 44.8437 121.987 45.0759 121.934 45.3001H121.934ZM134.914 55.029C136.333 55.029 137.249 54.0953 137.492 52.3996L139.193 40.1365H143.653L141.999 51.9473C141.43 56.0409 138.636 58.4864 134.527 58.4864C132.49 58.4864 130.883 57.8744 129.881 56.715C128.878 55.5555 128.5 53.8752 128.788 51.8529L130.417 40.1365H134.876L133.162 52.494C133.034 53.3833 133.159 54.0784 133.528 54.5033C133.707 54.6879 133.923 54.8306 134.163 54.9217C134.402 55.0121 134.659 55.0491 134.914 55.029ZM156.138 40.1349L151.265 47.2949H150.058L151.053 40.1349H146.591L144.062 58.2542H148.522L149.553 50.8499H150.82L153.959 58.2542H158.672L154.839 48.9349L160.803 40.1349H156.138ZM167.108 55.029C168.527 55.029 169.442 54.0953 169.686 52.3996L171.387 40.1365H175.847L174.193 51.9473C173.624 56.0409 170.831 58.4864 166.721 58.4864C164.683 58.4864 163.075 57.8744 162.074 56.7142C161.072 55.5547 160.694 53.8744 160.981 51.8529L162.61 40.1365H167.069L165.356 52.494C165.227 53.3833 165.354 54.0784 165.721 54.5033C165.9 54.6879 166.116 54.8306 166.355 54.9209C166.596 55.0121 166.852 55.0491 167.108 55.029Z" fill="white"/>
</mask>
<g mask="url(#mask0)">
<path d="M263.662 -144.703H-84.6621V203.621H263.662V-144.703Z" fill="white"/>
</g>
</svg>
