<?xml version="1.0" encoding="utf-8"?>
<!-- Generator: Adobe Illustrator 25.4.1, SVG Export Plug-In . SVG Version: 6.00 Build 0)  -->
<svg version="1.1" id="Layer_1" xmlns="http://www.w3.org/2000/svg" xmlns:xlink="http://www.w3.org/1999/xlink" x="0px" y="0px"
	 viewBox="0 0 132.6 36" style="enable-background:new 0 0 132.6 36;" xml:space="preserve">
<style type="text/css">
	.st0{fill-rule:evenodd;clip-rule:evenodd;fill:#231F20;}
	.st1{fill:#231F20;}
</style>
<path class="st0" d="M20.6,6.7c0,0.6-0.1,1.4-0.3,2.6c-0.4,2.7-1.4,4.6-2.8,5.8c-1.5,1.2-3.1,1.8-5,1.8c-1,0-2-0.1-3-0.2
	c-1-0.1-1.8-0.3-2.4-0.5l-1.3,7.6H0L3.9,0h10c2.1,0,3.7,0.5,4.9,1.5S20.6,4.3,20.6,6.7z M13.6,11.1c0.5-0.6,0.8-1.4,1-2.4
	c0.1-0.6,0.2-1.1,0.2-1.4c0-0.8-0.2-1.4-0.5-1.8C13.9,5.2,13.4,5,12.8,5H8.8l-1.1,7h3.9C12.4,11.9,13.1,11.7,13.6,11.1z"/>
<path class="st0" d="M16,23.9L27.2,0h7l3.5,23.9h-5.8l-0.5-4.3h-7.7l-1.9,4.3H16z M29.9,4.8l-4.1,9.8h5.1L29.9,4.8z"/>
<path class="st1" d="M52.1,0.1l-5.8,11.2l-2-11.2h-6.1l4.4,17.2L41.5,24h5.6l1.1-6.7L58.4,0.1H52.1z"/>
<path class="st1" d="M61.8,15l9-0.3l0.8-4.3l-9-0.3L63.1,7c0.1-0.7,0.3-1.1,0.7-1.4c0.3-0.3,0.9-0.5,1.6-0.5h8.7l0.8-4.6
	c-3.3-0.3-6.8-0.5-10.4-0.5c-1.8,0-3.3,0.4-4.6,1.2c-1.3,0.8-2.1,2.2-2.4,4.3l-1.1,6.5l-2.5,13.5l2.1-0.3L53.2,36l12-16.6L60.9,20
	L61.8,15z"/>
<path class="st0" d="M70.9,23.9L82,0h7l3.5,23.9h-5.8l-0.5-4.3h-7.7l-1.9,4.3H70.9z M84.7,4.8l-4.1,9.8h5.1L84.7,4.8z"/>
<path class="st1" d="M113.8,4.8l0.8-4.7H97.6l-0.9,5H107L94.4,19.3L93.6,24h17.3l0.9-5h-10.6L113.8,4.8z"/>
<path class="st1" d="M132.6,0.1h-16.3l-0.8,5h9.8l-12.2,14.2l-0.8,4.7H129l0.8-5h-10.2l12.1-14.2L132.6,0.1z"/>
</svg>
