<?xml version="1.0" encoding="utf-8"?>
<!-- Generator: Adobe Illustrator 25.4.1, SVG Export Plug-In . SVG Version: 6.00 Build 0)  -->
<svg version="1.1" id="Layer_1" xmlns="http://www.w3.org/2000/svg" xmlns:xlink="http://www.w3.org/1999/xlink" x="0px" y="0px"
	 viewBox="0 0 132.562 36" enable-background="new 0 0 132.562 36" xml:space="preserve">
<path fill-rule="evenodd" clip-rule="evenodd" fill="#FFFFFF" d="M20.57,6.731c0,0.559-0.1,1.417-0.298,2.576
	c-0.42,2.662-1.358,4.6-2.815,5.813c-1.457,1.213-3.136,1.819-5.035,1.819c-0.994,0-2.004-0.064-3.031-0.193
	c-1.027-0.129-1.828-0.279-2.401-0.451l-1.259,7.601H0L3.909,0h9.97c2.075,0,3.71,0.51,4.902,1.53
	C19.973,2.55,20.57,4.283,20.57,6.731z M13.581,11.062c0.508-0.59,0.839-1.379,0.994-2.367c0.11-0.644,0.166-1.116,0.166-1.417
	c0-0.816-0.166-1.401-0.497-1.755c-0.332-0.354-0.828-0.531-1.491-0.531H8.811l-1.126,6.956h3.942
	C12.421,11.948,13.072,11.653,13.581,11.062z"/>
<path fill-rule="evenodd" clip-rule="evenodd" fill="#FFFFFF" d="M15.999,23.897L27.18,0h7.021l3.51,23.897h-5.818l-0.52-4.348
	H23.67l-1.918,4.348H15.999z M29.878,4.766l-4.096,9.79h5.071L29.878,4.766z"/>
<path fill="#FFFFFF" d="M52.096,0.051l-5.805,11.24l-2.032-11.24h-6.063l4.386,17.248l-1.064,6.718h5.579l1.064-6.718L58.417,0.051
	H52.096z"/>
<path fill="#FFFFFF" d="M61.793,14.979l8.996-0.283l0.787-4.314l-8.962-0.252l0.513-3.086c0.114-0.651,0.342-1.134,0.684-1.449
	c0.342-0.315,0.889-0.472,1.642-0.472h8.654l0.787-4.598c-3.33-0.294-6.795-0.451-10.398-0.472c-1.756,0-3.278,0.409-4.566,1.228
	c-1.289,0.819-2.104,2.247-2.446,4.283l-1.119,6.491l-2.47,13.524l2.122-0.344L53.174,36l11.95-16.567l-4.202,0.542L61.793,14.979z"
	/>
<path fill-rule="evenodd" clip-rule="evenodd" fill="#FFFFFF" d="M70.852,23.897L82.033,0h7.021l3.51,23.897h-5.818l-0.52-4.348
	h-7.703l-1.918,4.348H70.852z M84.731,4.766l-4.096,9.79h5.071L84.731,4.766z"/>
<path fill="#FFFFFF" d="M113.802,4.799l0.785-4.748h-16.94l-0.854,5.006h10.212L94.403,19.301l-0.785,4.716h17.316l0.854-5.006
	h-10.554L113.802,4.799z"/>
<path fill="#FFFFFF" d="M132.562,0.051h-16.335l-0.824,5.006h9.847l-12.152,14.244l-0.758,4.716h16.698l0.823-5.006h-10.176
	l12.119-14.212L132.562,0.051z"/>
</svg>
