<svg width="232" height="62" viewBox="0 0 232 62" fill="none" xmlns="http://www.w3.org/2000/svg">
<path fill-rule="evenodd" clip-rule="evenodd" d="M55.68 15.3683C55.68 16.1294 55.5452 17.2985 55.2762 18.8778C54.7082 22.5044 53.4384 25.1441 51.4659 26.7961C49.4934 28.4486 47.2218 29.2745 44.6514 29.2745C43.3065 29.2745 41.9393 29.1867 40.5495 29.0113C39.1601 28.8358 38.0761 28.6314 37.2995 28.3971L35.5959 38.75H27.84L33.13 6.19995H46.6239C49.4329 6.19995 51.6449 6.89503 53.2588 8.28381C54.8727 9.67315 55.68 12.0344 55.68 15.3683ZM46.2207 21.2684C46.908 20.4647 47.356 19.3898 47.5657 18.0443C47.7146 17.1669 47.7898 16.5239 47.7898 16.1141C47.7898 15.003 47.5657 14.206 47.1173 13.7234C46.6688 13.2409 45.9963 12.9995 45.1 12.9995H39.7649L38.2409 22.475H43.5757C44.6514 22.475 45.5327 22.0733 46.2207 21.2684Z" fill="white"/>
<path fill-rule="evenodd" clip-rule="evenodd" d="M49.4933 38.75L64.6265 6.19995H74.1288L78.88 38.75H71.0054L70.3012 32.8281H59.8754L57.2799 38.75H49.4933ZM68.2779 12.6924L62.7349 26.0283H69.5976L68.2779 12.6924Z" fill="white"/>
<path d="M98.0171 6.19995L90.0248 21.466L87.2274 6.19995H78.8799L84.9185 29.6254L83.4533 38.75H91.1348L92.6001 29.6254L106.72 6.19995H98.0171Z" fill="white"/>
<path d="M111.581 26.7963L123.112 26.4052L124.12 20.4523L112.633 20.1047L113.291 15.8463C113.437 14.9487 113.729 14.2821 114.168 13.8475C114.606 13.413 115.308 13.1958 116.272 13.1958H127.365L128.373 6.85173C124.105 6.44636 119.663 6.2291 115.045 6.19995C112.794 6.19995 110.842 6.76483 109.192 7.89459C107.54 9.02434 106.495 10.9945 106.057 13.8041L104.622 22.7601L101.457 41.42L104.177 40.9455L100.533 55.7999L115.851 32.9419L110.465 33.6895L111.581 26.7963Z" fill="white"/>
<path fill-rule="evenodd" clip-rule="evenodd" d="M123.733 38.75L138.867 6.19995H148.369L153.12 38.75H145.246L144.542 32.8281H134.116L131.52 38.75H123.733ZM142.518 12.6924L136.975 26.0283H143.838L142.518 12.6924Z" fill="white"/>
<path d="M181.464 12.6485L182.507 6.19995H160.017L158.884 12.9995H172.441L155.71 32.3452L154.667 38.75H177.655L178.789 31.9504H164.778L181.464 12.6485Z" fill="white"/>
<path d="M207.253 6.19995H184.764L183.63 12.9995H197.187L180.456 32.3452L179.413 38.75H202.401L203.535 31.9504H189.525L206.21 12.6485L207.253 6.19995Z" fill="white"/>
<path d="M144.184 43.2363L141.738 49.3914L141 43.2363H136.188L134.4 56H137.771L138.776 48.8399L139.372 53.7675H142.85L144.834 48.8221L143.828 56H147.199L148.987 43.2363H144.184ZM155.319 56.169C158.895 56.169 161.163 53.9632 161.732 49.925L161.821 49.2935C162.373 45.3621 160.647 43.0674 157.161 43.0674C153.674 43.0674 151.308 45.3621 150.757 49.2935L150.668 49.925C150.098 53.9632 151.744 56.169 155.319 56.169ZM155.693 53.5095C154.492 53.5095 154.003 52.7268 154.217 51.1525L154.652 48.0661C154.875 46.5095 155.586 45.7268 156.787 45.7268C157.988 45.7268 158.477 46.5095 158.255 48.0661L157.819 51.1525C157.605 52.7268 156.894 53.5095 155.693 53.5095ZM167.673 56.169C171.436 56.169 173.722 54.8437 174.06 52.46C174.273 50.9034 173.579 49.5959 172.361 49.3113C173.33 48.9644 174.14 47.7903 174.317 46.5006C174.629 44.2859 172.868 43.0674 169.39 43.0674C168.171 43.0674 166.819 43.2186 165.245 43.5388L163.537 55.6798C164.996 56.0089 166.366 56.169 167.673 56.169ZM168.136 48.2707L168.474 45.8691C168.75 45.7802 169.203 45.7268 169.55 45.7268C170.439 45.7268 170.822 46.136 170.706 46.9632C170.591 47.7815 170.093 48.2707 169.381 48.2707H168.136ZM168.456 53.5095C168.047 53.5095 167.718 53.474 167.415 53.3672L167.789 50.7522H169.577C170.306 50.7522 170.671 51.277 170.555 52.1042C170.422 53.0737 169.746 53.5095 168.456 53.5095ZM176.185 56H179.742L181.53 43.2363H177.972L176.185 56ZM182.624 56H190.131L190.504 53.3405H186.555L187.969 43.2363H184.411L182.624 56ZM192.496 56H201.035L201.408 53.3405H196.427L196.765 50.939H201.115L201.488 48.2795H197.139L197.468 45.8958H202.449L202.822 43.2363H194.284L192.496 56Z" fill="white"/>
</svg>
