<svg width="161" height="160" viewBox="0 0 161 160" fill="none" xmlns="http://www.w3.org/2000/svg">
<g clip-path="url(#clip0)">
<path d="M29.5678 22.77C23.6374 27.8837 20.7897 32.5944 17.9558 39.5562C15.122 46.518 14.1128 54.0774 13.6152 61.5811C12.6475 76.2134 13.5599 90.9569 16.3385 105.353C17.6379 112.079 19.3659 118.818 22.7112 124.779C29.2222 136.369 41.4147 143.983 54.2569 147.235C67.0991 150.487 80.6187 149.806 93.7374 147.944C102.101 146.749 110.713 144.956 117.5 139.884C128.601 131.602 132.209 116.873 137.821 104.158C140.835 97.3351 144.623 90.8179 146.82 83.6755C148.673 77.6447 149.336 71.3221 149.765 65.0273C150.359 56.2451 150.332 46.7265 145.245 39.5423C141.125 33.72 134.31 30.4266 127.495 28.4673C120.666 26.508 113.547 25.6326 106.801 23.3953C98.9075 20.769 91.7192 16.3363 83.8811 13.5849C65.7997 7.24838 44.608 10.8335 29.5678 22.77Z" fill="#F2F4F5"/>
</g>
<g clip-path="url(#clip1)">
<path d="M34.2905 115.387C35.2724 113.498 36.5685 111.726 37.1969 109.678C37.8254 107.631 37.5897 105.151 35.9794 103.733C35.7045 103.497 35.4295 103.3 35.1153 103.221C34.2513 102.946 32.7195 103.458 32.0125 104.166C31.1877 105.033 30.7164 106.371 30.363 107.237C30.3237 107.355 30.2844 107.434 30.2451 107.552C30.0095 108.104 29.8916 108.734 29.8524 109.324C29.8131 109.993 29.9309 110.702 29.6167 111.332C29.3025 111.962 28.3599 112.277 27.9671 111.726C27.81 111.529 27.7707 111.253 27.7315 110.978C27.4173 107.355 28.0457 103.733 28.2813 100.15C28.517 96.5674 28.2813 92.7089 26.4746 89.5985C25.7677 88.4173 24.7465 87.2755 23.3719 87.1574C22.3114 87.0393 21.251 87.6299 20.5833 88.4567C19.9156 89.2835 19.6014 90.3466 19.5228 91.4096C19.3657 93.6145 20.1512 95.78 21.251 97.7092C22.3114 99.6385 23.6861 101.371 24.7858 103.3C25.1 103.851 25.4142 104.403 25.4928 105.032C25.5713 105.662 25.3749 106.332 24.8251 106.686C24.4323 106.922 23.961 106.962 23.529 106.922C22.115 106.765 20.8975 105.82 19.6407 105.19C17.834 104.284 15.6738 103.969 13.8278 104.718C11.9819 105.505 10.6465 107.592 11.1178 109.521C11.6284 111.647 13.9457 112.828 16.1058 113.104C18.266 113.379 20.4654 112.946 22.6256 113.222C23.9217 113.379 25.4142 113.97 25.6891 115.269C25.9641 116.451 24.9822 117.632 23.8824 118.025C22.7434 118.419 21.4866 118.262 20.3083 118.104C19.1301 117.907 17.8732 117.75 16.7342 118.104C15.556 118.498 14.5741 119.443 14.2206 120.624C13.8671 121.805 14.1028 123.183 14.849 124.168C16.1058 125.821 18.4231 126.176 20.5047 126.057C22.5863 125.9 24.6287 125.388 26.671 125.782C27.1423 125.861 27.5744 126.018 27.9279 126.294C28.9883 127.199 28.5563 128.853 28.5563 130.231C28.5563 132.003 29.4203 133.735 30.8343 134.759C32.2482 135.782 34.1727 136.058 35.8223 135.467L36.5293 135.586C37.6683 135.428 38.4538 134.208 38.4145 133.066C38.4145 131.924 37.7468 130.861 37.0006 129.995C36.2543 129.128 35.351 128.42 34.6047 127.514C33.505 126.215 32.7981 124.561 32.6017 122.829C32.4446 121.372 32.641 119.994 32.9944 118.577C33.3086 117.435 33.7407 116.372 34.2905 115.387Z" fill="#89DCAE"/>
<path d="M22.7434 89.6772C24.6287 94.4806 25.8462 99.5203 26.3175 104.639C26.4354 105.938 26.5139 107.237 26.5139 108.497C26.5532 109.796 26.4746 111.135 26.4746 112.434C26.4746 113.734 26.5925 114.994 26.8674 116.293C27.1423 117.592 27.5351 118.852 27.8886 120.112C28.7526 123.065 29.5774 125.979 30.4415 128.932C30.5593 129.286 31.1092 129.089 30.9914 128.735C30.2451 126.136 29.4989 123.498 28.7134 120.9C27.9671 118.34 27.1423 115.781 27.0638 113.104C27.0245 111.765 27.103 110.466 27.103 109.127C27.103 107.828 27.0638 106.529 26.9459 105.229C26.7496 102.709 26.3961 100.15 25.8462 97.6698C25.2178 94.835 24.393 92.0789 23.2933 89.4016C23.1755 89.1259 22.6256 89.3228 22.7434 89.6772Z" fill="white"/>
<path d="M17.0485 108.261C17.9518 107.985 18.9337 108.497 19.7585 108.812C20.6618 109.167 21.5259 109.521 22.4292 109.915C22.7827 110.072 23.0184 109.521 22.7042 109.403C21.7223 108.97 20.7404 108.576 19.7585 108.182C18.8551 107.828 17.8733 107.434 16.8914 107.71C16.4986 107.789 16.695 108.34 17.0485 108.261Z" fill="white"/>
<path d="M45.8769 105.859C45.602 104.048 44.895 101.686 42.7348 101.449C40.8496 101.253 39.5928 102.985 39.2786 104.639C38.8073 107.04 39.475 109.56 39.9463 111.923C40.5354 114.797 40.9282 117.513 40.1426 120.388C39.2 123.852 37.1184 127.79 37.6683 131.451C36.8042 128.459 37.2755 124.994 37.197 121.923C37.1577 119.718 36.9613 117.474 36.5293 115.309C36.2151 113.694 35.8223 111.883 34.644 110.663C32.4053 108.379 28.8705 110.072 28.7527 113.143C28.6741 115.033 29.7345 116.687 30.7557 118.222C32.0125 120.112 33.1123 122.081 33.78 124.246C34.2905 125.86 34.6047 127.514 34.9975 129.128C34.4869 128.065 33.9371 127.002 33.1123 126.175C31.7376 124.758 28.7527 123.774 28.1635 126.412C27.9279 127.475 27.9279 128.656 28.6741 129.561C29.4989 130.546 30.8343 130.821 31.8947 131.412C34.4476 132.869 36.1758 135.703 39.4357 135.703C39.5535 135.703 39.6321 135.664 39.6713 135.585C39.8284 135.467 39.9463 135.231 39.7499 135.034C39.7106 134.995 39.7499 135.034 39.8284 134.798C39.9855 134.68 39.8677 134.483 39.6713 134.247C39.6321 134.168 39.7106 134.325 39.6713 134.247C39.6321 131.766 40.1819 129.286 41.478 127.12C42.8134 124.915 44.0309 122.789 44.8165 120.348C46.2697 115.702 46.5839 110.663 45.8769 105.859Z" fill="#61D093"/>
<path d="M42.3421 111.017C41.9886 113.852 42.0279 116.726 41.6744 119.561C41.5173 121.017 41.2424 122.474 40.7711 123.852C40.339 125.112 39.7106 126.333 39.2393 127.593C38.6895 128.931 38.336 130.309 38.5716 131.727C38.6109 131.924 38.9251 131.845 38.8858 131.648C38.4538 128.892 40.2998 126.451 41.1246 123.97C41.9886 121.332 42.1457 118.537 42.3028 115.82C42.3814 114.206 42.4599 112.631 42.6956 111.056C42.6956 110.82 42.3814 110.82 42.3421 111.017Z" fill="white"/>
<path d="M33.2693 117.828C33.3479 117.789 34.2905 120.86 34.369 121.136C34.6833 122.238 34.9582 123.301 35.1938 124.404C35.4295 125.506 35.6652 126.609 35.8615 127.711C36.0579 128.813 36.1757 129.955 36.6078 131.018C36.6863 131.215 37.0005 131.136 36.922 130.94C36.4507 129.758 36.3328 128.498 36.0972 127.238C35.8615 125.979 35.5866 124.679 35.2724 123.419C34.9582 122.199 34.644 120.978 34.2905 119.758C34.0941 119.128 33.937 118.458 33.7014 117.868C33.5835 117.592 33.3872 117.395 33.1122 117.513C32.9551 117.632 33.1122 117.907 33.2693 117.828Z" fill="white"/>
<path d="M32.641 129.679C34.4477 130.624 35.9794 131.963 37.2362 133.577C37.3541 133.735 37.5897 133.499 37.4719 133.341C36.2151 131.727 34.6048 130.388 32.7981 129.404C32.6017 129.286 32.4446 129.561 32.641 129.679Z" fill="white"/>
</g>
<g clip-path="url(#clip2)">
<path d="M78.226 29.1621H75.4396V143.419H78.226V29.1621Z" fill="#2D517E"/>
<path d="M112.175 47.5024H78.2581V29.1621H112.175L117.492 38.3322L112.175 47.5024Z" fill="#92C1F8"/>
<path d="M117.492 80.3862H78.2581V59.6006H117.492L126.075 69.9934L117.492 80.3862Z" fill="#92C1F8"/>
<path d="M50.1378 67.0011H75.4396V50.0122H50.1378L42.3871 58.5067L50.1378 67.0011Z" fill="#92C1F8"/>
</g>
<mask id="mask0" mask-type="alpha" maskUnits="userSpaceOnUse" x="13" y="10" width="137" height="140">
<g clip-path="url(#clip3)">
<path d="M29.5678 22.77C23.6374 27.8837 20.7897 32.5944 17.9558 39.5562C15.122 46.518 14.1128 54.0774 13.6152 61.5811C12.6475 76.2134 13.5599 90.9569 16.3385 105.353C17.6379 112.079 19.3659 118.818 22.7112 124.779C29.2222 136.369 41.4147 143.983 54.2569 147.235C67.0991 150.487 80.6187 149.806 93.7374 147.944C102.101 146.749 110.713 144.956 117.5 139.884C128.601 131.602 132.209 116.873 137.821 104.158C140.835 97.3351 144.623 90.8179 146.82 83.6755C148.673 77.6447 149.336 71.3221 149.765 65.0273C150.359 56.2451 150.332 46.7265 145.245 39.5423C141.125 33.72 134.31 30.4266 127.495 28.4673C120.666 26.508 113.547 25.6326 106.801 23.3953C98.9075 20.769 91.7192 16.3363 83.8811 13.5849C65.7997 7.24838 44.608 10.8335 29.5678 22.77Z" fill="#202857"/>
</g>
</mask>
<g mask="url(#mask0)">
<g clip-path="url(#clip4)">
<path d="M98.5655 84.3004C98.5655 86.1262 97.1008 87.5978 95.2834 87.5978C93.466 87.5978 91.5672 86.4532 91.5672 84.6547C91.5672 82.8561 93.6016 80.3218 95.419 80.3218C97.2364 80.3218 98.5655 82.4746 98.5655 84.3004Z" fill="#2D517E"/>
<path d="M93.8728 87.3525C94.334 87.516 94.8222 87.5977 95.3105 87.5977C97.1279 87.5977 98.5927 86.1262 98.5927 84.3004C98.5927 83.8644 98.5113 83.4011 98.3757 82.9651C95.202 83.6464 94.1983 85.9082 93.8728 87.3525Z" fill="#3EC57B"/>
<path d="M112.833 88.7696C110.338 83.7281 103.855 80.7033 98.7554 83.0741C93.6558 85.445 94.8494 88.5516 92.8963 89.1511C90.9433 89.7506 88.3664 88.9876 88.9903 91.9034C89.37 93.6747 89.7769 95.4461 87.2271 95.8276C84.7316 96.2091 84.3247 98.3619 86.6575 99.9425C88.9903 101.523 89.587 101.714 90.9433 103.076C92.2996 104.439 93.0862 106.81 97.7789 106.619C102.472 106.428 105.591 105.829 107.354 106.21C109.117 106.592 111.07 106.401 111.07 105.038C111.07 103.676 111.45 102.286 112.047 102.286C112.644 102.286 113.403 101.114 113.213 100.133C113.023 99.1522 111.857 98.7707 112.237 97.1901C112.644 95.6368 114.38 91.9034 112.833 88.7696Z" fill="#2D517E"/>
<path d="M110.474 84.4094C113.484 86.8893 115.383 87.7068 114.027 92.0669C112.671 96.4271 111.314 100.242 111.314 100.242L110.474 84.4094Z" fill="#2D517E"/>
<path d="M99.542 109.998C99.542 109.998 100.898 113.296 105.835 113.296C110.772 113.296 111.911 110.679 111.911 110.679C111.884 110.625 111.884 110.598 111.884 110.598C111.884 110.598 109.443 108.227 109.606 106.319C109.795 104.412 110.799 99.561 110.799 99.561L100.519 99.6428L100.708 100.542C100.708 100.542 101.332 102.586 101.522 104.684C101.712 106.783 100.708 109.48 99.7048 109.753C99.5963 109.78 99.542 109.862 99.542 109.998Z" fill="#E9F3FE"/>
<path d="M109.741 105.311C110.067 103.104 110.799 99.561 110.799 99.561L100.573 99.6428L100.546 99.7518L100.708 100.569C100.708 100.569 101.007 101.578 101.278 102.886C102.119 103.485 106.73 106.674 109.741 105.311Z" fill="#92C1F8"/>
<path d="M97.8603 91.4947C97.372 93.6476 97.3991 95.9094 97.9959 98.035C99.0809 101.905 101.685 104.357 106.785 104.575C113.593 104.875 113.078 96.4816 112.888 93.8383C112.861 93.4568 112.833 93.0208 112.779 92.612C112.481 89.7234 112.318 87.4616 109.443 87.2163L104.18 86.8076C101.197 86.5896 98.5113 88.5789 97.8603 91.4947Z" fill="#E9F3FE"/>
<path d="M112.399 93.2932L114.027 96.4543C114.298 97.1083 113.512 97.7624 112.833 97.9259L112.399 98.0076V93.2932Z" fill="#92C1F8"/>
<path d="M107.246 82.529C106.757 82.3928 106.296 82.2565 105.835 82.1748C101.061 81.2482 96.2328 83.8643 94.4967 88.4152C94.2255 89.151 93.9542 89.914 93.9542 90.7043C93.9542 98.0621 98.9995 100.569 99.2979 100.951C99.3793 101.032 99.4607 101.114 99.4607 101.169C100.491 100.487 103.909 94.6557 104.072 93.5112C104.153 92.9116 104.099 92.3394 104.18 91.7399C104.343 90.4863 105.238 89.1783 106.595 88.8785C107.978 88.5515 110.446 89.5053 111.477 89.2873C111.694 89.2328 111.938 89.1783 112.155 89.1238C112.155 89.0965 112.671 84.1641 107.246 82.529Z" fill="#2D517E"/>
<path d="M103.991 95.3371C103.991 96.5361 103.014 98.0622 101.821 98.0622C100.627 98.0622 99.6505 96.5361 99.6505 95.3371C99.6505 94.138 100.627 93.157 101.821 93.157C103.014 93.157 103.991 94.138 103.991 95.3371Z" fill="#E9F3FE"/>
<path d="M103.719 91.7944L104.153 92.176C104.153 92.176 110.501 93.9745 112.128 89.0694C112.128 89.0694 104.533 84.4367 103.719 91.7944Z" fill="#2D517E"/>
</g>
<g clip-path="url(#clip5)">
<path d="M92.7607 107.627L91.106 108.417C91.106 108.417 90.8619 111.034 92.7607 111.497C94.6595 111.96 95.202 110.87 95.202 110.87L92.7607 107.627Z" fill="#2D517E"/>
<path d="M115.817 128.338H109.036V147.686H115.817V128.338Z" fill="#2D517E"/>
<path d="M113.484 129.128C113.484 129.128 118.991 139.129 120.944 138.203C122.87 137.276 122.761 136.867 122.49 134.142C122.219 131.417 119.967 126.539 119.967 126.539L113.484 129.128Z" fill="#3576C4"/>
<path d="M116.957 116.02C115.546 112.996 113.295 110.979 111.396 109.698L111.748 110.598C111.748 110.598 110.501 113.568 109.307 116.266L111.559 129.346C111.559 129.346 111.423 130.164 113.837 130.055C116.251 129.918 121.052 126.73 121.052 126.73C121.052 126.73 119.778 122.07 116.957 116.02Z" fill="#3576C4"/>
<path d="M127.644 105.965C127.02 105.284 126.993 104.275 125.257 104.984C125.121 105.038 124.959 105.093 124.769 105.147C124.85 105.038 124.904 104.82 125.013 104.493C125.257 103.73 125.637 100.923 124.66 100.787C123.684 100.651 123.602 103.104 123.602 103.104C123.602 103.104 124.307 104.82 124.47 105.12C124.497 105.147 124.497 105.175 124.525 105.202C122.707 105.747 120.103 105.992 120.103 105.992C120.103 105.992 118.394 105.556 119.94 107.464C121.297 109.126 121.161 110.243 121.731 110.925L121.758 113.077C121.758 113.077 121.541 117.737 121.378 119.917C121.215 122.097 117.635 135.341 119.859 137.14C122.083 138.939 125.501 134.987 125.447 131.908C125.393 128.91 124.904 114.249 125.582 112.832C125.664 112.778 125.718 112.75 125.799 112.669C126.64 111.878 127.969 110.57 128.485 109.916C129.299 108.962 128.295 106.619 127.644 105.965Z" fill="#E9F3FE"/>
<path d="M120.89 103.431C122.544 102.068 123.005 101.686 123.738 102.504C124.47 103.322 127.074 106.864 127.59 107.491C128.105 108.118 128.837 108.853 127.969 109.671C126.586 111.034 125.393 112.042 124.307 111.034C123.222 110.025 120.863 106.946 120.212 106.156C119.561 105.365 119.235 104.793 120.89 103.431Z" fill="#2D517E"/>
<path d="M120.564 105.556C120.401 105.338 120.157 105.066 120.51 104.766C120.863 104.466 120.971 104.357 121.08 104.275C121.188 104.194 121.351 104.548 121.676 104.33C122.002 104.112 122.327 103.894 122.436 103.757C122.571 103.621 122.246 103.294 122.409 103.185C122.544 103.076 122.978 102.776 123.114 102.667C123.25 102.558 123.521 102.667 124.552 103.975C125.582 105.284 127.508 108.009 127.888 108.445C128.268 108.853 127.969 109.426 126.993 110.189C126.016 110.952 125.338 111.224 124.606 110.57C123.846 109.862 120.564 105.556 120.564 105.556Z" fill="#92C1F8"/>
<path d="M126.966 106.564C126.966 106.564 126.206 108.036 126.857 108.39C127.508 108.717 127.888 107.545 127.888 107.545L126.966 106.564Z" fill="#E9F3FE"/>
<path d="M128.024 107.873C128.024 107.873 127.508 108.881 127.969 109.126C128.431 109.344 128.675 108.554 128.675 108.554L128.024 107.873Z" fill="#E9F3FE"/>
<path d="M126.125 105.42C126.125 105.42 125.393 106.864 126.044 107.164C126.695 107.491 127.047 106.346 127.047 106.346L126.125 105.42Z" fill="#E9F3FE"/>
<path d="M118.774 134.96C118.774 134.96 118.91 137.058 119.479 137.658C120.022 138.257 123.168 140.247 125.176 137.086C127.183 133.924 126.722 118.364 126.667 116.865C126.613 115.367 125.501 115.421 125.501 115.421L121.948 115.23C121.948 115.23 120.89 115.149 120.7 117.002C120.51 118.855 118.774 134.96 118.774 134.96Z" fill="#3576C4"/>
<path d="M119.072 124.25C118.259 122.343 113.105 113.077 113.105 113.077L112.291 113.895L109.931 119.945L111.559 129.373C111.559 129.373 111.423 130.191 113.837 130.082C113.891 130.082 113.946 130.082 114 130.055C114.841 131.526 116.604 134.415 118.177 136.322C118.937 133.352 119.832 125.994 119.072 124.25Z" fill="#2D517E"/>
<path d="M121.785 115.23C121.785 115.23 121.541 115.312 121.703 114.658C121.866 114.031 121.514 113.786 122.436 113.895C123.358 114.004 125.772 114.058 125.827 114.331C125.881 114.631 125.989 115.312 125.745 115.448C125.501 115.612 121.785 115.23 121.785 115.23Z" fill="#2D517E"/>
<path fill-rule="evenodd" clip-rule="evenodd" d="M80.7713 148.04C80.7713 148.04 80.7441 148.749 82.6158 149.321C84.0806 149.757 84.9215 149.73 84.9215 149.73C84.9215 149.73 85.247 148.503 85.4097 148.149C85.5453 147.849 86.1421 148.558 86.2777 148.912C86.4133 149.267 86.6575 149.839 87.3627 150.111C87.3627 150.111 88.0409 150.193 87.851 149.566C87.6611 148.94 87.2271 148.64 87.1186 147.659C87.0101 146.678 86.5218 144.307 84.2433 144.688C84.2433 144.688 83.8364 144.143 82.67 144.498C81.6664 144.77 80.8526 147.441 80.7713 148.04Z" fill="#E9F3FE"/>
<path fill-rule="evenodd" clip-rule="evenodd" d="M80.7713 148.04C80.7713 148.04 80.4729 150.002 80.5 150.847C80.5271 151.583 81.0968 151.501 81.2053 150.929C81.368 150.22 81.7749 148.258 81.7749 148.258L80.7713 148.04Z" fill="#E9F3FE"/>
<path fill-rule="evenodd" clip-rule="evenodd" d="M81.6935 148.721C81.6935 148.721 81.3138 151.065 81.4765 152.155C81.6122 153.109 82.1275 152.864 82.236 152.128C82.3445 151.201 82.8057 148.858 82.8057 148.858L81.6935 148.721Z" fill="#E9F3FE"/>
<path fill-rule="evenodd" clip-rule="evenodd" d="M82.7243 149.049C82.7243 149.049 82.5344 152.073 82.67 152.809C82.7786 153.572 83.2668 153.463 83.3753 152.727C83.5109 151.801 83.8907 149.13 83.8907 149.13L82.7243 149.049Z" fill="#E9F3FE"/>
<path fill-rule="evenodd" clip-rule="evenodd" d="M82.6701 144.607L82.8328 142.972C83.4838 142.372 85.5182 142.59 85.8708 143.053L85.5996 145.233L82.6701 144.607Z" fill="#E9F3FE"/>
<path d="M87.0372 121.253C87.0372 121.253 85.4097 123.705 83.2397 126.975C81.0697 130.245 82.8057 143.326 82.8057 143.326H85.8708C85.8708 143.326 87.0372 137.603 87.5797 134.878C88.1223 132.153 88.1223 131.336 88.1223 131.336C88.1223 131.336 91.3773 128.065 92.4623 126.703C93.5473 125.34 87.0372 121.253 87.0372 121.253Z" fill="#E9F3FE"/>
<path d="M101.902 107.9C99.4064 106.156 95.9886 106.755 94.2526 109.262L85.3283 122.861L92.3538 128.992L103.258 115.584C104.994 113.077 104.397 109.644 101.902 107.9Z" fill="#3576C4"/>
<path d="M114.135 115.503L113.105 113.05L110.446 106.701L110.609 107.709C109.985 108.826 108.819 109.589 107.463 109.589H106.73C104.316 109.589 102.336 107.6 102.336 105.175V104.684C102.309 104.684 102.309 104.684 102.282 104.684L96.1785 107.464C95.5546 107.763 95.0392 108.227 94.7137 108.853L92.5166 112.941V139.293C92.5166 140.165 92.6251 141.037 92.8421 141.882L93.0591 147.686L112.861 147.141L113.457 130.681L113.566 131.227C113.566 131.227 118.259 127.684 118.367 125.313C118.476 122.915 114.135 115.503 114.135 115.503Z" fill="#3576C4"/>
<path d="M100.763 134.469C100.736 134.469 100.708 134.469 100.681 134.469C100.546 134.442 100.437 134.279 100.491 134.142C100.491 134.115 101.549 130 100.491 122.534C99.4064 114.958 99.5149 110.707 99.5149 110.652C99.5149 110.489 99.6234 110.38 99.7862 110.38C99.9489 110.38 100.057 110.516 100.057 110.652C100.057 110.707 99.976 114.931 101.034 122.452C102.119 130.055 101.061 134.115 101.034 134.279C101.007 134.388 100.898 134.469 100.763 134.469Z" fill="#E9F3FE"/>
<path d="M101.821 149.049H93.6558C93.1947 149.049 92.8149 148.667 92.8149 148.204V146.869H102.987L102.661 147.414V148.204C102.661 148.667 102.282 149.049 101.821 149.049Z" fill="#2D517E"/>
<path d="M114.976 149.049H109.931C109.47 149.049 109.09 148.667 109.09 148.204V146.869H115.709L115.844 147.414V148.204C115.817 148.667 115.437 149.049 114.976 149.049Z" fill="#2D517E"/>
<path d="M93.4931 127.357C94.0356 126.676 94.5781 125.967 95.0935 125.286C95.2291 125.122 95.3376 124.932 95.4461 124.741C95.5546 124.55 95.6902 124.359 95.8259 124.169C96.0971 123.814 96.4226 123.46 96.8837 123.215C96.9651 123.188 97.0465 123.215 97.1007 123.297C97.1279 123.351 97.1279 123.433 97.0736 123.487L97.0465 123.515C96.9109 123.624 96.7752 123.814 96.6396 123.978C96.504 124.141 96.3955 124.305 96.287 124.496C96.1785 124.686 96.07 124.85 95.9344 125.041C95.8259 125.231 95.6902 125.422 95.5546 125.613C95.2833 125.967 94.985 126.321 94.6866 126.648C94.3882 126.975 94.0627 127.302 93.7372 127.602C93.6829 127.657 93.5744 127.657 93.5202 127.602C93.4388 127.493 93.4388 127.411 93.4931 127.357Z" fill="#2D517E"/>
<path d="M114.135 115.503L113.105 113.05L110.446 106.701L110.609 107.709C109.985 108.826 108.819 109.589 107.463 109.589H106.73C104.316 109.589 102.336 107.6 102.336 105.175V104.684C102.309 104.684 102.309 104.684 102.282 104.684L101.522 105.038C101.522 105.038 100.898 108.199 101.441 113.105C101.983 118.01 103.068 122.642 103.068 131.363C103.068 140.083 103.068 145.806 102.797 146.896C102.743 147.168 102.689 147.332 102.634 147.441L112.833 147.168L113.43 130.709L113.539 131.254C113.539 131.254 118.231 127.711 118.34 125.34C118.476 122.915 114.135 115.503 114.135 115.503Z" fill="#E9F3FE"/>
<path d="M89.2344 121.607L85.4368 122.697C85.4368 122.697 81.9105 127.33 81.9105 130.872C81.9105 134.415 81.368 140.683 82.1818 141.5C82.9956 142.318 86.2506 142.863 86.7931 141.773C87.3356 140.683 88.9631 133.87 88.9631 133.052C88.9631 132.235 88.9631 132.235 88.9631 132.235C88.9631 132.235 91.9469 130.327 92.7607 129.237C93.5744 128.147 89.2344 121.607 89.2344 121.607Z" fill="#3576C4"/>
<path d="M86.4947 141.936C86.4947 141.936 86.7389 141.854 86.5761 142.481C86.4134 143.108 86.766 143.326 85.8437 143.244C84.9215 143.163 82.5344 143.135 82.453 142.836C82.3988 142.563 82.2903 141.882 82.5344 141.718C82.7785 141.555 86.4947 141.936 86.4947 141.936Z" fill="#2D517E"/>
<path d="M101.468 113.323C101.468 113.323 102.797 111.987 102.255 111.17C101.712 110.352 98.0773 106.592 99.8947 105.747C101.712 104.902 101.712 104.902 101.712 104.902C101.712 104.902 100.085 105.175 98.1858 104.902C96.287 104.63 93.4388 105.284 91.4044 107.627C89.5056 109.807 97.372 109.535 98.457 109.807C99.542 110.08 100.139 113.023 101.468 113.323Z" fill="#2D517E"/>
<path d="M111.179 108.445C111.179 108.445 111.233 108.745 113.132 109.562C115.031 110.38 116.658 113.377 116.387 113.922C116.116 114.467 116.116 114.467 116.116 114.467C116.116 114.467 115.844 113.922 114.759 112.832C113.674 111.742 113.132 111.742 113.132 112.287C113.132 112.832 113.593 113.813 113.62 114.004C113.674 114.195 113.403 114.195 112.861 113.377C112.318 112.56 111.776 112.015 112.047 111.47C112.318 110.925 111.179 108.445 111.179 108.445Z" fill="#2D517E"/>
</g>
<g clip-path="url(#clip6)">
<path d="M37.0683 91.0041C36.7157 90.4046 36.58 89.696 36.6885 88.9875C36.9056 87.516 38.1262 86.4532 39.5367 86.3714C39.4553 86.0172 39.4282 85.6629 39.4825 85.2814C39.6995 83.7826 41.0829 82.7743 42.5748 82.9923C43.1173 83.0741 43.6055 83.3193 43.9853 83.6463C44.3108 82.0385 45.7213 80.9485 47.2132 81.1937C47.7015 81.2755 48.1355 81.4662 48.5152 81.766C49.1391 80.7577 50.3326 80.1582 51.5804 80.349C52.7739 80.5397 53.6962 81.3845 54.0488 82.4745C54.4285 82.3655 54.8354 82.3655 55.2423 82.42C56.9241 82.6653 58.0905 84.2458 57.8192 85.9354C57.7921 86.1807 57.7107 86.4259 57.6293 86.6439C57.8463 86.6167 58.0905 86.6167 58.3346 86.6439C59.6095 86.8347 60.4775 88.0337 60.2876 89.3145C60.1791 90.0775 59.6909 90.7043 59.067 91.0313C59.6366 91.3038 60.0706 91.7399 60.2062 92.5029C60.4775 94.0289 59.9621 95.0645 59.3654 95.7185C59.4467 95.9093 59.501 96.1 59.4739 96.318C59.3925 96.863 58.8771 97.2173 58.3617 97.1355C58.2532 97.1083 58.1447 97.081 58.0362 97.0265C58.0362 97.081 58.0091 97.1083 58.0091 97.1901C57.8735 98.1711 56.897 98.0348 56.897 98.0348C56.897 98.0348 56.897 98.0348 56.8156 98.5253C56.7342 99.0159 56.4087 99.2611 56.4087 99.2611L56.7071 96.8358C56.5714 96.7813 56.3273 96.7268 55.9204 96.8085C55.1609 96.9448 55.1067 95.6912 53.8318 95.7457C52.584 95.8003 52.0415 94.465 51.8516 93.9472C51.6889 93.4294 51.2277 93.1024 50.2512 92.9662C49.2747 92.8299 49.8172 90.8951 49.112 90.5408C48.4067 90.1866 49.1933 90.0503 48.7322 89.7233C48.2711 89.3963 47.1589 90.2411 46.8877 90.4318C46.6164 90.6498 46.5079 91.3856 45.6942 91.7399C44.8804 92.1214 43.9853 91.4673 43.5784 90.9223C43.1715 90.3501 42.3306 90.9768 42.2493 91.4673C42.1679 91.9579 42.3849 92.2304 41.327 92.5846C41.2456 92.6119 41.1371 92.6391 41.0557 92.6391C41.2999 93.0207 41.4355 93.4839 41.3541 93.9744C41.2185 94.901 40.4319 95.555 39.5367 95.555L39.3197 96.6995C39.3197 96.6995 39.0756 96.3725 39.157 95.882C39.1841 95.7185 39.1841 95.6095 39.2112 95.555C38.2347 95.3915 37.5566 94.4377 37.6922 93.4567C37.7193 93.3204 37.7464 93.2114 37.7736 93.1024H37.7464C37.0683 92.9934 36.6072 92.3666 36.7157 91.6854C36.8242 91.3856 36.9327 91.1676 37.0683 91.0041Z" fill="#2D517E"/>
<path d="M52.0144 112.941C52.0144 112.941 50.6581 116.238 45.7213 116.238C40.7845 116.238 39.6452 113.622 39.6452 113.622C39.6723 113.568 39.6723 113.541 39.6723 113.541C39.6723 113.541 42.1136 111.17 41.9509 109.262C41.761 107.355 40.7574 102.504 40.7574 102.504L51.0379 102.586L50.848 103.485C50.848 103.485 50.2241 105.529 50.0342 107.627C49.8444 109.725 50.848 112.423 51.8516 112.696C51.9873 112.75 52.0415 112.832 52.0144 112.941Z" fill="#E9F3FE"/>
<path d="M41.8424 108.281C41.5169 106.074 40.7845 102.531 40.7845 102.531L51.0107 102.613L51.0379 102.722L50.8751 103.54C50.8751 103.54 50.5767 104.548 50.3055 105.856C49.4375 106.455 44.8533 109.644 41.8424 108.281Z" fill="#92C1F8"/>
<path d="M53.6962 94.4649C54.1844 96.6178 54.1573 98.8796 53.5605 101.005C52.4755 104.875 49.8715 107.327 44.7719 107.545C37.9634 107.845 38.4788 99.4519 38.6687 96.8085C38.6958 96.427 38.723 95.991 38.7772 95.5822C39.1027 92.6936 39.2655 90.4046 42.1408 90.1865L47.4031 89.7778C50.3597 89.5598 53.0452 91.5491 53.6962 94.4649Z" fill="#E9F3FE"/>
<path d="M39.157 96.2363L37.5294 99.3974C37.2582 100.051 38.0448 100.705 38.723 100.869L39.157 100.951V96.2363Z" fill="#92C1F8"/>
<path d="M44.3108 85.4994C44.799 85.3632 45.2602 85.2269 45.7213 85.1452C50.4954 84.1914 55.3237 86.8075 57.0868 91.3584C57.3581 92.0942 57.6293 92.8572 57.6293 93.6475C57.6293 101.005 52.584 103.512 52.2856 103.894C52.2043 103.976 52.1229 104.057 52.1229 104.112C51.0921 103.431 47.6743 97.5988 47.5116 96.4543C47.4302 95.8548 47.4844 95.2825 47.4031 94.683C47.2403 93.4295 46.3452 92.1214 44.9889 91.8216C43.6055 91.4946 41.1371 92.4484 40.1063 92.2304C39.8893 92.1759 39.6452 92.1214 39.4282 92.0669C39.4282 92.0669 38.8857 87.1345 44.3108 85.4994Z" fill="#2D517E"/>
<path d="M47.8371 94.7647L47.4031 95.1462C47.4302 95.1462 41.0557 96.9447 39.4282 92.0396C39.4282 92.0396 47.0233 87.4069 47.8371 94.7647Z" fill="#2D517E"/>
<path d="M38.7501 96.1273C38.9671 96.0455 39.157 96.0455 39.2655 96.0728C39.4011 96.1 39.5096 96.1545 39.6181 96.2363C40.025 95.0645 41.1642 94.2197 42.4663 94.2197C43.931 94.2197 45.1517 95.2825 45.4229 96.6723H48.8407C50.1427 96.6723 51.3091 97.5443 52.3399 99.2612C52.4213 99.3974 52.367 99.5609 52.2585 99.6427C52.2043 99.6699 52.1771 99.6699 52.1229 99.6699C52.0415 99.6699 51.933 99.6154 51.8788 99.5337C50.9565 98.0076 49.9529 97.2173 48.8678 97.2173H45.5043V97.2446C45.5043 98.9341 44.148 100.297 42.4663 100.297C40.7845 100.297 39.4282 98.9341 39.4282 97.2718C39.4282 97.1356 39.4282 97.0266 39.4553 96.8903C39.4282 96.8631 39.4011 96.8631 39.4011 96.8358C39.4011 96.8358 39.2926 96.6723 39.157 96.6451C39.0485 96.6178 38.94 96.6451 38.8043 96.7541C38.7772 96.7813 38.723 96.7813 38.6958 96.8086C38.6958 96.5633 38.723 96.3453 38.7501 96.1273ZM42.4391 99.8607C43.8768 99.8607 45.0432 98.6889 45.0432 97.2446C45.0432 95.8003 43.8768 94.6285 42.4391 94.6285C41.0015 94.6285 39.8351 95.8003 39.8351 97.2446C39.8351 98.6889 41.0286 99.8607 42.4391 99.8607Z" fill="#92C1F8"/>
<path d="M47.5658 98.3073C47.5658 99.5063 48.5423 101.032 49.7359 101.032C50.9294 101.032 51.9059 99.5063 51.9059 98.3073C51.9059 97.1082 50.9294 96.1272 49.7359 96.1272C48.5423 96.1272 47.5658 97.1082 47.5658 98.3073Z" fill="#E9F3FE"/>
</g>
<g clip-path="url(#clip7)">
<path fill-rule="evenodd" clip-rule="evenodd" d="M71.1378 151.637C71.1378 151.637 71.1649 152.346 69.2933 152.918C67.8285 153.354 66.9876 153.327 66.9876 153.327C66.9876 153.327 66.6621 152.1 66.4994 151.746C66.3637 151.446 65.767 152.155 65.6313 152.509C65.4957 152.863 65.2516 153.436 64.5463 153.708C64.5463 153.708 63.8682 153.79 64.0581 153.163C64.248 152.536 64.682 152.237 64.7905 151.256C64.899 150.275 65.3872 147.904 67.6657 148.285C67.6657 148.285 68.0726 147.74 69.239 148.095C70.2427 148.394 71.0564 151.038 71.1378 151.637Z" fill="#E9F3FE"/>
<path fill-rule="evenodd" clip-rule="evenodd" d="M69.239 148.204L69.0763 145.478C68.4253 144.879 66.3909 145.097 66.0382 145.56L66.3095 148.83L69.239 148.204Z" fill="#E9F3FE"/>
<path d="M64.8718 124.877C64.8718 124.877 66.4994 127.329 68.6694 130.599C70.8394 133.87 69.1034 145.86 69.1034 145.86H66.0382C66.0382 145.86 64.8718 141.227 64.3293 138.502C63.7868 135.777 63.7868 134.96 63.7868 134.96C63.7868 134.96 60.5318 131.689 59.4468 130.327C58.3618 128.964 64.8718 124.877 64.8718 124.877Z" fill="#E9F3FE"/>
<path d="M37.8821 151.038H56.3816C56.8427 151.038 57.2225 150.656 57.2225 150.193V148.858H37.0141V150.193C37.0141 150.656 37.3938 151.038 37.8821 151.038Z" fill="#2D517E"/>
<path d="M36.2817 131.853C36.2817 131.853 30.7753 141.854 28.8222 140.928C26.8963 140.001 27.0048 139.592 27.2761 136.867C27.5473 134.142 29.7987 129.264 29.7987 129.264L36.2817 131.853Z" fill="#3576C4"/>
<path d="M41.8695 110.652C41.8695 110.652 35.6578 112.641 32.8097 118.745C29.9886 124.768 28.6866 129.482 28.6866 129.482C28.6866 129.482 33.4878 132.671 35.902 132.807C38.3161 132.943 38.1805 132.098 38.1805 132.098L41.8695 110.652Z" fill="#3576C4"/>
<path d="M34.7627 122.152C35.6578 117.982 35.8206 116.483 37.2853 115.938L37.9092 132.534C37.8821 132.562 37.8278 132.589 37.8007 132.589C37.8007 132.589 37.8007 132.589 37.7736 132.589C37.7465 132.616 37.6922 132.616 37.638 132.643H37.6108C37.5566 132.671 37.5295 132.671 37.4752 132.698C37.4481 132.698 37.421 132.698 37.3938 132.725C37.3396 132.725 37.3125 132.752 37.2582 132.752C37.2311 132.752 37.1768 132.752 37.1497 132.78C37.0955 132.78 37.0683 132.807 37.0141 132.807C36.9598 132.807 36.9056 132.807 36.8513 132.807C36.7971 132.807 36.77 132.807 36.7157 132.807C36.6343 132.807 36.553 132.807 36.4716 132.807C36.4445 132.807 36.3902 132.807 36.3631 132.807C36.2275 132.807 36.0918 132.807 35.9562 132.807C35.1153 132.752 36.4716 133.27 35.3594 132.752C34.2202 131.69 34.2744 124.495 34.7627 122.152Z" fill="#2D517E"/>
<path d="M22.0952 108.69C22.719 108.008 22.7462 107 24.4822 107.709C24.6178 107.763 24.7806 107.818 24.9704 107.872C24.8891 107.763 24.8348 107.545 24.7263 107.218C24.4822 106.455 24.1024 103.648 25.0789 103.512C26.0555 103.376 26.1368 105.828 26.1368 105.828C26.1368 105.828 25.4316 107.545 25.2688 107.845C25.2417 107.872 25.2417 107.899 25.2146 107.927C27.032 108.472 29.636 108.717 29.636 108.717C29.636 108.717 31.3449 108.281 29.7988 110.189C28.4425 111.851 28.5781 112.968 28.0085 113.649L27.9814 115.802C27.9814 115.802 28.1984 120.462 28.3611 122.642C28.4967 124.822 32.1044 138.066 29.8801 139.865C27.6558 141.663 24.2381 137.712 24.2923 134.633C24.3466 131.635 24.8348 116.974 24.1567 115.557C24.0753 115.502 24.0211 115.475 23.9397 115.393C23.0988 114.603 21.7697 113.295 21.2543 112.641C20.4405 111.687 21.4713 109.344 22.0952 108.69Z" fill="#E9F3FE"/>
<path d="M28.8494 106.155C27.1947 104.793 26.7336 104.411 26.0012 105.229C25.2688 106.046 22.6648 109.589 22.1494 110.216C21.634 110.843 20.9016 111.578 21.7696 112.396C23.153 113.758 24.3465 114.767 25.4316 113.758C26.5166 112.75 28.8765 109.671 29.5275 108.881C30.1785 108.09 30.504 107.518 28.8494 106.155Z" fill="#2D517E"/>
<path d="M29.202 108.281C29.3647 108.063 29.6089 107.79 29.2562 107.491C28.9036 107.191 28.7951 107.082 28.6866 107C28.5781 106.918 28.4154 107.273 28.0898 107.055C27.7643 106.837 27.4388 106.619 27.3303 106.482C27.1947 106.346 27.5202 106.019 27.3575 105.91C27.2218 105.801 26.7878 105.501 26.6522 105.392C26.5166 105.283 26.2453 105.392 25.2146 106.7C24.1838 108.008 22.2579 110.733 21.8781 111.17C21.4984 111.578 21.7968 112.151 22.7733 112.914C23.7498 113.677 24.4279 113.949 25.1603 113.295C25.9198 112.587 29.202 108.281 29.202 108.281Z" fill="#92C1F8"/>
<path d="M22.8004 109.289C22.8004 109.289 23.5599 110.761 22.9089 111.115C22.2579 111.442 21.8781 110.27 21.8781 110.27L22.8004 109.289Z" fill="#E9F3FE"/>
<path d="M21.7425 110.597C21.7425 110.597 22.2579 111.606 21.7968 111.851C21.3356 112.096 21.0915 111.279 21.0915 111.279L21.7425 110.597Z" fill="#E9F3FE"/>
<path d="M23.6413 108.145C23.6413 108.145 24.3737 109.589 23.7227 109.889C23.0717 110.216 22.719 109.071 22.719 109.071L23.6413 108.145Z" fill="#E9F3FE"/>
<path d="M41.4355 111.115C41.9238 112.532 43.28 113.54 44.8533 113.54H45.5857C47.9999 113.54 49.98 111.551 49.98 109.126V108.635C54.7812 108.799 58.6059 112.75 58.6059 117.601V143.38C58.6059 145.124 58.2804 146.841 57.6294 148.476L57.2225 149.512H37.0412L36.2817 147.713C35.2781 145.342 34.8441 142.808 34.9526 140.246L35.8206 122.015C35.8206 117.519 38.0449 113.54 41.4355 111.115Z" fill="#3576C4"/>
<path d="M50.0071 111.497C52.5027 109.753 55.9205 110.352 57.6565 112.859L66.7706 125.94L59.5553 132.589L48.6509 119.181C46.9148 116.702 47.5116 113.241 50.0071 111.497Z" fill="#3576C4"/>
<path d="M58.416 130.954C57.8735 130.273 57.331 129.591 56.8156 128.883C56.68 128.719 56.5715 128.529 56.463 128.338C56.3545 128.147 56.2188 127.956 56.0832 127.766C55.812 127.411 55.4865 127.057 55.0253 126.812C54.944 126.784 54.8626 126.812 54.8083 126.893C54.7812 126.948 54.7812 127.03 54.8355 127.084L54.8626 127.111C54.9982 127.22 55.1338 127.411 55.2695 127.575C55.4051 127.738 55.5136 127.902 55.6221 128.093C55.7306 128.283 55.8391 128.447 55.9747 128.638C56.0832 128.828 56.2188 129.019 56.3545 129.21C56.6257 129.564 56.9241 129.918 57.2225 130.245C57.5209 130.572 57.8464 130.899 58.1719 131.199C58.2261 131.254 58.3346 131.254 58.3889 131.199C58.4703 131.09 58.4703 131.008 58.416 130.954Z" fill="#2D517E"/>
<path d="M55.1067 129.482C55.1881 129.482 55.1881 129.482 55.1881 129.482V129.51V129.537V129.619V129.782V130.109V130.736V132.017C55.1881 132.861 55.1881 133.706 55.2152 134.578C55.2423 135.423 55.2695 136.268 55.3237 137.14C55.3508 137.576 55.378 137.985 55.4593 138.421C55.4865 138.639 55.5136 138.857 55.595 139.075L55.6763 139.374C55.7035 139.456 55.7306 139.565 55.7306 139.674C55.8662 140.464 55.8662 141.336 55.8391 142.154C55.812 142.999 55.7577 143.844 55.6763 144.688C55.6492 145.124 55.595 145.533 55.595 145.969C55.595 146.378 55.5678 146.814 55.5407 147.223C55.4865 148.067 55.4051 148.912 55.2966 149.757C55.2695 149.893 55.378 150.03 55.5407 150.057C55.7035 150.084 55.812 149.975 55.8391 149.812C55.9205 148.967 55.9747 148.122 56.029 147.277C56.0561 146.841 56.0832 146.432 56.0832 145.996C56.0832 145.588 56.1103 145.152 56.1375 144.743C56.1917 143.898 56.2731 143.053 56.2731 142.181C56.3002 141.336 56.3002 140.464 56.1375 139.592C56.1103 139.483 56.0832 139.374 56.0561 139.265L56.0018 139.102L55.9747 138.966C55.9205 138.775 55.8933 138.584 55.8662 138.366C55.812 137.957 55.7577 137.549 55.7306 137.113C55.6763 136.268 55.6492 135.423 55.6221 134.578C55.595 133.733 55.595 132.889 55.595 132.044V130.763V130.136V129.809V129.646V129.564V129.537V129.51C55.595 129.51 55.595 129.51 55.6763 129.51C55.6763 129.346 55.5678 129.237 55.4051 129.237C55.2423 129.237 55.1067 129.346 55.1067 129.482Z" fill="#2D517E"/>
<path d="M30.9651 137.685C30.9651 137.685 30.8295 139.783 30.2599 140.383C29.7174 140.982 26.5708 142.971 24.5635 139.81C22.5563 136.649 23.0174 121.089 23.0717 119.59C23.0988 118.091 24.238 118.146 24.238 118.146L27.7915 117.955C27.7915 117.955 28.8494 117.873 29.0392 119.726C29.2291 121.58 30.9651 137.685 30.9651 137.685Z" fill="#3576C4"/>
<path d="M27.9813 117.955C27.9813 117.955 28.2255 118.037 28.0627 117.383C27.9 116.756 28.2526 116.511 27.3303 116.62C26.4081 116.729 23.9939 116.783 23.9397 117.056C23.8854 117.356 23.7769 118.037 24.021 118.173C24.2652 118.337 27.9813 117.955 27.9813 117.955Z" fill="#2D517E"/>
<path d="M62.9731 124.877L66.7706 125.967C66.7706 125.967 70.2969 130.599 70.2969 134.142C70.2969 137.685 70.8394 143.952 70.0257 144.77C69.2119 145.587 65.9569 146.132 65.4144 145.042C64.8718 143.952 63.2443 137.14 63.2443 136.322C63.2443 135.505 63.2443 135.505 63.2443 135.505C63.2443 135.505 60.2605 133.597 59.4468 132.507C58.633 131.417 62.9731 124.877 62.9731 124.877Z" fill="#3576C4"/>
<path d="M65.7127 145.179C65.7127 145.179 65.4686 145.097 65.6314 145.724C65.7941 146.351 65.4415 146.569 66.3637 146.487C67.286 146.405 69.673 146.378 69.7544 146.078C69.8087 145.806 69.9172 145.124 69.673 144.961C69.4289 144.852 65.7127 145.179 65.7127 145.179Z" fill="#2D517E"/>
<path d="M45.5314 134.851C45.0071 134.851 44.5821 134.424 44.5821 133.897C44.5821 133.37 45.0071 132.943 45.5314 132.943C46.0558 132.943 46.4808 133.37 46.4808 133.897C46.4808 134.424 46.0558 134.851 45.5314 134.851Z" fill="#2D517E"/>
<path d="M61.2099 131.69C60.6856 131.69 60.2605 131.263 60.2605 130.736C60.2605 130.209 60.6856 129.782 61.2099 129.782C61.7342 129.782 62.1593 130.209 62.1593 130.736C62.1593 131.263 61.7342 131.69 61.2099 131.69Z" fill="#2D517E"/>
<path d="M24.8619 123.242C24.3376 123.242 23.9125 122.815 23.9125 122.288C23.9125 121.761 24.3376 121.334 24.8619 121.334C25.3863 121.334 25.8113 121.761 25.8113 122.288C25.8113 122.815 25.3863 123.242 24.8619 123.242Z" fill="#2D517E"/>
<path d="M31.372 127.057C30.8477 127.057 30.4226 126.63 30.4226 126.103C30.4226 125.576 30.8477 125.149 31.372 125.149C31.8964 125.149 32.3214 125.576 32.3214 126.103C32.3214 126.63 31.8964 127.057 31.372 127.057Z" fill="#2D517E"/>
<path d="M40.9201 143.843C40.3958 143.843 39.9707 143.416 39.9707 142.89C39.9707 142.363 40.3958 141.936 40.9201 141.936C41.4445 141.936 41.8695 142.363 41.8695 142.89C41.8695 143.416 41.4445 143.843 40.9201 143.843Z" fill="#2D517E"/>
<path d="M37.3938 122.315C36.8695 122.315 36.4445 121.888 36.4445 121.361C36.4445 120.835 36.8695 120.408 37.3938 120.408C37.9182 120.408 38.3432 120.835 38.3432 121.361C38.3432 121.888 37.9182 122.315 37.3938 122.315Z" fill="#2D517E"/>
<path d="M44.4464 119.045C43.9221 119.045 43.4971 118.618 43.4971 118.091C43.4971 117.564 43.9221 117.137 44.4464 117.137C44.9708 117.137 45.3958 117.564 45.3958 118.091C45.3958 118.618 44.9708 119.045 44.4464 119.045Z" fill="#2D517E"/>
<path d="M27.032 128.147C26.5076 128.147 26.0826 127.72 26.0826 127.193C26.0826 126.666 26.5076 126.239 27.032 126.239C27.5563 126.239 27.9814 126.666 27.9814 127.193C27.9814 127.72 27.5563 128.147 27.032 128.147Z" fill="#2D517E"/>
<path d="M55.8391 137.303C55.3148 137.303 54.8897 136.876 54.8897 136.35C54.8897 135.823 55.3148 135.396 55.8391 135.396C56.3634 135.396 56.7885 135.823 56.7885 136.35C56.7885 136.876 56.3634 137.303 55.8391 137.303Z" fill="#2D517E"/>
<path d="M38.7501 115.23C38.2258 115.23 37.8007 114.803 37.8007 114.276C37.8007 113.75 38.2258 113.323 38.7501 113.323C39.2744 113.323 39.6995 113.75 39.6995 114.276C39.6995 114.803 39.2744 115.23 38.7501 115.23Z" fill="#2D517E"/>
<path d="M30.8295 137.412C30.3052 137.412 29.8801 136.985 29.8801 136.458C29.8801 135.932 30.3052 135.505 30.8295 135.505C31.3538 135.505 31.7789 135.932 31.7789 136.458C31.7789 136.985 31.3538 137.412 30.8295 137.412Z" fill="#2D517E"/>
<path d="M51.7703 113.05C51.2459 113.05 50.8209 112.623 50.8209 112.096C50.8209 111.569 51.2459 111.142 51.7703 111.142C52.2946 111.142 52.7197 111.569 52.7197 112.096C52.7197 112.623 52.2946 113.05 51.7703 113.05Z" fill="#2D517E"/>
<path d="M36.5801 141.391C36.0557 141.391 35.6307 140.964 35.6307 140.437C35.6307 139.91 36.0557 139.483 36.5801 139.483C37.1044 139.483 37.5295 139.91 37.5295 140.437C37.5295 140.964 37.1044 141.391 36.5801 141.391Z" fill="#2D517E"/>
<path d="M53.3978 119.59C52.8735 119.59 52.4484 119.163 52.4484 118.636C52.4484 118.11 52.8735 117.683 53.3978 117.683C53.9221 117.683 54.3472 118.11 54.3472 118.636C54.3472 119.163 53.9221 119.59 53.3978 119.59Z" fill="#2D517E"/>
<path d="M68.2625 136.867C67.7382 136.867 67.3131 136.44 67.3131 135.913C67.3131 135.387 67.7382 134.96 68.2625 134.96C68.7868 134.96 69.2119 135.387 69.2119 135.913C69.2119 136.44 68.7868 136.867 68.2625 136.867Z" fill="#2D517E"/>
<path d="M39.0214 132.916C38.1225 132.916 37.3938 132.184 37.3938 131.281C37.3938 130.378 38.1225 129.646 39.0214 129.646C39.9202 129.646 40.6489 130.378 40.6489 131.281C40.6489 132.184 39.9202 132.916 39.0214 132.916Z" fill="#2D517E"/>
<path d="M26.0012 134.551C25.1023 134.551 24.3737 133.819 24.3737 132.916C24.3737 132.013 25.1023 131.281 26.0012 131.281C26.9001 131.281 27.6287 132.013 27.6287 132.916C27.6287 133.819 26.9001 134.551 26.0012 134.551Z" fill="#2D517E"/>
<path d="M57.9549 114.603C58.1448 114.412 58.3889 114.276 58.6059 114.194L60.369 116.701C60.2877 116.838 60.369 116.81 60.2605 116.919C59.6366 117.546 58.6059 117.546 57.9549 116.919C57.3039 116.293 57.3039 115.23 57.9549 114.603Z" fill="#2D517E"/>
<path d="M44.4464 139.729C43.5476 139.729 42.8189 138.997 42.8189 138.094C42.8189 137.191 43.5476 136.458 44.4464 136.458C45.3453 136.458 46.074 137.191 46.074 138.094C46.074 138.997 45.3453 139.729 44.4464 139.729Z" fill="#2D517E"/>
<path d="M66.9605 133.733C66.0616 133.733 65.333 133.001 65.333 132.098C65.333 131.195 66.0616 130.463 66.9605 130.463C67.8593 130.463 68.588 131.195 68.588 132.098C68.588 133.001 67.8593 133.733 66.9605 133.733Z" fill="#2D517E"/>
<path d="M47.5658 126.539C46.3524 126.539 45.3687 125.551 45.3687 124.332C45.3687 123.113 46.3524 122.125 47.5658 122.125C48.7793 122.125 49.763 123.113 49.763 124.332C49.763 125.551 48.7793 126.539 47.5658 126.539Z" fill="#2D517E"/>
<path d="M50.8209 145.887C49.6074 145.887 48.6237 144.899 48.6237 143.68C48.6237 142.461 49.6074 141.473 50.8209 141.473C52.0344 141.473 53.0181 142.461 53.0181 143.68C53.0181 144.899 52.0344 145.887 50.8209 145.887Z" fill="#2D517E"/>
<path d="M58.9585 127.357C57.7451 127.357 56.7614 126.368 56.7614 125.149C56.7614 123.93 57.7451 122.942 58.9585 122.942C60.172 122.942 61.1557 123.93 61.1557 125.149C61.1557 126.368 60.172 127.357 58.9585 127.357Z" fill="#2D517E"/>
<path d="M66.8249 143.707C65.6114 143.707 64.6277 142.719 64.6277 141.5C64.6277 140.281 65.6114 139.292 66.8249 139.292C68.0383 139.292 69.022 140.281 69.022 141.5C69.022 142.719 68.0383 143.707 66.8249 143.707Z" fill="#2D517E"/>
</g>
<g clip-path="url(#clip8)">
<path d="M85.0479 76.1067C85.0479 76.1067 86.8095 82.6706 85.3682 86.3386C85.3682 86.3386 83.8949 81.8984 82.7419 81.0296C81.589 80.1609 80.468 79.4208 80.468 79.4208L85.0479 76.1067Z" fill="#2D517E"/>
<path d="M68.0733 103.907C68.0733 103.907 69.6747 107.768 75.4396 107.768C81.2046 107.768 82.5498 104.711 82.5498 104.711C82.5178 104.647 82.5178 104.615 82.5178 104.615C82.5178 104.615 79.6353 101.848 79.8595 99.5952C80.0837 97.3429 81.2366 91.6799 81.2366 91.6799L69.2263 91.7765L69.4505 92.8383C69.4505 92.8383 70.1871 95.2515 70.4113 97.6968C70.6355 100.142 69.4505 103.295 68.2975 103.617C68.1373 103.682 68.0733 103.778 68.0733 103.907Z" fill="#E9F3FE"/>
<path d="M79.9876 98.4369C80.3719 95.8306 81.2366 91.6799 81.2366 91.6799L69.2903 91.7765L69.2583 91.9052L69.4505 92.8704C69.4505 92.8704 69.8028 94.0288 70.091 95.5732C71.1159 96.3133 76.4645 100.013 79.9876 98.4369Z" fill="#92C1F8"/>
<path d="M65.0947 81.9627C64.5182 84.5046 64.5502 87.1752 65.2549 89.6849C66.536 94.2539 69.6106 97.1497 75.6318 97.4071C83.6708 97.7611 85.6244 87.8509 85.4002 84.7298C85.3682 84.2472 85.3362 83.7645 85.2721 83.2819C84.9198 79.8713 82.1655 77.2007 78.7705 76.9111L72.5572 76.4284C69.0341 76.171 65.8634 78.5199 65.0947 81.9627Z" fill="#E9F3FE"/>
<path d="M77.9698 84.3115L79.4431 87.9152C79.7634 88.6875 79.315 89.5884 78.4823 89.7493L77.9698 89.8458V84.3115Z" fill="#92C1F8"/>
<path d="M85.6244 76.5572C87.1938 74.5945 87.8023 72.0526 87.3219 69.6715C87.1618 69.9611 86.9696 70.2185 86.8095 70.5081C87.7062 68.5454 87.7062 66.2931 86.8095 64.3303C85.6565 61.885 83.2864 60.1153 80.9804 58.4421C80.7562 61.3701 78.6744 64.1373 75.7279 65.36C73.1016 66.4218 70.027 66.3252 67.4968 67.5479C65.383 68.5776 63.8136 70.5081 63.3652 72.6639C62.7567 71.9882 61.5717 71.9882 60.803 72.503C60.0343 73.0178 59.618 73.8544 59.4899 74.7232C59.0415 77.1042 60.1625 79.453 61.4115 81.5766C62.5325 83.5394 64.3901 84.9229 64.7424 87.0787C64.7744 87.2718 64.8065 87.4648 64.8065 87.6579C66.0235 86.8535 66.5039 85.7273 66.6961 84.3438C66.7922 83.6359 66.7281 82.9602 66.8242 82.2523C67.0164 80.7722 68.1053 79.3243 69.6747 78.8739C70.4113 78.6486 71.212 78.6808 72.0127 78.7451C73.8383 78.906 75.5998 79.2921 77.4254 79.4852C78.6744 79.6139 79.9876 79.6139 81.2367 79.3887C81.7811 79.2921 82.2936 79.1313 82.774 78.906C83.8949 78.359 84.8558 77.5225 85.6244 76.5572Z" fill="#2D517E"/>
<path d="M64.7104 84.8264C64.6783 84.8264 64.6463 84.8264 64.5823 84.8264C63.3012 84.8264 62.2763 85.8239 62.2763 87.0144C62.2763 88.2371 63.3012 89.2023 64.5823 89.2023C64.7744 89.2023 64.9346 89.1702 65.0947 89.138C64.7744 87.7544 64.6463 86.2743 64.7104 84.8264Z" fill="#E9F3FE"/>
<path d="M64.7104 84.8264C64.6784 84.8264 64.6784 84.8264 64.7104 84.8264C64.4862 85.3734 63.9097 87.4648 64.4542 89.2023C64.4862 89.2023 64.5502 89.2023 64.5823 89.2023C64.7744 89.2023 64.9346 89.1702 65.0947 89.138C64.7744 87.7544 64.6463 86.2743 64.7104 84.8264Z" fill="#92C1F8"/>
</g>
<g clip-path="url(#clip9)">
<path d="M88.1866 124.499C88.1866 124.499 91.0691 135.117 93.3111 134.474C95.553 133.83 96.1935 134.152 96.5138 131.256C96.8341 128.36 95.553 122.89 95.553 122.89L88.1866 124.499Z" fill="#E9F3FE"/>
<path d="M61.988 124.499C61.988 124.499 59.1055 135.117 56.8636 134.474C54.6217 133.83 53.9811 134.152 53.6608 131.256C53.3406 128.36 54.6217 122.89 54.6217 122.89L61.988 124.499Z" fill="#E9F3FE"/>
<path d="M87.6742 103.102C87.6742 103.102 92.9587 105.419 94.5922 112.272C96.1935 119.029 96.5138 124.178 96.5138 124.178C96.5138 124.178 90.7488 126.687 88.1866 126.398C85.6244 126.108 85.9447 125.272 85.9447 125.272L87.6742 103.102Z" fill="#3576C4"/>
<path d="M91.0691 110.342C91.0691 105.837 89.0834 103.907 87.6742 103.102L86.1369 125.786C86.1689 125.819 86.2009 125.851 86.2329 125.883C86.265 125.915 86.297 125.947 86.3611 125.947C86.3611 125.947 86.3931 125.947 86.3931 125.979C86.4251 126.012 86.4892 126.012 86.5212 126.044C86.5532 126.044 86.5853 126.076 86.5853 126.076C86.6173 126.108 86.6813 126.108 86.7454 126.14C86.7774 126.14 86.8094 126.172 86.8735 126.172C86.9376 126.172 86.9696 126.205 87.0336 126.205C87.0977 126.205 87.1617 126.237 87.1938 126.237C87.2578 126.237 87.2899 126.269 87.3539 126.269C87.418 126.301 87.5141 126.301 87.6101 126.301C87.6422 126.301 87.6742 126.301 87.7382 126.333C87.8664 126.365 88.0265 126.365 88.1866 126.398C89.0834 126.494 90.3325 126.269 91.6136 125.915C91.3894 120.67 91.0691 112.884 91.0691 110.342Z" fill="#2D517E"/>
<path d="M88.1866 148.953H61.6037V151.527H88.1866V148.953Z" fill="#2D517E"/>
<path d="M62.3083 103.939C62.3083 103.939 55.8387 108.379 54.5576 117.067C53.2765 125.754 53.2765 125.754 53.2765 125.754C53.2765 125.754 58.0807 129.615 60.3226 129.293C62.5645 128.972 62.2442 128.972 62.2442 128.972L62.3083 103.939Z" fill="#3576C4"/>
<path d="M62.2442 129.004L62.3083 103.971C62.3083 103.971 61.5717 104.486 60.5468 105.483C59.9703 106.448 59.0415 109.377 59.0415 118.418C59.0415 123.63 58.7853 126.945 58.497 129.036C59.1696 129.293 59.8101 129.454 60.3226 129.358C62.5645 129.004 62.2442 129.004 62.2442 129.004Z" fill="#2D517E"/>
<path d="M69.2903 100.593C69.2903 100.593 70.8917 103.263 75.0553 103.263C79.2189 103.263 80.9164 100.818 80.9164 100.818L86.8415 102.748C87.3219 102.909 87.7703 103.134 88.1866 103.424C89.5638 104.389 90.4286 105.966 90.4286 107.736V147.022C90.4286 148.631 89.1154 149.95 87.5141 149.95H62.5966C60.9952 149.95 59.682 148.631 59.682 147.022V108.476C59.682 106.449 60.835 104.615 62.6606 103.746L69.2903 100.593Z" fill="#3576C4"/>
<path d="M75.6959 112.272C76.0496 112.272 76.3364 111.984 76.3364 111.629C76.3364 111.273 76.0496 110.985 75.6959 110.985C75.3421 110.985 75.0553 111.273 75.0553 111.629C75.0553 111.984 75.3421 112.272 75.6959 112.272Z" fill="#2D517E"/>
<path d="M75.6959 114.846C76.0496 114.846 76.3364 114.558 76.3364 114.203C76.3364 113.847 76.0496 113.559 75.6959 113.559C75.3421 113.559 75.0553 113.847 75.0553 114.203C75.0553 114.558 75.3421 114.846 75.6959 114.846Z" fill="#2D517E"/>
<path d="M63.5253 149.918H64.1659V103.038L63.5253 103.36V149.918Z" fill="#92C1F8"/>
<path d="M56.159 127.781C56.3832 127.91 56.5754 128.039 56.7995 128.167V110.406C56.5754 110.825 56.3512 111.243 56.159 111.693V127.781Z" fill="#92C1F8"/>
<path d="M68.0092 149.918H68.6498V100.914L68.0092 101.204V149.918Z" fill="#92C1F8"/>
<path d="M82.9021 149.918H83.5426V101.654L82.9021 101.461V149.918Z" fill="#92C1F8"/>
<path d="M86.5853 149.918H87.2258V102.877C87.0977 102.813 86.9696 102.781 86.8415 102.716L86.5853 102.652V149.918Z" fill="#92C1F8"/>
<path d="M93.9516 110.213C93.7594 109.698 93.5352 109.248 93.3111 108.797V125.4C93.5352 125.336 93.7594 125.239 93.9516 125.175V110.213Z" fill="#92C1F8"/>
<path d="M72.4931 149.918H73.1336V103.038C72.9094 102.973 72.6853 102.941 72.4931 102.877V149.918Z" fill="#92C1F8"/>
<path d="M78.2581 149.918H78.8986V102.394C78.7065 102.491 78.4823 102.587 78.2581 102.684V149.918Z" fill="#92C1F8"/>
<path d="M70.8917 105.194C72.1728 107.124 75.6959 109.698 75.6959 109.698C75.6959 109.698 78.5783 107.124 79.8595 105.194C80.7242 103.875 80.8523 101.944 80.8523 100.882C80.5641 101.236 78.8346 103.263 75.0553 103.263C71.212 103.263 69.5786 101.011 69.3224 100.657L69.2903 100.689C69.2903 100.689 69.6106 103.263 70.8917 105.194Z" fill="#E9F3FE"/>
<path d="M76.0802 122.858C78.9947 122.73 79.7954 122.633 79.9235 124.081C80.0516 125.497 79.9555 131.192 80.0196 132.254C80.0836 133.315 80.2438 134.635 78.6424 134.828C76.0161 135.182 73.9023 135.31 73.55 133.444C73.1977 131.578 73.1657 126.526 73.1336 125.207C73.1016 123.888 73.1657 122.987 76.0802 122.858Z" fill="#2D517E"/>
<path d="M79.7634 128.232C79.7954 128.393 79.7634 128.553 79.7313 128.714C79.6353 129.036 79.4111 129.197 79.2509 129.454C79.1549 129.647 79.1869 129.873 79.1549 130.098C79.0588 130.452 78.8986 130.741 78.6744 130.999C78.5784 131.095 78.3542 131.224 78.2901 131.321C78.2581 131.353 78.3221 131.514 78.2901 131.578C78.2581 131.674 78.226 131.803 78.162 131.9C77.7777 132.543 77.1691 133.058 76.5286 133.476C76.2083 133.702 75.856 133.862 75.5357 134.055C75.2475 134.216 74.9592 134.216 74.639 134.281C73.9023 134.442 73.1977 134.442 72.429 134.442C71.7565 134.442 71.0198 134.409 70.4113 134.796C69.2583 135.536 63.3332 139.718 61.2834 141.005C60.0023 141.81 58.6892 142.614 57.28 143.193C56.6394 143.451 55.9028 143.676 55.2302 143.451C54.6537 143.258 54.2053 142.743 53.9491 142.164C53.6929 141.585 53.6288 140.941 53.5648 140.33C53.2765 137.788 53.2765 135.278 53.5007 132.768C53.5648 132.254 53.5007 131.321 53.5968 130.806C53.5968 130.709 53.5648 130.516 53.5968 130.484L53.7569 130.677H53.789C53.789 130.677 53.821 130.677 53.821 130.709C53.853 130.709 53.853 130.741 53.885 130.741C53.885 130.741 58.529 130.677 59.682 131.256C59.682 131.385 59.1696 135.89 59.7781 135.536C60.7069 134.989 61.7318 134.828 62.6926 134.442C63.9737 133.927 68.7138 131.642 69.7707 130.709C70.2512 130.291 71.6924 127.749 72.1088 127.041C72.4611 126.462 72.7493 125.915 73.2938 125.529C73.3899 125.464 73.486 125.4 73.6141 125.4C73.8062 125.4 73.9984 125.593 74.0304 125.818C74.0625 126.011 73.9984 126.237 73.9343 126.43C73.7742 126.848 73.6461 127.266 73.486 127.652C73.4539 127.749 73.4219 127.878 73.486 127.974C73.55 128.039 73.6141 128.039 73.6781 128.039C75.4717 128.232 77.1371 127.202 78.8025 126.462C78.9627 126.398 79.0908 126.333 79.2509 126.333C79.5392 126.333 79.7954 126.623 79.8274 126.912C79.8595 127.266 79.5072 127.556 79.5712 127.846C79.5712 127.942 79.7313 128.071 79.7634 128.232Z" fill="#E9F3FE"/>
<path d="M76.7528 132.286C77.1371 132.64 77.5535 132.961 78.0018 133.219C78.5463 133.508 79.0267 133.637 79.5071 133.219C80.6601 132.254 81.1406 130.967 81.3007 129.519C81.3968 128.682 81.3007 128.232 80.7882 127.588C80.2758 126.945 79.6032 126.43 78.8986 126.011C78.4182 125.722 77.9378 125.464 77.3933 125.432C77.1051 125.4 76.7207 125.529 76.6887 125.818C76.6887 126.011 76.8168 126.14 76.977 126.269C77.3613 126.623 77.7456 126.977 78.162 127.331C77.5855 127.009 76.9129 126.848 76.2724 126.816C76.1442 126.816 75.9841 126.816 75.856 126.88C75.7279 126.945 75.6318 127.073 75.6318 127.202C75.6318 127.331 75.7599 127.427 75.856 127.524C76.1442 127.813 76.4645 128.071 76.7528 128.36C76.4325 128.36 76.1122 128.264 75.7919 128.296C75.4717 128.328 75.1194 128.553 75.1514 128.875C75.1514 129.133 75.3756 129.326 75.5677 129.486C75.92 129.776 76.3044 130.066 76.6567 130.387C76.2724 130.259 75.3435 129.873 75.2795 130.548C75.2154 131.16 76.3364 131.932 76.7528 132.286Z" fill="#E9F3FE"/>
<path d="M96.5779 130.902C96.5138 133.187 96.8341 141.874 94.2719 141.231C91.7097 140.587 89.1475 139.3 85.9447 136.404C82.7419 133.509 79.5392 132.221 79.5392 132.221L81.1406 128.682C81.1406 128.682 85.9447 131.578 87.5461 132.221C89.1475 132.865 90.4286 133.476 90.4286 133.476V129.454L96.5779 130.902Z" fill="#E9F3FE"/>
<path d="M78.5783 124.821C78.7552 124.821 78.8986 124.677 78.8986 124.499C78.8986 124.322 78.7552 124.177 78.5783 124.177C78.4015 124.177 78.2581 124.322 78.2581 124.499C78.2581 124.677 78.4015 124.821 78.5783 124.821Z" fill="#92C1F8"/>
</g>
</g>
<g clip-path="url(#clip10)">
<path d="M111.623 144.157C116.332 141.68 121.07 138.168 124.893 134.472C127.002 132.381 129.05 129.975 129.566 127.063C129.739 126.179 129.664 125.114 128.958 124.579C128.277 124.088 127.333 124.27 126.593 124.658C125.263 125.29 124.216 126.375 123.273 127.489C119.136 132.178 114.728 138.767 111.623 144.157Z" fill="#89DCAE"/>
<path d="M124.965 130.352C123.092 131.465 121.461 132.908 119.94 134.493C119.25 135.231 118.551 136.003 117.861 136.741C117.127 137.504 116.418 138.311 115.744 139.128C114.971 140.029 114.258 140.984 113.673 142.012C113.59 142.175 113.334 142.028 113.417 141.865C114.494 140.006 115.946 138.402 117.389 136.832C118.832 135.262 120.25 133.648 121.905 132.25C122.831 131.466 123.816 130.737 124.85 130.096C124.992 129.987 125.107 130.243 124.965 130.352Z" fill="white"/>
<path d="M113.222 142.295C118.138 137.08 122.021 130.903 124.589 124.242C125.656 121.485 126.491 118.364 125.351 115.655C124.918 114.675 124.205 113.766 123.243 113.346C121.681 112.681 119.816 113.498 118.617 114.727C116.953 116.421 116.184 118.777 115.546 121.059C113.441 128.595 112.138 136.321 111.667 144.132" fill="#61D093"/>
<path d="M111.623 144.157C113.748 137.483 115.518 128.882 114.872 121.875C114.767 120.652 114.593 119.41 113.998 118.347C113.536 117.471 112.715 116.68 111.691 116.615C110.816 116.555 109.977 117.027 109.385 117.68C108.021 119.235 107.984 121.5 108.083 123.541C108.485 129.958 109.369 138.113 111.623 144.157Z" fill="#89DCAE"/>
<path d="M112.452 141.855C113.677 139.067 114.893 136.315 116.049 133.508C117.195 130.735 118.238 127.934 119.153 125.059C119.676 123.454 120.095 121.819 120.377 120.146C120.39 119.963 120.701 120.051 120.652 120.223C120.196 123.19 119.168 126.07 118.15 128.916C117.097 131.752 115.951 134.524 114.77 137.287C114.109 138.853 113.404 140.445 112.709 142.002C112.617 142.199 112.36 142.052 112.452 141.855Z" fill="white"/>
<path d="M111.446 121.357C111.927 124.029 112.442 126.71 112.575 129.433C112.696 131.928 112.547 134.459 112.294 136.962C112.169 138.343 111.984 139.671 111.755 141.024C111.741 141.206 111.43 141.119 111.479 140.946C111.86 138.517 112.147 136.025 112.242 133.553C112.357 131.012 112.27 128.526 111.923 126.041C111.723 124.493 111.41 122.95 111.131 121.417C111.101 121.26 111.425 121.165 111.446 121.357Z" fill="white"/>
</g>
<path d="M36.2817 131.853C36.2817 131.853 30.7752 141.855 28.8222 140.928C26.8963 140.002 27.0048 139.593 27.276 136.868C27.5473 134.143 29.7987 129.265 29.7987 129.265L34.8606 133.573L36.2817 131.853Z" fill="#3576C4"/>
<path d="M30.8271 137.698C30.8271 137.698 30.6915 139.796 30.1219 140.396C29.5794 140.995 26.4328 142.984 24.4255 139.823C22.4183 136.662 22.8794 121.102 22.9337 119.603C22.9608 118.104 24.1 118.159 24.1 118.159L27.6535 117.968C27.6535 117.968 28.7114 117.886 28.9012 119.739C29.0911 121.592 30.8271 137.698 30.8271 137.698Z" fill="#3576C4"/>
<path d="M24.7239 123.255C24.1996 123.255 23.7745 122.828 23.7745 122.301C23.7745 121.774 24.1996 121.347 24.7239 121.347C25.2483 121.347 25.6733 121.774 25.6733 122.301C25.6733 122.828 25.2483 123.255 24.7239 123.255Z" fill="#2D517E"/>
<path d="M26.8939 128.16C26.3696 128.16 25.9445 127.733 25.9445 127.206C25.9445 126.679 26.3696 126.252 26.8939 126.252C27.4183 126.252 27.8433 126.679 27.8433 127.206C27.8433 127.733 27.4183 128.16 26.8939 128.16Z" fill="#2D517E"/>
<path d="M30.6915 137.425C30.1672 137.425 29.7421 136.998 29.7421 136.472C29.7421 135.945 30.1672 135.518 30.6915 135.518C31.2159 135.518 31.6409 135.945 31.6409 136.472C31.6409 136.998 31.2159 137.425 30.6915 137.425Z" fill="#2D517E"/>
<path d="M25.8632 134.564C24.9643 134.564 24.2357 133.832 24.2357 132.929C24.2357 132.026 24.9643 131.294 25.8632 131.294C26.762 131.294 27.4907 132.026 27.4907 132.929C27.4907 133.832 26.762 134.564 25.8632 134.564Z" fill="#2D517E"/>
<g clip-path="url(#clip11)">
<path d="M32.0818 69.0734L35.268 69.3401C35.3742 69.3401 35.5335 69.3935 35.5866 69.5002L38.1356 71.4741C38.5604 71.7942 39.1445 71.5274 39.1976 70.9939L39.4631 67.793C39.4631 67.6863 39.5162 67.5263 39.6225 67.4729L41.5873 64.9122C41.9059 64.4854 41.6404 63.8986 41.1093 63.8452L37.9232 63.5785C37.817 63.5785 37.6576 63.5251 37.6045 63.4184L35.0556 61.4979C34.6839 61.1778 34.0467 61.4445 34.0467 61.9247L33.7811 65.1256C33.7811 65.2323 33.728 65.3923 33.6218 65.4457L31.657 68.0064C31.3384 68.4332 31.6039 69.02 32.0818 69.0734Z" fill="#F2C900"/>
</g>
<g clip-path="url(#clip12)">
<path d="M124.321 85.8051L127.508 86.0718C127.614 86.0718 127.773 86.1252 127.826 86.2319L130.375 88.2058C130.8 88.5259 131.384 88.2591 131.437 87.7256L131.703 84.5247C131.703 84.418 131.756 84.258 131.862 84.2046L133.827 81.6439C134.145 81.2171 133.88 80.6303 133.349 80.5769L130.163 80.3102C130.057 80.3102 129.897 80.2568 129.844 80.1501L127.295 78.2296C126.924 77.9095 126.286 78.1762 126.286 78.6564L126.021 81.8573C126.021 81.964 125.968 82.124 125.861 82.1774L123.897 84.7381C123.578 85.1649 123.844 85.7517 124.321 85.8051Z" fill="#F2C900"/>
</g>
<g clip-path="url(#clip13)">
<path d="M26.043 78.9613L27.7357 79.103C27.7921 79.103 27.8767 79.1313 27.9049 79.188L29.2591 80.2366C29.4847 80.4067 29.7951 80.265 29.8233 79.9816L29.9643 78.2811C29.9643 78.2244 29.9925 78.1394 30.049 78.111L31.0928 76.7506C31.262 76.5239 31.121 76.2121 30.8389 76.1838L29.1462 76.0421C29.0898 76.0421 29.0052 76.0138 28.9769 75.9571L27.6228 74.9368C27.4253 74.7667 27.0868 74.9084 27.0868 75.1635L26.9458 76.864C26.9458 76.9207 26.9175 77.0057 26.8611 77.0341L25.8173 78.3944C25.6481 78.6212 25.7891 78.9329 26.043 78.9613Z" fill="#F2C900"/>
</g>
<g clip-path="url(#clip14)">
<path d="M118.603 94.0838L120.296 94.2255C120.352 94.2255 120.437 94.2539 120.465 94.3106L121.819 95.3592C122.045 95.5292 122.355 95.3875 122.383 95.1041L122.524 93.4036C122.524 93.3469 122.552 93.2619 122.609 93.2336L123.653 91.8732C123.822 91.6465 123.681 91.3347 123.399 91.3064L121.706 91.1647C121.65 91.1647 121.565 91.1363 121.537 91.0796L120.183 90.0593C119.985 89.8893 119.647 90.031 119.647 90.2861L119.506 91.9866C119.506 92.0432 119.477 92.1283 119.421 92.1566L118.377 93.517C118.208 93.7437 118.349 94.0555 118.603 94.0838Z" fill="#F2C900"/>
</g>
<defs>
<clipPath id="clip0">
<rect width="136.758" height="139" fill="white" transform="translate(13.2419 10.5)"/>
</clipPath>
<clipPath id="clip1">
<rect width="35.2304" height="48.5856" fill="white" transform="matrix(-1 0 0 1 46.2304 87.0786)"/>
</clipPath>
<clipPath id="clip2">
<rect width="83.6883" height="114.257" fill="white" transform="translate(42.3871 29.1621)"/>
</clipPath>
<clipPath id="clip3">
<rect width="136.758" height="139" fill="white" transform="translate(13.2419 10.5)"/>
</clipPath>
<clipPath id="clip4">
<rect width="29.3496" height="32.9736" fill="white" transform="translate(85.1114 80.3218)"/>
</clipPath>
<clipPath id="clip5">
<rect width="48.3103" height="52.5671" fill="white" transform="translate(80.5 100.76)"/>
</clipPath>
<clipPath id="clip6">
<rect width="23.6533" height="35.9168" fill="white" transform="matrix(-1 0 0 1 60.3147 80.3218)"/>
</clipPath>
<clipPath id="clip7">
<rect width="50.4803" height="53.4391" fill="white" transform="matrix(-1 0 0 1 71.4091 103.485)"/>
</clipPath>
<clipPath id="clip8">
<rect width="28.1203" height="49.3257" fill="white" transform="translate(59.3618 58.4421)"/>
</clipPath>
<clipPath id="clip9">
<rect width="43.3014" height="50.9345" fill="white" transform="translate(53.2765 100.593)"/>
</clipPath>
<clipPath id="clip10">
<rect width="22.4269" height="32.8084" fill="white" transform="matrix(-0.962478 -0.271358 -0.269044 0.963128 132.691 116.009)"/>
</clipPath>
<clipPath id="clip11">
<rect width="10.2488" height="10.2963" fill="white" transform="translate(31.4977 61.3379)"/>
</clipPath>
<clipPath id="clip12">
<rect width="10.2488" height="10.2963" fill="white" transform="translate(123.737 78.0696)"/>
</clipPath>
<clipPath id="clip13">
<rect width="5.4447" height="5.46992" fill="white" transform="translate(25.7327 74.8518)"/>
</clipPath>
<clipPath id="clip14">
<rect width="5.44469" height="5.4699" fill="white" transform="translate(118.293 89.9744)"/>
</clipPath>
</defs>
</svg>
