<svg width="161" height="160" viewBox="0 0 161 160" fill="none" xmlns="http://www.w3.org/2000/svg">
<path d="M52.4448 16.5977H97.7996C120.457 16.5977 138.821 34.8937 138.821 57.4565V103.141C138.821 125.71 120.452 144 97.7996 144H52.4448C29.7869 144 11.4239 125.704 11.4239 103.141V57.4565C11.4183 34.8881 29.7869 16.5977 52.4448 16.5977Z" fill="#E0E3ED"/>
<path d="M137.904 70.4009C145.348 70.4009 151.383 64.3899 151.383 56.975C151.383 49.5601 145.348 43.5491 137.904 43.5491C130.459 43.5491 124.425 49.5601 124.425 56.975C124.425 64.3899 130.459 70.4009 137.904 70.4009Z" fill="#FFDF00"/>
<path d="M137.904 68.9787C144.559 68.9787 149.955 63.6045 149.955 56.9751C149.955 50.3456 144.559 44.9714 137.904 44.9714C131.248 44.9714 125.853 50.3456 125.853 56.9751C125.853 63.6045 131.248 68.9787 137.904 68.9787Z" fill="#FFC100"/>
<path d="M133.698 70.4951L155 89.743C155 89.743 141.771 100.07 137.787 109.987C133.803 119.904 111.318 117.729 108.99 120.209C106.662 122.688 91.5545 97.8007 91.5545 97.8007C91.5545 97.8007 112.123 104.298 115.563 95.3325C119.002 86.3671 124.013 72.5704 133.698 70.4951Z" fill="#E9F3FE"/>
<path d="M121.58 93.877C119.502 81.2757 127.653 73.705 128.392 73.0464C122.058 77.9386 118.307 88.1713 115.563 95.327C112.123 104.287 91.5545 97.7952 91.5545 97.7952C91.5545 97.7952 91.9823 98.4981 92.699 99.6492C95.266 97.5462 109.317 104.707 117.824 110.026C126.325 115.35 123.752 107.076 121.58 93.877Z" fill="#92C1F8"/>
<path d="M42.9772 132.511C44.5774 130.408 46.072 128.189 47.0054 125.721C47.9388 123.252 48.2944 120.502 47.5943 117.956C47.2721 116.783 46.6387 115.582 45.5163 115.106C44.0384 114.481 42.2771 115.41 41.427 116.766C40.5769 118.122 40.4214 119.777 40.2825 121.371C41.9826 115.377 42.8327 109.151 42.7994 102.925C42.7827 99.6159 42.3105 95.8969 39.6991 93.8548C38.5045 92.9195 36.8154 92.4712 35.4431 93.1077C33.4595 94.0319 33.015 96.5887 32.8317 98.7636C32.5928 101.547 32.3539 104.331 32.1094 107.115C32.4261 104.126 32.4928 101.11 32.3038 98.1161C32.1538 95.7253 31.8316 93.2903 30.7592 91.143C29.6869 88.9958 27.7478 87.164 25.3753 86.7544C24.403 86.5829 23.3251 86.6825 22.5417 87.2857C21.7583 87.8889 21.3916 88.8962 21.2527 89.8757C21.0082 91.619 21.3694 93.3954 21.8583 95.0834C23.5418 100.861 26.7699 106.047 29.9647 111.149C27.3533 106.417 22.4028 103.047 17.03 102.344C16.5078 102.278 15.9299 102.245 15.4965 102.543C15.1465 102.787 14.9631 103.196 14.8465 103.606C14.2242 105.764 15.0576 108.078 16.2188 110.004C19.8192 115.964 26.2365 119.522 31.6038 123.977C29.7258 121.526 26.7255 119.971 23.6307 119.843C22.8306 119.81 21.9083 119.932 21.4583 120.59C21.2027 120.967 21.1582 121.448 21.2027 121.896C21.3583 123.507 22.5084 124.835 23.6696 125.964C26.1865 128.421 29.0257 130.546 32.0927 132.268C34.7541 133.762 37.8489 134.985 40.8214 134.254C41.3437 134.127 41.9493 133.789 41.9049 133.258" fill="#B0E7C9"/>
<path d="M28.4146 97.0038C28.9368 101.381 30.0536 105.654 31.4204 109.838C32.7872 114.027 34.3874 118.133 35.9042 122.267C36.7599 124.608 37.5933 126.955 38.3378 129.334C38.4767 129.777 37.7933 130.026 37.6544 129.584C36.3209 125.339 34.7208 121.194 33.1762 117.021C31.6371 112.87 30.1536 108.686 29.0702 104.392C28.459 101.979 27.9812 99.5329 27.6867 97.0647C27.6367 96.5998 28.359 96.5389 28.4146 97.0038Z" fill="#D8F3E4"/>
<path d="M32.6761 116.468C29.0591 115.117 25.6809 113.147 22.7362 110.657C21.8972 109.948 21.0971 109.196 20.3304 108.41C20.1137 108.188 20.4248 107.812 20.6415 108.039C23.3085 110.789 26.4477 113.075 29.898 114.752C30.8704 115.228 31.8649 115.654 32.8817 116.03C33.1706 116.141 32.965 116.578 32.6761 116.468Z" fill="#D8F3E4"/>
<path d="M38.7656 104.143C38.4378 106.622 38.11 109.101 37.7822 111.586C37.5099 113.662 37.3044 115.781 36.671 117.785C36.332 118.858 35.8598 119.871 35.1986 120.784C35.0152 121.039 34.643 120.729 34.8263 120.474C36.0042 118.842 36.5098 116.871 36.8321 114.912C37.2044 112.671 37.4488 110.407 37.7489 108.161C37.9322 106.794 38.11 105.421 38.2934 104.054C38.3267 103.75 38.8045 103.838 38.7656 104.143Z" fill="#D8F3E4"/>
<path d="M26.8088 123.396C27.8534 124.26 28.8701 125.184 29.9869 125.953C31.0648 126.695 32.2538 127.265 33.4428 127.818C33.7262 127.951 33.5206 128.388 33.2373 128.255C32.0483 127.702 30.8592 127.126 29.7702 126.385C28.6146 125.604 27.57 124.652 26.4977 123.767C26.2643 123.568 26.5699 123.197 26.8088 123.396Z" fill="#D8F3E4"/>
<path d="M43.7717 119.129C43.1828 119.688 42.7272 120.374 42.2438 121.022C41.7326 121.708 41.2159 122.4 40.7047 123.086C40.5158 123.335 40.1436 123.025 40.3325 122.776C40.8436 122.09 41.3603 121.398 41.8715 120.712C42.3549 120.065 42.8105 119.378 43.3994 118.819C43.6217 118.609 43.994 118.919 43.7717 119.129Z" fill="#D8F3E4"/>
<path d="M42.3104 137.636C43.1328 133.789 43.3995 129.456 43.105 125.532C42.9383 123.352 42.5494 121.066 41.1437 119.384C40.7214 118.875 40.0936 118.404 39.449 118.565C38.849 118.714 38.5045 119.345 38.36 119.937C38.0989 120.994 38.2211 122.101 38.3878 123.175C39.0879 127.707 40.7436 133.325 42.3104 137.636Z" fill="#89DCAE"/>
<path d="M40.8103 123.557C40.4658 125.704 40.7103 127.835 40.9825 129.976C41.2159 131.825 41.4103 133.712 42.0493 135.477C42.0993 135.61 41.8826 135.671 41.8326 135.538C41.1881 133.756 40.9992 131.847 40.7603 129.976C40.4825 127.813 40.2491 125.671 40.5992 123.496C40.6158 123.358 40.8325 123.418 40.8103 123.557Z" fill="white"/>
<path d="M42.0104 135.848C41.3937 130.602 39.738 125.483 37.171 120.862C36.1154 118.969 34.743 117.027 32.6594 116.401C31.9038 116.174 31.0482 116.147 30.3481 116.517C29.2257 117.104 28.7979 118.537 28.9202 119.794C29.0924 121.537 30.0703 123.086 31.0704 124.531C34.3485 129.274 38.1211 133.673 42.3104 137.636" fill="#61D093"/>
<path d="M42.3104 137.636C39.5379 133.264 35.4986 128.194 31.2204 125.267C30.4759 124.758 29.6925 124.265 28.809 124.083C28.0812 123.933 27.2478 124.033 26.731 124.564C26.2754 125.029 26.1532 125.737 26.2532 126.379C26.4866 127.873 27.7423 128.969 28.959 129.871C32.7761 132.71 37.8211 136.047 42.3104 137.636Z" fill="#89DCAE"/>
<path d="M41.4103 136.108C39.4435 132.129 37.471 128.139 35.0819 124.387C34.4096 123.33 33.6873 122.301 32.865 121.354C32.7706 121.249 32.9261 121.089 33.0206 121.199C34.443 122.832 35.5764 124.702 36.6654 126.567C37.7989 128.51 38.849 130.502 39.8657 132.506C40.4547 133.668 41.0325 134.83 41.6048 135.998C41.6715 136.125 41.477 136.241 41.4103 136.108Z" fill="white"/>
<path d="M29.3091 126.977C31.4593 128.183 33.5873 129.412 35.482 130.989C37.3321 132.528 39.0212 134.26 40.6103 136.059C40.7047 136.164 40.5491 136.324 40.4547 136.213C38.8934 134.443 37.2321 132.738 35.4208 131.222C33.5095 129.622 31.3649 128.383 29.198 127.165C29.0702 127.099 29.1813 126.905 29.3091 126.977Z" fill="white"/>
<path d="M28.2145 62.2603L29.0368 67.1967C29.0368 67.1967 28.0645 73.2456 23.8919 73.1017C19.7192 72.9578 19.4525 71.4968 19.4525 71.4968L19.4581 63.0074L28.2145 62.2603Z" fill="#E9F3FE"/>
<path d="M28.2145 62.2603L28.4701 63.7822C27.1089 64.247 23.7196 65.5752 23.8141 67.3406C23.9141 69.1558 26.7922 69.2333 28.5257 69.0618C27.8812 70.8272 26.5255 73.1958 23.8919 73.1072C19.7136 72.9634 19.4525 71.5023 19.4525 71.5023L19.4581 63.0129L28.2145 62.2603Z" fill="#92C1F8"/>
<path d="M36.8265 66.1674C36.8265 66.1674 32.8094 66.0733 31.2704 66.1563C29.7313 66.2393 28.8701 66.3445 28.8701 66.3445C28.8701 66.3445 29.0257 69.2278 25.5031 70.2793C21.9805 71.3308 19.4358 68.8182 19.4358 68.8182C19.4358 68.8182 9.05141 74.4852 8.50691 82.6315C7.96241 90.7779 25.5476 114.564 42.5882 116.849C59.6345 119.135 55.5618 78.0216 55.5618 78.0216L36.8265 66.1674Z" fill="#3A8FF3"/>
<path d="M55.5563 78.0214C55.5563 78.0214 55.6507 78.9512 55.7452 80.5174L48.9778 115.178C47.2721 116.539 45.1718 117.198 42.5827 116.849C30.1536 115.183 17.4412 102.079 11.6795 91.951C14.6575 89.4274 17.0356 87.4683 17.0356 87.4683C17.0356 87.4683 23.6696 105.073 31.4649 105.393C39.2657 105.709 37.6711 69.2608 37.6433 68.7683L36.8988 66.217L55.5563 78.0214Z" fill="#2D517E"/>
<path d="M28.8757 46.5154C19.3191 36.2993 11.1905 50.2344 11.1905 50.2344C11.1905 50.2344 11.6461 51.3634 12.374 53.0125C12.2073 53.0015 12.0517 53.0236 11.9073 53.0956C11.1572 53.4553 11.0794 54.8444 11.735 56.2058C12.3906 57.5616 13.5297 58.3752 14.2797 58.0154C14.3964 57.9601 14.4909 57.8826 14.5742 57.783C15.391 59.4599 16.2799 61.1589 17.1467 62.5867C19.9803 67.2686 25.8587 65.0549 31.1926 62.1218C36.5265 59.1776 28.8757 46.5154 28.8757 46.5154Z" fill="#E9F3FE"/>
<path d="M23.0195 49.0224C25.5198 48.8619 28.2201 48.386 29.7536 48.0816C29.2424 47.1131 28.8813 46.5154 28.8813 46.5154C19.3247 36.2993 11.1961 50.2344 11.1961 50.2344C11.1961 50.2344 11.6517 51.3634 12.3795 53.0125C12.3795 53.0125 14.1297 54.7503 14.7131 54.0087C15.2965 53.2726 19.2525 49.2604 23.0195 49.0224Z" fill="#539CEA"/>
<path d="M16.0188 49.9742C16.0188 49.9742 30.5259 47.7384 34.0096 41.363C37.4933 34.9877 30.6148 32.7186 29.2813 33.3551C27.9478 33.9915 27.9478 33.9915 27.9478 33.9915C27.9478 33.9915 28.7924 29.0107 24.4475 28.2692C20.1026 27.5276 17.569 33.997 17.569 33.997C17.569 33.997 14.8076 28.2747 13.2796 29.9018C11.7517 31.5288 3.58973 45.5358 6.70117 49.05C9.8126 52.5642 11.7239 58.2201 13.363 59.3989C15.002 60.5777 16.0244 60.4283 16.0244 60.4283L14.5853 57.3181C14.5853 57.3181 13.2741 58.4138 12.1517 56.178C11.0294 53.9422 13.3963 53.9699 13.3963 53.9699L12.9685 52.3705C12.9685 52.3705 14.3742 52.9793 14.7576 51.64C15.1521 50.3063 15.4687 50.0683 16.0188 49.9742Z" fill="#2D517E"/>
<path d="M25.7587 52.7136L28.5146 56.5156L27.2311 58.1759" fill="#92C1F8"/>
<path d="M8.50692 82.6315C9.05697 74.4852 19.4303 68.8237 19.4303 68.8237C19.4303 68.8237 20.097 69.4768 21.2138 69.9748C20.1137 74.1476 18.7913 80.1633 19.8303 81.901C21.4583 84.6459 23.5974 87.6067 23.5974 87.6067L13.8853 95.2605C13.8853 95.2605 13.7852 95.1941 13.613 95.0668C10.2682 90.0805 8.31801 85.4318 8.50692 82.6315Z" fill="#3576C4"/>
<path d="M48.0721 139.429C44.8774 139.429 42.2771 136.839 42.2771 133.657V23.6537C42.2771 20.4716 44.8774 17.8816 48.0721 17.8816H105.956C109.151 17.8816 111.751 20.4716 111.751 23.6537V133.657C111.751 136.839 109.151 139.429 105.956 139.429H48.0721Z" fill="#92C1F8"/>
<path d="M104.411 22.9122C106.45 22.9122 108.106 24.5614 108.106 26.5924V130.712C108.106 132.743 106.45 134.393 104.411 134.393H49.6168C47.5777 134.393 45.9219 132.743 45.9219 130.712V26.5924C45.9219 24.5614 47.5777 22.9122 49.6168 22.9122H104.411ZM105.956 16H48.0722C43.8273 16 40.388 19.4257 40.388 23.6538V133.657C40.388 137.885 43.8273 141.31 48.0722 141.31H105.956C110.201 141.31 113.64 137.885 113.64 133.657V23.6538C113.64 19.4257 110.201 16 105.956 16Z" fill="#3576C4"/>
<path d="M87.7207 28.474H66.3074C64.0127 28.474 62.1514 26.6201 62.1514 24.3345V20.4495H91.8767V24.34C91.8767 26.6201 90.0154 28.474 87.7207 28.474Z" fill="#3576C4"/>
<path d="M99.9887 70.5503H53.2338C51.4558 70.5503 50.0112 69.1114 50.0112 67.3405V40.1566C50.0112 38.3857 51.4558 36.9468 53.2338 36.9468H99.9887C101.767 36.9468 103.211 38.3857 103.211 40.1566V67.3405C103.211 69.1114 101.767 70.5503 99.9887 70.5503Z" fill="#3A8FF3"/>
<path d="M51.6948 127.331L56.273 120.734C57.2065 119.39 59.0566 119.069 60.3901 120.021L61.0346 120.48C62.6348 121.62 64.8795 120.9 65.5184 119.046L67.7409 112.566C68.6465 109.932 72.3858 109.932 73.2915 112.566L74.3694 115.704C75.2306 118.216 78.7476 118.371 79.8255 115.942L80.7589 113.844C81.6923 111.752 84.5649 111.492 85.8594 113.379C87.2207 115.366 90.2766 114.951 91.0544 112.677L92.0934 109.644C93.0491 106.86 97.0717 107.071 97.7274 109.937L101.706 127.331C101.711 127.331 51.8337 127.193 51.6948 127.331Z" fill="#3576C4"/>
<path d="M51.567 127.503L55.2896 116.661C56.1619 114.121 59.7512 114.077 60.6901 116.595L62.4737 121.398C63.246 123.479 65.9963 123.928 67.3908 122.195L68.8354 120.408C69.7966 119.218 71.5246 118.991 72.7581 119.893L76.1195 122.345C76.6085 122.705 77.203 122.893 77.8086 122.893H82.0868C82.6924 122.893 83.2869 123.086 83.7759 123.441L86.9596 125.759C88.2652 126.711 90.1043 126.396 91.0155 125.068L94.0047 120.712C94.0436 120.657 94.0825 120.602 94.1214 120.552C95.3215 119.041 97.7218 119.356 98.5941 121.078L101.789 127.392C101.8 127.398 51.567 127.298 51.567 127.503Z" fill="#E9F3FE"/>
<path d="M101.783 127.398L97.894 124.243C92.5601 120.336 90.0321 127.774 85.8428 122.195L84.3982 120.408C83.437 119.218 81.709 118.991 80.4755 119.893L78.8031 121.111C77.2141 122.267 75.2972 122.893 73.3248 122.893H71.1412C70.5356 122.893 69.9411 123.086 69.4522 123.441L66.2685 125.759C64.9628 126.711 64.0516 126.839 61.9625 125.09C61.9625 125.09 59.6956 123.252 59.64 123.186C58.5288 121.836 56.2063 121.836 55.2007 123.186C54.9618 123.507 54.7062 123.8 54.4395 124.094L51.4336 127.392C51.4281 127.398 101.783 127.193 101.783 127.398Z" fill="#3A8FF3"/>
<path opacity="0.3" d="M102.056 79.1228H51.8003C51.1614 79.1228 50.6446 78.6081 50.6446 77.9717C50.6446 77.3352 51.1614 76.8206 51.8003 76.8206H102.056C102.695 76.8206 103.211 77.3352 103.211 77.9717C103.211 78.6081 102.695 79.1228 102.056 79.1228Z" fill="#3576C4"/>
<path opacity="0.3" d="M102.056 87.2414H51.8003C51.1614 87.2414 50.6446 86.7267 50.6446 86.0903C50.6446 85.4539 51.1614 84.9392 51.8003 84.9392H102.056C102.695 84.9392 103.211 85.4539 103.211 86.0903C103.211 86.7267 102.695 87.2414 102.056 87.2414Z" fill="#3576C4"/>
<path opacity="0.3" d="M87.4818 95.3601H51.8003C51.1614 95.3601 50.6446 94.8454 50.6446 94.209C50.6446 93.5725 51.1614 93.0579 51.8003 93.0579H87.4818C88.1208 93.0579 88.6375 93.5725 88.6375 94.209C88.6319 94.8454 88.1152 95.3601 87.4818 95.3601Z" fill="#3576C4"/>
<path d="M71.2635 67.4181C69.1132 67.4181 67.8742 64.3577 66.4352 60.8158C65.1128 57.5617 63.6182 53.8704 61.6402 53.7486C60.6012 53.6878 58.4232 54.623 55.3507 61.6459C55.2007 61.9946 54.7951 62.1495 54.445 62.0001C54.095 61.8507 53.9394 61.4467 54.0895 61.098C56.7231 55.0768 59.2233 52.2212 61.7291 52.3817C64.5683 52.5588 66.1629 56.4991 67.7131 60.3066C68.8077 63.0073 70.0856 66.0733 71.2801 66.0511C72.847 66.029 74.3971 61.2419 75.6417 57.3901C77.4141 51.9113 79.0921 46.7424 82.159 46.604C84.3982 46.4989 85.9761 49.0889 87.5152 51.5903C88.4319 53.0845 89.6821 55.1266 90.4266 54.9662C91.3433 54.7669 91.8434 51.6955 92.249 49.2272C92.8991 45.2647 93.6325 40.7765 96.4939 39.9962C97.1551 39.8136 97.8662 39.8468 98.6108 40.0903C98.9719 40.2065 99.1664 40.5939 99.0497 40.9536C98.933 41.3133 98.5385 41.507 98.1829 41.3908C97.6996 41.2303 97.2551 41.2082 96.8606 41.3133C94.8493 41.8668 94.1603 46.0672 93.6102 49.443C93.0213 53.0513 92.5546 55.9014 90.721 56.3054C89.032 56.6762 87.7874 54.6507 86.3428 52.3042C85.076 50.2455 83.6592 47.9156 82.2202 47.971C80.1088 48.065 78.3586 53.4664 76.9529 57.8107C75.2917 62.9464 73.8526 67.3849 71.2968 67.4181C71.2857 67.4181 71.2746 67.4181 71.2635 67.4181Z" fill="white"/>
<path opacity="0.4" d="M86.824 48.1091C87.2801 45.5574 85.5732 43.1205 83.0113 42.6662C80.4495 42.2118 78.003 43.9121 77.5468 46.4637C77.0907 49.0154 78.7976 51.4523 81.3594 51.9067C83.9213 52.361 86.3678 50.6608 86.824 48.1091Z" fill="#F5F8FF"/>
<path d="M82.1868 49.7197C83.537 49.7197 84.6315 48.6295 84.6315 47.2846C84.6315 45.9398 83.537 44.8496 82.1868 44.8496C80.8367 44.8496 79.7421 45.9398 79.7421 47.2846C79.7421 48.6295 80.8367 49.7197 82.1868 49.7197Z" fill="#F5F8FF"/>
<path d="M21.9528 86.9538C21.9528 86.9538 35.2041 96.8212 37.0099 98.2048C38.8156 99.5828 50.8113 81.5967 50.8113 81.5967C50.8113 81.5967 50.5557 78.0437 50.9725 77.1583C51.3892 76.2728 51.817 77.9441 51.817 77.9441C51.817 77.9441 52.6115 74.0591 54.5395 74.6015C56.4675 75.1438 57.012 79.2225 55.6063 80.5895C54.2006 81.9564 54.2006 81.9564 54.2006 81.9564C54.2006 81.9564 46.7942 104.359 39.0823 104.724C31.3704 105.089 16.3466 95.3325 14.9298 93.1023C13.5019 90.8664 21.9528 86.9538 21.9528 86.9538Z" fill="#E9F3FE"/>
<path d="M17.0022 89.8149C19.9303 92.571 30.2703 101.974 36.7432 103.512C41.677 104.685 46.9665 97.3691 50.0724 92.0895C47.211 98.0775 43.1883 104.53 39.0768 104.724C31.3649 105.089 16.3411 95.3325 14.9242 93.1022C14.3242 92.1614 15.4743 90.9273 17.0022 89.8149Z" fill="#92C1F8"/>
<path d="M117.646 85.8082C121.813 85.8082 125.191 82.4434 125.191 78.2928C125.191 74.1421 121.813 70.7773 117.646 70.7773C113.479 70.7773 110.101 74.1421 110.101 78.2928C110.101 82.4434 113.479 85.8082 117.646 85.8082Z" fill="#FFDF00"/>
<path d="M117.646 85.0112C121.371 85.0112 124.391 82.0032 124.391 78.2927C124.391 74.5822 121.371 71.5742 117.646 71.5742C113.921 71.5742 110.901 74.5822 110.901 78.2927C110.901 82.0032 113.921 85.0112 117.646 85.0112Z" fill="#FFC100"/>
</svg>
