<svg width="168" height="168" viewBox="0 0 168 168" fill="none" xmlns="http://www.w3.org/2000/svg">
<path d="M49.6952 147.849C26.8798 147.471 22.6238 115.108 44.5945 108.943C48.3465 107.889 52.6258 107.366 57.4932 107.543C95.3212 108.934 119.523 102.536 132.039 111.435C143.491 119.579 150.285 144.718 151.359 148.941C151.438 149.245 151.2 149.539 150.887 149.534L49.6952 147.849Z" fill="#B0E7C9"/>
<path d="M59.6028 148.017C62.8228 145.399 71.3581 138.824 78.8248 136.281C88.2421 133.07 92.0921 126.224 97.2301 118.729C99.6848 115.15 101.551 110.549 102.83 106.717C90.7248 107.081 75.6888 108.215 57.4934 107.543C52.6214 107.366 48.3468 107.889 44.5948 108.943C22.6241 115.108 26.8848 147.471 49.6954 147.849L59.6028 148.017Z" fill="#61D093"/>
<path d="M28.2938 129.057C23.2585 124.278 18.5498 118.244 15.0638 112.243C13.1271 108.906 11.4098 105.191 11.7645 101.351C11.8718 100.189 12.3105 98.8774 13.4025 98.4667C14.4151 98.084 15.5445 98.6627 16.3565 99.3814C17.7891 100.655 18.7225 102.387 19.5485 104.113C23.0531 111.407 26.2591 121.231 28.2938 129.057Z" fill="#75D6A1"/>
<path d="M16.4031 107.077C18.3678 109.13 19.9125 111.529 21.2518 114.025C21.8818 115.197 22.4698 116.391 23.0811 117.572C23.7158 118.809 24.3458 120.045 24.9198 121.31C25.5591 122.71 26.1331 124.147 26.5205 125.641C26.5858 125.883 26.9638 125.781 26.8985 125.538C26.1985 122.845 24.9291 120.321 23.6645 117.857C22.3905 115.369 21.1725 112.845 19.6231 110.516C18.7458 109.195 17.7705 107.94 16.6738 106.792C16.5058 106.615 16.2258 106.895 16.4031 107.077Z" fill="white"/>
<path d="M26.9451 126.159C22.6005 117.917 19.8845 108.822 18.9978 99.5446C18.6338 95.7413 18.6851 91.5459 21.0791 88.5686C21.9518 87.4813 23.1605 86.5993 24.5418 86.4359C26.7585 86.1746 28.8071 87.8313 29.8805 89.7866C31.3738 92.4933 31.4998 95.7226 31.4951 98.8166C31.4765 108.971 30.4031 119.126 28.2938 129.057" fill="#61D093"/>
<path d="M28.2938 129.057C27.9485 119.938 28.7418 108.547 32.0131 100.03C32.5825 98.5505 33.2265 97.0525 34.3231 95.9092C35.2285 94.9665 36.5351 94.2852 37.8185 94.5419C38.9385 94.7659 39.8298 95.6712 40.3245 96.7025C41.4725 99.1059 40.7538 101.953 39.8951 104.477C37.1931 112.406 33.2218 122.281 28.2938 129.057Z" fill="#75D6A1"/>
<path d="M28.0698 125.907C27.5005 122.005 26.9405 118.099 26.4878 114.179C26.0398 110.306 25.6805 106.419 25.5451 102.522C25.4658 100.329 25.4845 98.1305 25.7365 95.9465C25.7645 95.6945 25.3725 95.6992 25.3445 95.9465C24.8965 99.8385 25.1485 103.796 25.4565 107.693C25.7645 111.603 26.2311 115.495 26.7538 119.383C27.0525 121.595 27.3698 123.802 27.6918 126.009C27.7245 126.257 28.1025 126.154 28.0698 125.907Z" fill="white"/>
<path d="M36.4978 100.604C34.9438 103.768 33.3711 106.946 32.2511 110.297C31.2151 113.395 30.5058 116.601 29.9458 119.821C29.6425 121.576 29.3858 123.345 29.1758 125.113C29.1478 125.365 29.5398 125.361 29.5678 125.113C29.9505 121.921 30.4685 118.739 31.1871 115.603C31.9198 112.406 32.9138 109.307 34.2298 106.302C35.0418 104.445 35.9378 102.625 36.8291 100.805C36.9505 100.576 36.6098 100.375 36.4978 100.604Z" fill="white"/>
<path opacity="0.7" d="M148.596 58.3755H119.989C116.909 58.3755 114.389 55.8555 114.389 52.7755V26.7401C114.389 23.6601 116.909 21.1401 119.989 21.1401H148.596C151.676 21.1401 154.196 23.6601 154.196 26.7401V52.7801C154.196 55.8555 151.676 58.3755 148.596 58.3755Z" fill="#C9E0FC"/>
<path opacity="0.7" d="M106.218 68.6467H77.6111C74.5311 68.6467 72.0111 66.1267 72.0111 63.0467V37.0067C72.0111 33.9267 74.5311 31.4067 77.6111 31.4067H106.218C109.298 31.4067 111.818 33.9267 111.818 37.0067V63.0467C111.818 66.1267 109.298 68.6467 106.218 68.6467Z" fill="#C9E0FC"/>
<path opacity="0.7" d="M140.248 109.419H111.641C108.561 109.419 106.041 106.899 106.041 103.819V77.7792C106.041 74.6992 108.561 72.1792 111.641 72.1792H140.248C143.328 72.1792 145.848 74.6992 145.848 77.7792V103.819C145.848 106.899 143.328 109.419 140.248 109.419Z" fill="#C9E0FC"/>
<path opacity="0.3" d="M88.6668 51.7953C88.6668 49.098 90.8788 44.7253 92.7221 41.412C92.0361 40.18 91.4015 39.0927 90.9535 38.2947H89.6235C87.9668 41.2347 83.8041 48.0993 83.8041 51.8C83.8041 55.3887 86.7068 58.296 90.2908 58.296C91.1495 58.296 91.9708 58.1233 92.7221 57.82C90.3468 56.8493 88.6668 54.5207 88.6668 51.7953Z" fill="#3B8EF3"/>
<path d="M90.2861 40.8659C91.9988 43.8759 94.9201 49.1633 94.9201 51.7953C94.9201 54.3526 92.8435 56.4386 90.2861 56.4386C87.7288 56.4386 85.6521 54.3573 85.6521 51.7953C85.6568 49.1633 88.5735 43.8759 90.2861 40.8659ZM90.2861 37.9026C90.0248 37.9026 89.7681 38.0333 89.6188 38.2946C87.9621 41.2346 83.7995 48.0993 83.7995 51.7999C83.7995 55.3886 86.7021 58.2959 90.2861 58.2959C93.8701 58.2959 96.7728 55.3886 96.7728 51.7999C96.7728 48.0993 92.6055 41.2346 90.9535 38.2946C90.8088 38.0333 90.5475 37.9026 90.2861 37.9026Z" fill="#3B8EF3"/>
<path d="M90.2861 55.3559C88.8721 55.3559 87.6681 54.8192 86.9868 53.8812C86.3288 52.9852 86.1935 51.7859 86.6041 50.5026C86.6788 50.2599 86.9448 50.1246 87.1875 50.1992C87.4301 50.2786 87.5655 50.5399 87.4908 50.7826C87.1688 51.7906 87.2575 52.6726 87.7381 53.3352C88.2468 54.0306 89.1755 54.4272 90.2908 54.4272C90.5475 54.4272 90.7528 54.6326 90.7528 54.8892C90.7528 55.1459 90.5428 55.3559 90.2861 55.3559Z" fill="#3B8EF3"/>
<path d="M45.1358 147.196C40.8192 146.594 29.7218 141.246 25.2652 135.856L55.3465 98.0232L78.1432 116.601L51.9352 147.831C51.9305 147.835 49.4525 147.798 45.1358 147.196Z" fill="#94C2F8"/>
<path d="M43.5258 106.461L66.6772 131.283C68.1799 132.897 70.7419 132.879 72.2259 131.25L124.614 73.6586C126.126 71.9973 125.86 69.3933 124.045 68.0726L95.4612 47.2546C94.3132 46.4193 92.7125 46.5919 91.7745 47.6559L43.4699 102.326C42.4199 103.516 42.4432 105.303 43.5258 106.461Z" fill="#204E85"/>
<path d="M91.7745 47.656C92.7172 46.592 94.3132 46.4146 95.4612 47.2546L122.127 66.6773C123.214 68.082 123.195 70.1259 121.931 71.5166L69.5472 129.108C68.5252 130.233 66.9899 130.587 65.6412 130.172L43.5258 106.465C42.4432 105.308 42.4199 103.516 43.4699 102.331L91.7745 47.656Z" fill="#2F75C7"/>
<path d="M118.538 71.8153L70.4712 125.641L46.3725 100.469L90.5565 51.3333L118.538 71.8153Z" fill="#94C2F8"/>
<path d="M72.8932 70.9752L73.0192 70.9146L72.8932 70.9799V70.9752Z" fill="#2F75C7"/>
<path d="M99.1338 93.548L70.4759 125.641L46.3772 100.469L72.5292 71.386C71.9178 73.2293 68.4412 84.3127 68.8052 97.3233C69.2065 111.585 77.5412 116.102 79.7485 112.588C81.9558 109.074 79.2445 102.247 83.2625 100.235C87.2805 98.2286 93.0019 96.922 95.4145 95.0133C96.2079 94.3833 97.6125 93.9073 99.1338 93.548Z" fill="#2F75C7"/>
<path d="M66.4158 82.0773C66.6165 82.0773 66.8078 82.152 66.9572 82.292L88.3819 102.466C88.5359 102.611 88.6245 102.807 88.6292 103.021C88.6339 103.236 88.5545 103.437 88.4098 103.586L86.2492 105.831C86.0999 105.985 85.8992 106.073 85.6799 106.073C85.4745 106.073 85.2832 105.994 85.1338 105.854L63.7838 85.5213C63.6298 85.372 63.5412 85.176 63.5412 84.9613C63.5365 84.7467 63.6205 84.546 63.7745 84.392L65.8605 82.306C66.0052 82.1567 66.2058 82.0773 66.4158 82.0773ZM66.4158 81.6387C66.1032 81.6387 65.7858 81.76 65.5478 81.998L63.4618 84.084C62.9765 84.5693 62.9858 85.3627 63.4852 85.8387L84.8352 106.171C85.0732 106.395 85.3765 106.512 85.6799 106.512C86.0019 106.512 86.3239 106.386 86.5665 106.134L88.7272 103.889C89.1985 103.399 89.1798 102.615 88.6852 102.144L67.2605 81.97C67.0178 81.7507 66.7192 81.6387 66.4158 81.6387Z" fill="white"/>
<path d="M60.7925 88.1672C60.9932 88.1672 61.1845 88.2418 61.3339 88.3818L82.7585 108.556C82.9125 108.701 83.0012 108.897 83.0059 109.111C83.0105 109.326 82.9312 109.527 82.7865 109.676L80.6259 111.921C80.4765 112.075 80.2759 112.163 80.0565 112.163C79.8512 112.163 79.6599 112.084 79.5105 111.944L58.1605 91.6112C58.0065 91.4618 57.9179 91.2658 57.9179 91.0512C57.9132 90.8365 57.9972 90.6358 58.1512 90.4818L60.2372 88.3958C60.3819 88.2512 60.5825 88.1672 60.7925 88.1672ZM60.7925 87.7285C60.4799 87.7285 60.1625 87.8498 59.9245 88.0878L57.8385 90.1738C57.3532 90.6592 57.3625 91.4525 57.8619 91.9285L79.2119 112.261C79.4499 112.485 79.7532 112.602 80.0565 112.602C80.3785 112.602 80.7005 112.476 80.9432 112.224L83.1039 109.979C83.5752 109.489 83.5565 108.705 83.0619 108.234L61.6372 88.0598C61.3945 87.8405 61.0959 87.7285 60.7925 87.7285Z" fill="white"/>
<path d="M55.9018 93.8559C56.1352 93.8559 56.3498 93.9446 56.5178 94.1079L77.5178 114.525C77.8678 114.865 77.8772 115.425 77.5365 115.775L74.7178 118.673C74.5498 118.846 74.3258 118.939 74.0832 118.939C73.8405 118.939 73.6165 118.846 73.4485 118.673L53.0038 97.6732C52.6678 97.3279 52.6678 96.7866 53.0038 96.4412L55.2672 94.1219C55.4398 93.9492 55.6638 93.8559 55.9018 93.8559ZM55.9018 93.4172C55.5565 93.4172 55.2158 93.5526 54.9545 93.8139L52.6912 96.1332C52.1918 96.6466 52.1918 97.4632 52.6912 97.9766L73.1358 118.977C73.3972 119.243 73.7378 119.378 74.0832 119.378C74.4285 119.378 74.7692 119.243 75.0305 118.977L77.8492 116.079C78.3578 115.556 78.3485 114.716 77.8212 114.207L56.8212 93.7906C56.5692 93.5432 56.2378 93.4172 55.9018 93.4172Z" fill="white"/>
<path d="M100.128 103.049C103.441 101.141 103.843 96.4225 103.843 96.4225C103.843 96.4225 83.6592 95.8205 80.9479 95.9185C78.2365 96.0165 72.5105 98.0278 75.9265 100.739C79.3425 103.451 90.0852 104.155 93.3005 104.655C96.5159 105.154 100.128 103.049 100.128 103.049Z" fill="#DBEBFD"/>
<path d="M95.6945 105.49C95.6945 105.49 76.8178 104.687 73.7052 106.493C70.5925 108.299 69.6872 111.916 74.1065 112.719C78.5258 113.521 89.3712 114.926 92.3812 113.12C95.3912 111.314 96.8985 107.198 95.6945 105.49Z" fill="#DBEBFD"/>
<path d="M87.3272 114.595C87.3272 114.595 73.9712 114.795 71.4605 117.609C68.9498 120.423 68.4458 122.43 69.9532 122.929C71.4605 123.429 83.2065 123.835 86.6225 120.82C90.0385 117.81 87.6258 114.394 87.3272 114.595Z" fill="#DBEBFD"/>
<path d="M62.5752 87.08C56.1492 85.876 52.9339 85.274 52.9339 85.274C52.9339 85.274 59.7612 90.8973 57.5539 100.539C55.3465 110.18 51.1279 114.8 51.1279 114.8C51.1279 114.8 37.4732 125.645 33.8565 132.473C32.4332 135.161 31.2619 138.124 30.3612 140.737C24.0752 136.001 19.7819 128.903 18.6385 120.923L28.0325 114.002C28.0325 114.002 40.0819 80.0613 43.8992 74.2373C47.7165 68.4133 56.1492 70.42 64.1852 73.4346C72.2165 76.4493 75.6325 78.0546 74.8299 82.0726C74.0225 86.0766 69.0012 88.284 62.5752 87.08Z" fill="#94C2F8"/>
<path d="M94.3225 56.9474L112.21 70.3174C113.036 70.9334 114.193 70.8354 114.903 70.084L115.841 69.0854L94.6819 53.27L94.0565 53.9327C93.2259 54.8147 93.3519 56.224 94.3225 56.9474Z" fill="#2F75C7"/>
<path d="M98.9472 56.0327L112.877 66.1313C113.087 66.2853 113.381 66.2387 113.531 66.0287C113.685 65.8187 113.638 65.5247 113.428 65.3753L99.4979 55.2767C99.2879 55.1227 98.9939 55.1693 98.8445 55.3793C98.6905 55.5893 98.7372 55.8833 98.9472 56.0327Z" fill="#204E85"/>
<path d="M104.179 96.0165C104.179 96.0165 109.4 95.2138 113.017 91.7978C116.634 88.3818 108.598 86.7765 105.989 86.1745C103.381 85.5725 93.3378 83.3605 91.5272 84.9705C89.7165 86.5805 93.9352 91.7978 97.3512 93.4078C100.767 95.0178 104.179 96.0165 104.179 96.0165Z" fill="#DBEBFD"/>
<path d="M92.6845 89.0633C97.5985 86.9539 105.588 91.7092 109.368 94.2946C106.652 95.6432 104.183 96.0212 104.183 96.0212C104.183 96.0212 100.767 95.0179 97.3558 93.4126C95.6385 92.6052 93.7205 90.8832 92.4652 89.1706C92.5352 89.1286 92.6052 89.0959 92.6845 89.0633Z" fill="#94C2F8"/>
<path d="M74.8812 99.1574C80.4952 98.1354 94.7145 101.827 99.7919 103.227C98.8259 103.726 95.9279 105.061 93.3005 104.65C90.0852 104.146 79.3425 103.446 75.9265 100.735C75.2219 100.179 74.9139 99.6474 74.8812 99.1574Z" fill="#94C2F8"/>
<path d="M94.4065 111.319C93.8465 112.019 93.1652 112.653 92.3812 113.125C89.3665 114.931 78.5212 113.526 74.1065 112.723C71.6752 112.28 70.8585 110.987 71.1292 109.615C75.5672 108.201 88.8345 110.325 94.4065 111.319Z" fill="#94C2F8"/>
<path d="M69.2672 122.402C74.0318 121.749 84.1912 119.28 88.3025 118.258C88.0879 119.084 87.5885 119.971 86.6225 120.82C83.2065 123.835 71.4605 123.429 69.9532 122.929C69.6312 122.822 69.4072 122.64 69.2672 122.402Z" fill="#94C2F8"/>
<path d="M64.2785 78.6473C56.6485 75.334 48.2112 71.1153 43.1899 84.9753C38.1685 98.8307 35.4572 114.198 39.8765 117.81C44.2958 121.427 50.1199 122.831 50.1199 122.831C50.1199 122.831 53.2652 138.245 45.2339 147.168L42.9565 146.664C29.8245 144.415 20.4585 133.644 18.6339 120.918L28.0279 113.997C28.0279 113.997 40.0772 80.0567 43.8945 74.2327C47.7118 68.4087 56.1445 70.4153 64.1805 73.43C72.2118 76.4447 75.6278 78.05 74.8252 82.068C74.6385 82.992 74.2278 83.8133 73.6305 84.5273C71.9692 83.3047 68.4319 80.7847 65.7345 79.436C65.3192 79.1513 64.8385 78.89 64.2785 78.6473Z" fill="#DBEBFD"/>
<path d="M44.2587 61.5534C51.1556 61.5534 56.7467 55.9623 56.7467 49.0654C56.7467 42.1685 51.1556 36.5774 44.2587 36.5774C37.3618 36.5774 31.7707 42.1685 31.7707 49.0654C31.7707 55.9623 37.3618 61.5534 44.2587 61.5534Z" fill="#FDCB24"/>
<path d="M44.2587 60.2326C50.4262 60.2326 55.426 55.2328 55.426 49.0653C55.426 42.8977 50.4262 37.8979 44.2587 37.8979C38.0912 37.8979 33.0914 42.8977 33.0914 49.0653C33.0914 55.2328 38.0912 60.2326 44.2587 60.2326Z" fill="#FDCB24"/>
<path d="M34.8415 91.518C41.7384 91.518 47.3295 85.9269 47.3295 79.03C47.3295 72.1331 41.7384 66.542 34.8415 66.542C27.9446 66.542 22.3535 72.1331 22.3535 79.03C22.3535 85.9269 27.9446 91.518 34.8415 91.518Z" fill="#FDCB24"/>
<path d="M34.8415 90.1972C41.0091 90.1972 46.0088 85.1974 46.0088 79.0299C46.0088 72.8623 41.0091 67.8625 34.8415 67.8625C28.674 67.8625 23.6742 72.8623 23.6742 79.0299C23.6742 85.1974 28.674 90.1972 34.8415 90.1972Z" fill="#FDCB24"/>
<path d="M61.2735 74.9607C64.2864 74.9607 66.7288 72.5183 66.7288 69.5054C66.7288 66.4925 64.2864 64.05 61.2735 64.05C58.2606 64.05 55.8182 66.4925 55.8182 69.5054C55.8182 72.5183 58.2606 74.9607 61.2735 74.9607Z" fill="#FDCB24"/>
<path d="M61.2735 74.3867C63.9694 74.3867 66.1548 72.2012 66.1548 69.5054C66.1548 66.8095 63.9694 64.624 61.2735 64.624C58.5776 64.624 56.3922 66.8095 56.3922 69.5054C56.3922 72.2012 58.5776 74.3867 61.2735 74.3867Z" fill="#FDCB24"/>
<path d="M124.525 93.3988C124.441 93.3148 124.39 93.2028 124.39 93.0768C124.39 92.8248 124.595 92.6195 124.847 92.6195H127.615L125.813 90.8181C125.683 90.6875 125.645 90.4915 125.715 90.3235C125.785 90.1555 125.953 90.0435 126.135 90.0435H130.004C130.256 90.0435 130.461 90.2488 130.461 90.5008C130.461 90.7528 130.256 90.9581 130.004 90.9581H127.237L129.038 92.7595C129.169 92.8901 129.206 93.0861 129.136 93.2541C129.066 93.4221 128.898 93.5341 128.716 93.5341H124.847C124.721 93.5295 124.609 93.4781 124.525 93.3988Z" fill="#3B8EF3"/>
<path d="M135.487 86.9494C135.133 86.5947 134.554 86.5947 134.199 86.9494L132.263 88.8861L130.326 86.9494L132.263 85.0127C132.617 84.6581 132.617 84.0794 132.263 83.7247C131.908 83.3701 131.329 83.3701 130.975 83.7247L129.038 85.6614L128.394 85.0174C127.33 83.9534 125.589 83.9534 124.525 85.0174L120.657 88.8861C119.593 89.9501 119.593 91.6907 120.657 92.7547L122.915 95.0134L120.918 97.0107L118.715 96.2781C118.389 96.1661 118.025 96.2547 117.782 96.4974L116.872 97.4074C116.629 97.6501 116.541 98.0141 116.653 98.3407L117.385 100.543L115.962 101.971C115.607 102.326 115.607 102.905 115.962 103.259C116.139 103.437 116.373 103.525 116.606 103.525C116.839 103.525 117.073 103.437 117.25 103.259L119.075 101.435C119.317 101.192 119.406 100.828 119.294 100.501L118.561 98.2987L118.678 98.1821L120.881 98.9147C121.207 99.0267 121.571 98.9381 121.814 98.6954L124.208 96.3014L126.467 98.5601C127.531 99.6241 129.271 99.6241 130.335 98.5601L134.204 94.6914C135.268 93.6274 135.268 91.8867 134.204 90.8227L133.56 90.1787L135.497 88.2421C135.847 87.8827 135.847 87.3041 135.487 86.9494ZM132.911 93.3987L129.043 97.2674C128.693 97.6174 128.105 97.6174 127.755 97.2674L121.949 91.4621C121.599 91.1121 121.599 90.5241 121.949 90.1741L125.818 86.3054C126.168 85.9554 126.756 85.9554 127.106 86.3054L132.911 92.1107C133.261 92.4561 133.261 93.0487 132.911 93.3987Z" fill="#3B8EF3"/>
<path opacity="0.3" d="M125.72 90.3188C125.79 90.1508 125.958 90.0388 126.14 90.0388H126.373L128.595 87.7895L127.111 86.3055C126.761 85.9555 126.173 85.9555 125.823 86.3055L121.954 90.1741C121.604 90.5241 121.604 91.1121 121.954 91.4621L123.475 92.9835L125.748 90.6781C125.692 90.5615 125.669 90.4401 125.72 90.3188Z" fill="#3B8EF3"/>
<path d="M135.655 47.7586V48.7339H125.883V35.0559H135.655V36.0313H137.611V34.0759C137.611 32.4659 136.29 31.1453 134.68 31.1453H126.863C125.253 31.1453 123.933 32.4659 123.933 34.0759V49.7093C123.933 51.3193 125.253 52.6399 126.863 52.6399H134.68C136.29 52.6399 137.611 51.3193 137.611 49.7093V47.7539H135.655V47.7586ZM126.859 33.1053H134.675C135.203 33.1053 135.651 33.5533 135.651 34.0806H125.879C125.883 33.5486 126.331 33.1053 126.859 33.1053ZM134.675 50.6893H126.859C126.331 50.6893 125.883 50.2413 125.883 49.7139H135.655C135.655 50.2459 135.207 50.6893 134.675 50.6893Z" fill="#3B8EF3"/>
<path d="M135.655 47.7586V48.7339H125.883V35.0559H135.655V36.0313H137.611V34.0759C137.611 32.4659 136.29 31.1453 134.68 31.1453H126.863C125.253 31.1453 123.933 32.4659 123.933 34.0759V49.7093C123.933 51.3193 125.253 52.6399 126.863 52.6399H134.68C136.29 52.6399 137.611 51.3193 137.611 49.7093V47.7539H135.655V47.7586ZM126.859 33.1053H134.675C135.203 33.1053 135.651 33.5533 135.651 34.0806H125.879C125.883 33.5486 126.331 33.1053 126.859 33.1053ZM134.675 50.6893H126.859C126.331 50.6893 125.883 50.2413 125.883 49.7139H135.655C135.655 50.2459 135.207 50.6893 134.675 50.6893Z" fill="#3B8EF3"/>
<path d="M143.472 37.0112C144.009 37.0112 144.447 37.4499 144.447 37.9866V45.8032C144.447 46.3399 144.009 46.7786 143.472 46.7786H131.745C131.208 46.7786 130.769 46.3399 130.769 45.8032V37.9912C130.769 37.4546 131.208 37.0159 131.745 37.0159H143.472V37.0112ZM143.472 36.0359H131.745C130.671 36.0359 129.789 36.9132 129.789 37.9912V45.8079C129.789 46.8812 130.667 47.7632 131.745 47.7632H143.472C144.545 47.7632 145.427 46.8859 145.427 45.8079V37.9912C145.423 36.9132 144.545 36.0359 143.472 36.0359Z" fill="#3B8EF3"/>
<path d="M134.185 45.8079H132.23C131.959 45.8079 131.74 45.5885 131.74 45.3179C131.74 45.0472 131.959 44.8279 132.23 44.8279H134.185C134.456 44.8279 134.675 45.0472 134.675 45.3179C134.675 45.5839 134.456 45.8079 134.185 45.8079Z" fill="#3B8EF3"/>
<path d="M138.096 45.8079H136.141C135.87 45.8079 135.651 45.5885 135.651 45.3179C135.651 45.0472 135.87 44.8279 136.141 44.8279H138.096C138.367 44.8279 138.586 45.0472 138.586 45.3179C138.586 45.5839 138.367 45.8079 138.096 45.8079Z" fill="#3B8EF3"/>
<path d="M142.982 45.8079H140.051C139.781 45.8079 139.561 45.5885 139.561 45.3179C139.561 45.0472 139.781 44.8279 140.051 44.8279H142.982C143.253 44.8279 143.472 45.0472 143.472 45.3179C143.472 45.5839 143.248 45.8079 142.982 45.8079Z" fill="#3B8EF3"/>
<path d="M136.369 42.56L135.679 41.258H135.585H134.68V42.56H133.7V38.0054H135.59C136.159 38.0054 136.598 38.1454 136.906 38.4207C137.219 38.696 137.373 39.0834 137.373 39.5874C137.373 39.9374 137.303 40.2407 137.163 40.488C137.023 40.7354 136.822 40.9267 136.556 41.0574L137.48 42.56H136.369ZM134.68 40.3994H135.585C135.861 40.3994 136.071 40.334 136.215 40.1987C136.36 40.068 136.435 39.872 136.435 39.6154C136.435 39.3634 136.36 39.172 136.215 39.046C136.071 38.92 135.861 38.8547 135.585 38.8547H134.68V40.3994Z" fill="#3B8EF3"/>
<path d="M140.765 39.2513C141.003 39.4007 141.185 39.6107 141.316 39.886C141.447 40.1613 141.512 40.474 141.512 40.8287C141.512 41.1787 141.447 41.4867 141.321 41.7573C141.19 42.0233 141.013 42.2333 140.779 42.378C140.546 42.5273 140.275 42.5973 139.963 42.5973C139.729 42.5973 139.524 42.5507 139.347 42.4573C139.165 42.364 139.015 42.2287 138.889 42.0513V43.82H137.933V39.06H138.889V39.5733C139.011 39.396 139.16 39.2607 139.337 39.1673C139.519 39.074 139.72 39.0273 139.944 39.0273C140.257 39.0273 140.527 39.102 140.765 39.2513ZM140.317 41.496C140.471 41.314 140.546 41.0807 140.546 40.796C140.546 40.516 140.471 40.2827 140.317 40.1053C140.163 39.9233 139.967 39.8347 139.72 39.8347C139.477 39.8347 139.277 39.9233 139.123 40.1053C138.969 40.2873 138.889 40.516 138.889 40.796C138.889 41.0853 138.969 41.3187 139.123 41.5007C139.277 41.678 139.477 41.7667 139.72 41.7667C139.967 41.7667 140.163 41.6733 140.317 41.496Z" fill="#3B8EF3"/>
<g opacity="0.3">
<path opacity="0.3" d="M125.883 34.0806H128.814V33.1052H126.859C126.331 33.1052 125.883 33.5486 125.883 34.0806Z" fill="#3B8EF3"/>
<path opacity="0.3" d="M128.814 35.0559H125.883V48.7339H128.814V35.0559Z" fill="#3B8EF3"/>
<path opacity="0.3" d="M126.859 50.6892H128.814V49.7139H125.883C125.883 50.2459 126.331 50.6892 126.859 50.6892Z" fill="#3B8EF3"/>
</g>
<path opacity="0.3" d="M132.235 45.8079C131.964 45.8079 131.745 45.5886 131.745 45.3179C131.745 45.0472 131.964 44.8279 132.235 44.8279H132.725V37.0112H131.749C131.213 37.0112 130.774 37.4499 130.774 37.9866V45.8032C130.774 46.3399 131.213 46.7786 131.749 46.7786H132.725V45.8032H132.235V45.8079Z" fill="#3B8EF3"/>
<path d="M133.84 122.225C133.602 120.573 132.953 118.421 130.979 118.202C129.276 118.015 128.114 119.602 127.825 121.095C127.405 123.261 127.993 125.58 128.422 127.699C128.949 130.293 129.313 132.785 128.604 135.385C127.745 138.544 125.837 142.123 126.355 145.423C125.566 142.697 125.981 139.552 125.935 136.766C125.902 134.75 125.715 132.729 125.323 130.746C125.034 129.285 124.665 127.647 123.587 126.541C121.553 124.451 118.314 126.019 118.207 128.786C118.137 130.517 119.117 132.015 120.036 133.397C121.179 135.114 122.173 136.887 122.78 138.871C123.228 140.327 123.517 141.825 123.886 143.299C123.415 142.343 122.906 141.381 122.173 140.621C120.923 139.323 118.188 138.446 117.661 140.826C117.446 141.801 117.451 142.875 118.109 143.687C118.841 144.587 120.059 144.83 121.03 145.385C123.354 146.715 124.945 149.301 127.885 149.273C127.988 149.273 128.063 149.235 128.114 149.175C128.273 149.072 128.361 148.843 128.189 148.666C128.137 148.615 128.189 148.666 128.259 148.461C128.259 148.456 128.259 148.465 128.259 148.461C128.408 148.358 128.282 148.157 128.133 147.971C128.086 147.915 128.175 148.031 128.133 147.971C128.086 145.721 128.59 143.463 129.775 141.493C130.975 139.505 132.085 137.555 132.818 135.333C134.209 131.138 134.47 126.583 133.84 122.225Z" fill="#61D093"/>
<path d="M33.0865 38.9619H30.5665V36.4419C30.5665 35.8119 30.0485 35.2939 29.4185 35.2939C28.7885 35.2939 28.2705 35.8119 28.2705 36.4419V38.9619H25.7505C25.1205 38.9619 24.6025 39.4799 24.6025 40.1099C24.6025 40.7399 25.1205 41.258 25.7505 41.258H28.2705V43.7779C28.2705 44.4079 28.7885 44.9259 29.4185 44.9259C30.0485 44.9259 30.5665 44.4079 30.5665 43.7779V41.258H33.0865C33.7165 41.258 34.2345 40.7399 34.2345 40.1099C34.2299 39.4799 33.7165 38.9619 33.0865 38.9619Z" fill="#FDCB24"/>
<path d="M23.9912 69.1368H21.4665V66.6168C21.4665 65.9868 20.9485 65.4688 20.3185 65.4688C19.6885 65.4688 19.1705 65.9868 19.1705 66.6168V69.1368H16.6505C16.0205 69.1368 15.5025 69.6548 15.5025 70.2848C15.5025 70.9148 16.0205 71.4328 16.6505 71.4328H19.1705V73.9528C19.1705 74.5828 19.6885 75.1008 20.3185 75.1008C20.9485 75.1008 21.4665 74.5828 21.4665 73.9528V71.4328H23.9865C24.6165 71.4328 25.1345 70.9148 25.1345 70.2848C25.1345 69.6548 24.6212 69.1368 23.9912 69.1368Z" fill="#FDCB24"/>
<path d="M56.5319 62.6547H54.8099V60.9327C54.8099 60.5034 54.4599 60.1487 54.0259 60.1487C53.5965 60.1487 53.2419 60.4987 53.2419 60.9327V62.6547H51.5199C51.0905 62.6547 50.7359 63.0047 50.7359 63.4387C50.7359 63.868 51.0859 64.2227 51.5199 64.2227H53.2419V65.9447C53.2419 66.374 53.5919 66.7287 54.0259 66.7287C54.4552 66.7287 54.8099 66.3787 54.8099 65.9447V64.2227H56.5319C56.9612 64.2227 57.3159 63.8727 57.3159 63.4387C57.3159 63.0047 56.9612 62.6547 56.5319 62.6547Z" fill="#FDCB24"/>
</svg>
