<svg width="40" height="40" viewBox="0 0 40 40" fill="none" xmlns="http://www.w3.org/2000/svg">
<path d="M12.3334 24.1663C12.5001 23.9997 12.3334 23.833 12.1667 23.833C11.3334 23.333 11.0001 22.333 10.8334 21.333C10.6667 20.6663 10.3334 20.1663 9.8334 19.833C9.33339 19.6663 9.50006 19.4997 9.50006 19.1663C9.83339 17.9997 9.83339 16.833 9.33339 15.833C9.33339 15.6663 9.16673 15.4997 9.16673 15.333C9.00006 14.833 9.16673 14.333 8.8334 13.9997C8.33339 13.833 8.16673 14.333 7.66673 14.6663C7.33339 14.833 7.16673 14.833 6.83339 14.6663C6.66673 14.4997 6.83339 14.1663 6.83339 13.9997C7.00006 13.1663 6.50006 12.4997 6.16673 11.9997C6.00006 11.6663 5.66673 11.4997 5.50006 11.333C5.50006 11.1663 5.50006 10.833 5.50006 10.6663C5.83339 10.6663 5.83339 10.333 6.00006 9.99967C6.16673 9.49967 6.16673 8.99967 6.83339 8.66634C7.16673 8.49967 7.33339 7.83301 7.50006 7.16634C7.50006 6.83301 7.66673 6.66634 8.00006 6.66634C8.3334 6.49967 8.8334 6.49967 8.8334 5.83301C8.8334 5.66634 9.00006 5.66634 9.16673 5.83301C9.66673 6.16634 9.83339 7.16634 9.33339 7.66634C9.16673 7.99967 9.00006 8.33301 9.00006 8.66634C9.00006 8.83301 9.00006 8.99967 9.16673 8.99967C10.0001 8.83301 10.0001 9.49967 10.1667 9.99967C10.3334 10.333 10.5001 10.4997 10.8334 10.4997C11.1667 10.4997 11.5001 10.6663 11.8334 10.9997C11.5001 9.99967 12.0001 9.83301 12.6667 9.83301C13.0001 9.83301 13.3334 9.83301 13.6667 9.49967C14.1667 9.16634 14.6667 9.49967 14.8334 9.83301C15.0001 10.4997 15.3334 10.4997 15.6667 10.6663C15.3334 10.9997 14.8334 11.333 14.5001 11.833C14.3334 12.1663 14.1667 12.4997 14.5001 12.833C15.0001 13.333 15.3334 13.9997 16.0001 14.4997C17.1667 15.4997 17.0001 17.4997 15.6667 18.333C15.1667 18.6663 14.8334 18.9997 14.5001 19.333C14.3334 19.4997 14.1667 19.6663 14.0001 19.4997C13.8334 19.333 13.8334 19.1663 13.8334 18.9997C13.8334 18.833 13.8334 18.6663 13.6667 18.4997C13.0001 18.333 12.5001 17.833 12.3334 17.1663C12.1667 16.9997 12.0001 16.833 11.6667 16.833C11.5001 16.833 11.5001 16.833 11.3334 16.833C10.8334 16.4997 10.8334 16.4997 10.6667 17.1663C10.6667 17.4997 10.5001 17.6663 10.3334 17.833C10.1667 18.333 9.66673 18.833 10.5001 19.1663C10.5001 20.333 11.6667 20.6663 12.3334 21.333C12.6667 21.6663 12.8334 21.833 12.8334 22.333C12.8334 22.833 13.0001 23.333 13.1667 23.6663C13.3334 23.833 13.5001 24.1663 13.3334 24.333C13.1667 24.4997 13.0001 24.333 12.6667 24.333C12.5001 24.1663 12.5001 23.833 12.3334 24.1663C12.1667 24.1663 12.3334 24.1663 12.3334 24.1663Z" fill="white"/>
<path d="M23 24.667C22.3334 24.667 22.1667 25.0003 22.1667 25.5003C22.1667 25.667 22.1667 25.8337 22 25.8337C21.5 26.0003 21.5 26.5003 21.5 26.8337C21.3334 27.667 21 27.8337 20.1667 27.5003C19.8334 27.3337 19.5 27.167 19 27.3337C18.5 27.5003 18.1667 27.0003 17.8334 27.167C17.1667 27.3337 17.5 26.667 17.3334 26.3337C17 26.0003 16.6667 25.5003 16.6667 25.0003C16.6667 24.167 16.8334 24.0003 17.6667 24.0003C17.8334 24.0003 18 24.0003 18 24.0003C18.3334 23.0003 19.6667 23.3337 20.1667 22.3337C20.5 21.667 21.5 21.5003 21.8334 20.667C21.8334 20.5003 22.1667 20.5003 22.1667 20.667C22.5 21.167 22.8334 21.5003 23.3334 21.667C23.5 21.667 23.3334 21.8337 23.3334 21.8337H23.1667C21.8334 23.0003 21.8334 23.3337 23 24.667Z" fill="white"/>
<path d="M14.3336 29.167C13.3336 29.167 12.8336 28.5003 12.3336 28.0003C11.3336 27.0003 10.5002 25.8337 9.83356 24.5003C9.50022 23.8337 8.83356 23.3337 8.33356 22.8337C8.00022 22.5003 7.66689 22.167 7.33356 21.667C8.16689 21.667 8.83356 21.667 9.33356 22.3337C9.66689 22.8337 10.1669 23.3337 10.6669 23.667C11.1669 24.0003 11.6669 24.0003 12.1669 24.3337C12.0002 24.5003 12.3336 24.667 12.3336 24.8337C12.6669 25.0003 13.3336 25.0003 12.8336 25.5003C13.5002 25.667 13.3336 26.5003 14.0002 26.667C14.3336 26.8337 14.6669 27.0003 14.5002 27.3337C14.1669 28.0003 14.3336 28.5003 14.3336 29.167Z" fill="white"/>
<path d="M34.5001 30.5002C33.8335 29.6668 33.1668 30.0002 32.3335 30.0002C32.1668 29.6668 32.3335 29.6668 32.5001 29.5002C33.0001 28.8335 32.8335 28.3335 32.1668 27.8335C31.5001 27.3335 30.5001 27.5002 29.8335 26.8335C29.6668 26.8335 29.6668 26.8335 29.5001 26.8335C28.6668 27.3335 29.1668 26.1668 28.6668 26.1668C28.6668 25.6668 28.5001 25.5002 28.1668 25.3335C28.0001 25.1668 27.6668 25.1668 27.6668 25.0002C28.3335 25.0002 28.8335 24.5002 29.5001 24.6668C29.8335 24.8335 30.0001 25.0002 30.0001 25.3335C30.0001 25.5002 30.0001 25.8335 30.1668 26.0002C30.3335 26.5002 30.8335 26.5002 31.1668 26.1668C32.0001 25.3335 32.3335 25.3335 33.3335 25.6668C34.3335 26.0002 34.5001 26.5002 34.5001 27.5002C34.3335 28.5002 34.5001 29.3335 34.5001 30.5002Z" fill="white"/>
<path d="M14.3334 29.1669C15.0001 29.0003 15.6668 29.1669 16.1668 29.5003C16.6668 29.6669 17.1668 29.8336 17.6668 29.5003C17.8334 29.3336 18.0001 29.5003 18.1668 29.5003C19.1668 29.8336 19.8334 30.3336 21.0001 30.6669C20.5001 31.1669 20.0001 30.8336 19.6668 30.8336C18.5001 31.0003 17.3334 30.3336 16.0001 30.3336C15.5001 30.3336 15.0001 30.0003 14.5001 29.8336C13.8334 29.5003 14.5001 29.3336 14.3334 29.1669Z" fill="white"/>
<path d="M23.6667 25C23.8334 25.6667 24.1667 26.1667 24.8334 25.6667C25.1667 25.5 25.5 25.5 25.8334 25.5C25.3334 25.8333 25 26.1667 24.6667 26.3333C25.1667 26.8333 25.1667 27.5 25.5 28C25.6667 28.1667 25.6667 28.5 25.5 28.6667C25.1667 28.8333 25.1667 28.5 25.1667 28.3333C24.8334 28.3333 24.6667 28 24.5 27.6667C24.3334 27.3333 24.3334 27.1667 24.1667 26.8333C23.8334 26.8333 23.8334 27 23.8334 27.1667C23.8334 27.5 23.8334 27.6667 23.8334 28C23.8334 28.3333 24 28.6667 23.5 28.6667C23 28.6667 23.1667 28.3333 23.1667 28C23.1667 27.6667 23.3334 27.3333 22.8334 27.1667C22.6667 27.1667 22.5 26.8333 22.6667 26.6667C23.3334 26.3333 23.3334 25.6667 23.6667 25Z" fill="white"/>
<path d="M24.8334 16.8331C24.5001 16.6664 24.3334 16.4997 24.0001 16.3331C23.0001 15.9997 23.0001 15.9997 23.0001 16.8331C22.6668 16.3331 22.8334 15.4997 22.3334 15.1664C22.1668 14.9997 22.5001 12.9997 22.6668 12.8331C23.0001 12.4997 23.3334 12.8331 23.5001 12.9997C23.8334 13.1664 23.8334 13.6664 23.8334 13.9997C23.8334 14.1664 23.6668 14.4997 23.5001 14.6664C23.1668 14.6664 23.3334 14.9997 23.3334 15.3331C23.3334 15.6664 23.6668 15.6664 24.0001 15.6664C24.6668 15.6664 25.1668 15.9997 24.8334 16.8331Z" fill="white"/>
<path d="M23.6666 20.5004C23.8332 19.8337 24.1666 19.5004 24.8332 19.6671C25.3332 19.8337 25.6666 19.3337 25.8332 19.1671C26.3332 18.6671 26.3332 19.0004 26.4999 19.3337C26.6666 19.6671 26.6666 20.1671 26.6666 20.5004C26.6666 20.8337 26.6666 20.8337 26.3332 20.6671C25.9999 20.5004 25.9999 20.6671 25.9999 20.8337C25.9999 21.0004 26.3332 21.3337 25.9999 21.5004C25.6666 21.5004 25.1666 21.3337 25.1666 21.0004C24.9999 19.3337 24.1666 20.3337 23.6666 20.5004Z" fill="white"/>
<path d="M23.6666 17.5002C24.3333 17.1668 24.3333 18.1668 24.8333 18.0002C25 18.0002 24.6666 18.5002 24.5 18.8335C24.5 19.0002 24.3333 19.1668 24.1666 19.0002C24 18.8335 23.8333 18.6668 23.9999 18.3335C23.9999 18.3335 24.1666 18.0002 23.9999 18.0002C23.1666 18.3335 23.8333 17.6668 23.6666 17.5002Z" fill="white"/>
<path d="M23.6666 24.8337C24.8332 24.0003 26.1666 25.0003 27.1666 24.167C26.8332 24.667 26.4999 25.167 25.8332 25.0003C24.9999 24.8337 24.3332 25.167 23.6666 24.8337Z" fill="white"/>
<path d="M21.6667 31.0004C22 30.5004 22.5 30.5004 23.1667 30.6671C22.6667 31.0004 22.1667 31.0004 21.6667 31.0004Z" fill="white"/>
<path d="M25.5001 17.8333C25.5001 17.5 25.5001 17.1667 25.1668 17C25.8335 16.8333 26.0001 17 26.0001 17.5C26.0001 17.8333 26.0001 17.8333 25.6668 17.8333C25.6668 17.6667 25.6668 17.8333 25.5001 17.8333Z" fill="white"/>
<path d="M25.0002 30.8336C24.5002 31.0002 24.1668 31.0002 23.5002 30.8336C24.1668 30.3335 24.6668 30.8336 25.0002 30.8336Z" fill="white"/>
<path fill-rule="evenodd" clip-rule="evenodd" d="M20 38.3337C30.1252 38.3337 38.3334 30.1255 38.3334 20.0003C38.3334 9.8751 30.1252 1.66699 20 1.66699C9.8748 1.66699 1.66669 9.8751 1.66669 20.0003C1.66669 30.1255 9.8748 38.3337 20 38.3337ZM20 35.0003C28.2843 35.0003 35 28.2846 35 20.0003C35 11.7161 28.2843 5.00033 20 5.00033C11.7157 5.00033 5.00002 11.7161 5.00002 20.0003C5.00002 28.2846 11.7157 35.0003 20 35.0003Z" fill="white"/>
</svg>
