<svg width="24" height="18" viewBox="0 0 24 18" fill="none" xmlns="http://www.w3.org/2000/svg">
<path d="M5.29001 7.8055C5.08402 7.8055 4.84861 7.8055 4.61319 7.83493C5.26058 6.30474 6.64364 4.80397 9.02722 3.00893L6.43765 0.213381C2.28847 3.24435 0.0226043 7.8055 0.0226043 12.3667C0.0226043 15.8979 2.14134 17.8106 5.14287 17.8106C8.14441 17.8106 10.2926 15.839 10.2926 12.8375C10.2926 9.92424 8.23269 7.8055 5.29001 7.8055ZM19.0029 7.8055C18.7675 7.8055 18.5321 7.8055 18.2967 7.83493C18.9441 6.30474 20.3271 4.80397 22.7107 3.00893L20.1211 0.213381C15.9719 3.24435 13.7061 7.8055 13.7061 12.3667C13.7061 15.8979 15.8248 17.8106 18.8264 17.8106C21.8279 17.8106 23.976 15.839 23.976 12.8375C23.976 9.92424 21.9162 7.8055 19.0029 7.8055Z" fill="#3B8EF3"/>
</svg>
