<svg width="40" height="40" viewBox="0 0 40 40" fill="none" xmlns="http://www.w3.org/2000/svg">
<path fill-rule="evenodd" clip-rule="evenodd" d="M20 1.66699C9.87502 1.66699 1.66669 9.87533 1.66669 20.0003C1.66669 30.1253 9.87502 38.3337 20 38.3337C30.125 38.3337 38.3334 30.1253 38.3334 20.0003C38.3334 9.87533 30.125 1.66699 20 1.66699ZM20 5.00033C28.2717 5.00033 35 11.7303 35 20.0003C35 28.2703 28.2717 35.0003 20 35.0003C11.7284 35.0003 5.00002 28.2703 5.00002 20.0003C5.00002 11.7303 11.7284 5.00033 20 5.00033Z" fill="white"/>
<path fill-rule="evenodd" clip-rule="evenodd" d="M19.3834 24.7563C20.6684 24.7563 21.6184 25.7047 21.6184 26.9363V26.9863C21.6184 28.218 20.6684 29.1663 19.3834 29.1663C18.1 29.1663 17.15 28.218 17.15 26.9863V26.9363C17.15 25.7047 18.1 24.7563 19.3834 24.7563ZM19.3834 23.063C18.64 23.063 18.1 22.4997 17.9967 21.808L17.7417 20.0647C17.6134 19.218 18.1 18.628 18.9217 18.5263C21.155 18.243 22.1834 17.5513 22.1834 16.2947V16.243C22.1834 15.0897 21.31 14.423 19.82 14.423C18.7167 14.423 17.765 14.7563 16.8417 15.448C16.5334 15.6797 16.1234 15.858 15.6867 15.858C14.71 15.858 13.8884 15.038 13.8884 14.063C13.8884 13.5763 14.095 13.063 14.5567 12.6797C15.9184 11.5513 17.6384 10.833 19.8984 10.833C23.595 10.833 26.1117 12.7313 26.1117 16.1413V16.1913C26.1117 19.448 23.8517 20.7813 21.0534 21.3463L20.975 21.808C20.8734 22.4747 20.3334 23.063 19.59 23.063H19.3834Z" fill="white"/>
</svg>
