<svg width="161" height="160" viewBox="0 0 161 160" fill="none" xmlns="http://www.w3.org/2000/svg">
<g clip-path="url(#clip0)">
<path d="M54.4833 2.96851H107.717C134.31 2.96851 155.863 24.3501 155.863 50.7182V104.108C155.863 130.482 134.304 151.857 107.717 151.857H54.4833C27.8894 151.857 6.33655 130.476 6.33655 104.108V50.7247C6.33003 24.3501 27.8894 2.96851 54.4833 2.96851Z" fill="#E0E3ED"/>
<path d="M21.2377 128.859C14.9381 122.928 9.0429 115.445 4.68667 107.994C2.26075 103.855 0.115242 99.2439 0.55869 94.4774C0.695637 93.0351 1.24343 91.4118 2.60638 90.9008C3.87803 90.4287 5.28663 91.1401 6.30395 92.0391C8.09731 93.6172 9.26462 95.7709 10.3015 97.9116C14.6773 106.96 18.6879 119.145 21.2377 128.859Z" fill="#89DCAE"/>
<path d="M6.35611 101.585C8.82116 104.146 10.7645 107.134 12.4405 110.245C14.0382 113.201 15.6098 116.202 17.0119 119.254C17.8075 120.994 18.5314 122.779 19.0139 124.629C19.0922 124.933 19.5683 124.804 19.49 124.5C18.6162 121.169 17.038 118.052 15.4664 115.005C13.8686 111.914 12.3427 108.777 10.4058 105.88C9.30374 104.237 8.08426 102.672 6.70826 101.249C6.48654 101.016 6.13439 101.359 6.35611 101.585Z" fill="white"/>
<path d="M19.5487 125.263C14.1164 115.038 10.7189 103.745 9.60371 92.2396C9.14722 87.5183 9.21244 82.3184 12.2057 78.619C13.2948 77.2738 14.8142 76.1743 16.5424 75.9738C19.3139 75.6504 21.8768 77.7071 23.2267 80.1324C25.0918 83.4955 25.2548 87.4989 25.2483 91.3342C25.2287 103.933 23.8853 116.532 21.2442 128.859" fill="#61D093"/>
<path d="M21.2377 128.859C20.8073 117.547 21.7986 103.409 25.8939 92.8412C26.6048 91.0044 27.4134 89.1482 28.7829 87.7318C29.9111 86.5612 31.5544 85.7204 33.1521 86.0373C34.5542 86.3154 35.6694 87.4408 36.2824 88.7213C37.7236 91.7029 36.8171 95.2341 35.7411 98.3644C32.3696 108.202 27.4004 120.451 21.2377 128.859Z" fill="#89DCAE"/>
<path d="M20.9508 124.946C19.5357 115.309 18.1271 105.634 17.7879 95.8874C17.6901 93.1775 17.7162 90.4612 18.0292 87.7707C18.0684 87.4602 17.5727 87.4602 17.5401 87.7707C16.9793 92.5954 17.2989 97.4978 17.6771 102.329C18.0618 107.186 18.6422 112.024 19.3009 116.849C19.6726 119.597 20.0769 122.34 20.4747 125.082C20.5204 125.386 20.9964 125.256 20.9508 124.946Z" fill="white"/>
<path d="M31.5022 93.5524C29.5589 97.4782 27.5895 101.423 26.1874 105.582C24.8831 109.45 23.9962 113.447 23.2919 117.463C22.9137 119.623 22.6007 121.79 22.3398 123.963C22.3007 124.273 22.7963 124.273 22.8289 123.963C23.7941 115.969 25.3983 107.994 28.672 100.596C29.6893 98.2996 30.8045 96.0489 31.9196 93.7982C32.0631 93.5201 31.6392 93.2743 31.5022 93.5524Z" fill="white"/>
<path d="M46.3121 152.155C40.1821 151.308 24.4397 143.786 18.1075 136.193L60.8024 82.9458L93.1546 109.094L55.9571 153.047C55.9506 153.047 52.4356 153.002 46.3121 152.155Z" fill="#92C1F8"/>
<path d="M44.0231 94.8202L76.8774 129.758C79.0099 132.028 82.6423 132.002 84.7486 129.706L159.104 48.6421C161.25 46.3074 160.872 42.6403 158.296 40.7776L117.733 11.4798C116.103 10.3027 113.834 10.5484 112.497 12.0489L43.9449 88.9995C42.458 90.6681 42.4906 93.1904 44.0231 94.8202Z" fill="#2D517E"/>
<path d="M112.503 12.0489C113.84 10.5484 116.11 10.3027 117.74 11.4798L155.583 38.818C157.122 40.797 157.096 43.6751 155.309 45.6283L80.9532 126.692C79.499 128.277 77.3209 128.775 75.4101 128.193L44.0296 94.8202C42.4971 93.1904 42.4645 90.6681 43.9514 88.9995L112.503 12.0489Z" fill="#3576C4"/>
<path d="M150.483 46.0551L82.2705 121.816L48.0663 86.3866L110.775 17.2229L150.483 46.0551Z" fill="#92C1F8"/>
<path d="M85.7073 44.8717L85.8833 44.7876L85.7007 44.8781L85.7073 44.8717Z" fill="#3576C4"/>
<path d="M122.944 76.6467L82.2705 121.816L48.0663 86.3868L85.179 45.4539C84.3117 48.0473 79.3751 63.647 79.8968 81.9565C80.4641 102.025 92.2938 108.389 95.4305 103.442C98.5673 98.494 94.7197 88.8833 100.419 86.0569C106.119 83.2306 114.244 81.3939 117.662 78.7098C118.796 77.8173 120.785 77.1447 122.944 76.6467Z" fill="#3576C4"/>
<path d="M76.5122 60.497C76.7992 60.497 77.0731 60.6069 77.2817 60.801L107.691 89.1934C107.912 89.4003 108.036 89.6784 108.043 89.9759C108.049 90.2735 107.938 90.558 107.73 90.7715L104.665 93.9276C104.449 94.1475 104.163 94.2704 103.856 94.2704C103.569 94.2704 103.295 94.1604 103.087 93.9664L72.782 65.3476C72.5603 65.1407 72.4364 64.8561 72.4364 64.5586C72.4299 64.2546 72.5473 63.97 72.7625 63.7566L75.7231 60.8204C75.9318 60.6134 76.2122 60.497 76.5122 60.497ZM76.5122 59.8826C76.0688 59.8826 75.6188 60.0507 75.2797 60.387L72.319 63.3233C71.6278 64.0089 71.6408 65.1277 72.3516 65.7939L102.656 94.4127C102.995 94.7296 103.426 94.8913 103.856 94.8913C104.313 94.8913 104.769 94.7166 105.108 94.3609L108.173 91.2048C108.845 90.5128 108.819 89.4068 108.114 88.7471L77.7056 60.3547C77.3665 60.0378 76.9426 59.8826 76.5122 59.8826Z" fill="white"/>
<path d="M68.5302 69.073C68.8171 69.073 69.091 69.183 69.2997 69.377L99.7085 97.7694C99.9302 97.9764 100.054 98.2545 100.061 98.552C100.067 98.8495 99.9563 99.1341 99.7476 99.3475L96.6826 102.504C96.4674 102.724 96.1805 102.846 95.874 102.846C95.587 102.846 95.3131 102.736 95.1045 102.542L64.8 73.9237C64.5783 73.7167 64.4544 73.4321 64.4544 73.1346C64.4478 72.8307 64.5652 72.5461 64.7804 72.3327L67.7411 69.3964C67.9498 69.1895 68.2302 69.073 68.5302 69.073ZM68.5302 68.4521C68.0867 68.4521 67.6368 68.6203 67.2976 68.9566L64.337 71.8929C63.6457 72.5784 63.6588 73.6973 64.3696 74.3635L94.674 102.982C95.0132 103.299 95.4436 103.461 95.874 103.461C96.3304 103.461 96.7869 103.286 97.126 102.93L100.191 99.7744C100.863 99.0823 100.837 97.9764 100.132 97.3167L69.7236 68.9243C69.391 68.6138 68.9606 68.4521 68.5302 68.4521Z" fill="white"/>
<path d="M61.5915 77.0734C61.9176 77.0734 62.2306 77.1963 62.4654 77.4226L92.2677 106.158C92.7633 106.636 92.7764 107.425 92.2938 107.917L88.2962 111.998C88.0549 112.244 87.7354 112.373 87.3963 112.373C87.0572 112.373 86.7376 112.237 86.4963 111.998L57.4766 82.4414C57.0005 81.9564 57.0005 81.1932 57.4766 80.7017L60.6851 77.442C60.9329 77.2092 61.2524 77.0734 61.5915 77.0734ZM61.5915 76.459C61.1024 76.459 60.6133 76.6465 60.2481 77.0217L57.0396 80.2813C56.3288 81.0056 56.3288 82.1569 57.0396 82.8812L86.0594 112.438C86.4246 112.813 86.9137 113 87.4028 113C87.8919 113 88.381 112.813 88.7462 112.438L92.7438 108.357C93.4676 107.619 93.4481 106.442 92.7046 105.725L62.9023 76.9893C62.5371 76.6336 62.0676 76.459 61.5915 76.459Z" fill="white"/>
<path d="M124.359 90.0148C129.061 87.3307 129.635 80.6886 129.635 80.6886C129.635 80.6886 100.987 79.8413 97.1391 79.9836C93.2915 80.1259 85.166 82.9522 90.0113 86.7681C94.8567 90.5839 110.103 91.5734 114.668 92.2784C119.233 92.9834 124.359 90.0148 124.359 90.0148Z" fill="#E9F3FE"/>
<path d="M118.066 93.4492C118.066 93.4492 91.2764 92.3174 86.855 94.8656C82.4401 97.4073 81.1554 102.497 87.4224 103.629C93.6958 104.761 109.086 106.74 113.358 104.192C117.636 101.65 119.775 95.8551 118.066 93.4492Z" fill="#E9F3FE"/>
<path d="M106.191 106.268C106.191 106.268 87.2398 106.552 83.6726 110.51C80.1055 114.468 79.3947 117.295 81.5336 118C83.6726 118.705 100.348 119.274 105.193 115.031C110.038 110.788 106.615 105.983 106.191 106.268Z" fill="#E9F3FE"/>
<path d="M71.0604 67.5401C61.9371 65.8456 57.3787 64.9984 57.3787 64.9984C57.3787 64.9984 67.0694 72.9146 63.9326 86.4835C60.7959 100.052 54.8093 106.552 54.8093 106.552C54.8093 106.552 35.4281 121.816 30.2958 131.426C28.2742 135.21 26.6113 139.381 25.3331 143.055C16.412 136.387 10.3211 126.395 8.69727 115.16L22.0333 105.42C22.0333 105.42 39.1322 57.6513 44.5513 49.4505C49.9705 41.2496 61.9371 44.0824 73.3363 48.3186C84.7356 52.5613 89.5809 54.8185 88.4397 60.4711C87.305 66.1237 80.1772 69.2346 71.0604 67.5401Z" fill="#92C1F8"/>
<path d="M116.116 25.1326L141.503 43.9467C142.677 44.8133 144.321 44.671 145.325 43.6168L146.662 42.2069L116.638 19.9521L115.751 20.8899C114.564 22.1252 114.74 24.1108 116.116 25.1326Z" fill="#3576C4"/>
<path d="M122.683 23.8457L142.449 38.0614C142.749 38.2748 143.16 38.2101 143.375 37.9126C143.59 37.6151 143.525 37.2076 143.225 36.9942L123.459 22.7786C123.159 22.5652 122.748 22.6299 122.533 22.9274C122.318 23.2184 122.383 23.6323 122.683 23.8457Z" fill="#2D517E"/>
<path d="M130.104 80.1196C130.104 80.1196 137.512 78.9878 142.645 74.1824C147.777 69.3771 136.371 67.1134 132.667 66.2662C128.963 65.4189 114.707 62.3081 112.145 64.5717C109.582 66.8353 115.562 74.1824 120.407 76.4461C125.252 78.7097 130.104 80.1196 130.104 80.1196Z" fill="#E9F3FE"/>
<path d="M113.788 70.3276C120.766 67.359 132.1 74.0529 137.467 77.6877C133.613 79.5827 130.104 80.1195 130.104 80.1195C130.104 80.1195 125.259 78.7031 120.414 76.4459C117.981 75.3076 115.255 72.8888 113.475 70.4764C113.579 70.4246 113.684 70.3729 113.788 70.3276Z" fill="#92C1F8"/>
<path d="M88.5245 84.5369C96.4935 83.1011 116.67 88.2945 123.883 90.2671C122.513 90.972 118.405 92.8541 114.668 92.272C110.11 91.567 94.8567 90.5775 90.0113 86.7617C89.0136 85.9726 88.5701 85.2289 88.5245 84.5369Z" fill="#92C1F8"/>
<path d="M116.24 101.657C115.444 102.646 114.479 103.532 113.364 104.198C109.086 106.74 93.6959 104.761 87.4289 103.636C83.9791 103.015 82.8183 101.197 83.2031 99.2571C89.5027 97.2651 108.33 100.253 116.24 101.657Z" fill="#92C1F8"/>
<path d="M80.562 117.256C87.3245 116.338 101.743 112.865 107.573 111.422C107.273 112.587 106.562 113.828 105.193 115.031C100.348 119.274 83.6726 118.705 81.5336 118C81.0771 117.845 80.7576 117.592 80.562 117.256Z" fill="#92C1F8"/>
<path d="M73.4798 55.6659C62.648 51.0028 50.6749 45.0656 43.5536 64.5716C36.4258 84.0777 32.5783 105.699 38.8517 110.789C45.1252 115.878 53.3877 117.858 53.3877 117.858C53.3877 117.858 57.8483 139.55 46.4491 152.11L43.221 151.405C24.5832 148.235 10.5167 132.901 7.92776 114.992L22.0333 105.42C22.0333 105.42 39.1322 57.6514 44.5514 49.4506C49.964 41.2562 61.9371 44.0825 73.3363 48.3188C84.7356 52.555 89.5809 54.8186 88.4397 60.4712C88.1788 61.7712 87.5919 62.9289 86.7441 63.9313C84.3834 62.211 79.3685 58.6603 75.5406 56.7653C74.9602 56.3773 74.2754 56.0086 73.4798 55.6659Z" fill="#E9F3FE"/>
<path d="M75.2536 33.4371L77.2622 34.7435C77.3404 34.7953 77.4057 34.8664 77.4383 34.9505L78.4165 37.1301C78.573 37.4793 79.0621 37.5181 79.2773 37.2012L80.5946 35.2092C80.6467 35.1316 80.7185 35.0669 80.8032 35.0346L83.0009 34.0645C83.3531 33.9092 83.3922 33.4242 83.0727 33.2107L81.0641 31.9043C80.9858 31.8526 80.9206 31.7814 80.888 31.6973L79.9098 29.5178C79.7533 29.1685 79.2642 29.1297 79.049 29.4466L77.7317 31.4386C77.6795 31.5163 77.6078 31.5809 77.523 31.6133L75.3254 32.5834C74.9667 32.7451 74.9276 33.2237 75.2536 33.4371Z" fill="#FFC100"/>
<path d="M137.062 85.8368L139.071 87.1432C139.149 87.195 139.214 87.2661 139.247 87.3502L140.225 89.5297C140.382 89.879 140.871 89.9178 141.086 89.6009L142.403 87.6089C142.456 87.5313 142.527 87.4666 142.612 87.4342L144.81 86.4641C145.162 86.3089 145.201 85.8238 144.881 85.6104L142.873 84.304C142.795 84.2522 142.729 84.1811 142.697 84.097L141.719 81.9174C141.562 81.5682 141.073 81.5294 140.858 81.8463L139.541 83.8383C139.488 83.9159 139.417 83.9806 139.332 84.0129L137.134 84.983C136.775 85.1383 136.736 85.6233 137.062 85.8368Z" fill="#FFC100"/>
<path d="M17.6315 69.6229L19.64 70.9293C19.7183 70.9811 19.7835 71.0522 19.8161 71.1363L20.7943 73.3159C20.9508 73.6651 21.4399 73.7039 21.6551 73.387L22.9724 71.395C23.0246 71.3174 23.0963 71.2527 23.1811 71.2204L25.3788 70.2502C25.7309 70.095 25.77 69.61 25.4505 69.3965L23.4419 68.0901C23.3637 68.0384 23.2985 67.9672 23.2659 67.8831L22.2877 65.7036C22.1312 65.3543 21.6421 65.3155 21.4269 65.6324L20.1095 67.6244C20.0574 67.702 19.9856 67.7667 19.9009 67.7991L17.7032 68.7692C17.351 68.9244 17.3119 69.4095 17.6315 69.6229Z" fill="#FFC100"/>
<path d="M133.978 92.104L134.91 92.7119C134.95 92.7378 134.976 92.7701 134.995 92.8089L135.452 93.8179C135.523 93.9796 135.752 93.999 135.849 93.8502L136.462 92.9253C136.489 92.8865 136.521 92.8607 136.56 92.8413L137.578 92.3885C137.741 92.3174 137.76 92.091 137.61 91.994L136.678 91.3861C136.639 91.3602 136.612 91.3279 136.593 91.2891L136.136 90.2801C136.065 90.1184 135.836 90.099 135.739 90.2478L135.126 91.1726C135.1 91.2114 135.067 91.2373 135.028 91.2567L134.01 91.7095C133.841 91.7806 133.821 92.007 133.978 92.104Z" fill="#FFC100"/>
<path d="M75.4688 142.13L76.4405 142.764C76.4796 142.79 76.5057 142.822 76.5253 142.868L77.0013 143.922C77.0796 144.09 77.3143 144.109 77.4187 143.954L78.0578 142.99C78.0839 142.952 78.1165 142.926 78.1621 142.906L79.2251 142.434C79.3946 142.357 79.4142 142.124 79.2577 142.02L78.286 141.386C78.2469 141.361 78.2208 141.328 78.2012 141.283L77.7252 140.229C77.6469 140.061 77.4122 140.041 77.3078 140.196L76.6687 141.16C76.6426 141.199 76.61 141.225 76.5644 141.244L75.5014 141.716C75.3319 141.794 75.3123 142.027 75.4688 142.13Z" fill="#FFC100"/>
</g>
<defs>
<clipPath id="clip0">
<rect width="160" height="160" fill="white" transform="translate(0.5)"/>
</clipPath>
</defs>
</svg>
