<svg width="40" height="40" viewBox="0 0 40 40" fill="none" xmlns="http://www.w3.org/2000/svg">
<path d="M32.65 1.66699H7.35002C4.21669 1.66699 1.66669 4.21699 1.66669 7.35032V24.317C1.66669 27.4503 4.21669 30.0003 7.35002 30.0003H7.93335C8.15002 30.0003 8.33335 30.1837 8.33335 30.4003V36.667C8.33335 37.317 8.71669 37.917 9.31669 38.1837C9.53335 38.2837 9.76669 38.3337 10 38.3337C10.4 38.3337 10.8 38.1837 11.1 37.917L20 30.0003H32.65C35.7834 30.0003 38.3334 27.4503 38.3334 24.317V7.35032C38.3334 4.21699 35.7834 1.66699 32.65 1.66699ZM34.5167 24.317C34.5167 25.3503 33.6833 26.1837 32.65 26.1837H24.3H20.1334C19.5834 26.1837 19.0667 26.3837 18.6667 26.7503L14.9834 30.0003L11.6667 32.9503V30.0003V28.5837C11.6667 27.2503 10.5834 26.1837 9.26669 26.1837H8.33335H7.35002C6.31669 26.1837 5.48335 25.3503 5.48335 24.317V7.35032C5.48335 6.31699 6.31669 5.48366 7.35002 5.48366H32.65C33.6833 5.48366 34.5167 6.31699 34.5167 7.35032V24.317Z" fill="white"/>
<path d="M12.8834 19.9829C12.0667 19.1162 11.6667 17.8162 11.6667 16.1162V15.5495C11.6667 13.7995 12.05 12.4995 12.8334 11.6495C13.6167 10.7995 14.8 10.3662 16.4167 10.3662C16.95 10.3662 17.4167 10.4162 17.85 10.4995C18.2667 10.5995 18.7 10.7329 19.1334 10.9329L18.85 12.6662C18.2167 12.5495 17.65 12.4829 17.15 12.4829C16.2 12.4829 15.55 12.6829 15.1834 13.0829C14.8334 13.4829 14.65 14.0829 14.6334 14.8495V16.8329C14.6167 17.5995 14.8 18.1829 15.1667 18.5829C15.5334 18.9829 16.2 19.1829 17.15 19.1829C17.65 19.1829 18.2167 19.1162 18.85 18.9995L19.1334 20.7329C18.2667 21.1162 17.3667 21.3162 16.4167 21.3162C14.8667 21.2995 13.6834 20.8662 12.8834 19.9829Z" fill="white"/>
<path d="M22.7334 21.1495C22.2167 21.0495 21.6834 20.8828 21.1334 20.6661L21.4167 19.0161C22.2834 19.1828 23.0167 19.2661 23.6167 19.2661C24.25 19.2661 24.7167 19.1828 25.0334 19.0328C25.35 18.8661 25.5 18.6328 25.5 18.2995C25.5 18.1161 25.45 17.9661 25.3334 17.8328C25.2167 17.6995 25.0834 17.5828 24.9167 17.4828C24.7334 17.3828 24.45 17.2161 24.0667 17.0161L23.3334 16.6328C22.5334 16.2161 21.95 15.7661 21.6 15.2995C21.25 14.8328 21.0667 14.2328 21.0667 13.5328C21.0667 12.5661 21.4 11.7995 22.0834 11.2328C22.7667 10.6661 23.6834 10.3828 24.85 10.3828C25.3834 10.3828 25.85 10.4328 26.2834 10.5161C26.7 10.6161 27.1334 10.7495 27.5667 10.9495L27.2834 12.5995C26.65 12.4828 26.0667 12.4161 25.5167 12.4161C25.0167 12.4161 24.6167 12.4995 24.3334 12.6828C24.05 12.8495 23.9 13.0995 23.9 13.4328C23.9 13.6328 23.9834 13.8328 24.1334 14.0328C24.2834 14.2161 24.5 14.3995 24.8 14.5495L25.6 14.9661C26.2834 15.3161 26.8334 15.6495 27.2334 15.9495C27.6334 16.2661 27.9167 16.5995 28.1 16.9495C28.2334 17.2828 28.3334 17.6828 28.3334 18.1661C28.3334 19.1495 27.9834 19.9161 27.3 20.4661C26.6167 21.0161 25.65 21.2995 24.4334 21.2995C23.8167 21.2995 23.25 21.2495 22.7334 21.1495Z" fill="white"/>
</svg>
