<svg width="158" height="150" viewBox="0 0 158 150" fill="none" xmlns="http://www.w3.org/2000/svg">
<path d="M55.2728 12.8916H101.487C124.575 12.8916 143.286 31.6006 143.286 54.6727V101.389C143.286 124.466 124.569 143.17 101.487 143.17H55.2728C32.1854 143.17 13.4743 124.461 13.4743 101.389V54.6727C13.4743 31.5949 32.1854 12.8916 55.2728 12.8916Z" fill="#E0E3ED"/>
<path d="M85.0578 126.741C80.3022 123.691 75.6881 120.318 71.9968 116.046C68.3055 111.773 65.5824 106.499 65.1125 100.873C64.8973 98.2816 65.2766 95.4011 67.1789 93.6242C69.6756 91.2926 73.8934 91.8699 76.5882 93.9694C79.2831 96.0689 80.823 99.2833 82.2723 102.379C74.4652 91.5869 68.181 79.6915 63.6631 67.1566C61.2627 60.4958 59.4736 52.6806 63.1989 46.6593C64.903 43.909 67.9545 41.7642 71.1759 42.0472C75.8239 42.449 78.598 47.2705 80.5682 51.4922C83.0932 56.908 85.6239 62.3294 88.1489 67.7451C85.3182 61.9729 82.9687 55.9629 81.14 49.8058C79.6794 44.8937 78.5358 39.7609 79.1076 34.6621C79.6794 29.5689 82.2157 24.4644 86.66 21.9008C88.4886 20.8482 90.7136 20.254 92.7234 20.8935C94.7445 21.533 96.2165 23.2929 97.2073 25.1604C98.9793 28.488 99.5624 32.3135 99.8229 36.0712C100.7 48.906 98.0452 61.6956 95.4013 74.287C97.1506 62.8727 104.59 52.4769 114.826 47.129C115.828 46.6084 116.96 46.1161 118.047 46.4047C118.919 46.6367 119.593 47.3328 120.131 48.0571C122.967 51.9336 122.995 57.1966 122.078 61.9106C119.253 76.5167 109.017 88.3725 101.55 101.247C103.508 94.9484 108.372 89.6232 114.469 87.0993C116.049 86.4484 117.979 86.0127 119.366 87.0144C120.153 87.5803 120.6 88.514 120.844 89.4534C121.716 92.8036 120.391 96.3066 118.896 99.4361C115.664 106.216 111.542 112.565 106.662 118.275C102.427 123.233 97.1337 127.952 90.6513 128.66C89.5133 128.784 88.047 128.558 87.7526 127.454" fill="#B0E7C9"/>
<path d="M88.1036 44.7354C90.272 53.9088 91.1778 63.3142 91.5232 72.7196C91.8685 82.1363 91.6817 91.5587 91.6817 100.981C91.6817 106.306 91.7496 111.637 91.9987 116.962C92.044 117.953 93.5953 117.958 93.55 116.962C93.0971 107.461 93.2556 97.9535 93.2782 88.4462C93.3009 78.9785 93.199 69.4882 92.2082 60.0658C91.6534 54.7746 90.8211 49.506 89.5926 44.3279C89.3661 43.3545 87.8715 43.762 88.1036 44.7354Z" fill="#D8F3E4"/>
<path d="M93.8897 86.9577C100.14 81.5985 105.45 75.1585 109.521 68.0054C110.682 65.9681 111.729 63.8686 112.686 61.7295C112.952 61.1296 112.063 60.6033 111.791 61.2088C108.468 68.6901 103.865 75.5716 98.1924 81.4797C96.5959 83.1435 94.9144 84.728 93.1593 86.2277C92.6555 86.6634 93.3858 87.3878 93.8897 86.9577Z" fill="#D8F3E4"/>
<path d="M72.6365 66.6585C75.1163 71.4009 77.6016 76.1432 80.0814 80.8855C82.1591 84.8582 84.1236 88.961 86.8694 92.5263C88.3358 94.4277 90.0285 96.1254 92.0214 97.478C92.5705 97.8515 93.0914 96.9573 92.5422 96.5838C88.9812 94.1731 86.5184 90.5739 84.435 86.8841C82.0459 82.6568 79.8832 78.288 77.6356 73.9871C76.2655 71.3669 74.8955 68.7524 73.5254 66.1322C73.2197 65.5493 72.3252 66.07 72.6365 66.6585Z" fill="#D8F3E4"/>
<path d="M110.721 96.5895C109.266 99.0908 107.907 101.688 106.232 104.054C104.612 106.334 102.654 108.349 100.689 110.324C100.219 110.794 100.949 111.529 101.419 111.054C103.395 109.068 105.348 107.042 106.99 104.761C108.728 102.35 110.121 99.6737 111.616 97.1101C111.95 96.5329 111.055 96.0122 110.721 96.5895Z" fill="#D8F3E4"/>
<path d="M73.6273 100.438C75.2125 101.134 76.6392 102.175 78.0772 103.126C79.6115 104.133 81.1457 105.14 82.68 106.153C83.2348 106.521 83.7556 105.627 83.2008 105.259C81.6666 104.252 80.1323 103.245 78.5981 102.232C77.1544 101.281 75.7334 100.24 74.1481 99.5435C73.548 99.2775 73.0215 100.166 73.6273 100.438Z" fill="#D8F3E4"/>
<path d="M61.891 52.1203C53.8744 33.5415 47.5336 21.963 42.7157 14.7363C25.5671 19.9484 13.0836 35.8731 13.0836 54.7178V73.3363C28.8055 84.8129 49.0169 103.03 61.8967 127.647C65.1973 133.962 67.8412 139.078 69.9473 143.22H89.5982C86.3938 126.532 78.1677 89.8212 61.891 52.1203Z" fill="url(#paint0_linear)"/>
<path d="M101.097 12.9312H85.6975C87.5035 20.9218 90.7192 35.2676 96.426 60.9429C105.445 101.519 103.208 131.133 101.578 143.198C105.501 143.153 109.289 142.57 112.884 141.517C114.605 134.947 117.204 124.059 121.093 106.012C127.524 76.1772 129.647 43.8015 130.349 24.8832C122.814 17.4924 112.488 12.9312 101.097 12.9312Z" fill="url(#paint1_linear)"/>
<path d="M97.0204 114.529H61.4382V143H97.0204V114.529Z" fill="#FDA22D"/>
<path d="M54.6412 142.999L90.2234 142.999L90.2234 114.528L54.6412 114.528L54.6412 142.999Z" fill="#FCC13F"/>
<path d="M55.2728 143.17H55.2955V120.969H18.3431C25.369 134.177 39.2679 143.17 55.2728 143.17Z" fill="#B1AEAD"/>
<path d="M86.6939 51.7922C86.6713 52.8504 87.3054 53.7276 88.1149 53.7446C88.9245 53.7616 89.5982 52.9184 89.6265 51.8601C89.6492 50.8019 89.0151 49.9247 88.2055 49.9077C87.3959 49.8907 86.7166 50.7339 86.6939 51.7922Z" fill="#E9F3FE"/>
<path d="M87.4073 52.7429L88.5679 53.3767L87.8942 56.6251L86.1844 56.0535C86.8185 54.2765 87.4073 52.7429 87.4073 52.7429Z" fill="#E9F3FE"/>
<path d="M88.732 54.3729L86.643 53.8296C86.643 53.8296 85.7145 57.6665 84.5822 60.8186C81.6496 59.6754 78.5301 57.9268 77.7601 57.2533C75.7503 55.4934 72.5629 58.2833 73.8198 59.5736C75.388 61.1864 84.6501 65.8156 86.6939 64.8648C87.7413 64.3781 88.6358 55.5386 88.732 54.3729Z" fill="#3A8FF3"/>
<path d="M62.2534 112.939C62.2194 112.967 61.8741 113.477 61.8684 113.839C61.8684 114.139 62.0326 114.473 62.3326 114.557C63.1649 114.789 64.9482 114.507 66.0069 113.839C66.9581 113.239 67.4336 112.226 67.694 111.105C67.3827 111.077 67.4053 111.077 67.0996 111.049C66.4542 111.745 65.8088 112.447 65.1634 113.143C64.167 113.171 63.2498 112.911 62.2534 112.939Z" fill="#2D517E"/>
<path d="M64.6029 110.998C64.2123 111.145 63.3744 111.728 62.678 112.43C62.3383 112.775 61.8061 113.414 62.0439 113.873C62.3157 114.393 63.8046 114.139 64.8293 113.81C66.0126 113.437 66.692 112.633 66.9071 112.356C67.3374 111.801 67.5468 111.36 67.6488 111.009L64.6029 110.998Z" fill="#2D517E"/>
<path d="M81.9892 113.018L75.9711 113.148C75.9711 113.148 75.9768 113.482 76.1296 113.522C78.2187 114.11 80.9362 114.54 81.8647 113.776C82.1421 113.539 81.9892 113.018 81.9892 113.018Z" fill="#2D517E"/>
<path d="M76.1296 111.252C76.0334 111.485 75.7843 112.226 75.9711 113.148C75.9824 113.194 76.0164 113.233 76.0617 113.244C76.7297 113.409 81.6269 114.574 81.9723 113.228C82.193 112.362 80.6928 112.509 79.0566 111.207C79.034 111.19 79.0056 111.179 78.9773 111.179H76.2429C76.1919 111.173 76.1466 111.202 76.1296 111.252Z" fill="#2D517E"/>
<path d="M79.334 111.32L76.0957 111.298C76.0957 111.298 75.6088 83.2285 73.933 74.8983L82.7252 74.5645C82.7309 83.2851 79.334 111.32 79.334 111.32Z" fill="#3EC57B"/>
<path d="M71.9345 76.2282C68.4301 88.1463 63.9632 111.315 63.9632 111.315H67.9488C67.9488 111.315 74.6407 90.7381 77.2902 81.6553C77.2902 81.6553 82.1138 78.6333 82.7252 74.5645L71.9345 76.2282Z" fill="#3EC57B"/>
<path d="M63.5329 39.2178C63.6914 40.2647 63.1706 41.2154 62.3666 41.3343C61.5684 41.4531 60.7871 40.7061 60.6286 39.6535C60.47 38.6066 60.9909 37.6558 61.7948 37.537C62.5988 37.4182 63.3744 38.1708 63.5329 39.2178Z" fill="#E9F3FE"/>
<path d="M62.9441 40.2478L61.8741 41.0231L62.9554 44.1639L64.5803 43.3773C63.7254 41.6965 62.9441 40.2478 62.9441 40.2478Z" fill="#E9F3FE"/>
<path d="M82.8272 74.9605C82.8272 74.9605 80.8853 61.5485 77.8677 58.2209C77.0411 57.3098 74.6803 56.195 73.4631 56.0082C72.5403 55.8611 70.1002 56.1384 69.8681 57.0438C68.866 61.0391 71.5722 77.4392 71.5722 77.4392L82.8272 74.9605Z" fill="#3A8FF3"/>
<path d="M69.4321 60.5808C66.4259 58.0511 62.678 44.9956 62.1062 42.3019L64.1104 41.4983C64.1104 41.4983 69.6812 54.7123 71.4703 56.4836C73.3668 58.3624 70.8135 61.7409 69.4321 60.5808Z" fill="#3A8FF3"/>
<path d="M72.7158 72.9968L71.057 73.1326L70.6607 71.7065C72.3987 69.0015 74.5331 60.6996 74.4029 57.8417L75.5692 57.7229C75.7786 63.5631 74.6294 70.0145 72.7158 72.9968Z" fill="#3EC57B"/>
<path d="M72.7158 72.997L71.1136 73.1272C72.9253 70.026 74.8841 63.3369 74.7935 57.808L75.5748 57.7288C75.7786 63.5633 74.6293 70.0147 72.7158 72.997Z" fill="#3EC57B"/>
<path d="M74.5331 58.306L74.0179 57.8136L74.5331 57.3213H75.5635L76.0844 57.8136L75.5635 58.306H74.5331Z" fill="#3EC57B"/>
<path d="M74.5048 58.2662L74.0292 57.8134L74.5444 57.3154H75.0426V57.8587V58.3058H74.5444L74.5048 58.2662Z" fill="#3EC57B"/>
<path d="M72.4271 55.2444L72.3987 55.3972L72.5403 56.5516L74.5841 57.4005L75.0087 57.4797L75.3427 57.2703L75.6428 56.4837C75.6428 56.4837 75.3767 56.0819 75.3484 55.8499L72.4271 55.2444Z" fill="#E9F3FE"/>
<path d="M74.5841 57.4005L75.0087 57.4797L75.3427 57.2703L75.3653 57.2137C74.6067 57.2816 74.1821 56.7893 73.8084 56.5346C73.4574 56.2969 74.0745 55.7367 74.2331 55.6235L72.4271 55.25L72.3987 55.4028L72.5403 56.5573L74.5841 57.4005Z" fill="#92C1F8"/>
<path d="M75.2917 56.9252C75.2691 56.7385 75.2012 56.5913 75.5522 56.4668C75.9032 56.3423 76.2712 56.3367 76.4523 56.099C76.6335 55.8613 76.6958 55.6972 76.7977 55.9745C76.8996 56.2518 76.9109 56.5857 76.9109 56.5857C76.9109 56.5857 76.7354 56.9875 76.1749 57.1063C75.6088 57.2252 75.337 57.2704 75.337 57.2704L75.2917 56.9252Z" fill="#2D517E"/>
<path d="M71.7193 56.3365C71.7137 56.1498 71.6514 55.8895 72.2515 56.0875C72.8516 56.2856 74.0066 56.5742 74.2387 56.5629C74.4708 56.5516 74.5784 56.6931 74.584 56.8798C74.5897 57.0666 74.5784 57.3948 74.5784 57.3948C74.5784 57.3948 73.3385 57.1741 72.6535 57.0383C71.9684 56.9024 71.7363 56.9307 71.7193 56.3365Z" fill="#2D517E"/>
<path d="M76.526 50.3096C76.526 50.3096 77.2619 52.6581 76.6845 54.1861C76.107 55.714 75.6258 56.1441 74.4482 56.1837C73.2649 56.2233 72.2006 55.3462 71.1929 54.4011C70.1795 53.456 70.1115 53.3711 70.1964 52.4883C70.2814 51.6055 71.8836 51.1132 71.8836 51.1132L76.526 50.3096Z" fill="#E9F3FE"/>
<path d="M76.5259 50.3096L71.8779 51.1132C71.8779 51.1132 71.2438 51.3112 70.7513 51.6734L71.2608 52.6638C71.2608 52.6638 71.3117 52.4374 71.4929 52.2167C71.6684 51.996 73.1687 51.747 74.7426 51.5829C75.8635 51.4697 76.4637 51.2037 76.7184 51.0622C76.6222 50.6095 76.5259 50.3096 76.5259 50.3096Z" fill="#92C1F8"/>
<path d="M71.4929 54.7746C71.4929 54.7746 70.9437 55.2896 70.3719 53.9824C69.8001 52.6751 69.4548 51.249 69.2793 50.536C69.1038 49.8229 69.3246 49.1439 69.953 48.759C70.5814 48.3742 71.5382 46.7557 72.495 46.1162C73.4518 45.4768 74.4991 44.8146 75.1898 45.2843C75.8805 45.754 75.4842 46.6708 75.4842 46.6708C75.4842 46.6708 77.3016 45.6409 77.93 46.2407C78.5584 46.8406 78.6886 47.5876 78.1791 48.1478C77.6639 48.7024 77.5507 48.81 77.5507 48.81C77.5507 48.81 78.5584 48.6006 78.7792 49.2004C79 49.8003 77.2393 51.0114 74.6973 51.3113C72.161 51.6112 71.1532 51.8206 71.1532 51.8206L71.2495 52.6695C71.2495 52.6695 70.8815 52.2224 70.6833 52.4997C70.4795 52.777 70.7173 53.8183 71.023 53.8296C71.3287 53.8409 71.3287 53.8409 71.3287 53.8409L71.4929 54.7746Z" fill="#2D517E"/>
<path d="M55.9635 62.1991C56.3655 62.5386 56.2466 63.3252 55.7088 63.9647C55.1709 64.6042 54.4066 64.8475 54.0103 64.508C53.6084 64.1685 53.7273 63.3818 54.2651 62.7424C54.8029 62.1085 55.5672 61.8595 55.9635 62.1991Z" fill="#FADBBF"/>
<path d="M52.8893 65.47L53.8575 63.959L54.9897 64.5306L53.4951 66.0472L52.8893 65.47Z" fill="#FADBBF"/>
<path d="M39.5396 74.7849C39.5396 74.7849 40.6606 71.0499 41.2268 70.9424C43.8763 70.4331 45.5408 70.8236 47.5449 69.9464C49.1924 69.222 53.1102 64.1685 53.1102 64.1685L54.4576 65.4418C54.4576 65.4418 50.6927 70.8519 49.0962 72.0346C46.1239 74.2473 42.2571 75.4867 42.2571 75.4867L39.5396 74.7849Z" fill="#E1DBFF"/>
<path d="M50.2681 119.996L44.6406 120.114C44.6406 120.114 44.6463 120.426 44.7878 120.465C46.741 121.014 49.283 121.416 50.1492 120.703C50.4153 120.482 50.2681 119.996 50.2681 119.996Z" fill="#2D517E"/>
<path d="M44.7878 118.343C44.6972 118.558 44.4651 119.254 44.6406 120.114C44.6519 120.16 44.6802 120.194 44.7255 120.205C45.3483 120.358 49.9284 121.45 50.2568 120.188C50.4662 119.379 49.0565 119.515 47.5279 118.298C47.5053 118.281 47.4827 118.27 47.4543 118.27H44.8954C44.8501 118.27 44.8048 118.298 44.7878 118.343Z" fill="#2D517E"/>
<path d="M32.4968 120.329L27.0618 118.869C27.0618 118.869 26.9825 119.169 27.1071 119.249C28.8282 120.324 31.155 121.422 32.1854 120.975C32.5024 120.839 32.4968 120.329 32.4968 120.329Z" fill="#2D517E"/>
<path d="M27.7015 117.211C27.5543 117.392 27.1354 117.992 27.0618 118.869C27.0561 118.915 27.0788 118.96 27.1184 118.983C27.6732 119.305 31.7664 121.631 32.4288 120.511C32.8534 119.792 31.4664 119.532 30.3398 117.93C30.3228 117.907 30.3001 117.89 30.2775 117.885L27.8204 117.172C27.7751 117.16 27.7298 117.177 27.7015 117.211Z" fill="#2D517E"/>
<path d="M41.1305 86.9011C41.1305 86.9011 38.2092 98.2929 37.1562 102.877C36.3353 106.459 30.6002 118.269 30.6002 118.269L27.5204 117.438L32.8308 102.441C32.8308 102.441 33.8499 94.7559 33.9801 87.0313L41.1305 86.9011Z" fill="#3EC57B"/>
<path d="M43.8253 86.6069C43.8253 86.6069 48.3715 95.5879 48.7735 101.564C49.0565 105.746 47.7318 118.451 47.7318 118.451L44.7821 118.326C44.7821 118.326 44.8784 106.352 44.5727 102.526C44.4198 100.658 39.8001 92.1132 39.8001 92.1132C33.7706 92.0906 33.7706 86.7088 33.7706 86.7088L43.8253 86.6069Z" fill="#3EC57B"/>
<path d="M33.7763 87.8349C38.2488 89.2836 44.2443 88.2763 44.4878 87.5406C44.8161 86.522 44.9973 81.8419 44.4878 77.5071C44.1877 74.9888 43.4404 72.561 41.8099 71.1915C41.7703 71.1576 41.7306 71.1293 41.691 71.101C41.5948 71.0331 41.4872 70.9651 41.374 70.9086C41.3287 70.8859 41.2834 70.8633 41.2324 70.8463C40.6097 70.569 39.7774 70.4389 38.9452 70.4219C38.832 70.4219 38.7244 70.4219 38.6112 70.4219C37.8808 70.4332 37.1675 70.5351 36.624 70.6992C36.6014 70.7048 36.5844 70.7105 36.5617 70.7161C36.5617 70.7161 36.5561 70.7161 36.5504 70.7161C36.4994 70.7331 36.4485 70.7558 36.3975 70.7727C35.203 71.2877 34.1952 73.1722 33.9971 73.806C33.731 74.6605 33.6064 76.1262 33.5555 77.7561C33.4479 81.6269 33.1252 87.6199 33.7763 87.8349Z" fill="#3A8FF3"/>
<path d="M41.7986 69.5729L41.7929 70.484C41.5268 70.535 41.2607 70.5746 40.9946 70.6142C40.921 70.6142 40.8474 70.6199 40.7738 70.6199C40.587 70.6255 40.3945 70.6425 40.202 70.6595C38.3904 70.8179 36.3692 71.3046 35.0558 71.7573L35.0444 71.0499C35.0954 69.8276 38.5432 69.6974 40.7229 69.5956C40.7852 69.5956 40.8474 69.5899 40.9097 69.5899C41.2041 69.5729 41.5042 69.5673 41.7986 69.5729Z" fill="#3EC57B"/>
<path d="M35.4238 87.9934C35.4068 88.514 34.7104 88.9158 33.8782 88.8819C33.0403 88.8536 32.3836 88.4009 32.4006 87.8802C32.4175 87.3596 33.1139 86.9578 33.9461 86.9917C34.784 87.0257 35.4464 87.4728 35.4238 87.9934Z" fill="#E9F3FE"/>
<path d="M31.9703 86.1711L33.4649 87.1049L32.6553 88.3952L31.54 86.9917L31.9703 86.1711Z" fill="#E9F3FE"/>
<path d="M36.4032 70.7727C36.975 70.7671 36.5504 75.7471 35.9956 75.9112C32.9554 76.8223 32.0325 78.503 31.9759 80.5799C31.8967 83.4151 32.9837 86.8049 32.9837 86.8049C32.9837 86.8049 32.6723 87.5293 32.2703 88.3951C32.2703 88.3951 29.3886 84.9997 29.3037 80.2291C29.2245 75.9395 33.2837 70.8067 36.4032 70.7727Z" fill="#3A8FF3"/>
<path d="M37.694 72.2724L37.2298 71.8932L37.66 71.4065L38.113 71.3726L38.1526 71.8592L38.1809 72.2667L37.7336 72.3063L37.694 72.2724Z" fill="#26AC63"/>
<path d="M54.0952 62.5952C52.6459 64.6495 50.8512 66.3698 48.7565 67.7224C46.6504 69.0805 44.2726 70.02 41.7872 70.484C41.5211 70.5349 41.2551 70.5745 40.989 70.6142C40.7229 70.6538 40.4568 70.6877 40.1907 70.7104C40.1907 70.6934 40.1964 70.6764 40.1964 70.6594C40.219 70.467 40.2303 70.2463 40.2473 70.003L40.27 69.6634C40.4738 69.6408 40.6833 69.6125 40.904 69.5785C42.9195 69.2786 45.5578 68.5542 48.196 66.8509C50.1775 65.5719 51.876 63.9421 53.2517 61.9954L54.0952 62.5952Z" fill="#3EC57B"/>
<path d="M55.9466 62.7424C55.6691 63.8855 53.9707 69.737 47.9243 72.3911C46.056 73.2117 44.2387 73.5173 42.5629 73.5173C40.219 73.5173 38.1639 72.9231 36.6749 72.3062C35.7578 71.9271 35.0501 71.0556 35.0501 71.0556C35.486 70.8292 35.7918 70.6877 36.2107 70.6142C36.2107 70.6142 36.1994 71.0612 36.7882 71.3215C39.1037 72.3515 43.0667 73.3928 47.511 71.4461C53.1158 68.99 54.6897 63.5629 54.9501 62.499L55.9466 62.7424Z" fill="#3EC57B"/>
<path d="M59.3548 54.6896C61.2061 57.2759 60.6059 60.8694 58.0187 62.7199C55.4314 64.5704 51.8363 63.9706 49.985 61.3844C48.1337 58.7982 48.7339 55.2046 51.3211 53.3541C53.9141 51.5036 57.5091 52.1034 59.3548 54.6896Z" fill="#FFC100"/>
<path d="M58.3414 63.1725C55.505 65.1985 51.5533 64.5364 49.5321 61.7068C47.5053 58.8716 48.1677 54.9216 50.9985 52.9013C53.8348 50.8753 57.7865 51.5374 59.8077 54.367C61.8345 57.2022 61.1778 61.1522 58.3414 63.1725ZM51.6495 53.8067C49.317 55.4705 48.7735 58.7245 50.438 61.0617C52.1024 63.3932 55.3578 63.9365 57.696 62.2671C60.0285 60.5976 60.572 57.3493 58.9075 55.0121C57.2374 52.6806 53.982 52.143 51.6495 53.8067Z" fill="#FFDF00"/>
<path opacity="0.3" d="M54.6897 53.4162C53.8065 53.7954 53.7386 54.4235 53.9934 55.0743C53.7895 54.5537 53.1555 54.0161 52.3176 54.3443C52.3176 54.3443 53.5461 53.9255 53.0422 52.6353C53.5518 53.9368 54.6897 53.4162 54.6897 53.4162Z" fill="white"/>
<path opacity="0.3" d="M59.8926 57.3041C58.6641 57.8304 58.5678 58.7076 58.9245 59.6187C58.6414 58.8887 57.7526 58.1417 56.5863 58.5944C56.5863 58.5944 58.3017 58.0115 57.594 56.2119C58.3017 58.0285 59.8926 57.3041 59.8926 57.3041Z" fill="white"/>
<path opacity="0.3" d="M53.4725 60.0826C52.6006 60.4618 52.5327 61.0843 52.7818 61.7294C52.578 61.2088 51.9496 60.6768 51.1173 61.0051C51.1173 61.0051 52.3346 60.5919 51.8363 59.313C52.3402 60.5976 53.4725 60.0826 53.4725 60.0826Z" fill="white"/>
<path d="M35.888 69.1541L35.8427 69.3012L35.854 70.433L37.7393 71.4799L38.1412 71.5988L38.4866 71.4347L38.8659 70.7047C38.8659 70.7047 38.6508 70.2859 38.6508 70.0595L35.888 69.1541Z" fill="#E9F3FE"/>
<path d="M37.7393 71.4743L38.1412 71.5932L38.4866 71.4291L38.5149 71.3725C37.7732 71.3555 37.4166 70.8349 37.0825 70.5462C36.7712 70.2746 37.4222 69.8049 37.5977 69.7087L35.888 69.1484L35.8427 69.2956L35.854 70.4274L37.7393 71.4743Z" fill="#92C1F8"/>
<path d="M38.4809 71.0895C38.4809 70.9084 38.43 70.7556 38.781 70.6764C39.1377 70.5915 39.4887 70.6311 39.6925 70.4218C39.8963 70.2124 39.9699 70.0596 40.0378 70.3369C40.1058 70.6142 40.0831 70.9424 40.0831 70.9424C40.0831 70.9424 39.8737 71.3102 39.3132 71.3668C38.7527 71.4234 38.4809 71.4347 38.4809 71.4347V71.0895Z" fill="#2D517E"/>
<path d="M35.0841 70.1332C35.1011 69.9521 35.0671 69.6975 35.6276 69.9521C36.1881 70.2068 37.2694 70.6143 37.4959 70.6312C37.7223 70.6482 37.8129 70.7953 37.7959 70.9764C37.7789 71.1575 37.7336 71.4744 37.7336 71.4744C37.7336 71.4744 36.556 71.1292 35.9106 70.9142C35.2652 70.7048 35.0388 70.7048 35.0841 70.1332Z" fill="#2D517E"/>
<path d="M40.3945 64.825C40.3945 64.825 40.8474 67.1791 40.1228 68.5939C39.3981 70.0087 38.8886 70.3709 37.7393 70.2803C36.5957 70.1898 35.6559 69.2221 34.784 68.1978C33.9122 67.1735 33.8499 67.0829 34.031 66.2397C34.2122 65.3965 35.8087 65.0966 35.8087 65.0966L40.3945 64.825Z" fill="#E9F3FE"/>
<path d="M40.3945 64.825L35.8087 65.0966C35.8087 65.0966 35.1746 65.2154 34.6595 65.5154L35.0444 66.5283C35.0444 66.5283 35.118 66.319 35.3162 66.1209C35.5143 65.9228 36.992 65.8492 38.5319 65.8662C39.6246 65.8775 40.236 65.6908 40.5021 65.5776C40.4511 65.1305 40.3945 64.825 40.3945 64.825Z" fill="#92C1F8"/>
<path d="M35.0388 68.5939C35.0388 68.5939 34.45 69.0296 34.0423 67.7054C33.6347 66.3812 33.4536 64.9607 33.363 64.2534C33.2724 63.546 33.5611 62.9122 34.2065 62.6122C34.8519 62.3123 35.9559 60.8466 36.9523 60.3373C37.9488 59.8223 39.0358 59.296 39.6529 59.8223C40.27 60.3486 39.7887 61.1918 39.7887 61.1918C39.7887 61.1918 41.657 60.3939 42.2005 61.039C42.744 61.6898 42.7893 62.4255 42.2288 62.9065C41.6683 63.3875 41.5494 63.4781 41.5494 63.4781C41.5494 63.4781 42.5459 63.3875 42.6931 63.993C42.8459 64.5986 41.0059 65.5776 38.5149 65.5889C36.0239 65.6002 35.0331 65.6964 35.0331 65.6964V66.5283C35.0331 66.5283 34.7274 66.053 34.5009 66.302C34.2745 66.551 34.3877 67.5809 34.6821 67.6262C34.9765 67.6715 34.9765 67.6715 34.9765 67.6715L35.0388 68.5939Z" fill="#2D517E"/>
<path d="M61.6533 49.6813L51.6438 45.0465C50.5738 44.5485 50.1039 43.2695 50.5965 42.2C51.0947 41.1304 52.3742 40.6607 53.4442 41.153L63.4536 45.7878C64.5236 46.2858 64.9935 47.5648 64.501 48.6344C64.0028 49.7039 62.7233 50.1736 61.6533 49.6813Z" fill="#FFDB17"/>
<path opacity="0.4" d="M64.467 48.7136L64.535 48.5608C65.0105 47.5308 64.5576 46.3028 63.5329 45.8218L62.8988 45.5275L61.8514 45.0691C62.8252 45.9859 62.1571 47.1856 61.9647 47.5534C61.4381 48.5664 60.2549 49.0361 59.2245 48.5551L61.7269 49.7152C62.7573 50.1906 63.9858 49.7378 64.467 48.7136Z" fill="#F7B336"/>
<path opacity="0.67" d="M52.4364 43.1393C52.7082 42.5564 53.7442 41.4303 54.8652 41.8321C54.8652 41.8321 54.4802 41.6453 53.9877 41.402C53.7499 41.2831 53.5178 41.1869 53.3762 41.119C52.3798 40.655 51.1173 41.0964 50.6361 42.1207L50.5682 42.2735C50.0926 43.3034 50.5455 44.5315 51.5702 45.0125L53.4385 45.8783C52.4081 45.3973 51.9326 44.2145 52.4364 43.1393Z" fill="#F7B336"/>
<path opacity="0.6" d="M54.1745 43.9431C54.5312 43.1055 55.4314 42.0926 56.4617 42.5736L54.8595 41.8322C54.2028 41.4814 52.929 42.0643 52.4308 43.1395C51.9552 44.1695 52.4081 45.3975 53.4329 45.8785L55.1709 46.6821C54.1519 46.2011 53.7273 44.9844 54.1745 43.9431Z" fill="#FFEE8A"/>
<path d="M62.8535 45.5106C61.642 45.0182 55.0294 41.951 53.8688 41.3512C55.0011 41.1587 56.8014 40.5702 58.1602 38.9743C58.1828 38.946 58.2055 38.9177 58.2338 38.8895C58.279 38.8385 58.3187 38.7819 58.364 38.7253C59.2528 37.5822 59.8133 36.4504 60.1756 35.5166C60.2039 35.4374 60.2323 35.3638 60.2606 35.2903C60.2889 35.211 60.3172 35.1375 60.3398 35.0639C60.3511 35.0356 60.3568 35.013 60.3681 34.9847C60.4021 34.8828 60.4361 34.7809 60.4644 34.6847C60.4983 34.5829 60.5266 34.481 60.5493 34.3848C60.5719 34.3112 60.5889 34.2377 60.6059 34.1641V34.1584C61.1607 34.4244 63.3857 35.4544 63.9462 35.709C63.9462 35.709 63.9462 35.709 63.9462 35.7147C63.3291 36.5919 62.3836 38.1764 61.9194 40.3721C61.7948 40.9607 61.7722 41.5379 61.8118 42.0868C61.8854 43.5412 62.4062 44.7523 62.8535 45.5106Z" fill="#FFDB17"/>
<path opacity="0.67" d="M59.015 39.0253C57.6336 40.8022 54.8595 41.8265 54.8595 41.8265C54.2934 41.5662 53.8688 41.3455 53.8688 41.3455C55.0011 41.1531 56.8014 40.5645 58.1602 38.9687C58.1828 38.9404 58.2055 38.9121 58.2338 38.8838C58.279 38.8329 58.3187 38.7763 58.364 38.7197C59.2528 37.5765 59.8133 36.4447 60.1756 35.511C60.2039 35.4317 60.2323 35.3582 60.2606 35.2846C60.2889 35.2054 60.3172 35.1318 60.3398 35.0582C60.3511 35.0299 60.3568 35.0073 60.3681 34.979C60.4021 34.8772 60.4361 34.7753 60.4644 34.6791C60.4983 34.5772 60.5266 34.4754 60.5493 34.3792C60.5719 34.3056 60.5889 34.232 60.6059 34.1584C60.8097 34.2547 61.0305 34.3565 61.257 34.4584C60.9909 35.511 60.3908 37.254 59.015 39.0253Z" fill="#F7B336"/>
<path opacity="0.4" d="M62.8535 45.5105L62.3157 45.2729L61.8458 45.0635C61.8458 45.0635 60.8324 42.2849 61.3023 40.0835C61.7665 37.8877 62.712 36.3032 63.3291 35.426C63.5442 35.5279 63.7537 35.6241 63.9518 35.7146C63.3347 36.5918 62.3893 38.1763 61.925 40.3721C61.8005 40.9606 61.7778 41.5378 61.8175 42.0868C61.8798 43.5468 62.4063 44.7522 62.8535 45.5105Z" fill="#F7B336"/>
<path opacity="0.6" d="M56.2749 42.5C57.209 41.9794 58.4942 41.1984 59.8756 39.4215C61.2513 37.6502 61.8514 35.9015 62.1232 34.8659C62.0439 34.8263 61.9647 34.7923 61.8854 34.7527C61.6816 34.6565 61.4721 34.5603 61.2626 34.4641C60.9909 35.4997 60.3964 37.2427 59.015 39.0197C57.6336 40.7966 54.8595 41.8209 54.8595 41.8209" fill="#FFEE8A"/>
<path d="M68.8433 35.03C68.4923 34.8659 68.1413 34.6904 67.7846 34.5037L68.7697 32.6645C72.1496 34.4697 75.3257 34.8885 78.213 33.8925C81.4118 32.789 84.3444 29.8519 86.3655 25.7604L79.6794 22.6648L80.5569 20.769L89.1227 24.7361L88.7094 25.6755C87.7016 27.9618 86.3769 30.05 84.8879 31.7137C83.0932 33.7171 81.0777 35.1149 78.8924 35.8675C75.7503 36.9484 72.3761 36.6655 68.8433 35.03Z" fill="#F7B336"/>
<path d="M58.1772 30.0895C58.5282 30.2536 58.8905 30.4064 59.2642 30.5536L60.0341 28.6125C56.4731 27.2034 54.1009 25.0473 52.9913 22.2007C51.7627 19.0486 52.1081 14.9118 53.9254 10.7241L60.6116 13.8196L61.4891 11.9238L52.9233 7.95679L52.4761 8.87922C51.3834 11.1259 50.6418 13.4857 50.336 15.6984C49.968 18.3582 50.2058 20.8029 51.0437 22.9534C52.2496 26.0602 54.6444 28.454 58.1772 30.0895Z" fill="#FFDB17"/>
<path d="M83.5971 18.5448L61.0758 8.10946C60.8494 8.01326 58.9188 12.416 58.7433 12.8574C57.5204 15.8568 56.524 19.0202 56.1673 22.2515C55.5672 27.6277 56.8807 34.13 62.5535 36.2239C67.4506 38.0348 72.5176 35.0637 75.8466 31.5891C77.947 29.399 79.6454 26.8411 81.0551 24.1587C81.3042 23.672 83.9311 18.6976 83.5971 18.5448Z" fill="#FFDB17"/>
<path opacity="0.6" d="M64.5123 9.70544L61.0758 8.11523C59.5472 10.8316 58.2507 13.6951 57.3336 16.6718C56.5297 19.2806 56.0031 22.0027 55.9918 24.7417C55.9805 26.9544 56.3145 29.2123 57.2487 31.2326C57.7412 32.2965 58.4319 33.2869 59.2698 34.1188C58.9131 31.9513 58.732 29.5349 58.8622 26.9091C59.2585 18.9467 62.3553 12.9934 64.5123 9.70544Z" fill="#FFEE8A"/>
<path opacity="0.67" d="M62.7233 36.2918H62.7176C62.661 36.2692 62.5988 36.2522 62.5421 36.2296C62.5308 36.2239 62.5195 36.2183 62.5082 36.2183C62.4969 36.2126 62.4912 36.2126 62.4799 36.2069C62.4176 36.1843 62.3553 36.1617 62.293 36.1334C62.2817 36.1277 62.2704 36.1221 62.2591 36.1221C62.2025 36.0994 62.1515 36.0768 62.0949 36.0541C62.0836 36.0485 62.0722 36.0428 62.0609 36.0372C61.993 36.0089 61.925 35.9806 61.8628 35.9466C61.8118 35.924 61.7609 35.8957 61.7042 35.8731C61.6703 35.8561 61.6363 35.8391 61.6023 35.8221C61.5627 35.8051 61.5287 35.7882 61.4948 35.7655C61.4551 35.7486 61.4212 35.7259 61.3815 35.7089C61.3363 35.6863 61.291 35.658 61.2457 35.6354C61.223 35.6241 61.2004 35.6127 61.1777 35.5958C61.0702 35.5335 60.9626 35.4713 60.8607 35.409C60.8211 35.3864 60.7814 35.3637 60.7475 35.3354C60.6739 35.2845 60.6003 35.2392 60.5267 35.1883C60.487 35.16 60.4531 35.1374 60.4134 35.1091C60.3908 35.0921 60.3738 35.0808 60.3512 35.0638C60.3172 35.0412 60.2832 35.0129 60.2493 34.9902C60.204 34.9563 60.1643 34.9223 60.119 34.894C60.0907 34.8714 60.0624 34.8488 60.0341 34.8261C60.0058 34.8035 59.9832 34.7865 59.9549 34.7639C54.4123 30.2988 54.6048 19.6201 61.0871 8.12085L62.7856 8.90746C56.5863 19.8635 56.1334 30.0951 60.9173 34.8884C61.4495 35.426 62.0553 35.8957 62.7233 36.2918Z" fill="#F7B336"/>
<path opacity="0.4" d="M83.5971 18.545C79.0962 30.6838 71.2834 37.6954 64.3934 36.6994C64.2745 36.6824 64.15 36.6598 64.0311 36.6372C63.9915 36.6315 63.9462 36.6202 63.9065 36.6145C63.8669 36.6089 63.8216 36.5976 63.782 36.5862C63.731 36.5749 63.6744 36.5636 63.6235 36.5523C63.5159 36.5296 63.4083 36.5013 63.2951 36.4674C63.2385 36.4504 63.1875 36.4391 63.1309 36.4221C63.0913 36.4108 63.046 36.3995 63.0064 36.3825C62.9101 36.3542 62.8139 36.3203 62.7176 36.2863H62.712C62.6554 36.2637 62.5931 36.2467 62.5365 36.2241C62.5252 36.2184 62.5138 36.2127 62.5025 36.2127C62.4912 36.2071 62.4855 36.2071 62.4742 36.2014C62.4572 36.1958 62.4346 36.1844 62.4176 36.1788C62.4119 36.1788 62.4063 36.1731 62.4063 36.1731C62.3836 36.1618 62.3553 36.1561 62.3327 36.1448C62.3157 36.1392 62.3044 36.1335 62.2874 36.1278C62.276 36.1222 62.2647 36.1165 62.2534 36.1165C62.1968 36.0939 62.1458 36.0713 62.0892 36.0486C62.0779 36.043 62.0666 36.0373 62.0553 36.0316C61.9873 36.0033 61.9194 35.975 61.8571 35.9411C61.8061 35.9185 61.7552 35.8902 61.6986 35.8675C61.6646 35.8506 61.6306 35.8336 61.5967 35.8166C61.557 35.7996 61.5231 35.7826 61.4891 35.76C61.4495 35.743 61.4155 35.7204 61.3759 35.7034C61.3306 35.6808 61.2853 35.6525 61.24 35.6298C61.2174 35.6185 61.1947 35.6072 61.1721 35.5902C61.0645 35.528 60.9569 35.4657 60.855 35.4035C60.8154 35.3808 60.7758 35.3582 60.7418 35.3299C60.6682 35.279 60.5946 35.2337 60.521 35.1828C60.4814 35.1545 60.4474 35.1318 60.4078 35.1035C60.3851 35.0866 60.3681 35.0753 60.3455 35.0583C60.3115 35.0356 60.2776 35.0073 60.2436 34.9847C60.1983 34.9508 60.1587 34.9168 60.1134 34.8885C60.0851 34.8659 60.0568 34.8432 60.0284 34.8206C60.0001 34.798 59.9775 34.781 59.9492 34.7583C60.2719 34.8206 60.5946 34.8659 60.9173 34.8885C61.5401 34.9394 62.1685 34.9281 62.7969 34.8489C69.0245 34.1132 75.5805 27.3902 79.5548 16.6719" fill="#F7B336"/>
<path d="M102.41 143.147C116.541 142.841 128.945 135.536 136.283 124.546V123.64H102.41V143.147Z" fill="#B1AEAD"/>
<path d="M94.8068 143.17H101.487C111.876 143.17 121.37 139.372 128.679 133.108V123.646H94.8068V143.17Z" fill="#B1AEAD"/>
<path d="M121.665 73.0195C121.665 73.0195 122.101 75.3567 122.848 76.5734C123.595 77.7901 125.65 79.9689 124.779 82.2439C123.907 84.5188 122.814 84.6094 121.721 84.4226C120.629 84.2359 119.791 83.3304 119.791 83.3304L121.665 73.0195Z" fill="#2D517E"/>
<path d="M110.07 118.785L110.104 119.254C110.104 119.254 109.793 120.222 109.261 120.409C108.728 120.596 106.328 120.567 105.954 121.716C105.581 122.871 105.456 124.144 109.198 123.867C112.94 123.584 114.124 123.833 113.903 122.31C113.682 120.782 112.935 118.943 112.873 118.853C112.81 118.756 110.07 118.785 110.07 118.785Z" fill="#2D517E"/>
<path d="M121.257 118.224L121.382 118.785C121.382 118.785 121.693 119.407 121.914 119.939C122.135 120.471 122.038 120.935 121.506 121.495C120.974 122.055 119.604 121.716 119.417 122.401C119.23 123.085 119.106 124.019 120.385 123.991C121.665 123.963 123.25 123.957 123.816 123.957C124.377 123.957 126.777 121.993 125.407 120.437C124.037 118.881 123.041 117.947 122.944 117.76C122.848 117.573 121.257 118.224 121.257 118.224Z" fill="#2D517E"/>
<path d="M109.442 60.5469C109.442 60.5469 109.815 61.6674 109.34 62.935C108.864 64.2027 108.134 65.3628 108.677 67.1114C109.215 68.8544 109.781 70.2466 109.781 70.2466L114.248 68.5828L113.665 63.8065L110.88 60.6487L109.442 60.5469Z" fill="#2D517E"/>
<path d="M113.122 67.8811C113.122 67.8811 113.167 66.4323 113.139 66.2003C113.105 65.9683 113.076 65.7815 113.076 65.7815L116.071 65.0515L116.586 66.4663L116.428 68.1357L114.356 70.5012L113.122 67.8811Z" fill="#E9F3FE"/>
<path d="M111.44 85.6392C111.44 85.6392 109.074 91.0832 109.074 98.3495C109.074 105.616 110.115 109.153 109.861 113.012C109.606 116.872 109.362 119.158 110.523 119.531C111.689 119.905 113.473 119.741 113.597 118.202C113.722 116.662 113.971 107.608 114.509 105.531C115.047 103.454 117.458 94.9823 117.458 94.9823L118.913 86.6352L111.44 85.6392Z" fill="#3EC57B"/>
<path d="M114.599 85.6392C114.599 85.6392 113.642 88.1292 114.311 93.1997C114.973 98.2703 116.264 103.873 118.053 110.109C119.842 116.345 120.668 118.96 121.625 118.751C122.582 118.541 123.743 118.337 123.29 116.549C122.837 114.761 121.421 107.449 121.795 103.59C122.169 99.7247 122.791 96.0293 121.88 92.1641C120.968 88.2989 119.389 85.724 119.389 85.724L114.599 85.6392Z" fill="#3EC57B"/>
<path d="M105.609 87.3313L105.337 87.3822C105.337 87.3822 104.737 86.8219 103.559 86.9125C102.387 87.0087 101.629 87.3992 102.512 88.0217C103.395 88.6442 104.488 89.0403 104.901 89.2667C105.314 89.493 105.439 90.6984 105.932 90.7494C106.418 90.8003 107.002 90.523 106.911 89.8382C106.815 89.1535 106.662 88.248 106.662 88.248L105.609 87.3313Z" fill="#E9F3FE"/>
<path d="M104.828 87.0879C104.941 87.5067 105.258 88.4121 105.847 88.5593C106.254 88.6611 106.566 88.8083 106.769 88.9271C106.707 88.5479 106.656 88.2537 106.656 88.2537L105.609 87.3312L105.337 87.3822C105.337 87.3822 105.162 87.2237 104.828 87.0879Z" fill="#92C1F8"/>
<path d="M108.989 71.2651L108.202 72.1366C108.202 72.1366 107.777 78.5144 107.29 80.7781C106.747 83.2737 105.343 87.3822 105.343 87.3822C105.343 87.3822 105.926 89.1252 107.505 87.9651C109.085 86.7994 110.489 82.1929 110.489 82.1929L108.989 71.2651Z" fill="#3A8FF3"/>
<path d="M112.686 67.7734C112.686 67.7734 108.989 69.1033 108.366 71.1406C107.743 73.1779 108.989 79.782 109.781 81.774C110.574 83.766 110.902 86.7201 113.274 87.1728C115.641 87.6312 118.138 87.1332 118.925 86.6352C119.712 86.1372 120.544 84.6432 120.714 82.8153C120.878 80.9874 123.29 72.6799 121.251 70.9765C119.213 69.2731 117.719 68.4865 117.181 68.4865C116.643 68.4865 114.356 69.9013 114.356 69.9013L112.686 67.7734Z" fill="#3A8FF3"/>
<path d="M114.599 74.6378C114.588 74.6378 114.582 74.6378 114.571 74.6378C114.48 74.6321 114.401 74.5869 114.345 74.519C114.26 74.4114 112.301 72.0516 111.831 68.1298L112.454 67.8525C112.81 70.8405 114.124 73.0589 114.639 73.8229C115.25 73.1608 116.977 71.4178 117.09 68.4015L117.679 68.6052C117.532 72.6684 114.916 74.4737 114.809 74.5642C114.752 74.6095 114.679 74.6378 114.599 74.6378Z" fill="#3EC57B"/>
<path d="M117.407 77.6315C117.158 79.0576 115.799 80.0083 114.373 79.7593C112.946 79.5103 111.995 78.1521 112.244 76.726C112.493 75.2999 113.852 74.3492 115.279 74.5982C116.705 74.8529 117.656 76.2054 117.407 77.6315Z" fill="#FFDC45"/>
<path d="M114.333 80.014C112.771 79.7424 111.723 78.2484 111.995 76.6865C112.267 75.1246 113.761 74.0777 115.324 74.3493C116.886 74.6209 117.934 76.1149 117.662 77.6768C117.385 79.2387 115.89 80.2857 114.333 80.014ZM115.233 74.8529C113.948 74.6266 112.72 75.4924 112.493 76.777C112.267 78.0617 113.133 79.2897 114.418 79.516C115.703 79.7424 116.932 78.8766 117.158 77.5919C117.385 76.3017 116.519 75.0737 115.233 74.8529Z" fill="#FFDF00"/>
<path opacity="0.3" d="M116.332 75.7131C115.93 75.549 115.703 75.7244 115.573 76.0187C115.675 75.7866 115.647 75.4075 115.273 75.2434C115.273 75.2434 115.799 75.5094 116.06 74.9321C115.799 75.5094 116.332 75.7131 116.332 75.7131Z" fill="white"/>
<path opacity="0.3" d="M116.728 78.6388C116.162 78.4068 115.85 78.6558 115.669 79.0633C115.816 78.7407 115.777 78.2087 115.256 77.9767C115.256 77.9767 115.992 78.3446 116.349 77.5466C115.986 78.3559 116.728 78.6388 116.728 78.6388Z" fill="white"/>
<path opacity="0.3" d="M113.778 77.4447C113.376 77.2806 113.156 77.456 113.025 77.7447C113.127 77.5126 113.099 77.1391 112.731 76.975C112.731 76.975 113.252 77.2353 113.507 76.6694C113.252 77.241 113.778 77.4447 113.778 77.4447Z" fill="white"/>
<path d="M109.866 60.7279C109.866 60.7279 110.07 63.6877 110.444 64.6044C110.817 65.5212 111.61 66.2569 112.561 66.1607C113.512 66.0645 115.335 65.3175 115.335 65.3175L115.398 62.437L115.256 59.1321L109.866 60.7279Z" fill="#E9F3FE"/>
<path d="M115.426 55.4197C114.277 54.8877 111.559 55.0462 109.408 56.1044C107.256 57.1627 107.132 58.7529 107.913 60.0601C108.694 61.3674 112.057 60.8694 112.991 60.5298C113.926 60.1903 115.047 59.6583 115.047 59.6583C115.047 59.6583 114.175 61.9333 114.577 63.4612C114.984 64.9892 115.545 66.4209 115.947 66.7322C116.354 67.0434 116.507 67.0887 116.507 67.0887V67.3547C116.507 67.3547 116.751 67.2641 116.796 67.349C116.841 67.4339 116.932 67.6376 116.971 68.0394C117.011 68.4412 116.988 68.4865 116.988 68.4865C116.988 68.4865 117.096 68.396 117.77 68.6506C118.443 68.9053 119.128 69.4033 119.768 69.8447C120.408 70.2861 121.229 70.9765 121.229 70.9765C121.229 70.9765 120.957 70.1673 120.334 68.7525C119.712 67.3377 119.4 65.5325 119.689 64.0158C119.978 62.4992 119.813 61.2768 118.857 59.3641C117.9 57.4513 117.005 57.9493 117.005 57.9493C117.005 57.9493 117.175 56.2289 115.426 55.4197Z" fill="#2D517E"/>
<path d="M110.806 77.6656C110.806 77.6656 109.459 76.8676 109.442 77.0374C109.43 77.2072 107.483 76.6356 107.483 76.6356C107.483 76.6356 106.894 75.4529 105.824 75.6057C104.754 75.7585 105.518 76.4828 105.518 76.4828C105.518 76.4828 103.514 75.1303 102.999 76.081C102.484 77.0318 103.208 78.1013 104.986 78.5201C106.764 78.9389 107.007 78.6559 107.007 78.6559L109.696 79.5501L110.806 77.6656Z" fill="#E9F3FE"/>
<path d="M110.806 77.6655C110.806 77.6655 109.459 76.8676 109.442 77.0373C109.436 77.0939 109.221 77.0656 108.932 77.009C108.881 77.5919 108.689 78.5936 107.998 78.5823C107.256 78.5653 105.705 78.6106 104.765 78.4691C104.839 78.4917 104.907 78.5087 104.986 78.5257C106.758 78.9444 107.007 78.6615 107.007 78.6615L109.696 79.5556L110.806 77.6655Z" fill="#92C1F8"/>
<path d="M121.246 70.9765C119.74 69.7145 118.528 68.9562 117.781 68.6506C117.668 69.5108 117.322 71.2425 116.337 72.7648C114.967 74.8813 111.972 77.0827 110.812 77.0827C109.645 77.0827 109.442 77.0431 109.442 77.0431C109.442 77.0431 109.651 78.373 109.278 78.9558C109.193 79.086 109.125 79.1935 109.068 79.2841C109.113 79.4935 109.164 79.6915 109.21 79.8839C110.387 80.3706 114.016 81.4345 117.339 77.875C119.576 75.4812 121.116 74.1456 122.05 73.4326C122.004 72.3121 121.778 71.4179 121.246 70.9765Z" fill="#3576C4"/>
<path d="M112.623 68.3338L112.686 67.7735C112.686 67.7735 112.663 67.1114 112.686 66.902C112.708 66.6927 113.059 67.0888 113.41 67.6887C113.761 68.2885 114.39 69.7882 114.305 69.9749C114.226 70.1617 112.623 68.3338 112.623 68.3338Z" fill="#3A8FF3"/>
<path d="M145.466 21.1029C143.614 31.1761 139.6 53.2296 139.362 54.3953C139.21 54.3783 139.051 54.3614 138.898 54.3444L138.921 54.135C138.615 53.1277 137.777 52.3637 137.398 51.379L137.404 51.2998C137.46 51.3055 137.511 51.3111 137.568 51.3168C139.017 45.9972 140.274 40.0042 141.372 34.0452C141.938 30.9723 142.454 27.9164 142.935 24.9567C143.252 23.3212 143.507 21.6971 143.705 20.0899C143.705 20.0899 143.705 20.0899 143.705 20.0842C144.248 20.4181 144.786 20.7463 145.33 21.0802L145.466 21.1029Z" fill="#92C1F8"/>
<path d="M143.71 20.0162C143.71 20.0105 143.71 20.0049 143.716 19.9992C144.056 18.2902 144.458 16.4849 144.797 14.7759H144.809C145.33 15.2286 145.851 15.6813 146.371 16.1341L146.377 16.2076C146.309 16.5245 145.969 18.3751 145.466 21.1084L145.324 21.0801C144.781 20.7462 144.243 20.418 143.699 20.0841C143.699 20.0728 143.705 20.0615 143.705 20.0502C143.71 20.0388 143.71 20.0275 143.71 20.0162Z" fill="#3783DC"/>
<path d="M138.921 54.1351L138.898 54.3445C125.231 52.7769 109.883 50.1228 96.5732 46.8292L96.1316 46.4671C95.3673 45.8219 94.2407 44.7127 93.5726 43.9771C107.749 47.2423 122.916 49.9644 137.409 51.3056L137.404 51.3848C137.783 52.3582 138.615 53.1278 138.921 54.1351Z" fill="#92C1F8"/>
<path d="M142.935 24.9568C142.459 27.9108 141.938 30.9724 141.372 34.0453C140.28 40.0043 139.017 45.9973 137.568 51.3169C137.511 51.3112 137.46 51.3055 137.404 51.2999C122.91 49.9587 107.743 47.2366 93.567 43.9713C93.6802 42.8565 93.7878 41.736 93.901 40.6212L93.9349 40.508C99.8625 42.2397 105.892 43.5752 111.978 44.6901C119.327 46.0369 126.754 47.0669 134.154 48.0912C138.321 41.2437 141.361 33.0323 142.935 24.9568Z" fill="#C9E0FC"/>
<path d="M143.716 19.9993C143.716 20.005 143.716 20.0107 143.711 20.0163H143.705L99.8059 12.0427L100.621 6.79102C107.222 7.71911 113.824 8.6472 120.425 9.57529C128.464 10.7015 136.979 12.569 144.803 14.7477C144.803 14.759 144.798 14.7647 144.798 14.776C144.458 16.485 144.056 18.2903 143.716 19.9993Z" fill="#3A8FF3"/>
<path d="M143.699 20.0843C143.456 21.6632 143.201 23.2987 142.929 24.9568C141.361 33.0323 138.315 41.2437 134.148 48.0968C126.749 47.0725 119.321 46.0426 111.972 44.6957C105.886 43.5809 99.8568 42.2453 93.9293 40.5137C92.2422 40.0213 90.5607 39.495 88.8906 38.9291L88.2848 38.7537C91.6703 35.7374 95.6843 29.6369 97.1167 25.336C98.549 21.035 99.1718 16.5134 99.6417 12.0088L143.699 20.0108H143.705C143.705 20.0221 143.699 20.0334 143.699 20.0447C143.699 20.0504 143.699 20.056 143.699 20.0617C143.705 20.0673 143.705 20.073 143.699 20.0843Z" fill="white"/>
<path d="M108.043 34.1925C107.256 32.9644 107.03 31.312 107.364 29.2294L107.738 26.9036C108.072 24.821 108.802 23.3214 109.934 22.4102C111.061 21.4935 112.567 21.1879 114.441 21.4878C116.303 21.7877 117.628 22.5461 118.415 23.7684C119.202 24.9908 119.428 26.6376 119.094 28.7258L118.721 31.0517C118.387 33.1342 117.656 34.6339 116.524 35.5563C115.392 36.4788 113.897 36.79 112.035 36.4901C110.155 36.1845 108.825 35.4205 108.043 34.1925ZM114.701 31.3969L115.386 27.1299C115.647 25.5001 115.177 24.589 113.971 24.3966C113.376 24.3004 112.89 24.4362 112.51 24.7984C112.131 25.1606 111.882 25.7434 111.752 26.547L111.067 30.814C110.806 32.4551 111.282 33.3776 112.499 33.57C113.705 33.768 114.435 33.0437 114.701 31.3969Z" fill="#3576C4"/>
<path d="M123.052 26.247L121.031 25.9245L121.914 22.8799L127.428 23.7627L125.09 38.3745L121.206 37.752L123.052 26.247Z" fill="#3576C4"/>
<path d="M97.4847 84.9658C97.4847 84.9658 95.5032 89.8496 90.8381 93.2281C86.1731 96.6066 85.8277 103.946 85.8277 103.946L94.535 110.143C94.535 110.143 91.9195 104.467 95.0786 102.713C98.2376 100.958 100.519 94.026 100.497 91.6832C100.474 89.3403 97.2016 84.4282 97.2016 84.4282" fill="#61D093"/>
<path d="M90.0172 98.6779C90.238 98.2479 90.4531 97.897 90.6683 97.6367C91.0193 97.2009 91.3703 96.9463 91.7156 96.8727C92.061 96.7991 92.412 96.901 92.7687 97.1839C93.1537 97.4952 93.3292 97.8517 93.2952 98.2479L94.8238 98.6327L94.1557 99.4646L92.9272 99.1363C92.8989 99.1759 92.8479 99.2439 92.78 99.3231L92.6498 99.4872L93.5556 100.212L92.9215 101.004L90.0172 98.6779ZM92.2478 98.7741C92.4573 98.5138 92.4063 98.2592 92.1006 98.0102C91.7949 97.7612 91.5345 97.7668 91.325 98.0328C91.2741 98.1007 91.2231 98.1913 91.1721 98.3045L92.0553 99.0118L92.2478 98.7741Z" fill="white"/>
<path d="M92.9612 96.85C92.9952 96.6237 93.0518 96.4086 93.1367 96.2049C93.2216 96.0012 93.3292 95.8144 93.4594 95.6503C93.6349 95.4296 93.833 95.2711 94.0482 95.1749C94.2633 95.0787 94.4898 95.0561 94.7162 95.0957C94.9484 95.1353 95.1691 95.2428 95.3843 95.4183L95.5768 95.5711C95.9165 95.8484 96.109 96.1483 96.1429 96.4878C96.1769 96.8217 96.0523 97.1669 95.7749 97.5121C95.741 97.5518 95.6843 97.6197 95.5994 97.7102L96.3581 98.3214L95.8202 99.1533L92.9612 96.85ZM95.2767 96.7482C95.2711 96.6633 95.2258 96.584 95.1352 96.5105L94.5804 96.0691C94.4898 95.9955 94.4049 95.9672 94.3143 95.9785C94.2293 95.9898 94.1444 96.0464 94.0708 96.1426C94.0029 96.2275 93.9633 96.3068 93.9463 96.3803L94.9653 97.1952C95.0333 97.1613 95.1012 97.1047 95.1692 97.0198C95.2484 96.9293 95.2824 96.8387 95.2767 96.7482Z" fill="white"/>
<path d="M140.008 71.5707C140.008 71.5707 141.27 68.4638 144.237 66.3134C147.204 64.1629 147.424 59.4942 147.424 59.4942L141.887 55.5554C141.887 55.5554 143.552 59.1659 141.542 60.2808C139.532 61.3956 138.083 65.8097 138.094 67.298C138.106 68.7864 140.189 71.9102 140.189 71.9102" fill="#61D093"/>
<path d="M144.758 62.8443C144.616 63.1216 144.48 63.3423 144.345 63.5064C144.124 63.7837 143.897 63.9478 143.677 63.9931C143.456 64.0383 143.235 63.9761 143.008 63.795C142.759 63.5969 142.652 63.3706 142.674 63.1159L141.701 62.8726L142.125 62.3406L142.907 62.55C142.924 62.5217 142.958 62.4821 142.997 62.4311L143.082 62.3293L142.505 61.8652L142.907 61.3616L144.758 62.8443ZM143.337 62.7877C143.201 62.9518 143.235 63.1159 143.433 63.2743C143.631 63.4328 143.795 63.4271 143.926 63.263C143.96 63.2234 143.994 63.1612 144.022 63.0876L143.461 62.6349L143.337 62.7877Z" fill="white"/>
<path d="M142.884 64.0101C142.861 64.1516 142.827 64.2874 142.771 64.4232C142.714 64.5534 142.646 64.6722 142.561 64.7741C142.448 64.9156 142.323 65.0174 142.188 65.074C142.052 65.1363 141.91 65.1532 141.763 65.1249C141.616 65.0966 141.474 65.0287 141.338 64.9212L141.214 64.825C140.999 64.6496 140.874 64.4572 140.857 64.2421C140.834 64.0271 140.914 63.812 141.089 63.5913C141.112 63.563 141.146 63.5234 141.197 63.4668L140.716 63.082L141.061 62.55L142.884 64.0101ZM141.412 64.0723C141.418 64.1289 141.446 64.1799 141.503 64.2251L141.854 64.5081C141.91 64.5534 141.967 64.5703 142.023 64.5647C142.08 64.559 142.131 64.5194 142.176 64.4628C142.222 64.4062 142.244 64.361 142.255 64.31L141.604 63.7894C141.559 63.812 141.519 63.846 141.474 63.9026C141.429 63.9592 141.406 64.0158 141.412 64.0723Z" fill="white"/>
<path d="M33.7649 23.2646C33.7649 23.2646 29.4283 30.3668 21.2984 34.447C13.1686 38.5272 10.7568 49.868 10.7568 49.868L22.7421 61.7408C22.7421 61.7408 20.1152 52.2278 25.4822 50.2981C30.8493 48.3683 36.1711 38.1537 36.7372 34.4979C37.3034 30.8421 33.4592 22.3591 33.4592 22.3591" fill="#61D093"/>
<path d="M18.6319 42.7262C19.0848 42.1094 19.5151 41.6227 19.9114 41.2662C20.5681 40.6719 21.1795 40.3664 21.74 40.3381C22.3005 40.3098 22.8213 40.5644 23.2969 41.0964C23.8234 41.6793 24.0046 42.2791 23.8461 42.8903L26.1276 43.8807L24.8708 45.0068L23.0421 44.1806C22.9855 44.2372 22.8949 44.3221 22.7704 44.4352L22.527 44.656L23.7498 46.0198L22.5609 47.0894L18.6319 42.7262ZM22.0797 43.4449C22.4703 43.094 22.459 42.6866 22.0401 42.2225C21.6211 41.7585 21.2192 41.7019 20.8285 42.0584C20.7266 42.149 20.6247 42.2735 20.5171 42.4432L21.7174 43.7731L22.0797 43.4449Z" fill="white"/>
<path d="M23.6762 40.6268C23.7838 40.2872 23.931 39.9647 24.1178 39.6647C24.3047 39.3648 24.5198 39.1045 24.7632 38.8838C25.0973 38.5838 25.4426 38.3914 25.8049 38.2952C26.1673 38.2047 26.524 38.2217 26.8693 38.3462C27.2146 38.4707 27.5374 38.697 27.8317 39.0196L28.0922 39.3082C28.5564 39.8232 28.7715 40.3495 28.7376 40.8814C28.7036 41.4134 28.4262 41.9114 27.9053 42.3811C27.8431 42.4377 27.7355 42.5282 27.5826 42.6471L28.6074 43.7902L27.5543 44.9503L23.6762 40.6268ZM27.3166 41.0625C27.3279 40.9267 27.2769 40.7909 27.1524 40.6551L26.4051 39.8232C26.2862 39.6874 26.156 39.6195 26.0144 39.6195C25.8785 39.6195 25.737 39.6817 25.5955 39.8062C25.4709 39.9194 25.3803 40.0326 25.3407 40.1457L26.7221 41.6794C26.8353 41.6454 26.9599 41.5775 27.0844 41.4587C27.226 41.3342 27.3052 41.1983 27.3166 41.0625Z" fill="white"/>
<defs>
<linearGradient id="paint0_linear" x1="-15.2853" y1="-0.158188" x2="112.655" y2="141.336" gradientUnits="userSpaceOnUse">
<stop offset="1.11884e-07" stop-color="white" stop-opacity="0"/>
<stop offset="1" stop-color="#F1F2F2"/>
</linearGradient>
<linearGradient id="paint1_linear" x1="14.9905" y1="-27.5338" x2="142.931" y2="113.961" gradientUnits="userSpaceOnUse">
<stop offset="1.11884e-07" stop-color="white" stop-opacity="0"/>
<stop offset="1" stop-color="#F1F2F2"/>
</linearGradient>
</defs>
</svg>
