<svg width="25" height="19" viewBox="0 0 25 19" fill="none" xmlns="http://www.w3.org/2000/svg">
<path d="M5.81042 8.24935C5.60444 8.24935 5.36902 8.24935 5.13361 8.27878C5.781 6.74858 7.16406 5.24782 9.54763 3.45278L6.95807 0.657229C2.80889 3.68819 0.543021 8.24935 0.543021 12.8105C0.543021 16.3417 2.66175 18.2545 5.66329 18.2545C8.66483 18.2545 10.813 16.2829 10.813 13.2813C10.813 10.3681 8.75311 8.24935 5.81042 8.24935ZM19.5233 8.24935C19.2879 8.24935 19.0525 8.24935 18.8171 8.27878C19.4645 6.74858 20.8475 5.24782 23.2311 3.45278L20.6415 0.657229C16.4924 3.68819 14.2265 8.24935 14.2265 12.8105C14.2265 16.3417 16.3452 18.2545 19.3468 18.2545C22.3483 18.2545 24.4965 16.2829 24.4965 13.2813C24.4965 10.3681 22.4366 8.24935 19.5233 8.24935Z" fill="#3B8EF3"/>
</svg>
