<svg width="30" height="30" viewBox="0 0 30 30" fill="none" xmlns="http://www.w3.org/2000/svg">
<path fill-rule="evenodd" clip-rule="evenodd" d="M0 15C0 6.717 6.717 0 15 0C23.283 0 30 6.717 30 15C30 23.283 23.283 30 15 30C6.717 30 0 23.283 0 15ZM6.98798 22.6757H10.6412V11.6851H6.98798V22.6757ZM8.8147 10.1843H8.79089C7.565 10.1843 6.77216 9.34044 6.77216 8.28575C6.77216 7.20726 7.58926 6.38672 8.83896 6.38672C10.0887 6.38672 10.8577 7.20726 10.8815 8.28575C10.8815 9.34044 10.0887 10.1843 8.8147 10.1843ZM20.1611 22.6759H23.8138V16.3738C23.8138 12.9981 22.0116 11.4272 19.6081 11.4272C17.6699 11.4272 16.8013 12.4925 16.3159 13.2414V11.6852H12.6629C12.7107 12.7163 12.6629 22.6759 12.6629 22.6759H16.3159V16.5382C16.3159 16.2097 16.3394 15.8815 16.436 15.6467C16.7001 14.9905 17.3012 14.3107 18.3103 14.3107C19.6321 14.3107 20.1611 15.3185 20.1611 16.7961V22.6759Z" fill="white"/>
</svg>
