<svg width="50" height="50" viewBox="0 0 50 50" fill="none" xmlns="http://www.w3.org/2000/svg">
<path opacity="0.4" fill-rule="evenodd" clip-rule="evenodd" d="M19.0978 18.7501L20.4853 10.4167H14.2645L12.877 18.7501H13.5415H19.0978Z" fill="#3B8EF3"/>
<path fill-rule="evenodd" clip-rule="evenodd" d="M41.667 33.3333H37.5003H31.2503H27.0837H22.917H18.7503H12.5003H8.33366V28.125C8.33366 25.2542 10.6691 22.9167 13.542 22.9167H36.4587C39.3316 22.9167 41.667 25.2542 41.667 28.125V33.3333ZM37.5003 38.5417C37.5003 40.2646 36.0982 41.6667 34.3753 41.6667C32.6524 41.6667 31.2503 40.2646 31.2503 38.5417V37.5H37.5003V38.5417ZM18.7503 38.5417C18.7503 40.2646 17.3482 41.6667 15.6253 41.6667C13.9024 41.6667 12.5003 40.2646 12.5003 38.5417V37.5H18.7503V38.5417ZM12.8774 18.75L14.2649 10.4167H35.7357L37.1232 18.75H36.4587H13.542H12.8774ZM41.6107 20.3125L39.8441 9.73125C39.5107 7.72292 37.7712 6.25 35.7337 6.25H14.267C12.2295 6.25 10.4899 7.72292 10.1566 9.73125L8.38991 20.3125C5.85449 21.9958 4.16699 24.8708 4.16699 28.125V33.3333C4.16699 35.6333 6.03366 37.5 8.33366 37.5V38.3313C8.33366 41.8104 10.6857 44.9771 14.0941 45.6771C18.7816 46.6354 22.917 43.0625 22.917 38.5417V37.5H27.0837V38.3313C27.0837 41.8104 29.4357 44.9771 32.8441 45.6771C37.5316 46.6354 41.667 43.0625 41.667 38.5417V37.5C43.967 37.5 45.8337 35.6333 45.8337 33.3333V28.125C45.8337 24.8708 44.1462 21.9958 41.6107 20.3125Z" fill="#3B8EF3"/>
<path opacity="0.4" fill-rule="evenodd" clip-rule="evenodd" d="M8.33301 28.1251V33.3334H12.4997H18.7497V28.1251C18.7497 29.8522 17.3497 31.2501 15.6247 31.2501C13.8997 31.2501 12.4997 29.8522 12.4997 28.1251C12.4997 26.398 13.8997 25.0001 15.6247 25.0001C17.3497 25.0001 18.7497 26.398 18.7497 28.1251V22.9167H13.5413C10.6684 22.9167 8.33301 25.2542 8.33301 28.1251Z" fill="#3B8EF3"/>
<path fill-rule="evenodd" clip-rule="evenodd" d="M34.375 25C32.65 25 31.25 26.3979 31.25 28.125C31.25 29.8521 32.65 31.25 34.375 31.25C36.1 31.25 37.5 29.8521 37.5 28.125C37.5 26.3979 36.1 25 34.375 25Z" fill="#18BA62"/>
<path fill-rule="evenodd" clip-rule="evenodd" d="M15.625 25C13.9 25 12.5 26.3979 12.5 28.125C12.5 29.8521 13.9 31.25 15.625 31.25C17.35 31.25 18.75 29.8521 18.75 28.125C18.75 26.3979 17.35 25 15.625 25Z" fill="#18BA62"/>
<path fill-rule="evenodd" clip-rule="evenodd" d="M28.1247 27.0833H21.8747C21.2997 27.0833 20.833 27.5499 20.833 28.1249C20.833 28.6999 21.2997 29.1666 21.8747 29.1666H28.1247C28.6997 29.1666 29.1663 28.6999 29.1663 28.1249C29.1663 27.5499 28.6997 27.0833 28.1247 27.0833Z" fill="#18BA62"/>
</svg>
