<svg width="59" height="50" viewBox="0 0 59 50" fill="none" xmlns="http://www.w3.org/2000/svg">
<path fill-rule="evenodd" clip-rule="evenodd" d="M6.39917 37.995C6.39968 37.117 6.68605 36.2631 7.21492 35.5626C7.74379 34.8622 8.48632 34.3533 9.33002 34.1132V30.0113H4.60981C4.48485 30.0113 4.36502 30.061 4.27666 30.1495C4.18831 30.2379 4.13867 30.3579 4.13867 30.4829V45.3864C4.13867 45.6468 4.34971 45.858 4.60981 45.858H9.33002V41.8768C7.63937 41.3952 6.39917 39.8418 6.39917 37.995ZM17.5905 23.9371C17.4834 23.9372 17.3772 23.9162 17.2782 23.8752C17.1791 23.8341 17.0891 23.774 17.0133 23.6982C16.9375 23.6223 16.8774 23.5323 16.8363 23.4332C16.7953 23.3341 16.7742 23.2278 16.7742 23.1205V22.8614C16.7742 22.6448 16.8601 22.4371 17.0131 22.2839C17.1661 22.1308 17.3736 22.0448 17.5899 22.0448H19.1724V19.018H17.5905C17.3741 19.018 17.1666 18.932 17.0135 18.7789C16.8604 18.6258 16.7743 18.4181 16.7742 18.2014V17.9417C16.7742 17.7251 16.8601 17.5174 17.0131 17.3642C17.1661 17.2111 17.3736 17.1251 17.5899 17.1251H19.1724V14.0983H17.5905C17.4834 14.0984 17.3772 14.0773 17.2782 14.0363C17.1791 13.9953 17.0891 13.9352 17.0133 13.8594C16.9375 13.7835 16.8774 13.6935 16.8363 13.5944C16.7953 13.4953 16.7742 13.389 16.7742 13.2817V13.0226C16.7742 12.806 16.8601 12.5983 17.0131 12.4451C17.1661 12.292 17.3736 12.206 17.5899 12.206H19.1724V4.76782H13.7706C13.5841 4.76782 13.4051 4.84201 13.2732 4.97407C13.1413 5.10613 13.0672 5.28523 13.0672 5.47199V25.8692H19.1724V23.9366H17.5905V23.9371Z" fill="#D2E4F5"/>
<path fill-rule="evenodd" clip-rule="evenodd" d="M44.4533 7.28613H25.2414C25.0251 7.28613 24.8176 7.37217 24.6646 7.52531C24.5116 7.67845 24.4257 7.88616 24.4257 8.10273V8.36191C24.4257 8.46915 24.4468 8.57534 24.4878 8.67441C24.5288 8.77348 24.5889 8.8635 24.6646 8.93933C24.7404 9.01516 24.8303 9.07531 24.9293 9.11635C25.0282 9.15739 25.1343 9.17851 25.2414 9.17851H44.4533C44.5606 9.17866 44.6668 9.15766 44.7659 9.11669C44.865 9.07572 44.9551 9.01559 45.0309 8.93975C45.1068 8.86391 45.167 8.77383 45.2081 8.67468C45.2491 8.57553 45.2703 8.46925 45.2703 8.36191V8.10273C45.2703 7.99544 45.2492 7.88921 45.2081 7.7901C45.1671 7.69098 45.107 7.60094 45.0311 7.5251C44.9553 7.44926 44.8653 7.38913 44.7663 7.34812C44.6672 7.30712 44.5611 7.28606 44.4539 7.28613H44.4533ZM25.9479 33.9569H17.3309C17.1831 33.9569 17.0414 34.0156 16.9369 34.1201C16.8324 34.2246 16.7736 34.3664 16.7734 34.5143V35.2913C16.7734 35.599 17.0229 35.8493 17.3309 35.8493H25.9479C26.0957 35.8493 26.2375 35.7905 26.342 35.6858C26.4466 35.5812 26.5053 35.4393 26.5053 35.2913V34.5143C26.5051 34.3664 26.4463 34.2246 26.3418 34.1201C26.2373 34.0156 26.0956 33.9569 25.9479 33.9569ZM25.9479 36.7842H17.3309C17.183 36.7842 17.0412 36.843 16.9367 36.9477C16.8322 37.0523 16.7734 37.1942 16.7734 37.3422V38.1192C16.7734 38.4269 17.0229 38.6772 17.3309 38.6772H25.9479C26.0957 38.6772 26.2375 38.6184 26.342 38.5138C26.4466 38.4091 26.5053 38.2672 26.5053 38.1192V37.3422C26.5053 37.1942 26.4466 37.0523 26.342 36.9477C26.2375 36.843 26.0957 36.7842 25.9479 36.7842ZM25.9479 39.6115H17.3309C17.183 39.6115 17.0412 39.6703 16.9367 39.775C16.8322 39.8796 16.7734 40.0216 16.7734 40.1696V40.9465C16.7734 41.2548 17.0229 41.5045 17.3309 41.5045H25.9479C26.0957 41.5045 26.2375 41.4457 26.342 41.3411C26.4466 41.2364 26.5053 41.0945 26.5053 40.9465V40.1696C26.5053 40.0216 26.4466 39.8796 26.342 39.775C26.2375 39.6703 26.0957 39.6115 25.9479 39.6115ZM16.7734 13.0224V13.281C16.7734 13.4976 16.8594 13.7053 17.0124 13.8584C17.1654 14.0116 17.3728 14.0976 17.5892 14.0976H49.5797C49.796 14.0976 50.0035 14.0116 50.1565 13.8584C50.3095 13.7053 50.3954 13.4976 50.3954 13.281V13.0224C50.3955 12.9151 50.3745 12.8089 50.3335 12.7098C50.2925 12.6106 50.2325 12.5205 50.1567 12.4446C50.0809 12.3687 49.991 12.3085 49.892 12.2675C49.793 12.2264 49.6868 12.2052 49.5797 12.2052H17.5904C17.4832 12.2052 17.3771 12.2262 17.278 12.2672C17.179 12.3082 17.089 12.3684 17.0132 12.4442C16.9374 12.52 16.8772 12.6101 16.8362 12.7092C16.7951 12.8083 16.774 12.9146 16.774 13.0218L16.7734 13.0224ZM16.7734 17.9415V18.2001C16.7734 18.3074 16.7944 18.4137 16.8354 18.5128C16.8763 18.612 16.9364 18.702 17.0122 18.7779C17.0879 18.8538 17.1779 18.914 17.2769 18.9551C17.3759 18.9962 17.482 19.0173 17.5892 19.0173H49.5797C49.796 19.0173 50.0035 18.9313 50.1565 18.7781C50.3095 18.625 50.3954 18.4173 50.3954 18.2007V17.9415C50.3954 17.725 50.3095 17.5173 50.1565 17.3641C50.0035 17.211 49.796 17.1249 49.5797 17.1249H17.5904C17.4832 17.1249 17.3771 17.1459 17.278 17.1869C17.179 17.2279 17.089 17.2881 17.0132 17.3639C16.9374 17.4397 16.8772 17.5298 16.8362 17.6289C16.7951 17.728 16.774 17.8343 16.774 17.9415H16.7734ZM16.7734 22.8612V23.1198C16.7734 23.3364 16.8594 23.5441 17.0124 23.6973C17.1654 23.8504 17.3728 23.9364 17.5892 23.9364H34.7392C34.9556 23.9364 35.1631 23.8504 35.316 23.6973C35.469 23.5441 35.555 23.3364 35.555 23.1198V22.8612C35.5551 22.754 35.534 22.6477 35.4931 22.5486C35.4521 22.4494 35.392 22.3593 35.3163 22.2834C35.2405 22.2075 35.1505 22.1473 35.0515 22.1063C34.9525 22.0652 34.8464 22.0441 34.7392 22.0441H17.5898C17.4826 22.044 17.3765 22.065 17.2774 22.106C17.1784 22.147 17.0884 22.2072 17.0126 22.283C16.9368 22.3589 16.8766 22.4489 16.8356 22.548C16.7946 22.6471 16.7734 22.7534 16.7734 22.8607" fill="#3A8FF3"/>
<path fill-rule="evenodd" clip-rule="evenodd" d="M45.2695 37.9336C43.8407 37.9336 42.5124 37.5087 41.3969 36.7844H40.9678V44.6593L45.4959 41.2964L49.5706 44.6593V36.7844H49.142C47.9897 37.5351 46.6443 37.9343 45.2695 37.9336Z" fill="#33B567"/>
<mask id="mask0" mask-type="alpha" maskUnits="userSpaceOnUse" x="0" y="0" width="59" height="50">
<path d="M0 0H59V50H0V0Z" fill="white"/>
</mask>
<g mask="url(#mask0)">
<path fill-rule="evenodd" clip-rule="evenodd" d="M54.2366 31.3129C54.2362 31.4994 54.1618 31.678 54.03 31.8097C53.8981 31.9414 53.7194 32.0153 53.5332 32.0153H52.2859C52.3545 31.6201 52.3976 31.2153 52.3976 30.7999C52.3976 26.8589 49.2067 23.6653 45.2703 23.6653C41.3333 23.6653 38.143 26.8595 38.143 30.7999C38.143 31.2153 38.1861 31.6201 38.2541 32.0153H33.5469V30.4827C33.5469 27.9383 31.4791 25.869 28.9378 25.869H13.0664V5.47179C13.0668 5.28524 13.141 5.10644 13.2729 4.97464C13.4048 4.84283 13.5835 4.76881 13.7699 4.76881H53.5332C53.7195 4.76881 53.8983 4.84283 54.0302 4.97464C54.1621 5.10644 54.2363 5.28524 54.2366 5.47179V31.3129ZM45.2703 35.9445C45.1083 35.9445 44.9529 35.88 44.8383 35.7654C44.7237 35.6507 44.6594 35.4951 44.6594 35.3329C44.6594 35.1707 44.7237 35.0152 44.8383 34.9005C44.9529 34.7858 45.1083 34.7214 45.2703 34.7214C46.3088 34.7201 47.3045 34.3065 48.0388 33.5714C48.7731 32.8362 49.1861 31.8395 49.1872 30.7999C49.1872 30.6376 49.2516 30.482 49.3662 30.3673C49.4808 30.2525 49.6363 30.1881 49.7984 30.1881C49.9605 30.1881 50.116 30.2525 50.2306 30.3673C50.3452 30.482 50.4096 30.6376 50.4096 30.7999C50.4096 33.6367 48.1036 35.9445 45.2703 35.9445ZM41.3523 30.7999C41.3523 30.9621 41.2879 31.1177 41.1733 31.2323C41.0588 31.347 40.9034 31.4115 40.7413 31.4115C40.5793 31.4115 40.4239 31.347 40.3093 31.2323C40.1947 31.1177 40.1304 30.9621 40.1304 30.7999C40.1304 27.9631 42.4358 25.6548 45.2703 25.6548C45.4324 25.6548 45.5879 25.7192 45.7025 25.834C45.8171 25.9487 45.8815 26.1043 45.8815 26.2666C45.8815 26.4289 45.8171 26.5845 45.7025 26.6993C45.5879 26.814 45.4324 26.8785 45.2703 26.8785C44.2316 26.8796 43.2358 27.293 42.5012 28.0282C41.7667 28.7634 41.3535 29.7602 41.3523 30.7999ZM29.409 32.0153V45.3862C29.409 45.6466 29.1979 45.8578 28.9378 45.8578H4.60908C4.48413 45.8578 4.36429 45.8082 4.27594 45.7197C4.18758 45.6313 4.13795 45.5113 4.13795 45.3862V30.4827C4.13795 30.2224 4.34898 30.0111 4.60908 30.0111H28.9378C29.1979 30.0111 29.409 30.2224 29.409 30.4827V32.0153ZM53.5332 0H13.7705C10.7557 0 8.30367 2.45452 8.30367 5.47179V25.869H4.60908C2.06838 25.869 0 27.9389 0 30.4827V45.3862C0 47.9301 2.06779 50 4.60908 50H28.9378C31.4791 50 33.5469 47.9301 33.5469 45.3862V36.7841H41.3972C42.5491 37.5352 43.8944 37.9346 45.2691 37.9339C46.6442 37.9349 47.99 37.5354 49.1422 36.7841H53.5332C56.5474 36.7841 58.9994 34.3296 58.9994 31.3129V5.47179C58.9994 2.45393 56.5474 0 53.5332 0Z" fill="#3A8FF3"/>
</g>
<path fill-rule="evenodd" clip-rule="evenodd" d="M6.39746 37.995C6.39746 39.8419 7.63766 41.3952 9.32831 41.8768C9.68723 41.9796 10.0586 42.0322 10.432 42.0331C11.5018 42.0331 12.5279 41.6076 13.2844 40.8504C14.0409 40.0931 14.4659 39.066 14.4659 37.995C14.4659 36.9241 14.0409 35.897 13.2844 35.1397C12.5279 34.3825 11.5018 33.957 10.432 33.957C10.0489 33.957 9.67944 34.0132 9.32831 34.1132C8.48461 34.3533 7.74208 34.8622 7.21321 35.5626C6.68434 36.2631 6.39796 37.117 6.39746 37.995Z" fill="#33B567"/>
<path fill-rule="evenodd" clip-rule="evenodd" d="M49.7999 30.188C49.4623 30.188 49.1886 30.462 49.1886 30.7998C49.1875 31.8394 48.7745 32.8361 48.0402 33.5713C47.3059 34.3064 46.3103 34.72 45.2718 34.7213C45.1097 34.7213 44.9542 34.7857 44.8396 34.9005C44.7249 35.0152 44.6605 35.1709 44.6605 35.3331C44.6605 35.4954 44.7249 35.651 44.8396 35.7658C44.9542 35.8805 45.1097 35.945 45.2718 35.945C48.1051 35.945 50.4111 33.6366 50.4111 30.7998C50.4111 30.462 50.1374 30.188 49.7999 30.188ZM45.8824 26.2671C45.8824 25.9292 45.6093 25.6553 45.2718 25.6553C42.4373 25.6553 40.1318 27.963 40.1318 30.7998C40.1318 30.962 40.1962 31.1176 40.3108 31.2323C40.4253 31.347 40.5807 31.4114 40.7428 31.4114C40.9048 31.4114 41.0602 31.347 41.1748 31.2323C41.2893 31.1176 41.3537 30.962 41.3537 30.7998C41.355 29.7601 41.7682 28.7633 42.5027 28.0281C43.2372 27.293 44.2331 26.8795 45.2718 26.8784C45.6099 26.8784 45.883 26.605 45.883 26.2671" fill="#D3E4F5"/>
</svg>
