<svg width="226" height="214" viewBox="0 0 226 214" fill="none" xmlns="http://www.w3.org/2000/svg">
<g clip-path="url(#clip0)">
<path d="M77.4146 36.4365H152.475C189.973 36.4365 220.363 61.936 220.363 93.3824V157.054C220.363 188.508 189.964 214 152.475 214H77.4146C39.9166 214 9.52637 188.5 9.52637 157.054V93.3824C9.52637 61.9283 39.9166 36.4365 77.4146 36.4365Z" fill="#E0E3ED"/>
<path d="M109.984 66.5254C106.876 62.3758 103.032 58.5424 100.945 53.9608C98.8575 49.3869 98.931 43.6407 103.06 40.1775C103.722 39.6222 104.476 39.1362 105.34 38.8431C107.666 38.0487 111.942 38.9511 113.956 40.4783C116.439 42.3603 117.901 45.2527 119.059 47.1733C119.206 47.397 119.354 47.6206 119.482 47.852L119.492 47.8597C120.218 49.117 120.705 50.4822 120.898 51.8706C121.11 53.4132 121.009 55.0638 121.965 56.3904C122.921 57.7171 125.533 58.3187 126.553 57.0229C126.958 56.5138 126.995 55.8659 126.995 55.2566C127.114 46.9573 124.678 38.8046 123.335 30.5901C121.993 22.3757 121.836 13.6367 126.195 6.18586C127.85 3.36287 130.498 0.593862 134.195 0.069371C137.064 -0.339423 140.043 0.755837 142.02 2.54528C143.997 4.33472 145.045 6.73349 145.459 9.14769C146.305 14.1458 144.576 19.2287 142.038 23.8026C139.5 28.3842 136.162 32.6187 133.496 37.1462C132.742 38.4343 132.025 39.7841 131.96 41.2111C131.887 42.6457 132.595 44.1883 134.084 44.8825C135.16 45.3838 136.475 45.3838 137.689 45.191C141.532 44.574 144.622 42.26 147.988 40.5786C152.695 38.2338 158.534 37.0923 163.721 38.55C168.907 40.0078 172.998 44.5354 172.125 49.0707C171.169 53.9917 165.118 57.1232 159.279 58.0719C153.44 59.0206 147.371 58.4653 141.532 59.4217C138.011 60.0002 134.103 61.6353 133.579 64.6126C133.091 67.3507 135.933 69.8806 139.114 70.6288C142.296 71.377 145.679 70.7908 148.898 70.1815C152.116 69.5721 155.472 68.9319 158.682 69.5798C161.973 70.2432 164.824 72.3103 166.074 74.9482C167.325 77.586 166.948 80.733 165.091 83.1086C161.992 87.0809 155.711 88.3227 150.056 88.3535C144.392 88.3844 138.627 87.5436 133.137 88.7315C131.914 88.9937 130.673 89.3871 129.763 90.1275C127.068 92.3335 128.567 96.0512 128.88 99.2058C129.275 103.209 127.216 107.335 123.537 109.904C119.859 112.472 114.646 113.429 110.03 112.372L108.08 112.758C104.954 112.58 102.6 109.942 102.416 107.32C102.232 104.69 103.74 102.175 105.644 100.085C107.547 97.9949 109.864 96.1823 111.703 94.0535C114.462 90.8526 116.062 86.9652 116.246 83.0238C116.393 79.7149 115.584 76.5371 114.333 73.4132C113.073 71.0453 111.639 68.7314 109.984 66.5254Z" fill="#61D093"/>
<path d="M136.309 5.89276C132.089 17.1539 129.817 28.9009 129.606 40.702C129.551 43.6638 129.624 46.6334 129.836 49.5875C130.047 52.5956 130.47 55.5883 130.755 58.5964C131.04 61.5659 130.976 64.5046 130.498 67.4587C130.011 70.4591 129.229 73.4132 128.484 76.3751C126.755 83.232 125.027 90.0813 123.289 96.9382C123.077 97.7867 121.523 97.4241 121.744 96.5834C123.28 90.4978 124.815 84.4121 126.351 78.3265C127.859 72.3566 129.661 66.3866 129.275 60.2393C129.091 57.2157 128.604 54.1999 128.346 51.1764C128.098 48.2223 127.969 45.2527 127.978 42.2909C127.988 36.4598 128.512 30.6364 129.505 24.867C130.627 18.3186 132.392 11.855 134.764 5.53796C135.068 4.71266 136.622 5.05975 136.309 5.89276Z" fill="#89DCAE"/>
<path d="M155.62 47.343C153.082 46.8725 150.507 48.1606 148.3 49.0399C145.928 49.9886 143.574 50.9759 141.247 52.0017C140.337 52.4028 139.519 51.2459 140.438 50.8371C143.022 49.6955 145.643 48.6003 148.291 47.5667C150.728 46.6103 153.293 45.5305 156.061 46.0472C157.054 46.2246 156.622 47.5282 155.62 47.343Z" fill="#89DCAE"/>
<path d="M179.877 198.273C177.265 195.396 174.847 192.349 173.321 188.971C171.794 185.585 171.224 181.821 172.364 178.334C172.888 176.73 173.918 175.08 175.748 174.432C178.148 173.575 181.017 174.848 182.406 176.707C183.785 178.566 184.042 180.833 184.272 183.016C181.504 174.81 180.125 166.271 180.171 157.74C180.199 153.205 180.962 148.115 185.21 145.307C187.15 144.027 189.9 143.41 192.134 144.289C195.362 145.554 196.079 149.063 196.391 152.033C196.778 155.851 197.173 159.661 197.559 163.479C197.044 159.383 196.934 155.257 197.237 151.146C197.476 147.868 198.01 144.528 199.748 141.589C201.486 138.651 204.649 136.144 208.511 135.573C210.092 135.342 211.849 135.473 213.118 136.298C214.396 137.123 214.993 138.504 215.214 139.854C215.609 142.245 215.03 144.674 214.23 146.988C211.49 154.902 206.24 162.006 201.044 169.002C205.292 162.523 213.347 157.902 222.092 156.938C222.947 156.846 223.885 156.799 224.593 157.216C225.163 157.548 225.458 158.111 225.651 158.666C226.671 161.62 225.301 164.79 223.416 167.428C217.559 175.596 207.113 180.471 198.387 186.572C201.44 183.217 206.322 181.08 211.361 180.903C212.667 180.857 214.166 181.026 214.892 181.929C215.306 182.446 215.38 183.101 215.315 183.718C215.058 185.924 213.191 187.744 211.306 189.295C207.214 192.658 202.589 195.573 197.596 197.933C193.265 199.985 188.226 201.659 183.399 200.656C182.553 200.479 181.56 200.024 181.642 199.291" fill="#B0E7C9"/>
<path d="M203.573 149.626C202.718 155.619 200.906 161.474 198.681 167.212C196.456 172.951 193.853 178.581 191.38 184.243C189.982 187.444 188.631 190.668 187.417 193.923C187.187 194.532 188.3 194.871 188.529 194.262C190.7 188.446 193.302 182.762 195.812 177.054C198.313 171.362 200.732 165.639 202.488 159.754C203.481 156.445 204.262 153.097 204.741 149.711C204.842 149.071 203.656 148.986 203.573 149.626Z" fill="#D8F3E4"/>
<path d="M196.64 176.291C202.525 174.439 208.023 171.74 212.814 168.331C214.175 167.359 215.481 166.333 216.722 165.253C217.071 164.952 216.575 164.436 216.216 164.744C211.876 168.508 206.764 171.64 201.155 173.946C199.573 174.594 197.955 175.18 196.299 175.697C195.84 175.843 196.171 176.437 196.64 176.291Z" fill="#D8F3E4"/>
<path d="M186.736 159.406C187.27 162.808 187.803 166.202 188.336 169.603C188.787 172.449 189.118 175.349 190.148 178.095C190.699 179.561 191.472 180.957 192.538 182.206C192.833 182.553 193.44 182.129 193.145 181.782C191.224 179.545 190.405 176.846 189.881 174.162C189.283 171.092 188.87 167.991 188.391 164.906C188.097 163.032 187.803 161.157 187.509 159.275C187.444 158.867 186.672 158.99 186.736 159.406Z" fill="#D8F3E4"/>
<path d="M206.184 185.785C204.483 186.973 202.828 188.23 201.007 189.287C199.251 190.305 197.32 191.084 195.389 191.84C194.929 192.018 195.26 192.619 195.72 192.442C197.66 191.678 199.591 190.891 201.366 189.881C203.241 188.817 204.943 187.513 206.69 186.294C207.076 186.024 206.57 185.515 206.184 185.785Z" fill="#D8F3E4"/>
<path d="M178.59 179.939C179.546 180.71 180.291 181.643 181.072 182.53C181.909 183.471 182.746 184.42 183.574 185.361C183.877 185.7 184.484 185.284 184.18 184.937C183.344 183.996 182.507 183.047 181.679 182.106C180.898 181.219 180.144 180.278 179.197 179.515C178.838 179.229 178.222 179.646 178.59 179.939Z" fill="#D8F3E4"/>
<path d="M180.962 205.3C179.619 200.024 179.187 194.093 179.674 188.717C179.941 185.732 180.585 182.592 182.865 180.294C183.555 179.6 184.575 178.952 185.624 179.168C186.598 179.368 187.159 180.232 187.398 181.05C187.821 182.492 187.628 184.012 187.352 185.485C186.203 191.694 183.509 199.392 180.962 205.3Z" fill="#89DCAE"/>
<path d="M183.398 186.009C183.959 188.956 183.564 191.871 183.122 194.802C182.736 197.332 182.423 199.924 181.384 202.338C181.302 202.523 181.66 202.6 181.734 202.423C182.782 199.985 183.095 197.363 183.481 194.802C183.931 191.84 184.308 188.902 183.748 185.924C183.72 185.732 183.371 185.816 183.398 186.009Z" fill="white"/>
<path d="M181.449 202.847C182.451 195.658 185.145 188.639 189.32 182.315C191.039 179.715 193.274 177.054 196.658 176.198C197.89 175.89 199.278 175.851 200.418 176.352C202.248 177.162 202.938 179.121 202.736 180.841C202.46 183.232 200.86 185.354 199.241 187.336C193.908 193.83 187.766 199.862 180.952 205.292" fill="#61D093"/>
<path d="M180.962 205.3C185.477 199.307 192.051 192.365 199.012 188.346C200.226 187.652 201.495 186.973 202.938 186.727C204.125 186.518 205.476 186.657 206.322 187.39C207.058 188.022 207.269 188.994 207.104 189.874C206.718 191.918 204.676 193.422 202.699 194.663C196.483 198.543 188.272 203.125 180.962 205.3Z" fill="#89DCAE"/>
<path d="M182.423 203.202C185.623 197.748 188.832 192.28 192.722 187.143C193.816 185.693 194.993 184.281 196.336 182.986C196.492 182.839 196.235 182.623 196.078 182.77C193.761 185.006 191.922 187.567 190.157 190.12C188.318 192.781 186.607 195.512 184.952 198.257C183.996 199.846 183.058 201.443 182.12 203.047C182.01 203.225 182.322 203.379 182.423 203.202Z" fill="white"/>
<path d="M202.12 190.691C198.625 192.342 195.159 194.023 192.069 196.19C189.062 198.296 186.313 200.672 183.729 203.14C183.573 203.286 183.83 203.502 183.987 203.356C186.534 200.926 189.228 198.597 192.18 196.514C195.288 194.324 198.773 192.619 202.304 190.953C202.506 190.853 202.322 190.591 202.12 190.691Z" fill="white"/>
<path d="M32.1007 113.73L33.2869 119.738C33.2869 119.738 31.8892 127.097 25.8479 126.919C19.8159 126.742 19.4297 124.96 19.4297 124.96L19.4389 114.632L32.1007 113.73Z" fill="#E9F3FE"/>
<path d="M32.1003 113.73L32.4681 115.581C30.5003 116.144 25.5993 117.764 25.7372 119.916C25.8751 122.122 30.0406 122.214 32.5509 122.006C31.6221 124.15 29.6544 127.035 25.8567 126.927C19.8247 126.749 19.4385 124.968 19.4385 124.968L19.4477 114.64L32.1003 113.73Z" fill="#92C1F8"/>
<path d="M44.541 118.489C44.541 118.489 38.7297 118.373 36.5136 118.473C34.2884 118.574 33.047 118.705 33.047 118.705C33.047 118.705 33.2677 122.214 28.1827 123.487C23.0886 124.767 19.4105 121.713 19.4105 121.713C19.4105 121.713 4.41312 128.608 3.61313 138.52C2.81315 148.431 28.2287 177.378 52.8627 180.163C77.4967 182.947 71.6117 132.912 71.6117 132.912L44.541 118.489Z" fill="#3A8FF3"/>
<path d="M71.6119 132.912C71.6119 132.912 71.7407 134.046 71.8878 135.951L62.1041 178.126C59.6398 179.785 56.6054 180.587 52.8629 180.163C34.8955 178.134 16.5326 162.191 8.21094 149.858C12.5143 146.788 15.9533 144.397 15.9533 144.397C15.9533 144.397 25.5347 165.824 36.8081 166.21C48.0722 166.603 45.7734 122.245 45.7274 121.643L44.6516 118.535L71.6119 132.912Z" fill="#2D517E"/>
<path d="M137.432 182.199C137.432 182.199 132.448 93.1048 130.912 78.3728C129.377 63.6407 128.466 56.0048 107.198 55.9585C85.9293 55.9122 63.9803 57.532 55.1805 58.0102C42.0498 58.7275 36.5418 58.9435 41.0291 95.4341C45.2313 129.58 51.8886 191.169 51.1806 199.684C50.4726 208.2 63.8792 211.763 67.6952 212.365C71.5112 212.966 134.508 193.714 136.181 191.994C137.855 190.259 137.432 182.199 137.432 182.199Z" fill="#3576C4"/>
<path d="M124.015 79.607C124.015 79.607 129.597 177.61 128.723 181.412C127.85 185.215 127.215 187.39 113.192 191.54C99.1698 195.689 78.7932 200.919 74.4806 201.775C70.1681 202.639 68.8256 201.243 66.8118 187.359C64.7981 173.475 55.6672 87.5669 55.0695 80.3552C54.4719 73.1434 56.5959 67.2352 61.8832 66.6181C67.1704 66.0011 66.2417 68.423 66.2509 69.4411C66.2601 70.4593 68.9083 73.1897 72.614 73.1126C76.3289 73.0354 108.834 72.7809 110.471 72.2487C112.107 71.7165 111.997 70.3204 112.218 67.5128C112.438 64.7053 114.149 63.7797 117.009 64.1577C119.868 64.5356 123.234 66.0859 123.215 69.526C123.197 72.9583 124.015 79.607 124.015 79.607Z" fill="#92C1F8"/>
<path opacity="0.3" d="M71.0786 123.464C68.5775 123.903 66.2327 125.562 66.481 127.86C66.7477 130.351 67.0971 132.827 67.3086 133.537C67.6488 134.679 70.0303 137.679 74.7935 137.247C79.5566 136.815 83.9887 136.391 83.814 131.964C83.6393 127.536 83.7312 123.186 79.8141 122.754C77.7911 122.538 73.5797 123.032 71.0786 123.464Z" fill="#3576C4"/>
<path opacity="0.3" d="M89.7173 121.751C87.2162 122.191 84.8714 123.849 85.1197 126.148C85.3863 128.639 85.7357 131.115 85.9472 131.825C86.2875 132.966 88.669 135.967 93.4321 135.535C98.1953 135.103 102.627 134.678 102.453 130.251C102.278 125.824 102.37 121.474 98.4527 121.042C96.4298 120.826 92.2184 121.319 89.7173 121.751Z" fill="#3576C4"/>
<path opacity="0.3" d="M108.954 120.108C106.453 120.548 104.108 122.206 104.356 124.505C104.623 126.996 104.972 129.472 105.184 130.182C105.524 131.323 107.905 134.324 112.668 133.892C117.432 133.46 121.864 133.036 121.689 128.608C121.514 124.181 121.606 119.831 117.689 119.399C115.666 119.183 111.446 119.677 108.954 120.108Z" fill="#3576C4"/>
<path opacity="0.3" d="M72.5503 141.582C70.0492 142.075 67.7044 143.788 67.9527 146.078C68.2193 148.562 68.4492 151.917 68.6607 152.627C69.0009 153.761 71.3825 156.707 76.1456 156.175C80.9087 155.643 85.4604 154.231 85.2857 149.804C85.1109 145.376 85.2029 141.026 81.2857 140.687C79.2628 140.502 75.0514 141.088 72.5503 141.582Z" fill="#3576C4"/>
<path opacity="0.3" d="M91.189 139.453C88.6879 139.947 86.3431 141.659 86.5913 143.95C86.858 146.433 87.2074 148.901 87.4189 149.611C87.7591 150.745 90.1407 153.691 94.9038 153.159C99.6669 152.627 104.099 152.095 103.924 147.675C103.75 143.255 103.842 138.898 99.9244 138.558C97.9015 138.373 93.6901 138.959 91.189 139.453Z" fill="#3576C4"/>
<path opacity="0.3" d="M110.425 137.378C107.924 137.872 105.579 139.584 105.828 141.875C106.094 144.358 106.444 146.827 106.655 147.536C106.995 148.67 109.377 151.616 114.14 151.084C118.903 150.552 123.335 150.02 123.161 145.6C122.986 141.181 123.078 136.823 119.161 136.483C117.138 136.298 112.926 136.884 110.425 137.378Z" fill="#3576C4"/>
<path opacity="0.3" d="M75.2169 160.864C72.725 161.482 70.3802 163.31 70.6285 165.585C70.8951 168.061 71.125 172.149 71.3365 172.843C71.6767 173.961 74.0491 176.792 78.803 176.021C83.5569 175.249 88.0902 172.866 87.9247 168.454C87.7591 164.042 87.8419 159.677 83.9339 159.53C81.911 159.461 77.7088 160.255 75.2169 160.864Z" fill="#3576C4"/>
<path opacity="0.3" d="M93.7999 157.818C91.308 158.435 88.9632 160.263 89.2115 162.538C89.4781 165.014 89.8275 168.415 90.039 169.11C90.3793 170.228 92.7516 173.059 97.5056 172.287C102.259 171.516 106.673 170.776 106.508 166.356C106.342 161.944 106.425 156.63 102.517 156.483C100.503 156.414 96.2918 157.208 93.7999 157.818Z" fill="#3576C4"/>
<path opacity="0.3" d="M112.99 154.802C110.498 155.419 108.154 157.247 108.402 159.522C108.669 161.998 109.018 164.451 109.229 165.145C109.57 166.263 111.942 169.094 116.696 168.323C121.45 167.552 125.864 166.811 125.698 162.391C125.533 157.98 125.615 153.614 121.707 153.467C119.684 153.398 115.482 154.185 112.99 154.802Z" fill="#3576C4"/>
<path d="M23.052 143.78C23.052 143.78 42.2056 155.789 44.8079 157.471C47.4101 159.152 64.7523 137.262 64.7523 137.262C64.7523 137.262 64.3845 132.935 64.9822 131.863C65.5799 130.791 66.2051 132.819 66.2051 132.819C66.2051 132.819 67.3545 128.091 70.1407 128.747C72.9268 129.41 73.7176 134.37 71.6763 136.028C69.6349 137.686 69.6441 137.694 69.6441 137.694C69.6441 137.694 58.9409 164.952 47.7963 165.4C36.6517 165.847 14.9418 153.969 12.8913 151.254C10.8407 148.546 23.052 143.78 23.052 143.78Z" fill="#E9F3FE"/>
<path d="M15.8985 147.259C20.1283 150.614 35.0705 162.052 44.422 163.927C51.5483 165.353 59.1987 156.453 63.686 150.028C59.5482 157.309 53.7368 165.168 47.7967 165.407C36.6521 165.855 14.9422 153.977 12.8916 151.262C12.0273 150.12 13.6824 148.616 15.8985 147.259Z" fill="#92C1F8"/>
<path d="M33.0564 94.5703C19.2452 82.1367 7.50293 99.0979 7.50293 99.0979C7.50293 99.0979 8.16499 100.471 9.21324 102.476C8.97416 102.461 8.74428 102.492 8.54199 102.576C7.45695 103.016 7.34661 104.705 8.29372 106.364C9.24083 108.014 10.8868 109.001 11.9718 108.562C12.1373 108.492 12.2844 108.4 12.404 108.276C13.5902 110.32 14.8683 112.388 16.1188 114.115C20.2199 119.815 28.7071 117.123 36.4127 113.552C44.1183 109.981 33.0564 94.5703 33.0564 94.5703Z" fill="#E9F3FE"/>
<path d="M24.5876 97.6247C28.2014 97.4318 32.1001 96.8456 34.3162 96.4754C33.5806 95.2953 33.0564 94.5703 33.0564 94.5703C19.2452 82.1367 7.50293 99.0979 7.50293 99.0979C7.50293 99.0979 8.16499 100.471 9.21324 102.476C9.21324 102.476 11.7419 104.59 12.5879 103.695C13.4338 102.792 19.1441 97.91 24.5876 97.6247Z" fill="#539CEA"/>
<path d="M14.473 98.7816C14.473 98.7816 35.4381 96.0588 40.477 88.3072C45.516 80.5555 35.5668 77.7788 33.6358 78.5578C31.714 79.3368 31.714 79.3368 31.714 79.3368C31.714 79.3368 32.937 73.2743 26.6566 72.3719C20.3855 71.4695 16.7166 79.3368 16.7166 79.3368C16.7166 79.3368 12.7259 72.3719 10.519 74.3542C8.31218 76.3364 -3.48528 93.3747 1.01118 97.6554C5.50764 101.928 8.26621 108.816 10.6386 110.251C13.0109 111.686 14.4822 111.508 14.4822 111.508L12.4041 107.721C12.4041 107.721 10.5098 109.055 8.88229 106.333C7.26393 103.61 10.6846 103.649 10.6846 103.649L10.0685 101.697C10.0685 101.697 12.1006 102.438 12.6523 100.81C13.2224 99.1826 13.6822 98.8973 14.473 98.7816Z" fill="#2D517E"/>
<path d="M28.542 102.114L32.5327 106.741L30.6753 108.762" fill="#92C1F8"/>
<path d="M3.61305 138.519C4.41304 128.608 19.4012 121.713 19.4012 121.713C19.4012 121.713 20.3667 122.507 21.9759 123.116C20.3851 128.192 18.4817 135.511 19.9713 137.632C22.3253 140.972 25.4149 144.574 25.4149 144.574L11.3738 153.892C11.3738 153.892 11.2267 153.807 10.9784 153.66C6.16932 147.582 3.34639 141.929 3.61305 138.519Z" fill="#3576C4"/>
<path d="M179.49 206.464C180.869 206.464 182 205.523 182 204.359V162.723C182 161.566 180.879 160.618 179.49 160.618H141.587C140.208 160.618 139.077 161.559 139.077 162.723V204.359C139.077 205.516 140.199 206.464 141.587 206.464H179.49Z" fill="#3A8FF3"/>
<path d="M141.587 205.654H179.49C180.336 205.654 181.026 205.076 181.026 204.366V162.731C181.026 162.021 180.336 161.443 179.49 161.443H141.587C140.741 161.443 140.052 162.021 140.052 162.731V204.366C140.052 205.076 140.741 205.654 141.587 205.654Z" fill="#E9F3FE"/>
<path d="M177.292 165.839C178.247 165.839 179.021 165.19 179.021 164.389C179.021 163.588 178.247 162.939 177.292 162.939C176.337 162.939 175.563 163.588 175.563 164.389C175.563 165.19 176.337 165.839 177.292 165.839Z" fill="#2D517E"/>
<path d="M144.429 164.528C144.429 164.706 144.594 164.844 144.806 164.844C145.017 164.844 145.183 164.706 145.183 164.528C145.183 164.351 145.017 164.212 144.806 164.212C144.594 164.212 144.429 164.358 144.429 164.528Z" fill="#2D517E"/>
<path d="M143.233 164.528C143.233 164.706 143.399 164.844 143.61 164.844C143.822 164.844 143.987 164.706 143.987 164.528C143.987 164.351 143.822 164.212 143.61 164.212C143.399 164.212 143.233 164.358 143.233 164.528Z" fill="#2D517E"/>
<path d="M142.047 164.528C142.047 164.706 142.212 164.844 142.424 164.844C142.635 164.844 142.801 164.706 142.801 164.528C142.801 164.351 142.635 164.212 142.424 164.212C142.212 164.212 142.047 164.358 142.047 164.528Z" fill="#2D517E"/>
<path d="M177.292 164.999C177.754 164.999 178.129 164.684 178.129 164.297C178.129 163.909 177.754 163.595 177.292 163.595C176.83 163.595 176.455 163.909 176.455 164.297C176.455 164.684 176.83 164.999 177.292 164.999Z" fill="white"/>
<path d="M176.069 165.215L176.474 164.983C176.685 165.161 176.97 165.269 177.292 165.269C177.614 165.269 177.899 165.161 178.11 164.983L178.515 165.215V165.408C178.202 165.67 177.77 165.84 177.283 165.84C176.805 165.84 176.373 165.678 176.051 165.408V165.215H176.069Z" fill="white"/>
<path d="M140.05 197.719L181.023 197.719L181.023 166.913L140.05 166.913L140.05 197.719Z" fill="#3A8FF3"/>
<path d="M140.052 189.943L129.836 182.978L140.052 185.076V189.943Z" fill="#3A8FF3"/>
<path d="M175.554 173.668L169.826 176.206L163.959 173.668V172.65H175.554V173.668Z" fill="#92C1F8"/>
<path d="M164.538 174.933C165.752 174.933 166.736 174.108 166.736 173.09C166.736 172.072 165.752 171.246 164.538 171.246C163.325 171.246 162.341 172.072 162.341 173.09C162.341 174.108 163.325 174.933 164.538 174.933Z" fill="white"/>
<path d="M175.011 174.933C176.225 174.933 177.209 174.108 177.209 173.09C177.209 172.072 176.225 171.246 175.011 171.246C173.797 171.246 172.813 172.072 172.813 173.09C172.813 174.108 173.797 174.933 175.011 174.933Z" fill="white"/>
<path d="M171.131 175.327H168.511V177.641H171.131V175.327Z" fill="#539CEA"/>
<path d="M173.788 195.527H165.798V178.466C165.798 177.633 166.598 176.962 167.591 176.962H171.995C172.989 176.962 173.788 177.64 173.788 178.466V195.527Z" fill="#92C1F8"/>
<path d="M155.72 185.176H148.971V186.865H155.72V185.176Z" fill="#539CEA"/>
<path d="M165.09 187.166L148.971 185.176V184.968C148.971 182.562 151.297 180.618 154.157 180.618L165.081 180.325V187.166H165.09Z" fill="#92C1F8"/>
<path d="M169.78 189.727C173.548 189.727 176.603 187.047 176.603 183.741C176.603 180.436 173.548 177.756 169.78 177.756C166.012 177.756 162.957 180.436 162.957 183.741C162.957 187.047 166.012 189.727 169.78 189.727Z" fill="white"/>
<path d="M169.78 176.561C171.664 176.561 173.191 175.704 173.191 174.648C173.191 173.591 171.664 172.735 169.78 172.735C167.896 172.735 166.368 173.591 166.368 174.648C166.368 175.704 167.896 176.561 169.78 176.561Z" fill="#539CEA"/>
<path d="M175.131 197.533H164.455V196.684C164.455 196.044 165.071 195.527 165.834 195.527H173.761C174.524 195.527 175.14 196.044 175.14 196.684V197.533H175.131Z" fill="#2D517E"/>
<path d="M169.78 174.933C170.993 174.933 171.977 174.108 171.977 173.09C171.977 172.072 170.993 171.246 169.78 171.246C168.566 171.246 167.582 172.072 167.582 173.09C167.582 174.108 168.566 174.933 169.78 174.933Z" fill="white"/>
<path opacity="0.1" d="M175.977 171.439C176.529 171.763 176.878 172.295 176.869 172.905C176.851 173.877 175.903 174.656 174.745 174.64C174.028 174.632 173.393 174.316 173.025 173.853C173.366 174.478 174.11 174.918 174.984 174.933C176.198 174.949 177.191 174.131 177.209 173.121C177.218 172.38 176.713 171.748 175.977 171.439Z" fill="black"/>
<path opacity="0.1" d="M170.745 171.439C171.296 171.763 171.646 172.295 171.637 172.905C171.618 173.877 170.671 174.656 169.512 174.64C168.795 174.632 168.161 174.316 167.793 173.853C168.133 174.478 168.878 174.918 169.752 174.933C170.965 174.949 171.958 174.131 171.977 173.121C171.977 172.38 171.48 171.748 170.745 171.439Z" fill="black"/>
<path opacity="0.1" d="M165.503 171.439C166.055 171.763 166.405 172.295 166.395 172.905C166.377 173.877 165.43 174.656 164.271 174.64C163.554 174.632 162.92 174.316 162.552 173.853C162.892 174.478 163.637 174.918 164.51 174.933C165.724 174.949 166.717 174.131 166.736 173.121C166.745 172.38 166.239 171.748 165.503 171.439Z" fill="black"/>
<g opacity="0.2">
<path opacity="0.2" d="M173.789 188.547C175.637 185.886 175.83 182.67 174.368 179.893C174.386 180.17 174.396 180.448 174.396 180.726C174.396 186.233 170.929 191.023 165.789 193.537V195.535H165.826C165.062 195.535 164.446 196.052 164.446 196.692V197.54H175.122V196.684C175.122 196.044 174.506 195.527 173.743 195.527H173.789V188.547Z" fill="#231F20"/>
</g>
<path d="M155.297 197.532C153.348 197.532 151.399 197.532 149.449 197.532C148.631 193.977 150.268 190.421 149.449 186.865C151.399 186.865 153.348 186.865 155.297 186.865C156.116 190.421 154.47 193.977 155.297 197.532Z" fill="white"/>
<path d="M150.469 186.865C150.129 186.865 149.789 186.865 149.439 186.865C150.258 190.421 148.621 193.977 149.439 197.532C149.78 197.532 150.12 197.532 150.469 197.532C149.651 193.977 151.288 190.421 150.469 186.865Z" fill="#92C1F8"/>
<path d="M152.079 186.865C151.738 186.865 151.398 186.865 151.049 186.865C151.867 190.421 150.23 193.977 151.049 197.532C151.389 197.532 151.729 197.532 152.079 197.532C151.26 193.977 152.897 190.421 152.079 186.865Z" fill="#92C1F8"/>
<path d="M153.688 186.865C153.348 186.865 153.008 186.865 152.658 186.865C153.477 190.421 151.84 193.977 152.658 197.532C152.998 197.532 153.339 197.532 153.688 197.532C152.87 193.977 154.506 190.421 153.688 186.865Z" fill="#92C1F8"/>
<path d="M155.296 186.865C154.956 186.865 154.616 186.865 154.267 186.865C155.085 190.421 153.448 193.977 154.267 197.532C154.607 197.532 154.947 197.532 155.296 197.532C154.469 193.977 156.115 190.421 155.296 186.865Z" fill="#92C1F8"/>
<path d="M153.55 181.728C153.89 182.16 153.513 182.878 152.704 183.325C151.895 183.772 150.966 183.788 150.626 183.356C150.286 182.924 150.663 182.207 151.472 181.759C152.281 181.312 153.21 181.296 153.55 181.728Z" fill="white"/>
<path d="M150.793 121.142C149.027 121.142 147.593 119.939 147.593 118.458V65.2913C147.593 63.8104 149.027 62.6072 150.793 62.6072H199.187C200.953 62.6072 202.387 63.8104 202.387 65.2913V118.458C202.387 119.939 200.953 121.142 199.187 121.142H150.793Z" fill="#3A8FF3"/>
<path d="M199.186 120.101H150.792C149.707 120.101 148.824 119.36 148.824 118.45V65.2912C148.824 64.3811 149.707 63.6406 150.792 63.6406H199.186C200.271 63.6406 201.154 64.3811 201.154 65.2912V118.45C201.145 119.368 200.271 120.101 199.186 120.101Z" fill="#E9F3FE"/>
<path d="M153.597 69.279C154.821 69.279 155.813 68.4468 155.813 67.4201C155.813 66.3935 154.821 65.5613 153.597 65.5613C152.373 65.5613 151.381 66.3935 151.381 67.4201C151.381 68.4468 152.373 69.279 153.597 69.279Z" fill="#2D517E"/>
<path d="M195.564 67.5976C195.564 67.8213 195.352 67.9987 195.086 67.9987C194.819 67.9987 194.607 67.8213 194.607 67.5976C194.607 67.3739 194.819 67.1965 195.086 67.1965C195.352 67.1965 195.564 67.3739 195.564 67.5976Z" fill="#2D517E"/>
<path d="M197.081 67.5976C197.081 67.8213 196.87 67.9987 196.603 67.9987C196.336 67.9987 196.125 67.8213 196.125 67.5976C196.125 67.3739 196.336 67.1965 196.603 67.1965C196.861 67.1965 197.081 67.3739 197.081 67.5976Z" fill="#2D517E"/>
<path d="M198.598 67.5976C198.598 67.8213 198.386 67.9987 198.12 67.9987C197.853 67.9987 197.642 67.8213 197.642 67.5976C197.642 67.3739 197.853 67.1965 198.12 67.1965C198.386 67.1965 198.598 67.3739 198.598 67.5976Z" fill="#2D517E"/>
<path d="M153.597 68.1991C154.186 68.1991 154.664 67.7985 154.664 67.3044C154.664 66.8103 154.186 66.4097 153.597 66.4097C153.008 66.4097 152.53 66.8103 152.53 67.3044C152.53 67.7985 153.008 68.1991 153.597 68.1991Z" fill="white"/>
<path d="M155.16 68.4768L154.636 68.176C154.37 68.3997 154.002 68.5385 153.588 68.5385C153.183 68.5385 152.806 68.3997 152.54 68.176L152.016 68.4768V68.7237C152.42 69.063 152.972 69.2713 153.588 69.2713C154.204 69.2713 154.756 69.063 155.16 68.7237V68.4768Z" fill="white"/>
<path d="M201.145 70.6519H148.824V109.981H201.145V70.6519Z" fill="#3A8FF3"/>
<path d="M148.089 98.9744L135.041 107.86L148.089 105.183V98.9744Z" fill="#3A8FF3"/>
<path d="M196.235 116.961H153.826C152.907 116.961 152.162 116.337 152.162 115.565C152.162 114.794 152.907 114.169 153.826 114.169H196.235C197.154 114.169 197.899 114.794 197.899 115.565C197.899 116.337 197.154 116.961 196.235 116.961Z" fill="#92C1F8"/>
<path d="M169.449 81.1572C168.042 82.3219 167.169 83.9417 167.169 85.7311C167.169 87.4897 168.015 89.0863 169.385 90.251L170.369 89.4257C169.247 88.477 168.557 87.1734 168.557 85.7311C168.557 84.2656 169.275 82.9467 170.424 81.9902L169.449 81.1572Z" fill="white"/>
<path d="M167.97 79.923L166.986 79.0977C164.944 80.7945 163.685 83.1393 163.685 85.7309C163.685 88.2994 164.926 90.6287 166.93 92.3179L167.914 91.4926C166.167 90.0117 165.082 87.9754 165.082 85.7309C165.082 83.4633 166.186 81.4039 167.97 79.923Z" fill="white"/>
<path d="M165.505 77.8558L164.521 77.0305C161.854 79.2596 160.199 82.3371 160.199 85.7309C160.199 89.1015 161.827 92.1636 164.466 94.385L165.45 93.5597C163.068 91.5466 161.597 88.7853 161.597 85.7309C161.597 82.6534 163.096 79.8689 165.505 77.8558Z" fill="white"/>
<g opacity="0.7">
<mask id="mask0" mask-type="alpha" maskUnits="userSpaceOnUse" x="167" y="81" width="4" height="6">
<g opacity="0.7">
<g opacity="0.7">
<path opacity="0.7" d="M170.434 81.9901L169.45 81.1648C168.071 82.3063 167.206 83.8875 167.179 85.6307C167.629 85.7772 168.098 85.9161 168.586 86.0395C168.576 85.9392 168.576 85.8389 168.576 85.7387C168.567 84.2655 169.284 82.9465 170.434 81.9901Z" fill="url(#paint0_linear)"/>
</g>
</g>
</mask>
<g mask="url(#mask0)">
<path opacity="0.7" d="M170.434 81.9901L169.45 81.1648C168.071 82.3063 167.206 83.8875 167.179 85.6307C167.629 85.7772 168.098 85.9161 168.586 86.0395C168.576 85.9392 168.576 85.8389 168.576 85.7387C168.567 84.2655 169.284 82.9465 170.434 81.9901Z" fill="white"/>
</g>
</g>
<g opacity="0.7">
<mask id="mask1" mask-type="alpha" maskUnits="userSpaceOnUse" x="163" y="79" width="5" height="6">
<g opacity="0.7">
<g opacity="0.7">
<path opacity="0.7" d="M166.985 79.0901C165.395 80.4167 164.282 82.1368 163.868 84.0573C164.254 84.3196 164.687 84.5664 165.146 84.7978C165.404 82.9004 166.434 81.1958 167.969 79.9231L166.985 79.0901Z" fill="url(#paint1_linear)"/>
</g>
</g>
</mask>
<g mask="url(#mask1)">
<path opacity="0.7" d="M166.985 79.0901C165.395 80.4167 164.282 82.1368 163.868 84.0573C164.254 84.3196 164.687 84.5664 165.146 84.7978C165.404 82.9004 166.434 81.1958 167.969 79.9231L166.985 79.0901Z" fill="white"/>
</g>
</g>
<g opacity="0.7">
<mask id="mask2" mask-type="alpha" maskUnits="userSpaceOnUse" x="161" y="77" width="5" height="6">
<g opacity="0.7">
<g opacity="0.7">
<path opacity="0.7" d="M164.521 77.0305C163.225 78.1104 162.176 79.3907 161.432 80.8099C161.514 81.3961 161.772 81.9669 162.167 82.4991C162.811 80.7251 163.979 79.1362 165.505 77.8558L164.521 77.0305Z" fill="url(#paint2_linear)"/>
</g>
</g>
</mask>
<g mask="url(#mask2)">
<path opacity="0.7" d="M164.521 77.0305C163.225 78.1104 162.176 79.3907 161.432 80.8099C161.514 81.3961 161.772 81.9669 162.167 82.4991C162.811 80.7251 163.979 79.1362 165.505 77.8558L164.521 77.0305Z" fill="white"/>
</g>
</g>
<path opacity="0.4" d="M164.484 93.714C164.41 93.7757 164.309 93.8143 164.199 93.8066C164.088 93.8066 163.987 93.768 163.923 93.6986C161.523 91.4772 160.208 88.6311 160.208 85.6153C160.208 82.584 161.541 79.7148 163.978 77.4857C164.052 77.4163 164.153 77.3777 164.263 77.3777C164.373 77.3777 164.484 77.4085 164.557 77.478L164.613 77.5242C164.76 77.6476 164.76 77.8405 164.622 77.9639C162.323 80.0618 161.063 82.7614 161.063 85.6153C161.063 88.446 162.295 91.1147 164.548 93.205C164.695 93.3361 164.686 93.5443 164.539 93.6678L164.484 93.714Z" fill="white"/>
<path opacity="0.4" d="M167.023 91.6393C166.94 91.7088 166.839 91.7396 166.728 91.7396C166.618 91.7396 166.508 91.6933 166.434 91.6239C164.696 89.9579 163.749 87.8522 163.749 85.6231C163.749 83.3709 164.724 81.2344 166.498 79.5606C166.572 79.4912 166.673 79.4526 166.783 79.4526C166.894 79.4526 166.995 79.4835 167.069 79.5452L167.188 79.6455C167.298 79.738 167.298 79.8846 167.197 79.9771C165.524 81.5275 164.604 83.5097 164.604 85.6154C164.604 87.6671 165.478 89.6031 167.078 91.138C167.216 91.2691 167.206 91.4774 167.059 91.6008L167.023 91.6393Z" fill="white"/>
<path opacity="0.4" d="M169.441 89.5876C169.358 89.657 169.248 89.6879 169.137 89.6879C169.027 89.6801 168.917 89.6416 168.843 89.5645C167.767 88.4615 167.179 87.0885 167.179 85.6462C167.179 84.1807 167.786 82.7846 168.898 81.6739C168.972 81.6045 169.073 81.5582 169.192 81.5505C169.303 81.5428 169.413 81.5814 169.496 81.6508L169.533 81.6817C169.68 81.8051 169.689 82.0056 169.56 82.1367C168.576 83.124 168.043 84.3504 168.043 85.6462C168.043 86.9189 168.558 88.1298 169.514 89.1017C169.643 89.2328 169.634 89.4333 169.487 89.5567L169.441 89.5876Z" fill="white"/>
<path d="M180.236 81.1572L179.252 81.9825C180.401 82.939 181.119 84.2656 181.119 85.7234C181.119 87.1657 180.429 88.4692 179.307 89.418L180.291 90.2433C181.661 89.0786 182.507 87.482 182.507 85.7234C182.507 83.9417 181.634 82.3296 180.236 81.1572Z" fill="white"/>
<path d="M182.691 79.0977L181.707 79.923C183.491 81.4039 184.594 83.4633 184.594 85.7309C184.594 87.9754 183.509 90.0117 181.762 91.4926L182.746 92.3179C184.751 90.6287 185.992 88.2994 185.992 85.7309C185.992 83.1393 184.732 80.7868 182.691 79.0977Z" fill="white"/>
<path d="M185.155 76.9998L184.171 77.8251C186.589 79.8382 188.088 82.6226 188.088 85.7001C188.088 88.7545 186.617 91.5158 184.235 93.5289L185.219 94.3542C187.858 92.1329 189.486 89.0708 189.486 85.7001C189.477 82.3064 187.831 79.2288 185.155 76.9998Z" fill="white"/>
<g opacity="0.7">
<mask id="mask3" mask-type="alpha" maskUnits="userSpaceOnUse" x="179" y="81" width="4" height="6">
<g opacity="0.7">
<g opacity="0.7">
<path opacity="0.7" d="M179.242 81.9901C180.392 82.9465 181.109 84.2732 181.109 85.731C181.109 85.8312 181.109 85.9315 181.1 86.0318C181.587 85.9084 182.056 85.7695 182.497 85.623C182.461 83.8798 181.596 82.3063 180.226 81.1648L179.242 81.9901Z" fill="url(#paint3_linear)"/>
</g>
</g>
</mask>
<g mask="url(#mask3)">
<path opacity="0.7" d="M179.242 81.9901C180.392 82.9465 181.109 84.2732 181.109 85.731C181.109 85.8312 181.109 85.9315 181.1 86.0318C181.587 85.9084 182.056 85.7695 182.497 85.623C182.461 83.8798 181.596 82.3063 180.226 81.1648L179.242 81.9901Z" fill="white"/>
</g>
</g>
<g opacity="0.7">
<mask id="mask4" mask-type="alpha" maskUnits="userSpaceOnUse" x="181" y="79" width="5" height="6">
<g opacity="0.7">
<g opacity="0.7">
<path opacity="0.7" d="M181.707 79.9231C183.243 81.1958 184.272 82.9004 184.53 84.7901C184.99 84.5587 185.422 84.3119 185.808 84.0496C185.394 82.1291 184.282 80.4167 182.691 79.0901L181.707 79.9231Z" fill="url(#paint4_linear)"/>
</g>
</g>
</mask>
<g mask="url(#mask4)">
<path opacity="0.7" d="M181.707 79.9231C183.243 81.1958 184.272 82.9004 184.53 84.7901C184.99 84.5587 185.422 84.3119 185.808 84.0496C185.394 82.1291 184.282 80.4167 182.691 79.0901L181.707 79.9231Z" fill="white"/>
</g>
</g>
<g opacity="0.7">
<mask id="mask5" mask-type="alpha" maskUnits="userSpaceOnUse" x="184" y="76" width="5" height="7">
<g opacity="0.7">
<g opacity="0.7">
<path opacity="0.7" d="M185.155 76.9998L184.171 77.8251C185.707 79.1054 186.865 80.6943 187.509 82.4761C187.904 81.9361 188.152 81.3577 188.235 80.7638C187.5 79.3523 186.442 78.0719 185.155 76.9998Z" fill="url(#paint5_linear)"/>
</g>
</g>
</mask>
<g mask="url(#mask5)">
<path opacity="0.7" d="M185.155 76.9998L184.171 77.8251C185.707 79.1054 186.865 80.6943 187.509 82.4761C187.904 81.9361 188.152 81.3577 188.235 80.7638C187.5 79.3523 186.442 78.0719 185.155 76.9998Z" fill="white"/>
</g>
</g>
<path opacity="0.4" d="M180.318 89.4719C180.171 89.3485 180.153 89.1557 180.281 89.0168C181.201 88.0219 181.688 86.8032 181.651 85.5305C181.615 84.2347 181.045 83.0161 180.042 82.0519C179.904 81.9208 179.914 81.7203 180.052 81.5968L180.088 81.566C180.162 81.4966 180.272 81.458 180.392 81.458C180.502 81.458 180.612 81.5043 180.686 81.5737C181.826 82.669 182.47 84.0419 182.516 85.5151C182.553 86.9575 182.01 88.3381 180.962 89.4642C180.888 89.5413 180.787 89.5876 180.677 89.5953C180.566 89.603 180.447 89.5722 180.364 89.5028L180.318 89.4719Z" fill="white"/>
<path opacity="0.4" d="M182.7 91.7162C182.553 91.5928 182.543 91.3846 182.681 91.2535C184.281 89.7186 185.155 87.7749 185.155 85.7309C185.155 83.6483 184.254 81.6815 182.608 80.1389C182.479 80.0155 182.488 79.8304 182.626 79.7147L182.69 79.6607C182.764 79.599 182.874 79.5604 182.975 79.5681C183.077 79.5758 183.187 79.6144 183.261 79.6761C185.044 81.3498 186.01 83.4787 186.01 85.7386C186.01 87.9677 185.063 90.0734 183.325 91.7394C183.251 91.8088 183.15 91.8551 183.031 91.8551C182.92 91.8551 182.81 91.8242 182.727 91.7548L182.7 91.7162Z" fill="white"/>
<path opacity="0.4" d="M185.109 93.6678C184.962 93.5443 184.953 93.3438 185.1 93.2127C187.353 91.1224 188.594 88.446 188.594 85.6153C188.594 82.7614 187.344 80.0696 185.054 77.9793C184.907 77.8482 184.916 77.6399 185.063 77.5088L185.1 77.478C185.174 77.4162 185.284 77.3777 185.394 77.3777C185.505 77.3777 185.606 77.4163 185.679 77.4857C188.116 79.7148 189.449 82.5763 189.449 85.6153C189.449 88.6311 188.134 91.4849 185.725 93.7063C185.652 93.768 185.56 93.8066 185.449 93.8066C185.348 93.8066 185.247 93.7757 185.174 93.714L185.109 93.6678Z" fill="white"/>
<path d="M186.305 109.981L175.464 88.6389C175.225 88.6775 174.976 88.7006 174.728 88.7006C174.489 88.7006 174.259 88.6775 174.038 88.6466L163.308 109.989H186.305V109.981ZM165.827 108.932L174.783 102.931L183.749 108.932H165.827ZM174.783 101.851L171.179 99.445H178.379L174.783 101.851ZM183.896 107.945L175.592 102.384L179.684 99.6455L183.896 107.945ZM178.305 96.9459L175.528 94.3003L176.503 93.3979L178.305 96.9459ZM174.866 93.6601L174.149 92.9737H175.611L174.866 93.6601ZM174.746 89.927L175.868 92.133H173.634L174.746 89.927ZM173.082 93.2359L174.186 94.2849L171.133 97.1079L173.082 93.2359ZM174.848 94.9251L178.7 98.5965H170.884L174.848 94.9251ZM173.983 102.391L165.68 107.953L169.864 99.6301L173.983 102.391Z" fill="#92C1F8"/>
<path d="M174.831 88.7135C176.883 88.693 178.526 87.2815 178.502 85.5607C178.477 83.8399 176.794 82.4615 174.743 82.482C172.691 82.5024 171.048 83.914 171.073 85.6348C171.097 87.3556 172.78 88.734 174.831 88.7135Z" fill="#92C1F8"/>
<path opacity="0.7" d="M164.566 153.815H135.932C132.852 153.815 130.323 151.701 130.323 149.11V127.243C130.323 124.659 132.843 122.538 135.932 122.538H164.566C167.647 122.538 170.175 124.651 170.175 127.243V149.11C170.166 151.701 167.647 153.815 164.566 153.815Z" fill="#D5E5FD"/>
<path d="M148.823 140.363C148.741 140.294 148.686 140.201 148.686 140.093C148.686 139.885 148.888 139.707 149.145 139.707H151.913L150.111 138.196C149.982 138.088 149.945 137.918 150.01 137.779C150.083 137.633 150.249 137.54 150.433 137.54H154.304C154.552 137.54 154.764 137.71 154.764 137.926C154.764 138.134 154.561 138.311 154.304 138.311H151.536L153.338 139.823C153.467 139.931 153.504 140.101 153.439 140.24C153.366 140.386 153.2 140.479 153.017 140.479H149.145C149.026 140.471 148.906 140.432 148.823 140.363Z" fill="#3B8EF3"/>
<path d="M159.803 134.949C159.444 134.648 158.865 134.648 158.516 134.949L156.575 136.576L154.635 134.949L156.575 133.321C156.934 133.02 156.934 132.534 156.575 132.241C156.217 131.94 155.638 131.94 155.288 132.241L153.348 133.869L152.704 133.329C151.638 132.434 149.9 132.434 148.833 133.329L144.962 136.576C143.895 137.471 143.895 138.928 144.962 139.823L147.224 141.721L145.229 143.394L143.022 142.777C142.691 142.685 142.332 142.754 142.084 142.962L141.173 143.726C140.925 143.934 140.842 144.235 140.953 144.513L141.688 146.364L140.263 147.559C139.904 147.86 139.904 148.346 140.263 148.639C140.438 148.786 140.677 148.863 140.907 148.863C141.137 148.863 141.376 148.786 141.55 148.639L143.38 147.104C143.629 146.896 143.711 146.595 143.601 146.318L142.865 144.466L142.985 144.366L145.192 144.983C145.523 145.076 145.881 145.006 146.13 144.798L148.53 142.785L150.792 144.682C151.858 145.577 153.596 145.577 154.663 144.682L158.534 141.435C159.601 140.541 159.601 139.083 158.534 138.188L157.89 137.648L159.831 136.021C160.152 135.728 160.152 135.249 159.803 134.949ZM157.219 140.363L153.348 143.61C152.998 143.903 152.41 143.903 152.061 143.61L146.249 138.736C145.9 138.443 145.9 137.949 146.249 137.656L150.12 134.409C150.47 134.116 151.058 134.116 151.408 134.409L157.219 139.283C157.568 139.576 157.568 140.07 157.219 140.363Z" fill="#3B8EF3"/>
<path opacity="0.3" d="M150.019 137.779C150.093 137.633 150.258 137.54 150.442 137.54H150.672L152.898 135.65L151.408 134.401C151.058 134.108 150.47 134.108 150.121 134.401L146.249 137.648C145.9 137.941 145.9 138.435 146.249 138.728L147.767 140.001L150.047 138.065C149.992 137.98 149.964 137.88 150.019 137.779Z" fill="#3B8EF3"/>
<path opacity="0.7" d="M219.737 135.951H192.722C189.816 135.951 187.435 133.953 187.435 131.516V110.891C187.435 108.454 189.816 106.456 192.722 106.456H219.737C222.643 106.456 225.025 108.454 225.025 110.891V131.516C225.025 133.953 222.643 135.951 219.737 135.951Z" fill="#D5E5FD"/>
<path d="M207.517 127.536V128.307H198.295V117.47H207.517V118.242H209.366V116.691C209.366 115.411 208.124 114.37 206.598 114.37H199.214C197.688 114.37 196.446 115.411 196.446 116.691V129.079C196.446 130.359 197.688 131.4 199.214 131.4H206.598C208.124 131.4 209.366 130.359 209.366 129.079V127.528H207.517V127.536ZM199.214 115.928H206.598C207.094 115.928 207.517 116.282 207.517 116.699H198.295C198.295 116.282 198.718 115.928 199.214 115.928ZM206.598 129.858H199.214C198.718 129.858 198.295 129.503 198.295 129.086H207.517C207.517 129.51 207.094 129.858 206.598 129.858Z" fill="#3B8EF3"/>
<path d="M207.517 127.536V128.307H198.295V117.47H207.517V118.242H209.366V116.691C209.366 115.411 208.124 114.37 206.598 114.37H199.214C197.688 114.37 196.446 115.411 196.446 116.691V129.079C196.446 130.359 197.688 131.4 199.214 131.4H206.598C208.124 131.4 209.366 130.359 209.366 129.079V127.528H207.517V127.536ZM199.214 115.928H206.598C207.094 115.928 207.517 116.282 207.517 116.699H198.295C198.295 116.282 198.718 115.928 199.214 115.928ZM206.598 129.858H199.214C198.718 129.858 198.295 129.503 198.295 129.086H207.517C207.517 129.51 207.094 129.858 206.598 129.858Z" fill="#3B8EF3"/>
<path d="M214.901 119.028C215.406 119.028 215.82 119.375 215.82 119.8V125.993C215.82 126.417 215.406 126.765 214.901 126.765H203.83C203.324 126.765 202.91 126.417 202.91 125.993V119.8C202.91 119.375 203.324 119.028 203.83 119.028H214.901ZM214.901 118.249H203.83C202.818 118.249 201.981 118.943 201.981 119.8V125.993C201.981 126.842 202.809 127.544 203.83 127.544H214.901C215.912 127.544 216.749 126.849 216.749 125.993V119.8C216.749 118.951 215.912 118.249 214.901 118.249Z" fill="#3B8EF3"/>
<path d="M206.138 125.993H204.29C204.032 125.993 203.83 125.816 203.83 125.608C203.83 125.392 204.042 125.222 204.29 125.222H206.138C206.396 125.222 206.598 125.399 206.598 125.608C206.598 125.816 206.386 125.993 206.138 125.993Z" fill="#3B8EF3"/>
<path d="M209.826 125.993H207.977C207.72 125.993 207.518 125.816 207.518 125.608C207.518 125.392 207.729 125.222 207.977 125.222H209.826C210.083 125.222 210.285 125.399 210.285 125.608C210.285 125.816 210.083 125.993 209.826 125.993Z" fill="#3B8EF3"/>
<path d="M214.441 125.993H211.674C211.416 125.993 211.214 125.816 211.214 125.608C211.214 125.392 211.425 125.222 211.674 125.222H214.441C214.699 125.222 214.901 125.399 214.901 125.608C214.901 125.816 214.69 125.993 214.441 125.993Z" fill="#3B8EF3"/>
<path d="M208.198 123.417L207.545 122.384H207.453H206.598V123.417H205.669V119.807H207.453C207.986 119.807 208.4 119.915 208.694 120.131C208.988 120.347 209.136 120.656 209.136 121.057C209.136 121.335 209.071 121.574 208.942 121.774C208.814 121.975 208.621 122.121 208.372 122.222L209.246 123.409H208.198V123.417ZM206.598 121.705H207.453C207.71 121.705 207.913 121.651 208.05 121.551C208.188 121.443 208.262 121.296 208.262 121.088C208.262 120.887 208.188 120.741 208.05 120.64C207.913 120.54 207.71 120.486 207.453 120.486H206.598V121.705Z" fill="#3B8EF3"/>
<path d="M212.345 120.802C212.565 120.918 212.74 121.088 212.869 121.304C212.998 121.52 213.053 121.766 213.053 122.052C213.053 122.329 212.988 122.576 212.869 122.785C212.749 122.993 212.575 123.162 212.354 123.278C212.133 123.394 211.876 123.456 211.582 123.456C211.361 123.456 211.168 123.417 211.002 123.348C210.828 123.27 210.69 123.17 210.57 123.024V124.427H209.669V120.656H210.57V121.065C210.68 120.926 210.828 120.818 210.993 120.741C211.168 120.663 211.352 120.633 211.563 120.633C211.867 120.625 212.124 120.679 212.345 120.802ZM211.922 122.576C212.069 122.437 212.142 122.252 212.142 122.021C212.142 121.797 212.069 121.612 211.922 121.473C211.775 121.334 211.591 121.257 211.361 121.257C211.131 121.257 210.938 121.327 210.791 121.473C210.644 121.612 210.57 121.797 210.57 122.021C210.57 122.252 210.644 122.437 210.791 122.576C210.938 122.715 211.122 122.785 211.361 122.785C211.591 122.792 211.775 122.723 211.922 122.576Z" fill="#3B8EF3"/>
<g opacity="0.3">
<path opacity="0.3" d="M198.295 116.707H201.063V115.935H199.214C198.718 115.928 198.295 116.283 198.295 116.707Z" fill="#3B8EF3"/>
<path opacity="0.3" d="M201.063 117.478H198.295V128.315H201.063V117.478Z" fill="#3B8EF3"/>
<path opacity="0.3" d="M199.214 129.857H201.063V129.086H198.295C198.295 129.51 198.718 129.857 199.214 129.857Z" fill="#3B8EF3"/>
</g>
<path opacity="0.3" d="M204.289 125.993C204.032 125.993 203.83 125.816 203.83 125.608C203.83 125.392 204.041 125.222 204.289 125.222H204.749V119.028H203.83C203.324 119.028 202.91 119.375 202.91 119.8V125.993C202.91 126.417 203.324 126.765 203.83 126.765H204.749V125.993H204.289Z" fill="#3B8EF3"/>
<path opacity="0.3" d="M60.6141 94.2694C60.5498 90.5517 57.8004 79.2365 64.7612 78.1721C71.722 77.1077 108.613 76.051 113.045 75.8736C117.477 75.6962 119.795 76.5832 120.631 81.1802C121.477 85.7772 123.022 100.987 119.859 101.165C116.696 101.342 72.2093 103.996 69.2576 104.705C66.306 105.407 60.8256 105.762 60.6141 94.2694Z" fill="#3576C4"/>
<path opacity="0.3" d="M91.8874 107.883C92.507 107.883 93.0093 107.434 93.0093 106.88C93.0093 106.327 92.507 105.878 91.8874 105.878C91.2679 105.878 90.7656 106.327 90.7656 106.88C90.7656 107.434 91.2679 107.883 91.8874 107.883Z" fill="#3576C4"/>
<path opacity="0.3" d="M86.8298 108.238C87.4494 108.238 87.9516 107.789 87.9516 107.235C87.9516 106.681 87.4494 106.232 86.8298 106.232C86.2103 106.232 85.708 106.681 85.708 107.235C85.708 107.789 86.2103 108.238 86.8298 108.238Z" fill="#3576C4"/>
<path opacity="0.3" d="M97.1843 107.544C97.8039 107.544 98.3061 107.095 98.3061 106.541C98.3061 105.987 97.8039 105.538 97.1843 105.538C96.5648 105.538 96.0625 105.987 96.0625 106.541C96.0625 107.095 96.5648 107.544 97.1843 107.544Z" fill="#3576C4"/>
<path opacity="0.3" d="M66.9688 188.392C68.9089 201.304 70.2882 202.615 74.4904 201.775C78.803 200.911 99.1796 195.689 113.202 191.539C127.225 187.39 127.869 185.215 128.733 181.412C128.88 180.78 128.843 177.502 128.687 172.511L66.9688 188.392Z" fill="#3576C4"/>
</g>
<defs>
<linearGradient id="paint0_linear" x1="168.806" y1="81.1609" x2="168.806" y2="86.033" gradientUnits="userSpaceOnUse">
<stop stop-color="#999999"/>
<stop offset="1" stop-color="#333333"/>
</linearGradient>
<linearGradient id="paint1_linear" x1="165.921" y1="79.0908" x2="165.921" y2="84.7946" gradientUnits="userSpaceOnUse">
<stop stop-color="#999999"/>
<stop offset="1" stop-color="#333333"/>
</linearGradient>
<linearGradient id="paint2_linear" x1="163.471" y1="77.0277" x2="163.471" y2="82.4986" gradientUnits="userSpaceOnUse">
<stop stop-color="#999999"/>
<stop offset="1" stop-color="#333333"/>
</linearGradient>
<linearGradient id="paint3_linear" x1="180.875" y1="81.1609" x2="180.875" y2="86.0291" gradientUnits="userSpaceOnUse">
<stop stop-color="#999999"/>
<stop offset="1" stop-color="#333333"/>
</linearGradient>
<linearGradient id="paint4_linear" x1="183.761" y1="79.0945" x2="183.761" y2="84.7909" gradientUnits="userSpaceOnUse">
<stop stop-color="#999999"/>
<stop offset="1" stop-color="#333333"/>
</linearGradient>
<linearGradient id="paint5_linear" x1="186.206" y1="77.0007" x2="186.206" y2="82.4757" gradientUnits="userSpaceOnUse">
<stop stop-color="#999999"/>
<stop offset="1" stop-color="#333333"/>
</linearGradient>
<clipPath id="clip0">
<rect width="226" height="214" fill="white"/>
</clipPath>
</defs>
</svg>
