<svg width="15" height="15" viewBox="0 0 15 15" fill="none" xmlns="http://www.w3.org/2000/svg">
<path fill-rule="evenodd" clip-rule="evenodd" d="M14.7587 11.6968C14.7895 11.9327 14.7176 12.1379 14.5433 12.3122L12.497 14.3431C12.4047 14.4457 12.2842 14.5329 12.1354 14.6046C11.9867 14.6765 11.8406 14.7226 11.697 14.7431C11.6868 14.7431 11.6559 14.7458 11.6046 14.7509C11.5534 14.756 11.4867 14.7586 11.4047 14.7586C11.2097 14.7586 10.8943 14.7253 10.4584 14.6586C10.0224 14.5919 9.48909 14.4277 8.85832 14.1662C8.2274 13.9047 7.51198 13.5123 6.71195 12.9892C5.91191 12.4662 5.06054 11.7481 4.1579 10.8352C3.4399 10.1274 2.84498 9.45047 2.37315 8.80429C1.90132 8.15807 1.5218 7.56058 1.2346 7.01182C0.947374 6.46306 0.731972 5.96559 0.588371 5.5194C0.444771 5.07321 0.347327 4.68857 0.296041 4.36546C0.244755 4.04236 0.224241 3.7885 0.234498 3.60387C0.244755 3.41924 0.249884 3.31667 0.249884 3.29615C0.270398 3.15255 0.316556 3.00638 0.388356 2.85766C0.460156 2.70893 0.547343 2.5884 0.649915 2.49609L2.69623 0.449776C2.83983 0.306175 3.00394 0.234375 3.18857 0.234375C3.32192 0.234375 3.43987 0.27284 3.54245 0.349769C3.64502 0.426698 3.7322 0.521577 3.80401 0.634406L5.45029 3.75773C5.5426 3.92184 5.56824 4.10134 5.52722 4.29623C5.48619 4.49112 5.399 4.65523 5.26566 4.78857L4.51175 5.54248C4.49124 5.56299 4.47329 5.59633 4.4579 5.64249C4.44252 5.68864 4.43482 5.72711 4.43482 5.75788C4.47585 5.97328 4.56817 6.21945 4.71177 6.4964C4.83485 6.74257 5.02461 7.04259 5.28104 7.39647C5.53747 7.75034 5.9016 8.15804 6.37344 8.61961C6.83501 9.0915 7.2453 9.45814 7.6043 9.71975C7.96323 9.98121 8.26335 10.1736 8.50439 10.2967C8.74544 10.4198 8.93007 10.4941 9.05826 10.5197L9.25053 10.5582C9.27104 10.5582 9.30446 10.5505 9.35056 10.5351C9.39672 10.5197 9.43006 10.5018 9.4506 10.4812L10.3276 9.58887C10.5123 9.42478 10.7276 9.34272 10.9738 9.34272C11.1482 9.34272 11.2866 9.37347 11.3892 9.43504H11.4045L14.374 11.189C14.5895 11.3225 14.7176 11.4917 14.7587 11.6968Z" fill="#010002"/>
<mask id="mask0" mask-type="alpha" maskUnits="userSpaceOnUse" x="0" y="0" width="15" height="15">
<path fill-rule="evenodd" clip-rule="evenodd" d="M14.7587 11.6968C14.7895 11.9327 14.7176 12.1379 14.5433 12.3122L12.497 14.3431C12.4047 14.4457 12.2842 14.5329 12.1354 14.6046C11.9867 14.6765 11.8406 14.7226 11.697 14.7431C11.6868 14.7431 11.6559 14.7458 11.6046 14.7509C11.5534 14.756 11.4867 14.7586 11.4047 14.7586C11.2097 14.7586 10.8943 14.7253 10.4584 14.6586C10.0224 14.5919 9.48909 14.4277 8.85832 14.1662C8.2274 13.9047 7.51198 13.5123 6.71195 12.9892C5.91191 12.4662 5.06054 11.7481 4.1579 10.8352C3.4399 10.1274 2.84498 9.45047 2.37315 8.80429C1.90132 8.15807 1.5218 7.56058 1.2346 7.01182C0.947374 6.46306 0.731972 5.96559 0.588371 5.5194C0.444771 5.07321 0.347327 4.68857 0.296041 4.36546C0.244755 4.04236 0.224241 3.7885 0.234498 3.60387C0.244755 3.41924 0.249884 3.31667 0.249884 3.29615C0.270398 3.15255 0.316556 3.00638 0.388356 2.85766C0.460156 2.70893 0.547343 2.5884 0.649915 2.49609L2.69623 0.449776C2.83983 0.306175 3.00394 0.234375 3.18857 0.234375C3.32192 0.234375 3.43987 0.27284 3.54245 0.349769C3.64502 0.426698 3.7322 0.521577 3.80401 0.634406L5.45029 3.75773C5.5426 3.92184 5.56824 4.10134 5.52722 4.29623C5.48619 4.49112 5.399 4.65523 5.26566 4.78857L4.51175 5.54248C4.49124 5.56299 4.47329 5.59633 4.4579 5.64249C4.44252 5.68864 4.43482 5.72711 4.43482 5.75788C4.47585 5.97328 4.56817 6.21945 4.71177 6.4964C4.83485 6.74257 5.02461 7.04259 5.28104 7.39647C5.53747 7.75034 5.9016 8.15804 6.37344 8.61961C6.83501 9.0915 7.2453 9.45814 7.6043 9.71975C7.96323 9.98121 8.26335 10.1736 8.50439 10.2967C8.74544 10.4198 8.93007 10.4941 9.05826 10.5197L9.25053 10.5582C9.27104 10.5582 9.30446 10.5505 9.35056 10.5351C9.39672 10.5197 9.43006 10.5018 9.4506 10.4812L10.3276 9.58887C10.5123 9.42478 10.7276 9.34272 10.9738 9.34272C11.1482 9.34272 11.2866 9.37347 11.3892 9.43504H11.4045L14.374 11.189C14.5895 11.3225 14.7176 11.4917 14.7587 11.6968Z" fill="white"/>
</mask>
<g mask="url(#mask0)">
<rect x="-0.234375" width="15.2344" height="15.2344" fill="white"/>
</g>
</svg>
