<svg width="16" height="16" viewBox="0 0 16 16" fill="none" xmlns="http://www.w3.org/2000/svg">
<path fill-rule="evenodd" clip-rule="evenodd" d="M0.551815 3.16809C0.363532 3.47015 0.25 3.82497 0.25 4.20842V12.0416C0.25 12.3851 0.345132 12.7035 0.498819 12.9836L5.39223 7.44811L0.551815 3.16809ZM9.87792 8.09355L8.31876 9.47336C8.22756 9.55366 8.11399 9.59376 8.00001 9.59376C7.88597 9.59376 7.77241 9.55366 7.6812 9.47336L6.12166 8.09348L1.16576 13.6988C1.46282 13.8872 1.81095 14 2.18745 14H13.8125C14.1889 14 14.5373 13.8872 14.8342 13.6988L9.87792 8.09355ZM8.00002 8.45395L14.736 2.49675C14.4596 2.3438 14.1483 2.25 13.8125 2.25H2.18749C1.8513 2.25 1.53993 2.3438 1.26463 2.49675L8.00002 8.45395ZM15.75 12.0416C15.75 12.3851 15.6544 12.7035 15.5013 12.9836L10.6073 7.44904L15.4482 3.16812C15.6366 3.47018 15.75 3.825 15.75 4.20842V12.0416Z" fill="black"/>
<mask id="mask0" mask-type="alpha" maskUnits="userSpaceOnUse" x="0" y="2" width="16" height="12">
<path fill-rule="evenodd" clip-rule="evenodd" d="M0.551815 3.16809C0.363532 3.47015 0.25 3.82497 0.25 4.20842V12.0416C0.25 12.3851 0.345132 12.7035 0.498819 12.9836L5.39223 7.44811L0.551815 3.16809ZM9.87792 8.09355L8.31876 9.47336C8.22756 9.55366 8.11399 9.59376 8.00001 9.59376C7.88597 9.59376 7.77241 9.55366 7.6812 9.47336L6.12166 8.09348L1.16576 13.6988C1.46282 13.8872 1.81095 14 2.18745 14H13.8125C14.1889 14 14.5373 13.8872 14.8342 13.6988L9.87792 8.09355ZM8.00002 8.45395L14.736 2.49675C14.4596 2.3438 14.1483 2.25 13.8125 2.25H2.18749C1.8513 2.25 1.53993 2.3438 1.26463 2.49675L8.00002 8.45395ZM15.75 12.0416C15.75 12.3851 15.6544 12.7035 15.5013 12.9836L10.6073 7.44904L15.4482 3.16812C15.6366 3.47018 15.75 3.825 15.75 4.20842V12.0416Z" fill="white"/>
</mask>
<g mask="url(#mask0)">
<rect x="-0.25" y="-0.25" width="16.5" height="16.5" fill="white"/>
</g>
</svg>
