<svg width="50" height="50" viewBox="0 0 50 50" fill="none" xmlns="http://www.w3.org/2000/svg">
<g opacity="0.4">
<path fill-rule="evenodd" clip-rule="evenodd" d="M17.2926 27.8576C17.2926 29.418 18.5697 30.6805 20.1468 30.6805H7.74889C6.69889 30.6805 5.84473 29.8388 5.84473 28.7992V9.92214C5.84473 8.78047 6.78223 7.85547 7.93639 7.85547H20.1468C18.5697 7.85547 17.2926 9.12005 17.2926 10.6784V27.8576Z" fill="#3B8EF3"/>
<path fill-rule="evenodd" clip-rule="evenodd" d="M23.0371 39.2213V22.0421C23.0371 20.4838 24.3142 19.2192 25.8912 19.2192H13.6808C12.5267 19.2192 11.5892 20.1442 11.5892 21.2859V40.1629C11.5892 41.2025 12.4433 42.0442 13.4933 42.0442H25.8912C24.3142 42.0442 23.0371 40.7817 23.0371 39.2213Z" fill="#3B8EF3"/>
</g>
<path fill-rule="evenodd" clip-rule="evenodd" d="M5.8457 17.425H38.3978V11.7417H5.8457V17.425Z" fill="#18BA62"/>
<path fill-rule="evenodd" clip-rule="evenodd" d="M42.1055 15.5305H13.5055C10.3326 15.5305 7.76172 18.0743 7.76172 21.2118V40.1514C7.76172 43.2888 10.3326 45.8326 13.5055 45.8326H42.1055C45.2763 45.8326 47.8492 43.2888 47.8492 40.1514V21.2118C47.8492 18.0743 45.2763 15.5305 42.1055 15.5305ZM42.1055 19.318C43.1596 19.318 44.0201 20.168 44.0201 21.2118V40.1513C44.0201 41.1951 43.1596 42.0451 42.1055 42.0451H13.5055C12.4492 42.0451 11.5909 41.1951 11.5909 40.1513V21.2118C11.5909 20.168 12.4492 19.318 13.5055 19.318H42.1055Z" fill="#3B8EF3"/>
<path fill-rule="evenodd" clip-rule="evenodd" d="M35.5246 36.4135H14.4642C13.935 36.4135 13.5059 35.9885 13.5059 35.4656C13.5059 34.9427 13.935 34.5198 14.4642 34.5198H35.5246C36.0538 34.5198 36.4809 34.9427 36.4809 35.4656C36.4809 35.9885 36.0538 36.4135 35.5246 36.4135Z" fill="#18BA62"/>
<path fill-rule="evenodd" clip-rule="evenodd" d="M18.2934 40.2011H14.4642C13.935 40.2011 13.5059 39.7782 13.5059 39.2553C13.5059 38.7303 13.935 38.3074 14.4642 38.3074H18.2934C18.8225 38.3074 19.2496 38.7303 19.2496 39.2553C19.2496 39.7782 18.8225 40.2011 18.2934 40.2011Z" fill="#18BA62"/>
<path fill-rule="evenodd" clip-rule="evenodd" d="M25.9516 40.2011H22.1224C21.5932 40.2011 21.1641 39.7782 21.1641 39.2553C21.1641 38.7303 21.5932 38.3074 22.1224 38.3074H25.9516C26.4807 38.3074 26.9078 38.7303 26.9078 39.2553C26.9078 39.7782 26.4807 40.2011 25.9516 40.2011Z" fill="#18BA62"/>
<path fill-rule="evenodd" clip-rule="evenodd" d="M35.5263 40.2011H29.7826C29.2513 40.2011 28.8242 39.7782 28.8242 39.2553C28.8242 38.7303 29.2513 38.3074 29.7826 38.3074H35.5263C36.0555 38.3074 36.4826 38.7303 36.4826 39.2553C36.4826 39.7782 36.0555 40.2011 35.5263 40.2011Z" fill="#18BA62"/>
<path fill-rule="evenodd" clip-rule="evenodd" d="M23.0798 21.2617H17.336C15.2298 21.2617 13.5068 22.9659 13.5068 25.0492V28.8388C13.5068 30.9221 15.2298 32.6263 17.336 32.6263H23.0798C25.186 32.6263 26.9089 30.9221 26.9089 28.8388V25.0492C26.9089 22.9659 25.186 21.2617 23.0798 21.2617ZM23.0797 23.1555C24.136 23.1555 24.9943 24.0055 24.9943 25.0492V28.8388C24.9943 29.8825 24.136 30.7305 23.0797 30.7305H17.336C16.2797 30.7305 15.4214 29.8825 15.4214 28.8388V25.0492C15.4214 24.0055 16.2797 23.1555 17.336 23.1555H23.0797Z" fill="#18BA62"/>
<path fill-rule="evenodd" clip-rule="evenodd" d="M17.336 30.7305L19.2504 30.7313V23.1564L17.336 23.1555V30.7305Z" fill="#18BA62"/>
<path fill-rule="evenodd" clip-rule="evenodd" d="M21.1647 30.7313L23.0797 30.7305V23.1555L21.1647 23.1564V30.7313Z" fill="#18BA62"/>
<path fill-rule="evenodd" clip-rule="evenodd" d="M15.4213 26.944H17.3359V25.0502L15.4214 25.0492L15.4213 26.944Z" fill="#18BA62"/>
<path fill-rule="evenodd" clip-rule="evenodd" d="M23.0817 28.8376H24.9963V26.9438H23.0817V28.8376Z" fill="#18BA62"/>
<path fill-rule="evenodd" clip-rule="evenodd" d="M7.76133 30.6816C6.70508 30.6816 5.84674 29.8316 5.84674 28.7878V9.84824C5.84674 8.80449 6.70508 7.95449 7.76133 7.95449H36.3613C37.4155 7.95449 38.2759 8.80449 38.2759 9.84824V15.5316H42.1051V9.84824C42.1051 6.71074 39.5322 4.16699 36.3613 4.16699H7.76133C4.58841 4.16699 2.01758 6.71074 2.01758 9.84824V28.7878C2.01758 31.9253 4.58841 34.4691 7.76133 34.4691V30.6816Z" fill="#3B8EF3"/>
</svg>
