<svg width="21" height="21" viewBox="0 0 21 21" fill="none" xmlns="http://www.w3.org/2000/svg">
<path fill-rule="evenodd" clip-rule="evenodd" d="M12.9911 4.18949C12.9911 4.51705 13.2451 4.78027 13.5581 4.78027C13.872 4.78027 14.1242 4.51705 14.1242 4.18949C14.1242 3.86188 13.872 3.59963 13.5581 3.59963C13.2451 3.59963 12.9911 3.86193 12.9911 4.18949ZM7.53024 4.18949C7.53024 4.51705 7.78428 4.78027 8.09729 4.78027C8.41029 4.78027 8.66433 4.5171 8.66433 4.18949C8.66433 3.86188 8.4121 3.59963 8.09729 3.59963C7.78428 3.59963 7.53024 3.86193 7.53024 4.18949ZM14.7375 0.338964L13.7495 1.93047C15.5314 2.84224 16.7344 4.56064 16.7344 6.53181C16.7344 6.653 16.728 6.77229 16.7181 6.89062H4.93912C4.92915 6.77229 4.92188 6.653 4.92188 6.53181C4.92188 4.56064 6.12398 2.84224 7.90677 1.93047L6.91786 0.338964C6.85435 0.238584 6.88249 0.101291 6.97956 0.0359798C7.07663 -0.0302966 7.20912 -0.00282042 7.27171 0.100369L8.29418 1.74683C9.06442 1.4183 9.92088 1.23369 10.8281 1.23369C11.7345 1.23369 12.5928 1.4183 13.3612 1.74683L14.3855 0.100369C14.4481 -0.00282042 14.5797 -0.0302966 14.6758 0.0359798C14.7729 0.101334 14.8011 0.238584 14.7375 0.338964ZM6.09379 16.8539C5.44891 16.8539 4.92188 16.3446 4.92188 15.7192V7.21875H16.7344V15.7192C16.7344 16.3446 16.2073 16.8539 15.5633 16.8539H14.3101V19.7618C14.3101 20.4438 13.7374 21 13.0341 21H12.9802C12.2796 21 11.7032 20.4447 11.7032 19.7618V16.8539H9.95305V19.7618C9.95305 20.4438 9.37944 21 8.67607 21H8.62128C7.92067 21 7.34612 20.4447 7.34612 19.7618V16.8539H6.09379ZM18.5628 6.89062H18.5161C17.897 6.89062 17.3906 7.449 17.3906 8.1299V13.5255C17.3906 14.2091 17.8978 14.7656 18.5161 14.7656H18.5636C19.1835 14.7656 19.6875 14.2072 19.6875 13.5255V8.12986C19.6875 7.449 19.1819 6.89062 18.5628 6.89062ZM3.09263 6.89062H3.14092C3.75924 6.89062 4.2648 7.449 4.26562 8.12986V13.5255C4.26562 14.2072 3.76084 14.7656 3.14175 14.7656H3.09263C2.47353 14.7656 1.96875 14.2091 1.96875 13.5255V8.1299C1.96875 7.449 2.47353 6.89062 3.09263 6.89062Z" fill="black"/>
<mask id="mask0" mask-type="alpha" maskUnits="userSpaceOnUse" x="1" y="0" width="19" height="21">
<path fill-rule="evenodd" clip-rule="evenodd" d="M12.9911 4.18949C12.9911 4.51705 13.2451 4.78027 13.5581 4.78027C13.872 4.78027 14.1242 4.51705 14.1242 4.18949C14.1242 3.86188 13.872 3.59963 13.5581 3.59963C13.2451 3.59963 12.9911 3.86193 12.9911 4.18949ZM7.53024 4.18949C7.53024 4.51705 7.78428 4.78027 8.09729 4.78027C8.41029 4.78027 8.66433 4.5171 8.66433 4.18949C8.66433 3.86188 8.4121 3.59963 8.09729 3.59963C7.78428 3.59963 7.53024 3.86193 7.53024 4.18949ZM14.7375 0.338964L13.7495 1.93047C15.5314 2.84224 16.7344 4.56064 16.7344 6.53181C16.7344 6.653 16.728 6.77229 16.7181 6.89062H4.93912C4.92915 6.77229 4.92188 6.653 4.92188 6.53181C4.92188 4.56064 6.12398 2.84224 7.90677 1.93047L6.91786 0.338964C6.85435 0.238584 6.88249 0.101291 6.97956 0.0359798C7.07663 -0.0302966 7.20912 -0.00282042 7.27171 0.100369L8.29418 1.74683C9.06442 1.4183 9.92088 1.23369 10.8281 1.23369C11.7345 1.23369 12.5928 1.4183 13.3612 1.74683L14.3855 0.100369C14.4481 -0.00282042 14.5797 -0.0302966 14.6758 0.0359798C14.7729 0.101334 14.8011 0.238584 14.7375 0.338964ZM6.09379 16.8539C5.44891 16.8539 4.92188 16.3446 4.92188 15.7192V7.21875H16.7344V15.7192C16.7344 16.3446 16.2073 16.8539 15.5633 16.8539H14.3101V19.7618C14.3101 20.4438 13.7374 21 13.0341 21H12.9802C12.2796 21 11.7032 20.4447 11.7032 19.7618V16.8539H9.95305V19.7618C9.95305 20.4438 9.37944 21 8.67607 21H8.62128C7.92067 21 7.34612 20.4447 7.34612 19.7618V16.8539H6.09379ZM18.5628 6.89062H18.5161C17.897 6.89062 17.3906 7.449 17.3906 8.1299V13.5255C17.3906 14.2091 17.8978 14.7656 18.5161 14.7656H18.5636C19.1835 14.7656 19.6875 14.2072 19.6875 13.5255V8.12986C19.6875 7.449 19.1819 6.89062 18.5628 6.89062ZM3.09263 6.89062H3.14092C3.75924 6.89062 4.2648 7.449 4.26562 8.12986V13.5255C4.26562 14.2072 3.76084 14.7656 3.14175 14.7656H3.09263C2.47353 14.7656 1.96875 14.2091 1.96875 13.5255V8.1299C1.96875 7.449 2.47353 6.89062 3.09263 6.89062Z" fill="white"/>
</mask>
<g mask="url(#mask0)">
<rect width="21" height="21" fill="#F2F4F5"/>
</g>
</svg>
