<svg width="50" height="50" viewBox="0 0 50 50" fill="none" xmlns="http://www.w3.org/2000/svg">
<path d="M34.1253 2.08325H15.8962C12.8753 2.08325 10.417 4.66659 10.417 7.81242V42.1874C10.417 45.3333 12.8753 47.9166 15.8962 47.9166H34.1253C37.1253 47.9166 39.6045 45.3333 39.6045 42.1874V7.81242C39.5837 4.66659 37.1253 2.08325 34.1253 2.08325ZM14.0628 7.81242C14.0628 6.77075 14.8962 5.89575 15.8962 5.89575H34.1253C35.1045 5.89575 35.9587 6.77075 35.9587 7.81242V9.72908H14.0628V7.81242ZM35.9378 11.6249V36.4583H14.0628V11.6249H35.9378ZM34.1253 44.1041H15.8962C14.917 44.1041 14.0628 43.2291 14.0628 42.1874V38.3749H35.9378V42.1874C35.9378 43.2291 35.1045 44.1041 34.1253 44.1041Z" fill="#3B8EF3"/>
<path opacity="0.4" d="M19.5417 42.1875V38.375H14.0625V42.1875C14.0625 43.2292 14.8958 44.1042 15.8958 44.1042H21.375C20.3542 44.1042 19.5417 43.2292 19.5417 42.1875Z" fill="#3B8EF3"/>
<path opacity="0.4" d="M19.5417 11.625H14.0625V36.4583H19.5417V11.625Z" fill="#3B8EF3"/>
<path opacity="0.4" d="M14.0625 7.81242V9.72909H19.5417V7.81242C19.5417 6.77075 20.3542 5.89575 21.375 5.89575H15.8958C14.8958 5.89575 14.0625 6.77075 14.0625 7.81242Z" fill="#3B8EF3"/>
<path d="M27.7288 42.1874H22.2497C21.7497 42.1874 21.333 41.7708 21.333 41.2291C21.333 40.7083 21.7497 40.2708 22.2497 40.2708H27.7288C28.2288 40.2708 28.6455 40.6874 28.6455 41.2291C28.6455 41.7708 28.2288 42.1874 27.7288 42.1874Z" fill="#18BA62"/>
</svg>
