<svg width="16" height="18" viewBox="0 0 16 18" fill="none" xmlns="http://www.w3.org/2000/svg">
<path fill-rule="evenodd" clip-rule="evenodd" d="M2.16683 6.91634C2.16683 4.29672 4.2972 2.16634 6.91683 2.16634C9.53645 2.16634 11.6668 4.29672 11.6668 6.91634C11.6668 9.53597 9.53645 11.6663 6.91683 11.6663C4.2972 11.6663 2.16683 9.53597 2.16683 6.91634ZM15.3774 15.7664L11.191 11.58C12.4537 10.4226 13.2502 8.76409 13.2502 6.91634C13.2502 3.41876 10.4144 0.583008 6.91683 0.583008C3.41925 0.583008 0.583496 3.41876 0.583496 6.91634C0.583496 10.4139 3.41925 13.2497 6.91683 13.2497C7.94995 13.2497 8.92054 12.9971 9.78187 12.5593L14.1835 16.961C14.349 17.1257 14.5643 17.208 14.7812 17.208C14.9966 17.208 15.2127 17.1257 15.3774 16.961C15.7075 16.6309 15.7075 16.0965 15.3774 15.7664Z" fill="#3A8FF3"/>
<mask id="mask0" mask-type="alpha" maskUnits="userSpaceOnUse" x="0" y="0" width="16" height="18">
<path fill-rule="evenodd" clip-rule="evenodd" d="M2.16683 6.91634C2.16683 4.29672 4.2972 2.16634 6.91683 2.16634C9.53645 2.16634 11.6668 4.29672 11.6668 6.91634C11.6668 9.53597 9.53645 11.6663 6.91683 11.6663C4.2972 11.6663 2.16683 9.53597 2.16683 6.91634ZM15.3774 15.7664L11.191 11.58C12.4537 10.4226 13.2502 8.76409 13.2502 6.91634C13.2502 3.41876 10.4144 0.583008 6.91683 0.583008C3.41925 0.583008 0.583496 3.41876 0.583496 6.91634C0.583496 10.4139 3.41925 13.2497 6.91683 13.2497C7.94995 13.2497 8.92054 12.9971 9.78187 12.5593L14.1835 16.961C14.349 17.1257 14.5643 17.208 14.7812 17.208C14.9966 17.208 15.2127 17.1257 15.3774 16.961C15.7075 16.6309 15.7075 16.0965 15.3774 15.7664Z" fill="white"/>
</mask>
<g mask="url(#mask0)">
<rect x="-1" y="-1" width="19" height="19" fill="#4D4D4D"/>
</g>
</svg>
