<svg width="30" height="30" viewBox="0 0 30 30" fill="none" xmlns="http://www.w3.org/2000/svg">
<path d="M17.3077 29.2143C17.18 29.256 17.0518 29.2944 16.9231 29.3296C17.0518 29.2944 17.18 29.256 17.3077 29.2143Z" fill="white"/>
<path d="M17.7699 29.2398C17.7181 29.2623 17.6663 29.2829 17.6145 29.304C17.6663 29.2829 17.7181 29.2623 17.7699 29.2398Z" fill="white"/>
<path d="M16.9232 29.2274C16.7956 29.2611 16.6673 29.2911 16.5386 29.3164C16.6673 29.2911 16.7956 29.2611 16.9232 29.2274Z" fill="white"/>
<path d="M17.0009 29.245C16.9493 29.2642 16.8973 29.282 16.8455 29.2989C16.8973 29.282 16.9493 29.2642 17.0009 29.245Z" fill="white"/>
<path d="M18.1547 29.2379C18.103 29.2609 18.0512 29.2839 17.9993 29.3059C18.0512 29.2839 18.103 29.2609 18.1547 29.2379Z" fill="white"/>
<path d="M19.3085 28.8557C19.2567 28.8805 19.2049 28.904 19.1531 28.9284C19.2049 28.904 19.2567 28.8805 19.3085 28.8557Z" fill="white"/>
<path d="M18.924 28.855C18.8724 28.8798 18.8205 28.9052 18.7686 28.9291C18.8205 28.9052 18.8724 28.8803 18.924 28.855Z" fill="white"/>
<path d="M18.5392 28.858C18.4877 28.8815 18.4358 28.9035 18.3838 28.926C18.4358 28.9035 18.4877 28.8815 18.5392 28.858Z" fill="white"/>
<path d="M16.5384 29.2536C16.4103 29.2672 16.2823 29.2794 16.1538 29.2902C16.2823 29.2794 16.4103 29.2672 16.5384 29.2536Z" fill="white"/>
<path d="M30 14.8101C30 6.63197 23.283 0 15 0C6.717 0 0 6.63197 0 14.8101C0 22.9883 6.717 29.6203 15 29.6203C15.0881 29.6203 15.1758 29.6184 15.2637 29.6169V18.0878H12.041V14.3796H15.2637V11.6509C15.2637 8.48617 17.2204 6.76372 20.0796 6.76372C21.4487 6.76372 22.6257 6.86451 22.9688 6.90948V10.217H20.9972C19.4417 10.217 19.1405 10.9469 19.1405 12.0179V14.3796H22.8598L22.375 18.0878H19.1405V29.0481C25.4102 27.2734 30 21.5702 30 14.8101Z" fill="white"/>
<path d="M16.1539 29.248C16.0262 29.2686 15.8979 29.285 15.7693 29.2958C15.8979 29.285 16.0262 29.2686 16.1539 29.248Z" fill="white"/>
<path d="M15.7691 29.645C15.6412 29.6506 15.5128 29.6548 15.3845 29.6576C15.5128 29.6548 15.6412 29.6506 15.7691 29.645Z" fill="white"/>
</svg>
