<svg width="30" height="30" viewBox="0 0 30 30" fill="none" xmlns="http://www.w3.org/2000/svg">
<path fill-rule="evenodd" clip-rule="evenodd" d="M0 15C0 6.717 6.717 0 15 0C23.283 0 30 6.717 30 15C30 23.283 23.283 30 15 30C6.717 30 0 23.283 0 15ZM21.8587 12.1406C21.8587 11.9916 21.8555 11.8433 21.8488 11.6956C22.5211 11.2097 23.1054 10.6032 23.5661 9.91264C22.9493 10.1868 22.2855 10.3716 21.5891 10.4549C22.3 10.0285 22.8456 9.35417 23.1031 8.55057C22.4377 8.94493 21.7012 9.23149 20.9168 9.38622C20.2885 8.71696 19.3941 8.29834 18.4037 8.29834C16.5024 8.29834 14.9604 9.84032 14.9604 11.741C14.9604 12.011 14.9908 12.2738 15.0499 12.526C12.1884 12.382 9.65103 11.012 7.95319 8.92868C7.65747 9.43748 7.48695 10.0285 7.48695 10.6593C7.48695 11.8538 8.09464 12.9082 9.01909 13.5251C8.45421 13.5077 7.92366 13.3525 7.45972 13.0946C7.45926 13.109 7.45926 13.1229 7.45926 13.1385C7.45926 14.8057 8.64601 16.198 10.2214 16.5134C9.9321 16.5923 9.62769 16.6347 9.31343 16.6347C9.0921 16.6347 8.87627 16.6127 8.66638 16.5724C9.10492 17.9404 10.3757 18.9359 11.8829 18.9638C10.7043 19.8873 9.21982 20.4375 7.60666 20.4375C7.32903 20.4375 7.05482 20.4218 6.78543 20.3899C8.3091 21.3666 10.1184 21.9365 12.0628 21.9365C18.3957 21.9363 21.8587 16.6901 21.8587 12.1406Z" fill="white"/>
</svg>
