<svg width="226" height="214" viewBox="0 0 226 214" fill="none" xmlns="http://www.w3.org/2000/svg">
<path d="M77.7009 10.0032H143.805C176.829 10.0032 203.593 36.6946 203.593 69.6109V136.259C203.593 169.183 176.821 195.867 143.805 195.867H77.7009C44.6771 195.867 17.9131 169.175 17.9131 136.259V69.6109C17.905 36.6946 44.6771 10.0032 77.7009 10.0032Z" fill="#E0E3ED"/>
<path d="M87.7256 65.9133C76.2587 39.4076 67.1889 22.8808 60.2894 12.5789C35.7605 20.0066 17.9043 42.7339 17.9043 69.6191V96.1814C40.3925 112.555 69.3025 138.544 87.7256 173.664C92.4467 182.674 96.2285 189.973 99.241 195.883H127.349C122.766 172.074 111.007 119.7 87.7256 65.9133Z" fill="url(#paint0_linear)"/>
<path d="M143.805 10.0032H121.778C124.362 21.4032 128.961 41.8698 137.124 78.5C150.024 136.388 146.826 178.637 144.493 195.85C150.105 195.786 155.523 194.954 160.665 193.452C163.127 184.079 166.844 168.545 172.407 142.798C181.607 100.226 184.651 54.0368 185.656 27.0466C174.861 16.5105 160.098 10.0032 143.805 10.0032Z" fill="url(#paint1_linear)"/>
<path d="M203.593 136.259V135.968C200.337 122.146 183.226 110.609 179.08 107.509C174.626 104.174 135.998 104.424 135.998 104.424C135.998 104.424 113.348 118.497 109.631 127.006C105.914 135.516 102.205 144.042 101.088 151.074C99.9703 158.106 100.715 161.441 108.141 161.441C115.567 161.441 121.139 162.183 121.139 162.183L123.106 195.875H143.789C176.829 195.875 203.593 169.183 203.593 136.259Z" fill="#3A8FF3"/>
<path d="M136.622 100.59L133.407 97.2552C133.407 97.2552 131.674 94.0499 144.671 94.5424C157.669 95.0349 176.982 98.3693 177.727 100.84C178.472 103.31 171.662 108.122 171.047 108.243C170.431 108.365 162.997 111.449 162.633 111.449C162.268 111.449 136.622 100.59 136.622 100.59Z" fill="#2D517E"/>
<path d="M140.056 90.9336L139.643 92.2819L139.748 102.665L157.102 112.248L160.778 113.354L163.969 111.828L167.443 105.151C167.443 105.151 165.467 101.308 165.467 99.2333L140.056 90.9336Z" fill="#E9F3FE"/>
<path d="M157.094 112.248L160.77 113.354L163.961 111.828L164.22 111.328C157.41 111.166 154.13 106.395 151.053 103.73C148.186 101.252 154.203 96.9323 155.774 96.0684L140.056 90.9255L139.643 92.2738L139.748 102.657L157.094 112.248Z" fill="#92C1F8"/>
<path d="M163.897 108.72C163.897 107.057 163.411 105.676 166.674 104.917C169.938 104.158 173.201 104.505 175.072 102.568C176.943 100.63 177.639 99.2493 178.263 101.809C178.886 104.368 178.676 107.347 178.676 107.347C178.676 107.347 176.732 110.738 171.598 111.223C166.464 111.707 163.961 111.844 163.961 111.844L163.897 108.72Z" fill="#2D517E"/>
<path d="M132.662 99.9276C132.791 98.2644 132.524 95.915 137.658 98.2644C142.792 100.614 152.793 104.352 154.875 104.497C156.956 104.643 157.79 106.023 157.652 107.678C157.515 109.333 157.094 112.248 157.094 112.248C157.094 112.248 146.266 109.067 140.29 107.129C134.322 105.192 132.241 105.192 132.662 99.9276Z" fill="#2D517E"/>
<path d="M181.534 51.2031C181.534 51.2031 185.696 72.8001 179.032 85.8068C172.367 98.8215 167.646 102.14 157.094 101.308C146.542 100.477 137.934 91.6198 129.885 82.2059C121.835 72.7921 121.276 71.9605 122.945 64.2098C124.613 56.4591 139.327 53.6898 139.327 53.6898L181.534 51.2031Z" fill="#E9F3FE"/>
<path d="M181.534 51.2031L139.327 53.6979C139.327 53.6979 133.464 54.804 128.727 57.5652L132.249 66.8499C132.249 66.8499 132.946 64.9122 134.751 63.1118C136.557 61.3113 150.162 60.617 164.326 60.7623C174.408 60.8592 180.036 59.1395 182.457 58.1384C182.06 53.9805 181.534 51.2031 181.534 51.2031Z" fill="#92C1F8"/>
<path d="M132.241 85.8068C132.241 85.8068 126.823 89.8194 123.074 77.6363C119.325 65.4532 117.656 52.4465 116.822 45.9392C115.988 39.4318 118.628 33.6188 124.596 30.8495C130.565 28.0803 140.703 14.6538 149.862 9.94685C159.037 5.24799 169.03 0.403803 174.723 5.24799C180.416 10.0922 175.97 17.8429 175.97 17.8429C175.97 17.8429 193.187 10.5039 198.183 16.4623C203.18 22.4126 203.601 29.1944 198.459 33.6269C193.324 38.0593 192.207 38.8909 192.207 38.8909C192.207 38.8909 201.374 38.0593 202.759 43.5978C204.143 49.1363 187.21 58.1304 164.301 58.2676C141.392 58.4049 132.233 59.2365 132.233 59.2365V66.8499C132.233 66.8499 129.423 62.4901 127.342 64.775C125.26 67.0598 126.297 76.506 129.01 76.9177C131.723 77.3295 131.715 77.3295 131.715 77.3295L132.241 85.8068Z" fill="#2D517E"/>
<path d="M177.55 185.468C176.91 176.014 175.234 154.667 172.399 142.807C168.682 127.257 163.969 111.836 163.969 111.836L163.402 112.062C161.758 112.724 159.961 112.878 158.236 112.498L157.094 112.248C157.094 112.248 157.547 113.427 158.284 143.299C158.884 167.399 157.07 187.632 156.341 194.551C164.074 192.904 171.241 189.771 177.55 185.468Z" fill="white"/>
<path d="M1.61202 115.816L1.09375 114.161L4.15481 110.246L6.01736 113.031L1.61202 115.816Z" fill="#3576C4"/>
<path d="M5.58769 111.287L61.1888 102.616C65.0435 102.01 68.5823 104.86 68.8091 108.744L73.1577 183.716C73.3602 187.204 70.8174 190.239 67.3433 190.667L20.4152 196.456C16.9168 196.884 13.6857 194.518 13.0622 191.055L0.105321 118.965C-0.55062 115.316 1.92738 111.852 5.58769 111.287Z" fill="#2D517E"/>
<path d="M71.7329 105.022L76.0815 179.986C76.284 183.474 73.7412 186.509 70.2671 186.937L61.254 188.051L28.8376 192.048L23.339 192.726C19.8407 193.154 16.6096 190.78 15.986 187.325L3.02915 115.235C2.37321 111.594 4.85121 108.138 8.51152 107.565L64.1126 98.894C67.9673 98.2885 71.5061 101.139 71.7329 105.022Z" fill="#3A8FF3"/>
<path d="M64.598 173.987C60.881 177.313 56.2489 179.897 51.2605 180.083C49.3656 180.155 47.4707 179.873 45.6081 179.485C37.17 177.709 29.2501 173.511 23.0551 167.528C21.2411 165.776 19.581 163.887 17.9209 161.99C15.5563 159.301 13.1917 156.604 10.8351 153.916C10.4707 153.504 10.1063 153.092 9.75 152.673L15.9774 187.341C16.6009 190.804 19.8321 193.178 23.3304 192.742L28.829 192.064L61.2454 188.067L70.2585 186.953C73.7326 186.525 76.2754 183.482 76.0729 180.002L74.9068 159.979C72.2183 165.203 68.9709 170.071 64.598 173.987Z" fill="#3576C4"/>
<path d="M28.5293 189.884C28.5293 189.787 28.5374 189.69 28.5374 189.585C28.5374 189.682 28.5293 189.787 28.5293 189.884Z" fill="#3EC57B"/>
<path d="M28.5537 189.359C28.5942 188.778 28.6833 188.14 28.8048 187.462C28.6833 188.132 28.5942 188.77 28.5537 189.359Z" fill="#3EC57B"/>
<path d="M58.9696 179.09C58.9858 179.178 58.9372 179.267 58.8562 179.3C55.4388 180.721 51.5032 182.222 47.3003 183.562C41.8665 185.298 36.2546 185.54 31.5253 185.226C30.7803 185.177 30.0596 185.113 29.3713 185.04C29.3632 185.08 29.347 185.121 29.3389 185.161C29.347 185.121 29.3632 185.08 29.3713 185.04C29.4603 184.701 29.5575 184.354 29.6628 184.015C29.7195 183.821 29.7762 183.627 29.8409 183.433C29.9381 183.126 30.0353 182.812 30.1325 182.505C30.173 182.392 30.2054 182.279 30.2458 182.166C30.2863 182.053 30.3187 181.94 30.3592 181.827C30.3997 181.714 30.4321 181.601 30.4726 181.488C30.4807 181.463 30.4888 181.431 30.4969 181.407C30.6993 180.817 30.9099 180.236 31.1123 179.671C31.1609 179.542 31.2095 179.421 31.25 179.292C31.3877 178.92 31.5334 178.549 31.6711 178.202C31.8574 177.733 32.0355 177.281 32.1975 176.861C32.2137 176.821 32.238 176.773 32.2542 176.732C32.2947 176.627 32.3351 176.53 32.3756 176.433C32.4971 176.143 32.6105 175.86 32.7238 175.602C32.7805 175.473 32.8291 175.352 32.8777 175.23C33.0316 174.875 33.1611 174.568 33.2664 174.318C33.4608 173.858 33.5822 173.6 33.5822 173.6L35.7525 168.731C35.7849 168.667 35.8497 168.618 35.9226 168.618L55.3741 167.932C55.4631 167.932 55.536 167.988 55.5603 168.069C55.8033 168.933 57.8116 173.269 57.9816 173.624C57.9897 173.64 57.9897 173.656 57.9978 173.672C58.0464 173.939 58.4351 176.337 58.9696 179.09Z" fill="#3EC57B"/>
<path d="M33.801 176.45L33.2828 177.774C33.2666 177.814 33.2666 177.846 33.2747 177.887C33.3718 178.29 33.9225 180.753 32.6997 182.561V182.569C32.3596 183.086 31.9709 183.998 31.5741 185.088C31.5417 185.169 31.4688 185.218 31.3797 185.218C30.7643 185.177 30.1731 185.121 29.5901 185.064C29.4767 185.056 29.3957 184.935 29.4281 184.822C29.501 184.555 29.582 184.281 29.6629 184.006C29.7196 183.813 29.7763 183.619 29.8411 183.425C29.9383 183.118 30.0354 182.803 30.1326 182.497C30.1731 182.384 30.2055 182.271 30.246 182.158C30.2865 182.045 30.3189 181.932 30.3594 181.819C30.3999 181.705 30.4323 181.592 30.4727 181.479C30.4808 181.455 30.4889 181.423 30.497 181.399C30.6995 180.809 30.91 180.228 31.1125 179.663C31.1611 179.534 31.2097 179.413 31.2502 179.283C31.3959 178.912 31.5336 178.541 31.6713 178.193C31.8575 177.725 32.0357 177.273 32.1976 176.853C32.2138 176.813 32.2381 176.764 32.2543 176.724C32.2948 176.619 32.3353 176.522 32.3758 176.425C32.4973 176.135 32.6106 175.852 32.724 175.594C32.7807 175.465 32.8293 175.343 32.8779 175.222C32.9912 174.956 33.0965 174.714 33.1856 174.512C33.2342 174.407 33.3556 174.367 33.4528 174.423L34.2383 174.891C34.3193 174.94 34.3517 175.037 34.3193 175.125L33.801 176.45Z" fill="#246641"/>
<path d="M34.198 178.137C34.198 178.137 34.0441 180.591 32.708 182.561V182.569C32.0844 182.295 31.3394 181.915 30.5053 181.391C28.8614 180.373 26.8531 178.815 24.6504 176.409C19.7106 171.016 21.646 160.585 21.646 160.585L22.4072 156.096C22.4072 156.096 26.7964 155.733 26.9988 155.716C27.2013 155.7 29.5659 156.314 29.3554 157.42C29.1448 158.526 28.0354 168.037 29.0962 171C29.7036 172.687 31.3718 174.415 32.7403 175.586C33.1371 175.925 33.5016 176.215 33.8174 176.441L34.198 178.137Z" fill="#E9F3FE"/>
<path d="M61.6104 146.44L66.291 148.329C66.291 148.329 69.2954 151.704 70.17 152.398C71.0446 153.084 73.5388 155.821 71.4738 157.92C69.4088 160.02 66.8012 160.165 64.6633 158.986C62.6307 157.864 59.4644 156.08 59.4644 156.08C59.4644 156.08 58.6303 153.407 59.0514 151.13C59.4644 148.862 61.6104 146.44 61.6104 146.44Z" fill="#E9F3FE"/>
<path d="M66.2825 148.329L61.6018 146.44C61.6018 146.44 59.4559 148.862 59.0348 151.139C58.6137 153.407 59.4478 156.088 59.4478 156.088C59.4478 156.088 60.3628 156.604 61.5209 157.25C61.3022 156.443 61.367 155.305 62.2821 153.803C63.7802 151.357 65.9586 149.895 67.1004 149.249C66.6307 148.716 66.2825 148.329 66.2825 148.329Z" fill="#539CEA"/>
<path d="M81.515 139.173C79.6363 140.893 76.8992 143.662 76.0165 147.287C75.1338 150.921 73.2065 156.491 71.3925 158.13C69.5785 159.769 67.473 159.931 66.0154 159.567C64.5577 159.196 64.9707 156.395 67.9994 150.985C67.9994 150.985 69.951 148.119 72.2671 144.47C74.575 140.82 75.733 139.65 75.733 139.65C75.733 139.65 75.7411 139.036 75.9112 138.253C76.1703 137.074 76.7939 135.5 78.3163 134.999C78.3973 134.975 78.4702 134.943 78.5512 134.911C80.4785 134.103 82.2115 131.172 83.6286 130.389C83.742 130.325 83.8554 130.276 83.9606 130.244C84.2198 130.163 84.4627 130.179 84.6976 130.3C86.3172 131.181 82.9322 137.874 81.515 139.173Z" fill="#E9F3FE"/>
<path d="M28.6592 165.292C28.7402 162.692 29.0075 159.971 29.1937 158.478C28.0681 157.84 26.9344 157.186 26.8615 157.186C26.7643 157.186 23.6628 158.05 21.9865 158.518L21.6302 160.593C21.6302 160.593 21.371 161.982 21.29 164C22.9177 164.331 26.8696 165.114 28.6592 165.292Z" fill="#539CEA"/>
<path d="M49.5438 138.067L48.6611 134.208C48.6611 134.208 61.043 140.837 63.6668 144.583C66.2906 148.329 66.2906 148.329 66.2906 148.329C66.2906 148.329 62.776 150.218 61.1159 153.149C59.4558 156.08 59.4558 156.08 59.4558 156.08C59.4558 156.08 57.5042 153.892 55.755 152.503C54.0139 151.114 49.5438 138.067 49.5438 138.067Z" fill="#92C1F8"/>
<path d="M31.5253 138.649L25.2088 140.861C25.2088 140.861 20.0666 151.696 19.775 155.498C19.5564 158.348 20.1961 161.982 20.1961 161.982H32.1164L31.5253 138.649Z" fill="#92C1F8"/>
<path d="M45.9562 124.722L48.1751 128.436C48.1751 128.436 46.3854 129.792 47.5192 132.004C48.6529 134.216 48.6529 134.216 48.6529 134.216C48.6529 134.216 47.2924 140.74 42.5551 142.54C37.8177 144.341 36.3682 136.848 36.3682 136.848C36.3682 136.848 37.8096 128.048 37.6072 125.699C37.4128 123.357 45.9562 124.722 45.9562 124.722Z" fill="#E9F3FE"/>
<path d="M48.1756 128.435L45.9567 124.722C45.9567 124.722 45.7462 124.689 45.3898 124.641C43.8431 126.377 41.6404 129.348 42.1425 131.697C42.9118 135.258 40.4419 135.12 39.8589 134.878C39.2677 134.636 39.1543 137.147 39.8589 137.551C40.2719 137.785 43.835 138.301 46.8961 138.576C48.1918 136.388 48.6452 134.208 48.6452 134.208C48.6452 134.208 48.6452 134.208 47.5115 131.996C46.3859 129.792 48.1756 128.435 48.1756 128.435Z" fill="#539CEA"/>
<path d="M53.9812 110.181C47.8186 95.0349 33.1126 106.903 33.1126 106.903C33.1126 106.903 33.1449 108.324 33.2421 110.431C33.064 110.351 32.8858 110.31 32.6996 110.326C31.7278 110.407 31.0637 111.901 31.2095 113.653C31.3553 115.413 32.2623 116.769 33.234 116.688C33.3798 116.672 33.5256 116.632 33.6551 116.559C33.8495 118.731 34.1086 120.959 34.4568 122.873C35.5986 129.17 42.9355 129.194 49.997 128.201C57.0422 127.208 53.9812 110.181 53.9812 110.181Z" fill="#E9F3FE"/>
<path d="M46.5395 110.496C49.3415 111.36 52.4835 111.957 54.2894 112.264C54.1355 110.996 53.9897 110.189 53.9897 110.189C47.8271 95.0429 33.1211 106.911 33.1211 106.911C33.1211 106.911 33.1535 108.332 33.2507 110.439C33.2507 110.439 34.433 113.063 35.3804 112.498C36.3198 111.933 42.3205 109.188 46.5395 110.496Z" fill="#539CEA"/>
<path d="M38.4897 108.623C38.4897 108.623 55.2769 112.208 61.7473 106.685C68.2176 101.163 61.6501 95.8181 59.9333 95.9553C58.2084 96.1006 58.2084 96.1006 58.2084 96.1006C58.2084 96.1006 61.2128 91.0062 56.7832 88.3903C52.3536 85.7745 46.8712 91.7893 46.8712 91.7893C46.8712 91.7893 46.2557 84.3858 43.8992 85.5322C41.5508 86.6787 26.7719 98.5954 28.6992 103.73C30.6265 108.865 30.3512 115.849 31.6469 117.819C32.9426 119.789 34.1249 120.055 34.1249 120.055L33.8576 116.059C33.8576 116.059 31.9627 116.713 31.6712 113.798C31.3796 110.883 33.9548 111.901 33.9548 111.901L34.1573 109.971C34.1573 109.971 35.4368 111.223 36.4166 109.915C37.3965 108.607 37.85 108.502 38.4897 108.623Z" fill="#2D517E"/>
<path d="M33.9879 171.613C33.9069 171.759 32.5383 173.164 32.5383 173.164L32.3926 175.319C32.3926 175.319 39.1058 177.604 45.4304 176.813C51.755 176.014 57.9581 173.244 57.9581 173.244L57.3264 170.047C57.3264 170.047 51.593 172.51 46.1106 173.01C40.6202 173.511 33.7611 171.646 33.7611 171.646" fill="#539CEA"/>
<path d="M36.0278 132.82C36.0278 132.82 39.6476 135.363 42.5143 135.532C45.381 135.702 48.6526 134.208 48.6526 134.208C48.6526 134.208 54.1593 136.646 55.8842 140.239C57.609 143.832 58.3864 149.258 57.9734 155.999C57.5604 162.741 58.7751 169.958 57.4309 170.887C56.0785 171.815 50.0212 174.956 42.4576 174.778C34.894 174.601 32.5375 173.164 32.5375 173.164C32.5375 173.164 33.1125 167.827 29.9218 161.384C26.7312 154.941 22.6984 143.283 25.8728 139.763C29.0392 136.251 36.0278 132.82 36.0278 132.82Z" fill="#92C1F8"/>
<path d="M42.4258 135.516C42.4258 135.516 42.6687 141.951 43.4137 152.689C44.1588 163.427 43.6891 177.079 43.6891 177.079C43.6891 177.079 46.6368 177.031 49.8436 176.038C49.8436 176.038 48.5236 163.241 48.4264 157.872C48.3373 152.503 45.6407 142.597 45.3654 140.473C45.09 138.342 44.5394 135.403 44.5394 135.403L44.3774 135.46C43.7539 135.492 43.2437 135.516 42.6363 135.556L42.4258 135.516Z" fill="white"/>
<path d="M47.981 115.663L49.4063 120.967L47.3008 122.251" fill="#92C1F8"/>
<path d="M83.8798 131.94C82.5599 136.461 79.3773 136.703 78.8024 137.107C78.2274 137.51 78.1221 136.703 78.77 135.589C79.2154 134.822 78.8267 134.83 78.5513 134.911C80.4787 134.103 82.2116 131.173 83.6288 130.389C83.7422 130.325 83.8556 130.276 83.9608 130.244C84.0337 130.712 84.0661 131.326 83.8798 131.94Z" fill="#539CEA"/>
<path d="M37.8096 133.91C36.7488 133.328 36.028 132.82 36.028 132.82C36.028 132.82 29.0394 136.251 25.865 139.763C22.6906 143.283 26.7234 154.941 29.914 161.384C33.1047 167.827 32.5297 173.164 32.5297 173.164C32.5297 173.164 32.6755 173.252 33.0075 173.382C33.5419 172.711 32.9913 163.257 32.3839 155.289C31.7766 147.32 29.5334 140.974 30.6914 139.957C31.6713 139.101 36.3925 135.113 37.8096 133.91Z" fill="#92C1F8"/>
<path d="M61.0183 188.084L29.6546 191.951C29.5169 191.967 29.4116 191.838 29.4521 191.709C30.0028 189.997 30.7478 187.414 31.4766 185.355C31.5009 185.274 31.5819 185.226 31.6629 185.234C36.3598 185.532 41.915 185.274 47.2921 183.562C51.4626 182.23 55.3739 180.745 58.7751 179.332C58.8885 179.283 59.01 179.348 59.0343 179.469C59.4553 181.617 59.9574 183.918 60.4433 185.549C60.6701 186.307 60.9292 187.083 61.1721 187.841C61.2126 187.955 61.1397 188.068 61.0183 188.084Z" fill="#26AC63"/>
<path d="M31.445 185.46C30.7 187.567 29.9469 190.199 29.3962 191.878C29.3719 191.951 29.3152 191.999 29.2423 192.008L28.9994 192.04C28.9184 191.983 28.8698 191.951 28.7889 191.895C28.7808 191.862 28.7727 191.838 28.7646 191.806C28.7484 191.749 28.7322 191.685 28.7241 191.628C28.716 191.588 28.7079 191.547 28.6998 191.507C28.6674 191.354 28.635 191.2 28.6107 191.039C28.6026 190.998 28.5945 190.958 28.5945 190.926C28.5864 190.845 28.5702 190.764 28.5621 190.683C28.554 190.643 28.554 190.603 28.554 190.554C28.554 190.522 28.5459 190.49 28.5459 190.465C28.5459 190.433 28.5378 190.401 28.5378 190.369C28.5378 190.312 28.5297 190.256 28.5297 190.199C28.5216 190.005 28.5297 189.803 28.5378 189.594C28.5459 189.521 28.5459 189.448 28.554 189.367C28.5945 188.786 28.6836 188.148 28.8051 187.47C28.8132 187.43 28.8212 187.397 28.8293 187.357C28.8536 187.244 28.8779 187.131 28.9022 187.01C28.9103 186.97 28.9184 186.921 28.9265 186.873C28.9508 186.735 28.9832 186.598 29.0156 186.461C29.048 186.316 29.0804 186.17 29.1209 186.025C29.1452 185.928 29.1695 185.831 29.1938 185.726C29.2423 185.549 29.2828 185.371 29.3314 185.193C29.4043 185.137 29.461 185.105 29.5339 185.056C30.1007 185.113 30.6838 185.161 31.2831 185.21C31.4045 185.218 31.4855 185.339 31.445 185.46Z" fill="#246641"/>
<path d="M158.236 112.498L157.094 112.248C157.094 112.248 157.547 113.427 158.284 143.299C158.884 167.399 157.07 187.632 156.341 194.551C160.398 193.687 164.301 192.403 168.01 190.764C167.006 185.637 165.346 178.016 162.989 167.246C157.912 144.042 163.402 112.07 163.402 112.07C161.767 112.716 159.961 112.87 158.236 112.498Z" fill="#E0E3ED"/>
<path d="M60.3866 114.775C60.3866 114.775 72.4932 95.7292 88.0981 88.2207C103.703 80.7122 117.696 76.958 119.17 76.958C120.652 76.958 122.806 81.3824 122.126 83.3927C121.446 85.403 126.297 88.2207 125.357 90.4975C124.418 92.7743 126.701 96.1329 126.839 98.006C126.977 99.8791 108.813 100.42 94.5523 109.002C80.2916 117.585 71.5457 125.23 70.8736 126.038C70.2015 126.845 66.7031 125.9 66.5654 124.294C66.4278 122.687 61.1883 121.476 61.3179 120.136C61.4556 118.796 59.0343 116.382 59.836 115.171" fill="#3EC57B"/>
<path d="M72.4211 120.265C71.5789 120.322 70.7691 120.007 69.9835 119.32L65.4648 115.34L67.0925 113.507L71.8866 117.73C72.17 117.98 72.4454 118.109 72.7126 118.125C72.9798 118.142 73.2147 118.029 73.4171 117.803C73.6196 117.576 73.6924 117.334 73.652 117.068C73.6034 116.801 73.4414 116.551 73.158 116.301L68.3639 112.078L69.9916 110.246L74.5104 114.226C75.2959 114.92 75.7089 115.687 75.7493 116.519C75.7898 117.358 75.4578 118.174 74.7452 118.981C74.0326 119.773 73.2552 120.208 72.4211 120.265Z" fill="white"/>
<path d="M71.2227 109.317C71.911 108.364 72.5588 107.614 73.1581 107.057C74.1622 106.136 75.0854 105.652 75.9519 105.603C76.8103 105.555 77.612 105.926 78.357 106.734C79.102 107.541 79.4098 108.364 79.2883 109.212C79.1668 110.06 78.6 110.948 77.6039 111.86L77.2314 112.199L79.1344 114.266L77.3286 115.921L71.2227 109.317ZM76.535 110.351C77.1342 109.802 77.1018 109.18 76.454 108.478C75.8061 107.775 75.1826 107.694 74.5833 108.243C74.4295 108.381 74.2756 108.582 74.1137 108.841L75.9762 110.859L76.535 110.351Z" fill="white"/>
<path d="M82.7946 109.705C81.7661 109.519 80.8105 108.841 79.9279 107.662L79.6363 107.267C78.7293 106.047 78.3406 104.933 78.4621 103.916C78.5917 102.899 79.2476 101.954 80.438 101.066C81.2559 100.461 82.0576 100.089 82.8593 99.96L83.5558 101.308C83.2319 101.462 82.9484 101.615 82.7055 101.752C82.4625 101.89 82.1791 102.075 81.8552 102.317C81.1911 102.81 80.8429 103.286 80.8024 103.746C80.7619 104.207 80.9401 104.707 81.3369 105.248L82.3573 106.629C82.746 107.162 83.1428 107.493 83.5558 107.63C83.9607 107.759 84.4223 107.638 84.9405 107.25L85.5317 106.814L84.2684 105.127L83.1833 105.934L82.1548 104.562L85.1106 102.366L88.196 106.5C87.702 107.283 86.9731 108.034 86.0095 108.744C84.8919 109.568 83.823 109.891 82.7946 109.705Z" fill="white"/>
<path d="M84.3174 98.7489C85.192 97.9658 85.9856 97.3683 86.6901 96.9485C87.8643 96.2622 88.8766 95.9877 89.7269 96.1169C90.5772 96.2461 91.2817 96.787 91.8324 97.7316C92.4397 98.7651 92.5288 99.7178 92.1077 100.598L95.2335 102.794L92.9985 104.102L90.5043 102.293C90.399 102.366 90.237 102.463 90.0103 102.592L89.573 102.842L90.9902 105.264L88.8685 106.5L84.3174 98.7489ZM89.2896 100.88C89.986 100.469 90.0994 99.855 89.6135 99.0315C89.1276 98.208 88.5365 97.9981 87.84 98.4098C87.6619 98.5148 87.4675 98.6763 87.257 98.8942L88.6498 101.26L89.2896 100.88Z" fill="white"/>
<path d="M93.5088 93.4605L96.6751 92.0637L102.546 99.5561L100.222 100.581L99.1612 99.1605L97.1205 100.065L97.4606 101.801L95.1365 102.826L93.5088 93.4605ZM98.1166 97.6103L95.9301 94.6392L96.6751 98.2481L98.1166 97.6103Z" fill="white"/>
<path d="M102.611 99.2978L99.9707 90.9496C100.886 90.4168 101.785 90.005 102.684 89.7225C103.672 89.4076 104.522 89.3107 105.226 89.4157C105.931 89.5206 106.522 89.8436 107.008 90.3764C107.494 90.9093 107.899 91.6843 108.215 92.7016L108.36 93.1699C108.676 94.1791 108.798 95.043 108.708 95.7615C108.619 96.4801 108.32 97.0775 107.793 97.562C107.275 98.0464 106.514 98.442 105.526 98.7569C104.643 99.0314 103.663 99.2171 102.611 99.2978ZM106.125 96.3832C106.311 96.1571 106.392 95.8423 106.376 95.4547C106.36 95.0672 106.247 94.5424 106.044 93.8885L105.898 93.4202C105.696 92.7743 105.485 92.2818 105.267 91.9508C105.048 91.6198 104.797 91.4098 104.514 91.3291C104.23 91.2484 103.882 91.2726 103.469 91.4018C103.242 91.4744 103.016 91.5875 102.789 91.7409L104.457 97.0291C104.732 97.0291 104.983 96.9887 105.21 96.9241C105.639 96.795 105.947 96.6173 106.125 96.3832Z" fill="white"/>
<path d="M108.555 88.14L114.572 86.9128L114.944 88.7133L111.332 89.448L111.705 91.2565L114.855 90.6186L115.219 92.4191L112.069 93.0569L112.442 94.8815L116.053 94.1468L116.418 95.9472L110.401 97.1744L108.555 88.14Z" fill="white"/>
<path d="M68.5496 34.0062C77.9685 34.0062 85.604 26.3936 85.604 17.0031C85.604 7.61254 77.9685 0 68.5496 0C59.1307 0 51.4951 7.61254 51.4951 17.0031C51.4951 26.3936 59.1307 34.0062 68.5496 34.0062Z" fill="#FFDF00"/>
<path d="M68.5494 32.2059C76.971 32.2059 83.798 25.3994 83.798 17.0032C83.798 8.607 76.971 1.80054 68.5494 1.80054C60.1278 1.80054 53.3008 8.607 53.3008 17.0032C53.3008 25.3994 60.1278 32.2059 68.5494 32.2059Z" fill="#FFC100"/>
<path d="M55.6902 74.8023C65.1091 74.8023 72.7447 67.1898 72.7447 57.7992C72.7447 48.4087 65.1091 40.7961 55.6902 40.7961C46.2713 40.7961 38.6357 48.4087 38.6357 57.7992C38.6357 67.1898 46.2713 74.8023 55.6902 74.8023Z" fill="#FFDF00"/>
<path d="M55.69 73.002C64.1116 73.002 70.9386 66.1956 70.9386 57.7993C70.9386 49.4031 64.1116 42.5967 55.69 42.5967C47.2684 42.5967 40.4414 49.4031 40.4414 57.7993C40.4414 66.1956 47.2684 73.002 55.69 73.002Z" fill="#FFC100"/>
<path d="M91.7832 52.2527C95.8978 52.2527 99.2334 48.9272 99.2334 44.825C99.2334 40.7227 95.8978 37.3972 91.7832 37.3972C87.6686 37.3972 84.333 40.7227 84.333 44.825C84.333 48.9272 87.6686 52.2527 91.7832 52.2527Z" fill="#FFDF00"/>
<path d="M91.7828 51.4696C95.4636 51.4696 98.4475 48.4947 98.4475 44.825C98.4475 41.1553 95.4636 38.1804 91.7828 38.1804C88.102 38.1804 85.1182 41.1553 85.1182 44.825C85.1182 48.4947 88.102 51.4696 91.7828 51.4696Z" fill="#FFC100"/>
<path d="M85.3129 35.4999H82.9644V33.1585C82.9644 32.5691 82.4867 32.0928 81.8955 32.0928C81.3043 32.0928 80.8266 32.5691 80.8266 33.1585V35.4999H78.4781C77.887 35.4999 77.4092 35.9762 77.4092 36.5656C77.4092 37.1549 77.887 37.6313 78.4781 37.6313H80.8266V39.9726C80.8266 40.562 81.3043 41.0384 81.8955 41.0384C82.4867 41.0384 82.9644 40.562 82.9644 39.9726V37.6313H85.3129C85.904 37.6313 86.3818 37.1549 86.3818 36.5656C86.3818 35.9762 85.8959 35.4999 85.3129 35.4999Z" fill="#FFC100"/>
<path d="M42.9115 75.0768H40.5631V72.7354C40.5631 72.146 40.0853 71.6697 39.4941 71.6697C38.903 71.6697 38.4252 72.146 38.4252 72.7354V75.0768H36.0768C35.4856 75.0768 35.0078 75.5531 35.0078 76.1425C35.0078 76.7319 35.4856 77.2082 36.0768 77.2082H38.4252V79.5496C38.4252 80.1389 38.903 80.6153 39.4941 80.6153C40.0853 80.6153 40.5631 80.1389 40.5631 79.5496V77.2082H42.9115C43.5027 77.2082 43.9804 76.7319 43.9804 76.1425C43.9804 75.5531 43.5027 75.0768 42.9115 75.0768Z" fill="#FFC100"/>
<path d="M150.195 78.6857C146.615 78.6857 143.992 77.6685 142.388 75.6581C139.465 72.0088 140.955 66.4784 141.02 66.2443L141.085 66.0101L161.799 65.6064L161.856 65.8648C161.905 66.0747 163.03 71.0077 160.196 74.7377C158.358 77.1598 155.305 78.4758 151.102 78.6696C150.794 78.6777 150.486 78.6857 150.195 78.6857ZM141.587 66.6479C141.344 67.7217 140.51 72.2672 142.898 75.2464C144.502 77.2486 147.247 78.1852 151.069 78.0076C155.062 77.8299 157.961 76.5947 159.67 74.3341C161.961 71.3145 161.451 67.2938 161.265 66.2523L141.587 66.6479Z" fill="#2D517E"/>
<path d="M176.764 78.5889C173.735 78.5889 171.419 77.8461 169.857 76.3767C167.257 73.9304 167.225 69.9743 167.192 67.084C167.192 66.753 167.184 66.4381 167.176 66.1394L167.168 65.8083H186.79L186.83 66.0829C186.871 66.3089 187.713 71.7425 184.733 75.4079C183.145 77.3617 180.765 78.4274 177.671 78.5647C177.363 78.5808 177.064 78.5889 176.764 78.5889ZM167.84 66.4542C167.84 66.6561 167.848 66.8579 167.848 67.0759C167.873 69.8452 167.913 73.6479 170.31 75.9004C171.889 77.386 174.367 78.0641 177.655 77.9107C180.562 77.7735 182.781 76.7966 184.247 74.9881C186.684 71.9928 186.368 67.5846 186.247 66.4462H167.84V66.4542Z" fill="#2D517E"/>
<path d="M167.605 69.4817H161.734V70.1276H167.605V69.4817Z" fill="#2D517E"/>
<path d="M140.736 69.2235L131.877 66.5431L132.063 65.9214L140.922 68.6018L140.736 69.2235Z" fill="#2D517E"/>
<path d="M101.882 137.292L76.3809 202.221L96.7069 194.769L106.554 214L132.055 149.072L101.882 137.292Z" fill="#2D517E"/>
<path d="M121.244 137.292L146.744 202.221L126.418 194.769L116.571 214L91.0703 149.072L121.244 137.292Z" fill="#3576C4"/>
<path d="M141.27 163.411V133.57C141.27 132.327 140.606 131.173 139.521 130.551L113.599 115.631C112.514 115.009 111.186 115.009 110.101 115.631L84.1789 130.551C83.0937 131.173 82.4297 132.327 82.4297 133.57V163.411C82.4297 164.654 83.0937 165.808 84.1789 166.43L110.101 181.35C111.186 181.972 112.514 181.972 113.599 181.35L139.521 166.43C140.606 165.808 141.27 164.654 141.27 163.411Z" fill="#FADB00"/>
<path d="M111.858 116.64V180.341C111.858 181.237 112.83 181.794 113.608 181.35L139.529 166.43C140.615 165.808 141.279 164.654 141.279 163.411V133.57C141.279 132.327 140.615 131.172 139.529 130.551L113.608 115.631C112.83 115.187 111.858 115.744 111.858 116.64Z" fill="#FFC514"/>
<path d="M132.079 149.193L135.78 144.09C136.298 143.372 136.444 142.484 136.176 141.652C135.901 140.788 135.229 140.126 134.346 139.836L128.192 137.777L128.038 131.576C128.014 130.72 127.601 129.929 126.888 129.413C126.135 128.864 125.187 128.694 124.28 128.952L118.013 130.737L114.045 125.787C113.486 125.093 112.644 124.689 111.728 124.689C110.813 124.689 109.971 125.093 109.412 125.787L105.444 130.737L99.1765 128.952C98.2695 128.694 97.3221 128.864 96.569 129.413C95.8644 129.929 95.4433 130.72 95.419 131.576L95.2652 137.777L89.1107 139.836C88.228 140.134 87.5558 140.796 87.2805 141.652C87.0133 142.484 87.159 143.372 87.6773 144.082L91.3781 149.185L87.6773 154.287C87.159 154.998 87.0133 155.886 87.2805 156.718C87.5558 157.581 88.228 158.244 89.1107 158.542L95.2652 160.601L95.419 166.802C95.4433 167.657 95.8563 168.449 96.569 168.965C97.3221 169.514 98.2695 169.684 99.1765 169.426L105.444 167.641L109.412 172.59C109.971 173.285 110.813 173.688 111.728 173.688C112.644 173.688 113.486 173.293 114.045 172.59L118.013 167.641L124.28 169.426C125.187 169.684 126.135 169.514 126.888 168.965C127.593 168.449 128.014 167.657 128.038 166.802L128.192 160.601L134.346 158.542C135.229 158.244 135.901 157.581 136.176 156.718C136.444 155.886 136.298 154.998 135.78 154.287L132.079 149.193Z" fill="#FCEE2A"/>
<path d="M116.288 134.515H107.898L104.715 154.514L104.4 156.266L106.043 155.975L103.841 165.017L113.113 151.098L109.68 151.575L110.425 146.86C110.562 146.94 113.137 147.328 114.231 147.385C116.611 147.53 120.142 147.772 121.114 141.418C121.972 135.968 118.927 134.515 116.288 134.515ZM116.603 140.885C116.296 142.839 115.567 143.533 114.433 143.533H110.959L111.785 138.407H115.267C116.247 138.407 116.895 138.964 116.603 140.885Z" fill="#FFC514"/>
<path d="M83.9525 120.636L84.6165 122.195C84.6651 122.308 84.738 122.404 84.8271 122.461L86.0337 123.317C86.3981 123.575 86.3981 124.253 86.0337 124.504L84.8271 125.359C84.738 125.424 84.6651 125.513 84.6165 125.626L83.9525 127.184C83.75 127.652 83.2318 127.652 83.0293 127.184L82.3653 125.626C82.3167 125.513 82.2438 125.416 82.1547 125.359L80.9481 124.504C80.5837 124.245 80.5837 123.567 80.9481 123.317L82.1547 122.461C82.2438 122.396 82.3167 122.308 82.3653 122.195L83.0293 120.636C83.2318 120.168 83.75 120.168 83.9525 120.636Z" fill="#F9BB3D"/>
<path d="M79.62 127.523L80.0978 128.662C80.1302 128.742 80.1869 128.815 80.2517 128.855L81.1262 129.477C81.3935 129.663 81.3935 130.155 81.1262 130.341L80.2517 130.963C80.1869 131.011 80.1383 131.076 80.0978 131.156L79.62 132.295C79.4742 132.634 79.0936 132.634 78.9479 132.295L78.4701 131.156C78.4377 131.076 78.381 131.003 78.3162 130.963L77.4416 130.341C77.1744 130.155 77.1744 129.663 77.4416 129.477L78.3162 128.855C78.381 128.807 78.4296 128.742 78.4701 128.662L78.9479 127.523C79.0936 127.176 79.4742 127.176 79.62 127.523Z" fill="#F9BB3D"/>
<path d="M141.433 116.672L142.34 118.82C142.404 118.973 142.502 119.103 142.623 119.191L144.283 120.37C144.785 120.725 144.785 121.654 144.283 122.009L142.623 123.188C142.502 123.277 142.404 123.406 142.34 123.559L141.433 125.707C141.157 126.353 140.437 126.353 140.169 125.707L139.262 123.559C139.198 123.406 139.1 123.277 138.979 123.188L137.319 122.009C136.817 121.654 136.817 120.725 137.319 120.37L138.979 119.191C139.1 119.103 139.198 118.973 139.262 118.82L140.169 116.672C140.445 116.027 141.157 116.027 141.433 116.672Z" fill="#F9BB3D"/>
<path d="M44.3939 134.652C44.3939 134.119 44.2562 133.684 45.1875 133.433C46.1188 133.191 47.0419 133.304 47.5764 132.682C48.1109 132.061 48.3052 131.625 48.4834 132.44C48.6616 133.256 48.6049 134.208 48.6049 134.208C48.6049 134.208 48.0542 135.29 46.5885 135.444C45.1308 135.597 44.4182 135.645 44.4182 135.645L44.3939 134.652Z" fill="#2D517E"/>
<path d="M35.5094 131.843C35.5499 131.31 35.4689 130.559 36.9347 131.31C38.3923 132.061 41.2428 133.255 41.834 133.296C42.4252 133.336 42.66 133.78 42.6276 134.313C42.5871 134.846 42.4656 135.774 42.4656 135.774C42.4656 135.774 39.3803 134.757 37.6878 134.135C35.9791 133.522 35.388 133.522 35.5094 131.843Z" fill="#2D517E"/>
<defs>
<linearGradient id="paint0_linear" x1="-22.6687" y1="-8.67429" x2="159.812" y2="193.663" gradientUnits="userSpaceOnUse">
<stop offset="1.11884e-07" stop-color="white" stop-opacity="0"/>
<stop offset="1" stop-color="#F1F2F2"/>
</linearGradient>
<linearGradient id="paint1_linear" x1="20.6377" y1="-47.7306" x2="203.118" y2="154.607" gradientUnits="userSpaceOnUse">
<stop offset="1.11884e-07" stop-color="white" stop-opacity="0"/>
<stop offset="1" stop-color="#F1F2F2"/>
</linearGradient>
</defs>
</svg>
