<svg width="30" height="30" viewBox="0 0 30 30" fill="none" xmlns="http://www.w3.org/2000/svg">
<path d="M17.8711 15C17.8711 16.5857 16.5857 17.8711 15 17.8711C13.4143 17.8711 12.1289 16.5857 12.1289 15C12.1289 13.4143 13.4143 12.1289 15 12.1289C16.5857 12.1289 17.8711 13.4143 17.8711 15Z" fill="white"/>
<path fill-rule="evenodd" clip-rule="evenodd" d="M21.7144 9.92039C21.5764 9.5464 21.3562 9.20789 21.0701 8.93002C20.7923 8.64392 20.454 8.42374 20.0797 8.28572C19.7762 8.16785 19.3203 8.02754 18.4805 7.98932C17.5721 7.94789 17.2997 7.93896 14.9999 7.93896C12.6999 7.93896 12.4275 7.94766 11.5193 7.98909C10.6796 8.02754 10.2234 8.16785 9.92014 8.28572C9.54591 8.42374 9.2074 8.64392 8.92976 8.93002C8.64366 9.20789 8.42348 9.54617 8.28523 9.92039C8.16736 10.2239 8.02705 10.6801 7.98883 11.5198C7.9474 12.428 7.93848 12.7004 7.93848 15.0004C7.93848 17.3002 7.9474 17.5726 7.98883 18.481C8.02705 19.3208 8.16736 19.7767 8.28523 20.0802C8.42348 20.4545 8.64343 20.7927 8.92953 21.0706C9.2074 21.3567 9.54568 21.5769 9.91991 21.7149C10.2234 21.833 10.6796 21.9733 11.5193 22.0115C12.4275 22.053 12.6997 22.0617 14.9997 22.0617C17.3 22.0617 17.5723 22.053 18.4803 22.0115C19.3201 21.9733 19.7762 21.833 20.0797 21.7149C20.8309 21.4251 21.4247 20.8314 21.7144 20.0802C21.8323 19.7767 21.9726 19.3208 22.011 18.481C22.0525 17.5726 22.0612 17.3002 22.0612 15.0004C22.0612 12.7004 22.0525 12.428 22.011 11.5198C21.9728 10.6801 21.8325 10.2239 21.7144 9.92039ZM14.9999 19.423C12.5571 19.423 10.5768 17.4429 10.5768 15.0001C10.5768 12.5572 12.5571 10.5771 14.9999 10.5771C17.4426 10.5771 19.4229 12.5572 19.4229 15.0001C19.4229 17.4429 17.4426 19.423 14.9999 19.423ZM18.5641 10.4023C18.5641 10.9731 19.0269 11.4359 19.5977 11.4359C20.1685 11.4359 20.6311 10.9731 20.6313 10.4023C20.6313 9.83145 20.1685 9.36865 19.5977 9.36865C19.0269 9.36865 18.5641 9.83145 18.5641 10.4023Z" fill="white"/>
<path fill-rule="evenodd" clip-rule="evenodd" d="M0 15C0 6.717 6.717 0 15 0C23.283 0 30 6.717 30 15C30 23.283 23.283 30 15 30C6.717 30 0 23.283 0 15ZM23.161 20.6419C23.3739 20.094 23.5197 19.468 23.5613 18.5511C23.6034 17.6326 23.6133 17.3392 23.6133 15C23.6133 12.6608 23.6034 12.3674 23.5616 11.4489C23.5197 10.532 23.3741 9.90601 23.161 9.35806C22.9449 8.78334 22.6057 8.26286 22.1677 7.83257C21.7374 7.39426 21.2167 7.05505 20.6419 6.83876C20.094 6.62613 19.468 6.48056 18.5511 6.4389C17.6326 6.39679 17.3392 6.38672 15 6.38672C12.6608 6.38672 12.3674 6.39679 11.4489 6.43867C10.532 6.48056 9.90601 6.62613 9.35806 6.83899C8.78334 7.05528 8.26263 7.39426 7.83257 7.83257C7.39426 8.26263 7.05505 8.78334 6.83876 9.35806C6.6259 9.90601 6.48033 10.532 6.43867 11.4489C6.39656 12.3674 6.38672 12.6608 6.38672 15C6.38672 17.3392 6.39656 17.6326 6.4389 18.5513C6.48056 19.468 6.62636 20.0942 6.83922 20.6419C7.05551 21.2167 7.39449 21.7374 7.83257 22.1674C8.26286 22.6057 8.78334 22.9447 9.35829 23.161C9.90601 23.3739 10.5322 23.5194 11.4489 23.5613C12.3676 23.6032 12.6608 23.6133 15.0002 23.6133C17.3394 23.6133 17.6328 23.6032 18.5513 23.5613C19.468 23.5194 20.0942 23.3739 20.6419 23.161C21.7989 22.7135 22.7135 21.7989 23.161 20.6419Z" fill="white"/>
</svg>
