<svg width="226" height="214" viewBox="0 0 226 214" fill="none" xmlns="http://www.w3.org/2000/svg">
<path d="M70.4463 0.999268H139.239C173.606 0.999268 201.459 31.5879 201.459 69.3101V145.689C201.459 183.421 173.598 214 139.239 214H70.4463C36.0792 214 8.22656 183.411 8.22656 145.689V69.3101C8.21814 31.5786 36.0792 0.999268 70.4463 0.999268Z" fill="#E0E3ED"/>
<path d="M200.069 90.9515C211.36 90.9515 220.514 80.9019 220.514 68.505C220.514 56.1082 211.36 46.0586 200.069 46.0586C188.778 46.0586 179.624 56.1082 179.624 68.505C179.624 80.9019 188.778 90.9515 200.069 90.9515Z" fill="#FFDF00"/>
<path d="M200.069 88.5737C210.164 88.5737 218.348 79.5887 218.348 68.5051C218.348 57.4215 210.164 48.4365 200.069 48.4365C189.974 48.4365 181.79 57.4215 181.79 68.5051C181.79 79.5887 189.974 88.5737 200.069 88.5737Z" fill="#FFC100"/>
<path d="M193.69 91.1089L226 123.289C226 123.289 205.935 140.554 199.892 157.134C193.85 173.715 159.744 170.079 156.213 174.224C152.682 178.369 129.768 136.76 129.768 136.76C129.768 136.76 160.966 147.623 166.182 132.634C171.399 117.645 179.001 94.5786 193.69 91.1089Z" fill="#E9F3FE"/>
<path d="M175.309 130.201C172.158 109.133 184.521 96.4753 185.641 95.3743C176.034 103.553 170.346 120.661 166.183 132.625C160.966 147.604 129.768 136.751 129.768 136.751C129.768 136.751 130.416 137.926 131.504 139.851C135.397 136.335 156.71 148.308 169.612 157.199C182.506 166.1 178.605 152.268 175.309 130.201Z" fill="#92C1F8"/>
<path d="M56.0866 194.792C58.5137 191.276 60.7807 187.566 62.1965 183.439C63.6123 179.312 64.1516 174.714 63.0898 170.458C62.601 168.496 61.6402 166.489 59.9379 165.693C57.6962 164.647 55.0247 166.202 53.7353 168.469C52.4459 170.735 52.21 173.502 51.9993 176.167C54.5781 166.146 55.8675 155.737 55.8169 145.328C55.7916 139.795 55.0753 133.578 51.1144 130.163C49.3025 128.6 46.7406 127.85 44.659 128.914C41.6504 130.46 40.9762 134.734 40.6981 138.37C40.3357 143.024 39.9733 147.678 39.6025 152.332C40.0829 147.336 40.184 142.293 39.8975 137.288C39.6699 133.291 39.1812 129.22 37.5547 125.63C35.9282 122.04 32.987 118.977 29.3885 118.293C27.9137 118.006 26.2788 118.172 25.0905 119.181C23.9022 120.189 23.346 121.873 23.1353 123.511C22.7645 126.425 23.3123 129.395 24.0539 132.217C26.6074 141.877 31.5038 150.547 36.3495 159.077C32.3886 151.166 24.8798 145.532 16.7305 144.357C15.9383 144.246 15.0619 144.19 14.4045 144.69C13.8736 145.097 13.5955 145.782 13.4185 146.466C12.4746 150.075 13.7387 153.942 15.5001 157.162C20.9611 167.127 30.6947 173.076 38.8356 180.525C35.9872 176.426 31.4363 173.826 26.7423 173.613C25.5287 173.557 24.1298 173.761 23.4471 174.862C23.0595 175.491 22.9921 176.296 23.0595 177.046C23.2955 179.738 25.0399 181.959 26.8013 183.846C30.6189 187.954 34.9253 191.507 39.5772 194.385C43.614 196.883 48.3081 198.928 52.8167 197.706C53.6089 197.494 54.5275 196.929 54.4601 196.041" fill="#B0E7C9"/>
<path d="M33.9984 135.428C34.7906 142.747 36.4845 149.89 38.5576 156.885C40.6308 163.889 43.0579 170.754 45.3586 177.666C46.6564 181.579 47.9205 185.502 49.0498 189.481C49.2605 190.221 48.2239 190.637 48.0132 189.897C45.9906 182.801 43.5635 175.871 41.2207 168.894C38.8863 161.955 36.6362 154.96 34.9928 147.78C34.0658 143.746 33.341 139.656 32.8944 135.53C32.8185 134.753 33.9141 134.651 33.9984 135.428Z" fill="#D8F3E4"/>
<path d="M40.4621 167.969C34.9758 165.711 29.852 162.417 25.3854 158.254C24.1129 157.07 22.8993 155.811 21.7363 154.497C21.4077 154.127 21.8796 153.498 22.2083 153.877C26.2534 158.476 31.0149 162.297 36.2484 165.101C37.7232 165.896 39.2317 166.609 40.7739 167.238C41.2121 167.423 40.9003 168.154 40.4621 167.969Z" fill="#D8F3E4"/>
<path d="M49.6985 147.364C49.2013 151.509 48.704 155.654 48.2068 159.808C47.7939 163.278 47.4821 166.822 46.5213 170.171C46.0073 171.966 45.2909 173.659 44.2881 175.186C44.01 175.612 43.4453 175.093 43.7234 174.668C45.5101 171.938 46.2769 168.644 46.7657 165.369C47.3304 161.622 47.7012 157.838 48.1563 154.081C48.4344 151.796 48.704 149.501 48.9821 147.216C49.0327 146.707 49.7575 146.855 49.6985 147.364Z" fill="#D8F3E4"/>
<path d="M31.5624 179.553C33.1467 180.996 34.6889 182.541 36.3828 183.828C38.0178 185.067 39.8212 186.02 41.6247 186.946C42.0545 187.168 41.7427 187.899 41.3129 187.677C39.5094 186.751 37.7059 185.789 36.0542 184.549C34.3013 183.245 32.7169 181.653 31.0904 180.173C30.7365 179.84 31.2 179.22 31.5624 179.553Z" fill="#D8F3E4"/>
<path d="M57.2916 172.419C56.3983 173.354 55.7072 174.501 54.974 175.584C54.1987 176.731 53.415 177.888 52.6396 179.035C52.3531 179.451 51.7885 178.933 52.075 178.517C52.8503 177.369 53.6341 176.213 54.4094 175.066C55.1426 173.983 55.8336 172.836 56.7269 171.901C57.064 171.55 57.6287 172.068 57.2916 172.419Z" fill="#D8F3E4"/>
<path d="M55.0749 203.36C56.3221 196.929 56.7266 189.685 56.28 183.125C56.0272 179.479 55.4372 175.658 53.3051 172.845C52.6646 171.994 51.7123 171.207 50.7347 171.476C49.8246 171.726 49.3021 172.78 49.083 173.77C48.6869 175.538 48.8723 177.388 49.1251 179.183C50.1869 186.761 52.6983 196.152 55.0749 203.36Z" fill="#89DCAE"/>
<path d="M52.7997 179.821C52.2772 183.411 52.648 186.974 53.0609 190.554C53.4149 193.645 53.7098 196.8 54.679 199.751C54.7548 199.973 54.4262 200.075 54.3503 199.853C53.3727 196.874 53.0862 193.682 52.7238 190.554C52.3024 186.937 51.9485 183.356 52.4794 179.72C52.5047 179.488 52.8334 179.59 52.7997 179.821Z" fill="white"/>
<path d="M54.62 200.371C53.6846 191.6 51.1732 183.041 47.2797 175.315C45.6785 172.151 43.5969 168.904 40.4366 167.858C39.2905 167.479 37.9927 167.432 36.9308 168.052C35.2285 169.033 34.5796 171.429 34.765 173.53C35.0262 176.444 36.5095 179.035 38.0264 181.45C42.9986 189.379 48.7208 196.735 55.0751 203.36" fill="#61D093"/>
<path d="M55.0746 203.36C50.8693 196.05 44.7426 187.575 38.2535 182.681C37.1242 181.829 35.9359 181.006 34.596 180.701C33.492 180.451 32.2279 180.617 31.4441 181.505C30.7531 182.283 30.5677 183.467 30.7193 184.54C31.0733 187.038 32.9779 188.87 34.8235 190.379C40.6131 195.125 48.2652 200.704 55.0746 203.36Z" fill="#89DCAE"/>
<path d="M53.709 200.806C50.7257 194.153 47.734 187.482 44.1102 181.209C43.0905 179.442 41.9949 177.721 40.7476 176.139C40.6044 175.963 40.8403 175.695 40.9836 175.88C43.141 178.609 44.8602 181.737 46.512 184.855C48.2312 188.102 49.824 191.433 51.3662 194.783C52.2595 196.726 53.136 198.669 54.004 200.621C54.1051 200.834 53.8102 201.028 53.709 200.806Z" fill="white"/>
<path d="M35.354 185.54C38.6154 187.557 41.8431 189.611 44.7169 192.248C47.5232 194.82 50.0851 197.716 52.4954 200.723C52.6386 200.899 52.4027 201.167 52.2594 200.982C49.8913 198.021 47.3715 195.171 44.6242 192.636C41.7251 189.962 38.4721 187.89 35.1854 185.854C34.9916 185.743 35.1602 185.419 35.354 185.54Z" fill="white"/>
<path d="M33.6944 77.3413L34.9416 85.5945C34.9416 85.5945 33.4668 95.7074 27.1378 95.4669C20.8088 95.2263 20.4043 92.7837 20.4043 92.7837L20.4127 78.5904L33.6944 77.3413Z" fill="#E9F3FE"/>
<path d="M33.6944 77.3413L34.082 79.8857C32.0173 80.6629 26.8766 82.8835 27.0198 85.8351C27.1715 88.8699 31.5369 88.9994 34.1663 88.7126C33.1887 91.6641 31.1324 95.6242 27.1378 95.4761C20.8004 95.2356 20.4043 92.7929 20.4043 92.7929L20.4127 78.5996L33.6944 77.3413Z" fill="#92C1F8"/>
<path d="M46.7575 83.8736C46.7575 83.8736 40.6644 83.7163 38.33 83.8551C35.9956 83.9939 34.6894 84.1697 34.6894 84.1697C34.6894 84.1697 34.9254 88.9902 29.5824 90.7482C24.2394 92.5061 20.3796 88.3055 20.3796 88.3055C20.3796 88.3055 4.62877 97.78 3.80288 111.4C2.97699 125.019 29.6498 164.786 55.4967 168.608C81.3521 172.429 75.1748 103.692 75.1748 103.692L46.7575 83.8736Z" fill="#3A8FF3"/>
<path d="M75.1656 103.692C75.1656 103.692 75.3089 105.247 75.4522 107.865L65.1876 165.813C62.6004 168.089 59.4148 169.19 55.4876 168.607C36.6354 165.822 17.3535 143.913 8.61426 126.981C13.1314 122.762 16.7383 119.486 16.7383 119.486C16.7383 119.486 26.8006 148.918 38.6243 149.455C50.4564 149.982 48.0378 89.0456 47.9956 88.2222L46.8663 83.9568L75.1656 103.692Z" fill="#2D517E"/>
<path d="M34.6975 51.0183C20.2024 33.9382 7.87305 57.2359 7.87305 57.2359C7.87305 57.2359 8.5641 59.1234 9.66809 61.8806C9.41527 61.8621 9.1793 61.8991 8.96019 62.0194C7.82248 62.6208 7.7045 64.9432 8.69893 67.2193C9.69337 69.4862 11.421 70.8463 12.5587 70.2449C12.7357 70.1523 12.8789 70.0228 13.0054 69.8562C14.2442 72.6597 15.5926 75.5002 16.9072 77.8874C21.2052 85.715 30.1215 82.014 38.2118 77.1102C46.3021 72.1879 34.6975 51.0183 34.6975 51.0183Z" fill="#E9F3FE"/>
<path d="M25.8144 55.2096C29.6068 54.9413 33.7025 54.1456 36.0285 53.6367C35.2531 52.0175 34.7054 51.0183 34.7054 51.0183C20.2102 33.9382 7.88086 57.2359 7.88086 57.2359C7.88086 57.2359 8.57191 59.1234 9.6759 61.8806C9.6759 61.8806 12.3305 64.7859 13.2154 63.5461C14.1003 62.3155 20.1006 55.6075 25.8144 55.2096Z" fill="#539CEA"/>
<path d="M15.1963 56.8009C15.1963 56.8009 37.2003 53.0629 42.4843 42.4041C47.7683 31.7453 37.3352 27.9518 35.3126 29.0158C33.29 30.0798 33.29 30.0798 33.29 30.0798C33.29 30.0798 34.571 21.7526 27.9807 20.5128C21.3905 19.273 17.5476 30.0891 17.5476 30.0891C17.5476 30.0891 13.3591 20.5221 11.0416 23.2423C8.72405 25.9625 -3.65584 49.3805 1.06352 55.2558C5.78287 61.1311 8.68191 70.5871 11.168 72.5579C13.6541 74.5286 15.2047 74.2788 15.2047 74.2788L13.022 69.0789C13.022 69.0789 11.0332 70.9109 9.33082 67.1729C7.62848 63.4349 11.2186 63.4812 11.2186 63.4812L10.5697 60.8072C10.5697 60.8072 12.7018 61.825 13.2833 59.5859C13.8816 57.3561 14.362 56.9582 15.1963 56.8009Z" fill="#2D517E"/>
<path d="M29.9697 61.3809L34.1497 67.7373L32.203 70.513" fill="#92C1F8"/>
<path d="M3.80228 111.4C4.63659 97.78 20.3706 88.3147 20.3706 88.3147C20.3706 88.3147 21.3819 89.4065 23.0758 90.2392C21.4072 97.2156 19.4014 107.273 20.9774 110.178C23.4466 114.767 26.6912 119.718 26.6912 119.718L11.96 132.514C11.96 132.514 11.8083 132.403 11.5471 132.19C6.47377 123.853 3.51575 116.081 3.80228 111.4Z" fill="#3576C4"/>
<path d="M63.8142 206.357C58.9685 206.357 55.0244 202.027 55.0244 196.707V12.7961C55.0244 7.4759 58.9685 3.14575 63.8142 3.14575H151.611C156.457 3.14575 160.401 7.4759 160.401 12.7961V196.707C160.401 202.027 156.457 206.357 151.611 206.357H63.8142Z" fill="#92C1F8"/>
<path d="M149.268 11.5563C152.361 11.5563 154.873 14.3135 154.873 17.7092V191.785C154.873 195.181 152.361 197.938 149.268 197.938H66.1571C63.0643 197.938 60.5529 195.181 60.5529 191.785V17.7092C60.5529 14.3135 63.0643 11.5563 66.1571 11.5563H149.268ZM151.611 0H63.8143C57.3758 0 52.1592 5.72727 52.1592 12.7961V196.707C52.1592 203.776 57.3758 209.503 63.8143 209.503H151.611C158.05 209.503 163.266 203.776 163.266 196.707V12.7961C163.266 5.72727 158.05 0 151.611 0Z" fill="#3576C4"/>
<path d="M123.952 20.855H91.4727C87.9921 20.855 85.1689 17.7555 85.1689 13.9342V7.43896H130.256V13.9434C130.256 17.7555 127.432 20.855 123.952 20.855Z" fill="#3576C4"/>
<path d="M142.56 91.2014H71.6428C68.946 91.2014 66.7549 88.7958 66.7549 85.835V40.3869C66.7549 37.4261 68.946 35.0205 71.6428 35.0205H142.56C145.256 35.0205 147.447 37.4261 147.447 40.3869V85.835C147.447 88.7958 145.256 91.2014 142.56 91.2014Z" fill="#3A8FF3"/>
<path d="M69.3096 186.132L76.2538 175.103C77.6696 172.854 80.4759 172.318 82.4985 173.909L83.4761 174.677C85.9032 176.583 89.3079 175.38 90.277 172.281L93.648 161.446C95.0217 157.042 100.693 157.042 102.067 161.446L103.702 166.692C105.008 170.893 110.343 171.152 111.978 167.09L113.393 163.583C114.809 160.086 119.166 159.651 121.13 162.806C123.195 166.128 127.83 165.434 129.009 161.631L130.585 156.561C132.035 151.907 138.136 152.258 139.131 157.051L145.165 186.132C145.173 186.132 69.5203 185.9 69.3096 186.132Z" fill="#3576C4"/>
<path d="M69.1152 186.418L74.7616 168.293C76.0847 164.046 81.5288 163.972 82.9531 168.182L85.6583 176.213C86.8297 179.692 91.0013 180.441 93.1165 177.545L95.3077 174.557C96.7656 172.567 99.3866 172.188 101.257 173.696L106.356 177.795C107.098 178.397 107.999 178.711 108.918 178.711H115.407C116.326 178.711 117.227 179.035 117.969 179.627L122.798 183.504C124.778 185.095 127.568 184.568 128.95 182.347L133.484 175.066C133.543 174.973 133.602 174.881 133.661 174.797C135.481 172.271 139.122 172.799 140.445 175.676L145.291 186.233C145.308 186.243 69.1152 186.076 69.1152 186.418Z" fill="#E9F3FE"/>
<path d="M145.282 186.243L139.383 180.969C131.293 174.436 127.458 186.872 121.104 177.545L118.913 174.557C117.455 172.567 114.834 172.188 112.963 173.696L110.427 175.732C108.016 177.666 105.109 178.711 102.117 178.711H98.8052C97.8866 178.711 96.9848 179.035 96.2432 179.627L91.4143 183.504C89.4339 185.095 88.0518 185.308 84.8831 182.384C84.8831 182.384 81.4447 179.312 81.3604 179.201C79.6749 176.944 76.1523 176.944 74.6269 179.201C74.2645 179.738 73.8768 180.228 73.4723 180.719L68.9131 186.233C68.9047 186.243 145.282 185.9 145.282 186.243Z" fill="#3A8FF3"/>
<path opacity="0.3" d="M145.695 105.534H69.4687C68.4996 105.534 67.7158 104.673 67.7158 103.609C67.7158 102.545 68.4996 101.685 69.4687 101.685H145.695C146.664 101.685 147.448 102.545 147.448 103.609C147.448 104.673 146.664 105.534 145.695 105.534Z" fill="#3576C4"/>
<path opacity="0.3" d="M145.695 119.107H69.4687C68.4996 119.107 67.7158 118.246 67.7158 117.182C67.7158 116.118 68.4996 115.258 69.4687 115.258H145.695C146.664 115.258 147.448 116.118 147.448 117.182C147.448 118.246 146.664 119.107 145.695 119.107Z" fill="#3576C4"/>
<path opacity="0.3" d="M123.59 132.68H69.4687C68.4996 132.68 67.7158 131.82 67.7158 130.756C67.7158 129.692 68.4996 128.831 69.4687 128.831H123.59C124.559 128.831 125.343 129.692 125.343 130.756C125.334 131.82 124.55 132.68 123.59 132.68Z" fill="#3576C4"/>
<path d="M98.9901 85.9645C95.7287 85.9645 93.8494 80.8479 91.6667 74.9263C89.661 69.4858 87.394 63.3144 84.3938 63.1109C82.8179 63.0091 79.5143 64.5728 74.854 76.3141C74.6264 76.8971 74.0112 77.1561 73.4803 76.9063C72.9494 76.6565 72.7134 75.9811 72.9409 75.3982C76.9355 65.3315 80.7279 60.5572 84.5287 60.8255C88.8351 61.1216 91.2537 67.7094 93.605 74.0751C95.2652 78.5902 97.2035 83.7161 99.0154 83.6791C101.392 83.6421 103.743 75.6387 105.631 69.199C108.319 60.0391 110.864 51.3973 115.516 51.166C118.913 50.9902 121.306 55.3203 123.64 59.5024C125.031 62.0006 126.927 65.4148 128.056 65.1464C129.447 64.8134 130.205 59.6782 130.821 55.5516C131.807 48.9269 132.919 41.4231 137.259 40.1185C138.262 39.8132 139.341 39.8687 140.47 40.2758C141.018 40.4701 141.313 41.1178 141.136 41.7192C140.959 42.3206 140.36 42.6445 139.821 42.4502C139.088 42.1818 138.414 42.1448 137.815 42.3206C134.765 43.2459 133.72 50.2685 132.885 55.9125C131.992 61.9451 131.284 66.7101 128.503 67.3855C125.941 68.0054 124.053 64.619 121.862 60.696C119.941 57.2541 117.792 53.3588 115.609 53.4513C112.407 53.6086 109.752 62.639 107.62 69.9022C105.1 78.4885 102.917 85.9089 99.0407 85.9645C99.0238 85.9645 99.007 85.9645 98.9901 85.9645Z" fill="white"/>
<path opacity="0.4" d="M122.592 53.6821C123.284 49.416 120.695 45.3419 116.809 44.5822C112.923 43.8226 109.212 46.6652 108.52 50.9313C107.828 55.1974 110.418 59.2716 114.303 60.0312C118.189 60.7908 121.9 57.9482 122.592 53.6821Z" fill="#F5F8FF"/>
<path d="M115.559 56.3751C117.607 56.3751 119.267 54.5524 119.267 52.304C119.267 50.0556 117.607 48.2329 115.559 48.2329C113.511 48.2329 111.851 50.0556 111.851 52.304C111.851 54.5524 113.511 56.3751 115.559 56.3751Z" fill="#F5F8FF"/>
<path d="M24.1966 118.626C24.1966 118.626 44.2961 135.123 47.035 137.436C49.7739 139.74 67.9687 109.669 67.9687 109.669C67.9687 109.669 67.581 103.729 68.2131 102.249C68.8452 100.769 69.4941 103.563 69.4941 103.563C69.4941 103.563 70.6992 97.0675 73.6235 97.9743C76.5478 98.881 77.3737 105.7 75.2416 107.985C73.1094 110.271 73.1094 110.271 73.1094 110.271C73.1094 110.271 61.8757 147.725 50.1784 148.335C38.4811 148.946 15.6934 132.634 13.5444 128.905C11.3785 125.167 24.1966 118.626 24.1966 118.626Z" fill="#E9F3FE"/>
<path d="M16.6877 123.409C21.1289 128.017 36.8124 143.737 46.6303 146.309C54.1139 148.271 62.1368 136.039 66.8477 127.212C62.5076 137.223 56.4061 148.011 50.1698 148.335C38.4726 148.946 15.6848 132.634 13.5358 128.905C12.6256 127.332 14.3701 125.269 16.6877 123.409Z" fill="#92C1F8"/>
<path d="M169.342 116.71C175.663 116.71 180.786 111.085 180.786 104.146C180.786 97.2063 175.663 91.5808 169.342 91.5808C163.021 91.5808 157.897 97.2063 157.897 104.146C157.897 111.085 163.021 116.71 169.342 116.71Z" fill="#FFDF00"/>
<path d="M169.342 115.378C174.993 115.378 179.573 110.349 179.573 104.146C179.573 97.942 174.993 92.9131 169.342 92.9131C163.692 92.9131 159.111 97.942 159.111 104.146C159.111 110.349 163.692 115.378 169.342 115.378Z" fill="#FFC100"/>
</svg>
