<svg width="50" height="50" viewBox="0 0 50 50" fill="none" xmlns="http://www.w3.org/2000/svg">
<path fill-rule="evenodd" clip-rule="evenodd" d="M44.0389 28.4231C44.0389 29.4981 43.1702 30.3731 42.0994 30.3731H21.9181V26.4439C21.9181 24.1043 20.4244 20.6252 16.3118 20.6252C14.7514 20.6252 13.4077 21.1522 12.4223 22.1481C10.7598 23.8272 10.7243 26.2168 10.7264 26.4731V30.3002H9.62852C8.73477 30.1272 8.04518 29.3731 8.04518 28.4231V16.7272C8.04518 15.6522 8.82435 14.7772 11.0806 14.7772H42.0994C43.1702 14.7772 44.0389 15.6522 44.0389 16.7272V28.4231ZM38.2931 44.0168H23.666V40.4439C23.666 39.7981 23.3452 39.1918 22.8139 38.8293L16.1223 34.271L14.6035 33.2377V30.3731V26.4835C14.6181 25.5897 14.9264 24.5252 16.3118 24.5252C17.7035 24.5252 18.0202 25.5793 18.041 26.4439V30.3731V32.3231C18.041 33.396 18.9035 34.2668 19.9681 34.271C19.9702 34.271 19.9702 34.2731 19.9702 34.2731L38.2931 34.3252V44.0168ZM16.3785 7.88766C16.391 7.01891 16.7389 5.9835 18.316 5.9835C19.8952 5.9835 20.241 7.02516 20.2556 7.896V10.4168H16.3785V7.88766ZM24.8119 8.03558C24.8244 7.14391 25.1806 6.08141 26.7994 6.08141C28.4181 6.08141 28.7744 7.15225 28.7889 8.046V10.4168H24.8119V8.03558ZM33.7119 8.03558C33.7264 7.14391 34.0827 6.08141 35.7014 6.08141C37.3202 6.08141 37.6744 7.15225 37.6889 8.046V10.4168H33.7119V8.03558ZM41.666 10.4168V8.06891C41.6681 7.80641 41.6494 5.44808 39.9577 3.72933C39.2202 2.97933 37.8827 2.0835 35.7014 2.0835C33.516 2.0835 32.1785 2.97933 31.4389 3.72933C31.366 3.80225 31.316 3.88141 31.2473 3.9585C31.1806 3.88141 31.1306 3.80225 31.0577 3.72933C30.3202 2.97933 28.9806 2.0835 26.7994 2.0835C24.616 2.0835 23.2744 2.97933 22.5389 3.72933C22.5306 3.73558 22.5264 3.74391 22.5202 3.75016C22.5014 3.72933 22.4869 3.7085 22.4681 3.68766C21.7494 2.95641 20.4431 2.0835 18.316 2.0835C16.1868 2.0835 14.8806 2.95641 14.1618 3.68766C12.5181 5.36058 12.4973 7.65225 12.4993 7.88558V10.4168H10.416C6.24935 10.4168 4.16602 13.496 4.16602 16.7272V28.4231C4.16602 31.5314 6.58477 34.0481 9.62852 34.2356L10.7264 34.271C10.7264 34.9168 11.0452 35.5231 11.5764 35.8856L19.7868 41.4772V45.9668C19.7868 47.0439 20.6535 47.9168 21.7264 47.9168H40.2327C41.3035 47.9168 42.1723 47.0439 42.1723 45.9668V34.2647C45.3494 34.2252 47.916 31.6293 47.916 28.4231V16.7272C47.916 13.496 44.8785 10.4168 41.666 10.4168Z" fill="#3B8EF3"/>
<path fill-rule="evenodd" clip-rule="evenodd" d="M25.0243 21.1294H26.5535C26.9848 21.1294 27.3181 21.0169 27.5514 20.7919C27.7848 20.569 27.9035 20.244 27.9035 19.819C27.9035 19.4106 27.7848 19.096 27.5514 18.8752C27.3181 18.6565 26.9848 18.544 26.5535 18.544H25.0243V21.1294ZM27.7639 25.2169L26.5889 22.8856H26.5431H25.0243V25.2169H22.916V16.7898H26.5431C27.6098 16.7898 28.4389 17.0481 29.0244 17.5648C29.6119 18.0815 29.9056 18.8085 29.9056 19.746C29.9056 20.3794 29.7827 20.9273 29.5369 21.3898C29.291 21.8502 28.9348 22.2085 28.466 22.4648L30.1473 25.2169H27.7639Z" fill="#18BA62"/>
<path fill-rule="evenodd" clip-rule="evenodd" d="M35.0893 22.7152C35.3352 22.4152 35.4602 22.0214 35.4602 21.536C35.4602 21.0485 35.3352 20.6527 35.0893 20.3485C34.8414 20.0444 34.5206 19.8923 34.1247 19.8923C33.7372 19.8923 33.4206 20.0444 33.1789 20.3485C32.9352 20.6527 32.8143 21.0485 32.8143 21.536C32.8143 22.0214 32.9352 22.4152 33.1789 22.7152C33.4206 23.0173 33.7372 23.1652 34.1247 23.1652C34.5206 23.1652 34.8414 23.0173 35.0893 22.7152ZM36.131 18.6089C36.5643 18.8881 36.9018 19.286 37.1393 19.8006C37.381 20.3173 37.4997 20.911 37.4997 21.5839C37.4997 22.2485 37.3852 22.8339 37.1518 23.336C36.9206 23.8402 36.5914 24.2298 36.1622 24.5048C35.731 24.7798 35.2352 24.9173 34.6727 24.9173C34.2852 24.9173 33.9331 24.8402 33.6185 24.6798C33.3018 24.5235 33.0352 24.2944 32.8143 23.9944V27.2069H30.7852V18.261H32.8143V19.1131C33.2622 18.4985 33.8664 18.1902 34.6268 18.1902C35.1977 18.1902 35.6977 18.3298 36.131 18.6089Z" fill="#18BA62"/>
<g opacity="0.4">
<path fill-rule="evenodd" clip-rule="evenodd" d="M8.04492 16.7266V28.4224C8.04492 29.3724 8.73451 30.1266 9.63034 30.2995H10.7262V26.4745C10.7241 26.2162 10.7616 23.8287 12.4241 22.1474C13.4074 21.1537 14.7533 20.6266 16.3137 20.6266C18.5262 20.6266 19.9637 21.6433 20.8345 22.9412V14.7766H11.0803C8.82409 14.7766 8.04492 15.6516 8.04492 16.7266Z" fill="#3B8EF3"/>
<path fill-rule="evenodd" clip-rule="evenodd" d="M19.9693 34.2712C18.9026 34.267 18.0401 33.3962 18.0401 32.3232V26.4441C18.0193 25.5795 17.7047 24.5253 16.313 24.5253C14.9276 24.5253 14.6193 25.5899 14.6047 26.4837V33.2378L22.813 38.8295C23.3463 39.192 23.6651 39.7982 23.6651 40.4441V44.017H29.1672V34.3003L19.9713 34.2712H19.9693Z" fill="#3B8EF3"/>
</g>
</svg>
