<svg width="148" height="108" viewBox="0 0 148 108" fill="none" xmlns="http://www.w3.org/2000/svg">
<g opacity="0.05">
<path fill-rule="evenodd" clip-rule="evenodd" d="M4 8C6.20914 8 8 6.20914 8 4C8 1.79086 6.20914 0 4 0C1.79086 0 0 1.79086 0 4C0 6.20914 1.79086 8 4 8Z" fill="#3B8EF3"/>
<path fill-rule="evenodd" clip-rule="evenodd" d="M24 8C26.2091 8 28 6.20914 28 4C28 1.79086 26.2091 0 24 0C21.7909 0 20 1.79086 20 4C20 6.20914 21.7909 8 24 8Z" fill="#3B8EF3"/>
<path fill-rule="evenodd" clip-rule="evenodd" d="M44 8C46.2091 8 48 6.20914 48 4C48 1.79086 46.2091 0 44 0C41.7909 0 40 1.79086 40 4C40 6.20914 41.7909 8 44 8Z" fill="#3B8EF3"/>
<path fill-rule="evenodd" clip-rule="evenodd" d="M64 8C66.2091 8 68 6.20914 68 4C68 1.79086 66.2091 0 64 0C61.7909 0 60 1.79086 60 4C60 6.20914 61.7909 8 64 8Z" fill="#3B8EF3"/>
<path fill-rule="evenodd" clip-rule="evenodd" d="M84 8C86.2091 8 88 6.20914 88 4C88 1.79086 86.2091 0 84 0C81.7909 0 80 1.79086 80 4C80 6.20914 81.7909 8 84 8Z" fill="#3B8EF3"/>
<path fill-rule="evenodd" clip-rule="evenodd" d="M104 8C106.209 8 108 6.20914 108 4C108 1.79086 106.209 0 104 0C101.791 0 100 1.79086 100 4C100 6.20914 101.791 8 104 8Z" fill="#3B8EF3"/>
<path fill-rule="evenodd" clip-rule="evenodd" d="M124 8C126.209 8 128 6.20914 128 4C128 1.79086 126.209 0 124 0C121.791 0 120 1.79086 120 4C120 6.20914 121.791 8 124 8Z" fill="#3B8EF3"/>
<path fill-rule="evenodd" clip-rule="evenodd" d="M144 8C146.209 8 148 6.20914 148 4C148 1.79086 146.209 0 144 0C141.791 0 140 1.79086 140 4C140 6.20914 141.791 8 144 8Z" fill="#3B8EF3"/>
<path fill-rule="evenodd" clip-rule="evenodd" d="M4 28C6.20914 28 8 26.2091 8 24C8 21.7909 6.20914 20 4 20C1.79086 20 0 21.7909 0 24C0 26.2091 1.79086 28 4 28Z" fill="#3B8EF3"/>
<path fill-rule="evenodd" clip-rule="evenodd" d="M24 28C26.2091 28 28 26.2091 28 24C28 21.7909 26.2091 20 24 20C21.7909 20 20 21.7909 20 24C20 26.2091 21.7909 28 24 28Z" fill="#3B8EF3"/>
<path fill-rule="evenodd" clip-rule="evenodd" d="M44 28C46.2091 28 48 26.2091 48 24C48 21.7909 46.2091 20 44 20C41.7909 20 40 21.7909 40 24C40 26.2091 41.7909 28 44 28Z" fill="#3B8EF3"/>
<path fill-rule="evenodd" clip-rule="evenodd" d="M64 28C66.2091 28 68 26.2091 68 24C68 21.7909 66.2091 20 64 20C61.7909 20 60 21.7909 60 24C60 26.2091 61.7909 28 64 28Z" fill="#3B8EF3"/>
<path fill-rule="evenodd" clip-rule="evenodd" d="M84 28C86.2091 28 88 26.2091 88 24C88 21.7909 86.2091 20 84 20C81.7909 20 80 21.7909 80 24C80 26.2091 81.7909 28 84 28Z" fill="#3B8EF3"/>
<path fill-rule="evenodd" clip-rule="evenodd" d="M104 28C106.209 28 108 26.2091 108 24C108 21.7909 106.209 20 104 20C101.791 20 100 21.7909 100 24C100 26.2091 101.791 28 104 28Z" fill="#3B8EF3"/>
<path fill-rule="evenodd" clip-rule="evenodd" d="M124 28C126.209 28 128 26.2091 128 24C128 21.7909 126.209 20 124 20C121.791 20 120 21.7909 120 24C120 26.2091 121.791 28 124 28Z" fill="#3B8EF3"/>
<path fill-rule="evenodd" clip-rule="evenodd" d="M144 28C146.209 28 148 26.2091 148 24C148 21.7909 146.209 20 144 20C141.791 20 140 21.7909 140 24C140 26.2091 141.791 28 144 28Z" fill="#3B8EF3"/>
<path fill-rule="evenodd" clip-rule="evenodd" d="M4 48C6.20914 48 8 46.2091 8 44C8 41.7909 6.20914 40 4 40C1.79086 40 0 41.7909 0 44C0 46.2091 1.79086 48 4 48Z" fill="#3B8EF3"/>
<path fill-rule="evenodd" clip-rule="evenodd" d="M24 48C26.2091 48 28 46.2091 28 44C28 41.7909 26.2091 40 24 40C21.7909 40 20 41.7909 20 44C20 46.2091 21.7909 48 24 48Z" fill="#3B8EF3"/>
<path fill-rule="evenodd" clip-rule="evenodd" d="M44 48C46.2091 48 48 46.2091 48 44C48 41.7909 46.2091 40 44 40C41.7909 40 40 41.7909 40 44C40 46.2091 41.7909 48 44 48Z" fill="#3B8EF3"/>
<path fill-rule="evenodd" clip-rule="evenodd" d="M64 48C66.2091 48 68 46.2091 68 44C68 41.7909 66.2091 40 64 40C61.7909 40 60 41.7909 60 44C60 46.2091 61.7909 48 64 48Z" fill="#3B8EF3"/>
<path fill-rule="evenodd" clip-rule="evenodd" d="M84 48C86.2091 48 88 46.2091 88 44C88 41.7909 86.2091 40 84 40C81.7909 40 80 41.7909 80 44C80 46.2091 81.7909 48 84 48Z" fill="#3B8EF3"/>
<path fill-rule="evenodd" clip-rule="evenodd" d="M104 48C106.209 48 108 46.2091 108 44C108 41.7909 106.209 40 104 40C101.791 40 100 41.7909 100 44C100 46.2091 101.791 48 104 48Z" fill="#3B8EF3"/>
<path fill-rule="evenodd" clip-rule="evenodd" d="M124 48C126.209 48 128 46.2091 128 44C128 41.7909 126.209 40 124 40C121.791 40 120 41.7909 120 44C120 46.2091 121.791 48 124 48Z" fill="#3B8EF3"/>
<path fill-rule="evenodd" clip-rule="evenodd" d="M144 48C146.209 48 148 46.2091 148 44C148 41.7909 146.209 40 144 40C141.791 40 140 41.7909 140 44C140 46.2091 141.791 48 144 48Z" fill="#3B8EF3"/>
<path fill-rule="evenodd" clip-rule="evenodd" d="M4 68C6.20914 68 8 66.2091 8 64C8 61.7909 6.20914 60 4 60C1.79086 60 0 61.7909 0 64C0 66.2091 1.79086 68 4 68Z" fill="#3B8EF3"/>
<path fill-rule="evenodd" clip-rule="evenodd" d="M24 68C26.2091 68 28 66.2091 28 64C28 61.7909 26.2091 60 24 60C21.7909 60 20 61.7909 20 64C20 66.2091 21.7909 68 24 68Z" fill="#3B8EF3"/>
<path fill-rule="evenodd" clip-rule="evenodd" d="M44 68C46.2091 68 48 66.2091 48 64C48 61.7909 46.2091 60 44 60C41.7909 60 40 61.7909 40 64C40 66.2091 41.7909 68 44 68Z" fill="#3B8EF3"/>
<path fill-rule="evenodd" clip-rule="evenodd" d="M64 68C66.2091 68 68 66.2091 68 64C68 61.7909 66.2091 60 64 60C61.7909 60 60 61.7909 60 64C60 66.2091 61.7909 68 64 68Z" fill="#3B8EF3"/>
<path fill-rule="evenodd" clip-rule="evenodd" d="M84 68C86.2091 68 88 66.2091 88 64C88 61.7909 86.2091 60 84 60C81.7909 60 80 61.7909 80 64C80 66.2091 81.7909 68 84 68Z" fill="#3B8EF3"/>
<path fill-rule="evenodd" clip-rule="evenodd" d="M104 68C106.209 68 108 66.2091 108 64C108 61.7909 106.209 60 104 60C101.791 60 100 61.7909 100 64C100 66.2091 101.791 68 104 68Z" fill="#3B8EF3"/>
<path fill-rule="evenodd" clip-rule="evenodd" d="M124 68C126.209 68 128 66.2091 128 64C128 61.7909 126.209 60 124 60C121.791 60 120 61.7909 120 64C120 66.2091 121.791 68 124 68Z" fill="#3B8EF3"/>
<path fill-rule="evenodd" clip-rule="evenodd" d="M144 68C146.209 68 148 66.2091 148 64C148 61.7909 146.209 60 144 60C141.791 60 140 61.7909 140 64C140 66.2091 141.791 68 144 68Z" fill="#3B8EF3"/>
<path fill-rule="evenodd" clip-rule="evenodd" d="M4 88C6.20914 88 8 86.2091 8 84C8 81.7909 6.20914 80 4 80C1.79086 80 0 81.7909 0 84C0 86.2091 1.79086 88 4 88Z" fill="#3B8EF3"/>
<path fill-rule="evenodd" clip-rule="evenodd" d="M24 88C26.2091 88 28 86.2091 28 84C28 81.7909 26.2091 80 24 80C21.7909 80 20 81.7909 20 84C20 86.2091 21.7909 88 24 88Z" fill="#3B8EF3"/>
<path fill-rule="evenodd" clip-rule="evenodd" d="M44 88C46.2091 88 48 86.2091 48 84C48 81.7909 46.2091 80 44 80C41.7909 80 40 81.7909 40 84C40 86.2091 41.7909 88 44 88Z" fill="#3B8EF3"/>
<path fill-rule="evenodd" clip-rule="evenodd" d="M64 88C66.2091 88 68 86.2091 68 84C68 81.7909 66.2091 80 64 80C61.7909 80 60 81.7909 60 84C60 86.2091 61.7909 88 64 88Z" fill="#3B8EF3"/>
<path fill-rule="evenodd" clip-rule="evenodd" d="M84 88C86.2091 88 88 86.2091 88 84C88 81.7909 86.2091 80 84 80C81.7909 80 80 81.7909 80 84C80 86.2091 81.7909 88 84 88Z" fill="#3B8EF3"/>
<path fill-rule="evenodd" clip-rule="evenodd" d="M104 88C106.209 88 108 86.2091 108 84C108 81.7909 106.209 80 104 80C101.791 80 100 81.7909 100 84C100 86.2091 101.791 88 104 88Z" fill="#3B8EF3"/>
<path fill-rule="evenodd" clip-rule="evenodd" d="M124 88C126.209 88 128 86.2091 128 84C128 81.7909 126.209 80 124 80C121.791 80 120 81.7909 120 84C120 86.2091 121.791 88 124 88Z" fill="#3B8EF3"/>
<path fill-rule="evenodd" clip-rule="evenodd" d="M144 88C146.209 88 148 86.2091 148 84C148 81.7909 146.209 80 144 80C141.791 80 140 81.7909 140 84C140 86.2091 141.791 88 144 88Z" fill="#3B8EF3"/>
<path fill-rule="evenodd" clip-rule="evenodd" d="M4 108C6.20914 108 8 106.209 8 104C8 101.791 6.20914 100 4 100C1.79086 100 0 101.791 0 104C0 106.209 1.79086 108 4 108Z" fill="#3B8EF3"/>
<path fill-rule="evenodd" clip-rule="evenodd" d="M24 108C26.2091 108 28 106.209 28 104C28 101.791 26.2091 100 24 100C21.7909 100 20 101.791 20 104C20 106.209 21.7909 108 24 108Z" fill="#3B8EF3"/>
<path fill-rule="evenodd" clip-rule="evenodd" d="M44 108C46.2091 108 48 106.209 48 104C48 101.791 46.2091 100 44 100C41.7909 100 40 101.791 40 104C40 106.209 41.7909 108 44 108Z" fill="#3B8EF3"/>
<path fill-rule="evenodd" clip-rule="evenodd" d="M64 108C66.2091 108 68 106.209 68 104C68 101.791 66.2091 100 64 100C61.7909 100 60 101.791 60 104C60 106.209 61.7909 108 64 108Z" fill="#3B8EF3"/>
<path fill-rule="evenodd" clip-rule="evenodd" d="M84 108C86.2091 108 88 106.209 88 104C88 101.791 86.2091 100 84 100C81.7909 100 80 101.791 80 104C80 106.209 81.7909 108 84 108Z" fill="#3B8EF3"/>
<path fill-rule="evenodd" clip-rule="evenodd" d="M104 108C106.209 108 108 106.209 108 104C108 101.791 106.209 100 104 100C101.791 100 100 101.791 100 104C100 106.209 101.791 108 104 108Z" fill="#3B8EF3"/>
<path fill-rule="evenodd" clip-rule="evenodd" d="M124 108C126.209 108 128 106.209 128 104C128 101.791 126.209 100 124 100C121.791 100 120 101.791 120 104C120 106.209 121.791 108 124 108Z" fill="#3B8EF3"/>
<path fill-rule="evenodd" clip-rule="evenodd" d="M144 108C146.209 108 148 106.209 148 104C148 101.791 146.209 100 144 100C141.791 100 140 101.791 140 104C140 106.209 141.791 108 144 108Z" fill="#3B8EF3"/>
</g>
</svg>
