<svg width="226" height="214" viewBox="0 0 226 214" fill="none" xmlns="http://www.w3.org/2000/svg">
<g clip-path="url(#clip0)">
<path d="M119.788 199.752C119.788 199.752 121.656 209.51 129.773 209.88C137.882 210.249 147.45 210.619 150.987 211.173C154.524 211.727 163.675 214.49 171.574 213.936C179.474 213.381 181.142 209.149 191.745 210.434C202.347 211.727 207.135 211.727 207.135 211.727L198.61 203.993L139.759 197.182L119.788 199.752Z" fill="#B1AEAD"/>
<path d="M77.7786 27.741H151.812C188.797 27.741 218.771 54.2932 218.771 87.0377V153.338C218.771 186.09 188.788 212.635 151.812 212.635H77.7786C40.7937 212.635 10.8193 186.082 10.8193 153.338V87.0377C10.8103 54.2932 40.7937 27.741 77.7786 27.741Z" fill="#E0E3ED"/>
<path d="M29.0853 202.732C29.0853 202.732 -8.55267 170.766 1.7955 153.659C12.1437 136.552 29.0853 143.756 29.0853 143.756C29.0853 143.756 12.1437 110.891 32.8491 98.7315C53.5545 86.5718 66.7232 112.69 66.7232 112.69C66.7232 112.69 67.6664 61.3689 102.484 56.4134C137.301 51.458 142.008 106.835 142.008 106.835C142.008 106.835 174.939 86.122 187.174 100.531C199.408 114.939 183.882 141.499 183.882 141.499C183.882 141.499 204.115 132.046 216.812 149.603C229.519 167.16 187.645 201.824 179.646 206.78C171.647 211.735 156.592 212.635 146.244 212.635C135.895 212.635 61.5537 212.635 55.9125 212.635C50.2714 212.635 32.8491 206.338 29.0853 202.732Z" fill="url(#paint0_linear)"/>
<path d="M77.7792 212.643H151.813C172.99 212.643 191.863 203.928 204.134 190.331C193.541 191.704 179.982 193.399 166.16 192.202C144.947 190.363 70.0793 195.519 60.9283 196.804C52.6389 197.969 39.579 189.022 27.9248 192.925C40.1866 205.021 57.9717 212.643 77.7792 212.643Z" fill="#B1AEAD"/>
<path d="M50.4709 197.23C50.4709 197.23 41.6645 199.921 48.9563 201.8C56.2481 203.679 100.588 200.997 113.957 202.603C127.325 204.209 185.94 202.603 187.156 202.603C188.371 202.603 161.943 188.885 140.992 191.038C120.024 193.198 50.4709 197.23 50.4709 197.23Z" fill="#686868"/>
<path d="M88.5347 100.466L83.7461 106.426C83.7461 106.426 87.0746 113.18 104.506 114.618C121.937 116.056 125.266 116.915 125.266 116.915L125.347 106.426L88.5347 100.466Z" fill="#2D517E"/>
<path d="M139.314 81.3993C139.314 81.3993 156.592 84.628 159.875 91.3102C163.158 97.9925 169.969 113.831 168.999 116.2C168.028 118.569 164.618 123.42 167.049 126.97C169.479 130.528 170.939 131.821 173.379 130.745C175.81 129.669 173.869 123.308 177.152 122.665C180.435 122.023 179.22 115.445 177.642 114.802C176.064 114.16 174.839 113.188 174.839 112.216C174.839 111.244 172.037 85.0617 166.078 79.1425C160.12 73.2152 148.438 69.336 141.745 69.5528L139.314 81.3993Z" fill="#E9F3FE"/>
<path d="M177.633 114.802C176.055 114.16 174.83 113.188 174.83 112.216C174.83 111.244 172.028 85.0617 166.069 79.1425C160.111 73.2152 148.429 69.336 141.736 69.5528L139.306 81.4074C139.306 81.4074 142.471 82.0017 146.344 83.1984C146.035 80.8853 145.89 77.2711 147.659 76.2672C150.334 74.7573 165.054 80.3633 165.425 82.6201C165.788 84.885 172.364 111.606 172.726 112.465C173.089 113.325 177.352 116.987 177.47 118.609C177.588 120.224 174.304 123.782 174.794 124.962C174.83 125.059 174.957 125.171 175.139 125.284C175.402 123.982 175.892 122.906 177.143 122.665C180.435 122.015 179.22 115.445 177.633 114.802Z" fill="#92C1F8"/>
<path d="M91.5371 65.5613C91.5371 65.5613 86.5127 65.2722 82.9394 65.0554C79.366 64.8385 77.1803 59.2405 76.8538 57.4415C76.5273 55.6424 74.26 47.2414 72.5549 44.9444C70.8499 42.6474 69.7978 41.5712 69.7978 41.5712C69.7978 41.5712 72.4733 37.9088 71.258 36.182C70.0427 34.4552 66.3061 36.4712 66.3061 36.4712C66.3061 36.4712 60.6287 30.1504 57.2186 31.082C53.8085 32.0137 49.9177 35.2504 54.9512 39.1296C59.9757 43.0088 63.0593 43.6513 63.0593 43.6513C63.0593 43.6513 65.0092 55.8593 66.3061 62.0355C67.603 68.2118 69.3897 75.1831 77.3345 75.9702C85.2793 76.7573 89.0975 76.4762 89.0975 76.4762L91.5371 65.5613Z" fill="#E9F3FE"/>
<path d="M89.116 65.4248C88.7533 69.4406 82.4863 73.2957 79.6113 72.8941C76.5277 72.4604 72.5553 68.5812 70.0431 62.4049C67.5309 56.2207 64.937 42.792 63.0688 42.2137C61.6177 41.7639 55.2963 37.5313 52.5664 35.676C52.6662 36.7282 53.3554 37.8927 54.9607 39.1216C59.9852 43.0008 63.0688 43.6433 63.0688 43.6433C63.0688 43.6433 65.0187 55.8512 66.3156 62.0275C67.6125 68.2037 69.3992 75.1751 77.344 75.9622C85.2887 76.7492 89.107 76.4681 89.107 76.4681L91.5376 65.5533C91.5376 65.5613 90.5399 65.5051 89.116 65.4248Z" fill="#92C1F8"/>
<path d="M133.065 141.588L133.718 140.712L137.528 139.941L137.772 148.382L134.081 149.707L133.102 148.27L133.065 141.588Z" fill="#4DCA86"/>
<path d="M129.338 141.628L133.718 140.712L134.081 149.707L129.338 150.944V141.628Z" fill="#E9F3FE"/>
<path d="M104.189 115.622C104.189 115.622 76.3638 138.68 74.6678 140.544C72.9628 142.415 71.421 146.431 73.2077 149.812C74.9943 153.185 86.9931 163.602 95.8358 163.313C104.678 163.024 129.819 153.828 129.819 153.828L130.064 140.182L109.948 145.21C109.948 145.21 118.79 134.006 118.79 129.195C118.79 124.384 118.564 117.485 118.564 117.485L104.189 115.622Z" fill="#246641"/>
<path d="M80.7263 187.632L80.4814 188.524L80.5449 193.479L89.0067 193.319L88.9432 188.307L88.1541 187.737L80.7263 187.632Z" fill="#4DCA86"/>
<path d="M80.2998 185.07L80.4812 188.524L88.9429 188.307L88.8522 184.532L80.2998 185.07Z" fill="#E9F3FE"/>
<path d="M93.6229 112L92.6162 112.321C92.6162 112.321 82.2861 124.32 79.7739 127.838C77.2617 131.355 76.5271 134.52 76.772 139.475C77.0168 144.431 76.4092 185.697 76.4092 185.697L91.0472 185.231C91.0472 185.231 91.292 173.023 91.4553 170.437C91.6185 167.851 94.6205 152.551 94.5389 148.31C94.4573 144.069 94.1308 143.138 94.1308 143.138C94.1308 143.138 108.098 133.653 111.997 129.886C115.888 126.111 117.348 123.155 117.775 121.051C118.201 118.947 118.564 117.493 118.564 117.493L93.6229 112Z" fill="#4DCA86"/>
<path d="M93.9582 109.012L93.2599 109.333L92.625 112.321C92.625 112.321 97.459 115.445 106.102 116.634C114.736 117.822 117.657 117.822 118.573 117.493L119.198 116.055L93.9582 109.012Z" fill="#246641"/>
<path d="M110.174 64.5895C110.174 64.5895 96.1621 95.7277 94.5386 100.755C92.9152 105.783 93.2417 109.229 93.2417 109.229C93.2417 109.229 97.2957 112.819 105.25 114.546C113.194 116.272 119.198 116.056 119.198 116.056C119.198 116.056 123.416 110.313 124.304 99.0287C125.193 87.7444 124.304 71.9464 121.547 68.1395C118.79 64.3325 118.79 64.3325 118.79 64.3325L110.174 64.5895Z" fill="white"/>
<path opacity="0.3" d="M105.241 114.545C113.186 116.272 119.19 116.055 119.19 116.055C119.19 116.055 120.741 113.943 122.156 109.767C117.929 105.719 114.32 102.265 114.32 102.265C114.32 102.265 102.965 109.02 102.158 102.844C101.423 97.2215 111.037 69.4404 112.76 64.5171L110.166 64.5894C110.166 64.5894 96.1539 95.7276 94.5304 100.755C92.907 105.783 93.2426 109.229 93.2426 109.229C93.2426 109.229 97.2966 112.827 105.241 114.545Z" fill="#231F20"/>
<path d="M109.685 59.0719L109.322 64.2201C109.322 64.2201 110.937 66.4047 113.948 66.3484C116.959 66.2922 119.852 64.3566 119.852 64.3566L120.033 59.0237L109.685 59.0719Z" fill="#E9F3FE"/>
<path d="M112.143 59.0558C112.043 59.1682 111.988 59.2405 111.988 59.2405C111.988 59.2405 115.181 60.6139 115.09 61.907C114.999 63.2001 112.197 64.4932 110.374 64.1719C110.02 64.1076 109.721 64.204 109.458 64.3887C109.902 64.8947 111.435 66.3886 113.938 66.3484C116.949 66.2922 119.842 64.3566 119.842 64.3566L120.024 59.0237L112.143 59.0558Z" fill="#92C1F8"/>
<path d="M109.077 46.1169L107.926 44.8239C107.926 44.8239 104.942 43.4264 104.334 41.8602C103.726 40.2941 105.676 38.5191 107.436 38.8404C109.195 39.1616 109.204 39.1616 109.204 39.1616C109.204 39.1616 103.427 36.3586 104.942 32.1581C106.465 27.9577 110.782 29.4676 111.934 30.3832C113.086 31.2988 113.703 31.8369 113.703 31.8369C113.703 31.8369 116.015 27.797 118.446 29.5238C120.877 31.2506 125.865 37.1216 127.697 40.2459C129.529 43.3702 130.254 44.1813 129.039 45.9563C127.824 47.7313 124.84 51.0724 124.659 52.8554C124.477 54.6304 124.477 57.6502 123.625 58.2445C122.772 58.8389 120.097 58.6782 120.097 58.6782L109.077 46.1169Z" fill="#2D517E"/>
<path d="M107.926 44.824C107.926 44.824 106.584 48.5988 106.284 52.3656C105.976 56.1404 106.402 59.851 109.694 59.8028C112.977 59.7465 118.519 59.6421 119.426 59.6421C120.333 59.6421 122.228 58.6703 122.101 57.3291C121.983 55.9798 122.038 55.016 122.038 55.016C122.038 55.016 124.595 55.1927 125.04 53.2169C125.484 51.2412 123.697 50.8476 123.171 51.0243C122.645 51.201 122.283 51.458 122.283 51.458L122.364 48.2615C122.355 48.2534 112.832 46.4945 107.926 44.824Z" fill="#E9F3FE"/>
<path d="M122.355 48.2534C122.355 48.2534 112.823 46.4945 107.917 44.824C107.917 44.824 107.663 45.5388 107.354 46.6632C109.966 47.5788 115.472 49.426 117.793 49.5465C120.378 49.683 121.729 50.4862 122.292 50.7512L122.355 48.2534Z" fill="#92C1F8"/>
<path d="M108.896 62.6138C108.896 62.6138 103.218 62.1801 99.7264 62.5415C96.2346 62.9029 90.5572 63.1198 90.5572 63.1198C90.5572 63.1198 90.1491 69.4406 89.1787 72.8138C88.2082 76.1871 87.4736 78.5564 87.4736 78.5564L94.2031 78.2672C94.2031 78.2672 93.7134 84.0821 90.2307 90.4752C86.7481 96.8682 83.7461 106.418 83.7461 106.418C83.7461 106.418 92.099 106.056 95.2642 105.269C98.4294 104.482 99.2366 104.265 99.2366 104.265C99.2366 104.265 105.803 82.283 107.59 77.6167C109.376 72.9504 111.399 65.5533 111.399 65.5533C111.399 65.5533 109.476 63.9792 108.896 62.6138Z" fill="#2D517E"/>
<path d="M110.356 107.582C110.356 107.582 118.265 86.7886 118.873 77.199C119.48 67.6094 118.102 64.8465 118.102 64.8465L119.843 64.0916C119.843 64.0916 128.477 67.5049 134.626 67.77C140.775 68.035 142.598 68.0431 142.598 68.0431V83.5037C142.598 83.5037 136.939 84.3149 134.753 84.2025C132.567 84.0981 130.309 84.0981 130.309 84.0981C130.309 84.0981 130.146 97.9605 128.441 105.574C126.736 113.188 125.276 116.923 125.276 116.923C125.276 116.923 124.224 114.554 120.977 112.899C117.739 111.245 110.356 107.582 110.356 107.582Z" fill="#2D517E"/>
<path d="M85.8238 192.443C85.8238 192.443 80.101 192.475 79.4934 192.475C78.8857 192.475 78.1964 192.508 78.1511 194.162C78.1148 195.817 78.1511 197.608 78.1511 197.608C78.1511 197.608 70.8502 196.925 69.517 199.118C68.1748 201.31 67.0864 203.43 68.6282 205.294C70.17 207.165 73.2083 206.908 75.1129 206.555C77.0174 206.193 86.3498 204.009 87.3565 203.969C88.3723 203.936 88.8167 202.603 88.8983 201.278C88.9799 199.953 90.159 195.857 90.4764 194.708C90.812 193.56 89.6692 192.371 85.8238 192.443Z" fill="#2D517E"/>
<path d="M137.093 139.363C137.583 139.355 142.263 139.387 143.269 139.122C144.276 138.849 149.11 136.937 150.389 138.688C151.668 140.439 150.878 151.378 150.634 154.824C150.389 158.269 150.389 160.59 147.831 160.751C145.274 160.911 143.877 157.731 143.877 156.438C143.877 155.145 145.092 150.944 142.843 150.727C140.594 150.511 138.036 150.784 137.546 149.491C137.057 148.198 136.313 139.379 137.093 139.363Z" fill="#2D517E"/>
<path d="M111.526 51.1206L109.177 54.6143L111.009 55.0721" fill="#92C1F8"/>
<path d="M68.9631 35.5716C68.9631 35.5716 65.2265 27.5963 66.986 18.2798C68.7364 8.96318 59.6579 0 59.6579 0L40.1406 2.78694C40.1406 2.78694 50.9604 6.40113 49.083 12.0874C47.2057 17.7738 53.2005 28.4878 56.2751 31.1944C59.3496 33.9011 70.0424 35.8688 70.0424 35.8688" fill="#61D093"/>
<path d="M60.9816 10.9709C61.2537 11.7339 61.4169 12.3845 61.4804 12.9387C61.5892 13.8543 61.4623 14.553 61.0995 15.0349C60.7367 15.5248 60.1381 15.8059 59.3038 15.8782C58.3877 15.9585 57.6985 15.7497 57.2269 15.2437L54.7146 16.5529L54.5151 14.81L56.5648 13.782C56.5467 13.7017 56.5285 13.5732 56.5104 13.3965L56.4741 13.0591L54.3428 13.2519L54.1523 11.5974L60.9816 10.9709ZM57.9252 13.4286C57.9887 13.9747 58.3877 14.2157 59.1133 14.1434C59.8388 14.0791 60.1744 13.7739 60.1109 13.2278C60.0928 13.0913 60.0474 12.9226 59.9568 12.7299L57.8708 12.9226L57.9252 13.4286Z" fill="white"/>
<path d="M59.4855 16.4885C59.7304 16.7857 59.939 17.107 60.0931 17.4443C60.2473 17.7816 60.3471 18.127 60.3834 18.4643C60.4378 18.9301 60.3834 19.3397 60.2201 19.7011C60.0569 20.0626 59.7938 20.3517 59.4401 20.5605C59.0864 20.7774 58.6511 20.9059 58.1341 20.9541L57.6807 20.9942C56.8735 21.0665 56.2296 20.93 55.7489 20.5766C55.2682 20.2232 54.9871 19.6851 54.9054 18.9622C54.8964 18.8739 54.8873 18.7293 54.8782 18.5285L53.0916 18.6892L52.7197 17.0989L59.4855 16.4885ZM56.5651 19.2755C56.683 19.3718 56.8554 19.412 57.064 19.3879L58.37 19.2674C58.5786 19.2514 58.7327 19.1791 58.8325 19.0666C58.9323 18.9542 58.9685 18.7936 58.9413 18.6008C58.9232 18.4241 58.8688 18.2876 58.7962 18.1832L56.3928 18.4C56.3475 18.5125 56.3293 18.6651 56.3475 18.8418C56.3747 19.0345 56.4382 19.1791 56.5651 19.2755Z" fill="white"/>
<path d="M179.02 107.711V199.768H48.5664V107.711L113.793 91.4629L179.02 107.711Z" fill="#3A8FF3"/>
<path d="M179.02 107.711V199.768H113.793V91.4629L179.02 107.711Z" fill="#3576C4"/>
<path d="M179.02 142.005L113.793 125.758L48.5664 142.005V127.565L113.793 111.317L179.02 127.565V142.005Z" fill="#61D093"/>
<path d="M107.336 136.319L95.7905 139.098C94.7112 139.355 93.5957 138.793 93.2964 137.837L93.2148 137.58C92.9246 136.624 93.5594 135.636 94.6387 135.371L106.184 132.592C107.263 132.335 108.379 132.897 108.678 133.853L108.76 134.11C109.059 135.066 108.424 136.062 107.336 136.319Z" fill="#61D093"/>
<path d="M87.1932 141.074L75.6479 143.852C74.5687 144.109 73.4531 143.547 73.1538 142.591L73.0722 142.334C72.782 141.379 73.4169 140.391 74.4961 140.126L86.0414 137.347C87.1207 137.09 88.2362 137.652 88.5355 138.608L88.6171 138.865C88.9164 139.821 88.2725 140.808 87.1932 141.074Z" fill="#61D093"/>
<path d="M67.8573 145.732L56.312 148.511C55.2327 148.768 54.1172 148.206 53.8179 147.25L53.7363 146.993C53.4461 146.037 54.0809 145.049 55.1602 144.784L66.7055 142.005C67.7848 141.748 68.9003 142.311 69.1996 143.266L69.2812 143.523C69.5805 144.487 68.9366 145.475 67.8573 145.732Z" fill="#61D093"/>
<path d="M138.898 139.459L149.591 142.037C150.67 142.294 151.785 141.732 152.085 140.776L152.166 140.519C152.456 139.564 151.822 138.576 150.742 138.311L140.04 135.733C138.961 135.476 137.846 136.038 137.546 136.994L137.465 137.251C137.175 138.214 137.809 139.202 138.898 139.459Z" fill="#61D093"/>
<path d="M158.741 144.391L169.434 146.969C170.513 147.226 171.629 146.664 171.928 145.708L172.01 145.451C172.3 144.495 171.665 143.507 170.586 143.242L159.893 140.664C158.814 140.407 157.698 140.969 157.399 141.925L157.317 142.182C157.018 143.146 157.653 144.134 158.741 144.391Z" fill="#61D093"/>
<path d="M120.024 135.235L130.716 137.813C131.796 138.07 132.911 137.508 133.211 136.552L133.292 136.295C133.582 135.339 132.948 134.351 131.868 134.086L121.175 131.508C120.096 131.251 118.981 131.813 118.681 132.769L118.6 133.026C118.3 133.982 118.944 134.97 120.024 135.235Z" fill="#61D093"/>
<path d="M24.1512 64.9428C24.1512 64.9428 33.8373 74.4923 36.5944 88.3065C39.3515 102.121 57.0731 110.706 57.0731 110.706L82.8755 98.2495C82.8755 98.2495 65.689 97.9283 65.1448 89.1418C64.6006 80.3553 50.2075 67.9707 44.385 65.5211C38.5624 63.0715 22.4824 64.999 22.4824 64.999" fill="#61D093"/>
<path d="M49.0829 95.9125C48.2757 94.9648 47.6771 94.1215 47.2871 93.3746C46.6251 92.1377 46.4165 91.1017 46.6523 90.2664C46.8881 89.4231 47.5683 88.7725 48.6929 88.2987C49.9263 87.7846 51.0146 87.7766 51.9669 88.2826L54.7603 85.3511L56.0209 87.7043L53.7264 90.0415C53.7989 90.1459 53.8896 90.3226 54.0166 90.5635L54.2615 91.0213L57.1455 89.8166L58.3336 92.0494L49.0829 95.9125ZM51.9941 91.1338C51.6042 90.3949 50.9149 90.2342 49.9354 90.6439C48.9559 91.0535 48.6566 91.6317 49.0557 92.3626C49.1554 92.5473 49.3187 92.7561 49.5454 92.9891L52.366 91.8084L51.9941 91.1338Z" fill="white"/>
<path d="M48.0944 87.5276C47.5775 87.2143 47.1149 86.8529 46.7068 86.4513C46.2987 86.0417 45.9722 85.608 45.7273 85.1502C45.3917 84.5238 45.2376 83.9294 45.2648 83.3512C45.292 82.7729 45.4915 82.2589 45.8724 81.8011C46.2533 81.3433 46.7884 80.9658 47.4777 80.6767L48.0944 80.4197C49.1828 79.9619 50.1713 79.8735 51.042 80.1626C51.9126 80.4518 52.611 81.0782 53.1279 82.0501C53.1914 82.1705 53.2821 82.3633 53.4091 82.6444L55.8306 81.6324L57.2454 83.7046L48.0944 87.5276ZM50.6429 82.3392C50.4162 82.2589 50.1622 82.2749 49.8811 82.3954L48.1216 83.1343C47.8405 83.2548 47.6591 83.4154 47.5865 83.6162C47.514 83.817 47.5503 84.0579 47.6954 84.323C47.8223 84.5639 47.9675 84.7406 48.1307 84.8531L51.3775 83.4957C51.3866 83.311 51.3231 83.1022 51.1962 82.8612C51.042 82.5962 50.8606 82.4195 50.6429 82.3392Z" fill="white"/>
<path d="M220.204 112.265C220.204 112.265 216.386 120.585 207.416 126.352C198.447 132.119 197.775 144.624 197.775 144.624L214.527 155.185C214.527 155.185 209.493 145.507 215.57 142.52C221.646 139.532 226.036 127.709 225.999 123.718C225.963 119.726 219.66 111.357 219.66 111.357" fill="#61D093"/>
<path d="M205.838 135.636C206.264 134.898 206.681 134.303 207.089 133.861C207.761 133.115 208.441 132.681 209.103 132.552C209.774 132.424 210.445 132.6 211.125 133.082C211.869 133.612 212.205 134.215 212.141 134.898L215.08 135.556L213.792 136.978L211.425 136.415C211.37 136.488 211.28 136.592 211.143 136.737L210.89 137.01L212.631 138.247L211.416 139.596L205.838 135.636ZM210.128 135.797C210.527 135.355 210.436 134.922 209.837 134.496C209.248 134.078 208.749 134.086 208.341 134.528C208.241 134.641 208.142 134.793 208.042 134.994L209.747 136.207L210.128 135.797Z" fill="white"/>
<path d="M211.497 132.52C211.561 132.135 211.678 131.773 211.842 131.42C212.005 131.066 212.214 130.753 212.468 130.472C212.812 130.095 213.184 129.83 213.601 129.661C214.018 129.5 214.445 129.452 214.889 129.524C215.333 129.597 215.76 129.781 216.177 130.079L216.549 130.344C217.211 130.809 217.574 131.332 217.637 131.902C217.701 132.472 217.465 133.058 216.939 133.645C216.875 133.717 216.766 133.829 216.603 133.982L218.063 135.018L217.029 136.44L211.497 132.52ZM215.959 132.352C215.95 132.207 215.859 132.07 215.687 131.942L214.626 131.187C214.454 131.066 214.281 131.018 214.118 131.034C213.955 131.058 213.792 131.147 213.647 131.307C213.52 131.452 213.438 131.589 213.402 131.709L215.361 133.098C215.497 133.042 215.624 132.946 215.751 132.801C215.905 132.649 215.968 132.496 215.959 132.352Z" fill="white"/>
<path d="M161.39 80.6284C164.901 80.6284 167.748 78.1077 167.748 74.9983C167.748 71.8888 164.901 69.3682 161.39 69.3682C157.879 69.3682 155.032 71.8888 155.032 74.9983C155.032 78.1077 157.879 80.6284 161.39 80.6284Z" fill="#FFDF00"/>
<path d="M161.39 80.0339C164.53 80.0339 167.076 77.7793 167.076 74.9982C167.076 72.217 164.53 69.9624 161.39 69.9624C158.249 69.9624 155.703 72.217 155.703 74.9982C155.703 77.7793 158.249 80.0339 161.39 80.0339Z" fill="#FFC100"/>
<path d="M199.453 107.888C207.447 107.888 213.928 102.149 213.928 95.0693C213.928 87.9899 207.447 82.251 199.453 82.251C191.459 82.251 184.979 87.9899 184.979 95.0693C184.979 102.149 191.459 107.888 199.453 107.888Z" fill="#FFDF00"/>
<path d="M199.454 106.53C206.601 106.53 212.396 101.399 212.396 95.0694C212.396 88.7397 206.601 83.6084 199.454 83.6084C192.306 83.6084 186.512 88.7397 186.512 95.0694C186.512 101.399 192.306 106.53 199.454 106.53Z" fill="#FFC100"/>
<path d="M20.1886 125.565C28.1828 125.565 34.6633 119.826 34.6633 112.747C34.6633 105.667 28.1828 99.9282 20.1886 99.9282C12.1944 99.9282 5.71387 105.667 5.71387 112.747C5.71387 119.826 12.1944 125.565 20.1886 125.565Z" fill="#FFDF00"/>
<path d="M20.1891 124.208C27.3368 124.208 33.1311 119.076 33.1311 112.747C33.1311 106.417 27.3368 101.286 20.1891 101.286C13.0414 101.286 7.24707 106.417 7.24707 112.747C7.24707 119.076 13.0414 124.208 20.1891 124.208Z" fill="#FFC100"/>
<path d="M36.477 92.4187C41.9818 92.4187 46.4443 88.4669 46.4443 83.592C46.4443 78.7172 41.9818 74.7654 36.477 74.7654C30.9723 74.7654 26.5098 78.7172 26.5098 83.592C26.5098 88.4669 30.9723 92.4187 36.477 92.4187Z" fill="#FFDF00"/>
<path d="M36.4774 91.479C41.3961 91.479 45.3836 87.9479 45.3836 83.592C45.3836 79.2362 41.3961 75.7051 36.4774 75.7051C31.5587 75.7051 27.5713 79.2362 27.5713 83.592C27.5713 87.9479 31.5587 91.479 36.4774 91.479Z" fill="#FFC100"/>
<path d="M177.896 64.6699C188.76 64.6699 197.568 56.8705 197.568 47.2495C197.568 37.6285 188.76 29.8291 177.896 29.8291C167.032 29.8291 158.225 37.6285 158.225 47.2495C158.225 56.8705 167.032 64.6699 177.896 64.6699Z" fill="#FFDF00"/>
<path d="M177.896 62.8225C187.608 62.8225 195.482 55.8502 195.482 47.2494C195.482 38.6486 187.608 31.6763 177.896 31.6763C168.184 31.6763 160.311 38.6486 160.311 47.2494C160.311 55.8502 168.184 62.8225 177.896 62.8225Z" fill="#FFC100"/>
<path d="M56.9916 129.749C56.2842 125.38 54.3433 119.702 48.4482 119.124C43.3694 118.626 39.8958 122.818 39.0342 126.77C37.7826 132.488 39.533 138.624 40.8209 144.214C42.399 151.073 43.4692 157.651 41.3741 164.518C38.8166 172.871 33.121 182.324 34.6628 191.038C32.3138 183.842 33.5472 175.529 33.4112 168.172C33.3114 162.839 32.7673 157.506 31.5883 152.27C30.7267 148.415 29.6293 144.086 26.4187 141.162C20.3422 135.645 10.6924 139.773 10.3659 147.089C10.1573 151.667 13.0776 155.619 15.8257 159.265C19.2358 163.803 22.1924 168.493 24.0153 173.73C25.3485 177.577 26.2101 181.529 27.3075 185.432C25.9018 182.902 24.3872 180.372 22.1924 178.356C18.4649 174.927 10.2933 172.614 8.73341 178.894C8.08949 181.472 8.10762 184.308 10.0757 186.452C12.2614 188.829 15.8982 189.472 18.7914 190.934C25.7204 194.451 30.4727 201.278 39.2428 201.206C39.5421 201.206 39.7688 201.101 39.9321 200.949C40.4128 200.676 40.6667 200.065 40.1498 199.6C40.0047 199.463 40.1498 199.6 40.3674 199.061C40.3674 199.053 40.3674 199.069 40.3674 199.061C40.8209 198.788 40.4309 198.266 39.9956 197.768C39.8595 197.616 40.1225 197.921 39.9956 197.768C39.8595 191.833 41.3651 185.858 44.9021 180.653C48.4755 175.401 51.7948 170.244 53.9715 164.389C58.089 153.314 58.8599 141.275 56.9916 129.749Z" fill="#26AC63"/>
<path d="M188.67 202.836L139.75 197.174L119.788 199.752C119.788 199.752 121.656 209.51 129.773 209.88C137.882 210.249 147.45 210.619 150.987 211.165C152.329 211.374 154.497 211.904 157.09 212.45C168.699 211.655 179.483 208.225 188.67 202.836Z" fill="#686868"/>
<path d="M217.901 207.374C217.783 207.599 217.565 207.928 217.184 208.257C216.822 208.579 216.314 208.747 215.788 208.715L213.502 208.587C213.303 208.579 213.121 208.675 213.058 208.844V208.852C212.922 209.205 212.559 209.438 212.142 209.446L184.426 210.072L178.903 209.759L178.567 210.121L172.536 210.048L172.028 209.141L171.094 209.052L170.459 207.526L217.937 207.326C217.919 207.342 217.91 207.358 217.901 207.374Z" fill="#039BE5"/>
<path d="M168.681 199.447C168.681 199.447 166.16 194.467 161.553 196.981C157.517 199.182 158.351 205.744 158.614 207.342L158.197 205.061C156.8 198.403 158.642 196.106 158.642 196.106C165.172 188.894 168.681 199.447 168.681 199.447Z" fill="#2D517E"/>
<path d="M217.928 207.326L170.45 207.527C170.45 207.527 198.012 207.085 217.928 207.326Z" fill="#039BE5"/>
<path d="M122.609 185.271L123.262 184.821C127.724 175.786 131.207 174.019 131.207 174.019C154.596 169.08 180.299 173.794 180.299 173.794C187.455 175.569 200.27 185.48 200.27 185.48C200.27 185.48 210.02 188.572 213.575 191.696C213.575 191.696 215.679 193.006 216.341 196.78L217.366 197.76V200.194L218.028 200.933V203.856L217.665 204.322L217.991 206.86C218.01 207.021 217.991 207.181 217.919 207.326C198.003 207.085 170.441 207.527 170.441 207.527C170.441 207.527 169.062 192.162 162.215 194.098C155.367 196.025 158.415 205.944 158.415 205.944L158.678 207.703L136.222 204.956C132.077 204.956 131.098 203.27 131.098 203.27C131.098 203.27 128.749 190.628 124.341 192.026C119.933 193.423 121.91 201.495 121.91 201.495C119.852 198.893 121.647 192.275 121.647 192.275C121.765 186.596 122.609 185.271 122.609 185.271Z" fill="#3A8FF3"/>
<path d="M165.38 196.242C165.38 196.242 171.085 197.503 169.942 208.715C169.679 211.333 167.294 213.55 164.382 213.727C164.283 213.735 164.192 213.735 164.092 213.743C163.575 213.759 158.623 213.277 158.333 204.097C158.034 194.909 165.38 196.242 165.38 196.242Z" fill="#2D517E"/>
<path d="M183.474 206.217C183.474 206.217 216.913 208.306 217.62 205.486V205.824C217.62 205.824 217.031 207.245 212.659 207.237C212.659 207.237 194.158 208.081 187.628 207.567C187.628 207.567 174.25 207.928 173.924 204.515L183.147 205.181L183.474 206.217Z" fill="#2D517E"/>
<path d="M182.603 204.812L173.933 204.073L173.679 202.25L181.732 202.708L182.603 204.812Z" fill="#2D517E"/>
<path d="M215.86 202.579C215.289 205.382 214.128 205.286 214.128 205.286C212.278 206.209 188.425 205.808 188.425 205.808C186.303 204.804 186.194 202.643 186.194 202.643C199.245 203.455 215.86 202.579 215.86 202.579Z" fill="#2D517E"/>
<path d="M213.575 191.697C213.575 191.697 215.488 192.805 216.341 196.78C216.341 196.78 216.377 197.576 214.69 197.728C213.003 197.881 211.915 197.327 211.915 197.327V194.684C211.915 194.684 213.212 193.929 213.575 191.697Z" fill="#FFFDE7"/>
<path d="M172.917 191.986L175.42 192.13L186.185 194.797C186.185 194.797 188.362 195.993 188.797 197.391C188.797 197.391 186.457 197.897 184.498 198.074L173.679 197.045C173.679 197.045 171.72 195.688 170.903 193.094C170.903 193.094 171.012 192.708 172.917 191.986Z" fill="#FFFDE7"/>
<path d="M172.917 191.986L175.42 192.13L176.119 192.307L174.277 192.202C172.373 192.925 172.264 193.311 172.264 193.311C172.962 195.511 174.477 196.829 174.912 197.166L173.67 197.045C173.67 197.045 171.711 195.688 170.895 193.094C170.904 193.094 171.012 192.708 172.917 191.986Z" fill="#61D093"/>
<path d="M211.68 197.23C211.68 197.23 188.915 197.142 188.943 197.142C188.97 197.142 188.108 195.214 186.784 194.821L211.689 194.732C211.68 194.732 211.535 196.716 211.68 197.23Z" fill="#2D517E"/>
<path d="M154.389 174.951C167.521 174.38 179.583 175.127 182.622 175.344C183.102 175.376 183.574 175.505 184.009 175.73C192.571 180.179 199.237 185.36 199.237 185.36C196.398 185.504 167.095 185.376 162.125 185.295C161.662 185.287 161.227 185.054 160.982 184.693C156.901 178.677 154.969 176.332 154.162 175.465C153.962 175.256 154.098 174.959 154.389 174.951Z" fill="#E9F3FE"/>
<path d="M144.067 173.915C144.375 173.939 144.674 173.939 144.974 173.931C153.354 173.626 158.678 186.741 158.678 186.741C158.904 187.745 157.009 187.159 157.009 187.159L155.34 185.97L128.005 183.4C129.374 178.87 133.628 174.911 133.628 174.911C137.827 173.617 142.552 173.81 144.067 173.915Z" fill="#3576C4"/>
<path d="M155.331 181.77V185.657V185.809L142.534 184.661V184.219C142.833 178.091 144.811 174.517 144.811 174.517C152.066 174.445 155.331 181.77 155.331 181.77Z" fill="#E9F3FE"/>
<path d="M141.501 184.428C142.39 184.629 141.501 184.428 141.501 184.428V184.428Z" fill="#BBDEFB"/>
<path d="M144.04 174.445C141.655 178.589 141.501 184.388 141.501 184.428C141.428 184.412 141.356 184.396 141.265 184.372C139.986 184.082 132.341 183.641 132.341 183.641C133.756 177.087 135.17 174.983 135.17 174.983C139.088 174.228 144.04 174.445 144.04 174.445Z" fill="#E9F3FE"/>
<path d="M134.971 174.991C133.12 178.766 132.059 183.617 132.059 183.617L128.722 183.255L128.921 182.902C131.941 175.585 134.971 174.991 134.971 174.991Z" fill="#E9F3FE"/>
<path d="M123.262 184.822C123.262 184.822 123.298 185.151 123.017 185.617C122.736 186.082 122.41 190.428 122.41 190.428L121.729 190.387C121.866 186.894 122.564 185.303 122.564 185.303L123.262 184.822Z" fill="#61D093"/>
<path d="M124.768 190.347C124.768 190.347 127.389 189.922 130.209 196.427C130.209 196.427 132.196 202.097 133.973 203.077C133.973 203.077 137.601 204.37 158.125 206.073L158.424 207.446C158.424 207.446 133.638 204.772 133.03 204.137C133.03 204.137 131.615 204.001 131.452 203.262C131.28 202.531 129.874 191.97 124.704 191.311C124.704 191.311 122.927 190.966 122.256 192.379C122.246 192.379 122.047 191.215 124.768 190.347Z" fill="#1E88E5"/>
<path d="M172.373 191.953C171.049 192.355 170.532 192.789 170.532 192.789C169.988 193.367 171.475 195.198 171.475 195.198L166.822 194.716C164.455 192.018 162.823 192.708 162.823 192.708C154.66 193.327 156.619 204.001 156.619 204.001L140.322 201.993L133.139 200.981C132.313 198.893 128.55 192.042 127.987 189.64C127.425 187.239 127.987 184.251 127.987 184.251C168.346 187.649 172.373 191.953 172.373 191.953Z" fill="#3576C4"/>
<path d="M212.16 209.446C212.569 209.438 212.922 209.213 213.058 208.868C213.131 208.691 213.321 208.579 213.539 208.587L215.598 208.707C215.598 208.707 215.353 213.534 208.025 212.811C200.706 212.089 201.286 209.687 201.286 209.687L212.16 209.446Z" fill="#2D517E"/>
<path d="M165.126 198.001C165.126 198.001 169.579 199.158 168.663 208.113C168.455 210.201 166.659 211.824 164.328 211.968C164.256 211.976 164.174 211.976 164.092 211.976C163.675 211.992 159.721 211.607 159.494 204.274C159.258 196.933 165.126 198.001 165.126 198.001Z" fill="#E0E3ED"/>
<path d="M159.73 201.567C160.129 208.522 164.31 208.908 164.764 208.9C164.855 208.9 164.936 208.892 165.018 208.892C166.532 208.812 167.847 208.217 168.709 207.31C168.691 207.591 168.664 207.872 168.636 208.169C168.419 210.257 166.632 211.88 164.301 212.024C164.229 212.032 164.147 212.032 164.065 212.032C163.648 212.048 159.694 211.663 159.467 204.33C159.431 203.23 159.531 202.322 159.73 201.567Z" fill="#B1AEAD"/>
<path d="M170.06 205.013C170.595 212.803 164.083 213.743 164.083 213.743L169.724 213.695C173.044 213.912 174.504 209.96 174.504 209.96L172.518 209.848L171.982 208.892L171.003 208.796L170.531 207.527L170.06 204.804V205.013Z" fill="#2D517E"/>
<path d="M130.037 198.901L131.243 203.302C131.243 203.302 131.86 204.531 134.88 204.884C134.88 204.884 134.825 209.261 131.633 209.751C128.441 210.241 126.318 209.454 126.318 209.454C126.318 209.454 131.57 207.398 130.037 198.901Z" fill="#2D517E"/>
<path d="M125.085 191.913C127.715 192.066 129.339 196.973 129.339 196.973C128.758 195.945 127.797 194.62 127.216 194.315C126.545 193.961 125.693 193.616 125.103 194.017C121.639 196.403 122.41 202.234 122.41 202.234L121.92 201.487C120.414 194.202 123.054 191.793 125.085 191.913Z" fill="#2D517E"/>
<path d="M125.702 193.76C127.688 193.6 129.72 197.118 130.037 198.901C130.355 200.684 132.404 209.269 126.31 209.446C126.31 209.446 122.51 208.314 122.292 202.065C122.074 195.817 124.496 193.857 125.702 193.76Z" fill="#2D517E"/>
<path d="M125.865 195.367C127.461 195.238 129.076 198.017 129.33 199.447C129.583 200.876 130.989 207.776 126.101 207.92C126.101 207.92 123.38 207.133 123.199 202.121C123.026 197.102 124.904 195.447 125.865 195.367Z" fill="#E0E3ED"/>
<path d="M123.834 197.463C123.77 198.13 123.743 198.869 123.77 199.696C123.97 205.109 127.044 205.969 127.044 205.969C128.069 205.944 128.849 205.663 129.438 205.222C129.03 206.691 128.078 207.864 126.092 207.92C126.092 207.92 123.371 207.133 123.19 202.121C123.126 200.025 123.407 198.523 123.834 197.463Z" fill="#B1AEAD"/>
<path d="M158.614 207.342L158.678 207.695C158.678 207.703 158.651 207.575 158.614 207.342Z" fill="black"/>
<path d="M153.473 182.549C154.86 183.023 156.62 185.014 156.62 185.014L157.726 185.938C157.726 185.938 156.184 185.777 155.341 185.263C154.724 184.894 154.126 185.006 153.835 185.103C153.69 185.151 153.536 185.175 153.373 185.175C152.012 185.175 149.963 184.838 148.956 184.661C148.457 184.573 147.995 184.308 147.713 183.922C146.38 182.075 151.686 181.938 153.473 182.549Z" fill="#3576C4"/>
<path d="M158.914 176.742L158.696 176.34C156.374 176.726 158.75 177.047 158.914 176.742Z" fill="#E3F2FD"/>
<path d="M158.696 176.34C157.127 176.653 158.143 176.774 158.913 176.742L163.194 184.572L155.331 175.4H162.877L158.696 176.34Z" fill="#E3F2FD"/>
<path d="M140.621 174.903L136.122 175.746L133.329 182.878C132.984 180.252 135.723 175.28 135.723 175.28L140.621 174.903Z" fill="#E3F2FD"/>
<path d="M129.565 182.942L130.799 183.247L129.212 183.159C129.112 182.629 130.645 180.26 130.645 180.26L129.565 182.942Z" fill="white"/>
<path d="M148.321 175.754L145.791 175.609L144.031 177.561L145.283 175.167C146.344 174.541 148.321 175.754 148.321 175.754Z" fill="white"/>
<path d="M48.566 205.993C48.2032 207.599 49.4185 208.9 51.2777 208.9H99.1006C100.96 208.9 102.765 207.599 103.118 205.993L109.422 176.702C109.485 176.412 109.503 176.107 109.485 175.81C109.286 173.055 107.463 172.71 105.703 172.71H59.2588C57.3996 172.71 55.5948 174.011 55.2411 175.617L48.566 205.993Z" fill="#2D517E"/>
<path d="M47.6597 205.944C47.297 207.591 48.5123 208.924 50.3715 208.924H97.0244C98.8836 208.924 100.688 207.591 101.042 205.944L107.69 175.657C108.053 174.011 106.837 172.678 104.978 172.678H57.6361C55.7768 172.678 54.8427 173.336 54.4799 174.983L47.6597 205.944Z" fill="#3576C4"/>
<path d="M104.615 174.461L98.1664 203.864H51.0146L57.463 174.461H104.615Z" fill="#E9F3FE"/>
<path d="M29.7383 207.631C29.7383 206.916 30.3913 206.338 31.1985 206.338H62.5876V208.924H31.1985C30.3913 208.924 29.7383 208.346 29.7383 207.631Z" fill="#3A8FF3"/>
<path d="M79.1933 207.631C79.1933 208.346 78.5403 208.924 77.7332 208.924H46.335V206.338H77.7241C78.5403 206.338 79.1933 206.916 79.1933 207.631Z" fill="#3A8FF3"/>
<path d="M101.641 206.338H87.3925H68.8547C68.0475 206.338 67.3945 206.916 67.3945 207.631C67.3945 208.346 68.0475 208.924 68.8547 208.924H101.631C102.439 208.924 103.092 208.346 103.092 207.631C103.092 206.916 102.448 206.338 101.641 206.338Z" fill="#2D517E"/>
<path d="M155.023 58.5177L156.319 59.2727C156.374 59.3048 156.41 59.3449 156.437 59.3931L157.072 60.6461C157.172 60.8468 157.489 60.8709 157.625 60.6862L158.478 59.5377C158.514 59.4895 158.56 59.4574 158.614 59.4333L160.029 58.8711C160.256 58.7827 160.283 58.5016 160.074 58.3812L158.777 57.6262C158.723 57.5941 158.687 57.5539 158.659 57.5057L158.025 56.2528C157.925 56.052 157.607 56.0279 157.471 56.2126L156.619 57.3612C156.583 57.4093 156.537 57.4415 156.483 57.4656L155.068 58.0278C154.841 58.1242 154.814 58.3972 155.023 58.5177Z" fill="#FFC100"/>
<path d="M19.1993 79.986L20.4962 80.7409C20.5507 80.773 20.5869 80.8132 20.6141 80.8614L21.249 82.1143C21.3488 82.3151 21.6662 82.3392 21.8022 82.1545L22.6548 81.006C22.691 80.9578 22.7364 80.9256 22.7908 80.9016L24.2056 80.3393C24.4324 80.251 24.4596 79.9699 24.251 79.8494L22.954 79.0945C22.8996 79.0623 22.8634 79.0222 22.8361 78.974L22.2013 77.7211C22.1015 77.5203 21.7841 77.4962 21.6481 77.6809L20.7955 78.8294C20.7593 78.8776 20.7139 78.9097 20.6595 78.9338L19.2447 79.496C19.0179 79.5844 18.9907 79.8655 19.1993 79.986Z" fill="#FFC100"/>
<path d="M32.0968 123.308L33.3937 124.063C33.4481 124.095 33.4844 124.135 33.5116 124.183L34.1465 125.436C34.2462 125.637 34.5637 125.661 34.6997 125.476L35.5522 124.328C35.5885 124.28 35.6338 124.248 35.6883 124.224L37.1031 123.661C37.3298 123.573 37.357 123.292 37.1484 123.171L35.8515 122.416C35.7971 122.384 35.7608 122.344 35.7336 122.296L35.0988 121.043C34.999 120.842 34.6816 120.818 34.5455 121.003L33.693 122.151C33.6567 122.2 33.6114 122.232 33.557 122.256L32.1421 122.818C31.9154 122.906 31.8882 123.187 32.0968 123.308Z" fill="#FFC100"/>
<path d="M198.81 39.7963L200.107 40.5512C200.161 40.5834 200.197 40.6235 200.225 40.6717L200.859 41.9246C200.959 42.1254 201.277 42.1495 201.413 41.9648L202.265 40.8163C202.301 40.7681 202.347 40.7359 202.401 40.7119L203.816 40.1496C204.043 40.0613 204.07 39.7802 203.861 39.6597L202.564 38.9048C202.51 38.8726 202.474 38.8325 202.446 38.7843L201.812 37.5314C201.712 37.3306 201.394 37.3065 201.258 37.4912L200.406 38.6397C200.37 38.6879 200.324 38.72 200.27 38.7441L198.855 39.3063C198.628 39.3947 198.601 39.6758 198.81 39.7963Z" fill="#FFC100"/>
</g>
<defs>
<linearGradient id="paint0_linear" x1="104.659" y1="75.3169" x2="109.441" y2="178.509" gradientUnits="userSpaceOnUse">
<stop offset="1.11884e-07" stop-color="white" stop-opacity="0"/>
<stop offset="1" stop-color="#F1F2F2"/>
</linearGradient>
<clipPath id="clip0">
<rect width="226" height="214" fill="white"/>
</clipPath>
</defs>
</svg>
