<svg width="226" height="214" viewBox="0 0 226 214" fill="none" xmlns="http://www.w3.org/2000/svg">
<path d="M76.2514 3.97046H151.443C189.007 3.97046 219.451 32.5684 219.451 67.8357V139.244C219.451 174.52 188.998 203.109 151.443 203.109H76.2514C38.6876 203.109 8.24414 174.511 8.24414 139.244V67.8443C8.23493 32.5684 38.6876 3.97046 76.2514 3.97046Z" fill="#E0E3ED"/>
<path d="M29.2918 172.349C20.3936 164.417 12.0666 154.408 5.91341 144.443C2.4868 138.907 -0.543729 132.739 0.0826412 126.364C0.276079 124.435 1.04983 122.264 2.975 121.58C4.77121 120.949 6.76085 121.9 8.19782 123.103C10.7309 125.213 12.3798 128.094 13.8444 130.957C20.0252 143.059 25.6901 159.356 29.2918 172.349Z" fill="#89DCAE"/>
<path d="M8.2715 135.87C11.7534 139.296 14.4984 143.292 16.8657 147.453C19.1224 151.406 21.3424 155.42 23.3228 159.503C24.4466 161.83 25.4691 164.218 26.1507 166.692C26.2612 167.098 26.9337 166.925 26.8231 166.519C25.5888 162.064 23.3597 157.894 21.1397 153.82C18.883 149.685 16.7275 145.49 13.9917 141.614C12.435 139.417 10.7125 137.324 8.76891 135.421C8.45573 135.109 7.95831 135.568 8.2715 135.87Z" fill="white"/>
<path d="M26.906 167.539C19.2329 153.863 14.4338 138.76 12.8587 123.371C12.2139 117.056 12.306 110.101 16.534 105.153C18.0723 103.354 20.2185 101.883 22.6595 101.615C26.5743 101.183 30.1944 103.934 32.1011 107.177C34.7356 111.676 34.9659 117.03 34.9567 122.16C34.929 139.011 33.0315 155.861 29.3009 172.349" fill="#61D093"/>
<path d="M29.2919 172.349C28.6839 157.22 30.084 138.31 35.8688 124.175C36.8728 121.719 38.015 119.236 39.9494 117.342C41.5429 115.776 43.8642 114.651 46.121 115.075C48.1014 115.447 49.6765 116.952 50.5424 118.665C52.5781 122.653 51.2977 127.376 49.7779 131.563C45.0156 144.72 37.9966 161.104 29.2919 172.349Z" fill="#89DCAE"/>
<path d="M28.8864 167.115C26.8876 154.226 24.8979 141.286 24.4189 128.25C24.2808 124.625 24.3176 120.992 24.7597 117.393C24.815 116.978 24.115 116.978 24.0689 117.393C23.2767 123.847 23.7281 130.404 24.2623 136.865C24.8058 143.362 25.6256 149.832 26.556 156.285C27.081 159.962 27.6521 163.629 28.214 167.297C28.2785 167.704 28.9509 167.531 28.8864 167.115Z" fill="white"/>
<path d="M43.7907 125.127C41.0457 130.378 38.2639 135.654 36.2835 141.216C34.4412 146.389 33.1885 151.735 32.1937 157.107C31.6594 159.996 31.2173 162.894 30.8488 165.801C30.7935 166.216 31.4936 166.216 31.5397 165.801C32.9029 155.109 35.1689 144.443 39.793 134.547C41.23 131.476 42.8051 128.466 44.3802 125.456C44.5829 125.084 43.9842 124.755 43.7907 125.127Z" fill="white"/>
<path d="M64.7091 203.507C56.0505 202.374 33.8143 192.314 24.8701 182.158L85.1767 110.94L130.874 145.913L78.3327 204.701C78.3235 204.701 73.3586 204.64 64.7091 203.507Z" fill="#92C1F8"/>
<path d="M61.4754 126.822L107.882 173.551C110.894 176.587 116.025 176.553 119 173.482L224.028 65.0589C227.058 61.9361 226.524 57.0314 222.886 54.5401L165.591 15.3542C163.288 13.7798 160.083 14.1085 158.194 16.1154L61.3649 119.037C59.2647 121.269 59.3108 124.642 61.4754 126.822Z" fill="#2D517E"/>
<path d="M158.204 16.1154C160.092 14.1085 163.298 13.7798 165.601 15.3542L219.054 51.9191C221.228 54.566 221.191 58.4154 218.667 61.0278L113.64 169.451C111.586 171.57 108.509 172.236 105.81 171.458L61.4852 126.822C59.3205 124.642 59.2745 121.269 61.3747 119.037L158.204 16.1154Z" fill="#3576C4"/>
<path d="M211.85 61.5987L115.5 162.928L67.1865 115.542L155.763 23.0356L211.85 61.5987Z" fill="#92C1F8"/>
<path d="M120.354 60.0158L120.603 59.9033L120.345 60.0244L120.354 60.0158Z" fill="#3576C4"/>
<path d="M172.951 102.515L115.5 162.928L67.1865 115.542L119.608 60.7942C118.383 64.263 111.41 85.1275 112.147 109.617C112.948 136.458 129.658 144.97 134.088 138.353C138.519 131.735 133.084 118.881 141.135 115.101C149.186 111.321 160.663 108.864 165.49 105.274C167.093 104.08 169.902 103.181 172.951 102.515Z" fill="#3576C4"/>
<path d="M107.366 80.9148C107.772 80.9148 108.159 81.0619 108.453 81.3214L151.406 119.296C151.719 119.573 151.894 119.945 151.903 120.343C151.912 120.741 151.756 121.121 151.461 121.407L147.132 125.628C146.828 125.922 146.422 126.087 145.989 126.087C145.584 126.087 145.197 125.94 144.903 125.68L102.097 87.4025C101.784 87.1257 101.609 86.7451 101.609 86.3472C101.6 85.9406 101.766 85.56 102.07 85.2746L106.252 81.3473C106.547 81.0705 106.943 80.9148 107.366 80.9148ZM107.366 80.093C106.74 80.093 106.104 80.3179 105.625 80.7677L101.443 84.695C100.467 85.6119 100.485 87.1084 101.49 87.9994L144.295 126.277C144.774 126.701 145.382 126.917 145.989 126.917C146.634 126.917 147.279 126.684 147.758 126.208L152.087 121.986C153.036 121.061 152.999 119.582 152.004 118.699L109.052 80.7245C108.573 80.3006 107.974 80.093 107.366 80.093Z" fill="white"/>
<path d="M96.0919 92.3851C96.4972 92.3851 96.8841 92.5322 97.1789 92.7917L140.131 130.767C140.444 131.043 140.62 131.415 140.629 131.813C140.638 132.211 140.481 132.592 140.187 132.877L135.857 137.099C135.553 137.393 135.148 137.557 134.715 137.557C134.31 137.557 133.923 137.41 133.628 137.15L90.8231 98.8729C90.5099 98.596 90.3349 98.2154 90.3349 97.8175C90.3256 97.411 90.4914 97.0303 90.7954 96.7449L94.9774 92.8176C95.2721 92.5408 95.6682 92.3851 96.0919 92.3851ZM96.0919 91.5547C95.4656 91.5547 94.83 91.7796 94.351 92.2294L90.169 96.1567C89.1926 97.0736 89.2111 98.5701 90.2151 99.4611L133.02 137.739C133.499 138.163 134.107 138.379 134.715 138.379C135.36 138.379 136.005 138.145 136.484 137.669L140.813 133.448C141.762 132.523 141.725 131.043 140.73 130.161L97.7776 92.1862C97.3078 91.7709 96.6999 91.5547 96.0919 91.5547Z" fill="white"/>
<path d="M86.2909 103.086C86.7515 103.086 87.1936 103.25 87.5253 103.553L129.621 141.986C130.321 142.626 130.34 143.682 129.658 144.339L124.011 149.797C123.671 150.126 123.219 150.299 122.74 150.299C122.261 150.299 121.81 150.117 121.469 149.797L80.4786 110.265C79.8062 109.617 79.8062 108.596 80.4786 107.939L85.0106 103.579C85.3606 103.267 85.8119 103.086 86.2909 103.086ZM86.2909 102.264C85.6001 102.264 84.9092 102.515 84.3934 103.016L79.8614 107.376C78.8574 108.345 78.8574 109.885 79.8614 110.854L120.852 150.386C121.368 150.887 122.059 151.138 122.749 151.138C123.44 151.138 124.131 150.887 124.647 150.386L130.293 144.927C131.316 143.941 131.288 142.367 130.238 141.407L88.1424 102.973C87.6266 102.497 86.9634 102.264 86.2909 102.264Z" fill="white"/>
<path d="M174.951 120.395C181.592 116.805 182.403 107.921 182.403 107.921C182.403 107.921 141.937 106.788 136.503 106.978C131.068 107.169 119.591 110.949 126.435 116.053C133.279 121.156 154.815 122.48 161.263 123.423C167.711 124.365 174.951 120.395 174.951 120.395Z" fill="#E9F3FE"/>
<path d="M166.061 124.988C166.061 124.988 128.221 123.475 121.976 126.883C115.74 130.282 113.925 137.09 122.777 138.604C131.638 140.118 153.377 142.765 159.41 139.357C165.453 135.957 168.474 128.206 166.061 124.988Z" fill="#E9F3FE"/>
<path d="M149.287 142.133C149.287 142.133 122.519 142.514 117.48 147.808C112.442 153.102 111.438 156.882 114.459 157.825C117.48 158.768 141.034 159.529 147.878 153.854C154.722 148.18 149.886 141.752 149.287 142.133Z" fill="#E9F3FE"/>
<path d="M99.6661 90.3351C86.7794 88.0688 80.3407 86.9356 80.3407 86.9356C80.3407 86.9356 94.0287 97.5236 89.5981 115.672C85.1674 133.82 76.7114 142.514 76.7114 142.514C76.7114 142.514 49.3354 162.929 42.086 175.783C39.2305 180.843 36.8817 186.423 35.0762 191.336C22.4751 182.418 13.8717 169.053 11.5781 154.027L30.4153 141C30.4153 141 54.5674 77.1088 62.222 66.1402C69.8766 55.1716 86.7794 58.9605 102.881 64.6264C118.982 70.301 125.826 73.32 124.214 80.8804C122.612 88.4407 112.544 92.6015 99.6661 90.3351Z" fill="#92C1F8"/>
<path d="M163.307 33.6149L199.167 58.7787C200.825 59.9378 203.146 59.7475 204.565 58.3375L206.453 56.4518L164.044 26.686L162.791 27.9403C161.115 29.5925 161.364 32.2482 163.307 33.6149Z" fill="#3576C4"/>
<path d="M172.583 31.8935L200.503 50.9069C200.926 51.1924 201.507 51.1059 201.811 50.708C202.115 50.31 202.022 49.7651 201.599 49.4796L173.679 30.4662C173.255 30.1808 172.675 30.2673 172.371 30.6652C172.067 31.0545 172.159 31.6081 172.583 31.8935Z" fill="#2D517E"/>
<path d="M183.066 107.16C183.066 107.16 193.53 105.646 200.779 99.219C208.029 92.7918 191.918 89.7642 186.686 88.631C181.454 87.4978 161.318 83.337 157.698 86.3646C154.078 89.3922 162.525 99.219 169.369 102.247C176.213 105.274 183.066 107.16 183.066 107.16Z" fill="#E9F3FE"/>
<path d="M160.018 94.0634C169.874 90.0929 185.884 99.046 193.465 103.907C188.021 106.442 183.065 107.16 183.065 107.16C183.065 107.16 176.221 105.266 169.377 102.247C165.941 100.724 162.091 97.4889 159.576 94.2623C159.724 94.1931 159.871 94.1239 160.018 94.0634Z" fill="#92C1F8"/>
<path d="M124.334 113.068C135.59 111.148 164.09 118.094 174.278 120.732C172.343 121.675 166.54 124.192 161.262 123.414C154.824 122.471 133.278 121.148 126.434 116.044C125.025 114.989 124.398 113.994 124.334 113.068Z" fill="#92C1F8"/>
<path d="M163.482 135.966C162.358 137.289 160.995 138.474 159.42 139.365C153.377 142.765 131.638 140.118 122.786 138.613C117.913 137.782 116.274 135.351 116.817 132.756C125.715 130.092 152.309 134.088 163.482 135.966Z" fill="#92C1F8"/>
<path d="M113.087 156.83C122.639 155.602 143.005 150.956 151.24 149.027C150.817 150.584 149.812 152.245 147.878 153.854C141.034 159.529 117.481 158.768 114.459 157.825C113.815 157.617 113.363 157.28 113.087 156.83Z" fill="#92C1F8"/>
<path d="M103.084 74.4532C87.7835 68.2163 70.8715 60.2753 60.8127 86.3646C50.7447 112.454 45.31 141.372 54.1713 148.18C63.0326 154.988 74.7034 157.635 74.7034 157.635C74.7034 157.635 81.0039 186.648 64.9025 203.447L60.3429 202.504C34.017 198.265 14.1481 177.755 10.4912 153.802L30.4153 141C30.4153 141 54.5674 77.1088 62.222 66.1402C69.8674 55.1803 86.7794 58.9604 102.881 64.6264C118.982 70.2924 125.826 73.32 124.214 80.8803C123.846 82.619 123.017 84.1674 121.819 85.5082C118.485 83.2073 111.401 78.4582 105.994 75.9237C105.174 75.4047 104.207 74.9116 103.084 74.4532Z" fill="#E9F3FE"/>
<path d="M88.0138 1.65221C88.0138 1.65221 77.78 12.6381 61.5128 17.2574C45.2456 21.8766 37.2041 40.7776 37.2041 40.7776L55.4794 64.886C55.4794 64.886 53.6648 47.6546 64.1657 45.9245C74.6574 44.1944 87.7098 28.1135 89.9113 21.9631C92.1128 15.8128 87.7375 0 87.7375 0" fill="#61D093"/>
<path d="M53.9688 30.7778C55.0004 29.8436 55.94 29.1343 56.7874 28.6326C58.1875 27.8021 59.4034 27.4561 60.4443 27.5772C61.4852 27.6983 62.3603 28.2865 63.0695 29.3505C63.8525 30.5183 63.9907 31.5996 63.5117 32.6204L67.3897 35.0165L64.7184 36.5908L61.6142 34.6099C61.4944 34.6964 61.301 34.8175 61.0246 34.9732L60.5088 35.276L62.3326 37.9922L59.8087 39.4887L53.9688 30.7778ZM60.0943 33.0442C60.9325 32.5512 61.0338 31.8418 60.4167 30.9162C59.7995 29.9907 59.0718 29.7744 58.2336 30.2675C58.0217 30.3886 57.7915 30.5875 57.5427 30.8384L59.3205 33.494L60.0943 33.0442Z" fill="white"/>
<path d="M63.9258 28.6584C64.239 28.1048 64.6074 27.5944 65.0404 27.1273C65.4825 26.6602 65.9615 26.2796 66.4773 25.9682C67.1866 25.553 67.8867 25.3194 68.5775 25.2675C69.2684 25.2156 69.9224 25.354 70.5211 25.6654C71.1198 25.9855 71.6357 26.4699 72.0778 27.1187L72.4647 27.6982C73.1555 28.7276 73.3858 29.6965 73.1555 30.6047C72.9253 31.513 72.2528 32.2915 71.1475 32.949C71.0093 33.0268 70.7882 33.1479 70.475 33.3123L72.0041 35.596L69.6921 37.2914L63.9258 28.6584ZM70.4842 30.5009C70.5487 30.2674 70.4935 30.0165 70.3184 29.7484L69.2039 28.0875C69.0196 27.8193 68.8078 27.6636 68.5499 27.6204C68.3012 27.5771 68.0156 27.6463 67.7116 27.8193C67.4445 27.975 67.2511 28.1481 67.1313 28.3297L69.1855 31.3919C69.4065 31.3746 69.6552 31.2795 69.9224 31.1238C70.2355 30.9334 70.4198 30.7345 70.4842 30.5009Z" fill="white"/>
<path d="M24.437 62.5244C24.437 62.5244 31.2442 69.635 33.1693 79.9202C35.0945 90.2054 47.5482 96.598 47.5482 96.598L65.6669 87.3249C65.6669 87.3249 53.6001 87.0826 53.2224 80.543C52.8447 74.0034 42.7307 64.7821 38.6501 62.9483C34.5602 61.1231 23.2764 62.559 23.2764 62.559" fill="#61D093"/>
<path d="M41.9389 85.5863C41.377 84.8856 40.9533 84.2541 40.6769 83.7005C40.2164 82.7836 40.069 82.005 40.2348 81.3822C40.4006 80.7594 40.8796 80.2663 41.6625 79.9203C42.5284 79.5397 43.2929 79.5311 43.9562 79.903L45.9182 77.7231L46.8025 79.4792L45.1905 81.2179C45.2365 81.2957 45.3102 81.4255 45.3931 81.6071L45.5681 81.9445L47.5946 81.0449L48.4329 82.7057L41.9389 85.5863ZM43.9838 82.0223C43.7075 81.4774 43.2285 81.3563 42.5376 81.659C41.8468 81.9618 41.6441 82.3943 41.9205 82.9393C41.9941 83.0777 42.1047 83.2334 42.2613 83.4064L44.2417 82.5241L43.9838 82.0223Z" fill="white"/>
<path d="M41.2485 79.3407C40.8892 79.1071 40.5668 78.8389 40.2721 78.5362C39.9865 78.2334 39.7562 77.9133 39.5812 77.5673C39.3509 77.1002 39.2404 76.6591 39.2588 76.2265C39.2772 75.8027 39.4246 75.4134 39.6917 75.0674C39.9589 74.7214 40.3365 74.4446 40.8155 74.2283L41.2485 74.038C42.013 73.7006 42.7039 73.6315 43.3118 73.8477C43.9197 74.064 44.4079 74.5311 44.7764 75.2577C44.8225 75.3442 44.8869 75.4913 44.9791 75.6989L46.6739 74.9463L47.6688 76.486L41.2485 79.3407ZM43.0355 75.4826C42.8789 75.4221 42.7039 75.4394 42.5012 75.5259L41.2669 76.0795C41.0642 76.166 40.9445 76.2871 40.8892 76.4428C40.8432 76.5899 40.8616 76.7715 40.9629 76.9705C41.055 77.1521 41.1563 77.2819 41.2669 77.3597L43.5513 76.3476C43.5513 76.2092 43.5144 76.0535 43.4223 75.8805C43.321 75.6643 43.1921 75.5345 43.0355 75.4826Z" fill="white"/>
<path d="M222.454 155.135C218.972 172.946 211.419 211.941 210.967 214C210.672 213.974 210.387 213.939 210.092 213.905L210.138 213.533C209.558 211.759 207.992 210.393 207.273 208.663L207.283 208.524C207.384 208.533 207.485 208.542 207.587 208.55C210.313 199.147 212.68 188.551 214.744 178.015C215.803 172.582 216.789 167.176 217.682 161.942C218.281 159.053 218.76 156.181 219.128 153.335C219.128 153.335 219.128 153.335 219.128 153.327C220.151 153.915 221.164 154.503 222.177 155.083L222.454 155.135Z" fill="#92C1F8"/>
<path d="M219.146 153.214C219.146 153.206 219.146 153.197 219.156 153.188C219.8 150.169 220.546 146.969 221.191 143.95H221.21C222.186 144.746 223.172 145.55 224.148 146.354L224.157 146.484C224.038 147.047 223.393 150.316 222.444 155.143L222.177 155.1C221.154 154.512 220.141 153.924 219.128 153.344C219.128 153.327 219.137 153.301 219.137 153.283C219.146 153.249 219.146 153.231 219.146 153.214Z" fill="#3783DC"/>
<path d="M210.138 213.541L210.092 213.913C184.374 211.137 155.478 206.448 130.433 200.618L129.604 199.978C128.167 198.836 126.048 196.881 124.786 195.575C151.462 201.353 180.017 206.163 207.292 208.533L207.283 208.671C207.992 210.401 209.558 211.759 210.138 213.541Z" fill="#92C1F8"/>
<path d="M217.682 161.951C216.788 167.176 215.803 172.591 214.743 178.023C212.68 188.559 210.313 199.156 207.586 208.559C207.485 208.55 207.384 208.541 207.282 208.533C180.007 206.163 151.462 201.353 124.776 195.575C124.988 193.602 125.2 191.621 125.403 189.658L125.467 189.459C136.622 192.521 147.97 194.874 159.42 196.855C173.246 199.242 187.22 201.059 201.157 202.867C209.005 190.748 214.734 176.224 217.682 161.951Z" fill="#C9E0FC"/>
<path d="M219.156 153.18C219.156 153.188 219.156 153.197 219.147 153.206H219.128L136.512 139.106L138.05 129.824C150.476 131.467 162.893 133.102 175.319 134.746C190.453 136.744 206.472 140.031 221.201 143.889C221.201 143.906 221.191 143.924 221.191 143.941C220.547 146.969 219.801 150.161 219.156 153.18Z" fill="#3A8FF3"/>
<path d="M219.128 153.327C218.668 156.121 218.189 159.01 217.682 161.942C214.725 176.224 208.996 190.739 201.157 202.858C187.229 201.05 173.256 199.225 159.42 196.846C147.971 194.874 136.613 192.513 125.467 189.45C122.289 188.577 119.13 187.642 115.989 186.656L114.847 186.345C121.221 181.016 128.774 170.221 131.464 162.626C134.163 155.022 135.333 147.029 136.217 139.062L219.128 153.206H219.147C219.147 153.223 219.137 153.249 219.137 153.266C219.137 153.275 219.137 153.283 219.128 153.292C219.137 153.309 219.137 153.318 219.128 153.327Z" fill="white"/>
<path d="M152.014 178.283C150.531 176.112 150.108 173.188 150.734 169.503L151.434 165.385C152.061 161.7 153.433 159.053 155.561 157.436C157.689 155.818 160.507 155.273 164.044 155.809C167.554 156.337 170.041 157.678 171.524 159.84C173.007 161.994 173.431 164.918 172.804 168.603L172.104 172.721C171.478 176.406 170.096 179.061 167.978 180.688C165.85 182.314 163.031 182.867 159.531 182.34C156.003 181.803 153.497 180.454 152.014 178.283ZM164.551 173.343L165.841 165.792C166.329 162.911 165.445 161.302 163.179 160.956C162.055 160.792 161.143 161.025 160.434 161.666C159.724 162.314 159.245 163.344 159.006 164.762L157.716 172.314C157.219 175.221 158.122 176.847 160.406 177.184C162.672 177.53 164.054 176.25 164.551 173.343Z" fill="#3576C4"/>
<path d="M180.266 164.235L176.471 163.664L178.138 158.283L188.51 159.84L184.107 185.679L176.802 184.58L180.266 164.235Z" fill="#3576C4"/>
<path d="M105.589 44.722L108.426 46.4694C108.536 46.5386 108.629 46.6337 108.675 46.7462L110.056 49.6613C110.277 50.1284 110.968 50.1803 111.272 49.7565L113.133 47.0922C113.207 46.9884 113.308 46.9019 113.428 46.8586L116.532 45.5611C117.029 45.3535 117.085 44.7047 116.633 44.4192L113.796 42.6719C113.686 42.6027 113.593 42.5075 113.547 42.3951L112.166 39.4799C111.945 39.0128 111.254 38.9609 110.95 39.3848L109.089 42.0491C109.015 42.1529 108.914 42.2394 108.794 42.2826L105.69 43.5802C105.184 43.7964 105.128 44.4365 105.589 44.722Z" fill="#FFC100"/>
<path d="M192.894 114.807L195.732 116.554C195.842 116.624 195.934 116.719 195.98 116.831L197.362 119.746C197.583 120.213 198.274 120.265 198.578 119.841L200.439 117.177C200.512 117.073 200.614 116.987 200.733 116.944L203.838 115.646C204.335 115.438 204.39 114.79 203.939 114.504L201.102 112.757C200.991 112.688 200.899 112.592 200.853 112.48L199.471 109.565C199.25 109.098 198.559 109.046 198.255 109.47L196.395 112.134C196.321 112.238 196.22 112.324 196.1 112.368L192.996 113.665C192.489 113.873 192.434 114.522 192.894 114.807Z" fill="#FFC100"/>
<path d="M24.1982 93.1207L27.0353 94.868C27.1458 94.9372 27.2379 95.0324 27.284 95.1448L28.6657 98.06C28.8867 98.5271 29.5776 98.579 29.8816 98.1552L31.7422 95.4909C31.8159 95.3871 31.9173 95.3006 32.037 95.2573L35.1412 93.9598C35.6386 93.7522 35.6939 93.1034 35.2426 92.8179L32.4055 91.0706C32.2949 91.0014 32.2028 90.9062 32.1568 90.7937L30.7751 87.8786C30.554 87.4115 29.8631 87.3596 29.5592 87.7834L27.6985 90.4477C27.6248 90.5515 27.5235 90.638 27.4037 90.6813L24.2995 91.9788C23.8021 92.1864 23.7468 92.8352 24.1982 93.1207Z" fill="#FFC100"/>
<path d="M188.538 123.189L189.855 124.002C189.91 124.037 189.947 124.08 189.974 124.132L190.619 125.481C190.721 125.698 191.043 125.724 191.181 125.525L192.047 124.288C192.084 124.236 192.13 124.201 192.185 124.175L193.622 123.57C193.852 123.475 193.88 123.172 193.668 123.042L192.351 122.229C192.296 122.194 192.259 122.151 192.231 122.099L191.586 120.75C191.485 120.533 191.163 120.507 191.025 120.706L190.159 121.943C190.122 121.995 190.076 122.03 190.021 122.056L188.584 122.661C188.344 122.757 188.316 123.059 188.538 123.189Z" fill="#FFC100"/>
<path d="M105.893 190.099L107.265 190.947C107.321 190.981 107.358 191.025 107.385 191.085L108.058 192.495C108.168 192.72 108.5 192.746 108.647 192.539L109.55 191.25C109.587 191.198 109.633 191.163 109.697 191.137L111.199 190.506C111.438 190.402 111.466 190.09 111.245 189.952L109.872 189.104C109.817 189.07 109.78 189.026 109.753 188.966L109.08 187.556C108.97 187.331 108.638 187.305 108.491 187.513L107.588 188.802C107.551 188.853 107.505 188.888 107.44 188.914L105.939 189.546C105.7 189.649 105.672 189.961 105.893 190.099Z" fill="#FFC100"/>
</svg>
