<svg width="226" height="214" viewBox="0 0 226 214" fill="none" xmlns="http://www.w3.org/2000/svg">
<path d="M77.7009 10.3242H143.805C176.829 10.3242 203.593 37.8721 203.593 71.8444V140.631C203.593 174.611 176.821 202.151 143.805 202.151H77.7009C44.6771 202.151 17.9131 174.603 17.9131 140.631V71.8444C17.905 37.8721 44.6771 10.3242 77.7009 10.3242Z" fill="#E0E3ED"/>
<path d="M87.7256 68.0281C76.2587 40.6719 67.1889 23.6149 60.2894 12.9824C35.7605 20.6485 17.9043 44.105 17.9043 71.8528V99.2674C40.3925 116.166 69.3025 142.989 87.7256 179.236C92.4467 188.535 96.2285 196.068 99.241 202.168H127.349C122.766 177.595 111.007 123.54 87.7256 68.0281Z" fill="url(#paint0_linear)"/>
<path d="M143.805 10.3242H121.778C124.362 22.09 128.961 43.2133 137.124 81.0187C150.024 140.764 146.826 184.369 144.493 202.134C150.105 202.068 155.523 201.209 160.665 199.659C163.127 189.985 166.844 173.953 172.407 147.38C181.607 103.442 184.651 55.7707 185.656 27.9145C174.861 17.0404 160.098 10.3242 143.805 10.3242Z" fill="url(#paint1_linear)"/>
<path d="M203.593 140.631V140.331C200.337 126.065 183.226 114.158 179.08 110.958C174.626 107.517 135.998 107.775 135.998 107.775C135.998 107.775 113.348 122.299 109.631 131.081C105.914 139.864 102.205 148.663 101.088 155.921C99.9703 163.179 100.715 166.62 108.141 166.62C115.567 166.62 121.139 167.387 121.139 167.387L123.106 202.159H143.789C176.829 202.159 203.593 174.611 203.593 140.631Z" fill="#3A8FF3"/>
<path d="M136.622 103.817L133.407 100.376C133.407 100.376 131.674 97.0675 144.671 97.5758C157.669 98.0841 176.982 101.526 177.727 104.075C178.472 106.625 171.662 111.591 171.047 111.716C170.431 111.841 162.997 115.024 162.633 115.024C162.268 115.024 136.622 103.817 136.622 103.817Z" fill="#2D517E"/>
<path d="M140.056 93.8511L139.643 95.2426L139.748 105.958L157.102 115.849L160.778 116.991L163.969 115.416L167.443 108.525C167.443 108.525 165.467 104.559 165.467 102.417L140.056 93.8511Z" fill="#E9F3FE"/>
<path d="M157.094 115.849L160.77 116.991L163.961 115.416L164.22 114.899C157.41 114.733 154.13 109.808 151.053 107.058C148.186 104.5 154.203 100.042 155.774 99.1507L140.056 93.8428L139.643 95.2343L139.748 105.95L157.094 115.849Z" fill="#92C1F8"/>
<path d="M163.897 112.208C163.897 110.491 163.411 109.067 166.674 108.283C169.938 107.5 173.201 107.858 175.072 105.858C176.943 103.859 177.639 102.434 178.263 105.075C178.886 107.717 178.676 110.791 178.676 110.791C178.676 110.791 176.732 114.291 171.598 114.791C166.464 115.291 163.961 115.433 163.961 115.433L163.897 112.208Z" fill="#2D517E"/>
<path d="M132.662 103.134C132.791 101.417 132.524 98.9923 137.658 101.417C142.792 103.842 152.793 107.7 154.875 107.85C156.956 108 157.79 109.425 157.652 111.133C157.515 112.841 157.094 115.849 157.094 115.849C157.094 115.849 146.266 112.566 140.29 110.566C134.322 108.567 132.241 108.567 132.662 103.134Z" fill="#2D517E"/>
<path d="M181.534 52.8459C181.534 52.8459 185.696 75.1359 179.032 88.5598C172.367 101.992 167.646 105.417 157.094 104.559C146.542 103.7 137.934 94.5594 129.885 84.8435C121.835 75.1275 121.276 74.2693 122.945 66.2699C124.613 58.2705 139.327 55.4124 139.327 55.4124L181.534 52.8459Z" fill="#E9F3FE"/>
<path d="M181.534 52.8459L139.327 55.4208C139.327 55.4208 133.464 56.5623 128.727 59.4121L132.249 68.9947C132.249 68.9947 132.946 66.9948 134.751 65.1367C136.557 63.2785 150.162 62.5619 164.326 62.7118C174.408 62.8118 180.036 61.037 182.457 60.0037C182.06 55.7124 181.534 52.8459 181.534 52.8459Z" fill="#92C1F8"/>
<path d="M132.241 88.5598C132.241 88.5598 126.823 92.7011 123.074 80.1271C119.325 67.5531 117.656 54.1291 116.822 47.413C115.988 40.6968 118.628 34.6973 124.596 31.8392C130.565 28.9811 140.703 15.1238 149.862 10.2659C159.037 5.41624 169.03 0.416635 174.723 5.41625C180.416 10.4159 175.97 18.4152 175.97 18.4152C175.97 18.4152 193.187 10.8408 198.183 16.9903C203.18 23.1315 203.601 30.131 198.459 34.7056C193.324 39.2803 192.207 40.1385 192.207 40.1385C192.207 40.1385 201.374 39.2803 202.759 44.9965C204.143 50.7127 187.21 59.9953 164.301 60.137C141.392 60.2786 132.233 61.1369 132.233 61.1369V68.9946C132.233 68.9946 129.423 64.495 127.342 66.8531C125.26 69.2113 126.297 78.9605 129.01 79.3855C131.723 79.8104 131.715 79.8104 131.715 79.8104L132.241 88.5598Z" fill="#2D517E"/>
<path d="M177.55 191.418C176.91 181.661 175.234 159.629 172.399 147.388C168.682 131.34 163.969 115.424 163.969 115.424L163.402 115.658C161.758 116.341 159.961 116.499 158.236 116.108L157.094 115.849C157.094 115.849 157.547 117.066 158.284 147.897C158.884 172.77 157.07 193.652 156.341 200.793C164.074 199.093 171.241 195.86 177.55 191.418Z" fill="white"/>
<path d="M1.61202 119.532L1.09375 117.824L4.15481 113.783L6.01736 116.657L1.61202 119.532Z" fill="#3576C4"/>
<path d="M5.58769 114.858L61.1888 105.908C65.0435 105.283 68.5823 108.225 68.8091 112.233L73.1577 189.61C73.3602 193.21 70.8174 196.343 67.3433 196.785L20.4152 202.759C16.9168 203.201 13.6857 200.759 13.0622 197.185L0.105321 122.782C-0.55062 119.016 1.92738 115.441 5.58769 114.858Z" fill="#2D517E"/>
<path d="M71.7329 108.392L76.0815 185.761C76.284 189.36 73.7412 192.493 70.2671 192.935L61.254 194.085L28.8376 198.21L23.339 198.91C19.8407 199.351 16.6096 196.901 15.986 193.335L3.02915 118.932C2.37321 115.174 4.85121 111.608 8.51152 111.016L64.1126 102.067C67.9673 101.442 71.5061 104.384 71.7329 108.392Z" fill="#3A8FF3"/>
<path d="M64.598 179.569C60.881 183.002 56.2489 185.669 51.2605 185.86C49.3656 185.935 47.4707 185.644 45.6081 185.244C37.17 183.411 29.2501 179.078 23.0551 172.903C21.2411 171.095 19.581 169.145 17.9209 167.187C15.5563 164.412 13.1917 161.629 10.8351 158.854C10.4707 158.429 10.1063 158.004 9.75 157.571L15.9774 193.352C16.6009 196.926 19.8321 199.376 23.3304 198.926L28.829 198.226L61.2454 194.102L70.2585 192.952C73.7326 192.51 76.2754 189.369 76.0729 185.777L74.9068 165.112C72.2183 170.503 68.9709 175.528 64.598 179.569Z" fill="#3576C4"/>
<path d="M28.5293 195.976C28.5293 195.876 28.5374 195.776 28.5374 195.668C28.5374 195.768 28.5293 195.876 28.5293 195.976Z" fill="#61D093"/>
<path d="M28.5537 195.435C28.5942 194.835 28.6833 194.177 28.8048 193.477C28.6833 194.168 28.5942 194.826 28.5537 195.435Z" fill="#61D093"/>
<path d="M58.9696 184.836C58.9858 184.927 58.9372 185.019 58.8562 185.052C55.4388 186.519 51.5032 188.069 47.3003 189.452C41.8665 191.243 36.2546 191.493 31.5253 191.168C30.7803 191.118 30.0596 191.052 29.3713 190.977C29.3632 191.018 29.347 191.06 29.3389 191.102C29.347 191.06 29.3632 191.018 29.3713 190.977C29.4603 190.627 29.5575 190.268 29.6628 189.919C29.7195 189.719 29.7762 189.519 29.8409 189.319C29.9381 189.002 30.0353 188.677 30.1325 188.36C30.173 188.244 30.2054 188.127 30.2458 188.01C30.2863 187.894 30.3187 187.777 30.3592 187.66C30.3997 187.544 30.4321 187.427 30.4726 187.31C30.4807 187.285 30.4888 187.252 30.4969 187.227C30.6993 186.619 30.9099 186.019 31.1123 185.436C31.1609 185.302 31.2095 185.177 31.25 185.044C31.3877 184.661 31.5334 184.277 31.6711 183.919C31.8574 183.436 32.0355 182.969 32.1975 182.536C32.2137 182.494 32.238 182.444 32.2542 182.402C32.2947 182.294 32.3351 182.194 32.3756 182.094C32.4971 181.794 32.6105 181.503 32.7238 181.236C32.7805 181.103 32.8291 180.978 32.8777 180.853C33.0316 180.486 33.1611 180.169 33.2664 179.911C33.4608 179.436 33.5822 179.169 33.5822 179.169L35.7525 174.145C35.7849 174.078 35.8497 174.028 35.9226 174.028L55.3741 173.32C55.4631 173.32 55.536 173.378 55.5603 173.461C55.8033 174.353 57.8116 178.828 57.9816 179.194C57.9897 179.211 57.9897 179.228 57.9978 179.244C58.0464 179.519 58.4351 181.994 58.9696 184.836Z" fill="#61D093"/>
<path d="M33.801 182.111L33.2828 183.477C33.2666 183.519 33.2666 183.552 33.2747 183.594C33.3718 184.01 33.9225 186.552 32.6997 188.418V188.427C32.3596 188.96 31.9709 189.902 31.5741 191.027C31.5417 191.11 31.4688 191.16 31.3797 191.16C30.7643 191.118 30.1731 191.06 29.5901 191.002C29.4767 190.993 29.3957 190.868 29.4281 190.752C29.501 190.477 29.582 190.193 29.6629 189.91C29.7196 189.71 29.7763 189.51 29.8411 189.31C29.9383 188.993 30.0354 188.668 30.1326 188.352C30.1731 188.235 30.2055 188.118 30.246 188.002C30.2865 187.885 30.3189 187.768 30.3594 187.652C30.3999 187.535 30.4323 187.419 30.4727 187.302C30.4808 187.277 30.4889 187.244 30.497 187.219C30.6995 186.61 30.91 186.01 31.1125 185.427C31.1611 185.294 31.2097 185.169 31.2502 185.035C31.3959 184.652 31.5336 184.269 31.6713 183.91C31.8575 183.427 32.0357 182.961 32.1976 182.527C32.2138 182.486 32.2381 182.436 32.2543 182.394C32.2948 182.286 32.3353 182.186 32.3758 182.086C32.4973 181.786 32.6106 181.494 32.724 181.227C32.7807 181.094 32.8293 180.969 32.8779 180.844C32.9912 180.569 33.0965 180.319 33.1856 180.111C33.2342 180.002 33.3556 179.961 33.4528 180.019L34.2383 180.502C34.3193 180.552 34.3517 180.652 34.3193 180.744L33.801 182.111Z" fill="#246641"/>
<path d="M34.198 183.852C34.198 183.852 34.0441 186.385 32.708 188.419V188.427C32.0844 188.144 31.3394 187.752 30.5053 187.21C28.8614 186.16 26.8531 184.552 24.6504 182.069C19.7106 176.503 21.646 165.737 21.646 165.737L22.4072 161.104C22.4072 161.104 26.7964 160.729 26.9988 160.712C27.2013 160.696 29.5659 161.329 29.3554 162.471C29.1448 163.612 28.0354 173.428 29.0962 176.486C29.7036 178.228 31.3718 180.011 32.7403 181.219C33.1371 181.569 33.5016 181.869 33.8174 182.102L34.198 183.852Z" fill="#E9F3FE"/>
<path d="M61.6104 151.138L66.291 153.088C66.291 153.088 69.2954 156.571 70.17 157.288C71.0446 157.996 73.5388 160.821 71.4738 162.987C69.4088 165.154 66.8012 165.304 64.6633 164.087C62.6307 162.929 59.4644 161.087 59.4644 161.087C59.4644 161.087 58.6303 158.329 59.0514 155.979C59.4644 153.638 61.6104 151.138 61.6104 151.138Z" fill="#E9F3FE"/>
<path d="M66.2825 153.088L61.6018 151.138C61.6018 151.138 59.4559 153.638 59.0348 155.988C58.6137 158.329 59.4478 161.096 59.4478 161.096C59.4478 161.096 60.3628 161.629 61.5209 162.296C61.3022 161.462 61.367 160.287 62.2821 158.738C63.7802 156.213 65.9586 154.705 67.1004 154.038C66.6307 153.488 66.2825 153.088 66.2825 153.088Z" fill="#539CEA"/>
<path d="M81.515 143.639C79.6363 145.414 76.8992 148.272 76.0165 152.013C75.1338 155.763 73.2065 161.512 71.3925 163.204C69.5785 164.895 67.473 165.062 66.0154 164.687C64.5577 164.304 64.9707 161.412 67.9994 155.829C67.9994 155.829 69.951 152.871 72.2671 149.105C74.575 145.339 75.733 144.13 75.733 144.13C75.733 144.13 75.7411 143.497 75.9112 142.689C76.1703 141.472 76.7939 139.847 78.3163 139.331C78.3973 139.306 78.4702 139.272 78.5512 139.239C80.4785 138.406 82.2115 135.381 83.6286 134.573C83.742 134.506 83.8554 134.456 83.9606 134.423C84.2198 134.34 84.4627 134.356 84.6976 134.481C86.3172 135.389 82.9322 142.297 81.515 143.639Z" fill="#E9F3FE"/>
<path d="M28.6592 170.595C28.7402 167.912 29.0075 165.104 29.1937 163.562C28.0681 162.904 26.9344 162.229 26.8615 162.229C26.7643 162.229 23.6628 163.121 21.9865 163.604L21.6302 165.745C21.6302 165.745 21.371 167.179 21.29 169.262C22.9177 169.603 26.8696 170.412 28.6592 170.595Z" fill="#539CEA"/>
<path d="M49.5438 142.497L48.6611 138.514C48.6611 138.514 61.043 145.355 63.6668 149.222C66.2906 153.088 66.2906 153.088 66.2906 153.088C66.2906 153.088 62.776 155.038 61.1159 158.063C59.4558 161.087 59.4558 161.087 59.4558 161.087C59.4558 161.087 57.5042 158.829 55.755 157.396C54.0139 155.963 49.5438 142.497 49.5438 142.497Z" fill="#92C1F8"/>
<path d="M31.5253 143.097L25.2088 145.38C25.2088 145.38 20.0666 156.563 19.775 160.487C19.5564 163.429 20.1961 167.179 20.1961 167.179H32.1164L31.5253 143.097Z" fill="#92C1F8"/>
<path d="M45.9562 128.723L48.1751 132.556C48.1751 132.556 46.3854 133.956 47.5192 136.239C48.6529 138.522 48.6529 138.522 48.6529 138.522C48.6529 138.522 47.2924 145.255 42.5551 147.113C37.8177 148.972 36.3682 141.239 36.3682 141.239C36.3682 141.239 37.8096 132.156 37.6072 129.731C37.4128 127.315 45.9562 128.723 45.9562 128.723Z" fill="#E9F3FE"/>
<path d="M48.1756 132.556L45.9567 128.723C45.9567 128.723 45.7462 128.69 45.3898 128.64C43.8431 130.431 41.6404 133.498 42.1425 135.923C42.9118 139.597 40.4419 139.456 39.8589 139.206C39.2677 138.956 39.1543 141.547 39.8589 141.964C40.2719 142.205 43.835 142.739 46.8961 143.022C48.1918 140.764 48.6452 138.514 48.6452 138.514C48.6452 138.514 48.6452 138.514 47.5115 136.231C46.3859 133.956 48.1756 132.556 48.1756 132.556Z" fill="#539CEA"/>
<path d="M53.9812 113.716C47.8186 98.0838 33.1126 110.333 33.1126 110.333C33.1126 110.333 33.1449 111.799 33.2421 113.974C33.064 113.891 32.8858 113.849 32.6996 113.866C31.7278 113.949 31.0637 115.491 31.2095 117.299C31.3553 119.116 32.2623 120.515 33.234 120.432C33.3798 120.415 33.5256 120.374 33.6551 120.299C33.8495 122.54 34.1086 124.84 34.4568 126.815C35.5986 133.314 42.9355 133.339 49.997 132.314C57.0422 131.29 53.9812 113.716 53.9812 113.716Z" fill="#E9F3FE"/>
<path d="M46.5395 114.041C49.3415 114.933 52.4835 115.549 54.2894 115.866C54.1355 114.558 53.9897 113.724 53.9897 113.724C47.8271 98.0921 33.1211 110.341 33.1211 110.341C33.1211 110.341 33.1535 111.808 33.2507 113.983C33.2507 113.983 34.433 116.691 35.3804 116.107C36.3198 115.524 42.3205 112.691 46.5395 114.041Z" fill="#539CEA"/>
<path d="M38.4897 112.108C38.4897 112.108 55.2769 115.808 61.7473 110.108C68.2176 104.408 61.6501 98.8922 59.9333 99.0338C58.2084 99.1838 58.2084 99.1838 58.2084 99.1838C58.2084 99.1838 61.2128 93.9259 56.7832 91.2261C52.3536 88.5263 46.8712 94.7342 46.8712 94.7342C46.8712 94.7342 46.2557 87.0931 43.8992 88.2763C41.5508 89.4596 26.7719 101.759 28.6992 107.058C30.6265 112.358 30.3512 119.566 31.6469 121.599C32.9426 123.632 34.1249 123.907 34.1249 123.907L33.8576 119.782C33.8576 119.782 31.9627 120.457 31.6712 117.449C31.3796 114.441 33.9548 115.491 33.9548 115.491L34.1573 113.499C34.1573 113.499 35.4368 114.791 36.4166 113.441C37.3965 112.091 37.85 111.983 38.4897 112.108Z" fill="#2D517E"/>
<path d="M33.9879 177.119C33.9069 177.269 32.5383 178.719 32.5383 178.719L32.3926 180.944C32.3926 180.944 39.1058 183.302 45.4304 182.486C51.755 181.661 57.9581 178.803 57.9581 178.803L57.3264 175.503C57.3264 175.503 51.593 178.044 46.1106 178.561C40.6202 179.078 33.7611 177.153 33.7611 177.153" fill="#539CEA"/>
<path d="M36.0278 137.081C36.0278 137.081 39.6476 139.706 42.5143 139.881C45.381 140.056 48.6526 138.514 48.6526 138.514C48.6526 138.514 54.1593 141.031 55.8842 144.739C57.609 148.447 58.3864 154.046 57.9734 161.004C57.5604 167.962 58.7751 175.411 57.4309 176.369C56.0785 177.328 50.0212 180.569 42.4576 180.386C34.894 180.202 32.5375 178.719 32.5375 178.719C32.5375 178.719 33.1125 173.211 29.9218 166.562C26.7312 159.912 22.6984 147.88 25.8728 144.247C29.0392 140.622 36.0278 137.081 36.0278 137.081Z" fill="#92C1F8"/>
<path d="M47.981 119.374L49.4063 124.849L47.3008 126.173" fill="#92C1F8"/>
<path d="M83.8798 136.173C82.5599 140.839 79.3773 141.089 78.8024 141.506C78.2274 141.922 78.1221 141.089 78.77 139.939C79.2154 139.147 78.8267 139.156 78.5513 139.239C80.4787 138.406 82.2116 135.381 83.6288 134.573C83.7422 134.506 83.8556 134.456 83.9608 134.423C84.0337 134.906 84.0661 135.539 83.8798 136.173Z" fill="#539CEA"/>
<path d="M83.1106 127.482C83.0539 127.407 82.9891 127.357 82.9162 127.307L82.4789 126.907L82.3251 127.115L79.4827 126.865C79.1182 126.832 78.7133 126.973 78.3894 127.248C78.0655 127.523 77.8468 127.906 77.7902 128.29L76.5917 136.439V136.447L76.454 136.422L76.4297 137.014L76.8508 137.447C76.9804 137.606 77.1585 137.722 77.3691 137.781L80.2601 138.614C80.4301 138.664 80.6002 138.672 80.7783 138.656C81.0294 138.622 81.2804 138.531 81.5072 138.364C81.8959 138.089 82.155 137.664 82.2117 137.206L83.3454 128.34C83.3859 127.998 83.2968 127.698 83.1106 127.482Z" fill="#3576C4"/>
<path d="M81.8796 126.657L79.0048 126.423C78.6404 126.39 78.2436 126.532 77.9197 126.815C77.5958 127.09 77.3771 127.465 77.3205 127.848L76.1219 135.947C76.0248 136.572 76.3406 137.122 76.8913 137.281L79.758 138.089C79.9199 138.139 80.0981 138.147 80.2681 138.131C80.5192 138.097 80.7702 137.997 80.997 137.839C81.3857 137.564 81.6367 137.139 81.6934 136.689L82.8352 127.881C82.9081 127.223 82.5113 126.715 81.8796 126.657Z" fill="#2D517E"/>
<path d="M81.6854 127.14L81.24 127.098C81.24 127.148 81.24 127.207 81.24 127.273C81.2319 127.59 81.0375 127.532 80.7703 127.532C80.5111 127.532 79.7256 127.423 79.4017 127.39C79.0697 127.357 79.0049 127.257 79.0211 127.123C79.0292 127.065 79.0454 126.982 79.0616 126.907L78.9563 126.898C78.349 126.848 77.7092 127.39 77.612 128.031L76.4783 135.748C76.4054 136.248 76.6565 136.681 77.0938 136.797L79.8147 137.547C80.4868 137.731 81.2481 137.181 81.3452 136.431L82.4385 128.106C82.5033 127.59 82.1874 127.19 81.6854 127.14Z" stroke="#92C1F8" stroke-width="0.0456" stroke-miterlimit="10"/>
<path d="M37.8096 138.206C36.7488 137.606 36.028 137.081 36.028 137.081C36.028 137.081 29.0394 140.622 25.865 144.247C22.6906 147.88 26.7234 159.912 29.914 166.562C33.1047 173.211 32.5297 178.719 32.5297 178.719C32.5297 178.719 32.6755 178.811 33.0075 178.944C33.5419 178.253 32.9913 168.495 32.3839 160.271C31.7766 152.046 29.5334 145.497 30.6914 144.447C31.6713 143.564 36.3925 139.447 37.8096 138.206Z" fill="#92C1F8"/>
<path d="M61.0183 194.118L29.6546 198.11C29.5169 198.126 29.4116 197.993 29.4521 197.86C30.0028 196.093 30.7478 193.427 31.4766 191.302C31.5009 191.218 31.5819 191.168 31.6629 191.177C36.3598 191.485 41.915 191.218 47.2921 189.452C51.4626 188.077 55.3739 186.544 58.7751 185.086C58.8885 185.036 59.01 185.102 59.0343 185.227C59.4553 187.444 59.9574 189.819 60.4433 191.502C60.6701 192.285 60.9292 193.085 61.1721 193.868C61.2126 193.985 61.1397 194.102 61.0183 194.118Z" fill="#26AC63"/>
<path d="M31.445 191.41C30.7 193.585 29.9469 196.301 29.3962 198.035C29.3719 198.11 29.3152 198.16 29.2423 198.168L28.9994 198.201C28.9184 198.143 28.8698 198.11 28.7889 198.051C28.7808 198.018 28.7727 197.993 28.7646 197.96C28.7484 197.901 28.7322 197.835 28.7241 197.776C28.716 197.735 28.7079 197.693 28.6998 197.651C28.6674 197.493 28.635 197.335 28.6107 197.168C28.6026 197.126 28.5945 197.085 28.5945 197.051C28.5864 196.968 28.5702 196.885 28.5621 196.801C28.554 196.76 28.554 196.718 28.554 196.668C28.554 196.635 28.5459 196.601 28.5459 196.576C28.5459 196.543 28.5378 196.51 28.5378 196.476C28.5378 196.418 28.5297 196.36 28.5297 196.301C28.5216 196.101 28.5297 195.893 28.5378 195.676C28.5459 195.601 28.5459 195.526 28.554 195.443C28.5945 194.843 28.6836 194.185 28.8051 193.485C28.8132 193.443 28.8212 193.41 28.8293 193.368C28.8536 193.252 28.8779 193.135 28.9022 193.01C28.9103 192.968 28.9184 192.918 28.9265 192.868C28.9508 192.727 28.9832 192.585 29.0156 192.443C29.048 192.293 29.0804 192.143 29.1209 191.993C29.1452 191.893 29.1695 191.793 29.1938 191.685C29.2423 191.502 29.2828 191.318 29.3314 191.135C29.4043 191.077 29.461 191.043 29.5339 190.993C30.1007 191.052 30.6838 191.102 31.2831 191.152C31.4045 191.16 31.4855 191.285 31.445 191.41Z" fill="#246641"/>
<path d="M158.236 116.108L157.094 115.849C157.094 115.849 157.547 117.066 158.284 147.897C158.884 172.77 157.07 193.652 156.341 200.793C160.398 199.901 164.301 198.576 168.01 196.885C167.006 191.593 165.346 183.727 162.989 172.612C157.912 148.663 163.402 115.666 163.402 115.666C161.767 116.333 159.961 116.491 158.236 116.108Z" fill="#E0E3ED"/>
<path d="M137.562 176.353V214L119.171 202.942L100.78 214V176.353H137.562Z" fill="#61D093"/>
<path d="M119.105 202.984L119.17 202.942L137.561 214V176.353H119.105V202.984Z" fill="#26AC63"/>
<path d="M149.919 156.913C149.919 174.386 136.152 188.544 119.179 188.544V125.273C136.152 125.282 149.919 139.447 149.919 156.913Z" fill="#686868"/>
<path d="M119.171 125.282V188.552C102.189 188.552 88.4307 174.386 88.4307 156.921C88.4307 150.413 90.3418 144.355 93.6215 139.322C93.8887 138.906 94.1722 138.497 94.4637 138.097C100.059 130.323 109.048 125.282 119.171 125.282Z" fill="#92908E"/>
<path d="M141.351 156.913C141.351 169.52 131.423 179.736 119.171 179.736C106.918 179.736 96.9902 169.52 96.9902 156.913C96.9902 144.305 106.918 134.089 119.171 134.089C131.423 134.089 141.351 144.314 141.351 156.913Z" fill="#B1AEAD"/>
<path d="M123.649 142.047H115.414L112.296 162.312L111.98 164.087L113.6 163.795L111.438 172.961L120.54 158.862L117.171 159.346L117.908 154.571C118.046 154.654 120.572 155.038 121.649 155.104C123.981 155.246 127.455 155.496 128.411 149.063C129.229 143.522 126.233 142.047 123.649 142.047ZM123.957 148.497C123.657 150.48 122.945 151.18 121.827 151.18H118.418L119.228 145.988H122.645C123.609 145.988 124.241 146.547 123.957 148.497Z" fill="#686868"/>
<path d="M144.29 130.307L147.894 132.74C148.032 132.831 148.145 132.973 148.218 133.131L149.975 137.181C150.259 137.831 151.133 137.906 151.514 137.306L153.878 133.598C153.967 133.456 154.105 133.34 154.259 133.265L158.195 131.456C158.826 131.165 158.899 130.265 158.316 129.873L154.712 127.44C154.575 127.348 154.461 127.207 154.389 127.048L152.631 122.999C152.348 122.349 151.473 122.274 151.093 122.874L148.728 126.582C148.639 126.724 148.501 126.84 148.347 126.915L144.412 128.723C143.78 129.015 143.707 129.915 144.29 130.307Z" fill="#B1AEAD"/>
<path d="M83.0293 171.595L84.0659 172.295C84.1063 172.32 84.1387 172.362 84.1549 172.403L84.6651 173.57C84.7461 173.761 84.9971 173.778 85.1105 173.603L85.7907 172.537C85.815 172.495 85.8555 172.462 85.896 172.445L87.0297 171.92C87.216 171.837 87.2322 171.578 87.0621 171.462L86.0256 170.762C85.9851 170.737 85.9527 170.695 85.9365 170.653L85.4263 169.487C85.3453 169.295 85.0943 169.279 84.9809 169.453L84.3007 170.52C84.2764 170.562 84.2359 170.595 84.1954 170.612L83.0617 171.137C82.8835 171.22 82.8593 171.478 83.0293 171.595Z" fill="#B1AEAD"/>
<path d="M78.7938 140.506L79.8304 141.206C79.8709 141.231 79.9033 141.272 79.9195 141.314L80.4296 142.48C80.5106 142.672 80.7616 142.689 80.875 142.514L81.5553 141.447C81.5795 141.406 81.62 141.372 81.6605 141.356L82.7943 140.831C82.9805 140.747 82.9967 140.489 82.8266 140.372L81.7901 139.672C81.7496 139.647 81.7172 139.606 81.701 139.564L81.1908 138.397C81.1099 138.206 80.8588 138.189 80.7454 138.364L80.0652 139.431C80.0409 139.472 80.0004 139.506 79.9599 139.522L78.8262 140.047C78.64 140.131 78.6238 140.389 78.7938 140.506Z" fill="#61D093"/>
<path d="M82.9405 179.811L85.0298 181.219C85.1108 181.278 85.1756 181.353 85.216 181.444L86.2364 183.794C86.3984 184.169 86.9085 184.219 87.1272 183.869L88.4957 181.719C88.5524 181.636 88.6253 181.569 88.7144 181.528L90.998 180.478C91.3625 180.311 91.411 179.786 91.0709 179.561L88.9816 178.153C88.9007 178.094 88.8359 178.019 88.7954 177.928L87.775 175.578C87.6131 175.203 87.1029 175.153 86.8842 175.503L85.5157 177.653C85.459 177.736 85.3861 177.803 85.297 177.844L83.0134 178.894C82.6409 179.061 82.6004 179.578 82.9405 179.811Z" fill="#B1AEAD"/>
<path d="M153.79 144.88L155.248 145.864C155.304 145.905 155.353 145.955 155.377 146.022L156.09 147.663C156.203 147.93 156.559 147.955 156.713 147.713L157.669 146.214C157.709 146.155 157.758 146.105 157.823 146.08L159.418 145.347C159.677 145.23 159.701 144.864 159.467 144.705L158.009 143.722C157.952 143.68 157.904 143.63 157.879 143.564L157.167 141.922C157.053 141.656 156.697 141.631 156.543 141.872L155.588 143.372C155.547 143.43 155.499 143.48 155.434 143.505L153.838 144.239C153.579 144.364 153.555 144.722 153.79 144.88Z" fill="#B1AEAD"/>
<path d="M145.165 181.219L146.623 182.202C146.679 182.244 146.728 182.294 146.752 182.361L147.465 184.002C147.578 184.269 147.935 184.294 148.088 184.052L149.044 182.552C149.084 182.494 149.133 182.444 149.198 182.419L150.793 181.686C151.052 181.569 151.077 181.203 150.842 181.044L149.384 180.061C149.327 180.019 149.279 179.969 149.255 179.903L148.542 178.261C148.429 177.994 148.072 177.969 147.918 178.211L146.963 179.711C146.922 179.769 146.874 179.819 146.809 179.844L145.214 180.578C144.963 180.703 144.93 181.061 145.165 181.219Z" fill="#B1AEAD"/>
<path d="M87.9935 122.74L91.0141 124.782C91.1356 124.865 91.2246 124.974 91.2813 125.107L92.7552 128.498C92.99 129.048 93.7269 129.107 94.0428 128.607L96.0268 125.498C96.1078 125.374 96.213 125.282 96.3426 125.224L99.6385 123.707C100.173 123.465 100.23 122.707 99.7438 122.382L96.7232 120.341C96.6017 120.257 96.5127 120.149 96.456 120.016L94.9821 116.624C94.7473 116.074 94.0104 116.016 93.6945 116.516L91.7105 119.624C91.6295 119.749 91.5243 119.841 91.3947 119.899L88.0988 121.415C87.5643 121.657 87.5077 122.407 87.9935 122.74Z" fill="#B1AEAD"/>
<path d="M60.3866 118.458C60.3866 118.458 72.4932 98.8007 88.0981 91.0513C103.703 83.3019 117.696 79.4272 119.17 79.4272C120.652 79.4272 122.806 83.9936 122.126 86.0684C121.446 88.1432 126.297 91.0513 125.357 93.4012C124.418 95.751 126.701 99.2174 126.839 101.151C126.977 103.084 108.813 103.642 94.5523 112.5C80.2916 121.357 71.5457 129.248 70.8736 130.082C70.2015 130.915 66.7031 129.94 66.5654 128.282C66.4278 126.624 61.1883 125.374 61.3179 123.99C61.4556 122.607 59.0343 120.116 59.836 118.866" fill="#61D093"/>
<path d="M72.4211 124.124C71.5789 124.182 70.7691 123.857 69.9835 123.149L65.4648 119.041L67.0925 117.149L71.8866 121.507C72.17 121.766 72.4454 121.899 72.7126 121.916C72.9798 121.932 73.2147 121.816 73.4171 121.582C73.6196 121.349 73.6924 121.099 73.652 120.824C73.6034 120.549 73.4414 120.291 73.158 120.032L68.3639 115.674L69.9916 113.783L74.5104 117.891C75.2959 118.608 75.7089 119.399 75.7493 120.257C75.7898 121.124 75.4578 121.966 74.7452 122.799C74.0326 123.616 73.2552 124.065 72.4211 124.124Z" fill="white"/>
<path d="M71.2227 112.825C71.911 111.841 72.5588 111.066 73.1581 110.492C74.1622 109.542 75.0854 109.042 75.9519 108.992C76.8103 108.942 77.612 109.325 78.357 110.158C79.102 110.991 79.4098 111.841 79.2883 112.716C79.1668 113.591 78.6 114.508 77.6039 115.449L77.2314 115.799L79.1344 117.933L77.3286 119.641L71.2227 112.825ZM76.535 113.891C77.1342 113.325 77.1018 112.683 76.454 111.958C75.8061 111.233 75.1826 111.15 74.5833 111.716C74.4295 111.858 74.2756 112.066 74.1137 112.333L75.9762 114.416L76.535 113.891Z" fill="white"/>
<path d="M82.7946 113.225C81.7661 113.033 80.8105 112.333 79.9279 111.116L79.6363 110.708C78.7293 109.45 78.3406 108.3 78.4621 107.25C78.5917 106.2 79.2476 105.225 80.438 104.309C81.2559 103.684 82.0576 103.3 82.8593 103.167L83.5558 104.559C83.2319 104.717 82.9484 104.875 82.7055 105.017C82.4625 105.159 82.1791 105.35 81.8552 105.6C81.1911 106.108 80.8429 106.6 80.8024 107.075C80.7619 107.55 80.9401 108.067 81.3369 108.625L82.3573 110.05C82.746 110.6 83.1428 110.941 83.5558 111.083C83.9607 111.216 84.4223 111.091 84.9405 110.691L85.5317 110.241L84.2684 108.5L83.1833 109.333L82.1548 107.917L85.1106 105.65L88.196 109.916C87.702 110.725 86.9731 111.5 86.0095 112.233C84.8919 113.083 83.823 113.416 82.7946 113.225Z" fill="white"/>
<path d="M84.3174 101.917C85.192 101.109 85.9856 100.492 86.6901 100.059C87.8643 99.3507 88.8766 99.0673 89.7269 99.2007C90.5772 99.334 91.2817 99.8923 91.8324 100.867C92.4397 101.934 92.5288 102.917 92.1077 103.825L95.2335 106.092L92.9985 107.442L90.5043 105.575C90.399 105.65 90.237 105.75 90.0103 105.883L89.573 106.142L90.9902 108.642L88.8685 109.917L84.3174 101.917ZM89.2896 104.117C89.986 103.692 90.0994 103.059 89.6135 102.209C89.1276 101.359 88.5365 101.142 87.84 101.567C87.6619 101.675 87.4675 101.842 87.257 102.067L88.6498 104.509L89.2896 104.117Z" fill="white"/>
<path d="M93.5088 96.4591L96.6751 95.0176L102.546 102.75L100.222 103.809L99.1612 102.342L97.1205 103.275L97.4606 105.067L95.1365 106.125L93.5088 96.4591ZM98.1166 100.742L95.9301 97.6757L96.6751 101.4L98.1166 100.742Z" fill="white"/>
<path d="M102.611 102.484L99.9707 93.8678C100.886 93.3179 101.785 92.8929 102.684 92.6013C103.672 92.2763 104.522 92.1763 105.226 92.2846C105.931 92.393 106.522 92.7263 107.008 93.2762C107.494 93.8262 107.899 94.6261 108.215 95.676L108.36 96.1593C108.676 97.2009 108.798 98.0925 108.708 98.8341C108.619 99.5757 108.32 100.192 107.793 100.692C107.275 101.192 106.514 101.601 105.526 101.926C104.643 102.209 103.663 102.401 102.611 102.484ZM106.125 99.4757C106.311 99.2424 106.392 98.9175 106.376 98.5175C106.36 98.1175 106.247 97.5759 106.044 96.9009L105.898 96.4176C105.696 95.751 105.485 95.2427 105.267 94.9011C105.048 94.5595 104.797 94.3428 104.514 94.2595C104.23 94.1762 103.882 94.2012 103.469 94.3345C103.242 94.4095 103.016 94.5261 102.789 94.6844L104.457 100.142C104.732 100.142 104.983 100.101 105.21 100.034C105.639 99.9007 105.947 99.7174 106.125 99.4757Z" fill="white"/>
<path d="M108.555 90.968L114.572 89.7014L114.944 91.5596L111.332 92.3179L111.705 94.1844L114.855 93.5261L115.219 95.3843L112.069 96.0426L112.442 97.9258L116.053 97.1675L116.418 99.0257L110.401 100.292L108.555 90.968Z" fill="white"/>
<path d="M68.5496 35.0973C77.9685 35.0973 85.604 27.2405 85.604 17.5486C85.604 7.85679 77.9685 0 68.5496 0C59.1307 0 51.4951 7.85679 51.4951 17.5486C51.4951 27.2405 59.1307 35.0973 68.5496 35.0973Z" fill="#FFDF00"/>
<path d="M68.5494 33.239C76.971 33.239 83.798 26.2142 83.798 17.5486C83.798 8.88301 76.971 1.85815 68.5494 1.85815C60.1278 1.85815 53.3008 8.88301 53.3008 17.5486C53.3008 26.2142 60.1278 33.239 68.5494 33.239Z" fill="#FFC100"/>
<path d="M55.6902 77.2023C65.1091 77.2023 72.7447 69.3455 72.7447 59.6536C72.7447 49.9618 65.1091 42.105 55.6902 42.105C46.2713 42.105 38.6357 49.9618 38.6357 59.6536C38.6357 69.3455 46.2713 77.2023 55.6902 77.2023Z" fill="#FFDF00"/>
<path d="M55.69 75.344C64.1116 75.344 70.9386 68.3192 70.9386 59.6536C70.9386 50.988 64.1116 43.9631 55.69 43.9631C47.2684 43.9631 40.4414 50.988 40.4414 59.6536C40.4414 68.3192 47.2684 75.344 55.69 75.344Z" fill="#FFC100"/>
<path d="M91.7832 53.9291C95.8978 53.9291 99.2334 50.4968 99.2334 46.263C99.2334 42.0291 95.8978 38.5969 91.7832 38.5969C87.6686 38.5969 84.333 42.0291 84.333 46.263C84.333 50.4968 87.6686 53.9291 91.7832 53.9291Z" fill="#FFDF00"/>
<path d="M91.7828 53.1209C95.4636 53.1209 98.4475 50.0505 98.4475 46.2631C98.4475 42.4756 95.4636 39.4053 91.7828 39.4053C88.102 39.4053 85.1182 42.4756 85.1182 46.2631C85.1182 50.0505 88.102 53.1209 91.7828 53.1209Z" fill="#FFC100"/>
<path d="M85.3129 36.6387H82.9644V34.2222C82.9644 33.6139 82.4867 33.1223 81.8955 33.1223C81.3043 33.1223 80.8266 33.6139 80.8266 34.2222V36.6387H78.4781C77.887 36.6387 77.4092 37.1303 77.4092 37.7386C77.4092 38.3469 77.887 38.8385 78.4781 38.8385H80.8266V41.255C80.8266 41.8633 81.3043 42.3549 81.8955 42.3549C82.4867 42.3549 82.9644 41.8633 82.9644 41.255V38.8385H85.3129C85.904 38.8385 86.3818 38.3469 86.3818 37.7386C86.3818 37.1303 85.8959 36.6387 85.3129 36.6387Z" fill="#FFC100"/>
<path d="M42.9115 77.4856H40.5631V75.0692C40.5631 74.4609 40.0853 73.9692 39.4941 73.9692C38.903 73.9692 38.4252 74.4609 38.4252 75.0692V77.4856H36.0768C35.4856 77.4856 35.0078 77.9773 35.0078 78.5855C35.0078 79.1938 35.4856 79.6855 36.0768 79.6855H38.4252V82.1019C38.4252 82.7102 38.903 83.2019 39.4941 83.2019C40.0853 83.2019 40.5631 82.7102 40.5631 82.1019V79.6855H42.9115C43.5027 79.6855 43.9804 79.1938 43.9804 78.5855C43.9804 77.9773 43.5027 77.4856 42.9115 77.4856Z" fill="#FFC100"/>
<defs>
<linearGradient id="paint0_linear" x1="-22.6687" y1="-8.95262" x2="166.186" y2="193.943" gradientUnits="userSpaceOnUse">
<stop offset="1.11884e-07" stop-color="white" stop-opacity="0"/>
<stop offset="1" stop-color="#F1F2F2"/>
</linearGradient>
<linearGradient id="paint1_linear" x1="20.6377" y1="-49.2619" x2="209.493" y2="153.634" gradientUnits="userSpaceOnUse">
<stop offset="1.11884e-07" stop-color="white" stop-opacity="0"/>
<stop offset="1" stop-color="#F1F2F2"/>
</linearGradient>
</defs>
</svg>
