<svg width="226" height="214" viewBox="0 0 226 214" fill="none" xmlns="http://www.w3.org/2000/svg">
<g clip-path="url(#clip0)">
<path d="M83.5671 18.2634H154.662C190.179 18.2634 218.963 46.3728 218.963 81.0376V151.226C218.963 185.899 190.17 214 154.662 214H83.5671C48.0502 214 19.2656 185.891 19.2656 151.226V81.0376C19.2656 46.3643 48.0502 18.2634 83.5671 18.2634Z" fill="#E0E3ED"/>
<path d="M161.969 79.643C158.772 74.6776 154.818 70.0862 152.676 64.6021C150.525 59.1179 150.603 52.2479 154.853 48.0987C155.533 47.4355 156.308 46.8573 157.196 46.5002C159.591 45.5479 163.981 46.6277 166.062 48.4558C168.614 50.7089 170.121 54.1695 171.305 56.4736C171.462 56.7372 171.601 57.0093 171.741 57.2899C171.741 57.2899 171.749 57.2984 171.749 57.3069C172.498 58.8118 173.004 60.4443 173.195 62.1108C173.413 63.9559 173.317 65.937 174.293 67.5269C175.268 69.1169 177.959 69.8396 179.004 68.2837C179.414 67.6715 179.457 66.8977 179.466 66.1665C179.588 56.2356 177.08 46.4747 175.703 36.6373C174.319 26.7998 174.162 16.3417 178.647 7.42259C180.346 4.04709 183.072 0.731106 186.869 0.101919C189.813 -0.382725 192.887 0.926664 194.916 3.0693C196.946 5.21194 198.026 8.07728 198.452 10.9681C199.323 16.9539 197.547 23.0332 194.934 28.5174C192.321 34.0015 188.889 39.069 186.146 44.4936C185.371 46.0326 184.639 47.648 184.561 49.3655C184.483 51.083 185.214 52.9281 186.747 53.7613C187.853 54.365 189.212 54.365 190.457 54.1355C194.411 53.3957 197.581 50.6239 201.048 48.6173C205.89 45.8115 211.891 44.4426 217.23 46.1856C222.569 47.9371 226.775 53.3532 225.87 58.7778C224.885 64.6701 218.667 68.4197 212.657 69.559C206.657 70.6984 200.403 70.0352 194.403 71.1745C190.779 71.8632 186.764 73.8188 186.216 77.3814C185.711 80.6633 188.637 83.6902 191.903 84.583C195.169 85.4758 198.653 84.7785 201.962 84.0473C205.272 83.3161 208.721 82.5594 212.022 83.3246C215.41 84.1154 218.336 86.5896 219.625 89.7525C220.914 92.9155 220.522 96.6736 218.606 99.5219C215.418 104.275 208.956 105.771 203.138 105.805C197.311 105.839 191.38 104.836 185.737 106.256C184.474 106.571 183.202 107.038 182.27 107.922C179.501 110.558 181.042 115.022 181.365 118.789C181.774 123.584 179.658 128.516 175.869 131.593C172.08 134.671 166.724 135.811 161.969 134.552L159.966 135.011C156.743 134.799 154.331 131.644 154.139 128.499C153.947 125.353 155.506 122.343 157.457 119.834C159.417 117.326 161.803 115.167 163.693 112.616C166.532 108.79 168.179 104.13 168.361 99.4114C168.518 95.4492 167.682 91.6401 166.393 87.9075C165.148 85.0506 163.667 82.2788 161.969 79.643Z" fill="#26AC63"/>
<path d="M49.4253 85.0591H12.7588V178.536H49.4253V85.0591Z" fill="#2E475E"/>
<path d="M135.44 79.3199H0L18.6294 58.8118H154.069L135.44 79.3199Z" fill="#2E475E"/>
<path d="M0.000717163 90.7991L136.085 90.7991L136.085 79.3122L0.000717164 79.3122L0.000717163 90.7991Z" fill="#2E475E"/>
<path d="M56.7417 79.3199H176.539L157.91 58.8118H38.1123L56.7417 79.3199Z" fill="#3B8EF3"/>
<path d="M53.6064 58.8118L72.2358 79.3199H75.7109L57.0815 58.8118H53.6064Z" fill="#204E85"/>
<path d="M71.3564 58.8118L89.9858 79.3199H93.4609L74.8315 58.8118H71.3564Z" fill="#204E85"/>
<path d="M89.0967 58.8118L107.726 79.3199H111.201L92.5717 58.8118H89.0967Z" fill="#204E85"/>
<path d="M106.847 58.8118L125.476 79.3199H128.951L110.322 58.8118H106.847Z" fill="#204E85"/>
<path d="M124.588 58.8118L143.217 79.3199H146.692L128.063 58.8118H124.588Z" fill="#204E85"/>
<path d="M142.338 58.8118L160.967 79.3199H164.442L145.813 58.8118H142.338Z" fill="#204E85"/>
<path d="M176.539 79.3198H56.585V90.8067H176.539V79.3198Z" fill="#204E85"/>
<path d="M163.066 90.8069H47.3096V134.671H163.066V90.8069Z" fill="#D1D6DB"/>
<path d="M163.066 134.671H47.3096V178.536H163.066V134.671Z" fill="#A2ADB7"/>
<path d="M115.739 90.8069H112.264V134.671H115.739V90.8069Z" fill="#A2ADB7"/>
<path d="M164.442 79.2773H160.967V90.7983H164.442V79.2773Z" fill="#3B8EF3"/>
<path d="M146.692 79.2773H143.217V90.7983H146.692V79.2773Z" fill="#3B8EF3"/>
<path d="M128.952 79.2773H125.477V90.7983H128.952V79.2773Z" fill="#3B8EF3"/>
<path d="M111.202 79.2773H107.727V90.7983H111.202V79.2773Z" fill="#3B8EF3"/>
<path d="M93.4604 79.2773H89.9854V90.7983H93.4604V79.2773Z" fill="#3B8EF3"/>
<path d="M75.7104 79.2773H72.2354V90.7983H75.7104V79.2773Z" fill="#3B8EF3"/>
<path d="M73.0365 149.5H55.7832V156.599H73.0365V149.5Z" fill="#D1D6DB"/>
<path d="M94.993 168.205H78.0445C77.9574 168.205 77.8965 168.137 77.8965 168.061V161.259C77.8965 161.174 77.9662 161.114 78.0445 161.114H95.0017C95.0888 161.114 95.1498 161.182 95.1498 161.259V168.061C95.1498 168.137 95.0801 168.205 94.993 168.205Z" fill="#D1D6DB"/>
<path d="M136.128 158.989H119.171C119.083 158.989 119.022 158.921 119.022 158.844V152.042C119.022 151.957 119.092 151.897 119.171 151.897H136.128C136.215 151.897 136.276 151.965 136.276 152.042V158.844C136.276 158.921 136.215 158.989 136.128 158.989Z" fill="#D1D6DB"/>
<path d="M121.766 134.671H116.793L140.483 90.8069H145.456L121.766 134.671Z" fill="white"/>
<path d="M171.165 178.536H3.80566V185.542H171.165V178.536Z" fill="#2E475E"/>
<path d="M62.7334 97.4814C62.7334 97.4814 80.5702 100.338 97.0832 100.338C113.596 100.338 153.268 97.4814 161.254 98C169.241 98.5187 177.227 97.2178 177.227 97.2178C177.227 97.2178 179.361 106.579 184.952 112.293C190.544 118.015 194.803 122.691 194.803 122.691C194.803 122.691 159.39 118.789 151.134 122.691C142.877 126.594 76.8426 123.992 74.4475 125.293C72.0525 126.594 62.7334 97.4814 62.7334 97.4814Z" fill="#61D093"/>
<path d="M55.54 90.2031C55.54 90.2031 57.1339 94.2333 59.137 94.6244C61.1315 95.0156 64.3278 98.6546 64.3278 98.6546" stroke="#3B8EF3" stroke-miterlimit="10" stroke-linecap="round"/>
<path d="M175.103 89.6846C175.103 89.6846 176.836 90.8579 176.696 92.2863C176.566 93.7148 176.696 98.1361 176.696 98.1361" stroke="#3B8EF3" stroke-miterlimit="10" stroke-linecap="round"/>
<path d="M195.735 150.792C196.38 151.668 202.833 151.413 205.481 150.911C208.129 150.409 212.562 148.207 213.293 147.544C214.025 146.889 211.995 142.893 210.463 138.497C208.782 133.676 207.902 127.223 208.068 121.135C208.129 118.738 203.748 114.767 202.049 114.01C200.351 113.253 192.643 109.869 190.1 108.832C190.048 107.659 186.939 104.98 178.177 103.501C175.756 103.093 167.29 102.413 166.898 104.581C163.981 104.861 154.374 105.261 151.77 105.848C150.925 106.043 144.959 108.245 143.278 109.155C141.397 110.176 137.791 121.773 136.981 122.81C136.172 123.848 133.315 129.051 129.796 132.444C129.561 132.665 132.305 138.055 136.45 140.215C141.336 142.638 144.149 143.395 144.951 143.038C145.752 142.681 147.799 139.195 147.799 139.195L147.111 141.337C145.943 144.959 145.212 148.7 144.776 152.476C144.602 153.989 144.263 155.46 143.479 157.194C142.564 159.218 141.693 161.42 141.528 162.764C141.171 165.757 138.27 176.946 137.53 181.401C136.598 187.038 133.411 190.805 133.411 191.196C133.411 191.587 140.491 196.043 146.483 197.769C154.13 199.962 158.877 199.214 163.38 199.724C167.882 200.234 168.248 201.68 174.789 202.266C181.33 202.845 188.567 201.663 189.064 201.365C189.56 201.067 187.94 198.066 188.698 191.791C189.011 189.172 189.525 185.916 189.551 183.28C189.595 179.607 189.708 174.234 190.039 171.224C190.988 162.696 195.291 146.056 195.291 146.056C195.291 146.056 195.091 149.908 195.735 150.792Z" fill="#3A8FF3"/>
<path d="M142.947 191.825C140.996 189.64 139.002 188.875 138.671 184.403C138.523 182.379 138.044 181.41 138.201 178.026C137.913 179.344 137.678 180.508 137.53 181.401C136.938 184.989 135.501 187.429 134.412 189.496C136.746 187.132 139.585 190.949 142.947 191.825Z" fill="#3576C4"/>
<path d="M168.387 108.824C169.093 110.133 172.045 113.236 172.907 114.452C174.466 116.654 173.97 114.503 176.278 114.809C178.029 115.048 179.335 116.731 180.807 115.804C182.61 114.665 186.877 112.029 190.579 110.992C192.321 110.507 193.88 110.601 195.099 110.966C193.078 110.091 191.154 109.266 190.108 108.841C190.056 107.667 186.947 104.989 178.185 103.51C175.764 103.101 167.299 102.421 166.907 104.589C166.288 104.649 165.365 104.717 164.276 104.785C166.149 105.482 167.403 107.021 168.387 108.824Z" fill="#3576C4"/>
<path d="M197.608 151.294C195.343 149.321 196.232 144.279 196.955 141.703C197.599 139.416 200.796 134.017 201.771 131.84C202.903 129.323 202.799 126.568 201.954 127.648C199.202 131.168 195.282 146.065 195.282 146.065C195.282 146.065 195.091 149.908 195.735 150.784C195.927 151.047 196.641 151.209 197.608 151.294Z" fill="#3576C4"/>
<path d="M151.134 128.736C151.901 124.562 152.876 116.17 150.081 112.386C149.271 111.289 149.941 114.835 150.638 117.207C151.735 121.118 151.126 128.039 150.255 130.267C149.227 132.886 146.64 138.871 146.301 141.516C147.058 140.436 147.79 139.195 147.79 139.195C147.79 139.195 150.655 131.372 151.134 128.736Z" fill="#3576C4"/>
<path d="M142.747 139.56C143.879 139.331 144.184 138.115 144.332 137.324C144.48 136.533 142.329 138.693 136.52 138.2C133.541 137.953 141.615 139.781 142.747 139.56Z" fill="#3576C4"/>
<path d="M142.974 115.855C142.974 115.855 143.627 122.062 144.167 125.089C144.707 128.124 147.886 135.488 147.398 134.969C146.91 134.45 142.939 127.376 142.512 125.727C142.085 124.077 142.103 115.558 142.974 115.855Z" fill="#3576C4"/>
<path d="M140.482 124.817C140.482 124.817 141.179 129 142.05 130.871C142.93 132.741 144.079 134.884 143.801 136.227C143.722 136.576 140.926 131.44 140.491 130.31C140.064 129.187 139.986 124.868 140.482 124.817Z" fill="#3576C4"/>
<path d="M173.274 127.529C173.274 127.529 169.346 135.598 165.305 144.721C161.263 153.845 149.079 167.695 146.301 173.945C143.522 180.202 162.004 160.409 163.545 155.579C165.94 148.139 173.875 128.209 173.274 127.529Z" fill="#3576C4"/>
<path d="M174.249 145.163C174.249 145.163 171.601 152.39 167.055 161.208C162.508 170.025 153.059 184.113 149.941 190.167C146.823 196.212 160.34 175.364 162.926 171.351C165.522 167.329 174.292 145.707 174.249 145.163Z" fill="#3576C4"/>
<path d="M205.525 127.095C205.525 127.095 204.723 132.435 203.077 134.433C201.431 136.431 201.031 140.368 201.066 141.431C201.109 142.494 201.815 137.928 203.609 135.998C205.394 134.076 206.37 127.614 205.525 127.095Z" fill="#3576C4"/>
<path d="M203.913 139.45C203.957 138.812 200.02 144.041 200.36 146.345C200.691 148.845 203.87 140.079 203.913 139.45Z" fill="#3576C4"/>
<path d="M209.766 145.427C209.766 145.427 206.239 148.326 202.86 148.743C199.489 149.16 197.791 148.012 197.721 147.57C197.652 147.127 200.047 148.462 203.731 147.74C207.423 147.025 211.16 144.424 209.766 145.427Z" fill="#3576C4"/>
<path d="M170.791 111.332C172.524 113.628 174.728 118.602 178.299 117.097C182.888 115.15 190.466 108.985 190.117 108.841C190.065 107.667 186.956 104.989 178.194 103.51C175.773 103.101 167.307 102.421 166.915 104.589C166.628 104.606 169.128 109.138 170.791 111.332Z" fill="#204E85"/>
<path d="M177.907 105.04C185.005 106.239 188.393 108.228 189.456 109.563C189.935 109.138 190.178 108.866 190.109 108.832C190.057 107.659 186.947 104.98 178.186 103.501C175.764 103.093 167.299 102.413 166.907 104.581C166.837 104.589 166.951 104.904 167.194 105.397C169.18 104.13 175.808 104.691 177.907 105.04Z" fill="#3576C4"/>
<path d="M190.109 108.832C190.1 108.535 189.874 108.127 189.412 107.676C189.961 108.373 181.887 113.976 178.299 115.566C174.859 117.097 172.725 111.944 171.062 109.665C169.868 108.025 167.404 103.901 167.9 103.637C167.343 103.867 166.977 104.173 166.907 104.581C166.628 104.606 169.137 109.138 170.792 111.323C172.525 113.619 174.728 118.593 178.299 117.088C182.88 115.15 190.457 108.977 190.109 108.832Z" fill="#3A8FF3"/>
<path d="M188.906 190.082C189.194 187.846 189.525 185.372 189.542 183.289C189.586 179.616 189.699 174.242 190.03 171.232C190.091 170.696 190.161 170.127 190.248 169.523C187.783 167.415 184.726 163.087 183.219 160.476C181.887 158.164 182.723 145.367 182.052 148.318C180.267 154.797 180.885 166.649 182.531 169.914C184.813 174.429 187.234 184.181 188.906 190.082Z" fill="#3576C4"/>
<path d="M152.798 145.24C151.935 146.983 146.727 153.402 144.672 153.156C144.471 154.431 144.14 155.715 143.479 157.186C146.266 155.69 150.019 152.008 152.17 148.65C155.576 143.335 157.152 140.734 160.889 132.155C161.786 130.089 154.531 141.737 152.798 145.24Z" fill="#3576C4"/>
<path d="M79.0114 174.599C79.8301 176.036 81.0058 177.464 82.1816 178.799C82.9567 179.667 83.7406 180.5 84.4286 181.256C85.2909 182.2 86.0137 183.042 86.4405 183.739C86.6931 184.156 86.8411 184.513 86.8411 184.811C86.8411 185.533 86.5102 186.46 86.0486 187.506C85.7525 188.178 85.4041 188.9 85.047 189.665C83.5316 192.922 81.9552 196.859 84.2631 200.234C87.9559 205.642 92.4587 207.155 92.4587 207.155L89.872 190.354C89.872 190.354 90.1159 189.283 90.5252 187.727C90.6384 187.327 90.7604 186.885 90.8823 186.426C91.2307 185.193 91.6574 183.799 92.1364 182.43C92.3977 181.665 92.6764 180.908 92.9725 180.202C93.0771 179.939 93.1729 179.633 93.2512 179.301C93.5996 177.813 93.6345 175.687 93.2774 173.528C93.1293 172.609 92.9029 171.683 92.598 170.798C91.1174 166.462 87.7556 163.095 81.6677 166.148C77.0953 168.443 77.2695 171.538 79.0114 174.599Z" fill="#3576C4"/>
<path d="M114.188 159.856C114.188 159.856 112.664 157.96 112.22 156.99C111.776 156.021 110.452 154.669 110.252 155.851C110.06 157.041 109.694 159.422 109.694 159.422L114.188 159.856Z" fill="#3576C4"/>
<path d="M123.882 209.111C123.882 209.111 122.445 207.708 120.781 207.665C119.118 207.631 119.118 207.631 119.118 207.631C119.118 207.631 123.917 206.297 127.2 201.544C130.484 196.782 131.555 191.995 128.054 191.485C124.553 190.975 119.527 192.318 119.527 192.318C119.527 192.318 127.61 190.405 129.604 181.537C131.598 172.669 131.163 164.915 131.111 163.937C131.058 162.968 131.085 160.366 132.382 159.533C133.68 158.691 135.039 158.096 134.377 156.234C133.715 154.372 130.78 154.533 129.09 156.582C127.401 158.631 126.434 166.556 124.274 169.906C122.114 173.256 118.9 176.665 118.9 176.665C118.9 176.665 120.781 171.547 121.156 169.566C121.522 167.585 123.072 162.355 119.971 161.42C116.871 160.485 112.29 157.56 109.224 158.249C106.158 158.937 101.917 162.321 101.507 162.432C101.098 162.543 97.8147 161.531 96.7783 160.519C95.7419 159.507 94.9667 160.306 95.228 161.42C95.4893 162.534 97.8495 167.908 99.6959 170.79C101.542 173.672 103.458 178.757 100.88 181.24C98.2937 183.731 89.4885 188.067 88.0253 191.91C86.5535 195.745 87.2938 202.759 89.8456 205.531C92.3975 208.303 93.5036 209.281 93.5036 209.281L123.882 209.111Z" fill="#3A8FF3"/>
<path d="M123.882 209.111L120.346 209.128C119.597 208.482 118.7 207.716 118.238 207.376C117.35 206.73 124.884 200.668 127.209 196.459C129.535 192.242 118.569 192.352 118.569 192.352C118.569 192.352 120.782 189.972 125.215 186.409C129.648 182.838 129.204 170.407 129.421 163.486C129.552 159.363 132.322 157.62 134.534 156.88C134.699 158.257 133.523 158.801 132.382 159.533C131.085 160.374 131.05 162.968 131.111 163.937C131.163 164.906 131.599 172.669 129.604 181.537C127.723 189.912 120.398 192.08 119.597 192.293C120.224 192.131 124.788 191.018 128.054 191.485C131.564 191.987 130.493 196.782 127.2 201.544C123.917 206.305 119.118 207.631 119.118 207.631C119.118 207.631 119.118 207.631 120.782 207.665C122.445 207.699 123.882 209.111 123.882 209.111Z" fill="#3576C4"/>
<path d="M79.0117 174.599C79.8304 176.036 81.0062 177.465 82.1819 178.799C85.5612 176.58 90.1859 173.893 93.2777 173.528C93.1296 172.61 92.9032 171.683 92.5984 170.799C89.3236 170.714 83.3751 171.122 79.0117 174.599Z" fill="#3A8FF3"/>
<path d="M84.4375 181.248C85.2997 182.192 86.0226 183.034 86.4494 183.731C88.5135 183.025 90.8389 182.362 92.1453 182.421C92.4066 181.656 92.6853 180.899 92.9814 180.194C93.0859 179.93 93.1817 179.624 93.2601 179.292C91.2657 179.335 87.4858 179.641 84.4375 181.248Z" fill="#3A8FF3"/>
<path d="M85.0557 189.666C86.2227 189.223 89.1491 188.118 90.5426 187.727C90.6558 187.327 90.7777 186.885 90.8997 186.426C89.6542 186.418 87.7382 186.588 86.066 187.506C85.7611 188.178 85.4127 188.909 85.0557 189.666Z" fill="#3A8FF3"/>
<path d="M115.06 163.546C115.277 163.614 117.054 164.481 117.054 164.481L114.842 165.493L115.06 163.546Z" fill="#3576C4"/>
<path d="M117.977 162.704C118.073 162.704 118.16 162.653 118.203 162.56L120.198 158.019C120.25 157.9 120.198 157.764 120.067 157.713C119.945 157.662 119.806 157.713 119.754 157.841L117.759 162.381C117.707 162.5 117.759 162.636 117.89 162.687C117.907 162.696 117.942 162.704 117.977 162.704Z" fill="#3576C4"/>
<path d="M119.449 163.495C119.492 163.495 119.527 163.486 119.571 163.461L124.883 160.502C124.997 160.434 125.04 160.289 124.97 160.179C124.901 160.068 124.761 160.026 124.639 160.094L119.327 163.053C119.213 163.121 119.17 163.265 119.24 163.376C119.283 163.452 119.37 163.495 119.449 163.495Z" fill="#3576C4"/>
<path d="M124.44 165.263C124.561 165.263 124.666 165.17 124.683 165.042C124.692 164.915 124.596 164.796 124.466 164.787L119.736 164.43C119.606 164.422 119.484 164.515 119.475 164.643C119.466 164.77 119.562 164.889 119.693 164.898L124.422 165.255C124.422 165.263 124.431 165.263 124.44 165.263Z" fill="#3576C4"/>
<path d="M112.256 165.442C112.386 165.442 112.499 165.34 112.499 165.204C112.499 165.076 112.395 164.966 112.256 164.966L107.343 164.932C107.213 164.932 107.1 165.034 107.1 165.17C107.1 165.297 107.204 165.408 107.343 165.408L112.256 165.442C112.247 165.442 112.256 165.442 112.256 165.442Z" fill="#3576C4"/>
<path d="M107.788 169.549C107.831 169.549 107.866 169.54 107.909 169.515L113.266 166.522C113.379 166.454 113.422 166.309 113.353 166.199C113.283 166.088 113.135 166.046 113.022 166.114L107.666 169.106C107.552 169.174 107.509 169.319 107.578 169.43C107.622 169.506 107.7 169.549 107.788 169.549Z" fill="#3576C4"/>
<path d="M110.661 171.496C110.731 171.496 110.801 171.47 110.844 171.411L113.649 168.095C113.736 167.993 113.718 167.848 113.614 167.763C113.509 167.678 113.361 167.695 113.274 167.797L110.47 171.113C110.383 171.215 110.4 171.36 110.505 171.445C110.557 171.479 110.609 171.496 110.661 171.496Z" fill="#3576C4"/>
<path d="M106.271 192.743L104.573 193.679C104.573 193.679 113.727 195.838 109.154 200.744C104.573 205.65 102.291 207.308 102.291 207.308C102.291 207.308 105.906 206.951 105.836 207.521C105.766 208.099 105.026 209.179 105.026 209.179H103.258C103.258 209.179 103.85 208.456 102.962 208.312C102.074 208.167 101.046 207.155 101.926 206.509C102.805 205.863 109.677 199.443 108.571 198.074C107.465 196.706 103.032 194.971 103.258 193.891C103.467 192.811 106.271 192.743 106.271 192.743Z" fill="#3576C4"/>
</g>
<defs>
<clipPath id="clip0">
<rect width="226" height="214" fill="white"/>
</clipPath>
</defs>
</svg>
