<svg width="50" height="50" viewBox="0 0 50 50" fill="none" xmlns="http://www.w3.org/2000/svg">
<path opacity="0.4" fill-rule="evenodd" clip-rule="evenodd" d="M24.9344 4.18506L6.24902 11.8663V45.8163H24.9344V4.18506Z" fill="#3B8EF3"/>
<path fill-rule="evenodd" clip-rule="evenodd" d="M9.49753 28.666L6.75586 20.7973L24.9996 14.4431L43.2434 20.7931L40.5059 28.6639L24.9996 23.266L9.49753 28.666Z" fill="#18BA62"/>
<path fill-rule="evenodd" clip-rule="evenodd" d="M25 4.15845L6.25 11.8647V45.8168H43.75V11.8647L25 4.15845ZM25 8.66261L39.5833 14.6584V41.6501H10.4167V14.6584L25 8.66261Z" fill="#3B8EF3"/>
<path fill-rule="evenodd" clip-rule="evenodd" d="M45.7027 45.8334H4.16732C3.01523 45.8334 2.08398 44.9001 2.08398 43.7501C2.08398 42.6001 3.01523 41.6667 4.16732 41.6667H45.7027C46.8548 41.6667 47.7861 42.6001 47.7861 43.7501C47.7861 44.9001 46.8548 45.8334 45.7027 45.8334Z" fill="#3B8EF3"/>
</svg>
