<svg width="50" height="50" viewBox="0 0 50 50" fill="none" xmlns="http://www.w3.org/2000/svg">
<g opacity="0.4">
<path fill-rule="evenodd" clip-rule="evenodd" d="M15.4965 2.08325C13.984 2.08325 12.7611 3.2395 12.7611 4.66242V9.21659C12.7611 15.4895 20.0049 16.0458 20.0049 16.0458H23.7007C24.4569 15.1312 25.0007 14.5833 25.0007 14.5833V2.08325H15.4965Z" fill="#3B8EF3"/>
<path fill-rule="evenodd" clip-rule="evenodd" d="M25.0007 14.5833L24.9997 12.552C15.7434 13.0999 8.33301 20.8207 8.33301 30.2082C8.33301 39.3374 8.33301 46.9103 22.9163 47.8249V43.7499C18.7497 41.6666 18.7497 37.4999 18.7497 37.4999V27.0832C18.7497 20.8332 25.0007 14.5833 25.0007 14.5833Z" fill="#3B8EF3"/>
</g>
<path d="M20.0049 16.0458L19.9666 16.5443L19.9857 16.5458H20.0049H22.7931C16.6113 18.0152 11.9997 23.5832 11.9997 30.2083V30.2347C11.9997 32.6078 11.9997 34.6766 12.215 36.4256C12.4317 38.1854 12.8721 39.6809 13.7969 40.8764C14.7277 42.0797 16.1042 42.922 18.0805 43.4631C20.048 44.0017 22.6386 44.2499 26.0413 44.2499C29.444 44.2499 32.0347 44.0017 34.0021 43.4631C35.9785 42.922 37.355 42.0797 38.2858 40.8764C39.2106 39.6809 39.651 38.1854 39.8677 36.4256C40.083 34.6766 40.083 32.6078 40.083 30.2347V30.2083C40.083 23.5832 35.4714 18.0152 29.2896 16.5458H32.0778C33.4673 16.5458 34.6198 16.3048 35.5729 15.901C40.1926 18.9954 43.2497 24.2626 43.2497 30.2083C43.2497 32.6511 43.2489 34.941 42.9772 37.0193C42.7061 39.0931 42.1695 40.9157 41.1245 42.4309C39.0551 45.4316 34.8474 47.4166 26.0413 47.4166C17.2353 47.4166 13.0276 45.4316 10.9582 42.4309C9.91321 40.9157 9.37657 39.0931 9.10548 37.0193C8.83381 34.941 8.83301 32.6511 8.83301 30.2083C8.83301 24.146 12.0112 18.789 16.7834 15.7214C17.5164 16.0319 18.2141 16.2273 18.7648 16.349C19.1192 16.4274 19.4155 16.4758 19.6249 16.5049C19.7297 16.5194 19.8129 16.5291 19.871 16.5352C19.9001 16.5383 19.9229 16.5405 19.9389 16.5419L19.958 16.5436L19.9636 16.544L19.9655 16.5442L19.9661 16.5442C19.9664 16.5443 19.9666 16.5443 20.0049 16.0458ZM17.8852 15.0696C20.3162 13.7504 23.0955 12.9999 26.0413 12.9999C29.1036 12.9999 31.986 13.8109 34.4841 15.2287C33.8032 15.4282 33.0079 15.5458 32.0778 15.5458H20.0265C20.0151 15.5447 19.9982 15.5431 19.9761 15.5407C19.928 15.5357 19.8556 15.5273 19.7622 15.5143C19.5754 15.4884 19.3056 15.4444 18.9807 15.3726C18.6583 15.3013 18.2844 15.2033 17.8852 15.0696ZM16.7108 14.589C16.6769 14.5723 16.6429 14.5553 16.609 14.538C14.9066 13.6704 13.2591 12.1074 13.2591 9.21658V4.66242C13.2591 3.54303 14.232 2.58325 15.4966 2.58325H36.5862C37.8502 2.58325 38.8216 3.54255 38.8216 4.66242V9.21574V9.21586V9.21614V9.21658L38.8216 9.21733L38.8214 9.22762C38.8213 9.2376 38.8209 9.25374 38.8201 9.27561C38.8186 9.31938 38.8154 9.38602 38.8089 9.47225C38.7958 9.64489 38.7693 9.89502 38.716 10.1966C38.609 10.802 38.3958 11.6022 37.9744 12.3969C37.5543 13.1891 36.9303 13.9704 35.9995 14.5554C35.8874 14.6258 35.7705 14.6937 35.6484 14.7586C33.8592 13.6394 31.8641 12.8221 29.7359 12.3791H32.0778L32.098 12.3791C32.5047 12.3792 33.3513 12.3795 34.1156 11.9807C34.5151 11.7723 34.8934 11.4552 35.1758 10.9823C35.4568 10.5117 35.6272 9.9134 35.6546 9.16403L35.6549 9.15489V9.14575V6.24992V5.74992H35.1549H16.9257H16.4257V6.24992V9.21658C16.4257 10.4834 17.1714 11.2621 17.9797 11.7127C18.7711 12.1539 19.6715 12.3153 20.163 12.3754L20.1932 12.3791H20.2237H22.3467C20.3275 12.7994 18.4282 13.5567 16.7108 14.589Z" fill="#3B8EF3" stroke="#3B8EF3"/>
<path fill-rule="evenodd" clip-rule="evenodd" d="M20.8333 14.5833C20.8333 14.5833 10.4167 12.5 6.25 18.75L20.8333 14.5833Z" fill="#3B8EF3"/>
<path d="M20.8333 14.5833C20.8333 14.5833 10.4167 12.5 6.25 18.75" stroke="#3B8EF3" stroke-width="2" stroke-linecap="round" stroke-linejoin="round"/>
<path fill-rule="evenodd" clip-rule="evenodd" d="M20.1173 29.9602H21.8673C22.3569 29.9602 22.7382 29.831 23.0048 29.5748C23.2736 29.3185 23.4069 28.9477 23.4069 28.4623C23.4069 27.9956 23.2736 27.6352 23.0048 27.3852C22.7382 27.1331 22.3569 27.006 21.8673 27.006H20.1173V29.9602ZM23.2486 34.6331L21.9048 31.9664H21.8527H20.1173V34.6331H17.709V24.9998H21.8527C23.0736 24.9998 24.0173 25.2956 24.6882 25.8852C25.3611 26.4768 25.6965 27.3081 25.6965 28.381C25.6965 29.1039 25.5548 29.7289 25.2757 30.256C24.9944 30.7831 24.5861 31.1914 24.0527 31.4852L25.9736 34.6331H23.2486Z" fill="#18BA62"/>
<path fill-rule="evenodd" clip-rule="evenodd" d="M31.6189 31.773C31.9023 31.4293 32.0419 30.9813 32.0419 30.4251C32.0419 29.8668 31.9023 29.4168 31.6189 29.0688C31.3356 28.7209 30.9689 28.548 30.5189 28.548C30.0752 28.548 29.7148 28.7209 29.4356 29.0688C29.1585 29.4168 29.0189 29.8668 29.0189 30.4251C29.0189 30.9813 29.1585 31.4293 29.4356 31.773C29.7148 32.1168 30.0752 32.2876 30.5189 32.2876C30.9689 32.2876 31.3356 32.1168 31.6189 31.773ZM32.8106 27.0793C33.3085 27.4001 33.6919 27.8543 33.9648 28.4418C34.2398 29.0313 34.3752 29.7105 34.3752 30.4793C34.3752 31.2397 34.2439 31.9063 33.9794 32.4834C33.7127 33.0584 33.3356 33.5022 32.846 33.8168C32.3544 34.1334 31.7877 34.2897 31.1419 34.2897C30.7023 34.2897 30.2981 34.2001 29.9377 34.0188C29.5794 33.8376 29.271 33.5772 29.0189 33.2334V36.9043H26.7002V26.6834H29.0189V27.6563C29.5314 26.9522 30.2231 26.6001 31.0919 26.6001C31.7439 26.6001 32.3169 26.7605 32.8106 27.0793Z" fill="#18BA62"/>
</svg>
