<svg width="226" height="214" viewBox="0 0 226 214" fill="none" xmlns="http://www.w3.org/2000/svg">
<path d="M79.0612 18.3918H145.166C178.189 18.3918 204.953 45.0833 204.953 77.9996V144.648C204.953 177.572 178.181 204.255 145.166 204.255H79.0612C46.0374 204.255 19.2734 177.564 19.2734 144.648V77.9996C19.2734 45.0752 46.0374 18.3918 79.0612 18.3918Z" fill="#E0E3ED"/>
<path d="M121.665 180.817C114.863 176.466 108.263 171.654 102.983 165.558C97.7033 159.463 93.8081 151.938 93.136 143.913C92.8283 140.215 93.3708 136.105 96.0918 133.57C99.663 130.244 105.696 131.068 109.551 134.063C113.405 137.058 115.608 141.644 117.681 146.06C106.514 130.664 97.5251 113.693 91.0629 95.8099C87.6293 86.3073 85.0703 75.1576 90.3988 66.5672C92.8364 62.6434 97.2012 59.5835 101.809 59.9872C108.457 60.5604 112.426 67.4392 115.244 73.4621C118.855 81.1886 122.475 88.9231 126.087 96.6496C122.038 88.4145 118.677 79.8403 116.062 71.0562C113.972 64.0482 112.336 56.7254 113.154 49.4511C113.972 42.1848 117.6 34.9024 123.957 31.245C126.573 29.7433 129.755 28.8956 132.63 29.8079C135.521 30.7202 137.627 33.2311 139.044 35.8954C141.578 40.6427 142.413 46.1005 142.785 51.4614C144.04 69.7724 140.242 88.0189 136.46 105.983C138.963 89.6982 149.604 74.8669 164.245 67.2373C165.678 66.4945 167.298 65.7921 168.853 66.2039C170.1 66.5349 171.063 67.528 171.833 68.5614C175.89 74.0918 175.93 81.6003 174.618 88.3257C170.578 109.164 155.936 126.078 145.255 144.446C148.057 135.46 155.013 127.862 163.735 124.261C165.994 123.333 168.755 122.711 170.739 124.14C171.865 124.948 172.505 126.28 172.853 127.62C174.1 132.4 172.205 137.397 170.067 141.862C165.443 151.534 159.548 160.593 152.567 168.739C146.51 175.812 138.938 182.545 129.666 183.554C128.039 183.732 125.941 183.409 125.52 181.835" fill="#B0E7C9"/>
<path d="M126.022 63.8221C129.124 76.9095 130.419 90.3279 130.913 103.746C131.407 117.181 131.14 130.623 131.14 144.066C131.14 151.663 131.237 159.269 131.594 166.866C131.658 168.279 133.877 168.287 133.813 166.866C133.165 153.31 133.391 139.747 133.424 126.183C133.456 112.676 133.31 99.1362 131.893 85.6936C131.1 78.1447 129.909 70.6282 128.152 63.2408C127.828 61.8521 125.69 62.4334 126.022 63.8221Z" fill="#D8F3E4"/>
<path d="M134.298 124.06C143.238 116.414 150.834 107.226 156.657 97.021C158.317 94.1145 159.815 91.1192 161.184 88.0673C161.564 87.2115 160.293 86.4607 159.904 87.3246C155.151 97.9979 148.567 107.815 140.453 116.244C138.169 118.618 135.764 120.879 133.254 123.018C132.533 123.64 133.577 124.673 134.298 124.06Z" fill="#D8F3E4"/>
<path d="M103.898 95.0995C107.445 101.865 111 108.631 114.547 115.397C117.519 121.064 120.329 126.918 124.257 132.004C126.354 134.717 128.776 137.139 131.626 139.069C132.412 139.601 133.157 138.326 132.371 137.793C127.277 134.354 123.755 129.219 120.775 123.955C117.357 117.924 114.264 111.691 111.049 105.555C109.089 101.817 107.13 98.0867 105.17 94.3486C104.733 93.517 103.453 94.2598 103.898 95.0995Z" fill="#D8F3E4"/>
<path d="M158.374 137.801C156.293 141.37 154.349 145.075 151.952 148.45C149.636 151.704 146.834 154.578 144.024 157.396C143.352 158.066 144.397 159.115 145.069 158.437C147.895 155.603 150.689 152.713 153.038 149.459C155.524 146.02 157.516 142.201 159.654 138.544C160.131 137.72 158.852 136.977 158.374 137.801Z" fill="#D8F3E4"/>
<path d="M105.316 143.291C107.583 144.284 109.624 145.77 111.681 147.126C113.875 148.563 116.07 150 118.264 151.445C119.058 151.97 119.803 150.695 119.009 150.17C116.815 148.733 114.62 147.296 112.426 145.85C110.361 144.494 108.328 143.008 106.061 142.015C105.202 141.636 104.449 142.903 105.316 143.291Z" fill="#D8F3E4"/>
<path d="M88.528 74.3584C77.0612 47.8526 67.9914 31.334 61.1 21.0239C36.571 28.4598 18.7148 51.179 18.7148 78.0642V104.626C41.2031 121 70.1131 146.989 88.5361 182.109C93.2573 191.119 97.039 198.418 100.052 204.328H128.16C123.576 180.519 111.81 128.145 88.528 74.3584Z" fill="url(#paint0_linear)"/>
<path d="M144.607 18.4485H122.58C125.163 29.8485 129.763 50.3152 137.926 86.9453C150.826 144.833 147.627 187.083 145.295 204.296C150.907 204.231 156.325 203.4 161.467 201.898C163.929 192.524 167.646 176.991 173.209 151.244C182.408 108.68 185.445 62.4902 186.449 35.5C175.671 24.9558 160.9 18.4485 144.607 18.4485Z" fill="url(#paint1_linear)"/>
<path d="M138.776 163.395H87.8799V204.013H138.776V163.395Z" fill="#FDA22D"/>
<path d="M78.1585 204.012L129.055 204.012L129.055 163.394L78.1585 163.394L78.1585 204.012Z" fill="#FCC13F"/>
<path d="M79.0618 204.255H79.0942V172.582H26.2383C36.2879 191.426 56.1686 204.255 79.0618 204.255Z" fill="#B1AEAD"/>
<path d="M124.005 73.8901C123.972 75.3998 124.879 76.6512 126.037 76.6755C127.195 76.6997 128.159 75.4967 128.2 73.9869C128.232 72.4772 127.325 71.2258 126.167 71.2015C125.009 71.1773 124.037 72.3803 124.005 73.8901Z" fill="#E9F3FE"/>
<path d="M125.026 75.2463L126.686 76.1506L125.722 80.7849L123.276 79.9694C124.183 77.4343 125.026 75.2463 125.026 75.2463Z" fill="#E9F3FE"/>
<path d="M126.921 77.5717L123.932 76.7966C123.932 76.7966 122.604 82.2706 120.985 86.7676C116.79 85.1367 112.328 82.6419 111.227 81.6812C108.352 79.1703 103.793 83.1506 105.59 84.9914C107.834 87.2924 121.082 93.8966 124.005 92.5402C125.503 91.8459 126.783 79.2349 126.921 77.5717Z" fill="#3A8FF3"/>
<path d="M89.0468 161.126C88.9982 161.166 88.5042 161.893 88.4961 162.41C88.4961 162.837 88.7309 163.314 89.1601 163.435C90.3505 163.766 92.9014 163.362 94.4158 162.41C95.7762 161.554 96.4565 160.109 96.829 158.51C96.3836 158.47 96.416 158.47 95.9787 158.429C95.0555 159.422 94.1323 160.423 93.2091 161.416C91.7839 161.457 90.472 161.085 89.0468 161.126Z" fill="#2D517E"/>
<path d="M92.4072 158.356C91.8484 158.566 90.6499 159.398 89.6539 160.399C89.168 160.892 88.4068 161.804 88.7469 162.458C89.1356 163.201 91.2654 162.837 92.7311 162.369C94.4236 161.836 95.3954 160.69 95.7031 160.294C96.3185 159.503 96.6182 158.873 96.7639 158.373L92.4072 158.356Z" fill="#2D517E"/>
<path d="M117.276 161.239L108.668 161.424C108.668 161.424 108.676 161.901 108.895 161.957C111.883 162.797 115.77 163.411 117.098 162.321C117.495 161.982 117.276 161.239 117.276 161.239Z" fill="#2D517E"/>
<path d="M108.895 158.72C108.757 159.051 108.401 160.108 108.668 161.424C108.684 161.489 108.733 161.546 108.798 161.562C109.753 161.796 116.758 163.459 117.252 161.537C117.568 160.302 115.422 160.512 113.082 158.655C113.049 158.631 113.009 158.615 112.968 158.615H109.057C108.984 158.607 108.919 158.647 108.895 158.72Z" fill="#2D517E"/>
<path d="M113.478 158.817L108.846 158.784C108.846 158.784 108.15 118.739 105.753 106.855L118.329 106.378C118.337 118.82 113.478 158.817 113.478 158.817Z" fill="#3EC57B"/>
<path d="M102.894 108.752C97.8815 125.755 91.4922 158.809 91.4922 158.809H97.1932C97.1932 158.809 106.765 129.453 110.555 116.495C110.555 116.495 117.454 112.183 118.329 106.378L102.894 108.752Z" fill="#3EC57B"/>
<path d="M90.8766 55.9504C91.1033 57.444 90.3583 58.8004 89.2084 58.9699C88.0665 59.1395 86.949 58.0738 86.7223 56.5721C86.4955 55.0784 87.2405 53.7221 88.3905 53.5525C89.5404 53.383 90.6498 54.4568 90.8766 55.9504Z" fill="#E9F3FE"/>
<path d="M90.0344 57.4199L88.5039 58.526L90.0506 63.0069L92.3748 61.8846C91.152 59.4868 90.0344 57.4199 90.0344 57.4199Z" fill="#E9F3FE"/>
<path d="M118.475 106.944C118.475 106.944 115.697 87.8091 111.381 83.0617C110.199 81.7619 106.822 80.1714 105.081 79.905C103.761 79.695 100.271 80.0907 99.9385 81.3824C98.5052 87.0824 102.376 110.48 102.376 110.48L118.475 106.944Z" fill="#3A8FF3"/>
<path d="M99.3148 86.4284C95.0147 82.8195 89.6538 64.1936 88.8359 60.3506L91.7026 59.2041C91.7026 59.2041 99.6711 78.0561 102.23 80.5831C104.943 83.2636 101.291 88.0835 99.3148 86.4284Z" fill="#3A8FF3"/>
<path d="M104.012 104.142L101.639 104.336L101.072 102.301C103.558 98.4421 106.611 86.5981 106.425 82.5209L108.093 82.3513C108.393 90.6833 106.749 99.8873 104.012 104.142Z" fill="#3EC57B"/>
<path d="M104.011 104.142L101.72 104.328C104.311 99.9034 107.113 90.3604 106.983 82.4724L108.101 82.3594C108.392 90.6833 106.749 99.8872 104.011 104.142Z" fill="#3EC57B"/>
<path d="M106.611 83.1829L105.874 82.4805L106.611 81.7781H108.085L108.83 82.4805L108.085 83.1829H106.611Z" fill="#3EC57B"/>
<path d="M106.571 83.1264L105.891 82.4805L106.628 81.77H107.34V82.5451V83.1829H106.628L106.571 83.1264Z" fill="#3EC57B"/>
<path d="M103.598 78.8149L103.558 79.0329L103.76 80.68L106.683 81.891L107.291 82.004L107.769 81.7053L108.198 80.5831C108.198 80.5831 107.817 80.0098 107.777 79.6788L103.598 78.8149Z" fill="#E9F3FE"/>
<path d="M106.683 81.8912L107.291 82.0043L107.769 81.7055L107.801 81.6248C106.716 81.7217 106.108 81.0193 105.574 80.656C105.072 80.3169 105.955 79.5176 106.181 79.3561L103.598 78.8232L103.558 79.0412L103.76 80.6883L106.683 81.8912Z" fill="#92C1F8"/>
<path d="M107.696 81.2129C107.664 80.9464 107.567 80.7365 108.069 80.5589C108.571 80.3813 109.097 80.3732 109.356 80.0341C109.616 79.695 109.705 79.4609 109.85 79.8565C109.996 80.2521 110.012 80.7284 110.012 80.7284C110.012 80.7284 109.761 81.3017 108.96 81.4712C108.15 81.6408 107.761 81.7053 107.761 81.7053L107.696 81.2129Z" fill="#2D517E"/>
<path d="M102.586 80.3732C102.578 80.1067 102.489 79.7354 103.348 80.0179C104.206 80.3005 105.858 80.7123 106.19 80.6961C106.522 80.68 106.676 80.8818 106.684 81.1482C106.692 81.4147 106.676 81.8829 106.676 81.8829C106.676 81.8829 104.902 81.5681 103.923 81.3743C102.943 81.1805 102.611 81.2209 102.586 80.3732Z" fill="#2D517E"/>
<path d="M109.462 71.7749C109.462 71.7749 110.514 75.1255 109.688 77.3053C108.862 79.4852 108.174 80.0988 106.49 80.1553C104.797 80.2119 103.275 78.9604 101.833 77.6121C100.384 76.2638 100.286 76.1427 100.408 74.8833C100.529 73.6238 102.821 72.9214 102.821 72.9214L109.462 71.7749Z" fill="#E9F3FE"/>
<path d="M109.461 71.7749L102.813 72.9214C102.813 72.9214 101.906 73.2039 101.201 73.7206L101.93 75.1335C101.93 75.1335 102.003 74.8106 102.262 74.4957C102.513 74.1808 104.659 73.8256 106.91 73.5915C108.514 73.43 109.372 73.0505 109.736 72.8487C109.599 72.2028 109.461 71.7749 109.461 71.7749Z" fill="#92C1F8"/>
<path d="M102.262 78.1449C102.262 78.1449 101.477 78.8796 100.659 77.0146C99.8409 75.1496 99.3469 73.1151 99.0959 72.0978C98.8449 71.0805 99.1607 70.1117 100.06 69.5627C100.958 69.0137 102.327 66.7046 103.696 65.7923C105.064 64.8799 106.562 63.9353 107.55 64.6054C108.538 65.2755 107.971 66.5835 107.971 66.5835C107.971 66.5835 110.571 65.1141 111.47 65.9699C112.369 66.8257 112.555 67.8914 111.826 68.6907C111.089 69.4819 110.927 69.6353 110.927 69.6353C110.927 69.6353 112.369 69.3366 112.684 70.1924C113 71.0482 110.482 72.776 106.846 73.2039C103.218 73.6318 101.776 73.9305 101.776 73.9305L101.914 75.1415C101.914 75.1415 101.388 74.5037 101.104 74.8993C100.813 75.2949 101.153 76.7805 101.59 76.7966C102.027 76.8128 102.027 76.8128 102.027 76.8128L102.262 78.1449Z" fill="#2D517E"/>
<path d="M80.0496 88.7374C80.6245 89.2218 80.4545 90.3441 79.6852 91.2564C78.9158 92.1687 77.8226 92.5159 77.2557 92.0315C76.6808 91.547 76.8508 90.4248 77.6202 89.5125C78.3895 88.6082 79.4827 88.253 80.0496 88.7374Z" fill="#FADBBF"/>
<path d="M75.6523 93.404L77.0371 91.2483L78.6567 92.0637L76.5188 94.2275L75.6523 93.404Z" fill="#FADBBF"/>
<path d="M56.5576 106.693C56.5576 106.693 58.161 101.365 58.9708 101.211C62.7607 100.485 65.1415 101.042 68.0082 99.7903C70.3648 98.7569 75.9686 91.5471 75.9686 91.5471L77.8959 93.3637C77.8959 93.3637 72.5107 101.082 70.2271 102.769C65.9756 105.926 60.4447 107.694 60.4447 107.694L56.5576 106.693Z" fill="#E1DBFF"/>
<path d="M71.9039 171.194L63.8545 171.363C63.8545 171.363 63.8626 171.807 64.065 171.864C66.8589 172.647 70.4949 173.22 71.7339 172.203C72.1145 171.888 71.9039 171.194 71.9039 171.194Z" fill="#2D517E"/>
<path d="M64.0646 168.836C63.9351 169.143 63.603 170.136 63.8541 171.363C63.8703 171.428 63.9108 171.476 63.9755 171.492C64.8663 171.71 71.4176 173.269 71.8873 171.468C72.1869 170.314 70.1705 170.507 67.9841 168.772C67.9517 168.747 67.9193 168.731 67.8788 168.731H64.2185C64.1537 168.731 64.0889 168.772 64.0646 168.836Z" fill="#2D517E"/>
<path d="M46.4835 171.67L38.7094 169.587C38.7094 169.587 38.596 170.015 38.7742 170.128C41.236 171.662 44.5643 173.228 46.0381 172.59C46.4916 172.397 46.4835 171.67 46.4835 171.67Z" fill="#2D517E"/>
<path d="M39.6243 167.221C39.4138 167.48 38.8145 168.336 38.7092 169.587C38.7011 169.652 38.7335 169.716 38.7902 169.748C39.5838 170.209 45.4387 173.527 46.3862 171.928C46.9935 170.903 45.0095 170.532 43.398 168.247C43.3737 168.214 43.3413 168.19 43.3089 168.182L39.7944 167.165C39.7296 167.149 39.6648 167.173 39.6243 167.221Z" fill="#2D517E"/>
<path d="M58.8329 123.979C58.8329 123.979 54.6543 140.231 53.1481 146.771C51.9739 151.882 43.7706 168.731 43.7706 168.731L39.3652 167.544L46.9612 146.149C46.9612 146.149 48.4188 135.185 48.6051 124.165L58.8329 123.979Z" fill="#3EC57B"/>
<path d="M62.6878 123.559C62.6878 123.559 69.1905 136.372 69.7655 144.898C70.1704 150.864 68.2754 168.989 68.2754 168.989L64.0563 168.812C64.0563 168.812 64.194 151.728 63.7567 146.27C63.5381 143.606 56.9301 131.415 56.9301 131.415C48.3057 131.382 48.3057 123.704 48.3057 123.704L62.6878 123.559Z" fill="#3EC57B"/>
<path d="M48.3137 125.311C54.7111 127.378 63.2869 125.941 63.6352 124.891C64.1048 123.438 64.364 116.761 63.6352 110.577C63.206 106.984 62.137 103.52 59.8048 101.567C59.7481 101.518 59.6914 101.478 59.6347 101.437C59.4971 101.34 59.3432 101.244 59.1812 101.163C59.1165 101.131 59.0517 101.098 58.9788 101.074C58.088 100.678 56.8976 100.493 55.7072 100.469C55.5452 100.469 55.3914 100.469 55.2294 100.469C54.1848 100.485 53.1644 100.63 52.387 100.864C52.3546 100.872 52.3303 100.88 52.2979 100.888C52.2979 100.888 52.2898 100.888 52.2817 100.888C52.2088 100.913 52.136 100.945 52.0631 100.969C50.3544 101.704 48.9129 104.392 48.6295 105.297C48.2489 106.516 48.0707 108.607 47.9979 110.932C47.844 116.454 47.3824 125.004 48.3137 125.311Z" fill="#3A8FF3"/>
<path d="M59.7889 99.2574L59.7808 100.557C59.4002 100.63 59.0196 100.686 58.639 100.743C58.5337 100.743 58.4284 100.751 58.3231 100.751C58.0559 100.759 57.7806 100.783 57.5052 100.808C54.9139 101.034 52.0229 101.728 50.1441 102.374L50.1279 101.365C50.2008 99.6207 55.1325 99.435 58.2503 99.2897C58.3393 99.2897 58.4284 99.2816 58.5175 99.2816C58.9386 99.2574 59.3678 99.2493 59.7889 99.2574Z" fill="#3EC57B"/>
<path d="M50.6705 125.537C50.6462 126.28 49.6502 126.853 48.4598 126.805C47.2612 126.764 46.3219 126.118 46.3462 125.376C46.3705 124.633 47.3665 124.06 48.5569 124.108C49.7554 124.157 50.7029 124.794 50.6705 125.537Z" fill="#E9F3FE"/>
<path d="M45.7307 122.938L47.8686 124.27L46.7105 126.11L45.1152 124.108L45.7307 122.938Z" fill="#E9F3FE"/>
<path d="M52.0716 100.969C52.8895 100.961 52.2822 108.066 51.4886 108.3C47.1399 109.6 45.8199 111.998 45.7389 114.961C45.6256 119.006 47.1804 123.842 47.1804 123.842C47.1804 123.842 46.735 124.875 46.16 126.11C46.16 126.11 42.0381 121.266 41.9167 114.46C41.8033 108.34 47.6096 101.017 52.0716 100.969Z" fill="#3A8FF3"/>
<path d="M53.9179 103.109L53.2539 102.568L53.8694 101.873L54.5172 101.825L54.5739 102.519L54.6144 103.101L53.9746 103.157L53.9179 103.109Z" fill="#26AC63"/>
<path d="M77.3771 89.3026C75.304 92.2333 72.7369 94.6877 69.7406 96.6173C66.7281 98.555 63.327 99.8952 59.7719 100.557C59.3913 100.63 59.0107 100.686 58.6301 100.743C58.2495 100.799 57.8689 100.848 57.4883 100.88C57.4883 100.856 57.4964 100.832 57.4964 100.808C57.5288 100.533 57.545 100.218 57.5693 99.871L57.6017 99.3866C57.8932 99.3543 58.1928 99.3139 58.5086 99.2655C61.3915 98.8376 65.1652 97.8041 68.9389 95.374C71.7732 93.5493 74.2026 91.2241 76.1704 88.4468L77.3771 89.3026Z" fill="#3EC57B"/>
<path d="M80.0256 89.5127C79.6288 91.1436 77.1994 99.4917 68.5507 103.278C65.8783 104.449 63.2789 104.885 60.8818 104.885C57.5292 104.885 54.5897 104.037 52.4599 103.157C51.148 102.616 50.1357 101.373 50.1357 101.373C50.7593 101.05 51.1966 100.848 51.7958 100.743C51.7958 100.743 51.7796 101.381 52.6218 101.752C55.9339 103.222 61.6026 104.707 67.9595 101.93C75.9766 98.426 78.2278 90.6834 78.6003 89.1655L80.0256 89.5127Z" fill="#3EC57B"/>
<path d="M84.9009 78.0239C87.5489 81.7135 86.6905 86.8403 82.9897 89.4804C79.2889 92.1204 74.1467 91.2646 71.4986 87.575C68.8506 83.8853 69.7089 78.7586 73.4097 76.1185C77.1186 73.4784 82.2609 74.3342 84.9009 78.0239Z" fill="#FFC100"/>
<path d="M83.4514 90.1262C79.3943 93.0166 73.7419 92.072 70.8509 88.0351C67.9518 83.9902 68.8993 78.3548 72.9483 75.4725C77.0054 72.5822 82.6578 73.5268 85.5488 77.5636C88.4479 81.6085 87.5086 87.2439 83.4514 90.1262ZM73.8796 76.7643C70.5432 79.138 69.7658 83.7803 72.1466 87.1147C74.5274 90.4411 79.1838 91.2162 82.5283 88.8344C85.8647 86.4527 86.6421 81.8184 84.2613 78.484C81.8723 75.1577 77.216 74.3907 73.8796 76.7643Z" fill="#FFDF00"/>
<path opacity="0.3" d="M78.228 76.2072C76.9647 76.7481 76.8676 77.6443 77.232 78.5728C76.9405 77.83 76.0335 77.063 74.835 77.5313C74.835 77.5313 76.5922 76.9338 75.8715 75.093C76.6003 76.95 78.228 76.2072 78.228 76.2072Z" fill="white"/>
<path opacity="0.3" d="M85.6707 81.7538C83.9134 82.5046 83.7757 83.756 84.2859 85.0559C83.881 84.0144 82.6096 82.9487 80.9414 83.5946C80.9414 83.5946 83.3951 82.763 82.3829 80.1956C83.3951 82.7872 85.6707 81.7538 85.6707 81.7538Z" fill="white"/>
<path opacity="0.3" d="M76.4869 85.7179C75.2398 86.2588 75.1427 87.1469 75.499 88.0673C75.2075 87.3245 74.3086 86.5656 73.1182 87.0339C73.1182 87.0339 74.8592 86.4445 74.1466 84.6199C74.8673 86.4526 76.4869 85.7179 76.4869 85.7179Z" fill="white"/>
<path d="M51.3343 98.6599L51.2695 98.8698L51.2857 100.485L53.9824 101.978L54.5573 102.148L55.0513 101.914L55.5939 100.872C55.5939 100.872 55.2862 100.275 55.2862 99.9517L51.3343 98.6599Z" fill="#E9F3FE"/>
<path d="M53.9824 101.97L54.5573 102.14L55.0513 101.906L55.0918 101.825C54.031 101.801 53.5208 101.058 53.043 100.646C52.5976 100.259 53.5289 99.5884 53.7799 99.4511L51.3343 98.6519L51.2695 98.8618L51.2857 100.476L53.9824 101.97Z" fill="#92C1F8"/>
<path d="M55.0428 101.421C55.0428 101.163 54.9699 100.945 55.4719 100.832C55.9821 100.711 56.4842 100.767 56.7757 100.468C57.0673 100.17 57.1725 99.9517 57.2697 100.347C57.3669 100.743 57.3345 101.211 57.3345 101.211C57.3345 101.211 57.0349 101.736 56.2332 101.817C55.4315 101.897 55.0428 101.914 55.0428 101.914V101.421Z" fill="#2D517E"/>
<path d="M50.1847 100.057C50.209 99.7983 50.1604 99.435 50.9621 99.7983C51.7639 100.162 53.3106 100.743 53.6345 100.767C53.9584 100.791 54.088 101.001 54.0637 101.26C54.0394 101.518 53.9746 101.97 53.9746 101.97C53.9746 101.97 52.2902 101.478 51.3671 101.171C50.4439 100.872 50.12 100.872 50.1847 100.057Z" fill="#2D517E"/>
<path d="M57.7798 92.4836C57.7798 92.4836 58.4276 95.8423 57.3911 97.8607C56.3545 99.8791 55.6257 100.396 53.9818 100.267C52.346 100.137 51.0017 98.7569 49.7546 97.2955C48.5075 95.8342 48.4184 95.705 48.6776 94.5021C48.9367 93.2991 51.2204 92.8712 51.2204 92.8712L57.7798 92.4836Z" fill="#E9F3FE"/>
<path d="M57.7805 92.4836L51.221 92.8712C51.221 92.8712 50.3141 93.0407 49.5771 93.4686L50.1278 94.9138C50.1278 94.9138 50.2331 94.6151 50.5165 94.3325C50.8 94.0499 52.9135 93.945 55.1162 93.9692C56.6791 93.9853 57.5537 93.7189 57.9343 93.5574C57.8614 92.9196 57.7805 92.4836 57.7805 92.4836Z" fill="#92C1F8"/>
<path d="M50.1195 97.8607C50.1195 97.8607 49.2773 98.4824 48.6942 96.5932C48.1112 94.7039 47.852 92.6774 47.7225 91.6682C47.5929 90.659 48.0059 89.7548 48.9291 89.3269C49.8523 88.899 51.4314 86.8079 52.8566 86.0813C54.2819 85.3466 55.8367 84.5957 56.7194 85.3466C57.6021 86.0974 56.9137 87.3004 56.9137 87.3004C56.9137 87.3004 59.5861 86.162 60.3635 87.0824C61.1409 88.0109 61.2057 89.0605 60.404 89.7467C59.6023 90.433 59.4322 90.5621 59.4322 90.5621C59.4322 90.5621 60.8575 90.433 61.068 91.2969C61.2867 92.1607 58.6548 93.5575 55.0917 93.5736C51.5286 93.5898 50.1114 93.727 50.1114 93.727V94.9138C50.1114 94.9138 49.6741 94.2357 49.3502 94.5909C49.0263 94.9461 49.1882 96.4155 49.6093 96.4801C50.0304 96.5447 50.0304 96.5447 50.0304 96.5447L50.1195 97.8607Z" fill="#2D517E"/>
<path d="M88.188 70.8785L73.8707 64.2662C72.3402 63.5557 71.668 61.7311 72.3726 60.2052C73.0852 58.6793 74.9154 58.0092 76.4459 58.7116L90.7632 65.3239C92.2937 66.0344 92.9659 67.859 92.2614 69.3849C91.5487 70.9108 89.7186 71.5809 88.188 70.8785Z" fill="#FFDB17"/>
<path opacity="0.4" d="M92.2126 69.498L92.3098 69.28C92.9901 67.8106 92.3422 66.0586 90.8765 65.3724L89.9695 64.9525L88.4714 64.2986C89.8642 65.6065 88.9086 67.3181 88.6333 67.8429C87.8802 69.2881 86.1877 69.9582 84.7139 69.272L88.2932 70.927C89.767 71.6052 91.5243 70.9593 92.2126 69.498Z" fill="#F7B336"/>
<path opacity="0.67" d="M75.0045 61.5455C75.3932 60.7139 76.8751 59.1072 78.4785 59.6805C78.4785 59.6805 77.9279 59.414 77.2233 59.0669C76.8832 58.8973 76.5512 58.7601 76.3487 58.6632C74.9235 58.0012 73.1176 58.6309 72.4293 60.0922L72.3321 60.3102C71.6519 61.7796 72.2997 63.5316 73.7655 64.2179L76.4378 65.4531C74.964 64.7669 74.2837 63.0795 75.0045 61.5455Z" fill="#F7B336"/>
<path opacity="0.6" d="M77.4904 62.6919C78.0005 61.497 79.2881 60.0519 80.762 60.7381L78.4702 59.6805C77.5309 59.1799 75.7088 60.0115 74.9962 61.5455C74.3159 63.0149 74.9638 64.7669 76.4295 65.4531L78.9156 66.5996C77.458 65.9133 76.8506 64.1775 77.4904 62.6919Z" fill="#FFEE8A"/>
<path d="M89.9043 64.9281C88.1713 64.2257 78.7128 59.8498 77.0527 58.994C78.6723 58.7195 81.2475 57.8799 83.191 55.6031C83.2234 55.5627 83.2558 55.5224 83.2963 55.482C83.3611 55.4093 83.4178 55.3286 83.4826 55.2479C84.754 53.617 85.5557 52.0022 86.0739 50.6701C86.1144 50.5571 86.1549 50.4521 86.1954 50.3472C86.2359 50.2341 86.2764 50.1292 86.3088 50.0242C86.325 49.9838 86.3331 49.9515 86.3493 49.9112C86.3979 49.7658 86.4465 49.6205 86.4869 49.4833C86.5355 49.3379 86.576 49.1926 86.6084 49.0554C86.6408 48.9504 86.6651 48.8455 86.6894 48.7405V48.7324C87.483 49.1119 90.6655 50.5813 91.4672 50.9446C91.4672 50.9446 91.4672 50.9446 91.4672 50.9527C90.5845 52.2041 89.2322 54.4647 88.5681 57.5973C88.39 58.4369 88.3576 59.2605 88.4143 60.0436C88.5196 62.1185 89.2646 63.8463 89.9043 64.9281Z" fill="#FFDB17"/>
<path opacity="0.67" d="M84.4138 55.6758C82.4379 58.2109 78.4699 59.6722 78.4699 59.6722C77.6601 59.3008 77.0527 58.9859 77.0527 58.9859C78.6723 58.7114 81.2475 57.8718 83.191 55.595C83.2234 55.5546 83.2558 55.5143 83.2963 55.4739C83.3611 55.4012 83.4178 55.3205 83.4826 55.2398C84.754 53.6089 85.5557 51.9942 86.0739 50.662C86.1144 50.549 86.1549 50.444 86.1954 50.3391C86.2359 50.226 86.2764 50.1211 86.3088 50.0161C86.325 49.9758 86.3331 49.9435 86.3493 49.9031C86.3979 49.7578 86.4465 49.6124 86.4869 49.4752C86.5355 49.3299 86.576 49.1845 86.6084 49.0473C86.6408 48.9423 86.6651 48.8374 86.6894 48.7324C86.9809 48.8697 87.2967 49.015 87.6207 49.1603C87.2401 50.662 86.3817 53.1487 84.4138 55.6758Z" fill="#F7B336"/>
<path opacity="0.4" d="M89.9045 64.9282L89.1352 64.5892L88.4631 64.2904C88.4631 64.2904 87.0135 60.3263 87.6857 57.1856C88.3497 54.0531 89.7021 51.7924 90.5848 50.541C90.8925 50.6863 91.1921 50.8236 91.4755 50.9528C90.5929 52.2042 89.2405 54.4648 88.5764 57.5974C88.3983 58.437 88.3659 59.2605 88.4226 60.0437C88.5117 62.1267 89.2648 63.8464 89.9045 64.9282Z" fill="#F7B336"/>
<path opacity="0.6" d="M80.4942 60.633C81.8304 59.8903 83.6687 58.7761 85.6446 56.241C87.6124 53.7139 88.4708 51.2192 88.8595 49.7417C88.7461 49.6852 88.6328 49.6367 88.5194 49.5802C88.2279 49.443 87.9282 49.3057 87.6286 49.1685C87.2399 50.6459 86.3896 53.1326 84.4137 55.6677C82.4378 58.2029 78.4697 59.6642 78.4697 59.6642" fill="#FFEE8A"/>
<path d="M98.4723 49.976C97.9703 49.7418 97.4682 49.4915 96.958 49.2251L98.3671 46.6012C103.202 49.1767 107.745 49.7741 111.875 48.3532C116.45 46.7788 120.645 42.5886 123.536 36.7513L113.972 32.335L115.227 29.6304L127.48 35.29L126.888 36.6302C125.447 39.892 123.552 42.8711 121.422 45.2448C118.855 48.1029 115.972 50.0971 112.846 51.1709C108.352 52.7129 103.526 52.3092 98.4723 49.976Z" fill="#F7B336"/>
<path d="M83.2156 42.9276C83.7177 43.1617 84.2359 43.3797 84.7704 43.5896L85.8718 40.8204C80.7781 38.81 77.385 35.734 75.7978 31.6729C74.0405 27.1759 74.5345 21.2741 77.134 15.2996L86.6978 19.7159L87.9529 17.0112L75.7006 11.3516L75.0609 12.6676C73.4979 15.8728 72.4371 19.2395 71.9998 22.3963C71.4734 26.1909 71.8136 29.6787 73.0121 32.7467C74.737 37.1791 78.1624 40.5943 83.2156 42.9276Z" fill="#FFDB17"/>
<path d="M119.575 26.4574L87.3615 11.5696C87.0376 11.4323 84.2761 17.7136 84.0251 18.3434C82.2759 22.6224 80.8507 27.1356 80.3405 31.7456C79.4821 39.4156 81.3609 48.6922 89.4751 51.6795C96.4799 54.263 103.728 50.0244 108.489 45.0671C111.494 41.9426 113.923 38.2934 115.939 34.4665C116.296 33.7721 120.053 26.6754 119.575 26.4574Z" fill="#FFDB17"/>
<path opacity="0.6" d="M92.2778 13.8463L87.3623 11.5776C85.1758 15.453 83.3214 19.5382 82.0095 23.785C80.8596 27.5069 80.1064 31.3904 80.0902 35.298C80.074 38.4548 80.5518 41.6762 81.888 44.5585C82.5925 46.0763 83.5805 47.4892 84.779 48.676C84.2688 45.5838 84.0097 42.1364 84.1959 38.3902C84.7628 27.0306 89.1924 18.5371 92.2778 13.8463Z" fill="#FFEE8A"/>
<path opacity="0.67" d="M89.7184 51.7763H89.7103C89.6294 51.744 89.5403 51.7198 89.4593 51.6875C89.4431 51.6794 89.4269 51.6713 89.4107 51.6713C89.3945 51.6633 89.3864 51.6633 89.3702 51.6552C89.2812 51.6229 89.1921 51.5906 89.103 51.5502C89.0868 51.5422 89.0706 51.5341 89.0544 51.5341C88.9734 51.5018 88.9005 51.4695 88.8196 51.4372C88.8034 51.4291 88.7872 51.421 88.771 51.413C88.6738 51.3726 88.5766 51.3322 88.4875 51.2838C88.4147 51.2515 88.3418 51.2111 88.2608 51.1788C88.2122 51.1546 88.1636 51.1304 88.115 51.1062C88.0583 51.082 88.0098 51.0577 87.9612 51.0254C87.9045 51.0012 87.8559 50.9689 87.7992 50.9447C87.7344 50.9124 87.6696 50.872 87.6049 50.8397C87.5725 50.8236 87.5401 50.8075 87.5077 50.7832C87.3538 50.6944 87.2 50.6056 87.0542 50.5168C86.9975 50.4845 86.9408 50.4522 86.8922 50.4118C86.787 50.3392 86.6817 50.2746 86.5764 50.2019C86.5197 50.1616 86.4711 50.1293 86.4144 50.0889C86.3821 50.0647 86.3578 50.0485 86.3254 50.0243C86.2768 49.992 86.2282 49.9516 86.1796 49.9194C86.1148 49.8709 86.0581 49.8225 85.9933 49.7821C85.9529 49.7498 85.9124 49.7175 85.8719 49.6852C85.8314 49.6529 85.799 49.6287 85.7585 49.5964C77.8305 43.2263 78.1059 27.9913 87.3781 11.5857L89.8075 12.7079C80.9402 28.3385 80.2923 42.9356 87.1352 49.774C87.8964 50.541 88.7629 51.2111 89.7184 51.7763Z" fill="#F7B336"/>
<path opacity="0.4" d="M119.576 26.4573C113.138 43.7753 101.962 53.7785 92.107 52.3575C91.9369 52.3333 91.7587 52.301 91.5887 52.2687C91.532 52.2607 91.4672 52.2445 91.4105 52.2364C91.3538 52.2284 91.2891 52.2122 91.2324 52.1961C91.1595 52.1799 91.0785 52.1638 91.0056 52.1476C90.8518 52.1153 90.6979 52.075 90.5359 52.0265C90.455 52.0023 90.3821 51.9862 90.3011 51.9619C90.2444 51.9458 90.1796 51.9296 90.1229 51.9054C89.9853 51.865 89.8476 51.8166 89.7099 51.7682H89.7018C89.6209 51.7359 89.5318 51.7116 89.4508 51.6794C89.4346 51.6713 89.4184 51.6632 89.4022 51.6632C89.386 51.6551 89.3779 51.6551 89.3617 51.6471C89.3374 51.639 89.305 51.6228 89.2807 51.6148C89.2726 51.6148 89.2646 51.6067 89.2646 51.6067C89.2322 51.5905 89.1917 51.5825 89.1593 51.5663C89.135 51.5583 89.1188 51.5502 89.0945 51.5421C89.0783 51.534 89.0621 51.526 89.0459 51.526C88.9649 51.4937 88.892 51.4614 88.8111 51.4291C88.7949 51.421 88.7787 51.4129 88.7625 51.4049C88.6653 51.3645 88.5681 51.3241 88.479 51.2757C88.4062 51.2434 88.3333 51.203 88.2523 51.1707C88.2037 51.1465 88.1551 51.1223 88.1065 51.0981C88.0498 51.0738 88.0013 51.0496 87.9527 51.0173C87.896 50.9931 87.8474 50.9608 87.7907 50.9366C87.7259 50.9043 87.6611 50.8639 87.5964 50.8316C87.564 50.8155 87.5316 50.7993 87.4992 50.7751C87.3453 50.6863 87.1914 50.5975 87.0457 50.5087C86.989 50.4764 86.9323 50.4441 86.8837 50.4037C86.7785 50.3311 86.6732 50.2665 86.5679 50.1938C86.5112 50.1534 86.4626 50.1211 86.4059 50.0808C86.3735 50.0566 86.3493 50.0404 86.3169 50.0162C86.2683 49.9839 86.2197 49.9435 86.1711 49.9112C86.1063 49.8628 86.0496 49.8143 85.9848 49.774C85.9444 49.7417 85.9039 49.7094 85.8634 49.6771C85.8229 49.6448 85.7905 49.6206 85.75 49.5883C86.2116 49.6771 86.6732 49.7417 87.1348 49.774C88.0255 49.8466 88.9244 49.8305 89.8233 49.7175C98.7312 48.6679 108.109 39.0764 113.794 23.7849" fill="#F7B336"/>
<path d="M146.485 204.223C166.698 203.787 184.441 193.364 194.936 177.685V176.393H146.485V204.223Z" fill="#B1AEAD"/>
<path d="M135.61 204.255H145.166C160.026 204.255 173.606 198.838 184.061 189.9V176.401H135.61V204.255Z" fill="#B1AEAD"/>
<path d="M174.027 104.174C174.027 104.174 174.651 107.509 175.72 109.245C176.789 110.98 179.728 114.089 178.481 117.334C177.234 120.58 175.671 120.709 174.108 120.443C172.545 120.176 171.347 118.884 171.347 118.884L174.027 104.174Z" fill="#2D517E"/>
<path d="M157.443 169.466L157.491 170.136C157.491 170.136 157.046 171.517 156.285 171.783C155.523 172.05 152.09 172.009 151.555 173.648C151.021 175.295 150.843 177.112 156.196 176.716C161.548 176.312 163.241 176.668 162.925 174.496C162.609 172.316 161.54 169.692 161.451 169.563C161.362 169.426 157.443 169.466 157.443 169.466Z" fill="#2D517E"/>
<path d="M173.444 168.667L173.622 169.466C173.622 169.466 174.067 170.354 174.383 171.113C174.699 171.872 174.561 172.534 173.8 173.333C173.039 174.132 171.079 173.648 170.812 174.625C170.545 175.602 170.367 176.934 172.197 176.894C174.027 176.853 176.294 176.845 177.104 176.845C177.906 176.845 181.339 174.044 179.38 171.823C177.42 169.603 175.995 168.271 175.857 168.005C175.719 167.738 173.444 168.667 173.444 168.667Z" fill="#2D517E"/>
<path d="M156.544 86.3801C156.544 86.3801 157.078 87.9787 156.398 89.7872C155.718 91.5957 154.673 93.2508 155.45 95.7455C156.22 98.2322 157.03 100.218 157.03 100.218L163.419 97.8447L162.585 91.0305L158.601 86.5255L156.544 86.3801Z" fill="#2D517E"/>
<path d="M161.807 96.8435C161.807 96.8435 161.872 94.7766 161.831 94.4456C161.783 94.1146 161.742 93.8481 161.742 93.8481L166.026 92.8066L166.763 94.8251L166.536 97.2068L163.572 100.582L161.807 96.8435Z" fill="#E9F3FE"/>
<path d="M159.403 122.178C159.403 122.178 156.018 129.945 156.018 140.312C156.018 150.678 157.508 155.724 157.143 161.231C156.779 166.737 156.431 169.999 158.091 170.532C159.759 171.064 162.31 170.83 162.488 168.634C162.666 166.438 163.022 153.52 163.792 150.557C164.561 147.594 168.011 135.508 168.011 135.508L170.092 123.599L159.403 122.178Z" fill="#3EC57B"/>
<path d="M163.921 122.178C163.921 122.178 162.552 125.731 163.508 132.965C164.455 140.199 166.302 148.192 168.861 157.089C171.42 165.986 172.602 169.716 173.971 169.417C175.339 169.119 176.999 168.828 176.351 166.277C175.704 163.725 173.679 153.294 174.213 147.788C174.748 142.274 175.639 137.002 174.335 131.487C173.031 125.973 170.772 122.3 170.772 122.3L163.921 122.178Z" fill="#3EC57B"/>
<path d="M151.061 124.593L150.672 124.665C150.672 124.665 149.814 123.866 148.13 123.995C146.453 124.132 145.368 124.689 146.631 125.578C147.895 126.466 149.458 127.031 150.049 127.354C150.64 127.677 150.818 129.396 151.523 129.469C152.219 129.542 153.053 129.146 152.924 128.169C152.786 127.192 152.567 125.9 152.567 125.9L151.061 124.593Z" fill="#E9F3FE"/>
<path d="M149.943 124.245C150.105 124.843 150.559 126.135 151.401 126.345C151.984 126.49 152.429 126.7 152.721 126.869C152.632 126.328 152.559 125.909 152.559 125.909L151.061 124.593L150.672 124.665C150.672 124.665 150.421 124.439 149.943 124.245Z" fill="#92C1F8"/>
<path d="M155.896 101.671L154.77 102.915C154.77 102.915 154.163 112.014 153.466 115.243C152.689 118.804 150.681 124.665 150.681 124.665C150.681 124.665 151.515 127.152 153.774 125.497C156.033 123.834 158.042 117.262 158.042 117.262L155.896 101.671Z" fill="#3A8FF3"/>
<path d="M161.184 96.6902C161.184 96.6902 155.896 98.5875 155.005 101.494C154.114 104.401 155.896 113.822 157.029 116.664C158.163 119.506 158.633 123.721 162.026 124.367C165.411 125.021 168.982 124.31 170.108 123.6C171.233 122.889 172.424 120.758 172.667 118.15C172.901 115.542 176.351 103.69 173.436 101.26C170.521 98.8297 168.383 97.7075 167.613 97.7075C166.844 97.7075 163.573 99.7259 163.573 99.7259L161.184 96.6902Z" fill="#3A8FF3"/>
<path d="M163.921 106.483C163.905 106.483 163.897 106.483 163.88 106.483C163.751 106.475 163.637 106.411 163.556 106.314C163.435 106.16 160.633 102.794 159.961 97.1986L160.852 96.803C161.362 101.066 163.241 104.231 163.978 105.321C164.852 104.376 167.322 101.889 167.484 97.5861L168.326 97.8768C168.116 103.674 164.374 106.249 164.221 106.378C164.14 106.443 164.034 106.483 163.921 106.483Z" fill="#3EC57B"/>
<path d="M167.938 110.754C167.582 112.789 165.638 114.145 163.598 113.79C161.557 113.435 160.196 111.497 160.553 109.462C160.909 107.428 162.853 106.071 164.893 106.427C166.934 106.79 168.294 108.72 167.938 110.754Z" fill="#FFDC45"/>
<path d="M163.541 114.153C161.306 113.766 159.807 111.634 160.196 109.406C160.585 107.178 162.723 105.684 164.958 106.071C167.193 106.459 168.691 108.59 168.302 110.819C167.905 113.047 165.768 114.541 163.541 114.153ZM164.828 106.79C162.99 106.467 161.233 107.702 160.909 109.535C160.585 111.368 161.824 113.12 163.662 113.443C165.5 113.766 167.258 112.53 167.582 110.698C167.905 108.857 166.666 107.105 164.828 106.79Z" fill="#FFDF00"/>
<path opacity="0.3" d="M166.399 108.017C165.824 107.783 165.5 108.033 165.314 108.453C165.46 108.122 165.419 107.581 164.885 107.347C164.885 107.347 165.638 107.727 166.01 106.903C165.638 107.727 166.399 108.017 166.399 108.017Z" fill="white"/>
<path opacity="0.3" d="M166.966 112.191C166.156 111.86 165.711 112.215 165.452 112.797C165.662 112.337 165.605 111.578 164.86 111.247C164.86 111.247 165.913 111.771 166.423 110.633C165.905 111.788 166.966 112.191 166.966 112.191Z" fill="white"/>
<path opacity="0.3" d="M162.747 110.488C162.172 110.254 161.856 110.504 161.67 110.916C161.816 110.585 161.775 110.052 161.249 109.818C161.249 109.818 161.994 110.189 162.358 109.382C161.994 110.197 162.747 110.488 162.747 110.488Z" fill="white"/>
<path d="M157.151 86.6383C157.151 86.6383 157.443 90.8609 157.977 92.1688C158.512 93.4767 159.646 94.5263 161.006 94.389C162.367 94.2518 164.974 93.1861 164.974 93.1861L165.063 89.0766L164.861 84.3616L157.151 86.6383Z" fill="#E9F3FE"/>
<path d="M165.103 79.0654C163.459 78.3065 159.572 78.5325 156.495 80.0423C153.418 81.5521 153.24 83.8208 154.357 85.6858C155.475 87.5508 160.285 86.8403 161.621 86.3559C162.957 85.8715 164.561 85.1126 164.561 85.1126C164.561 85.1126 163.314 88.3582 163.888 90.538C164.472 92.7179 165.273 94.7606 165.848 95.2046C166.431 95.6487 166.65 95.7133 166.65 95.7133V96.0927C166.65 96.0927 166.998 95.9635 167.063 96.0846C167.128 96.2057 167.257 96.4964 167.314 97.0696C167.371 97.6429 167.338 97.7074 167.338 97.7074C167.338 97.7074 167.492 97.5783 168.456 97.9416C169.419 98.3049 170.399 99.0154 171.314 99.6451C172.229 100.275 173.404 101.26 173.404 101.26C173.404 101.26 173.015 100.105 172.124 98.0869C171.233 96.0685 170.788 93.493 171.201 91.3293C171.614 89.1655 171.379 87.4216 170.011 84.6927C168.642 81.9638 167.363 82.6743 167.363 82.6743C167.363 82.6743 167.605 80.2199 165.103 79.0654Z" fill="#2D517E"/>
<path d="M158.495 110.803C158.495 110.803 156.568 109.664 156.543 109.907C156.527 110.149 153.741 109.333 153.741 109.333C153.741 109.333 152.899 107.646 151.369 107.864C149.838 108.082 150.931 109.115 150.931 109.115C150.931 109.115 148.065 107.186 147.328 108.542C146.591 109.898 147.627 111.424 150.17 112.022C152.713 112.619 153.061 112.216 153.061 112.216L156.908 113.491L158.495 110.803Z" fill="#E9F3FE"/>
<path d="M158.495 110.803C158.495 110.803 156.568 109.664 156.543 109.907C156.535 109.987 156.228 109.947 155.815 109.866C155.742 110.698 155.466 112.127 154.478 112.111C153.418 112.086 151.199 112.151 149.854 111.949C149.96 111.982 150.057 112.006 150.17 112.03C152.705 112.627 153.061 112.224 153.061 112.224L156.908 113.499L158.495 110.803Z" fill="#92C1F8"/>
<path d="M173.428 101.26C171.274 99.4593 169.541 98.3774 168.472 97.9414C168.31 99.1686 167.816 101.639 166.407 103.811C164.447 106.83 160.163 109.971 158.503 109.971C156.835 109.971 156.543 109.915 156.543 109.915C156.543 109.915 156.843 111.812 156.308 112.644C156.187 112.829 156.09 112.983 156.009 113.112C156.074 113.411 156.146 113.693 156.211 113.968C157.896 114.662 163.086 116.18 167.84 111.101C171.039 107.686 173.241 105.781 174.578 104.764C174.513 103.165 174.189 101.889 173.428 101.26Z" fill="#3576C4"/>
<path d="M161.095 97.4893L161.184 96.69C161.184 96.69 161.151 95.7454 161.184 95.4467C161.216 95.148 161.718 95.7131 162.22 96.5689C162.722 97.4247 163.621 99.5642 163.5 99.8307C163.386 100.097 161.095 97.4893 161.095 97.4893Z" fill="#3A8FF3"/>
<path d="M208.071 30.1068C205.423 44.4779 199.681 75.9409 199.341 77.6041C199.123 77.5798 198.896 77.5556 198.677 77.5314L198.71 77.2327C198.272 75.7956 197.074 74.7056 196.531 73.3008L196.539 73.1878C196.62 73.1959 196.693 73.2039 196.774 73.212C198.847 65.6228 200.645 57.0728 202.216 48.5712C203.026 44.1873 203.763 39.8275 204.451 35.605C204.905 33.2717 205.269 30.9546 205.552 28.6616C205.552 28.6616 205.552 28.6616 205.552 28.6536C206.33 29.1299 207.099 29.5982 207.877 30.0745L208.071 30.1068Z" fill="#92C1F8"/>
<path d="M205.561 28.5565C205.561 28.5484 205.561 28.5404 205.569 28.5323C206.055 26.0941 206.63 23.5186 207.116 21.0803H207.132C207.877 21.7262 208.622 22.3721 209.367 23.018L209.375 23.123C209.278 23.5751 208.792 26.2152 208.072 30.1147L207.869 30.0744C207.092 29.598 206.322 29.1297 205.545 28.6534C205.545 28.6373 205.553 28.6211 205.553 28.605C205.561 28.5888 205.561 28.5727 205.561 28.5565Z" fill="#3783DC"/>
<path d="M198.71 77.2327L198.678 77.5314C179.129 75.295 157.175 71.5085 138.137 66.8096L137.505 66.2929C136.412 65.3725 134.8 63.7901 133.845 62.7405C154.122 67.399 175.817 71.2824 196.548 73.1959L196.54 73.3089C197.082 74.6975 198.273 75.7956 198.71 77.2327Z" fill="#92C1F8"/>
<path d="M204.452 35.605C203.772 39.8194 203.027 44.1873 202.217 48.5713C200.654 57.0728 198.848 65.6228 196.775 73.212C196.694 73.2039 196.621 73.1959 196.54 73.1878C175.809 71.2743 154.114 67.3909 133.837 62.7324C133.999 61.1419 134.153 59.5433 134.315 57.9528L134.363 57.7914C142.842 60.2619 151.466 62.1673 160.172 63.7578C170.683 65.6793 181.308 67.1487 191.892 68.61C197.852 58.8409 202.201 47.1261 204.452 35.605Z" fill="#C9E0FC"/>
<path d="M205.569 28.5324C205.569 28.5404 205.569 28.5485 205.561 28.5566H205.553L142.761 17.1808L143.927 9.68848C153.369 11.0126 162.811 12.3366 172.254 13.6607C183.753 15.2674 195.932 17.9317 207.124 21.04C207.124 21.0562 207.116 21.0642 207.116 21.0804C206.63 23.5186 206.055 26.0941 205.569 28.5324Z" fill="#3A8FF3"/>
<path d="M205.545 28.6534C205.197 30.906 204.832 33.2392 204.444 35.6048C202.2 47.1259 197.844 58.8408 191.883 68.618C181.299 67.1566 170.675 65.6872 160.163 63.7657C151.458 62.1752 142.834 60.2698 134.355 57.7993C131.942 57.0969 129.537 56.346 127.148 55.5387L126.281 55.2884C131.124 50.9851 136.865 42.2817 138.914 36.1458C140.963 30.0098 141.854 23.5589 142.526 17.1323L205.545 28.5485H205.553C205.553 28.5646 205.545 28.5808 205.545 28.5969C205.545 28.605 205.545 28.613 205.545 28.6211C205.553 28.6292 205.553 28.6373 205.545 28.6534Z" fill="white"/>
<path d="M154.544 48.781C153.418 47.029 153.094 44.6715 153.572 41.7004L154.106 38.3821C154.584 35.411 155.629 33.2715 157.248 31.9717C158.86 30.6637 161.014 30.2278 163.694 30.6557C166.359 31.0836 168.254 32.1654 169.379 33.9093C170.505 35.6533 170.829 38.0027 170.351 40.9819L169.817 44.3001C169.339 47.2712 168.294 49.4107 166.675 50.7267C165.055 52.0428 162.917 52.4868 160.253 52.0589C157.564 51.6229 155.661 50.533 154.544 48.781ZM164.067 44.7926L165.047 38.7051C165.419 36.3799 164.747 35.08 163.022 34.8055C162.172 34.6683 161.476 34.862 160.933 35.3787C160.39 35.8955 160.034 36.727 159.848 37.8735L158.868 43.961C158.496 46.3024 159.176 47.6184 160.917 47.8929C162.642 48.1755 163.686 47.142 164.067 44.7926Z" fill="#3576C4"/>
<path d="M176.012 37.4457L173.121 36.9855L174.384 32.6418L182.272 33.9013L178.927 54.7475L173.372 53.8594L176.012 37.4457Z" fill="#3576C4"/>
<path d="M139.44 121.218C139.44 121.218 136.606 128.185 129.933 133.005C123.261 137.825 122.767 148.297 122.767 148.297L135.221 157.137C135.221 157.137 131.48 149.039 135.999 146.537C140.517 144.034 143.781 134.144 143.749 130.801C143.716 127.459 139.036 120.451 139.036 120.451" fill="#61D093"/>
<path d="M128.759 140.78C129.075 140.166 129.382 139.666 129.69 139.295C130.192 138.673 130.694 138.31 131.188 138.205C131.682 138.1 132.184 138.245 132.694 138.649C133.245 139.093 133.496 139.601 133.448 140.166L135.634 140.715L134.678 141.902L132.921 141.434C132.881 141.491 132.808 141.587 132.711 141.7L132.524 141.935L133.82 142.968L132.913 144.098L128.759 140.78ZM131.949 140.917C132.249 140.546 132.176 140.183 131.739 139.827C131.302 139.472 130.929 139.48 130.629 139.86C130.557 139.957 130.484 140.086 130.411 140.247L131.674 141.256L131.949 140.917Z" fill="white"/>
<path d="M132.97 138.172C133.018 137.849 133.099 137.543 133.221 137.252C133.342 136.961 133.496 136.695 133.682 136.461C133.933 136.146 134.217 135.92 134.525 135.783C134.832 135.645 135.156 135.613 135.48 135.67C135.812 135.726 136.128 135.879 136.436 136.13L136.711 136.348C137.197 136.743 137.472 137.171 137.521 137.656C137.569 138.132 137.391 138.625 136.994 139.117C136.946 139.174 136.865 139.27 136.743 139.4L137.829 140.272L137.059 141.458L132.97 138.172ZM136.282 138.027C136.274 137.906 136.209 137.793 136.079 137.688L135.286 137.058C135.156 136.953 135.035 136.913 134.905 136.929C134.784 136.945 134.662 137.026 134.557 137.163C134.46 137.284 134.403 137.397 134.379 137.502L135.836 138.665C135.934 138.616 136.031 138.536 136.128 138.415C136.241 138.285 136.29 138.156 136.282 138.027Z" fill="white"/>
<path d="M200.265 102.107C200.265 102.107 202.07 97.675 206.314 94.607C210.557 91.5391 210.873 84.8783 210.873 84.8783L202.953 79.259C202.953 79.259 205.334 84.41 202.459 86.0005C199.584 87.591 197.511 93.8885 197.527 96.0119C197.544 98.1352 200.524 102.592 200.524 102.592" fill="#61D093"/>
<path d="M207.058 89.6578C206.856 90.0534 206.662 90.3683 206.467 90.6024C206.152 90.998 205.828 91.2321 205.512 91.2967C205.196 91.3613 204.88 91.2725 204.556 91.0142C204.2 90.7316 204.046 90.4086 204.078 90.0453L202.686 89.6981L203.293 88.9392L204.41 89.2379C204.435 89.1976 204.483 89.1411 204.54 89.0684L204.661 88.9231L203.835 88.261L204.41 87.5425L207.058 89.6578ZM205.026 89.577C204.832 89.8112 204.88 90.0453 205.164 90.2714C205.447 90.4974 205.682 90.4894 205.868 90.2552C205.917 90.1987 205.965 90.1099 206.006 90.0049L205.204 89.3591L205.026 89.577Z" fill="white"/>
<path d="M204.378 91.321C204.346 91.5229 204.297 91.7166 204.216 91.9104C204.135 92.0961 204.038 92.2657 203.916 92.411C203.754 92.6128 203.576 92.7581 203.382 92.8389C203.188 92.9277 202.985 92.9519 202.775 92.9116C202.564 92.8712 202.362 92.7743 202.167 92.6209L201.989 92.4836C201.681 92.2334 201.503 91.9589 201.479 91.6521C201.446 91.3453 201.56 91.0385 201.811 90.7236C201.843 90.6832 201.892 90.6267 201.965 90.546L201.276 89.997L201.77 89.238L204.378 91.321ZM202.272 91.4099C202.281 91.4906 202.321 91.5632 202.402 91.6278L202.904 92.0315C202.985 92.0961 203.066 92.1203 203.147 92.1123C203.228 92.1042 203.301 92.0477 203.366 91.9669C203.43 91.8862 203.463 91.8216 203.479 91.7489L202.548 91.0062C202.483 91.0385 202.426 91.0869 202.362 91.1676C202.297 91.2484 202.264 91.3291 202.272 91.4099Z" fill="white"/>
<path d="M48.2971 33.191C48.2971 33.191 42.094 43.3234 30.4653 49.1445C18.8365 54.9656 15.3867 71.1452 15.3867 71.1452L32.5303 88.0837C32.5303 88.0837 28.7728 74.5119 36.4497 71.7587C44.1266 69.0056 51.7388 54.4327 52.5486 49.2171C53.3584 44.0016 47.8598 31.8992 47.8598 31.8992" fill="#61D093"/>
<path d="M26.6514 60.9563C27.2992 60.0762 27.9147 59.3819 28.4815 58.8732C29.4209 58.0255 30.2955 57.5895 31.0972 57.5492C31.8989 57.5088 32.6439 57.8721 33.3242 58.631C34.0773 59.4626 34.3364 60.3184 34.1097 61.1904L37.3732 62.6033L35.5754 64.2099L32.9597 63.0312C32.8788 63.1119 32.7492 63.233 32.571 63.3945L32.2228 63.7094L33.972 65.6551L32.2714 67.181L26.6514 60.9563ZM31.5831 61.9816C32.1418 61.481 32.1256 60.8997 31.5264 60.2377C30.9271 59.5757 30.3522 59.4949 29.7934 60.0036C29.6476 60.1327 29.5019 60.3104 29.348 60.5526L31.0648 62.4499L31.5831 61.9816Z" fill="white"/>
<path d="M33.8672 57.9609C34.0211 57.4765 34.2316 57.0163 34.4988 56.5884C34.7661 56.1605 35.0738 55.7891 35.422 55.4742C35.8998 55.0463 36.3938 54.7718 36.912 54.6346C37.4303 54.5054 37.9405 54.5296 38.4345 54.7072C38.9285 54.8848 39.39 55.2078 39.8111 55.668L40.1837 56.0797C40.8477 56.8144 41.1554 57.5653 41.1068 58.3242C41.0582 59.0831 40.6614 59.7936 39.9164 60.4637C39.8273 60.5445 39.6735 60.6737 39.4548 60.8432L40.9206 62.4741L39.4143 64.1292L33.8672 57.9609ZM39.0742 58.5826C39.0904 58.3888 39.0175 58.195 38.8394 58.0013L37.7704 56.8144C37.6004 56.6207 37.4141 56.5238 37.2117 56.5238C37.0173 56.5238 36.8149 56.6126 36.6124 56.7902C36.4343 56.9517 36.3047 57.1132 36.248 57.2746L38.2239 59.4626C38.3859 59.4142 38.564 59.3173 38.7422 59.1477C38.9447 58.9701 39.058 58.7763 39.0742 58.5826Z" fill="white"/>
<defs>
<linearGradient id="paint0_linear" x1="-21.8635" y1="-0.225583" x2="160.617" y2="202.112" gradientUnits="userSpaceOnUse">
<stop offset="1.11884e-07" stop-color="white" stop-opacity="0"/>
<stop offset="1" stop-color="#F1F2F2"/>
</linearGradient>
<linearGradient id="paint1_linear" x1="21.4422" y1="-39.2815" x2="203.923" y2="163.056" gradientUnits="userSpaceOnUse">
<stop offset="1.11884e-07" stop-color="white" stop-opacity="0"/>
<stop offset="1" stop-color="#F1F2F2"/>
</linearGradient>
</defs>
</svg>
