<svg width="15" height="15" viewBox="0 0 15 15" fill="none" xmlns="http://www.w3.org/2000/svg">
<path fill-rule="evenodd" clip-rule="evenodd" d="M10.7423 8.92635H7.56262C7.55187 8.92635 7.54187 8.9237 7.53122 8.9233C7.52057 8.9238 7.51062 8.92635 7.49982 8.92635C7.21337 8.92635 6.98111 8.69404 6.98111 8.40764V3.1125C6.98111 2.82605 7.21337 2.59379 7.49982 2.59379C7.78628 2.59379 8.01853 2.82605 8.01853 3.1125V7.88893H10.7421C11.0286 7.88893 11.2608 8.12113 11.2608 8.40764C11.2608 8.69404 11.0287 8.92635 10.7423 8.92635ZM7.49988 0C3.35786 0 0 3.35796 0 7.49988C0 11.6418 3.35786 15 7.49988 15C11.6419 15 15 11.6418 15 7.49988C15 3.35796 11.6419 0 7.49988 0Z" fill="black"/>
<mask id="mask0" mask-type="alpha" maskUnits="userSpaceOnUse" x="0" y="0" width="15" height="15">
<path fill-rule="evenodd" clip-rule="evenodd" d="M10.7423 8.92635H7.56262C7.55187 8.92635 7.54187 8.9237 7.53122 8.9233C7.52057 8.9238 7.51062 8.92635 7.49982 8.92635C7.21337 8.92635 6.98111 8.69404 6.98111 8.40764V3.1125C6.98111 2.82605 7.21337 2.59379 7.49982 2.59379C7.78628 2.59379 8.01853 2.82605 8.01853 3.1125V7.88893H10.7421C11.0286 7.88893 11.2608 8.12113 11.2608 8.40764C11.2608 8.69404 11.0287 8.92635 10.7423 8.92635ZM7.49988 0C3.35786 0 0 3.35796 0 7.49988C0 11.6418 3.35786 15 7.49988 15C11.6419 15 15 11.6418 15 7.49988C15 3.35796 11.6419 0 7.49988 0Z" fill="white"/>
</mask>
<g mask="url(#mask0)">
<rect x="-0.234375" width="15.2344" height="15.2344" fill="white"/>
</g>
</svg>
