<svg width="65" height="65" viewBox="0 0 65 65" fill="none" xmlns="http://www.w3.org/2000/svg">
<path opacity="0.2" fill-rule="evenodd" clip-rule="evenodd" d="M22.87 25.052C22.87 17.3062 25.2777 10.1562 32.5008 7.67263V5.19179V2.70825L15.6469 12.6397V34.9835L22.87 42.4314L25.2777 57.3272L32.5008 59.808V42.1524C32.5008 40.7983 31.8644 39.5199 30.7891 38.7426C25.9602 35.2516 22.87 32.0016 22.87 25.052Z" fill="#3B8EF3"/>
<path fill-rule="evenodd" clip-rule="evenodd" d="M32.5 2.70825C20.5346 2.70825 10.8334 12.7128 10.8334 25.052C10.8334 33.8189 15.7436 41.386 22.8692 45.0449V54.8437C22.8692 58.9414 26.1219 62.2916 30.0923 62.2916H34.9077C38.8782 62.2916 42.1309 58.9414 42.1309 54.8437V45.0449C49.2565 41.386 54.1667 33.8189 54.1667 25.052C54.1667 12.7128 44.4655 2.70825 32.5 2.70825ZM32.5 8.12492C41.4619 8.12492 48.75 15.7191 48.75 25.052C48.75 31.533 45.2671 37.3478 39.6582 40.2268C37.849 41.153 36.7142 43.0137 36.7142 45.0449V54.8437C36.7142 55.946 35.8855 56.8749 34.9077 56.8749H30.0923C29.1146 56.8749 28.2859 55.946 28.2859 54.8437V45.0449C28.2859 43.0137 27.1511 41.153 25.3419 40.2268C19.733 37.3478 16.25 31.533 16.25 25.052C16.25 15.7191 23.5382 8.12492 32.5 8.12492Z" fill="#3B8EF3"/>
<path fill-rule="evenodd" clip-rule="evenodd" d="M40.9265 47.3959H26.4802C25.8167 47.3959 25.2777 46.8407 25.2777 46.1555C25.2777 45.4676 25.8167 44.9124 26.4802 44.9124H40.9265C41.59 44.9124 42.129 45.4676 42.129 46.1555C42.129 46.8407 41.59 47.3959 40.9265 47.3959Z" fill="#3B8EF3"/>
<path fill-rule="evenodd" clip-rule="evenodd" d="M40.9265 52.3615H26.4802C25.8167 52.3615 25.2777 51.8063 25.2777 51.1211C25.2777 50.4331 25.8167 49.8779 26.4802 49.8779H40.9265C41.59 49.8779 42.129 50.4331 42.129 51.1211C42.129 51.8063 41.59 52.3615 40.9265 52.3615Z" fill="#3B8EF3"/>
<path fill-rule="evenodd" clip-rule="evenodd" d="M28.903 33.8541C28.5645 33.8541 28.2232 33.7268 27.9605 33.4722C27.4243 32.9522 27.4107 32.0937 27.9307 31.5575L32.9168 26.4116H28.8895C28.3451 26.4116 27.8549 26.0866 27.6436 25.5856C27.4297 25.0845 27.538 24.505 27.9172 24.115L35.1457 16.6616C35.6684 16.1281 36.5243 16.1118 37.0605 16.6318C37.5968 17.1518 37.6103 18.0104 37.0903 18.5466L32.0907 23.7033H36.118C36.6624 23.7033 37.1526 24.031 37.3639 24.532C37.5778 25.0331 37.4695 25.6127 37.0903 26.0027L29.8753 33.4425C29.6099 33.716 29.2578 33.8541 28.903 33.8541Z" fill="#18BA62"/>
</svg>
