<svg width="65" height="65" viewBox="0 0 65 65" fill="none" xmlns="http://www.w3.org/2000/svg">
<path opacity="0.2" fill-rule="evenodd" clip-rule="evenodd" d="M32.3811 25.0812V10.2449C32.3811 8.88534 33.4942 7.77222 34.8538 7.77222H24.9657V22.6085C27.5169 23.0039 30.0194 23.8624 32.3811 25.0812Z" fill="#3B8EF3"/>
<path fill-rule="evenodd" clip-rule="evenodd" d="M43.5104 54.7552H36.0923C35.4098 54.7552 34.8546 54.2027 34.8546 53.5175C34.8546 52.835 35.4098 52.2825 36.0923 52.2825H43.5104C44.1929 52.2825 44.7454 52.835 44.7454 53.5175C44.7454 54.2027 44.1929 54.7552 43.5104 54.7552Z" fill="#18BA62"/>
<path fill-rule="evenodd" clip-rule="evenodd" d="M55.7906 49.8091H31.1448C30.4623 49.8091 29.9098 49.2566 29.9098 48.5714C29.9098 47.8916 30.4623 47.3364 31.1448 47.3364H55.7906C56.4731 47.3364 57.0256 47.8916 57.0256 48.5714C57.0256 49.2566 56.4731 49.8091 55.7906 49.8091Z" fill="#3B8EF3"/>
<path fill-rule="evenodd" clip-rule="evenodd" d="M55.7906 15.1907H23.8106C23.1281 15.1907 22.5756 14.6355 22.5756 13.953C22.5756 13.2705 23.1281 12.718 23.8106 12.718H55.7906C56.4731 12.718 57.0256 13.2705 57.0256 13.953C57.0256 14.6355 56.4731 15.1907 55.7906 15.1907Z" fill="#3B8EF3"/>
<path fill-rule="evenodd" clip-rule="evenodd" d="M8.7387 38.6705C7.96682 39.4911 7.96682 40.8263 8.7387 41.6551C9.51057 42.4757 10.7699 42.4757 11.5499 41.6551C16.9043 35.973 25.6116 35.973 30.966 41.6551C31.3533 42.064 31.8597 42.2753 32.3689 42.2753C32.8754 42.2753 33.3845 42.064 33.7691 41.6551C34.5437 40.8344 34.5437 39.4992 33.7691 38.6705C26.871 31.339 15.6368 31.339 8.7387 38.6705Z" fill="#18BA62"/>
<path fill-rule="evenodd" clip-rule="evenodd" d="M14.105 44.3675C13.3332 45.1881 13.3332 46.5233 14.105 47.3521C14.8796 48.1727 16.1363 48.1727 16.919 47.3521C19.3077 44.809 23.2023 44.809 25.5911 47.3521C25.9784 47.7637 26.4848 47.9723 26.994 47.9723C27.5004 47.9723 28.0096 47.7637 28.3942 47.3521C29.1688 46.5315 29.1688 45.1962 28.3942 44.3756C24.4617 40.1831 18.0484 40.1831 14.105 44.3675Z" fill="#18BA62"/>
<path fill-rule="evenodd" clip-rule="evenodd" d="M23.7269 51.9478C23.7269 53.3128 22.6219 54.4205 21.2542 54.4205C19.8892 54.4205 18.7815 53.3128 18.7815 51.9478C18.7815 50.5828 19.8892 49.4751 21.2542 49.4751C22.6219 49.4751 23.7269 50.5828 23.7269 51.9478Z" fill="#18BA62"/>
<path fill-rule="evenodd" clip-rule="evenodd" d="M39.2205 32.9628C29.3134 22.4545 13.1961 22.4545 3.2863 32.9628C2.51443 33.7834 2.51443 35.1186 3.2863 35.9501C4.0636 36.768 5.31755 36.768 6.10026 35.9501C14.4528 27.0722 28.054 27.0722 36.4173 35.9501C36.8019 36.359 37.3111 36.5676 37.8176 36.5676C38.3267 36.5676 38.8332 36.359 39.2205 35.9501C39.9923 35.1268 39.9923 33.7915 39.2205 32.9628Z" fill="#18BA62"/>
<path fill-rule="evenodd" clip-rule="evenodd" d="M24.9648 54.7553C24.9648 57.228 27.4375 57.228 27.4375 57.228H52.1646C53.5052 57.228 54.6373 56.0959 54.6373 54.7553V10.2438C54.6373 8.90318 53.5052 7.7711 52.1646 7.7711H27.4375C26.0969 7.7711 24.9648 8.90318 24.9648 10.2438V22.6074C23.3263 22.3555 21.6688 22.2688 20.0194 22.3528V10.2438C20.0194 6.16506 23.3561 2.82568 27.4375 2.82568H52.1646C56.2461 2.82568 59.5827 6.16506 59.5827 10.2438V54.7553C59.5827 58.8367 56.2461 62.1734 52.1646 62.1734H27.4375C23.3561 62.1734 20.0194 59.7007 20.0194 57.228H22.4921C24.9648 57.228 24.9648 54.7553 24.9648 54.7553Z" fill="#3B8EF3"/>
</svg>
