<svg width="19" height="21" viewBox="0 0 19 21" fill="none" xmlns="http://www.w3.org/2000/svg">
<path fill-rule="evenodd" clip-rule="evenodd" d="M2 8C2 4.691 4.691 2 8 2C11.309 2 14 4.691 14 8C14 11.309 11.309 14 8 14C4.691 14 2 11.309 2 8ZM18.687 19.179L13.399 13.891C14.994 12.429 16 10.334 16 8C16 3.582 12.418 0 8 0C3.582 0 0 3.582 0 8C0 12.418 3.582 16 8 16C9.305 16 10.531 15.682 11.619 15.128L17.179 20.688C17.388 20.896 17.66 21 17.934 21C18.206 21 18.479 20.896 18.687 20.688C19.104 20.271 19.104 19.596 18.687 19.179Z" fill="white"/>
</svg>
