<svg width="65" height="65" viewBox="0 0 65 65" fill="none" xmlns="http://www.w3.org/2000/svg">
<path opacity="0.4" d="M27.5169 22.5332H7.66479V30.0082H27.5169V22.5332Z" fill="#3B8EF3"/>
<path opacity="0.4" d="M27.5169 52.4602H7.66479V59.9352H27.5169V52.4602Z" fill="#3B8EF3"/>
<path opacity="0.4" d="M10.1456 32.5105L10.1456 52.4709H17.5935V32.5105H10.1456Z" fill="#3B8EF3"/>
<path opacity="0.4" d="M32.5002 5.06445L39.9481 12.5665L25.0523 22.5332H15.1127V17.5499L32.5002 5.06445Z" fill="#3B8EF3"/>
<path d="M56.0896 25.0251C56.7667 25.0251 57.3355 25.5938 57.3355 26.2709C57.3355 26.948 56.7667 27.5168 56.0896 27.5168H8.91046C8.23337 27.5168 7.66462 26.948 7.66462 26.2709C7.66462 25.5938 8.23337 25.0251 8.91046 25.0251H56.0896ZM56.0896 20.0418H8.91046C5.49796 20.0418 2.70837 22.8313 2.70837 26.2709C2.70837 29.7105 5.49796 32.5001 8.91046 32.5001H56.0896C59.5021 32.5001 62.2917 29.7105 62.2917 26.2709C62.2917 22.8313 59.5021 20.0418 56.0896 20.0418Z" fill="#3B8EF3"/>
<path d="M56.0896 54.9521C56.7667 54.9521 57.3355 55.5209 57.3355 56.198C57.3355 56.8751 56.7667 57.4438 56.0896 57.4438H8.91046C8.23337 57.4438 7.66462 56.8751 7.66462 56.198C7.66462 55.5209 8.23337 54.9521 8.91046 54.9521H56.0896ZM56.0896 49.9688H8.91046C5.47087 49.9688 2.70837 52.7584 2.70837 56.198C2.70837 59.6376 5.49796 62.4271 8.91046 62.4271H56.0896C59.5292 62.4271 62.2917 59.6376 62.2917 56.198C62.2917 52.7584 59.5021 49.9688 56.0896 49.9688Z" fill="#3B8EF3"/>
<path d="M17.6042 52.5688H10.1021V28.1396H17.6042V52.5688ZM12.6208 50.0501H15.1125V30.6584H12.6208V50.0501Z" fill="#3B8EF3"/>
<path d="M54.8438 52.4604H47.3959V27.5166H54.8438V52.4604ZM49.8875 49.9687H52.3792V30.0083H49.8875V49.9687Z" fill="#3B8EF3"/>
<path d="M32.7438 7.85418C33.15 7.85418 33.7459 7.96252 34.3146 8.42293L48.3979 20.0417H16.7917L31.1729 8.39585C31.7688 7.96252 32.3646 7.85418 32.7438 7.85418ZM32.7438 2.87085C31.0917 2.87085 29.4396 3.41252 28.0854 4.52293L4.68545 23.4271C4.03545 23.9688 4.41461 25.025 5.2542 25.025H59.1771C60.2334 25.025 60.6938 23.6979 59.8813 23.0208L37.4834 4.55002C36.1021 3.4396 34.4229 2.87085 32.7438 2.87085Z" fill="#3B8EF3"/>
<path d="M24.375 35.2083C25.5938 34.9645 26.6229 34.8291 27.4625 34.8291C28.8979 34.8291 29.9542 35.127 30.6583 35.6958C31.3625 36.2645 31.7146 37.1312 31.7146 38.2687C31.7146 39.5416 31.2813 40.4354 30.4417 41.0041L32.0938 44.6333H29.3854L28.0854 41.6812C27.95 41.6812 27.7604 41.6812 27.4896 41.6812H26.975V44.6333H24.375V35.2083ZM27.7333 39.7854C28.5729 39.7854 29.0063 39.2708 29.0063 38.2687C29.0063 37.2666 28.5729 36.752 27.7333 36.752C27.5167 36.752 27.2458 36.8062 26.9479 36.8874V39.7583H27.7333V39.7854Z" fill="#18BA62"/>
<path d="M33.3126 38.1332C33.8001 37.8353 34.3418 37.6187 34.8835 37.4562C35.4251 37.2937 35.9668 37.2124 36.5085 37.2124C37.2397 37.2124 37.8626 37.3478 38.3772 37.6187C38.8918 37.8895 39.3251 38.2957 39.596 38.8103C39.8668 39.3249 40.0293 39.9478 40.0293 40.652V41.2749C40.0293 42.3853 39.7314 43.252 39.1085 43.8478C38.4855 44.4437 37.6189 44.7416 36.5085 44.7416C36.373 44.7416 36.1564 44.7416 35.8314 44.7145V47.1791L33.3126 47.4499V38.1332ZM37.2126 42.5749C37.3751 42.4124 37.4564 42.1957 37.4564 41.9249V40.1374C37.4564 39.8395 37.3751 39.6228 37.2126 39.4874C37.0501 39.3249 36.8064 39.2707 36.5085 39.2707C36.2376 39.2707 36.021 39.3249 35.8314 39.4062V42.7103C35.9939 42.7916 36.2376 42.8457 36.5085 42.8457C36.8064 42.7916 37.0501 42.7103 37.2126 42.5749Z" fill="#18BA62"/>
</svg>
