<svg width="65" height="65" viewBox="0 0 65 65" fill="none" xmlns="http://www.w3.org/2000/svg">
<path fill-rule="evenodd" clip-rule="evenodd" d="M26.66 49.8781H20.0571C19.4504 49.8781 18.9575 49.3744 18.9575 48.7487C18.9575 48.1258 19.4504 47.6221 20.0571 47.6221H26.66C27.2694 47.6221 27.7596 48.1258 27.7596 48.7487C27.7596 49.3744 27.2694 49.8781 26.66 49.8781Z" fill="#18BA62"/>
<path opacity="0.2" fill-rule="evenodd" clip-rule="evenodd" d="M35.3776 55.5209V14.8959C35.3776 13.6555 36.3661 12.6399 37.5767 12.6399H28.7747V57.777H37.5767C36.3661 57.777 35.3776 56.7613 35.3776 55.5209Z" fill="#3B8EF3"/>
<path fill-rule="evenodd" clip-rule="evenodd" d="M51.4583 8.125H32.5C28.0313 8.125 24.375 11.7812 24.375 16.25V54.1667C24.375 58.6354 28.0313 62.2917 32.5 62.2917H51.4583C55.9271 62.2917 59.5833 58.6354 59.5833 54.1667V16.25C59.5833 11.7812 55.9271 8.125 51.4583 8.125ZM51.4583 13.5417C52.9262 13.5417 54.1667 14.7821 54.1667 16.25V54.1667C54.1667 55.6346 52.9262 56.875 51.4583 56.875H32.5C31.0321 56.875 29.7917 55.6346 29.7917 54.1667V16.25C29.7917 14.7821 31.0321 13.5417 32.5 13.5417H51.4583Z" fill="#3B8EF3"/>
<path fill-rule="evenodd" clip-rule="evenodd" d="M45.2801 55.5209H38.6772C38.0706 55.5209 37.5776 55.0145 37.5776 54.3916C37.5776 53.7686 38.0706 53.2649 38.6772 53.2649H45.2801C45.8895 53.2649 46.3797 53.7686 46.3797 54.3916C46.3797 55.0145 45.8895 55.5209 45.2801 55.5209Z" fill="#18BA62"/>
<path fill-rule="evenodd" clip-rule="evenodd" d="M56.2085 51.0075H27.7494C27.1427 51.0075 26.6498 50.501 26.6498 49.8781C26.6498 49.2552 27.1427 48.7515 27.7494 48.7515H56.2085C56.8179 48.7515 57.3081 49.2552 57.3081 49.8781C57.3081 50.501 56.8179 51.0075 56.2085 51.0075Z" fill="#3B8EF3"/>
<path fill-rule="evenodd" clip-rule="evenodd" d="M56.2085 19.4094H27.7494C27.1427 19.4094 26.6498 18.9056 26.6498 18.28C26.6498 17.6571 27.1427 17.1533 27.7494 17.1533H56.2085C56.8179 17.1533 57.3081 17.6571 57.3081 18.28C57.3081 18.9056 56.8179 19.4094 56.2085 19.4094Z" fill="#3B8EF3"/>
<path opacity="0.2" fill-rule="evenodd" clip-rule="evenodd" d="M16.4193 50.1042V9.47919C16.4193 8.23877 17.4079 7.22314 18.6185 7.22314H9.81641V52.3602H18.6185C17.4079 52.3602 16.4193 51.3446 16.4193 50.1042Z" fill="#3B8EF3"/>
<path fill-rule="evenodd" clip-rule="evenodd" d="M26.3879 46.0416H8.3883C8.00372 46.0416 7.69226 45.4349 7.69226 44.6874C7.69226 43.9399 8.00372 43.3333 8.3883 43.3333H26.3879C26.7725 43.3333 27.0839 43.9399 27.0839 44.6874C27.0839 45.4349 26.7725 46.0416 26.3879 46.0416Z" fill="#3B8EF3"/>
<path fill-rule="evenodd" clip-rule="evenodd" d="M36.8057 13.5416H8.34922C7.74255 13.5416 7.24963 12.9349 7.24963 12.1874C7.24963 11.4399 7.74255 10.8333 8.34922 10.8333H36.8057C37.4151 10.8333 37.9053 11.4399 37.9053 12.1874C37.9053 12.9349 37.4151 13.5416 36.8057 13.5416Z" fill="#3B8EF3"/>
<path fill-rule="evenodd" clip-rule="evenodd" d="M24.375 54.1666V51.4583H13.5416C12.0737 51.4583 10.8333 50.2178 10.8333 48.7499V10.8333C10.8333 9.36534 12.0737 8.12492 13.5416 8.12492H32.5H40.1212C38.9972 4.98325 36.0154 2.70825 32.5 2.70825H13.5416C9.07288 2.70825 5.41663 6.3645 5.41663 10.8333V48.7499C5.41663 53.2187 9.07288 56.8749 13.5416 56.8749H24.8787C24.57 56.0245 24.375 55.1199 24.375 54.1666Z" fill="#3B8EF3"/>
</svg>
