<svg width="133" height="36" viewBox="0 0 133 36" fill="none" xmlns="http://www.w3.org/2000/svg">
<path fill-rule="evenodd" clip-rule="evenodd" d="M20.5699 6.73097C20.5699 7.28967 20.4703 8.14801 20.2716 9.30742C19.8519 11.9699 18.9137 13.9078 17.4563 15.1206C15.9989 16.3338 14.3205 16.9401 12.4213 16.9401C11.4276 16.9401 10.4175 16.8757 9.39062 16.7469C8.364 16.6181 7.56307 16.4681 6.98927 16.296L5.73058 23.8966H0L3.90858 0H13.8788C15.9542 0 17.5886 0.510284 18.781 1.52986C19.9735 2.54985 20.5699 4.28334 20.5699 6.73097ZM13.5808 11.0624C14.0886 10.4723 14.4196 9.68312 14.5745 8.69534C14.6846 8.05122 14.7401 7.57915 14.7401 7.27829C14.7401 6.46255 14.5745 5.87746 14.2433 5.52319C13.9118 5.16893 13.415 4.9917 12.7527 4.9917H8.81082L7.68483 11.9481H11.6265C12.4213 11.9481 13.0724 11.6533 13.5808 11.0624Z" fill="white"/>
<path fill-rule="evenodd" clip-rule="evenodd" d="M15.9988 23.8966L27.1802 0H34.201L37.7115 23.8966H31.8933L31.373 19.549H23.6697L21.752 23.8966H15.9988ZM29.878 4.7666L25.7825 14.5571H30.8531L29.878 4.7666Z" fill="white"/>
<path d="M52.0959 0.0507812L46.2908 11.2909L44.259 0.0507812H38.1958L42.5819 17.2985L41.5176 24.0167H47.097L48.1613 17.2985L58.4171 0.0507812H52.0959Z" fill="white"/>
<path d="M61.7933 14.9785L70.7891 14.6951L71.5758 10.3805L62.6142 10.1286L63.1273 7.04226C63.2409 6.39166 63.4693 5.90851 63.8114 5.59358C64.1534 5.27864 64.7007 5.12118 65.4532 5.12118H74.1069L74.8936 0.523178C71.5639 0.229373 68.0982 0.0719071 64.4955 0.0507812C62.7393 0.0507812 61.2171 0.460192 59.9293 1.27901C58.6406 2.09784 57.8256 3.52579 57.4836 5.56208L56.3646 12.0532L53.8949 25.5774L56.0174 25.2336L53.1744 35.9997L65.1243 19.4328L60.9227 19.9746L61.7933 14.9785Z" fill="white"/>
<path fill-rule="evenodd" clip-rule="evenodd" d="M70.8519 23.8966L82.0333 0H89.0542L92.5646 23.8966H86.7466L86.2263 19.549H78.5229L76.6051 23.8966H70.8519ZM84.7311 4.7666L80.6356 14.5571H85.7063L84.7311 4.7666Z" fill="white"/>
<path d="M113.802 4.79875L114.587 0.0507812H97.6472L96.7933 5.05715H107.005L94.4026 19.3011L93.6171 24.0167H110.933L111.787 19.0104H101.233L113.802 4.79875Z" fill="white"/>
<path d="M132.562 0.0507812H116.227L115.403 5.05715H125.25L113.098 19.3011L112.34 24.0167H129.038L129.861 19.0104H119.685L131.804 4.79875L132.562 0.0507812Z" fill="white"/>
</svg>
