<svg width="181" height="55" viewBox="0 0 181 55" fill="none" xmlns="http://www.w3.org/2000/svg">
<path d="M9.79102 5.3877L7.32129 12.7441L4.85156 5.3877H1.2041V18H3.81445V9.57129L5.97656 15.75H8.66602L10.8281 9.55371V18H13.4297V5.3877H9.79102ZM24.1787 12.8057C24.1787 10.002 22.5176 8.31445 19.8545 8.31445C17.1562 8.31445 15.4336 10.1162 15.4336 12.8057V13.667C15.4336 16.4707 17.3936 18.167 20.3027 18.167C21.375 18.167 22.5527 17.8945 23.4316 17.499L23.1328 15.873C22.3594 16.0664 21.6211 16.1719 20.751 16.1719C19.0723 16.1719 18.1758 15.5215 18.1055 14.0361H24.0557C24.126 13.623 24.1787 13.2363 24.1787 12.8057ZM21.5596 12.2959H18.1055V12.1201C18.1055 10.9775 18.7734 10.3184 19.8545 10.3184C20.9443 10.3184 21.5596 10.9688 21.5596 12.1201V12.2959ZM25.9365 18H28.5908V10.6963C28.9424 10.5381 29.4873 10.4414 29.9707 10.4414C30.999 10.4414 31.3945 10.8896 31.3945 11.7158V18H34.0488V11.4873C34.0488 11.2148 34.0049 10.9512 33.9258 10.7314C34.374 10.5469 34.9277 10.4414 35.4463 10.4414C36.4834 10.4414 36.8613 10.9072 36.8613 11.7158V18H39.5156V11.8477C39.5156 9.55371 38.127 8.31445 35.5693 8.31445C34.585 8.31445 33.4863 8.5166 32.5635 8.86816C31.9395 8.5166 31.1221 8.31445 30.1025 8.31445C28.6611 8.31445 27.0879 8.74512 25.9365 9.42188V18ZM45.3516 18.167C48.2607 18.167 49.9131 16.541 49.9131 13.667V12.8057C49.9131 10.0195 48.1816 8.31445 45.3516 8.31445C44.9473 8.31445 44.499 8.36719 44.0947 8.46387V4.93066L41.4404 5.20312V17.4463C42.4336 17.8682 44.1035 18.167 45.3516 18.167ZM45.3516 16.04C44.9209 16.04 44.4199 15.9521 44.0947 15.7939V10.6875C44.4111 10.5381 44.8945 10.4414 45.3516 10.4414C46.5381 10.4414 47.1797 11.0654 47.1797 12.2344V14.2559C47.1797 15.416 46.5381 16.04 45.3516 16.04ZM60.249 12.8057C60.249 10.002 58.5879 8.31445 55.9248 8.31445C53.2266 8.31445 51.5039 10.1162 51.5039 12.8057V13.667C51.5039 16.4707 53.4639 18.167 56.373 18.167C57.4453 18.167 58.623 17.8945 59.502 17.499L59.2031 15.873C58.4297 16.0664 57.6914 16.1719 56.8213 16.1719C55.1426 16.1719 54.2461 15.5215 54.1758 14.0361H60.126C60.1963 13.623 60.249 13.2363 60.249 12.8057ZM57.6299 12.2959H54.1758V12.1201C54.1758 10.9775 54.8438 10.3184 55.9248 10.3184C57.0146 10.3184 57.6299 10.9688 57.6299 12.1201V12.2959ZM62.0068 18H64.6699V10.7754C65.1182 10.5645 65.8125 10.4414 66.542 10.4414C66.8848 10.4414 67.2627 10.459 67.5 10.5029V8.41992C67.1924 8.34961 66.6387 8.31445 66.2344 8.31445C64.626 8.31445 63.2812 8.66602 62.0068 9.42188V18ZM77.168 18.167C79.8311 18.167 81.5713 16.3564 81.5713 13.667V12.8057C81.5713 10.1074 79.8311 8.31445 77.168 8.31445C74.5049 8.31445 72.7822 10.1074 72.7822 12.8057V13.667C72.7822 16.3564 74.5049 18.167 77.168 18.167ZM77.168 16.1719C76.1572 16.1719 75.5244 15.46 75.5244 14.3877V12.0938C75.5244 11.0127 76.1572 10.3184 77.168 10.3184C78.1963 10.3184 78.8291 11.0127 78.8291 12.0938V14.3877C78.8291 15.4512 78.1963 16.1719 77.168 16.1719ZM83.2412 18H85.8955V10.4854H88.7607V8.48145H85.8955V8.16504C85.8955 7.24219 86.5283 6.74121 87.6445 6.74121C88.0752 6.74121 88.6377 6.80273 89.1299 6.92578L89.4375 5.28223C88.6904 5.00098 87.9785 4.87793 87.2666 4.87793C84.8584 4.87793 83.2412 6.2666 83.2412 8.41992V18Z" fill="#333333"/>
<path d="M134.43 47.1484C135.703 47.1484 136.961 46.9375 137.992 46.5391L138.82 40.6875H134.578L134.391 42.0312H136.906L136.414 45.5547C135.875 45.6641 135.172 45.7344 134.641 45.7344C132.5 45.7344 131.641 44.4297 131.93 42.4375L132.234 40.3516C132.531 38.3047 133.75 37.0547 136.086 37.0547C137.078 37.0547 137.859 37.1953 138.492 37.3984L138.883 36.2109C138.117 35.8594 137.133 35.6406 136.047 35.6406C132.562 35.6406 130.695 37.6484 130.227 40.9531L130.102 41.8438C129.625 45.2656 131.172 47.1484 134.43 47.1484ZM140.094 47H141.922L142.484 42.9766H144.203C144.391 42.9766 144.57 42.9766 144.734 42.9609L146.414 47H148.391L146.555 42.5391C148.07 42.0391 149.039 40.9219 149.266 39.3047C149.602 36.9219 148.227 35.6406 145.328 35.6406C144.219 35.6406 142.773 35.8672 141.609 36.2188L140.094 47ZM142.688 41.5625L143.281 37.3672C143.852 37.1797 144.703 37.0547 145.273 37.0547C146.797 37.0547 147.539 37.8594 147.336 39.3047C147.133 40.7812 146.156 41.5625 144.547 41.5625H142.688ZM154.641 47.1484C157.625 47.1484 159.602 45.2266 160.078 41.8359L160.203 40.9453C160.672 37.6016 159.211 35.6406 156.258 35.6406C153.305 35.6406 151.289 37.6016 150.82 40.9453L150.695 41.8359C150.219 45.2266 151.648 47.1484 154.641 47.1484ZM154.836 45.7344C153.109 45.7344 152.234 44.5547 152.508 42.5781L152.844 40.1953C153.117 38.2266 154.328 37.0547 156.055 37.0547C157.789 37.0547 158.656 38.2266 158.383 40.1953L158.047 42.5781C157.773 44.5547 156.562 45.7344 154.836 45.7344ZM165.234 47.1484C167.695 47.1484 169.375 45.6719 169.727 43.1797L170.766 35.7891H168.938L167.867 43.4141C167.656 44.9219 166.773 45.7656 165.43 45.7656C164.078 45.7656 163.43 44.9141 163.641 43.4141L164.703 35.7891H162.875L161.844 43.1797C161.492 45.6641 162.766 47.1484 165.234 47.1484ZM171.359 47H173.188L173.75 42.9766H175.391C178.344 42.9766 180.117 41.6875 180.453 39.3047C180.789 36.9219 179.438 35.6406 176.594 35.6406C175.461 35.6406 174.055 35.8672 172.875 36.2188L171.359 47ZM173.953 41.5625L174.547 37.3672C175.141 37.1797 175.945 37.0547 176.539 37.0547C178.016 37.0547 178.734 37.8594 178.539 39.3047C178.328 40.7812 177.344 41.5625 175.734 41.5625H173.953Z" fill="#333333"/>
<path d="M117.231 45.5642C116.789 45.1797 116.568 44.5992 116.568 43.8201C116.568 43.5605 116.589 43.3008 116.633 43.0411L118.058 34.0986H120.89L119.515 42.6678C119.503 42.7328 119.498 42.8189 119.498 42.9275C119.498 43.3932 119.781 43.6254 120.349 43.6254H124L123.591 46.141H119.089C118.292 46.1397 117.673 45.9487 117.231 45.5642Z" fill="#333333"/>
<path d="M43.1314 36.9359C43.2951 35.886 43.6854 35.1506 44.3025 34.7287C44.9195 34.3067 45.6474 34.0957 46.4873 34.0957C48.2112 34.1069 49.8709 34.1881 51.4639 34.3391L51.0874 36.7087H46.9457C46.5855 36.7087 46.3236 36.7898 46.1599 36.9521C45.9962 37.1144 45.8866 37.3628 45.8325 37.6987L45.5869 39.2892L49.876 39.419L49.4995 41.6425L45.194 41.7885L44.4901 46.1381H41.658L43.1314 36.9359Z" fill="#333333"/>
<path d="M52.9045 34.0957H55.7366L53.8049 46.1381H50.9728L52.9045 34.0957Z" fill="#333333"/>
<path d="M57.6357 34.0957H59.8784L63.3653 41.3828L64.5276 34.0957H67.3597L65.428 46.1381H63.1852L59.6983 38.851L58.536 46.1381H55.7039L57.6357 34.0957Z" fill="#333333"/>
<path d="M72.1889 34.0977H75.7249L77.4929 46.14H74.5626L74.3007 43.949H70.4209L69.4551 46.14H66.5575L72.1889 34.0977ZM74.0388 41.4334L73.5477 36.4996L71.485 41.4334H74.0388Z" fill="#333333"/>
<path d="M80.6359 34.0977H82.8787L86.3656 41.3847L87.5279 34.0977H90.36L88.4283 46.14H86.1855L82.6986 38.8529L81.5363 46.14H78.7042L80.6359 34.0977Z" fill="#333333"/>
<path d="M91.7504 45.141C91.0628 44.4106 90.719 43.3807 90.719 42.0499C90.719 41.3033 90.7845 40.5243 90.9155 39.7128C91.2215 37.7653 91.7781 36.3271 92.5852 35.3957C93.3937 34.4657 94.5724 34 96.1225 34C97.6613 34 98.9924 34.2497 100.117 34.7466L99.7404 36.97C99.2707 36.8289 98.7607 36.7191 98.2091 36.6367C97.6576 36.5555 97.1312 36.5156 96.63 36.5156C96.0621 36.5156 95.6037 36.6017 95.2549 36.7753C94.9061 36.9488 94.6051 37.2971 94.3545 37.8214C94.1039 38.347 93.8911 39.1385 93.7161 40.1985C93.5851 41.0536 93.5196 41.6803 93.5196 42.0811C93.5196 42.6653 93.6758 43.0848 93.9856 43.3395C94.2966 43.5942 94.8343 43.7203 95.5987 43.7203C96.2308 43.7203 96.7584 43.7065 97.1778 43.6803C97.5971 43.6541 98.1021 43.6079 98.6914 43.543L98.3476 45.734C97.4636 46.0698 96.2963 46.2371 94.8444 46.2371C93.4692 46.2371 92.4379 45.8726 91.7504 45.141Z" fill="#333333"/>
<path d="M101.819 34.0977H104.651L102.72 46.14H99.8876L101.819 34.0977Z" fill="#333333"/>
<path d="M109.61 34.0977H113.146L114.914 46.14H111.984L111.722 43.949H107.842L106.877 46.14H103.979L109.61 34.0977ZM111.46 41.4334L110.969 36.4996L108.906 41.4334H111.46Z" fill="#333333"/>
<path d="M16.7385 34.3105L11.2078 46.1382H14.0538L15.002 43.9859H18.8125L19.0694 46.1382H21.9481L20.2116 34.3105H16.7385ZM16.0472 41.5152L18.0733 36.6688L18.5556 41.5152H16.0472Z" fill="#333333"/>
<path d="M7.06112 41.8663L11.2897 41.7227L11.6599 39.5392L7.44771 39.4119L7.68949 37.8501C7.74238 37.5205 7.85068 37.2758 8.01061 37.1173C8.17053 36.9587 8.42868 36.8776 8.78253 36.8776H12.85L13.2189 34.5493C11.6549 34.4007 10.0254 34.3208 8.33172 34.3096C7.50564 34.3096 6.79038 34.5168 6.18467 34.9313C5.57897 35.3458 5.19615 36.0686 5.03497 37.0986L4.73652 38.9625L3.33874 47.2046L4.33608 47.0311L3 52.4817L8.61757 44.096L6.65564 44.3682L7.06112 41.8663Z" fill="#333333"/>
<path d="M31.9014 36.6538L32.2703 34.3105H24.2954L23.8937 36.7812H28.7016L22.7679 43.8111L22.3977 46.1382H30.5502L30.9519 43.6675H25.9841L31.9014 36.6538Z" fill="#333333"/>
<path d="M41.1306 34.3105H33.1556L32.7527 36.7812H37.5605L31.6282 43.8111L31.2579 46.1382H39.4091L39.8121 43.6675H34.8431L40.7603 36.6538L41.1306 34.3105Z" fill="#333333"/>
<path d="M12.7378 54.3778L12.0389 53.3903C11.9596 53.399 11.8765 53.4028 11.7921 53.4015L10.9635 53.3965L10.9585 54.3665L10.6323 54.3653L10.65 51.3066L11.8047 51.3129C12.1988 51.3154 12.5061 51.4103 12.729 51.5975C12.9506 51.7848 13.0614 52.042 13.0589 52.3678C13.0577 52.6063 12.996 52.8085 12.8726 52.972C12.7491 53.1356 12.5754 53.2542 12.3487 53.3254L13.0967 54.3778H12.7378ZM12.486 52.9296C12.6484 52.796 12.7303 52.6088 12.7315 52.3678C12.7328 52.1206 12.6534 51.9296 12.4923 51.796C12.3311 51.6624 12.0981 51.595 11.7921 51.5938L10.9723 51.5888L10.9635 53.1219L11.7833 53.1269C12.0893 53.1293 12.3235 53.0632 12.486 52.9296Z" fill="#333333"/>
<path d="M17.7623 54.1255L17.761 54.4051L15.58 54.3926L15.5976 51.334L17.7131 51.3452L17.7119 51.6249L15.9225 51.6149L15.9162 52.7023L17.5117 52.711L17.5104 52.9869L15.9149 52.9782L15.9086 54.1142L17.7623 54.1255Z" fill="#333333"/>
<path d="M20.3085 51.3613L20.6346 51.3626L20.617 54.4212L20.2908 54.42L20.3085 51.3613Z" fill="#333333"/>
<path d="M25.9802 51.3936L25.9626 54.4523L25.6944 54.451L23.7249 51.9579L23.711 54.4398L23.3849 54.4385L23.4025 51.3799L23.6707 51.3811L25.644 53.8742L25.6579 51.3924L25.9802 51.3936Z" fill="#333333"/>
<path d="M31.2767 51.4225L29.8927 54.4736L29.5716 54.4724L28.223 51.4062L28.5756 51.4087L29.7416 54.0716L30.9467 51.4225H31.2767Z" fill="#333333"/>
<path d="M35.6501 54.227L35.6489 54.5067L33.4678 54.4942L33.4855 51.4355L35.601 51.4468L35.5998 51.7264L33.8104 51.7164L33.8041 52.8038L35.3995 52.8126L35.3983 53.0885L33.8028 53.0797L33.7965 54.2158L35.6501 54.227Z" fill="#333333"/>
<path d="M40.7741 51.4766L40.7564 54.5353L40.4882 54.534L38.5187 52.0409L38.5049 54.5228L38.1787 54.5215L38.1963 51.4629L38.4646 51.4641L40.4378 53.9573L40.4517 51.4754L40.7741 51.4766Z" fill="#333333"/>
<path d="M44.1387 51.7751L43.0545 51.7689L43.0558 51.4893L45.5504 51.503L45.5491 51.7826L44.4649 51.7764L44.4485 54.5554L44.1224 54.5542L44.1387 51.7751Z" fill="#333333"/>
<path d="M51.0761 51.8134L51.0698 53.0144L52.6652 53.0231L52.664 53.3028L51.0685 53.294L51.061 54.5912L50.7348 54.5899L50.7524 51.5312L52.868 51.5425L52.8667 51.8221L51.0761 51.8134Z" fill="#333333"/>
<path d="M55.3034 51.5576L55.6295 51.5589L55.6119 54.6175L55.2858 54.6163L55.3034 51.5576Z" fill="#333333"/>
<path d="M60.9751 51.5889L60.9575 54.6476L60.6893 54.6463L58.7198 52.1532L58.7059 54.6351L58.3798 54.6338L58.3974 51.5752L58.6656 51.5764L60.6389 54.0696L60.6528 51.5877L60.9751 51.5889Z" fill="#333333"/>
<path d="M65.6646 53.8573L63.9457 53.8473L63.5704 54.6625L63.2317 54.6612L64.6597 51.6113L64.9808 51.6126L66.3736 54.6787L66.0298 54.6762L65.6646 53.8573ZM65.5475 53.5938L64.8171 51.9472L64.0678 53.5851L65.5475 53.5938Z" fill="#333333"/>
<path d="M71.2432 51.6475L71.2255 54.7062L70.9573 54.7049L68.9878 52.2118L68.974 54.6937L68.6478 54.6924L68.6655 51.6338L68.9337 51.635L70.9069 54.1282L70.9208 51.6463L71.2432 51.6475Z" fill="#333333"/>
<path d="M74.5072 54.549C74.2629 54.4142 74.0715 54.2269 73.9329 53.9884C73.7944 53.75 73.7264 53.4841 73.7277 53.1895C73.7289 52.8948 73.8007 52.6302 73.9418 52.393C74.0828 52.157 74.2767 51.9722 74.5248 51.8386C74.7729 51.7051 75.0487 51.6402 75.3547 51.6426C75.5838 51.6439 75.7954 51.6826 75.9881 51.76C76.182 51.8374 76.3457 51.9485 76.4804 52.0946L76.2727 52.2993C76.0334 52.0559 75.7299 51.9335 75.3622 51.931C75.1179 51.9298 74.8963 51.9835 74.6961 52.0933C74.4958 52.2032 74.3384 52.353 74.2238 52.5453C74.1092 52.7375 74.0513 52.9522 74.05 53.1907C74.0488 53.4291 74.1042 53.6451 74.2163 53.8386C74.3283 54.0321 74.4845 54.1844 74.6835 54.2956C74.8824 54.4079 75.1041 54.4641 75.3484 54.4653C75.7186 54.4678 76.0233 54.3467 76.2626 54.1033L76.4691 54.3105C76.3331 54.4554 76.1669 54.5665 75.9717 54.6414C75.7765 54.7175 75.5637 54.755 75.3345 54.7537C75.0272 54.7525 74.7527 54.6838 74.5072 54.549Z" fill="#333333"/>
<path d="M78.9423 51.6895L79.2685 51.6907L79.2508 54.7494L78.9247 54.7481L78.9423 51.6895Z" fill="#333333"/>
<path d="M83.9579 53.9591L82.239 53.9491L81.8637 54.7643L81.525 54.7618L82.953 51.7119L83.2741 51.7132L84.6669 54.7793L84.3231 54.7781L83.9579 53.9591ZM83.8408 53.6957L83.1104 52.049L82.3611 53.6869L83.8408 53.6957Z" fill="#333333"/>
<path d="M86.9588 51.7344L87.2849 51.7356L87.2685 54.5146L88.9962 54.5246L88.995 54.8043L86.9411 54.793L86.9588 51.7344Z" fill="#333333"/>
<path d="M96.1565 54.0284L94.4375 54.0184L94.0623 54.8337L93.7235 54.8312L95.1516 51.7812L95.4727 51.7825L96.8654 54.8486L96.5216 54.8461L96.1565 54.0284ZM96.0381 53.765L95.3077 52.1183L94.5584 53.7563L96.0381 53.765Z" fill="#333333"/>
<path d="M99.6093 54.6896C99.365 54.5548 99.1736 54.3675 99.0351 54.1291C98.8965 53.8906 98.8285 53.6247 98.8298 53.3301C98.831 53.0354 98.9028 52.7708 99.0439 52.5336C99.1849 52.2976 99.3788 52.1129 99.6269 51.9793C99.8737 51.8469 100.151 51.7808 100.457 51.7833C100.686 51.7845 100.897 51.8232 101.09 51.9006C101.284 51.978 101.448 52.0891 101.583 52.2352L101.375 52.4399C101.136 52.1965 100.832 52.0742 100.464 52.0717C100.22 52.0704 99.9984 52.1241 99.7982 52.234C99.5979 52.3438 99.4405 52.4936 99.3259 52.6859C99.2113 52.8781 99.1534 53.0929 99.1522 53.3313C99.1509 53.5698 99.2063 53.7857 99.3184 53.9793C99.4305 54.1728 99.5866 54.3251 99.7856 54.4362C99.9845 54.5485 100.206 54.6047 100.45 54.606C100.821 54.6085 101.125 54.4874 101.365 54.2439L101.571 54.4512C101.435 54.596 101.269 54.7071 101.074 54.782C100.879 54.8582 100.666 54.8956 100.437 54.8944C100.129 54.8931 99.8548 54.8244 99.6093 54.6896Z" fill="#333333"/>
<path d="M104.475 54.716C104.231 54.5811 104.039 54.3939 103.901 54.1554C103.762 53.917 103.694 53.6511 103.696 53.3564C103.697 53.0618 103.769 52.7971 103.91 52.5599C104.051 52.3227 104.245 52.1392 104.493 52.0056C104.741 51.8733 105.017 51.8071 105.323 51.8096C105.552 51.8109 105.763 51.8496 105.956 51.927C106.149 52.0044 106.314 52.1155 106.448 52.2616L106.241 52.4663C106.001 52.2229 105.698 52.1005 105.33 52.098C105.086 52.0968 104.864 52.1505 104.664 52.2603C104.464 52.3702 104.306 52.52 104.192 52.7123C104.077 52.9045 104.019 53.1192 104.018 53.3577C104.017 53.5961 104.072 53.8121 104.184 54.0056C104.296 54.1991 104.452 54.3502 104.651 54.4625C104.85 54.5749 105.072 54.6311 105.316 54.6323C105.687 54.6348 105.991 54.5137 106.231 54.2703L106.437 54.4763C106.301 54.6211 106.135 54.7322 105.94 54.8084C105.744 54.8845 105.532 54.922 105.302 54.9207C104.995 54.9207 104.719 54.8521 104.475 54.716Z" fill="#333333"/>
<path d="M111.075 54.6489L111.074 54.9286L108.893 54.9161L108.91 51.8574L111.026 51.8687L111.025 52.1483L109.235 52.1383L109.229 53.2257L110.824 53.2344L110.823 53.5103L109.228 53.5016L109.221 54.6377L111.075 54.6489Z" fill="#333333"/>
<path d="M113.795 54.8612C113.585 54.7876 113.423 54.6902 113.31 54.5703L113.44 54.3219C113.551 54.433 113.699 54.5241 113.883 54.5928C114.068 54.6627 114.258 54.6977 114.455 54.6989C114.731 54.7002 114.938 54.6515 115.077 54.5516C115.215 54.4517 115.285 54.3219 115.286 54.1621C115.287 54.0398 115.249 53.9424 115.175 53.8687C115.101 53.7951 115.009 53.7389 114.901 53.6989C114.792 53.659 114.641 53.6153 114.447 53.5679C114.216 53.5079 114.03 53.4517 113.893 53.3968C113.756 53.3419 113.637 53.2595 113.539 53.1484C113.441 53.0373 113.393 52.8875 113.394 52.6977C113.396 52.5429 113.437 52.4031 113.52 52.277C113.603 52.1509 113.731 52.0498 113.901 51.9761C114.072 51.9012 114.284 51.865 114.535 51.8662C114.712 51.8675 114.884 51.8925 115.053 51.9411C115.222 51.9898 115.368 52.0573 115.49 52.1421L115.378 52.3993C115.249 52.3144 115.111 52.2495 114.965 52.2071C114.819 52.1646 114.674 52.1421 114.533 52.1409C114.262 52.1396 114.059 52.1896 113.922 52.292C113.785 52.3943 113.716 52.5279 113.716 52.6902C113.714 52.8126 113.752 52.9112 113.826 52.9861C113.901 53.061 113.994 53.1184 114.107 53.1584C114.221 53.1983 114.372 53.242 114.563 53.2895C114.788 53.3456 114.971 53.4018 115.111 53.4567C115.249 53.5117 115.368 53.5941 115.465 53.7039C115.56 53.8138 115.608 53.9624 115.607 54.1484C115.606 54.3032 115.563 54.443 115.479 54.5691C115.394 54.6952 115.264 54.7951 115.091 54.8687C114.917 54.9424 114.704 54.9786 114.451 54.9761C114.224 54.9723 114.005 54.9349 113.795 54.8612Z" fill="#333333"/>
<path d="M118.268 54.8859C118.059 54.8123 117.896 54.7149 117.783 54.595L117.913 54.3466C118.024 54.4577 118.171 54.5488 118.356 54.6175C118.541 54.6874 118.731 54.7224 118.928 54.7236C119.203 54.7249 119.411 54.6762 119.55 54.5763C119.688 54.4764 119.758 54.3466 119.759 54.1868C119.76 54.0644 119.722 53.9671 119.648 53.8934C119.574 53.821 119.482 53.7636 119.373 53.7236C119.265 53.6837 119.114 53.64 118.92 53.5925C118.688 53.5326 118.503 53.4764 118.366 53.4215C118.229 53.3666 118.11 53.2842 118.012 53.1731C117.914 53.062 117.866 52.9121 117.867 52.7224C117.869 52.5676 117.91 52.4278 117.993 52.3017C118.076 52.1756 118.204 52.0744 118.374 51.9995C118.545 51.9246 118.756 51.8884 119.008 51.8897C119.185 51.8909 119.357 51.9159 119.526 51.9646C119.695 52.0133 119.841 52.0807 119.963 52.1656L119.851 52.4228C119.722 52.3379 119.584 52.2729 119.438 52.2305C119.29 52.1881 119.147 52.1656 119.006 52.1643C118.735 52.1631 118.532 52.213 118.395 52.3154C118.258 52.4178 118.188 52.5513 118.188 52.7136C118.187 52.836 118.225 52.9346 118.299 53.0095C118.374 53.0844 118.467 53.1419 118.58 53.1818C118.693 53.2218 118.845 53.2654 119.036 53.3129C119.261 53.3691 119.444 53.4252 119.584 53.4802C119.722 53.5351 119.841 53.6175 119.938 53.7274C120.033 53.8372 120.081 53.9858 120.08 54.1718C120.079 54.3266 120.036 54.4664 119.951 54.5925C119.867 54.7186 119.737 54.8185 119.564 54.8922C119.39 54.9658 119.177 55.002 118.924 54.9995C118.697 54.997 118.478 54.9596 118.268 54.8859Z" fill="#333333"/>
</svg>
