<svg width="16" height="16" viewBox="0 0 16 16" fill="none" xmlns="http://www.w3.org/2000/svg">
<path d="M5.8805 3.09868C5.8805 3.50188 5.8805 5.30155 5.8805 5.30155H4.2666V7.99524H5.8805V15.9999H9.1958V7.99546H11.4205C11.4205 7.99546 11.6289 6.70386 11.7299 5.29162C11.4403 5.29162 9.20833 5.29162 9.20833 5.29162C9.20833 5.29162 9.20833 3.72452 9.20833 3.44984C9.20833 3.17456 9.5698 2.80428 9.92707 2.80428C10.2837 2.80428 11.0363 2.80428 11.7334 2.80428C11.7334 2.43753 11.7334 1.17033 11.7334 9.62221e-09C10.8028 9.62221e-09 9.74408 9.62221e-09 9.27741 9.62221e-09C5.79855 -0.000185988 5.8805 2.69618 5.8805 3.09868Z" fill="white"/>
</svg>
