<svg width="16" height="16" viewBox="0 0 16 16" fill="none" xmlns="http://www.w3.org/2000/svg">
<g clip-path="url(#clip0)">
<path d="M16 3.03965C15.4111 3.30059 14.7792 3.47756 14.1153 3.55656C14.7932 3.15063 15.3121 2.50676 15.5581 1.7419C14.9222 2.11782 14.2203 2.39079 13.4724 2.53876C12.8736 1.89989 12.0217 1.50195 11.0769 1.50195C9.26422 1.50195 7.79449 2.97168 7.79449 4.78333C7.79449 5.04027 7.82349 5.29123 7.87949 5.5312C5.15201 5.39421 2.73347 4.08746 1.11477 2.10182C0.831818 2.58574 0.67085 3.14961 0.67085 3.75152C0.67085 4.89031 1.25075 5.89512 2.13059 6.48299C1.59268 6.465 1.08677 6.31703 0.64387 6.07107V6.11206C0.64387 7.70176 1.77566 9.0285 3.27637 9.33046C3.00142 9.40444 2.71148 9.44544 2.41153 9.44544C2.19958 9.44544 1.99462 9.42444 1.79365 9.38444C2.21156 10.6892 3.42335 11.638 4.85909 11.664C3.73629 12.5439 2.32055 13.0668 0.782851 13.0668C0.517909 13.0668 0.256941 13.0508 0 13.0218C1.45273 13.9546 3.17742 14.4985 5.03106 14.4985C11.0689 14.4985 14.3693 9.49744 14.3693 5.16027L14.3583 4.73536C15.0032 4.27541 15.5611 3.69753 16 3.03965Z" fill="white"/>
</g>
<defs>
<clipPath id="clip0">
<rect width="16" height="16" fill="white"/>
</clipPath>
</defs>
</svg>
