<svg width="16" height="16" viewBox="0 0 16 16" fill="none" xmlns="http://www.w3.org/2000/svg">
<path d="M3.63547 5.32324H0.197998V15.646H3.63547V5.32324Z" fill="white"/>
<path d="M14.9166 6.26639C14.1945 5.47817 13.2395 5.08398 12.0521 5.08398C11.6146 5.08398 11.2169 5.1378 10.8592 5.2455C10.5016 5.35314 10.1996 5.50415 9.95299 5.69861C9.70654 5.89308 9.51025 6.07361 9.36452 6.2402C9.22595 6.39843 9.09045 6.58276 8.95823 6.79127V5.3234H5.53101L5.54151 5.82346C5.54855 6.1569 5.55202 7.18461 5.55202 8.90675C5.55202 10.629 5.54509 12.8755 5.53115 15.6464H8.95823V9.88583C8.95823 9.53174 8.99621 9.25055 9.07275 9.04204C9.21869 8.68769 9.43895 8.39103 9.73426 8.15154C10.0295 7.91176 10.3957 7.79198 10.8334 7.79198C11.4304 7.79198 11.8698 7.99856 12.1511 8.41176C12.4323 8.82491 12.5729 9.39612 12.5729 10.1253V15.646H16V9.72974C15.9997 8.20875 15.6389 7.05436 14.9166 6.26639Z" fill="white"/>
<path d="M1.93746 0.354492C1.36115 0.354492 0.894175 0.523017 0.536439 0.859738C0.17874 1.19653 0 1.62173 0 2.13573C0 2.64255 0.173596 3.06629 0.520824 3.40647C0.867942 3.7467 1.32634 3.9169 1.89576 3.9169H1.9166C2.49999 3.9169 2.97054 3.74684 3.32813 3.40647C3.68572 3.06629 3.86103 2.64269 3.85413 2.13573C3.8472 1.62177 3.66999 1.19653 3.32287 0.859738C2.97579 0.522871 2.51382 0.354492 1.93746 0.354492Z" fill="white"/>
</svg>
