<svg width="120" height="111" viewBox="0 0 120 111" fill="none" xmlns="http://www.w3.org/2000/svg">
<g clip-path="url(#clip0)">
<path d="M63.6045 103.197C63.6045 103.197 64.5965 108.238 68.9065 108.429C73.2116 108.62 78.2921 108.811 80.1702 109.097C82.0482 109.383 86.9072 110.811 91.1016 110.525C95.296 110.238 96.182 108.052 101.811 108.715C107.441 109.383 109.984 109.383 109.984 109.383L105.457 105.388L74.2085 101.869L63.6045 103.197Z" fill="#B1AEAD"/>
<path d="M41.2987 14.332H80.6084C100.246 14.332 116.162 28.0495 116.162 44.9661V79.2184C116.162 96.1391 100.242 109.852 80.6084 109.852H41.2987C21.6606 109.852 5.74506 96.1349 5.74506 79.2184V44.9661C5.74024 28.0495 21.6606 14.332 41.2987 14.332Z" fill="#E0E3ED"/>
<path d="M15.4437 104.736C15.4437 104.736 -4.54109 88.2219 0.953513 79.3839C6.44812 70.546 15.4437 74.2679 15.4437 74.2679C15.4437 74.2679 6.44812 57.2891 17.4421 51.0071C28.4362 44.7251 35.4284 58.2185 35.4284 58.2185C35.4284 58.2185 35.9292 31.7046 54.4163 29.1445C72.9034 26.5844 75.4027 55.1937 75.4027 55.1937C75.4027 55.1937 92.8882 44.4927 99.3844 51.9365C105.881 59.3803 97.6364 73.1019 97.6364 73.1019C97.6364 73.1019 108.38 68.2182 115.122 77.2885C121.868 86.3589 99.6348 104.267 95.3875 106.827C91.1401 109.387 83.1462 109.852 77.6516 109.852C72.157 109.852 32.6835 109.852 29.6882 109.852C26.6929 109.852 17.4421 106.599 15.4437 104.736Z" fill="url(#paint0_linear)"/>
<path d="M41.2986 109.857H80.6084C91.8528 109.857 101.874 105.355 108.39 98.3301C102.765 99.0396 95.5657 99.9151 88.2267 99.2969C76.963 98.3467 37.2102 101.011 32.3512 101.674C27.9498 102.276 21.0153 97.6538 14.8273 99.6703C21.338 105.919 30.7814 109.857 41.2986 109.857Z" fill="#B1AEAD"/>
<path d="M26.7989 101.894C26.7989 101.894 22.1229 103.284 25.9947 104.255C29.8664 105.226 53.4099 103.84 60.5081 104.67C67.6063 105.499 98.7295 104.67 99.3748 104.67C100.02 104.67 85.9874 97.5826 74.8634 98.6946C63.7297 99.8107 26.7989 101.894 26.7989 101.894Z" fill="#686868"/>
<path d="M47.0099 51.9043L44.4673 54.9831C44.4673 54.9831 46.2346 58.4726 55.4902 59.2153C64.7458 59.958 66.5131 60.402 66.5131 60.402L66.5565 54.9831L47.0099 51.9043Z" fill="#2D517E"/>
<path d="M73.9725 42.0524C73.9725 42.0524 83.1462 43.7204 84.8894 47.1726C86.6327 50.6248 90.2492 58.8071 89.7339 60.0312C89.2187 61.2552 87.408 63.7614 88.6986 65.5953C89.9892 67.4335 90.7645 68.1015 92.0599 67.5455C93.3505 66.9895 92.3199 63.7033 94.0632 63.3713C95.8064 63.0394 95.1611 59.6411 94.3232 59.3092C93.4853 58.9773 92.8352 58.4752 92.8352 57.9731C92.8352 57.4711 91.3472 43.9444 88.1833 40.8864C85.0195 37.8243 78.817 35.8202 75.2631 35.9322L73.9725 42.0524Z" fill="#E9F3FE"/>
<path d="M94.3184 59.3092C93.4805 58.9773 92.8304 58.4752 92.8304 57.9731C92.8304 57.4711 91.3423 43.9444 88.1785 40.8864C85.0146 37.8243 78.8121 35.8202 75.2582 35.9322L73.9677 42.0565C73.9677 42.0565 75.6483 42.3636 77.7046 42.9818C77.5408 41.7868 77.4638 39.9197 78.4028 39.401C79.8234 38.6209 87.6391 41.5171 87.8366 42.6831C88.0292 43.8532 91.5205 57.6578 91.7131 58.1018C91.9058 58.5457 94.1691 60.4378 94.2317 61.2759C94.2943 62.11 92.5511 63.9481 92.8111 64.558C92.8304 64.6078 92.8978 64.6659 92.9941 64.724C93.1337 64.0518 93.3938 63.4958 94.0583 63.3713C95.8064 63.0352 95.1611 59.6411 94.3184 59.3092Z" fill="#92C1F8"/>
<path d="M48.6039 33.871C48.6039 33.871 45.936 33.7216 44.0387 33.6096C42.1413 33.4976 40.9808 30.6055 40.8074 29.6761C40.6341 28.7467 39.4302 24.4065 38.5248 23.2198C37.6195 22.0331 37.0609 21.4771 37.0609 21.4771C37.0609 21.4771 38.4815 19.5851 37.8362 18.693C37.1909 17.8009 35.2069 18.8423 35.2069 18.8423C35.2069 18.8423 32.1923 15.5769 30.3816 16.0582C28.571 16.5395 26.5051 18.2117 29.1777 20.2158C31.8456 22.2199 33.4829 22.5518 33.4829 22.5518C33.4829 22.5518 34.5183 28.8587 35.2069 32.0495C35.8955 35.2403 36.8442 38.8418 41.0627 39.2485C45.2811 39.6551 47.3085 39.5099 47.3085 39.5099L48.6039 33.871Z" fill="#E9F3FE"/>
<path d="M47.3181 33.8005C47.1255 35.8752 43.7979 37.8668 42.2714 37.6594C40.6341 37.4353 38.5248 35.4312 37.1909 32.2404C35.857 29.0455 34.4797 22.1079 33.4877 21.8091C32.7172 21.5768 29.3608 19.3901 27.9113 18.4316C27.9642 18.9752 28.3302 19.5768 29.1826 20.2117C31.8504 22.2158 33.4877 22.5477 33.4877 22.5477C33.4877 22.5477 34.5231 28.8546 35.2117 32.0454C35.9003 35.2362 36.849 38.8378 41.0675 39.2444C45.2859 39.651 47.3133 39.5058 47.3133 39.5058L48.6039 33.8669C48.6039 33.8711 48.0742 33.842 47.3181 33.8005Z" fill="#92C1F8"/>
<path d="M70.6545 73.1475L71.0013 72.6952L73.0238 72.2969L73.1538 76.6578L71.1939 77.3424L70.6738 76.5997L70.6545 73.1475Z" fill="#4DCA86"/>
<path d="M68.6753 73.1683L71.0012 72.6953L71.1938 77.3425L68.6753 77.9815V73.1683Z" fill="#E9F3FE"/>
<path d="M55.3216 59.7324C55.3216 59.7324 40.5474 71.645 39.6469 72.6076C38.7415 73.5744 37.9229 75.649 38.8715 77.3959C39.8202 79.1386 46.1913 84.5202 50.8865 84.3708C55.5817 84.2214 68.9305 79.4705 68.9305 79.4705L69.0606 72.4209L58.3796 75.0183C58.3796 75.0183 63.0748 69.2301 63.0748 66.7447C63.0748 64.2593 62.9544 60.6951 62.9544 60.6951L55.3216 59.7324Z" fill="#246641"/>
<path d="M42.8637 96.9355L42.7336 97.3961L42.7674 99.9562L47.2603 99.8732L47.2266 97.2841L46.8076 96.9895L42.8637 96.9355Z" fill="#4DCA86"/>
<path d="M42.6373 95.612L42.7336 97.3962L47.2266 97.2841L47.1784 95.334L42.6373 95.612Z" fill="#E9F3FE"/>
<path d="M49.7115 57.8613L49.177 58.0273C49.177 58.0273 43.692 64.2263 42.3581 66.0437C41.0241 67.8611 40.6341 69.4959 40.7641 72.056C40.8941 74.6161 40.5715 95.9351 40.5715 95.9351L48.3439 95.6944C48.3439 95.6944 48.4739 89.3875 48.5606 88.0514C48.6472 86.7154 50.2412 78.811 50.1979 76.6202C50.1545 74.4294 49.9812 73.9481 49.9812 73.9481C49.9812 73.9481 57.3972 69.0478 59.4679 67.1018C61.5338 65.1516 62.3091 63.6247 62.5354 62.5376C62.7618 61.4505 62.9544 60.6994 62.9544 60.6994L49.7115 57.8613Z" fill="#4DCA86"/>
<path d="M49.8897 56.3184L49.5189 56.4843L49.1818 58.0279C49.1818 58.0279 51.7485 59.6419 56.3377 60.256C60.9222 60.8701 62.4728 60.8701 62.9592 60.7L63.2915 59.9573L49.8897 56.3184Z" fill="#246641"/>
<path d="M58.4999 33.3691C58.4999 33.3691 51.0598 49.4558 50.1978 52.0533C49.3358 54.6507 49.5092 56.4308 49.5092 56.4308C49.5092 56.4308 51.6618 58.2855 55.8851 59.1776C60.1035 60.0697 63.2914 59.9576 63.2914 59.9576C63.2914 59.9576 65.5307 56.9909 66.0026 51.1612C66.4746 45.3315 66.0026 37.1698 64.5387 35.2031C63.0748 33.2363 63.0747 33.2363 63.0747 33.2363L58.4999 33.3691Z" fill="white"/>
<path opacity="0.3" d="M55.8802 59.1779C60.0987 60.0699 63.2866 59.9579 63.2866 59.9579C63.2866 59.9579 64.1101 58.8667 64.8613 56.709C62.6173 54.6178 60.7007 52.8336 60.7007 52.8336C60.7007 52.8336 54.6715 56.3232 54.2429 53.1324C53.8529 50.2279 58.9574 35.8755 59.8724 33.332L58.4951 33.3694C58.4951 33.3694 51.055 49.4561 50.193 52.0535C49.331 54.651 49.5092 56.431 49.5092 56.431C49.5092 56.431 51.6618 58.2899 55.8802 59.1779Z" fill="#231F20"/>
<path d="M58.2399 30.519L58.0473 33.1787C58.0473 33.1787 58.9045 34.3073 60.5033 34.2783C62.102 34.2492 63.6382 33.2493 63.6382 33.2493L63.7345 30.4941L58.2399 30.519Z" fill="#E9F3FE"/>
<path d="M59.5449 30.5107C59.492 30.5688 59.4631 30.6062 59.4631 30.6062C59.4631 30.6062 61.1582 31.3157 61.11 31.9837C61.0618 32.6518 59.5738 33.3198 58.6059 33.1538C58.4181 33.1206 58.2592 33.1704 58.1195 33.2659C58.3555 33.5273 59.1693 34.299 60.4984 34.2783C62.0972 34.2492 63.6334 33.2493 63.6334 33.2493L63.7297 30.4941L59.5449 30.5107Z" fill="#92C1F8"/>
<path d="M57.9173 23.8254L57.3057 23.1574C57.3057 23.1574 55.7214 22.4354 55.3987 21.6263C55.0761 20.8172 56.1114 19.9002 57.0456 20.0662C57.9799 20.2322 57.9847 20.2322 57.9847 20.2322C57.9847 20.2322 54.9171 18.7841 55.7214 16.614C56.5304 14.4439 58.8226 15.224 59.4342 15.697C60.0458 16.17 60.3732 16.448 60.3732 16.448C60.3732 16.448 61.6012 14.361 62.8918 15.253C64.1824 16.1451 66.8309 19.1783 67.8037 20.7923C68.7764 22.4064 69.1617 22.8255 68.5164 23.7425C67.8711 24.6595 66.2868 26.3855 66.1905 27.3067C66.0942 28.2237 66.0942 29.7838 65.6415 30.0908C65.1888 30.3979 63.7682 30.3149 63.7682 30.3149L57.9173 23.8254Z" fill="#2D517E"/>
<path d="M57.3057 23.1582C57.3057 23.1582 56.593 25.1084 56.4341 27.0544C56.2704 29.0045 56.4967 30.9215 58.2447 30.8966C59.988 30.8675 62.9303 30.8136 63.4119 30.8136C63.8934 30.8136 64.8999 30.3115 64.8325 29.6186C64.7699 28.9215 64.7988 28.4236 64.7988 28.4236C64.7988 28.4236 66.1568 28.5149 66.3927 27.4942C66.6287 26.4735 65.68 26.2702 65.4007 26.3614C65.1214 26.4527 64.9288 26.5855 64.9288 26.5855L64.9721 24.9341C64.9673 24.9299 59.9109 24.0213 57.3057 23.1582Z" fill="#E9F3FE"/>
<path d="M64.9673 24.9299C64.9673 24.9299 59.9061 24.0213 57.3009 23.1582C57.3009 23.1582 57.166 23.5275 57.0023 24.1084C58.3892 24.5814 61.3123 25.5357 62.5451 25.598C63.9175 25.6685 64.635 26.0834 64.9336 26.2204L64.9673 24.9299Z" fill="#92C1F8"/>
<path d="M57.821 32.348C57.821 32.348 54.8064 32.1239 52.9524 32.3106C51.0984 32.4973 48.0838 32.6094 48.0838 32.6094C48.0838 32.6094 47.8671 35.8749 47.3518 37.6175C46.8366 39.3602 46.4465 40.5843 46.4465 40.5843L50.0197 40.4349C50.0197 40.4349 49.7596 43.439 47.9104 46.7418C46.0613 50.0446 44.4673 54.9781 44.4673 54.9781C44.4673 54.9781 48.9025 54.7914 50.5831 54.3848C52.2637 53.9781 52.6923 53.8661 52.6923 53.8661C52.6923 53.8661 56.1788 42.5095 57.1275 40.0988C58.0762 37.6881 59.1501 33.8666 59.1501 33.8666C59.1501 33.8666 58.1292 33.0533 57.821 32.348Z" fill="#2D517E"/>
<path d="M58.5963 55.5796C58.5963 55.5796 62.7955 44.8372 63.1181 39.8829C63.4408 34.9287 62.7088 33.5014 62.7088 33.5014L63.6334 33.1113C63.6334 33.1113 68.2178 34.8748 71.4828 35.0117C74.7478 35.1486 75.7157 35.1528 75.7157 35.1528V43.1401C75.7157 43.1401 72.7108 43.5592 71.5502 43.5011C70.3897 43.4472 69.1906 43.4472 69.1906 43.4472C69.1906 43.4472 69.1039 50.6088 68.1986 54.5423C67.2932 58.4758 66.5179 60.4052 66.5179 60.4052C66.5179 60.4052 65.9593 59.1812 64.2353 58.3265C62.5162 57.4717 58.5963 55.5796 58.5963 55.5796Z" fill="#2D517E"/>
<path d="M45.57 99.4215C45.57 99.4215 42.5314 99.4381 42.2088 99.4381C41.8861 99.4381 41.5201 99.4547 41.496 100.309C41.4768 101.164 41.496 102.09 41.496 102.09C41.496 102.09 37.6195 101.737 36.9116 102.87C36.1989 104.002 35.621 105.098 36.4397 106.06C37.2583 107.027 38.8715 106.894 39.8828 106.712C40.8941 106.525 45.8493 105.396 46.3839 105.376C46.9232 105.359 47.1592 104.67 47.2025 103.986C47.2459 103.301 47.8719 101.185 48.0404 100.592C48.2186 99.9983 47.6119 99.3842 45.57 99.4215Z" fill="#2D517E"/>
<path d="M72.7927 71.9993C73.0527 71.9952 75.5375 72.0118 76.0721 71.8748C76.6066 71.7338 79.1733 70.7462 79.8523 71.6508C80.5313 72.5553 80.1124 78.2066 79.9824 79.9867C79.8523 81.7667 79.8523 82.9658 78.4943 83.0488C77.1363 83.1318 76.3947 81.4887 76.3947 80.8207C76.3947 80.1526 77.04 77.9826 75.8457 77.8705C74.6515 77.7585 73.2935 77.8996 73.0334 77.2316C72.7734 76.5635 72.3785 72.0076 72.7927 71.9993Z" fill="#2D517E"/>
<path d="M59.2175 26.4102L57.9702 28.2151L58.943 28.4516" fill="#92C1F8"/>
<path d="M36.6179 18.3771C36.6179 18.3771 34.6339 14.2569 35.5681 9.44375C36.4975 4.63059 31.6771 0 31.6771 0L21.3139 1.4398C21.3139 1.4398 27.0589 3.30697 26.0621 6.24466C25.0653 9.18234 28.2484 14.7175 29.8809 16.1158C31.5133 17.5141 37.1909 18.5307 37.1909 18.5307" fill="#3F95FF"/>
<path d="M32.3802 5.66797C32.5246 6.06215 32.6113 6.39824 32.645 6.68454C32.7028 7.15756 32.6354 7.51854 32.4428 7.7675C32.2502 8.02061 31.9323 8.16583 31.4893 8.20318C31.0029 8.24467 30.6369 8.13679 30.3865 7.87538L29.0526 8.55171L28.9467 7.65132L30.035 7.12021C30.0253 7.07872 30.0157 7.01233 30.0061 6.92105L29.9868 6.74678L28.8552 6.84636L28.754 5.99161L32.3802 5.66797ZM30.7573 6.93765C30.791 7.2198 31.0029 7.34428 31.3882 7.30693C31.7734 7.27374 31.9516 7.11606 31.9179 6.83391C31.9082 6.76338 31.8842 6.67624 31.836 6.57666L30.7284 6.67624L30.7573 6.93765Z" fill="white"/>
<path d="M31.5856 8.51758C31.7156 8.6711 31.8264 8.83707 31.9083 9.01134C31.9901 9.18561 32.0431 9.36403 32.0624 9.5383C32.0912 9.77896 32.0624 9.99057 31.9757 10.1773C31.889 10.364 31.7493 10.5134 31.5615 10.6213C31.3737 10.7333 31.1426 10.7997 30.8681 10.8246L30.6273 10.8453C30.1987 10.8827 29.8568 10.8121 29.6016 10.6296C29.3463 10.447 29.1971 10.169 29.1537 9.79555C29.1489 9.74991 29.1441 9.67523 29.1393 9.57149L28.1906 9.65448L27.9932 8.83292L31.5856 8.51758ZM30.035 9.95738C30.0976 10.0072 30.1891 10.0279 30.2998 10.0155L30.9933 9.95323C31.104 9.94493 31.1859 9.90758 31.2389 9.84949C31.2919 9.7914 31.3111 9.70842 31.2967 9.60884C31.287 9.51755 31.2581 9.44701 31.2196 9.39307L29.9435 9.5051C29.9194 9.56319 29.9098 9.64203 29.9194 9.73331C29.9339 9.8329 29.9676 9.90758 30.035 9.95738Z" fill="white"/>
<path d="M95.0552 55.6459V103.205H25.7876V55.6459L60.4214 47.252L95.0552 55.6459Z" fill="#3A8FF3"/>
<path d="M95.0552 55.6459V103.205H60.4214V47.252L95.0552 55.6459Z" fill="#3576C4"/>
<path d="M95.0552 73.3641L60.4214 64.9702L25.7876 73.3641V65.9037L60.4214 57.5098L95.0552 65.9037V73.3641Z" fill="#3F95FF"/>
<path d="M56.9927 70.4262L50.8625 71.8618C50.2894 71.9946 49.6971 71.7041 49.5382 71.2104L49.4948 71.0776C49.3407 70.5838 49.6778 70.0735 50.2509 69.9366L56.3811 68.5009C56.9542 68.3681 57.5465 68.6586 57.7054 69.1523L57.7488 69.2851C57.9077 69.7789 57.5706 70.2934 56.9927 70.4262Z" fill="#3F95FF"/>
<path d="M46.2972 72.8812L40.167 74.3169C39.5939 74.4497 39.0016 74.1592 38.8427 73.6655L38.7993 73.5327C38.6452 73.0389 38.9823 72.5286 39.5554 72.3916L45.6856 70.956C46.2587 70.8232 46.851 71.1137 47.0099 71.6074L47.0533 71.7402C47.2122 72.234 46.8703 72.7443 46.2972 72.8812Z" fill="#3F95FF"/>
<path d="M36.0304 75.2894L29.9001 76.7251C29.3271 76.8579 28.7347 76.5674 28.5758 76.0737L28.5325 75.9409C28.3784 75.4471 28.7155 74.9368 29.2885 74.7998L35.4188 73.3642C35.9919 73.2314 36.5842 73.5219 36.7431 74.0156L36.7864 74.1484C36.9453 74.6463 36.6034 75.1567 36.0304 75.2894Z" fill="#3F95FF"/>
<path d="M73.751 72.0473L79.4286 73.3792C80.0016 73.5119 80.5939 73.2215 80.7529 72.7277L80.7962 72.595C80.9503 72.1012 80.6132 71.5908 80.0401 71.4539L74.3577 70.122C73.7847 69.9892 73.1924 70.2797 73.0334 70.7734L72.9901 70.9062C72.836 71.4041 73.1731 71.9145 73.751 72.0473Z" fill="#3F95FF"/>
<path d="M84.2875 74.5961L89.9651 75.928C90.5382 76.0608 91.1305 75.7703 91.2894 75.2766L91.3328 75.1438C91.4869 74.65 91.1498 74.1397 90.5767 74.0027L84.8991 72.6708C84.3261 72.538 83.7337 72.8285 83.5748 73.3223L83.5315 73.455C83.3726 73.9529 83.7097 74.4633 84.2875 74.5961Z" fill="#3F95FF"/>
<path d="M63.7297 69.8656L69.4073 71.1975C69.9804 71.3303 70.5727 71.0399 70.7316 70.5461L70.7749 70.4133C70.929 69.9196 70.5919 69.4092 70.0189 69.2723L64.3413 67.9404C63.7682 67.8076 63.1759 68.098 63.017 68.5918L62.9737 68.7246C62.8147 69.2183 63.1567 69.7287 63.7297 69.8656Z" fill="#3F95FF"/>
<path d="M12.824 33.5503C12.824 33.5503 17.9671 38.4838 19.431 45.6205C20.8949 52.7573 30.3046 57.1929 30.3046 57.1929L44.005 50.7573C44.005 50.7573 34.8795 50.5914 34.5905 46.0521C34.3016 41.5128 26.6592 35.1146 23.5676 33.8491C20.476 32.5835 11.9379 33.5794 11.9379 33.5794" fill="#3F95FF"/>
<path d="M26.0621 49.5481C25.6335 49.0585 25.3156 48.6228 25.1086 48.2369C24.757 47.5979 24.6463 47.0627 24.7715 46.6312C24.8967 46.1955 25.2579 45.8594 25.855 45.6146C26.5099 45.349 27.0878 45.3449 27.5934 45.6063L29.0766 44.0918L29.746 45.3075L28.5277 46.515C28.5662 46.5689 28.6143 46.6602 28.6817 46.7847L28.8118 47.0212L30.3431 46.3988L30.974 47.5523L26.0621 49.5481ZM27.6079 47.0793C27.4008 46.6975 27.0348 46.6146 26.5147 46.8262C25.9946 47.0378 25.8357 47.3365 26.0476 47.7141C26.1006 47.8095 26.1873 47.9174 26.3077 48.0378L27.8053 47.4278L27.6079 47.0793Z" fill="white"/>
<path d="M25.5372 45.2171C25.2627 45.0553 25.0171 44.8686 24.8004 44.6611C24.5837 44.4495 24.4103 44.2254 24.2803 43.9889C24.1021 43.6653 24.0203 43.3582 24.0347 43.0595C24.0492 42.7607 24.1551 42.4952 24.3574 42.2587C24.5596 42.0222 24.8437 41.8271 25.2097 41.6778L25.5372 41.545C26.115 41.3085 26.6399 41.2628 27.1022 41.4122C27.5645 41.5616 27.9353 41.8852 28.2098 42.3873C28.2435 42.4495 28.2917 42.5491 28.3591 42.6943L29.6449 42.1715L30.3961 43.242L25.5372 45.2171ZM26.8904 42.5367C26.77 42.4952 26.6351 42.5035 26.4858 42.5657L25.5516 42.9474C25.4023 43.0097 25.306 43.0927 25.2675 43.1964C25.229 43.3001 25.2482 43.4246 25.3253 43.5615C25.3927 43.686 25.4698 43.7773 25.5564 43.8354L27.2804 43.1342C27.2852 43.0387 27.2515 42.9309 27.1841 42.8064C27.1022 42.6694 27.0059 42.5782 26.8904 42.5367Z" fill="white"/>
<path d="M116.923 57.9982C116.923 57.9982 114.895 62.2968 110.133 65.276C105.37 68.2552 105.014 74.7156 105.014 74.7156L113.908 80.1719C113.908 80.1719 111.236 75.172 114.462 73.6285C117.689 72.0849 120.019 65.9772 120 63.915C119.981 61.8528 116.634 57.5293 116.634 57.5293" fill="#3F95FF"/>
<path d="M109.295 70.0733C109.521 69.6915 109.743 69.3845 109.959 69.1563C110.316 68.7704 110.677 68.5463 111.029 68.4799C111.385 68.4136 111.741 68.5048 112.102 68.7538C112.497 69.0277 112.675 69.3389 112.642 69.6915L114.202 70.0318L113.518 70.7662L112.261 70.4758C112.232 70.5131 112.184 70.567 112.112 70.6417L111.977 70.7828L112.902 71.4218L112.257 72.1189L109.295 70.0733ZM111.573 70.1563C111.785 69.928 111.736 69.704 111.419 69.4841C111.106 69.2683 110.841 69.2725 110.624 69.5007C110.571 69.5588 110.518 69.6376 110.465 69.7413L111.37 70.3679L111.573 70.1563Z" fill="white"/>
<path d="M112.3 68.463C112.334 68.2639 112.396 68.0772 112.483 67.8946C112.57 67.712 112.68 67.5502 112.815 67.405C112.998 67.21 113.196 67.073 113.417 66.9859C113.639 66.9029 113.865 66.878 114.101 66.9154C114.337 66.9527 114.563 67.0481 114.785 67.2017L114.982 67.3386C115.334 67.5792 115.526 67.8489 115.56 68.1435C115.594 68.4381 115.469 68.741 115.189 69.0439C115.156 69.0813 115.098 69.1394 115.011 69.2182L115.786 69.7535L115.237 70.4879L112.3 68.463ZM114.669 68.3759C114.664 68.3012 114.616 68.2307 114.525 68.1643L113.961 67.7743C113.87 67.712 113.778 67.6871 113.692 67.6954C113.605 67.7079 113.518 67.7535 113.441 67.8365C113.374 67.9112 113.33 67.9817 113.311 68.044L114.351 68.7618C114.424 68.7327 114.491 68.6829 114.558 68.6083C114.64 68.5294 114.674 68.4506 114.669 68.3759Z" fill="white"/>
<path d="M85.6937 41.6552C87.558 41.6552 89.0694 40.3529 89.0694 38.7465C89.0694 37.1401 87.558 35.8379 85.6937 35.8379C83.8293 35.8379 82.3179 37.1401 82.3179 38.7465C82.3179 40.3529 83.8293 41.6552 85.6937 41.6552Z" fill="#FFDF00"/>
<path d="M85.6936 41.3477C87.3612 41.3477 88.713 40.1829 88.713 38.7461C88.713 37.3093 87.3612 36.1445 85.6936 36.1445C84.0261 36.1445 82.6743 37.3093 82.6743 38.7461C82.6743 40.1829 84.0261 41.3477 85.6936 41.3477Z" fill="#FFC100"/>
<path d="M105.905 55.7367C110.149 55.7367 113.59 52.7718 113.59 49.1144C113.59 45.4571 110.149 42.4922 105.905 42.4922C101.66 42.4922 98.2191 45.4571 98.2191 49.1144C98.2191 52.7718 101.66 55.7367 105.905 55.7367Z" fill="#FFDF00"/>
<path d="M105.905 55.0354C109.7 55.0354 112.777 52.3845 112.777 49.1144C112.777 45.8443 109.7 43.1934 105.905 43.1934C102.11 43.1934 99.0329 45.8443 99.0329 49.1144C99.0329 52.3845 102.11 55.0354 105.905 55.0354Z" fill="#FFC100"/>
<path d="M10.7196 64.8695C14.9643 64.8695 18.4053 61.9046 18.4053 58.2472C18.4053 54.5899 14.9643 51.625 10.7196 51.625C6.47488 51.625 3.03387 54.5899 3.03387 58.2472C3.03387 61.9046 6.47488 64.8695 10.7196 64.8695Z" fill="#FFDF00"/>
<path d="M10.7196 64.1682C14.5148 64.1682 17.5914 61.5173 17.5914 58.2472C17.5914 54.9771 14.5148 52.3262 10.7196 52.3262C6.92436 52.3262 3.84772 54.9771 3.84772 58.2472C3.84772 61.5173 6.92436 64.1682 10.7196 64.1682Z" fill="#FFC100"/>
<path d="M19.3684 47.7451C22.2913 47.7451 24.6607 45.7035 24.6607 43.1851C24.6607 40.6666 22.2913 38.625 19.3684 38.625C16.4455 38.625 14.076 40.6666 14.076 43.1851C14.076 45.7035 16.4455 47.7451 19.3684 47.7451Z" fill="#FFDF00"/>
<path d="M19.3684 47.2605C21.9801 47.2605 24.0973 45.4362 24.0973 43.1859C24.0973 40.9356 21.9801 39.1113 19.3684 39.1113C16.7567 39.1113 14.6395 40.9356 14.6395 43.1859C14.6395 45.4362 16.7567 47.2605 19.3684 47.2605Z" fill="#FFC100"/>
<path d="M94.4581 33.4097C100.227 33.4097 104.903 29.3804 104.903 24.4099C104.903 19.4395 100.227 15.4102 94.4581 15.4102C88.6895 15.4102 84.0131 19.4395 84.0131 24.4099C84.0131 29.3804 88.6895 33.4097 94.4581 33.4097Z" fill="#FFDF00"/>
<path d="M94.4581 32.4561C99.6151 32.4561 103.796 28.8541 103.796 24.4107C103.796 19.9673 99.6151 16.3652 94.4581 16.3652C89.3012 16.3652 85.1207 19.9673 85.1207 24.4107C85.1207 28.8541 89.3012 32.4561 94.4581 32.4561Z" fill="#FFC100"/>
<path d="M30.2613 67.0319C29.8856 64.7746 28.8551 61.8411 25.725 61.5424C23.0282 61.2851 21.1839 63.451 20.7264 65.4925C20.0618 68.4468 20.9912 71.6168 21.675 74.5047C22.513 78.0482 23.0812 81.4464 21.9688 84.9941C20.6108 89.3093 17.5866 94.193 18.4053 98.695C17.158 94.9772 17.8129 90.6827 17.7407 86.882C17.6877 84.1269 17.3988 81.3717 16.7728 78.6664C16.3153 76.6748 15.7326 74.4383 14.0279 72.928C10.8014 70.0774 5.67762 72.2101 5.50425 75.9901C5.3935 78.3552 6.94412 80.3967 8.40325 82.2804C10.2139 84.6248 11.7838 87.0479 12.7517 89.7533C13.4596 91.7408 13.9171 93.7822 14.4998 95.7988C13.7534 94.4917 12.9492 93.1847 11.7838 92.1433C9.80459 90.3715 5.46573 89.1765 4.63745 92.4213C4.29554 93.7532 4.30517 95.2179 5.35015 96.3257C6.51071 97.5539 8.44177 97.8858 9.97795 98.641C13.6571 100.458 16.1804 103.985 20.8371 103.948C20.996 103.948 21.1164 103.894 21.2031 103.815C21.4583 103.674 21.5932 103.359 21.3187 103.118C21.2416 103.048 21.3187 103.118 21.4343 102.84C21.4343 102.836 21.4343 102.844 21.4343 102.84C21.675 102.699 21.468 102.429 21.2368 102.172C21.1646 102.093 21.3042 102.251 21.2368 102.172C21.1646 99.1057 21.964 96.0187 23.8421 93.3299C25.7394 90.6163 27.5019 87.9525 28.6577 84.9277C30.844 79.2058 31.2533 72.9861 30.2613 67.0319Z" fill="#26AC63"/>
<path d="M100.179 104.79L74.2036 101.865L63.6045 103.197C63.6045 103.197 64.5965 108.239 68.9065 108.429C73.2116 108.62 78.2921 108.811 80.1702 109.093C80.8829 109.201 82.0338 109.475 83.4111 109.757C89.575 109.346 95.3008 107.575 100.179 104.79Z" fill="#686868"/>
<path d="M115.7 107.134C115.637 107.25 115.522 107.421 115.319 107.591C115.127 107.757 114.857 107.844 114.578 107.827L113.364 107.761C113.258 107.757 113.162 107.806 113.128 107.894V107.898C113.056 108.08 112.863 108.201 112.642 108.205L97.9253 108.528L94.9926 108.367L94.8144 108.553L91.6121 108.516L91.3424 108.047L90.8464 108.001L90.5093 107.213L115.719 107.109C115.709 107.118 115.705 107.126 115.7 107.134Z" fill="#039BE5"/>
<path d="M89.5654 103.038C89.5654 103.038 88.2267 100.466 85.7804 101.765C83.6374 102.902 84.0804 106.291 84.2201 107.117L83.9986 105.939C83.257 102.499 84.2345 101.312 84.2345 101.312C87.7018 97.5863 89.5654 103.038 89.5654 103.038Z" fill="#2D517E"/>
<path d="M115.714 107.109L90.5045 107.213C90.5045 107.213 105.139 106.985 115.714 107.109Z" fill="#039BE5"/>
<path d="M65.1021 95.7145L65.4488 95.4822C67.8181 90.8142 69.6673 89.9014 69.6673 89.9014C82.0867 87.3496 95.7342 89.7852 95.7342 89.7852C99.5337 90.7022 106.338 95.8224 106.338 95.8224C106.338 95.8224 111.515 97.4199 113.403 99.0339C113.403 99.0339 114.52 99.7103 114.871 101.66L115.416 102.167V103.424L115.767 103.806V105.316L115.574 105.557L115.748 106.868C115.757 106.951 115.748 107.034 115.709 107.108C105.134 106.984 90.4996 107.212 90.4996 107.212C90.4996 107.212 89.7676 99.2746 86.1318 100.275C82.4961 101.27 84.1141 106.395 84.1141 106.395L84.2538 107.303L72.3303 105.884C70.1296 105.884 69.6095 105.013 69.6095 105.013C69.6095 105.013 68.3623 98.4821 66.0219 99.2041C63.6815 99.926 64.7313 104.096 64.7313 104.096C63.6382 102.752 64.5917 99.3327 64.5917 99.3327C64.6543 96.3991 65.1021 95.7145 65.1021 95.7145Z" fill="#3A8FF3"/>
<path d="M87.8125 101.383C87.8125 101.383 90.8415 102.034 90.2347 107.826C90.0951 109.179 88.8286 110.324 87.2828 110.415C87.2298 110.42 87.1816 110.42 87.1287 110.424C86.8542 110.432 84.2249 110.183 84.0708 105.44C83.9119 100.694 87.8125 101.383 87.8125 101.383Z" fill="#2D517E"/>
<path d="M97.4196 106.536C97.4196 106.536 115.175 107.615 115.55 106.158V106.333C115.55 106.333 115.237 107.067 112.916 107.063C112.916 107.063 103.092 107.499 99.6252 107.233C99.6252 107.233 92.5222 107.42 92.3488 105.656L97.2463 106.001L97.4196 106.536Z" fill="#2D517E"/>
<path d="M96.9574 105.81L92.3536 105.428L92.2188 104.486L96.4951 104.723L96.9574 105.81Z" fill="#2D517E"/>
<path d="M114.616 104.656C114.313 106.104 113.696 106.055 113.696 106.055C112.714 106.532 100.049 106.324 100.049 106.324C98.9221 105.806 98.8643 104.689 98.8643 104.689C105.794 105.109 114.616 104.656 114.616 104.656Z" fill="#2D517E"/>
<path d="M113.403 99.0352C113.403 99.0352 114.419 99.6078 114.871 101.662C114.871 101.662 114.891 102.072 113.995 102.151C113.099 102.23 112.521 101.944 112.521 101.944V100.579C112.521 100.579 113.21 100.189 113.403 99.0352Z" fill="#FFFDE7"/>
<path d="M91.8143 99.1836L93.1434 99.2583L98.8595 100.636C98.8595 100.636 100.015 101.254 100.246 101.976C100.246 101.976 99.004 102.237 97.9638 102.329L92.2188 101.798C92.2188 101.798 91.1786 101.096 90.7452 99.7562C90.7452 99.7562 90.803 99.557 91.8143 99.1836Z" fill="#FFFDE7"/>
<path d="M91.8143 99.1836L93.1434 99.2583L93.5142 99.3496L92.5366 99.2956C91.5254 99.6691 91.4676 99.8682 91.4676 99.8682C91.8384 101.005 92.6426 101.686 92.8737 101.86L92.214 101.798C92.214 101.798 91.1738 101.096 90.7404 99.7562C90.7452 99.7562 90.803 99.557 91.8143 99.1836Z" fill="#3F95FF"/>
<path d="M112.396 101.894C112.396 101.894 100.309 101.848 100.323 101.848C100.338 101.848 99.8804 100.852 99.1773 100.649L112.401 100.604C112.396 100.604 112.319 101.628 112.396 101.894Z" fill="#2D517E"/>
<path d="M81.976 90.384C88.949 90.0894 95.3538 90.4753 96.967 90.5873C97.2222 90.6039 97.4726 90.6703 97.7038 90.7865C102.25 93.0852 105.789 95.7615 105.789 95.7615C104.282 95.8361 88.7227 95.7698 86.0837 95.7283C85.8381 95.7241 85.607 95.6038 85.477 95.4171C83.3099 92.3093 82.2842 91.0977 81.8556 90.6496C81.7497 90.5417 81.8219 90.3881 81.976 90.384Z" fill="#E9F3FE"/>
<path d="M76.4958 89.8477C76.6596 89.8602 76.8185 89.8602 76.9774 89.856C81.427 89.6984 84.2538 96.4741 84.2538 96.4741C84.3742 96.9928 83.3677 96.6899 83.3677 96.6899L82.4816 96.0758L67.9674 94.748C68.6946 92.4079 70.9531 90.3623 70.9531 90.3623C73.1827 89.6942 75.6916 89.7938 76.4958 89.8477Z" fill="#3576C4"/>
<path d="M82.4768 93.9072V95.9155V95.9943L75.682 95.401V95.1728C75.8409 92.0069 76.8907 90.1604 76.8907 90.1604C80.7432 90.1231 82.4768 93.9072 82.4768 93.9072Z" fill="#E9F3FE"/>
<path d="M75.1331 95.2793C75.605 95.383 75.1331 95.2793 75.1331 95.2793V95.2793Z" fill="#BBDEFB"/>
<path d="M76.4814 90.1223C75.2149 92.2634 75.133 95.2591 75.133 95.2799C75.0945 95.2716 75.056 95.2633 75.0078 95.2508C74.3288 95.1015 70.2693 94.8732 70.2693 94.8732C71.0205 91.4874 71.7718 90.4003 71.7718 90.4003C73.8521 90.0103 76.4814 90.1223 76.4814 90.1223Z" fill="#E9F3FE"/>
<path d="M71.6658 90.4043C70.6834 92.3545 70.12 94.8606 70.12 94.8606L68.3478 94.6739L68.4538 94.4913C70.0574 90.7113 71.6658 90.4043 71.6658 90.4043Z" fill="#E9F3FE"/>
<path d="M65.4489 95.4824C65.4489 95.4824 65.4681 95.6525 65.3188 95.8932C65.1695 96.1339 64.9962 98.3786 64.9962 98.3786L64.635 98.3579C64.7072 96.5529 65.078 95.7314 65.078 95.7314L65.4489 95.4824Z" fill="#3F95FF"/>
<path d="M66.2483 98.3369C66.2483 98.3369 67.64 98.117 69.1376 101.478C69.1376 101.478 70.1922 104.407 71.1361 104.914C71.1361 104.914 73.0623 105.582 83.96 106.461L84.1189 107.171C84.1189 107.171 70.9579 105.789 70.6353 105.461C70.6353 105.461 69.884 105.391 69.7974 105.009C69.7059 104.631 68.9594 99.1751 66.2145 98.8348C66.2145 98.8348 65.2707 98.6564 64.9143 99.3867C64.9095 99.3867 64.8036 98.7851 66.2483 98.3369Z" fill="#1E88E5"/>
<path d="M91.5253 99.1667C90.8222 99.3741 90.5478 99.5982 90.5478 99.5982C90.2588 99.8969 91.0486 100.843 91.0486 100.843L88.5782 100.594C87.3213 99.1998 86.4545 99.5567 86.4545 99.5567C82.1205 99.8762 83.1606 105.391 83.1606 105.391L74.507 104.353L70.693 103.83C70.2548 102.752 68.2563 99.2123 67.9578 97.9717C67.6592 96.731 67.9578 95.1875 67.9578 95.1875C89.3872 96.9426 91.5253 99.1667 91.5253 99.1667Z" fill="#3576C4"/>
<path d="M112.651 108.204C112.868 108.2 113.056 108.084 113.128 107.905C113.167 107.814 113.268 107.756 113.383 107.76L114.476 107.822C114.476 107.822 114.346 110.316 110.455 109.942C106.569 109.569 106.877 108.328 106.877 108.328L112.651 108.204Z" fill="#2D517E"/>
<path d="M87.6777 102.292C87.6777 102.292 90.0422 102.889 89.5558 107.516C89.445 108.594 88.4915 109.433 87.2539 109.507C87.2154 109.511 87.1721 109.511 87.1287 109.511C86.9072 109.52 84.8076 109.321 84.6872 105.532C84.562 101.74 87.6777 102.292 87.6777 102.292Z" fill="#E0E3ED"/>
<path d="M84.8124 104.135C85.0243 107.728 87.2442 107.927 87.485 107.923C87.5332 107.923 87.5765 107.919 87.6199 107.919C88.4241 107.877 89.1223 107.57 89.5798 107.101C89.5702 107.247 89.5557 107.392 89.5413 107.545C89.4257 108.624 88.477 109.462 87.2394 109.537C87.2009 109.541 87.1576 109.541 87.1142 109.541C86.8927 109.55 84.7931 109.35 84.6727 105.562C84.6535 104.994 84.7064 104.525 84.8124 104.135Z" fill="#B1AEAD"/>
<path d="M90.2974 105.915C90.5815 109.939 87.1239 110.425 87.1239 110.425L90.1192 110.4C91.8817 110.512 92.657 108.47 92.657 108.47L91.6024 108.412L91.3183 107.919L90.7982 107.869L90.5478 107.213L90.2974 105.807V105.915Z" fill="#2D517E"/>
<path d="M69.0461 102.756L69.6866 105.03C69.6866 105.03 70.0141 105.664 71.6177 105.847C71.6177 105.847 71.5888 108.108 69.8937 108.362C68.1986 108.615 67.0717 108.208 67.0717 108.208C67.0717 108.208 69.86 107.146 69.0461 102.756Z" fill="#2D517E"/>
<path d="M66.4168 99.1467C67.8133 99.2256 68.6753 101.761 68.6753 101.761C68.3671 101.23 67.8567 100.545 67.5485 100.387C67.1921 100.205 66.7395 100.026 66.4264 100.234C64.5869 101.466 64.9962 104.479 64.9962 104.479L64.7362 104.093C63.9368 100.329 65.3381 99.0845 66.4168 99.1467Z" fill="#2D517E"/>
<path d="M66.7442 100.1C67.7989 100.017 68.8776 101.835 69.0461 102.756C69.2147 103.677 70.303 108.113 67.0669 108.204C67.0669 108.204 65.0491 107.619 64.9336 104.391C64.818 101.163 66.1038 100.15 66.7442 100.1Z" fill="#2D517E"/>
<path d="M66.8309 100.932C67.6785 100.866 68.5357 102.301 68.6705 103.04C68.8053 103.778 69.5518 107.343 66.9561 107.417C66.9561 107.417 65.5114 107.011 65.4151 104.421C65.3236 101.828 66.3205 100.973 66.8309 100.932Z" fill="#E0E3ED"/>
<path d="M65.7522 102.014C65.7185 102.358 65.7041 102.74 65.7185 103.167C65.8245 105.964 67.457 106.408 67.457 106.408C68.0011 106.395 68.4153 106.25 68.7283 106.022C68.5116 106.781 68.0059 107.387 66.9513 107.416C66.9513 107.416 65.5066 107.009 65.4103 104.42C65.3766 103.337 65.5259 102.561 65.7522 102.014Z" fill="#B1AEAD"/>
<path d="M84.2201 107.117L84.2538 107.3C84.2538 107.304 84.2394 107.238 84.2201 107.117Z" fill="black"/>
<path d="M81.4896 94.3089C82.2264 94.5537 83.1607 95.5827 83.1607 95.5827L83.7482 96.0599C83.7482 96.0599 82.9295 95.9769 82.4817 95.7114C82.1542 95.5205 81.8364 95.5786 81.6823 95.6284C81.6052 95.6533 81.5234 95.6657 81.4367 95.6657C80.7143 95.6657 79.626 95.4915 79.0915 95.4002C78.8266 95.3545 78.581 95.2176 78.4317 95.0184C77.7238 94.0641 80.541 93.9936 81.4896 94.3089Z" fill="#3576C4"/>
<path d="M84.379 91.309L84.2634 91.1016C83.0306 91.3007 84.2923 91.4667 84.379 91.309Z" fill="#E3F2FD"/>
<path d="M84.2634 91.1007C83.4303 91.2625 83.9696 91.3248 84.379 91.3082L86.6519 95.3537L82.4768 90.6152H86.4834L84.2634 91.1007Z" fill="#E3F2FD"/>
<path d="M74.6659 90.3594L72.2774 90.795L70.7942 94.4796C70.6112 93.1228 72.0655 90.5544 72.0655 90.5544L74.6659 90.3594Z" fill="#E3F2FD"/>
<path d="M68.7957 94.5128L69.4506 94.6705L68.6079 94.6248C68.5549 94.351 69.3687 93.127 69.3687 93.127L68.7957 94.5128Z" fill="white"/>
<path d="M78.7543 90.7981L77.4108 90.7234L76.4766 91.7317L77.1411 90.4952C77.7045 90.1715 78.7543 90.7981 78.7543 90.7981Z" fill="white"/>
<path d="M25.7876 106.419C25.595 107.249 26.2403 107.921 27.2275 107.921H52.6201C53.6073 107.921 54.5656 107.249 54.7535 106.419L58.1003 91.2868C58.134 91.1374 58.1436 90.9798 58.134 90.8262C58.0281 89.403 57.0601 89.2246 56.1259 89.2246H31.4652C30.478 89.2246 29.5197 89.8968 29.3319 90.7267L25.7876 106.419Z" fill="#2D517E"/>
<path d="M25.306 106.395C25.1134 107.246 25.7587 107.935 26.7459 107.935H51.5174C52.5046 107.935 53.4629 107.246 53.6507 106.395L57.1805 90.7484C57.3731 89.8978 56.7278 89.209 55.7406 89.209H30.6032C29.616 89.209 29.12 89.5492 28.9274 90.3998L25.306 106.395Z" fill="#3576C4"/>
<path d="M55.548 90.1309L52.1241 105.321H27.0878L30.5117 90.1309H55.548Z" fill="#E9F3FE"/>
<path d="M15.7904 107.266C15.7904 106.896 16.1371 106.598 16.5657 106.598H33.2325V107.934H16.5657C16.1371 107.934 15.7904 107.635 15.7904 107.266Z" fill="#3A8FF3"/>
<path d="M42.0499 107.266C42.0499 107.635 41.7032 107.934 41.2746 107.934H24.603V106.598H41.2698C41.7032 106.598 42.0499 106.896 42.0499 107.266Z" fill="#3A8FF3"/>
<path d="M53.9685 106.598H46.4032H36.5601C36.1315 106.598 35.7848 106.896 35.7848 107.266C35.7848 107.635 36.1315 107.934 36.5601 107.934H53.9637C54.3923 107.934 54.739 107.635 54.739 107.266C54.739 106.896 54.3971 106.598 53.9685 106.598Z" fill="#2D517E"/>
<path d="M82.3131 30.2322L83.0017 30.6223C83.0306 30.6389 83.0499 30.6596 83.0643 30.6845L83.4014 31.3318C83.4544 31.4355 83.6229 31.448 83.6952 31.3525L84.1479 30.7592C84.1671 30.7343 84.1912 30.7177 84.2201 30.7053L84.9713 30.4148C85.0917 30.3692 85.1062 30.2239 84.9954 30.1617L84.3068 29.7717C84.2779 29.7551 84.2586 29.7343 84.2442 29.7094L83.9071 29.0621C83.8541 28.9584 83.6856 28.946 83.6133 29.0414L83.1606 29.6347C83.1414 29.6596 83.1173 29.6762 83.0884 29.6887L82.3372 29.9791C82.2168 30.0289 82.2023 30.17 82.3131 30.2322Z" fill="#FFC100"/>
<path d="M10.1946 41.3221L10.8833 41.7121C10.9122 41.7287 10.9314 41.7495 10.9459 41.7743L11.283 42.4216C11.3359 42.5254 11.5045 42.5378 11.5767 42.4424L12.0294 41.849C12.0486 41.8241 12.0727 41.8075 12.1016 41.7951L12.8528 41.5046C12.9732 41.459 12.9877 41.3138 12.8769 41.2515L12.1883 40.8615C12.1594 40.8449 12.1401 40.8242 12.1257 40.7993L11.7886 40.152C11.7356 40.0483 11.5671 40.0358 11.4948 40.1312L11.0422 40.7246C11.0229 40.7495 10.9988 40.7661 10.9699 40.7785L10.2187 41.069C10.0983 41.1146 10.0839 41.2598 10.1946 41.3221Z" fill="#FFC100"/>
<path d="M17.0425 63.7029L17.7311 64.093C17.76 64.1096 17.7793 64.1303 17.7937 64.1552L18.1308 64.8025C18.1838 64.9062 18.3523 64.9187 18.4245 64.8232L18.8772 64.2299C18.8965 64.205 18.9206 64.1884 18.9494 64.176L19.7007 63.8855C19.8211 63.8399 19.8355 63.6946 19.7248 63.6324L19.0361 63.2424C19.0072 63.2258 18.988 63.205 18.9735 63.1801L18.6364 62.5328C18.5835 62.4291 18.4149 62.4167 18.3427 62.5121L17.89 63.1054C17.8708 63.1303 17.8467 63.1469 17.8178 63.1594L17.0665 63.4498C16.9462 63.4955 16.9317 63.6407 17.0425 63.7029Z" fill="#FFC100"/>
<path d="M105.563 20.5604L106.251 20.9504C106.28 20.967 106.3 20.9877 106.314 21.0126L106.651 21.6599C106.704 21.7636 106.873 21.7761 106.945 21.6807L107.398 21.0873C107.417 21.0624 107.441 21.0458 107.47 21.0334L108.221 20.7429C108.341 20.6973 108.356 20.5521 108.245 20.4898L107.557 20.0998C107.528 20.0832 107.508 20.0624 107.494 20.0376L107.157 19.3903C107.104 19.2865 106.935 19.2741 106.863 19.3695L106.41 19.9629C106.391 19.9878 106.367 20.0044 106.338 20.0168L105.587 20.3073C105.467 20.3529 105.452 20.4981 105.563 20.5604Z" fill="#FFC100"/>
</g>
<defs>
<linearGradient id="paint0_linear" x1="55.5714" y1="38.9105" x2="57.9753" y2="92.2281" gradientUnits="userSpaceOnUse">
<stop offset="1.11884e-07" stop-color="white" stop-opacity="0"/>
<stop offset="1" stop-color="#F1F2F2"/>
</linearGradient>
<clipPath id="clip0">
<rect width="120" height="110.557" fill="white"/>
</clipPath>
</defs>
</svg>
