<svg width="60" height="60" viewBox="0 0 60 60" fill="none" xmlns="http://www.w3.org/2000/svg">
<path fill-rule="evenodd" clip-rule="evenodd" d="M52.8469 34.1075C52.8469 35.3975 51.8044 36.4475 50.5194 36.4475H26.3019V31.7325C26.3019 28.925 24.5094 24.75 19.5744 24.75C17.7019 24.75 16.0894 25.3825 14.9069 26.5775C12.9119 28.5925 12.8694 31.46 12.8719 31.7675V36.36H11.5544C10.4819 36.1525 9.65439 35.2475 9.65439 34.1075V20.0725C9.65439 18.7825 10.5894 17.7325 13.2969 17.7325H50.5194C51.8044 17.7325 52.8469 18.7825 52.8469 20.0725V34.1075ZM45.9519 52.82H28.3994V48.5325C28.3994 47.7575 28.0144 47.03 27.3769 46.595L19.3469 41.125L17.5244 39.885V36.4475V31.78C17.5419 30.7075 17.9119 29.43 19.5744 29.43C21.2444 29.43 21.6244 30.695 21.6494 31.7325V36.4475V38.7875C21.6494 40.075 22.6844 41.12 23.9619 41.125C23.9644 41.125 23.9644 41.1275 23.9644 41.1275L45.9519 41.19V52.82ZM19.6544 9.465C19.6694 8.4225 20.0869 7.18 21.9794 7.18C23.8744 7.18 24.2894 8.43 24.3069 9.475V12.5H19.6544V9.465ZM29.7744 9.6425C29.7894 8.5725 30.2169 7.2975 32.1594 7.2975C34.1019 7.2975 34.5294 8.5825 34.5469 9.655V12.5H29.7744V9.6425ZM40.4544 9.6425C40.4719 8.5725 40.8994 7.2975 42.8419 7.2975C44.7844 7.2975 45.2094 8.5825 45.2269 9.655V12.5H40.4544V9.6425ZM49.9994 12.5V9.6825C50.0019 9.3675 49.9794 6.5375 47.9494 4.475C47.0644 3.575 45.4594 2.5 42.8419 2.5C40.2194 2.5 38.6144 3.575 37.7269 4.475C37.6394 4.5625 37.5794 4.6575 37.4969 4.75C37.4169 4.6575 37.3569 4.5625 37.2694 4.475C36.3844 3.575 34.7769 2.5 32.1594 2.5C29.5394 2.5 27.9294 3.575 27.0469 4.475C27.0369 4.4825 27.0319 4.4925 27.0244 4.5C27.0019 4.475 26.9844 4.45 26.9619 4.425C26.0994 3.5475 24.5319 2.5 21.9794 2.5C19.4244 2.5 17.8569 3.5475 16.9944 4.425C15.0219 6.4325 14.9969 9.1825 14.9994 9.4625V12.5H12.4994C7.49939 12.5 4.99939 16.195 4.99939 20.0725V34.1075C4.99939 37.8375 7.90189 40.8575 11.5544 41.0825L12.8719 41.125C12.8719 41.9 13.2544 42.6275 13.8919 43.0625L23.7444 49.7725V55.16C23.7444 56.4525 24.7844 57.5 26.0719 57.5H48.2794C49.5644 57.5 50.6069 56.4525 50.6069 55.16V41.1175C54.4194 41.07 57.4994 37.955 57.4994 34.1075V20.0725C57.4994 16.195 53.8544 12.5 49.9994 12.5Z" fill="#3B8EF3"/>
<path fill-rule="evenodd" clip-rule="evenodd" d="M30.0294 25.3559H31.8644C32.3819 25.3559 32.7819 25.2209 33.0619 24.9509C33.3419 24.6834 33.4844 24.2934 33.4844 23.7834C33.4844 23.2934 33.3419 22.9159 33.0619 22.6509C32.7819 22.3884 32.3819 22.2534 31.8644 22.2534H30.0294V25.3559ZM33.3169 30.2609L31.9069 27.4634H31.8519H30.0294V30.2609H27.4994V20.1484H31.8519C33.1319 20.1484 34.1269 20.4584 34.8294 21.0784C35.5344 21.6984 35.8869 22.5709 35.8869 23.6959C35.8869 24.4559 35.7394 25.1134 35.4444 25.6684C35.1494 26.2209 34.7219 26.6509 34.1594 26.9584L36.1769 30.2609H33.3169Z" fill="#3B8EF3"/>
<path fill-rule="evenodd" clip-rule="evenodd" d="M42.1071 27.2581C42.4021 26.8981 42.5521 26.4256 42.5521 25.8431C42.5521 25.2581 42.4021 24.7831 42.1071 24.4181C41.8096 24.0531 41.4246 23.8706 40.9496 23.8706C40.4846 23.8706 40.1046 24.0531 39.8146 24.4181C39.5221 24.7831 39.3771 25.2581 39.3771 25.8431C39.3771 26.4256 39.5221 26.8981 39.8146 27.2581C40.1046 27.6206 40.4846 27.7981 40.9496 27.7981C41.4246 27.7981 41.8096 27.6206 42.1071 27.2581ZM43.3571 22.3306C43.8771 22.6656 44.2821 23.1431 44.5671 23.7606C44.8571 24.3806 44.9996 25.0931 44.9996 25.9006C44.9996 26.6981 44.8621 27.4006 44.5821 28.0031C44.3046 28.6081 43.9096 29.0756 43.3946 29.4056C42.8771 29.7356 42.2821 29.9006 41.6071 29.9006C41.1421 29.9006 40.7196 29.8081 40.3421 29.6156C39.9621 29.4281 39.6421 29.1531 39.3771 28.7931V32.6481H36.9421V21.9131H39.3771V22.9356C39.9146 22.1981 40.6396 21.8281 41.5521 21.8281C42.2371 21.8281 42.8371 21.9956 43.3571 22.3306Z" fill="#3B8EF3"/>
</svg>
