<svg width="120" height="111" viewBox="0 0 120 111" fill="none" xmlns="http://www.w3.org/2000/svg">
<g clip-path="url(#clip0)">
<path d="M41.105 18.8242H80.9602C100.871 18.8242 117.007 31.9979 117.007 48.2438V81.138C117.007 97.3879 100.866 110.558 80.9602 110.558H41.105C21.1945 110.558 5.05817 97.3839 5.05817 81.138V48.2438C5.05817 31.9939 21.1945 18.8242 41.105 18.8242Z" fill="#E0E3ED"/>
<path d="M58.3986 34.3691C56.7483 32.2253 54.7075 30.2449 53.5991 27.8779C52.4908 25.515 52.5299 22.5463 54.7221 20.7571C55.0736 20.4702 55.474 20.2192 55.9329 20.0678C57.1682 19.6573 59.4385 20.1236 60.5078 20.9125C61.826 21.8848 62.6023 23.3791 63.2175 24.3713C63.2956 24.4869 63.3737 24.6024 63.4421 24.722L63.447 24.726C63.8327 25.3755 64.0915 26.0808 64.194 26.798C64.3063 27.595 64.2526 28.4477 64.7604 29.1331C65.2681 29.8185 66.6547 30.1293 67.1967 29.4599C67.4115 29.1969 67.431 28.8622 67.431 28.5474C67.4945 24.2598 66.2007 20.0479 65.4878 15.8041C64.775 11.5603 64.692 7.04556 67.0063 3.19627C67.8851 1.73785 69.2912 0.307315 71.254 0.0363506C72.7773 -0.174842 74.3592 0.390995 75.4089 1.31546C76.4586 2.23993 77.0152 3.47919 77.2349 4.72642C77.6841 7.30855 76.7662 9.93451 75.4187 12.2975C74.0711 14.6644 72.2988 16.8521 70.8829 19.1911C70.4825 19.8566 70.1017 20.5539 70.0675 21.2911C70.0285 22.0323 70.4044 22.8292 71.1954 23.1878C71.7666 23.4469 72.4648 23.4469 73.1093 23.3472C75.1501 23.0285 76.7906 21.833 78.5776 20.9643C81.0774 19.753 84.1777 19.1632 86.9314 19.9164C89.6851 20.6695 91.8578 23.0085 91.3939 25.3516C90.8862 27.8939 87.6735 29.5117 84.5732 30.0018C81.4729 30.4919 78.2505 30.205 75.1501 30.6991C73.2802 30.998 71.2051 31.8428 70.9268 33.3809C70.6681 34.7955 72.1767 36.1025 73.8661 36.489C75.5554 36.8755 77.3521 36.5727 79.0609 36.2579C80.7698 35.9431 82.5519 35.6124 84.2558 35.9471C86.0037 36.2898 87.5173 37.3577 88.1813 38.7205C88.8453 40.0833 88.6451 41.709 87.6589 42.9364C86.0135 44.9885 82.6788 45.6301 79.6761 45.646C76.6686 45.6619 73.6073 45.2276 70.6925 45.8412C70.0431 45.9767 69.384 46.18 68.9006 46.5625C67.4701 47.7021 68.2659 49.6228 68.4319 51.2526C68.6419 53.3207 67.5482 55.4525 65.5952 56.7794C63.6423 58.1064 60.874 58.6005 58.423 58.0546L57.3879 58.2538C55.7279 58.1622 54.478 56.7994 54.3803 55.4445C54.2827 54.0857 55.0834 52.7867 56.0941 51.7068C57.1047 50.627 58.3351 49.6905 59.3116 48.5907C60.7763 46.9371 61.6258 44.9287 61.7235 42.8925C61.8016 41.1831 61.372 39.5413 60.7079 37.9275C60.0391 36.7042 59.2774 35.5087 58.3986 34.3691Z" fill="#61D093"/>
<path d="M72.3769 3.0441C70.1359 8.86186 68.9299 14.9307 68.8176 21.0274C68.7884 22.5575 68.8274 24.0916 68.9397 25.6178C69.052 27.1719 69.2766 28.718 69.4279 30.272C69.5793 31.8062 69.5451 33.3244 69.2912 34.8505C69.0325 36.4006 68.6175 37.9268 68.222 39.4569C67.3041 42.9994 66.3862 46.5378 65.4634 50.0803C65.3511 50.5186 64.526 50.3313 64.6432 49.897C65.4585 46.753 66.2739 43.609 67.0893 40.4651C67.89 37.3808 68.8469 34.2966 68.6419 31.1208C68.5442 29.5587 68.2855 28.0007 68.1488 26.4387C68.0169 24.9125 67.9486 23.3784 67.9535 21.8482C67.9583 18.8357 68.2366 15.8272 68.7639 12.8466C69.3596 9.46356 70.297 6.12433 71.5567 2.8608C71.7178 2.43443 72.5429 2.61375 72.3769 3.0441Z" fill="#89DCAE"/>
<path d="M82.63 24.4593C81.2825 24.2163 79.9154 24.8817 78.7436 25.336C77.4839 25.8261 76.234 26.3362 74.9988 26.8661C74.5154 27.0733 74.0809 26.4756 74.5691 26.2644C75.9411 25.6747 77.3326 25.1088 78.7387 24.5749C80.0326 24.0808 81.3948 23.5229 82.8644 23.7899C83.3917 23.8815 83.1622 24.555 82.63 24.4593Z" fill="#89DCAE"/>
<path d="M95.5098 102.433C94.1232 100.947 92.8391 99.3728 92.0287 97.6274C91.2182 95.8781 90.9155 93.9336 91.5209 92.1324C91.7992 91.3036 92.346 90.4509 93.3176 90.1161C94.5919 89.6738 96.1152 90.3313 96.8525 91.2917C97.5848 92.252 97.7215 93.4235 97.8436 94.5512C96.374 90.3114 95.6416 85.9003 95.666 81.4931C95.6807 79.1501 96.0859 76.5201 98.3416 75.0697C99.3718 74.4082 100.832 74.0894 102.018 74.5437C103.732 75.1972 104.113 77.0102 104.279 78.5444C104.484 80.5168 104.694 82.4853 104.899 84.4578C104.625 82.3419 104.567 80.21 104.728 78.0861C104.855 76.3926 105.138 74.6672 106.061 73.149C106.983 71.6308 108.663 70.3358 110.714 70.0409C111.553 69.9213 112.486 69.9891 113.16 70.4155C113.838 70.8418 114.156 71.5551 114.273 72.2524C114.483 73.4877 114.175 74.7429 113.751 75.9383C112.296 80.0267 109.508 83.6967 106.749 87.3109C109.005 83.9637 113.282 81.5768 117.925 81.0787C118.379 81.0309 118.877 81.007 119.253 81.2221C119.556 81.3935 119.712 81.6844 119.814 81.9713C120.356 83.4975 119.629 85.1352 118.628 86.498C115.518 90.7178 109.972 93.2362 105.338 96.3882C106.959 94.6548 109.552 93.551 112.227 93.4594C112.92 93.4355 113.716 93.5231 114.102 93.9893C114.322 94.2563 114.361 94.595 114.327 94.9138C114.19 96.0534 113.199 96.9939 112.198 97.7948C110.025 99.5322 107.569 101.038 104.918 102.258C102.619 103.318 99.943 104.182 97.3798 103.664C96.9306 103.573 96.4033 103.338 96.4472 102.959" fill="#B0E7C9"/>
<path d="M108.092 77.3014C107.638 80.3976 106.676 83.422 105.494 86.3867C104.313 89.3514 102.931 92.2603 101.618 95.1851C100.876 96.8388 100.158 98.5044 99.5134 100.186C99.3913 100.501 99.9821 100.676 100.104 100.361C101.256 97.3568 102.638 94.42 103.971 91.4713C105.299 88.5305 106.583 85.5738 107.516 82.5334C108.043 80.824 108.458 79.0946 108.712 77.3453C108.766 77.0145 108.136 76.9707 108.092 77.3014Z" fill="#D8F3E4"/>
<path d="M104.41 91.0767C107.535 90.1204 110.455 88.7257 112.999 86.9644C113.721 86.4624 114.415 85.9324 115.074 85.3745C115.259 85.2191 114.996 84.9521 114.805 85.1115C112.501 87.0561 109.786 88.6739 106.808 89.8654C105.968 90.2001 105.109 90.5029 104.23 90.7699C103.986 90.8456 104.161 91.1524 104.41 91.0767Z" fill="#D8F3E4"/>
<path d="M99.1521 82.3538C99.4353 84.111 99.7185 85.8643 100.002 87.6216C100.241 89.092 100.417 90.5903 100.963 92.0088C101.256 92.766 101.667 93.4872 102.233 94.1327C102.389 94.312 102.711 94.0929 102.555 93.9136C101.535 92.758 101.1 91.3633 100.822 89.9766C100.505 88.3907 100.285 86.7888 100.031 85.1949C99.8747 84.2266 99.7184 83.2583 99.5622 82.286C99.528 82.0748 99.1179 82.1386 99.1521 82.3538Z" fill="#D8F3E4"/>
<path d="M109.478 95.981C108.575 96.5947 107.696 97.2442 106.73 97.7901C105.797 98.3161 104.772 98.7185 103.746 99.1091C103.502 99.2007 103.678 99.5115 103.922 99.4199C104.952 99.0254 105.978 98.6189 106.92 98.0969C107.916 97.547 108.819 96.8736 109.747 96.244C109.952 96.1045 109.683 95.8415 109.478 95.981Z" fill="#D8F3E4"/>
<path d="M94.8263 92.9619C95.334 93.3604 95.7295 93.8426 96.1445 94.3008C96.5888 94.7869 97.0331 95.2771 97.4725 95.7632C97.6337 95.9385 97.9559 95.7234 97.7948 95.5441C97.3505 95.0579 96.9062 94.5678 96.4668 94.0816C96.0518 93.6234 95.6514 93.1373 95.1485 92.7428C94.9581 92.5953 94.631 92.8105 94.8263 92.9619Z" fill="#D8F3E4"/>
<path d="M96.0859 106.063C95.3731 103.338 95.1436 100.273 95.4024 97.496C95.544 95.9539 95.8857 94.3321 97.0966 93.1446C97.4628 92.786 98.0047 92.4513 98.5613 92.5628C99.0788 92.6664 99.3767 93.1127 99.5036 93.5351C99.7282 94.2803 99.6257 95.0653 99.4792 95.8264C98.8689 99.0341 97.4384 103.011 96.0859 106.063Z" fill="#89DCAE"/>
<path d="M97.3798 96.0962C97.6776 97.6184 97.4676 99.1247 97.2333 100.639C97.0282 101.946 96.8622 103.285 96.3105 104.532C96.2666 104.628 96.457 104.667 96.496 104.576C97.0526 103.317 97.2186 101.962 97.4237 100.639C97.6629 99.1087 97.8631 97.5905 97.5653 96.0524C97.5506 95.9528 97.3651 95.9966 97.3798 96.0962Z" fill="white"/>
<path d="M96.3447 104.795C96.8769 101.082 98.3074 97.4554 100.524 94.1879C101.437 92.8451 102.623 91.4703 104.42 91.028C105.074 90.8686 105.812 90.8487 106.417 91.1077C107.389 91.5261 107.755 92.5382 107.647 93.4268C107.501 94.6621 106.651 95.7579 105.792 96.782C102.96 100.137 99.6989 103.253 96.081 106.059" fill="#61D093"/>
<path d="M96.0859 106.063C98.4832 102.966 101.974 99.3802 105.67 97.3041C106.315 96.9455 106.988 96.5948 107.755 96.4673C108.385 96.3597 109.102 96.4314 109.552 96.81C109.942 97.1367 110.055 97.6388 109.967 98.0931C109.762 99.149 108.678 99.9261 107.628 100.568C104.327 102.572 99.9674 104.939 96.0859 106.063Z" fill="#89DCAE"/>
<path d="M96.8622 104.979C98.5613 102.162 100.265 99.3369 102.331 96.683C102.912 95.9339 103.536 95.2047 104.249 94.5353C104.332 94.4595 104.196 94.348 104.113 94.4237C102.882 95.5793 101.906 96.9022 100.968 98.2212C99.9919 99.5959 99.0837 101.007 98.2049 102.425C97.6971 103.246 97.1991 104.071 96.7011 104.9C96.6425 104.991 96.8085 105.071 96.8622 104.979Z" fill="white"/>
<path d="M107.32 98.5155C105.465 99.3682 103.624 100.237 101.984 101.357C100.387 102.444 98.9275 103.672 97.5555 104.947C97.4725 105.023 97.6092 105.134 97.6922 105.059C99.0447 103.803 100.475 102.6 102.042 101.524C103.693 100.392 105.543 99.5117 107.418 98.651C107.525 98.5992 107.428 98.4637 107.32 98.5155Z" fill="white"/>
<path d="M17.0445 58.7559L17.6743 61.86C17.6743 61.86 16.9322 65.6615 13.7245 65.5698C10.5216 65.4782 10.3165 64.5577 10.3165 64.5577L10.3214 59.2221L17.0445 58.7559Z" fill="#E9F3FE"/>
<path d="M17.0445 58.7559L17.2398 59.7122C16.195 60.0031 13.5926 60.8399 13.6659 61.9516C13.7391 63.0913 15.9508 63.1391 17.2837 63.0315C16.7906 64.1393 15.7458 65.6296 13.7293 65.5738C10.5265 65.4821 10.3214 64.5617 10.3214 64.5617L10.3263 59.2261L17.0445 58.7559Z" fill="#92C1F8"/>
<path d="M23.6504 61.2146C23.6504 61.2146 20.5647 61.1549 19.3881 61.2067C18.2065 61.2585 17.5474 61.3262 17.5474 61.3262C17.5474 61.3262 17.6646 63.1393 14.9646 63.7968C12.2598 64.4582 10.3068 62.8803 10.3068 62.8803C10.3068 62.8803 2.34357 66.4427 1.9188 71.5631C1.49403 76.6835 14.989 91.6383 28.069 93.0768C41.149 94.5153 38.0243 68.6662 38.0243 68.6662L23.6504 61.2146Z" fill="#3A8FF3"/>
<path d="M38.0242 68.6659C38.0242 68.6659 38.0926 69.2517 38.1707 70.2359L32.9758 92.0246C31.6673 92.8813 30.0561 93.2957 28.069 93.0766C18.5288 92.0286 8.77857 83.7921 4.35999 77.4204C6.64496 75.8345 8.47098 74.5992 8.47098 74.5992C8.47098 74.5992 13.5585 85.6689 19.5443 85.8681C25.5253 86.0714 24.3046 63.155 24.2802 62.8441L23.709 61.2383L38.0242 68.6659Z" fill="#2D517E"/>
<path d="M72.9726 94.1293C72.9726 94.1293 70.3263 48.1013 69.511 40.4904C68.6956 32.8795 68.2122 28.9346 56.9192 28.9107C45.6262 28.8867 33.9718 29.7235 29.2994 29.9706C22.3273 30.3412 19.4027 30.4528 21.7853 49.3047C24.0166 66.9453 27.5515 98.7636 27.1755 103.163C26.7996 107.562 33.9181 109.403 35.9443 109.714C37.9706 110.025 71.42 100.079 72.3086 99.19C73.1972 98.2934 72.9726 94.1293 72.9726 94.1293Z" fill="#3576C4"/>
<path d="M65.8491 41.1266C65.8491 41.1266 68.8128 91.757 68.3489 93.7215C67.8851 95.686 67.5482 96.8097 60.1025 98.9535C52.6568 101.097 41.8374 103.799 39.5476 104.241C37.2577 104.688 36.5449 103.966 35.4756 96.7938C34.4064 89.6212 29.5581 45.2389 29.2408 41.5131C28.9234 37.7874 30.0513 34.735 32.8587 34.4162C35.666 34.0975 35.1729 35.3487 35.1778 35.8747C35.1827 36.4007 36.5888 37.8113 38.5564 37.7714C40.5289 37.7316 57.7883 37.6001 58.6573 37.3251C59.5264 37.0502 59.4678 36.3289 59.585 34.8785C59.7022 33.428 60.6103 32.9499 62.1287 33.1451C63.6472 33.3404 65.4341 34.1413 65.4244 35.9185C65.4146 37.6917 65.8491 41.1266 65.8491 41.1266Z" fill="#92C1F8"/>
<path opacity="0.3" d="M37.7411 63.7843C36.4131 64.0114 35.168 64.8682 35.2999 66.0556C35.4415 67.3427 35.627 68.6218 35.7393 68.9884C35.9199 69.5782 37.1845 71.1282 39.7136 70.9051C42.2427 70.6819 44.596 70.4628 44.5032 68.1755C44.4105 65.8883 44.4593 63.6409 42.3794 63.4177C41.3052 63.3061 39.0691 63.5612 37.7411 63.7843Z" fill="#3576C4"/>
<path opacity="0.3" d="M47.6377 62.8995C46.3097 63.1267 45.0647 63.9834 45.1965 65.1709C45.3381 66.4579 45.5236 67.737 45.6359 68.1036C45.8166 68.6934 47.0811 70.2435 49.6102 70.0203C52.1393 69.7972 54.4926 69.578 54.3999 67.2908C54.3071 65.0035 54.3559 62.7561 52.276 62.5329C51.2019 62.4214 48.9657 62.6764 47.6377 62.8995Z" fill="#3576C4"/>
<path opacity="0.3" d="M57.8517 62.0519C56.5237 62.279 55.2787 63.1357 55.4105 64.3232C55.5521 65.6103 55.7376 66.8894 55.8499 67.256C56.0306 67.8457 57.2951 69.3958 59.8242 69.1727C62.3533 68.9495 64.7066 68.7304 64.6139 66.4431C64.5211 64.1558 64.5699 61.9084 62.49 61.6853C61.4159 61.5737 59.1749 61.8287 57.8517 62.0519Z" fill="#3576C4"/>
<path opacity="0.3" d="M38.5222 73.1444C37.1942 73.3994 35.9492 74.284 36.081 75.4675C36.2226 76.7506 36.3447 78.484 36.457 78.8506C36.6376 79.4363 37.9022 80.9585 40.4313 80.6835C42.9604 80.4086 45.3772 79.6794 45.2844 77.3921C45.1916 75.1049 45.2405 72.8575 43.1605 72.6821C42.0864 72.5865 39.8503 72.8893 38.5222 73.1444Z" fill="#3576C4"/>
<path opacity="0.3" d="M48.4189 72.0448C47.0909 72.2998 45.8459 73.1844 45.9777 74.3679C46.1193 75.651 46.3048 76.9261 46.4171 77.2927C46.5978 77.8785 47.8623 79.4006 50.3914 79.1257C52.9205 78.8507 55.2738 78.5758 55.181 76.2925C55.0883 74.0093 55.1371 71.7579 53.0572 71.5825C51.9831 71.4869 49.7469 71.7897 48.4189 72.0448Z" fill="#3576C4"/>
<path opacity="0.3" d="M58.6329 70.9725C57.3049 71.2275 56.0599 72.1121 56.1917 73.2956C56.3333 74.5787 56.5188 75.8538 56.6311 76.2204C56.8118 76.8062 58.0763 78.3284 60.6054 78.0534C63.1345 77.7785 65.4878 77.5035 65.3951 75.2203C65.3023 72.937 65.3511 70.6856 63.2712 70.5103C62.1971 70.4146 59.9609 70.7175 58.6329 70.9725Z" fill="#3576C4"/>
<path opacity="0.3" d="M39.9382 83.1076C38.615 83.4264 37.37 84.3707 37.5018 85.5463C37.6434 86.8254 37.7655 88.9373 37.8778 89.2959C38.0584 89.8737 39.3181 91.3361 41.8423 90.9377C44.3665 90.5392 46.7735 89.3079 46.6857 87.0286C46.5978 84.7493 46.6417 82.4939 44.5667 82.4182C43.4926 82.3824 41.2613 82.7928 39.9382 83.1076Z" fill="#3576C4"/>
<path opacity="0.3" d="M49.8055 81.5334C48.4824 81.8521 47.2374 82.7965 47.3692 83.972C47.5108 85.2511 47.6963 87.0084 47.8086 87.3671C47.9893 87.9448 49.2489 89.4072 51.7731 89.0088C54.2973 88.6103 56.6409 88.2278 56.553 85.9445C56.4651 83.6652 56.5091 80.9197 54.434 80.844C53.3648 80.8081 51.1287 81.2186 49.8055 81.5334Z" fill="#3576C4"/>
<path opacity="0.3" d="M59.9951 79.9748C58.672 80.2936 57.427 81.238 57.5588 82.4135C57.7004 83.6926 57.8859 84.9597 57.9982 85.3184C58.1789 85.8962 59.4385 87.3586 61.9627 86.9601C64.4869 86.5616 66.8305 86.1791 66.7426 83.8958C66.6547 81.6165 66.6987 79.3611 64.6236 79.2854C63.5495 79.2496 61.3182 79.656 59.9951 79.9748Z" fill="#3576C4"/>
<path d="M12.2402 74.281C12.2402 74.281 22.4103 80.4852 23.792 81.3539C25.1737 82.2226 34.382 70.9138 34.382 70.9138C34.382 70.9138 34.1867 68.6784 34.504 68.1245C34.8214 67.5706 35.1534 68.6186 35.1534 68.6186C35.1534 68.6186 35.7637 66.1759 37.2431 66.5147C38.7225 66.8573 39.1423 69.4195 38.0584 70.2763C36.9745 71.133 36.9794 71.137 36.9794 71.137C36.9794 71.137 31.2963 85.2192 25.3788 85.4503C19.4613 85.6814 7.93394 79.5448 6.84516 78.1422C5.75638 76.7436 12.2402 74.281 12.2402 74.281Z" fill="#E9F3FE"/>
<path d="M8.44168 76.0781C10.6876 77.8115 18.6215 83.7209 23.5869 84.6892C27.3708 85.4264 31.433 80.828 33.8156 77.5087C31.6185 81.2703 28.5328 85.3308 25.3788 85.4543C19.4613 85.6854 7.93391 79.5489 6.84513 78.1462C6.38619 77.5565 7.26502 76.7794 8.44168 76.0781Z" fill="#92C1F8"/>
<path d="M17.5523 48.8572C10.2189 42.4337 3.98404 51.1962 3.98404 51.1962C3.98404 51.1962 4.33557 51.9055 4.89217 52.9416C4.76523 52.9336 4.64317 52.9496 4.53575 52.9934C3.95963 53.2205 3.90104 54.0932 4.40393 54.9499C4.90682 55.8026 5.78077 56.3127 6.35689 56.0856C6.44478 56.0497 6.5229 56.0019 6.58637 55.9381C7.2162 56.9941 7.89485 58.062 8.55886 58.9546C10.7364 61.8993 15.2429 60.5087 19.3344 58.6637C23.4258 56.8188 17.5523 48.8572 17.5523 48.8572Z" fill="#E9F3FE"/>
<path d="M13.0556 50.4352C14.9744 50.3355 17.0445 50.0327 18.2212 49.8414C17.8306 49.2318 17.5523 48.8572 17.5523 48.8572C10.2189 42.4337 3.98404 51.1963 3.98404 51.1963C3.98404 51.1963 4.33557 51.9055 4.89217 52.9416C4.89217 52.9416 6.23483 54.0334 6.68401 53.5712C7.1332 53.105 10.1652 50.5826 13.0556 50.4352Z" fill="#539CEA"/>
<path d="M7.68492 51.0326C7.68492 51.0326 18.8168 49.626 21.4924 45.6213C24.168 41.6166 18.8852 40.1821 17.8599 40.5846C16.8394 40.9871 16.8394 40.9871 16.8394 40.9871C16.8394 40.9871 17.4888 37.855 14.1541 37.3888C10.8243 36.9226 8.87623 40.9871 8.87623 40.9871C8.87623 40.9871 6.75726 37.3888 5.58548 38.4129C4.4137 39.437 -1.85044 48.2393 0.537064 50.4509C2.92456 52.6584 4.38929 56.2168 5.64895 56.958C6.90862 57.6992 7.6898 57.6075 7.6898 57.6075L6.58638 55.651C6.58638 55.651 5.5806 56.3404 4.71641 54.9337C3.85711 53.5271 5.67336 53.547 5.67336 53.547L5.34624 52.5389C5.34624 52.5389 6.42526 52.9214 6.7182 52.0806C7.02091 51.2399 7.26503 51.0924 7.68492 51.0326Z" fill="#2D517E"/>
<path d="M15.155 52.7539L17.274 55.1448L16.2877 56.1888" fill="#92C1F8"/>
<path d="M1.91879 71.5637C2.34356 66.4432 10.3019 62.8809 10.3019 62.8809C10.3019 62.8809 10.8146 63.2913 11.669 63.6061C10.8243 66.2281 9.81365 70.0096 10.6046 71.1054C11.8545 72.8308 13.495 74.6917 13.495 74.6917L6.03955 79.5053C6.03955 79.5053 5.96143 79.4615 5.8296 79.3858C3.2761 76.2458 1.7772 73.3249 1.91879 71.5637Z" fill="#3576C4"/>
<path d="M95.3047 106.664C96.0371 106.664 96.6376 106.178 96.6376 105.576V84.0664C96.6376 83.4686 96.042 82.9785 95.3047 82.9785H75.1794C74.4471 82.9785 73.8465 83.4647 73.8465 84.0664V105.576C73.8465 106.174 74.4422 106.664 75.1794 106.664H95.3047Z" fill="#3A8FF3"/>
<path d="M75.1794 106.245H95.3048C95.7539 106.245 96.1201 105.946 96.1201 105.58V84.0698C96.1201 83.7032 95.7539 83.4043 95.3048 83.4043H75.1794C74.7303 83.4043 74.3641 83.7032 74.3641 84.0698V105.58C74.3641 105.946 74.7303 106.245 75.1794 106.245Z" fill="#E9F3FE"/>
<path d="M94.1378 85.676C94.6448 85.676 95.0557 85.3406 95.0557 84.9269C95.0557 84.5131 94.6448 84.1777 94.1378 84.1777C93.6309 84.1777 93.22 84.5131 93.22 84.9269C93.22 85.3406 93.6309 85.676 94.1378 85.676Z" fill="#2D517E"/>
<path d="M76.6881 84.9993C76.6881 85.091 76.776 85.1627 76.8883 85.1627C77.0006 85.1627 77.0885 85.091 77.0885 84.9993C77.0885 84.9077 77.0006 84.8359 76.8883 84.8359C76.776 84.8359 76.6881 84.9116 76.6881 84.9993Z" fill="#2D517E"/>
<path d="M76.0534 84.9993C76.0534 85.091 76.1413 85.1627 76.2536 85.1627C76.3659 85.1627 76.4537 85.091 76.4537 84.9993C76.4537 84.9077 76.3659 84.8359 76.2536 84.8359C76.1413 84.8359 76.0534 84.9116 76.0534 84.9993Z" fill="#2D517E"/>
<path d="M75.4236 84.9993C75.4236 85.091 75.5114 85.1627 75.6237 85.1627C75.736 85.1627 75.8239 85.091 75.8239 84.9993C75.8239 84.9077 75.736 84.8359 75.6237 84.8359C75.5114 84.8359 75.4236 84.9116 75.4236 84.9993Z" fill="#2D517E"/>
<path d="M94.1378 85.2428C94.3832 85.2428 94.5822 85.0805 94.5822 84.8802C94.5822 84.6799 94.3832 84.5176 94.1378 84.5176C93.8925 84.5176 93.6935 84.6799 93.6935 84.8802C93.6935 85.0805 93.8925 85.2428 94.1378 85.2428Z" fill="white"/>
<path d="M93.4885 85.3539L93.7033 85.2344C93.8156 85.326 93.967 85.3818 94.1379 85.3818C94.3087 85.3818 94.4601 85.326 94.5724 85.2344L94.7872 85.3539V85.4535C94.6212 85.589 94.3917 85.6767 94.133 85.6767C93.8791 85.6767 93.6496 85.593 93.4787 85.4535V85.3539H93.4885Z" fill="white"/>
<path d="M74.3627 102.146L96.1187 102.146L96.1187 86.2313L74.3627 86.2313L74.3627 102.146Z" fill="#3A8FF3"/>
<path d="M74.3641 98.1295L68.9397 94.5312L74.3641 95.6151V98.1295Z" fill="#3A8FF3"/>
<path d="M93.2151 89.7194L90.1733 91.0303L87.0583 89.7194V89.1934H93.2151V89.7194Z" fill="#92C1F8"/>
<path d="M87.3659 90.3735C88.0104 90.3735 88.5328 89.9471 88.5328 89.4211C88.5328 88.8951 88.0104 88.4688 87.3659 88.4688C86.7215 88.4688 86.199 88.8951 86.199 89.4211C86.199 89.9471 86.7215 90.3735 87.3659 90.3735Z" fill="white"/>
<path d="M92.927 90.3735C93.5715 90.3735 94.0939 89.9471 94.0939 89.4211C94.0939 88.8951 93.5715 88.4688 92.927 88.4688C92.2826 88.4688 91.7601 88.8951 91.7601 89.4211C91.7601 89.9471 92.2826 90.3735 92.927 90.3735Z" fill="white"/>
<path d="M90.8666 90.5762H89.4751V91.7716H90.8666V90.5762Z" fill="#539CEA"/>
<path d="M92.2776 101.013H88.0348V92.1989C88.0348 91.7686 88.4596 91.4219 88.9869 91.4219H91.3256C91.8529 91.4219 92.2776 91.7725 92.2776 92.1989V101.013Z" fill="#92C1F8"/>
<path d="M82.6837 95.666H79.1V96.5387H82.6837V95.666Z" fill="#539CEA"/>
<path d="M87.6589 96.6927L79.1 95.6646V95.557C79.1 94.3138 80.3353 93.3096 81.8537 93.3096L87.654 93.1582V96.6927H87.6589Z" fill="#92C1F8"/>
<path d="M90.1489 98.0164C92.1497 98.0164 93.7717 96.632 93.7717 94.9242C93.7717 93.2164 92.1497 91.832 90.1489 91.832C88.1481 91.832 86.5262 93.2164 86.5262 94.9242C86.5262 96.632 88.1481 98.0164 90.1489 98.0164Z" fill="white"/>
<path d="M90.1489 91.2147C91.1493 91.2147 91.9603 90.7723 91.9603 90.2265C91.9603 89.6807 91.1493 89.2383 90.1489 89.2383C89.1485 89.2383 88.3375 89.6807 88.3375 90.2265C88.3375 90.7723 89.1485 91.2147 90.1489 91.2147Z" fill="#539CEA"/>
<path d="M92.9905 102.05H87.322V101.611C87.322 101.281 87.6491 101.014 88.0544 101.014H92.263C92.6682 101.014 92.9954 101.281 92.9954 101.611V102.05H92.9905Z" fill="#2D517E"/>
<path d="M90.1489 90.3735C90.7934 90.3735 91.3158 89.9471 91.3158 89.4211C91.3158 88.8951 90.7934 88.4688 90.1489 88.4688C89.5045 88.4688 88.982 88.8951 88.982 89.4211C88.982 89.9471 89.5045 90.3735 90.1489 90.3735Z" fill="white"/>
<path opacity="0.1" d="M93.4397 88.5684C93.7326 88.7357 93.9181 89.0107 93.9133 89.3255C93.9035 89.8275 93.4006 90.23 92.7854 90.222C92.4046 90.2181 92.0677 90.0547 91.8724 89.8156C92.0531 90.1384 92.4485 90.3655 92.9124 90.3735C93.5568 90.3814 94.0841 89.959 94.0939 89.437C94.0988 89.0545 93.8303 88.7278 93.4397 88.5684Z" fill="black"/>
<path opacity="0.1" d="M90.6616 88.5684C90.9545 88.7357 91.14 89.0107 91.1352 89.3255C91.1254 89.8275 90.6225 90.23 90.0073 90.222C89.6265 90.2181 89.2896 90.0547 89.0943 89.8156C89.2749 90.1384 89.6704 90.3655 90.1343 90.3735C90.7787 90.3814 91.306 89.959 91.3158 89.437C91.3158 89.0545 91.0522 88.7278 90.6616 88.5684Z" fill="black"/>
<path opacity="0.1" d="M87.8786 88.5684C88.1715 88.7357 88.3571 89.0107 88.3522 89.3255C88.3424 89.8275 87.8395 90.23 87.2243 90.222C86.8435 90.2181 86.5066 90.0547 86.3113 89.8156C86.492 90.1384 86.8875 90.3655 87.3513 90.3735C87.9958 90.3814 88.5231 89.959 88.5328 89.437C88.5377 89.0545 88.2692 88.7278 87.8786 88.5684Z" fill="black"/>
<g opacity="0.2">
<path opacity="0.2" d="M92.2777 97.4065C93.259 96.0317 93.3616 94.3701 92.5853 92.9355C92.595 93.079 92.5999 93.2225 92.5999 93.3659C92.5999 96.211 90.7592 98.6856 88.0299 99.9846V101.017H88.0495C87.6442 101.017 87.3171 101.284 87.3171 101.614V102.053H92.9856V101.61C92.9856 101.28 92.6585 101.013 92.2532 101.013H92.2777V97.4065Z" fill="#231F20"/>
</g>
<path d="M82.4591 102.048C81.424 102.048 80.3889 102.048 79.3539 102.048C78.9193 100.211 79.7884 98.3741 79.3539 96.5371C80.3889 96.5371 81.424 96.5371 82.4591 96.5371C82.8936 98.3741 82.0197 100.211 82.4591 102.048Z" fill="white"/>
<path d="M79.8958 96.5371C79.7152 96.5371 79.5345 96.5371 79.349 96.5371C79.7835 98.3741 78.9145 100.211 79.349 102.048C79.5297 102.048 79.7103 102.048 79.8958 102.048C79.4613 100.211 80.3304 98.3741 79.8958 96.5371Z" fill="#92C1F8"/>
<path d="M80.7503 96.5371C80.5696 96.5371 80.389 96.5371 80.2034 96.5371C80.638 98.3741 79.7689 100.211 80.2034 102.048C80.3841 102.048 80.5647 102.048 80.7503 102.048C80.3157 100.211 81.1848 98.3741 80.7503 96.5371Z" fill="#92C1F8"/>
<path d="M81.6047 96.5371C81.424 96.5371 81.2434 96.5371 81.0579 96.5371C81.4924 98.3741 80.6233 100.211 81.0579 102.048C81.2385 102.048 81.4191 102.048 81.6047 102.048C81.1701 100.211 82.0392 98.3741 81.6047 96.5371Z" fill="#92C1F8"/>
<path d="M82.4591 96.5371C82.2784 96.5371 82.0978 96.5371 81.9123 96.5371C82.3468 98.3741 81.4777 100.211 81.9123 102.048C82.0929 102.048 82.2736 102.048 82.4591 102.048C82.0197 100.211 82.8936 98.3741 82.4591 96.5371Z" fill="#92C1F8"/>
<path d="M81.5315 93.8832C81.7121 94.1063 81.5119 94.4769 81.0823 94.708C80.6526 94.9392 80.1595 94.9471 79.9788 94.724C79.7982 94.5008 79.9984 94.1303 80.428 93.8991C80.8577 93.668 81.3508 93.6601 81.5315 93.8832Z" fill="white"/>
<path d="M80.0667 62.5861C79.1293 62.5861 78.3676 61.9645 78.3676 61.1994V33.7324C78.3676 32.9673 79.1293 32.3457 80.0667 32.3457H105.763C106.7 32.3457 107.462 32.9673 107.462 33.7324V61.1994C107.462 61.9645 106.7 62.5861 105.763 62.5861H80.0667Z" fill="#3A8FF3"/>
<path d="M105.763 62.0474H80.0667C79.4906 62.0474 79.0219 61.6649 79.0219 61.1947V33.7316C79.0219 33.2614 79.4906 32.8789 80.0667 32.8789H105.763C106.339 32.8789 106.808 33.2614 106.808 33.7316V61.1947C106.803 61.6689 106.339 62.0474 105.763 62.0474Z" fill="#E9F3FE"/>
<path d="M81.5559 35.7917C82.2057 35.7917 82.7325 35.3618 82.7325 34.8314C82.7325 34.301 82.2057 33.8711 81.5559 33.8711C80.906 33.8711 80.3792 34.301 80.3792 34.8314C80.3792 35.3618 80.906 35.7917 81.5559 35.7917Z" fill="#2D517E"/>
<path d="M103.839 34.924C103.839 35.0396 103.727 35.1312 103.585 35.1312C103.444 35.1312 103.331 35.0396 103.331 34.924C103.331 34.8084 103.444 34.7168 103.585 34.7168C103.727 34.7168 103.839 34.8084 103.839 34.924Z" fill="#2D517E"/>
<path d="M104.645 34.924C104.645 35.0396 104.533 35.1312 104.391 35.1312C104.249 35.1312 104.137 35.0396 104.137 34.924C104.137 34.8084 104.249 34.7168 104.391 34.7168C104.528 34.7168 104.645 34.8084 104.645 34.924Z" fill="#2D517E"/>
<path d="M105.45 34.924C105.45 35.0396 105.338 35.1312 105.197 35.1312C105.055 35.1312 104.943 35.0396 104.943 34.924C104.943 34.8084 105.055 34.7168 105.197 34.7168C105.338 34.7168 105.45 34.8084 105.45 34.924Z" fill="#2D517E"/>
<path d="M81.5559 35.235C81.8686 35.235 82.1222 35.0281 82.1222 34.7728C82.1222 34.5175 81.8686 34.3105 81.5559 34.3105C81.2431 34.3105 80.9895 34.5175 80.9895 34.7728C80.9895 35.0281 81.2431 35.235 81.5559 35.235Z" fill="white"/>
<path d="M82.3859 35.3781L82.1076 35.2227C81.966 35.3382 81.7707 35.4099 81.551 35.4099C81.3362 35.4099 81.136 35.3382 80.9944 35.2227L80.7161 35.3781V35.5056C80.9309 35.6809 81.2239 35.7885 81.551 35.7885C81.8781 35.7885 82.171 35.6809 82.3859 35.5056V35.3781Z" fill="white"/>
<path d="M106.803 36.502H79.0219V56.8203H106.803V36.502Z" fill="#3A8FF3"/>
<path d="M78.6313 51.1348L71.7032 55.7252L78.6313 54.3425V51.1348Z" fill="#3A8FF3"/>
<path d="M104.196 60.4269H81.6779C81.1897 60.4269 80.7942 60.1041 80.7942 59.7056C80.7942 59.3071 81.1897 58.9844 81.6779 58.9844H104.196C104.684 58.9844 105.079 59.3071 105.079 59.7056C105.079 60.1041 104.684 60.4269 104.196 60.4269Z" fill="#92C1F8"/>
<path d="M89.9732 41.9297C89.2261 42.5314 88.7623 43.3682 88.7623 44.2927C88.7623 45.2012 89.2115 46.026 89.939 46.6277L90.4614 46.2014C89.8657 45.7112 89.4996 45.0378 89.4996 44.2927C89.4996 43.5355 89.8804 42.8542 90.4907 42.36L89.9732 41.9297Z" fill="white"/>
<path d="M89.1871 41.2916L88.6647 40.8652C87.5808 41.7419 86.9119 42.9533 86.9119 44.2921C86.9119 45.6191 87.571 46.8225 88.6354 47.6951L89.1578 47.2688C88.2301 46.5037 87.654 45.4517 87.654 44.2921C87.654 43.1206 88.2399 42.0567 89.1871 41.2916Z" fill="white"/>
<path d="M87.8786 40.2232L87.3562 39.7969C85.9403 40.9485 85.0614 42.5384 85.0614 44.2917C85.0614 46.033 85.9256 47.615 87.3269 48.7626L87.8493 48.3362C86.5848 47.2962 85.8036 45.8697 85.8036 44.2917C85.8036 42.7018 86.5994 41.2633 87.8786 40.2232Z" fill="white"/>
<g opacity="0.7">
<mask id="mask0" mask-type="alpha" maskUnits="userSpaceOnUse" x="88" y="41" width="3" height="4">
<g opacity="0.7">
<g opacity="0.7">
<path opacity="0.7" d="M90.4956 42.36L89.9732 41.9336C89.2408 42.5233 88.7818 43.3402 88.7672 44.2408C89.0064 44.3165 89.2554 44.3882 89.5142 44.452C89.5093 44.4002 89.5093 44.3484 89.5093 44.2966C89.5044 43.5355 89.8853 42.8541 90.4956 42.36Z" fill="url(#paint0_linear)"/>
</g>
</g>
</mask>
<g mask="url(#mask0)">
<path opacity="0.7" d="M90.4956 42.36L89.9732 41.9336C89.2408 42.5233 88.7818 43.3402 88.7672 44.2408C89.0064 44.3165 89.2554 44.3882 89.5142 44.452C89.5093 44.4002 89.5093 44.3484 89.5093 44.2966C89.5044 43.5355 89.8853 42.8541 90.4956 42.36Z" fill="white"/>
</g>
</g>
<g opacity="0.7">
<mask id="mask1" mask-type="alpha" maskUnits="userSpaceOnUse" x="87" y="40" width="3" height="4">
<g opacity="0.7">
<g opacity="0.7">
<path opacity="0.7" d="M88.6647 40.8613C87.82 41.5467 87.2292 42.4353 87.0095 43.4275C87.2146 43.563 87.4441 43.6905 87.6882 43.8101C87.8249 42.8298 88.3717 41.9492 89.1871 41.2917L88.6647 40.8613Z" fill="url(#paint1_linear)"/>
</g>
</g>
</mask>
<g mask="url(#mask1)">
<path opacity="0.7" d="M88.6647 40.8613C87.82 41.5467 87.2292 42.4353 87.0095 43.4275C87.2146 43.563 87.4441 43.6905 87.6882 43.8101C87.8249 42.8298 88.3717 41.9492 89.1871 41.2917L88.6647 40.8613Z" fill="white"/>
</g>
</g>
<g opacity="0.7">
<mask id="mask2" mask-type="alpha" maskUnits="userSpaceOnUse" x="85" y="39" width="3" height="4">
<g opacity="0.7">
<g opacity="0.7">
<path opacity="0.7" d="M87.3562 39.7969C86.6678 40.3547 86.1112 41.0162 85.7157 41.7494C85.7596 42.0523 85.8963 42.3471 86.1063 42.6221C86.4481 41.7056 87.0681 40.8847 87.8786 40.2232L87.3562 39.7969Z" fill="url(#paint2_linear)"/>
</g>
</g>
</mask>
<g mask="url(#mask2)">
<path opacity="0.7" d="M87.3562 39.7969C86.6678 40.3547 86.1112 41.0162 85.7157 41.7494C85.7596 42.0523 85.8963 42.3471 86.1063 42.6221C86.4481 41.7056 87.0681 40.8847 87.8786 40.2232L87.3562 39.7969Z" fill="white"/>
</g>
</g>
<path opacity="0.4" d="M87.3366 48.4163C87.2976 48.4482 87.2439 48.4681 87.1853 48.4641C87.1267 48.4641 87.073 48.4442 87.0388 48.4083C85.7645 47.2607 85.0663 45.7903 85.0663 44.2323C85.0663 42.6663 85.7743 41.1839 87.0681 40.0323C87.1072 39.9965 87.1609 39.9766 87.2195 39.9766C87.2781 39.9766 87.3366 39.9925 87.3757 40.0284L87.405 40.0523C87.4831 40.116 87.4831 40.2156 87.4099 40.2794C86.1893 41.3633 85.5204 42.7579 85.5204 44.2323C85.5204 45.6947 86.1746 47.0734 87.3708 48.1533C87.4489 48.221 87.4441 48.3286 87.3659 48.3924L87.3366 48.4163Z" fill="white"/>
<path opacity="0.4" d="M88.6842 47.3448C88.6403 47.3806 88.5866 47.3966 88.528 47.3966C88.4694 47.3966 88.4108 47.3727 88.3717 47.3368C87.4489 46.4761 86.9461 45.3882 86.9461 44.2366C86.9461 43.0731 87.4636 41.9693 88.4059 41.1046C88.445 41.0688 88.4987 41.0488 88.5573 41.0488C88.6158 41.0488 88.6696 41.0648 88.7086 41.0966L88.7721 41.1484C88.8307 41.1963 88.8307 41.272 88.777 41.3198C87.8884 42.1207 87.4001 43.1448 87.4001 44.2327C87.4001 45.2926 87.864 46.2928 88.7135 47.0858C88.7867 47.1535 88.7818 47.2611 88.7037 47.3248L88.6842 47.3448Z" fill="white"/>
<path opacity="0.4" d="M89.9683 46.2835C89.9243 46.3194 89.8658 46.3353 89.8072 46.3353C89.7486 46.3313 89.69 46.3114 89.6509 46.2715C89.0797 45.7017 88.7672 44.9924 88.7672 44.2473C88.7672 43.4902 89.0894 42.7689 89.6802 42.1951C89.7193 42.1593 89.773 42.1353 89.8365 42.1314C89.895 42.1274 89.9536 42.1473 89.9976 42.1832L90.0171 42.1991C90.0952 42.2629 90.1001 42.3665 90.0317 42.4342C89.5093 42.9443 89.2261 43.5778 89.2261 44.2473C89.2261 44.9048 89.4996 45.5304 90.0073 46.0324C90.0757 46.1002 90.0708 46.2038 89.9927 46.2675L89.9683 46.2835Z" fill="white"/>
<path d="M95.7002 41.9297L95.1778 42.3561C95.7881 42.8502 96.1689 43.5355 96.1689 44.2887C96.1689 45.0338 95.8028 45.7072 95.2071 46.1974L95.7295 46.6237C96.457 46.022 96.9062 45.1972 96.9062 44.2887C96.9062 43.3682 96.4424 42.5354 95.7002 41.9297Z" fill="white"/>
<path d="M97.0038 40.8652L96.4814 41.2916C97.4286 42.0567 98.0145 43.1206 98.0145 44.2921C98.0145 45.4517 97.4384 46.5037 96.5107 47.2688L97.0331 47.6951C98.0975 46.8225 98.7566 45.6191 98.7566 44.2921C98.7566 42.9533 98.0877 41.7379 97.0038 40.8652Z" fill="white"/>
<path d="M98.3123 39.7812L97.7899 40.2076C99.074 41.2476 99.8698 42.6861 99.8698 44.2761C99.8698 45.854 99.0886 47.2806 97.8241 48.3206L98.3465 48.747C99.7478 47.5994 100.612 46.0174 100.612 44.2761C100.607 42.5228 99.7331 40.9328 98.3123 39.7812Z" fill="white"/>
<g opacity="0.7">
<mask id="mask3" mask-type="alpha" maskUnits="userSpaceOnUse" x="95" y="41" width="2" height="4">
<g opacity="0.7">
<g opacity="0.7">
<path opacity="0.7" d="M95.1729 42.36C95.7832 42.8541 96.1641 43.5395 96.1641 44.2926C96.1641 44.3444 96.164 44.3962 96.1592 44.448C96.4179 44.3842 96.6669 44.3125 96.9013 44.2368C96.8818 43.3362 96.4228 42.5233 95.6953 41.9336L95.1729 42.36Z" fill="url(#paint3_linear)"/>
</g>
</g>
</mask>
<g mask="url(#mask3)">
<path opacity="0.7" d="M95.1729 42.36C95.7832 42.8541 96.1641 43.5395 96.1641 44.2926C96.1641 44.3444 96.164 44.3962 96.1592 44.448C96.4179 44.3842 96.6669 44.3125 96.9013 44.2368C96.8818 43.3362 96.4228 42.5233 95.6953 41.9336L95.1729 42.36Z" fill="white"/>
</g>
</g>
<g opacity="0.7">
<mask id="mask4" mask-type="alpha" maskUnits="userSpaceOnUse" x="96" y="40" width="3" height="4">
<g opacity="0.7">
<g opacity="0.7">
<path opacity="0.7" d="M96.4814 41.2917C97.2968 41.9492 97.8436 42.8298 97.9803 43.8061C98.2244 43.6865 98.4539 43.559 98.659 43.4235C98.4393 42.4313 97.8485 41.5467 97.0038 40.8613L96.4814 41.2917Z" fill="url(#paint4_linear)"/>
</g>
</g>
</mask>
<g mask="url(#mask4)">
<path opacity="0.7" d="M96.4814 41.2917C97.2968 41.9492 97.8436 42.8298 97.9803 43.8061C98.2244 43.6865 98.4539 43.559 98.659 43.4235C98.4393 42.4313 97.8485 41.5467 97.0038 40.8613L96.4814 41.2917Z" fill="white"/>
</g>
</g>
<g opacity="0.7">
<mask id="mask5" mask-type="alpha" maskUnits="userSpaceOnUse" x="97" y="39" width="3" height="4">
<g opacity="0.7">
<g opacity="0.7">
<path opacity="0.7" d="M98.3123 39.7812L97.7899 40.2076C98.6053 40.8691 99.2205 41.69 99.5622 42.6104C99.7722 42.3315 99.904 42.0326 99.9479 41.7258C99.5573 40.9966 98.9959 40.3351 98.3123 39.7812Z" fill="url(#paint5_linear)"/>
</g>
</g>
</mask>
<g mask="url(#mask5)">
<path opacity="0.7" d="M98.3123 39.7812L97.7899 40.2076C98.6053 40.8691 99.2205 41.69 99.5622 42.6104C99.7722 42.3315 99.904 42.0326 99.9479 41.7258C99.5573 40.9966 98.9959 40.3351 98.3123 39.7812Z" fill="white"/>
</g>
</g>
<path opacity="0.4" d="M95.7442 46.2242C95.6661 46.1604 95.6563 46.0608 95.7247 45.9891C96.2129 45.475 96.4717 44.8454 96.4521 44.1879C96.4326 43.5185 96.1299 42.8889 95.5977 42.3908C95.5245 42.3231 95.5294 42.2195 95.6026 42.1557L95.6221 42.1398C95.6612 42.1039 95.7198 42.084 95.7832 42.084C95.8418 42.084 95.9004 42.1079 95.9395 42.1438C96.5449 42.7096 96.8867 43.4189 96.9111 44.18C96.9306 44.9251 96.6426 45.6384 96.086 46.2202C96.0469 46.26 95.9932 46.2839 95.9346 46.2879C95.876 46.2919 95.8125 46.276 95.7686 46.2401L95.7442 46.2242Z" fill="white"/>
<path opacity="0.4" d="M97.0087 47.3839C96.9306 47.3202 96.9257 47.2126 96.9989 47.1448C97.8485 46.3519 98.3123 45.3477 98.3123 44.2918C98.3123 43.2159 97.8338 42.1998 96.9599 41.4028C96.8915 41.339 96.8964 41.2434 96.9697 41.1836L97.0038 41.1557C97.0429 41.1239 97.1015 41.1039 97.1552 41.1079C97.2089 41.1119 97.2675 41.1318 97.3065 41.1637C98.2537 42.0284 98.7664 43.1282 98.7664 44.2957C98.7664 45.4473 98.2635 46.5352 97.3407 47.3959C97.3017 47.4317 97.248 47.4557 97.1845 47.4557C97.1259 47.4557 97.0673 47.4397 97.0234 47.4039L97.0087 47.3839Z" fill="white"/>
<path opacity="0.4" d="M98.2879 48.3924C98.2098 48.3286 98.2049 48.225 98.283 48.1573C99.4792 47.0774 100.138 45.6947 100.138 44.2323C100.138 42.7579 99.4743 41.3672 98.2586 40.2874C98.1805 40.2196 98.1854 40.112 98.2635 40.0443L98.283 40.0284C98.3221 39.9965 98.3807 39.9766 98.4393 39.9766C98.4979 39.9766 98.5516 39.9965 98.5906 40.0323C99.8845 41.1839 100.592 42.6623 100.592 44.2323C100.592 45.7903 99.8942 47.2647 98.615 48.4123C98.576 48.4442 98.5271 48.4641 98.4686 48.4641C98.4148 48.4641 98.3611 48.4482 98.3221 48.4163L98.2879 48.3924Z" fill="white"/>
<path d="M98.9226 56.8208L93.1663 45.7949C93.0393 45.8148 92.9075 45.8268 92.7757 45.8268C92.6487 45.8268 92.5267 45.8148 92.4095 45.7989L86.7117 56.8248H98.9226V56.8208ZM88.0495 56.2788L92.805 53.1787L97.5653 56.2788H88.0495ZM92.805 52.6208L90.891 51.3776H94.714L92.805 52.6208ZM97.6434 55.7688L93.2346 52.8958L95.4073 51.4812L97.6434 55.7688ZM94.6749 50.0865L93.2004 48.7197L93.718 48.2535L94.6749 50.0865ZM92.8489 48.389L92.4681 48.0344H93.2444L92.8489 48.389ZM92.7854 46.4604L93.3811 47.6H92.1946L92.7854 46.4604ZM91.9017 48.1698L92.4876 48.7118L90.8666 50.1702L91.9017 48.1698ZM92.8391 49.0425L94.8849 50.9393H90.7348L92.8391 49.0425ZM92.3802 52.8998L87.9714 55.7728L90.1929 51.4732L92.3802 52.8998Z" fill="#92C1F8"/>
<path d="M92.8305 45.833C93.9198 45.8225 94.7923 45.0932 94.7793 44.2042C94.7664 43.3152 93.8728 42.6031 92.7835 42.6137C91.6943 42.6242 90.8218 43.3535 90.8347 44.2425C90.8477 45.1315 91.7412 45.8436 92.8305 45.833Z" fill="#92C1F8"/>
<path opacity="0.7" d="M87.3806 79.4649H72.1768C70.5412 79.4649 69.1985 78.3731 69.1985 77.0342V65.7374C69.1985 64.4025 70.5363 63.3066 72.1768 63.3066H87.3806C89.0162 63.3066 90.3589 64.3985 90.3589 65.7374V77.0342C90.354 78.3731 89.0162 79.4649 87.3806 79.4649Z" fill="#D5E5FD"/>
<path d="M79.0219 72.5151C78.978 72.4792 78.9487 72.4314 78.9487 72.3756C78.9487 72.268 79.0561 72.1764 79.1928 72.1764H80.6624L79.7054 71.3953C79.6371 71.3396 79.6176 71.2519 79.6517 71.1802C79.6908 71.1045 79.7787 71.0566 79.8763 71.0566H81.9318C82.0637 71.0566 82.1759 71.1443 82.1759 71.2559C82.1759 71.3635 82.0685 71.4551 81.9318 71.4551H80.4622L81.4192 72.2361C81.4875 72.2919 81.5071 72.3796 81.4729 72.4513C81.4338 72.527 81.3459 72.5748 81.2483 72.5748H79.1928C79.1293 72.5709 79.0659 72.5509 79.0219 72.5151Z" fill="#3B8EF3"/>
<path d="M84.8515 69.7183C84.6611 69.5629 84.3535 69.5629 84.168 69.7183L83.1378 70.5591L82.1076 69.7183L83.1378 68.8775C83.3282 68.7221 83.3282 68.4711 83.1378 68.3197C82.9474 68.1643 82.6398 68.1643 82.4542 68.3197L81.424 69.1605L81.0823 68.8815C80.5159 68.4193 79.5931 68.4193 79.0268 68.8815L76.9713 70.5591C76.4049 71.0214 76.4049 71.7745 76.9713 72.2367L78.1724 73.217L77.1129 74.0816L75.9411 73.7629C75.7653 73.7151 75.5749 73.7509 75.4431 73.8585L74.9597 74.253C74.8279 74.3606 74.784 74.516 74.8425 74.6594L75.2331 75.6158L74.4764 76.2334C74.286 76.3888 74.286 76.6399 74.4764 76.7913C74.5691 76.867 74.6961 76.9068 74.8181 76.9068C74.9402 76.9068 75.0671 76.867 75.1599 76.7913L76.1315 75.9983C76.2633 75.8907 76.3073 75.7353 76.2487 75.5919L75.8581 74.6355L75.9216 74.5837L77.0933 74.9025C77.2691 74.9503 77.4595 74.9145 77.5914 74.8069L78.8657 73.7668L80.0667 74.7471C80.6331 75.2093 81.5559 75.2093 82.1222 74.7471L84.1777 73.0695C84.7441 72.6073 84.7441 71.8542 84.1777 71.3919L83.836 71.113L84.8662 70.2722C85.037 70.1208 85.037 69.8737 84.8515 69.7183ZM83.4795 72.5156L81.424 74.1932C81.2385 74.3446 80.926 74.3446 80.7405 74.1932L77.6548 71.6748C77.4693 71.5234 77.4693 71.2684 77.6548 71.117L79.7103 69.4394C79.8958 69.288 80.2083 69.288 80.3939 69.4394L83.4795 71.9578C83.6651 72.1092 83.6651 72.3642 83.4795 72.5156Z" fill="#3B8EF3"/>
<path opacity="0.3" d="M79.6566 71.1812C79.6957 71.1055 79.7836 71.0576 79.8812 71.0576H80.0033L81.1848 70.0814L80.3939 69.4358C80.2083 69.2844 79.8958 69.2844 79.7103 69.4358L77.6548 71.1134C77.4693 71.2648 77.4693 71.5199 77.6548 71.6713L78.4604 72.3288L79.6713 71.3286C79.642 71.2848 79.6273 71.233 79.6566 71.1812Z" fill="#3B8EF3"/>
<path opacity="0.7" d="M116.675 70.2358H102.331C100.788 70.2358 99.5232 69.2037 99.5232 67.9446V57.2893C99.5232 56.0301 100.788 54.998 102.331 54.998H116.675C118.218 54.998 119.482 56.0301 119.482 57.2893V67.9446C119.482 69.2037 118.218 70.2358 116.675 70.2358Z" fill="#D5E5FD"/>
<path d="M110.186 65.8879V66.2864H105.289V60.6878H110.186V61.0863H111.168V60.2854C111.168 59.6239 110.509 59.0859 109.698 59.0859H105.778C104.967 59.0859 104.308 59.6239 104.308 60.2854V66.6849C104.308 67.3464 104.967 67.8843 105.778 67.8843H109.698C110.509 67.8843 111.168 67.3464 111.168 66.6849V65.8839H110.186V65.8879ZM105.778 59.8909H109.698C109.962 59.8909 110.186 60.0742 110.186 60.2893H105.289C105.289 60.0742 105.514 59.8909 105.778 59.8909ZM109.698 67.0874H105.778C105.514 67.0874 105.289 66.9041 105.289 66.6889H110.186C110.186 66.908 109.962 67.0874 109.698 67.0874Z" fill="#3B8EF3"/>
<path d="M110.186 65.8879V66.2864H105.289V60.6878H110.186V61.0863H111.168V60.2854C111.168 59.6239 110.509 59.0859 109.698 59.0859H105.778C104.967 59.0859 104.308 59.6239 104.308 60.2854V66.6849C104.308 67.3464 104.967 67.8843 105.778 67.8843H109.698C110.509 67.8843 111.168 67.3464 111.168 66.6849V65.8839H110.186V65.8879ZM105.778 59.8909H109.698C109.962 59.8909 110.186 60.0742 110.186 60.2893H105.289C105.289 60.0742 105.514 59.8909 105.778 59.8909ZM109.698 67.0874H105.778C105.514 67.0874 105.289 66.9041 105.289 66.6889H110.186C110.186 66.908 109.962 67.0874 109.698 67.0874Z" fill="#3B8EF3"/>
<path d="M114.107 61.4923C114.375 61.4923 114.595 61.6716 114.595 61.8908V65.0905C114.595 65.3097 114.375 65.489 114.107 65.489H108.229C107.96 65.489 107.74 65.3097 107.74 65.0905V61.8908C107.74 61.6716 107.96 61.4923 108.229 61.4923H114.107ZM114.107 61.0898H108.229C107.691 61.0898 107.247 61.4485 107.247 61.8908V65.0905C107.247 65.5289 107.687 65.8915 108.229 65.8915H114.107C114.644 65.8915 115.088 65.5329 115.088 65.0905V61.8908C115.088 61.4525 114.644 61.0898 114.107 61.0898Z" fill="#3B8EF3"/>
<path d="M109.454 65.0918H108.473C108.336 65.0918 108.229 65.0002 108.229 64.8926C108.229 64.781 108.341 64.6934 108.473 64.6934H109.454C109.591 64.6934 109.698 64.785 109.698 64.8926C109.698 65.0002 109.586 65.0918 109.454 65.0918Z" fill="#3B8EF3"/>
<path d="M111.412 65.0918H110.43C110.294 65.0918 110.186 65.0002 110.186 64.8926C110.186 64.781 110.299 64.6934 110.43 64.6934H111.412C111.549 64.6934 111.656 64.785 111.656 64.8926C111.656 65.0002 111.549 65.0918 111.412 65.0918Z" fill="#3B8EF3"/>
<path d="M113.863 65.0918H112.393C112.256 65.0918 112.149 65.0002 112.149 64.8926C112.149 64.781 112.261 64.6934 112.393 64.6934H113.863C114 64.6934 114.107 64.785 114.107 64.8926C114.107 65.0002 113.995 65.0918 113.863 65.0918Z" fill="#3B8EF3"/>
<path d="M110.548 63.7594L110.201 63.2254H110.152H109.698V63.7594H109.205V61.8945H110.152C110.435 61.8945 110.655 61.9503 110.811 62.0619C110.968 62.1735 111.046 62.3329 111.046 62.5401C111.046 62.6835 111.011 62.807 110.943 62.9106C110.875 63.0143 110.772 63.09 110.64 63.1418L111.104 63.7554H110.548V63.7594ZM109.698 62.8748H110.152C110.289 62.8748 110.396 62.8469 110.47 62.7951C110.543 62.7393 110.582 62.6636 110.582 62.556C110.582 62.4524 110.543 62.3767 110.47 62.3249C110.396 62.2731 110.289 62.2452 110.152 62.2452H109.698V62.8748Z" fill="#3B8EF3"/>
<path d="M112.75 62.4084C112.867 62.4681 112.96 62.5558 113.028 62.6674C113.096 62.7789 113.126 62.9065 113.126 63.0539C113.126 63.1973 113.091 63.3249 113.028 63.4324C112.964 63.54 112.872 63.6277 112.755 63.6875C112.637 63.7472 112.501 63.7791 112.344 63.7791C112.227 63.7791 112.125 63.7592 112.037 63.7233C111.944 63.6835 111.871 63.6317 111.807 63.556V64.2812H111.329V62.3326H111.807V62.5438C111.866 62.4721 111.944 62.4163 112.032 62.3765C112.125 62.3366 112.222 62.3207 112.335 62.3207C112.496 62.3167 112.632 62.3446 112.75 62.4084ZM112.525 63.3248C112.603 63.2531 112.642 63.1575 112.642 63.0379C112.642 62.9224 112.603 62.8268 112.525 62.755C112.447 62.6833 112.349 62.6435 112.227 62.6435C112.105 62.6435 112.003 62.6793 111.924 62.755C111.846 62.8268 111.807 62.9224 111.807 63.0379C111.807 63.1575 111.846 63.2531 111.924 63.3248C112.003 63.3966 112.1 63.4324 112.227 63.4324C112.349 63.4364 112.447 63.4006 112.525 63.3248Z" fill="#3B8EF3"/>
<g opacity="0.3">
<path opacity="0.3" d="M105.289 60.2931H106.759V59.8946H105.778C105.514 59.8906 105.289 60.0739 105.289 60.2931Z" fill="#3B8EF3"/>
<path opacity="0.3" d="M106.759 60.6914H105.289V66.29H106.759V60.6914Z" fill="#3B8EF3"/>
<path opacity="0.3" d="M105.778 67.0879H106.759V66.6895H105.289C105.289 66.9086 105.514 67.0879 105.778 67.0879Z" fill="#3B8EF3"/>
</g>
<path opacity="0.3" d="M108.473 65.0904C108.336 65.0904 108.229 64.9988 108.229 64.8912C108.229 64.7796 108.341 64.692 108.473 64.692H108.717V61.4922H108.229C107.96 61.4922 107.74 61.6715 107.74 61.8907V65.0904C107.74 65.3096 107.96 65.4889 108.229 65.4889H108.717V65.0904H108.473Z" fill="#3B8EF3"/>
<path opacity="0.3" d="M32.1849 48.7019C32.1507 46.7813 30.6909 40.9356 34.3868 40.3857C38.0828 39.8358 57.6711 39.2899 60.0244 39.1983C62.3777 39.1066 63.6081 39.5649 64.0524 41.9398C64.5016 44.3147 65.3218 52.1727 63.6423 52.2643C61.9627 52.356 38.3416 53.7267 36.7743 54.0933C35.2071 54.4559 32.2972 54.6392 32.1849 48.7019Z" fill="#3576C4"/>
<path opacity="0.3" d="M48.79 55.7353C49.1189 55.7353 49.3856 55.5033 49.3856 55.2172C49.3856 54.9311 49.1189 54.6992 48.79 54.6992C48.461 54.6992 48.1943 54.9311 48.1943 55.2172C48.1943 55.5033 48.461 55.7353 48.79 55.7353Z" fill="#3576C4"/>
<path opacity="0.3" d="M46.1046 55.9189C46.4336 55.9189 46.7003 55.6869 46.7003 55.4008C46.7003 55.1147 46.4336 54.8828 46.1046 54.8828C45.7757 54.8828 45.509 55.1147 45.509 55.4008C45.509 55.6869 45.7757 55.9189 46.1046 55.9189Z" fill="#3576C4"/>
<path opacity="0.3" d="M51.6022 55.5595C51.9312 55.5595 52.1979 55.3276 52.1979 55.0415C52.1979 54.7554 51.9312 54.5234 51.6022 54.5234C51.2733 54.5234 51.0066 54.7554 51.0066 55.0415C51.0066 55.3276 51.2733 55.5595 51.6022 55.5595Z" fill="#3576C4"/>
<path opacity="0.3" d="M35.5586 97.3277C36.5888 103.998 37.3212 104.676 39.5524 104.241C41.8423 103.795 52.6617 101.097 60.1074 98.9535C67.5531 96.8097 67.8949 95.6859 68.3538 93.7215C68.4319 93.3947 68.4124 91.7012 68.3294 89.123L35.5586 97.3277Z" fill="#3576C4"/>
</g>
<defs>
<linearGradient id="paint0_linear" x1="89.6315" y1="41.9316" x2="89.6315" y2="44.4486" gradientUnits="userSpaceOnUse">
<stop stop-color="#999999"/>
<stop offset="1" stop-color="#333333"/>
</linearGradient>
<linearGradient id="paint1_linear" x1="88.0993" y1="40.8617" x2="88.0993" y2="43.8084" gradientUnits="userSpaceOnUse">
<stop stop-color="#999999"/>
<stop offset="1" stop-color="#333333"/>
</linearGradient>
<linearGradient id="paint2_linear" x1="86.7988" y1="39.7954" x2="86.7988" y2="42.6218" gradientUnits="userSpaceOnUse">
<stop stop-color="#999999"/>
<stop offset="1" stop-color="#333333"/>
</linearGradient>
<linearGradient id="paint3_linear" x1="96.0401" y1="41.9316" x2="96.0401" y2="44.4466" gradientUnits="userSpaceOnUse">
<stop stop-color="#999999"/>
<stop offset="1" stop-color="#333333"/>
</linearGradient>
<linearGradient id="paint4_linear" x1="97.5719" y1="40.8636" x2="97.5719" y2="43.8065" gradientUnits="userSpaceOnUse">
<stop stop-color="#999999"/>
<stop offset="1" stop-color="#333333"/>
</linearGradient>
<linearGradient id="paint5_linear" x1="98.8704" y1="39.7817" x2="98.8704" y2="42.6102" gradientUnits="userSpaceOnUse">
<stop stop-color="#999999"/>
<stop offset="1" stop-color="#333333"/>
</linearGradient>
<clipPath id="clip0">
<rect width="120" height="110.557" fill="white"/>
</clipPath>
</defs>
</svg>
