<svg width="120" height="111" viewBox="0 0 120 111" fill="none" xmlns="http://www.w3.org/2000/svg">
<g clip-path="url(#clip0)">
<path d="M44.3717 9.43555H82.1211C100.98 9.43555 116.263 23.9575 116.263 41.8661V78.127C116.263 96.0401 100.975 110.558 82.1211 110.558H44.3717C25.5131 110.558 10.2293 96.0357 10.2293 78.127V41.8661C10.2293 23.9531 25.5131 9.43555 44.3717 9.43555Z" fill="#E0E3ED"/>
<path d="M86.001 41.1448C84.3038 38.5795 82.2043 36.2075 81.0667 33.3743C79.9245 30.5411 79.9661 26.9918 82.2228 24.8483C82.5835 24.5056 82.9951 24.2069 83.4668 24.0224C84.7385 23.5305 87.0693 24.0883 88.1745 25.0327C89.5295 26.1968 90.3295 27.9846 90.9584 29.175C91.0417 29.3111 91.1157 29.4517 91.1896 29.5967C91.1896 29.5967 91.1943 29.6011 91.1943 29.6054C91.592 30.3829 91.8602 31.2263 91.9619 32.0873C92.0775 33.0405 92.0267 34.0639 92.5446 34.8854C93.0625 35.7068 94.4915 36.0801 95.0464 35.2763C95.2638 34.96 95.2869 34.5603 95.2915 34.1825C95.3563 29.052 94.0244 24.0093 93.2938 18.927C92.5585 13.8448 92.4752 8.44189 94.8568 3.83405C95.7586 2.09019 97.2061 0.377076 99.2223 0.0520231C100.785 -0.198355 102.418 0.478105 103.495 1.58504C104.573 2.69198 105.146 4.17228 105.373 5.66577C105.835 8.75816 104.892 11.8989 103.505 14.7321C102.117 17.5653 100.295 20.1833 98.8385 22.9858C98.4269 23.7809 98.0385 24.6155 97.9968 25.5028C97.9552 26.3901 98.3437 27.3433 99.1576 27.7737C99.7449 28.0856 100.466 28.0856 101.128 27.967C103.227 27.5848 104.91 26.1529 106.751 25.1162C109.322 23.6666 112.508 22.9594 115.343 23.8599C118.178 24.7648 120.412 27.5629 119.931 30.3654C119.408 33.4094 116.106 35.3466 112.915 35.9352C109.729 36.5238 106.409 36.1812 103.222 36.7698C101.299 37.1256 99.1668 38.1359 98.8755 39.9764C98.6073 41.6719 100.161 43.2357 101.895 43.6969C103.629 44.1581 105.479 43.7979 107.237 43.4202C108.994 43.0424 110.825 42.6515 112.578 43.0468C114.377 43.4553 115.93 44.7336 116.615 46.3676C117.299 48.0017 117.091 49.9432 116.074 51.4147C114.381 53.8702 110.95 54.6433 107.861 54.6608C104.767 54.6784 101.618 54.1601 98.6211 54.8937C97.9506 55.0562 97.2754 55.2978 96.7806 55.7546C95.31 57.1163 96.1286 59.4224 96.2997 61.3683C96.517 63.8458 95.3933 66.3935 93.3816 67.9836C91.37 69.5737 88.526 70.1623 86.001 69.5122L84.9374 69.7494C83.2263 69.6396 81.9454 68.01 81.8436 66.3847C81.7419 64.7594 82.5697 63.2045 83.6055 61.9086C84.646 60.6128 85.9131 59.4971 86.9166 58.1793C88.4242 56.2026 89.2982 53.7955 89.3954 51.3576C89.4786 49.3107 89.0346 47.3428 88.3502 45.4144C87.6889 43.9385 86.9028 42.5065 86.001 41.1448Z" fill="#26AC63"/>
<path d="M26.2438 43.9434H6.77484V92.2356H26.2438V43.9434Z" fill="#2E475E"/>
<path d="M71.9149 40.9778H0L9.89171 30.3828H81.8066L71.9149 40.9778Z" fill="#2E475E"/>
<path d="M0.000602722 46.9082L72.2577 46.9082L72.2577 40.9738L0.000602723 40.9738L0.000602722 46.9082Z" fill="#2E475E"/>
<path d="M30.1283 40.9778H93.7377L83.846 30.3828H20.2366L30.1283 40.9778Z" fill="#3B8EF3"/>
<path d="M28.4635 30.3828L38.3552 40.9778H40.2004L30.3087 30.3828H28.4635Z" fill="#204E85"/>
<path d="M37.8882 30.3828L47.7799 40.9778H49.625L39.7333 30.3828H37.8882Z" fill="#204E85"/>
<path d="M47.3082 30.3828L57.1999 40.9778H59.045L49.1533 30.3828H47.3082Z" fill="#204E85"/>
<path d="M56.7328 30.3828L66.6245 40.9778H68.4697L58.578 30.3828H56.7328Z" fill="#204E85"/>
<path d="M66.1528 30.3828L76.0445 40.9778H77.8897L67.998 30.3828H66.1528Z" fill="#204E85"/>
<path d="M75.5775 30.3828L85.4692 40.9778H87.3144L77.4226 30.3828H75.5775Z" fill="#204E85"/>
<path d="M93.7377 40.9785H30.0451V46.9129H93.7377V40.9785Z" fill="#204E85"/>
<path d="M86.5837 46.9121H25.12V69.5735H86.5837V46.9121Z" fill="#D1D6DB"/>
<path d="M86.5837 69.5742H25.12V92.2356H86.5837V69.5742Z" fill="#A2ADB7"/>
<path d="M61.4544 46.9121H59.6092V69.5735H61.4544V46.9121Z" fill="#A2ADB7"/>
<path d="M87.3144 40.9551H85.4692V46.9071H87.3144V40.9551Z" fill="#3B8EF3"/>
<path d="M77.8897 40.9551H76.0446V46.9071H77.8897V40.9551Z" fill="#3B8EF3"/>
<path d="M68.4697 40.9551H66.6245V46.9071H68.4697V40.9551Z" fill="#3B8EF3"/>
<path d="M59.045 40.9551H57.1999V46.9071H59.045V40.9551Z" fill="#3B8EF3"/>
<path d="M49.625 40.9551H47.7799V46.9071H49.625V40.9551Z" fill="#3B8EF3"/>
<path d="M40.2004 40.9551H38.3552V46.9071H40.2004V40.9551Z" fill="#3B8EF3"/>
<path d="M38.7807 77.2344H29.6196V80.9022H38.7807V77.2344Z" fill="#D1D6DB"/>
<path d="M50.4389 86.8978H41.4397C41.3935 86.8978 41.3611 86.8627 41.3611 86.8231V83.309C41.3611 83.2651 41.3981 83.2344 41.4397 83.2344H50.4436C50.4898 83.2344 50.5222 83.2695 50.5222 83.309V86.8231C50.5222 86.8627 50.4852 86.8978 50.4389 86.8978Z" fill="#D1D6DB"/>
<path d="M72.2802 82.1361H63.2764C63.2302 82.1361 63.1978 82.1009 63.1978 82.0614V78.5473C63.1978 78.5034 63.2348 78.4727 63.2764 78.4727H72.2802C72.3265 78.4727 72.3589 78.5078 72.3589 78.5473V82.0614C72.3589 82.1009 72.3265 82.1361 72.2802 82.1361Z" fill="#D1D6DB"/>
<path d="M64.6545 69.5735H62.0139L74.5925 46.9121H77.233L64.6545 69.5735Z" fill="white"/>
<path d="M90.8844 92.2344H2.02087V95.8539H90.8844V92.2344Z" fill="#2E475E"/>
<path d="M33.31 50.3608C33.31 50.3608 42.7808 51.8367 51.5488 51.8367C60.3168 51.8367 81.3812 50.3608 85.6218 50.6287C89.8624 50.8967 94.103 50.2246 94.103 50.2246C94.103 50.2246 95.236 55.0609 98.2049 58.0127C101.174 60.9689 103.435 63.3848 103.435 63.3848C103.435 63.3848 84.6322 61.3686 80.2482 63.3848C75.8642 65.401 40.8016 64.0569 39.5298 64.729C38.2581 65.401 33.31 50.3608 33.31 50.3608Z" fill="#61D093"/>
<path d="M29.4902 46.5996C29.4902 46.5996 30.3364 48.6817 31.4001 48.8838C32.4591 49.0858 34.1562 50.9659 34.1562 50.9659" stroke="#3B8EF3" stroke-miterlimit="10" stroke-linecap="round"/>
<path d="M92.9747 46.332C92.9747 46.332 93.895 46.9382 93.821 47.6762C93.7516 48.4141 93.821 50.6983 93.821 50.6983" stroke="#3B8EF3" stroke-miterlimit="10" stroke-linecap="round"/>
<path d="M103.93 77.903C104.272 78.3554 107.699 78.2236 109.105 77.9645C110.511 77.7053 112.864 76.5676 113.253 76.225C113.641 75.8868 112.564 73.8222 111.75 71.5513C110.857 69.0607 110.39 65.7267 110.478 62.5816C110.511 61.3429 108.185 59.2915 107.283 58.9006C106.381 58.5096 102.288 56.7614 100.938 56.2255C100.91 55.6193 99.2593 54.2356 94.6071 53.4713C93.3215 53.2605 88.8266 52.9091 88.6185 54.0292C87.0693 54.1741 81.9685 54.3806 80.5858 54.6837C80.1372 54.7847 76.9694 55.9224 76.0769 56.3924C75.078 56.9195 73.1635 62.911 72.7334 63.4469C72.3034 63.9828 70.7866 66.6711 68.9183 68.4237C68.7934 68.538 70.2501 71.3229 72.4514 72.4386C75.0457 73.6905 76.5394 74.0814 76.9648 73.8969C77.3903 73.7124 78.477 71.9115 78.477 71.9115L78.1117 73.0184C77.492 74.8896 77.1036 76.8224 76.8723 78.7727C76.7798 79.5546 76.5995 80.3145 76.1833 81.2106C75.6977 82.256 75.2353 83.3937 75.1474 84.0878C74.9578 85.6339 73.4179 91.4146 73.0248 93.7163C72.53 96.6286 70.8374 98.5746 70.8374 98.7766C70.8374 98.9787 74.5971 101.28 77.7787 102.172C81.839 103.305 84.3593 102.919 86.7502 103.182C89.141 103.446 89.3352 104.193 92.8082 104.496C96.2812 104.794 100.124 104.184 100.388 104.03C100.651 103.876 99.7911 102.326 100.193 99.0841C100.36 97.7312 100.633 96.0488 100.647 94.6871C100.67 92.7895 100.73 90.0134 100.906 88.4584C101.41 84.0526 103.694 75.4563 103.694 75.4563C103.694 75.4563 103.588 77.4461 103.93 77.903Z" fill="#3A8FF3"/>
<path d="M75.9012 99.1019C74.8653 97.973 73.8063 97.5776 73.6306 95.2671C73.552 94.2217 73.2976 93.7209 73.3809 91.9727C73.2283 92.6535 73.1034 93.2553 73.0248 93.7165C72.7103 95.5702 71.9473 96.8309 71.3692 97.8983C72.6086 96.6771 74.1162 98.6494 75.9012 99.1019Z" fill="#3576C4"/>
<path d="M89.4092 56.2206C89.7838 56.8971 91.3515 58.5004 91.8093 59.1285C92.6371 60.2662 92.3735 59.1549 93.599 59.313C94.5285 59.436 95.2222 60.3057 96.0037 59.8269C96.961 59.2383 99.227 57.8766 101.192 57.3407C102.117 57.0903 102.945 57.1387 103.592 57.3275C102.52 56.8751 101.498 56.449 100.943 56.2294C100.915 55.6232 99.264 54.2395 94.6117 53.4752C93.3261 53.2644 88.8312 52.913 88.6231 54.0331C88.2947 54.0638 87.8045 54.099 87.2265 54.1341C88.2207 54.4943 88.8867 55.2894 89.4092 56.2206Z" fill="#3576C4"/>
<path d="M104.924 78.1626C103.722 77.1435 104.194 74.5387 104.577 73.2077C104.92 72.0261 106.617 69.2368 107.135 68.1123C107.736 66.8121 107.68 65.3889 107.232 65.9467C105.771 67.7653 103.69 75.4611 103.69 75.4611C103.69 75.4611 103.588 77.4466 103.93 77.899C104.032 78.0352 104.411 78.1186 104.924 78.1626Z" fill="#3576C4"/>
<path d="M80.2482 66.5081C80.6551 64.3513 81.1731 60.0158 79.6886 58.0611C79.2586 57.4944 79.6146 59.3262 79.9846 60.5517C80.5673 62.5723 80.2436 66.1479 79.7811 67.2987C79.2354 68.6517 77.862 71.744 77.6816 73.1101C78.0839 72.5523 78.4724 71.911 78.4724 71.911C78.4724 71.911 79.9938 67.8698 80.2482 66.5081Z" fill="#3576C4"/>
<path d="M75.7948 72.0997C76.396 71.9811 76.5579 71.3529 76.6365 70.9444C76.7151 70.5359 75.5729 71.6516 72.4884 71.3969C70.9068 71.2695 75.1937 72.2139 75.7948 72.0997Z" fill="#3576C4"/>
<path d="M75.9151 59.8535C75.9151 59.8535 76.2619 63.0601 76.5486 64.6239C76.8353 66.1921 78.5233 69.9961 78.2643 69.7281C78.0053 69.4602 75.8966 65.8055 75.67 64.9534C75.4434 64.1012 75.4526 59.6998 75.9151 59.8535Z" fill="#3576C4"/>
<path d="M74.5925 64.4844C74.5925 64.4844 74.9624 66.6455 75.4249 67.6119C75.8919 68.5783 76.5024 69.6852 76.3544 70.3793C76.3128 70.5593 74.8283 67.9062 74.5971 67.322C74.3705 66.7422 74.3289 64.5107 74.5925 64.4844Z" fill="#3576C4"/>
<path d="M92.0035 65.8848C92.0035 65.8848 89.9179 70.0533 87.7722 74.7666C85.6264 79.4799 79.1568 86.6354 77.6816 89.864C76.2064 93.0969 86.0195 82.871 86.838 80.376C88.1098 76.5324 92.3226 66.2362 92.0035 65.8848Z" fill="#3576C4"/>
<path d="M92.5215 74.9941C92.5215 74.9941 91.1157 78.7279 88.7017 83.283C86.2877 87.8381 81.2702 95.1167 79.6146 98.2442C77.9591 101.367 85.1362 90.5967 86.5097 88.5234C87.8878 86.4457 92.5446 75.2753 92.5215 74.9941Z" fill="#3576C4"/>
<path d="M109.128 65.6602C109.128 65.6602 108.702 68.4187 107.828 69.451C106.954 70.4832 106.742 72.517 106.76 73.0661C106.783 73.6152 107.158 71.2563 108.111 70.2592C109.059 69.2665 109.576 65.9281 109.128 65.6602Z" fill="#3576C4"/>
<path d="M108.272 72.0433C108.296 71.7138 106.205 74.4153 106.386 75.6057C106.561 76.8971 108.249 72.3683 108.272 72.0433Z" fill="#3576C4"/>
<path d="M111.38 75.1311C111.38 75.1311 109.507 76.629 107.713 76.8442C105.923 77.0594 105.021 76.4664 104.984 76.238C104.947 76.0096 106.219 76.6992 108.175 76.3259C110.136 75.9569 112.12 74.6127 111.38 75.1311Z" fill="#3576C4"/>
<path d="M90.6856 57.5164C91.6059 58.7024 92.7759 61.2721 94.6719 60.4946C97.109 59.4887 101.132 56.3041 100.947 56.2294C100.92 55.6232 99.2686 54.2395 94.6164 53.4752C93.3308 53.2644 88.8358 52.913 88.6277 54.0331C88.4751 54.0419 89.8023 56.3831 90.6856 57.5164Z" fill="#204E85"/>
<path d="M94.4638 54.2664C98.2327 54.8857 100.032 55.9136 100.596 56.6033C100.85 56.3836 100.98 56.2431 100.943 56.2255C100.915 55.6193 99.2639 54.2356 94.6117 53.4713C93.3261 53.2605 88.8312 52.9091 88.6231 54.0292C88.5861 54.0336 88.6462 54.1961 88.7757 54.4509C89.8301 53.7964 93.3493 54.0863 94.4638 54.2664Z" fill="#3576C4"/>
<path d="M100.943 56.2249C100.938 56.0712 100.818 55.8603 100.573 55.6275C100.864 55.9877 96.5771 58.8824 94.6719 59.7038C92.8452 60.4945 91.7122 57.8326 90.8289 56.6554C90.1954 55.8076 88.8867 53.6772 89.1503 53.541C88.8543 53.6596 88.6601 53.8177 88.6231 54.0286C88.4751 54.0418 89.8069 56.383 90.6856 57.5119C91.6059 58.6979 92.7758 61.2676 94.6719 60.4901C97.1043 59.4886 101.128 56.2996 100.943 56.2249Z" fill="#3A8FF3"/>
<path d="M100.304 98.2018C100.457 97.0465 100.633 95.7683 100.642 94.6921C100.665 92.7945 100.725 90.0184 100.901 88.4634C100.933 88.1867 100.97 87.8923 101.017 87.5805C99.7079 86.4911 98.0847 84.2553 97.2847 82.9067C96.5771 81.712 97.0211 75.1011 96.665 76.6253C95.717 79.9725 96.0453 86.0958 96.9193 87.7825C98.131 90.115 99.4165 95.1533 100.304 98.2018Z" fill="#3576C4"/>
<path d="M81.1315 75.0346C80.6736 75.9351 77.9082 79.2515 76.8168 79.1241C76.7105 79.783 76.5347 80.4463 76.1833 81.2062C77.6631 80.4331 79.6563 78.5311 80.7985 76.796C82.6067 74.0506 83.4437 72.7065 85.4276 68.2744C85.9039 67.207 82.0517 73.2248 81.1315 75.0346Z" fill="#3576C4"/>
<path d="M41.9531 90.2022C42.3878 90.9446 43.0121 91.6825 43.6364 92.3722C44.0479 92.8202 44.4641 93.2507 44.8295 93.6416C45.2873 94.1292 45.6711 94.5641 45.8977 94.9243C46.0318 95.1395 46.1104 95.324 46.1104 95.4777C46.1104 95.8511 45.9347 96.3299 45.6896 96.8702C45.5324 97.2172 45.3474 97.5906 45.1578 97.9859C44.3532 99.6683 43.5161 101.702 44.7416 103.446C46.7024 106.24 49.0932 107.021 49.0932 107.021L47.7198 98.3417C47.7198 98.3417 47.8492 97.7882 48.0666 96.9844C48.1267 96.7779 48.1915 96.5495 48.2562 96.3123C48.4412 95.6754 48.6678 94.955 48.9221 94.2478C49.0609 93.8525 49.2088 93.4615 49.3661 93.097C49.4216 92.9608 49.4724 92.8026 49.514 92.6313C49.699 91.8626 49.7175 90.7645 49.5279 89.6488C49.4493 89.1744 49.3291 88.6956 49.1672 88.2387C48.3811 85.9985 46.596 84.259 43.3635 85.836C40.9357 87.022 41.0282 88.6209 41.9531 90.2022Z" fill="#3576C4"/>
<path d="M60.6312 82.5844C60.6312 82.5844 59.822 81.6048 59.5861 81.104C59.3503 80.6033 58.6473 79.9049 58.541 80.5154C58.4392 81.1304 58.245 82.3603 58.245 82.3603L60.6312 82.5844Z" fill="#3576C4"/>
<path d="M65.7782 108.031C65.7782 108.031 65.0152 107.307 64.1319 107.285C63.2487 107.267 63.2487 107.267 63.2487 107.267C63.2487 107.267 65.7967 106.577 67.5402 104.122C69.2836 101.662 69.8524 99.1891 67.9934 98.9256C66.1343 98.662 63.466 99.3561 63.466 99.3561C63.466 99.3561 67.7575 98.3677 68.8165 93.7862C69.8755 89.2048 69.6443 85.1987 69.6165 84.6936C69.5888 84.1928 69.6027 82.8487 70.2917 82.4182C70.9808 81.9833 71.7022 81.6758 71.3507 80.7139C70.9993 79.7519 69.4408 79.8353 68.5437 80.894C67.6465 81.9526 67.1332 86.0465 65.9863 87.7772C64.8395 89.5079 63.1331 91.2693 63.1331 91.2693C63.1331 91.2693 64.1319 88.6249 64.3308 87.6015C64.525 86.578 65.3482 83.8765 63.7019 83.3934C62.0556 82.9102 59.6231 81.3991 57.9953 81.7549C56.3675 82.1107 54.1154 83.859 53.898 83.9161C53.6807 83.9732 51.9373 83.4505 51.3869 82.9277C50.8366 82.405 50.4251 82.8179 50.5638 83.3934C50.7025 83.9688 51.9557 86.7449 52.9361 88.234C53.9165 89.7231 54.9339 92.3499 53.5651 93.6325C52.1916 94.9195 47.5163 97.1598 46.7394 99.1452C45.9578 101.126 46.3509 104.75 47.7059 106.182C49.0608 107.614 49.6481 108.119 49.6481 108.119L65.7782 108.031Z" fill="#3A8FF3"/>
<path d="M65.7783 108.031L63.9007 108.039C63.503 107.706 63.0267 107.31 62.7816 107.135C62.3099 106.801 66.3101 103.669 67.5448 101.494C68.7795 99.3157 62.9573 99.3728 62.9573 99.3728C62.9573 99.3728 64.132 98.1429 66.4858 96.3024C68.8397 94.4575 68.6038 88.0355 68.7194 84.4599C68.7888 82.3295 70.2594 81.429 71.434 81.0469C71.5218 81.7585 70.8975 82.0396 70.2917 82.4174C69.6027 82.8522 69.5842 84.192 69.6166 84.6927C69.6443 85.1935 69.8755 89.2039 68.8165 93.7854C67.8176 98.1121 63.9285 99.2322 63.503 99.3421C63.836 99.2586 66.2592 98.6832 67.9934 98.9248C69.857 99.1839 69.2882 101.661 67.5402 104.121C65.7968 106.581 63.2487 107.266 63.2487 107.266C63.2487 107.266 63.2487 107.266 64.132 107.284C65.0152 107.301 65.7783 108.031 65.7783 108.031Z" fill="#3576C4"/>
<path d="M41.9531 90.2009C42.3878 90.9433 43.0121 91.6813 43.6364 92.3709C45.4307 91.2244 47.8862 89.8364 49.5279 89.6475C49.4493 89.1731 49.3291 88.6943 49.1672 88.2375C47.4284 88.1935 44.2699 88.4044 41.9531 90.2009Z" fill="#3A8FF3"/>
<path d="M44.8341 93.6372C45.2919 94.1248 45.6757 94.5597 45.9023 94.9199C46.9983 94.5553 48.2331 94.2127 48.9267 94.2434C49.0655 93.8481 49.2135 93.4572 49.3707 93.0926C49.4262 92.9564 49.477 92.7983 49.5187 92.627C48.4597 92.6489 46.4527 92.8071 44.8341 93.6372Z" fill="#3A8FF3"/>
<path d="M45.1624 97.9862C45.7821 97.7578 47.3359 97.1868 48.0758 96.9847C48.136 96.7783 48.2007 96.5499 48.2654 96.3127C47.6041 96.3083 46.5868 96.3961 45.6989 96.8705C45.537 97.2175 45.352 97.5953 45.1624 97.9862Z" fill="#3A8FF3"/>
<path d="M61.0937 84.4922C61.2093 84.5273 62.1527 84.9754 62.1527 84.9754L60.9781 85.4981L61.0937 84.4922Z" fill="#3576C4"/>
<path d="M62.6429 84.0573C62.6937 84.0573 62.74 84.0309 62.7631 83.9826L63.8221 81.637C63.8499 81.5755 63.8221 81.5052 63.7527 81.4789C63.688 81.4525 63.614 81.4788 63.5863 81.5447L62.5273 83.8904C62.4995 83.9519 62.5273 84.0222 62.5966 84.0485C62.6059 84.0529 62.6244 84.0573 62.6429 84.0573Z" fill="#3576C4"/>
<path d="M63.4244 84.4654C63.4475 84.4654 63.466 84.461 63.4892 84.4478L66.3101 82.9192C66.3702 82.884 66.3933 82.8094 66.3563 82.7523C66.3193 82.6952 66.2453 82.6732 66.1806 82.7083L63.3597 84.237C63.2995 84.2721 63.2764 84.3468 63.3134 84.4039C63.3365 84.4434 63.3828 84.4654 63.4244 84.4654Z" fill="#3576C4"/>
<path d="M66.0742 85.378C66.139 85.378 66.1945 85.3297 66.2037 85.2638C66.2083 85.1979 66.1575 85.1364 66.0881 85.132L63.577 84.9475C63.5076 84.9432 63.4429 84.9915 63.4383 85.0574C63.4337 85.1232 63.4845 85.1847 63.5539 85.1891L66.065 85.3736C66.065 85.378 66.0696 85.378 66.0742 85.378Z" fill="#3576C4"/>
<path d="M59.6046 85.4706C59.674 85.4706 59.7341 85.4179 59.7341 85.3476C59.7341 85.2817 59.6786 85.2246 59.6046 85.2246L56.9964 85.207C56.927 85.207 56.8669 85.2597 56.8669 85.33C56.8669 85.3959 56.9224 85.453 56.9964 85.453L59.6046 85.4706C59.6 85.4706 59.6046 85.4706 59.6046 85.4706Z" fill="#3576C4"/>
<path d="M57.2323 87.5923C57.2554 87.5923 57.2739 87.5879 57.297 87.5748L60.141 86.0286C60.2012 85.9934 60.2243 85.9187 60.1873 85.8616C60.1503 85.8045 60.0717 85.7826 60.0116 85.8177L57.1675 87.3639C57.1074 87.3991 57.0843 87.4737 57.1213 87.5308C57.1444 87.5704 57.186 87.5923 57.2323 87.5923Z" fill="#3576C4"/>
<path d="M58.7583 88.5991C58.7953 88.5991 58.8323 88.5859 58.8554 88.5551L60.3445 86.842C60.3908 86.7893 60.3815 86.7146 60.326 86.6707C60.2705 86.6268 60.1919 86.6356 60.1457 86.6883L58.6566 88.4014C58.6103 88.4541 58.6196 88.5288 58.6751 88.5727C58.7028 88.5903 58.7306 88.5991 58.7583 88.5991Z" fill="#3576C4"/>
<path d="M56.4276 99.5762L55.5258 100.059C55.5258 100.059 60.3861 101.175 57.9583 103.71C55.5258 106.244 54.3142 107.101 54.3142 107.101C54.3142 107.101 56.2334 106.916 56.1964 107.211C56.1594 107.509 55.7663 108.067 55.7663 108.067H54.8275C54.8275 108.067 55.142 107.694 54.6703 107.619C54.1986 107.544 53.6529 107.022 54.12 106.688C54.5871 106.354 58.2358 103.038 57.6485 102.33C57.0612 101.623 54.7073 100.727 54.8275 100.169C54.9385 99.6113 56.4276 99.5762 56.4276 99.5762Z" fill="#3576C4"/>
</g>
<defs>
<clipPath id="clip0">
<rect width="120" height="110.557" fill="white"/>
</clipPath>
</defs>
</svg>
