<svg width="120" height="111" viewBox="0 0 120 111" fill="none" xmlns="http://www.w3.org/2000/svg">
<path d="M41.9793 9.50195H77.0789C94.6137 9.50195 108.825 23.2914 108.825 40.2967V74.7286C108.825 91.738 94.6094 105.523 77.0789 105.523H41.9793C24.4446 105.523 10.2336 91.7339 10.2336 74.7286V40.2967C10.2336 23.2872 24.4446 9.50195 41.9793 9.50195Z" fill="#E0E3ED"/>
<path d="M64.6008 93.4147C60.9889 91.1665 57.4845 88.6806 54.6811 85.5314C51.8776 82.3823 49.8093 78.4949 49.4524 74.3489C49.289 72.4386 49.5771 70.3155 51.0219 69.0058C52.9181 67.2874 56.1215 67.7128 58.1682 69.2603C60.2149 70.8077 61.3845 73.1768 62.4853 75.4584C56.5558 67.5042 51.783 58.7367 48.3517 49.4979C46.5285 44.5886 45.1698 38.8284 47.9991 34.3904C49.2933 32.3633 51.611 30.7825 54.0576 30.991C57.5877 31.2872 59.6947 34.8409 61.191 37.9525C63.1087 41.9442 65.0308 45.94 66.9485 49.9317C64.7986 45.6772 63.0141 41.2476 61.6253 36.7095C60.5159 33.0891 59.6474 29.3059 60.0817 25.5478C60.5159 21.7939 62.4423 18.0316 65.8176 16.1422C67.2065 15.3664 68.8963 14.9284 70.4228 15.3997C71.9578 15.871 73.0758 17.1682 73.8282 18.5447C75.1741 20.9972 75.617 23.8169 75.8148 26.5864C76.4813 36.0463 74.4646 45.4729 72.4566 54.7534C73.7852 46.3404 79.4352 38.6782 87.2094 34.7366C87.9704 34.3529 88.8304 33.99 89.656 34.2027C90.3181 34.3737 90.8298 34.8868 91.2383 35.4207C93.3925 38.2778 93.414 42.1569 92.7175 45.6314C90.5718 56.3968 82.7977 65.1351 77.1262 74.6242C78.614 69.9818 82.3075 66.0569 86.9385 64.1966C88.1381 63.717 89.6044 63.3958 90.6578 64.1341C91.2555 64.5512 91.5952 65.2394 91.7801 65.9318C92.4423 68.401 91.4361 70.9829 90.3009 73.2895C87.8457 78.2864 84.7155 82.9663 81.009 87.1748C77.7927 90.8287 73.7724 94.3073 68.849 94.8287C67.9848 94.9204 66.8711 94.7536 66.6475 93.9402" fill="#B0E7C9"/>
<path d="M66.9141 32.9729C68.561 39.7341 69.2489 46.6664 69.5112 53.5986C69.7735 60.5392 69.6316 67.484 69.6316 74.4287C69.6316 78.3537 69.6832 82.2828 69.8724 86.2077C69.9068 86.9377 71.085 86.9418 71.0506 86.2077C70.7066 79.2046 70.827 72.1972 70.8442 65.1899C70.8614 58.2118 70.784 51.217 70.0315 44.2722C69.6101 40.3723 68.978 36.489 68.045 32.6725C67.873 31.9551 66.7378 32.2554 66.9141 32.9729Z" fill="#D8F3E4"/>
<path d="M71.3086 64.092C76.0556 60.1421 80.0889 55.3954 83.1804 50.1232C84.0619 48.6217 84.8574 47.0742 85.584 45.4976C85.7861 45.0554 85.1111 44.6675 84.9047 45.1138C82.3807 50.6279 78.8849 55.6999 74.5765 60.0545C73.3639 61.2807 72.0869 62.4486 70.7539 63.554C70.3712 63.8751 70.9259 64.409 71.3086 64.092Z" fill="#D8F3E4"/>
<path d="M55.1669 49.1304C57.0503 52.6257 58.9379 56.121 60.8212 59.6164C62.3993 62.5444 63.8913 65.5684 65.9767 68.1962C67.0904 69.5976 68.376 70.849 69.8896 71.8458C70.3067 72.1211 70.7023 71.4621 70.2852 71.1868C67.5806 69.41 65.7101 66.7572 64.1278 64.0377C62.3133 60.9219 60.6707 57.7019 58.9637 54.5319C57.9231 52.6007 56.8826 50.6737 55.842 48.7425C55.6098 48.3129 54.9304 48.6966 55.1669 49.1304Z" fill="#D8F3E4"/>
<path d="M84.092 71.1911C82.9869 73.0347 81.955 74.9492 80.6822 76.6927C79.4524 78.3736 77.9647 79.8585 76.4726 81.3142C76.1158 81.6604 76.6704 82.2026 77.0273 81.8523C78.528 80.3882 80.0114 78.895 81.2584 77.2141C82.5784 75.4372 83.6362 73.4643 84.7714 71.5748C85.025 71.1494 84.3457 70.7657 84.092 71.1911Z" fill="#D8F3E4"/>
<path d="M55.9194 74.0272C57.1233 74.5403 58.2069 75.3078 59.2991 76.0085C60.4643 76.7509 61.6296 77.4934 62.7948 78.24C63.2162 78.5111 63.6118 77.8521 63.1904 77.581C62.0251 76.8385 60.8599 76.0961 59.6946 75.3495C58.5982 74.6487 57.5189 73.8813 56.315 73.3682C55.8592 73.1722 55.4593 73.827 55.9194 74.0272Z" fill="#D8F3E4"/>
<path d="M47.0058 38.4152C40.9172 24.7217 36.1014 16.1877 32.4423 10.8613C19.418 14.7028 9.93689 26.4401 9.93689 40.3297V54.0524C21.8776 62.5112 37.228 75.9378 47.0101 94.0818C49.5169 98.7366 51.525 102.507 53.1245 105.56H68.0492C65.6155 93.2601 59.3679 66.2026 47.0058 38.4152Z" fill="url(#paint0_linear)"/>
<path d="M76.7822 9.53125H65.0867C66.4583 15.4207 68.9006 25.9943 73.2349 44.9183C80.0845 74.8246 78.3861 96.6516 77.1477 105.544C80.1275 105.511 83.0041 105.081 85.7345 104.305C87.0417 99.4629 89.0153 91.4378 91.9693 78.1364C96.8539 56.1467 98.4663 32.2842 98.9995 18.3405C93.2764 12.8931 85.4335 9.53125 76.7822 9.53125Z" fill="url(#paint1_linear)"/>
<path d="M73.6864 84.4141H46.6619V105.399H73.6864V84.4141Z" fill="#FDA22D"/>
<path d="M41.4996 105.398L68.5241 105.398L68.5241 84.414L41.4996 84.414L41.4996 105.398Z" fill="#FCC13F"/>
<path d="M41.9793 105.523H41.9965V89.1602H13.9315C19.2676 98.8953 29.8237 105.523 41.9793 105.523Z" fill="#B1AEAD"/>
<path d="M65.8434 38.1743C65.8262 38.9543 66.3078 39.6008 66.9227 39.6133C67.5375 39.6258 68.0492 39.0043 68.0707 38.2243C68.0879 37.4444 67.6063 36.7979 66.9915 36.7853C66.3766 36.7728 65.8606 37.3943 65.8434 38.1743Z" fill="#E9F3FE"/>
<path d="M66.3852 38.875L67.2667 39.3422L66.755 41.7363L65.4564 41.3151C65.938 40.0054 66.3852 38.875 66.3852 38.875Z" fill="#E9F3FE"/>
<path d="M67.3914 40.0762L65.8047 39.6758C65.8047 39.6758 65.0996 42.5037 64.2396 44.827C62.0123 43.9845 59.6431 42.6956 59.0583 42.1993C57.5318 40.9021 55.111 42.9584 56.0656 43.9094C57.2566 45.0981 64.2912 48.51 65.8434 47.8093C66.6389 47.4506 67.3183 40.9354 67.3914 40.0762Z" fill="#3A8FF3"/>
<path d="M47.281 83.2408C47.2552 83.2616 46.9929 83.637 46.9886 83.904C46.9886 84.125 47.1133 84.3711 47.3412 84.4337C47.9733 84.6047 49.3278 84.3962 50.1318 83.904C50.8542 83.4618 51.2154 82.7152 51.4132 81.8894C51.1767 81.8685 51.1939 81.8685 50.9617 81.8477C50.4715 82.3607 49.9813 82.8779 49.4912 83.3909C48.7344 83.4118 48.0378 83.2199 47.281 83.2408Z" fill="#2D517E"/>
<path d="M49.0654 81.8105C48.7688 81.919 48.1324 82.3486 47.6035 82.8658C47.3455 83.1202 46.9413 83.5916 47.1219 83.9294C47.3283 84.3132 48.4592 84.1255 49.2374 83.8835C50.1361 83.6083 50.6521 83.016 50.8155 82.8116C51.1423 82.4028 51.3014 82.0775 51.3788 81.8189L49.0654 81.8105Z" fill="#2D517E"/>
<path d="M62.2703 83.3008L57.6995 83.3967C57.6995 83.3967 57.7038 83.6428 57.8199 83.672C59.4066 84.1058 61.4705 84.4228 62.1757 83.8597C62.3864 83.6845 62.2703 83.3008 62.2703 83.3008Z" fill="#2D517E"/>
<path d="M57.8199 82.0001C57.7468 82.1711 57.5576 82.7175 57.6995 83.3974C57.7081 83.4307 57.7339 83.4599 57.7683 83.4683C58.2757 83.5892 61.9951 84.4485 62.2574 83.4557C62.425 82.8176 61.2856 82.926 60.0429 81.9667C60.0257 81.9542 60.0042 81.9458 59.9827 81.9458H57.9059C57.8672 81.9417 57.8328 81.9625 57.8199 82.0001Z" fill="#2D517E"/>
<path d="M60.2537 82.0498L57.7942 82.0332C57.7942 82.0332 57.4244 61.3448 56.1516 55.2051L62.8293 54.959C62.8336 61.3865 60.2537 82.0498 60.2537 82.0498Z" fill="#3EC57B"/>
<path d="M54.6338 56.1853C51.9722 64.9695 48.5796 82.0457 48.5796 82.0457H51.6067C51.6067 82.0457 56.6891 66.8798 58.7014 60.1853C58.7014 60.1853 62.3649 57.958 62.8293 54.959L54.6338 56.1853Z" fill="#3EC57B"/>
<path d="M48.2528 28.9061C48.3732 29.6777 47.9776 30.3785 47.367 30.4661C46.7607 30.5537 46.1674 30.0031 46.047 29.2273C45.9266 28.4556 46.3222 27.7549 46.9327 27.6673C47.5433 27.5797 48.1324 28.1345 48.2528 28.9061Z" fill="#E9F3FE"/>
<path d="M47.8056 29.666L46.9929 30.2374L47.8142 32.5524L49.0482 31.9726C48.399 30.7338 47.8056 29.666 47.8056 29.666Z" fill="#E9F3FE"/>
<path d="M62.9067 55.2501C62.9067 55.2501 61.4318 45.3648 59.14 42.9122C58.5122 42.2407 56.7192 41.419 55.7947 41.2814C55.0938 41.1729 53.2406 41.3773 53.0643 42.0447C52.3032 44.9894 54.3586 57.0771 54.3586 57.0771L62.9067 55.2501Z" fill="#3A8FF3"/>
<path d="M52.7332 44.6526C50.45 42.7882 47.6035 33.1656 47.1692 31.1802L48.6913 30.5879C48.6913 30.5879 52.9224 40.3272 54.2811 41.6328C55.7216 43.0176 53.7824 45.5077 52.7332 44.6526Z" fill="#3A8FF3"/>
<path d="M55.2271 53.8025L53.9673 53.9026L53.6663 52.8515C54.9863 50.8578 56.6074 44.7389 56.5085 42.6325L57.3942 42.5449C57.5533 46.8494 56.6805 51.6044 55.2271 53.8025Z" fill="#3EC57B"/>
<path d="M55.2271 53.8023L54.0103 53.8982C55.3862 51.6125 56.8739 46.6823 56.8052 42.6072L57.3985 42.5488C57.5533 46.8492 56.6805 51.6041 55.2271 53.8023Z" fill="#3EC57B"/>
<path d="M56.6074 42.9758L56.2161 42.6129L56.6074 42.25H57.3899L57.7855 42.6129L57.3899 42.9758H56.6074Z" fill="#3EC57B"/>
<path d="M56.5859 42.9449L56.2247 42.6112L56.616 42.2441H56.9944V42.6446V42.9741H56.616L56.5859 42.9449Z" fill="#3EC57B"/>
<path d="M55.0078 40.7168L54.9863 40.8294L55.0938 41.6803L56.6461 42.306L56.9686 42.3644L57.2222 42.21L57.4501 41.6303C57.4501 41.6303 57.248 41.3341 57.2265 41.1631L55.0078 40.7168Z" fill="#E9F3FE"/>
<path d="M56.6461 42.3077L56.9685 42.366L57.2222 42.2117L57.2394 42.17C56.6633 42.2201 56.3408 41.8572 56.057 41.6695C55.7904 41.4943 56.2591 41.0814 56.3795 40.9979L55.0078 40.7227L54.9863 40.8353L55.0938 41.6862L56.6461 42.3077Z" fill="#92C1F8"/>
<path d="M57.1836 41.9561C57.1664 41.8185 57.1148 41.7101 57.3814 41.6183C57.648 41.5265 57.9275 41.5224 58.0651 41.3472C58.2026 41.172 58.2499 41.051 58.3273 41.2554C58.4047 41.4598 58.4133 41.7059 58.4133 41.7059C58.4133 41.7059 58.28 42.002 57.8544 42.0896C57.4244 42.1772 57.218 42.2106 57.218 42.2106L57.1836 41.9561Z" fill="#2D517E"/>
<path d="M54.4704 41.5229C54.4661 41.3853 54.4188 41.1934 54.8745 41.3394C55.3303 41.4854 56.2075 41.6981 56.3838 41.6898C56.5601 41.6814 56.6418 41.7857 56.6461 41.9233C56.6504 42.061 56.6418 42.3029 56.6418 42.3029C56.6418 42.3029 55.7001 42.1402 55.1798 42.0401C54.6595 41.94 54.4833 41.9609 54.4704 41.5229Z" fill="#2D517E"/>
<path d="M58.1209 37.0801C58.1209 37.0801 58.6799 38.8111 58.2413 39.9372C57.8028 41.0634 57.4373 41.3804 56.5429 41.4096C55.6442 41.4388 54.8359 40.7923 54.0705 40.0957C53.3008 39.3992 53.2492 39.3366 53.3137 38.6859C53.3782 38.0352 54.5951 37.6724 54.5951 37.6724L58.1209 37.0801Z" fill="#E9F3FE"/>
<path d="M58.1209 37.0801L54.5907 37.6724C54.5907 37.6724 54.1091 37.8184 53.735 38.0853L54.122 38.8152C54.122 38.8152 54.1607 38.6484 54.2983 38.4857C54.4316 38.323 55.5711 38.1395 56.7664 38.0186C57.6178 37.9351 58.0736 37.7391 58.2671 37.6348C58.194 37.3011 58.1209 37.0801 58.1209 37.0801Z" fill="#92C1F8"/>
<path d="M54.2984 40.3715C54.2984 40.3715 53.8813 40.7511 53.447 39.7875C53.0127 38.824 52.7504 37.7729 52.6171 37.2474C52.4838 36.7218 52.6515 36.2213 53.1288 35.9377C53.6061 35.6541 54.3328 34.4611 55.0594 33.9898C55.7861 33.5185 56.5816 33.0305 57.1061 33.3767C57.6307 33.7229 57.3297 34.3986 57.3297 34.3986C57.3297 34.3986 58.71 33.6394 59.1873 34.0816C59.6646 34.5237 59.7634 35.0743 59.3765 35.4872C58.9852 35.896 58.8992 35.9752 58.8992 35.9752C58.8992 35.9752 59.6646 35.8209 59.8322 36.263C59.9999 36.7052 58.6627 37.5978 56.7321 37.8188C54.8057 38.0399 54.0404 38.1942 54.0404 38.1942L54.1135 38.8199C54.1135 38.8199 53.834 38.4904 53.6835 38.6947C53.5287 38.8991 53.7093 39.6666 53.9415 39.6749C54.1737 39.6833 54.1737 39.6833 54.1737 39.6833L54.2984 40.3715Z" fill="#2D517E"/>
<path d="M42.5039 45.8446C42.8092 46.0949 42.7189 46.6746 42.3104 47.146C41.9019 47.6173 41.3215 47.7967 41.0205 47.5464C40.7152 47.2961 40.8055 46.7164 41.214 46.245C41.6224 45.7779 42.2029 45.5944 42.5039 45.8446Z" fill="#FADBBF"/>
<path d="M40.1691 48.2562L40.9044 47.1426L41.7644 47.5639L40.6292 48.6817L40.1691 48.2562Z" fill="#FADBBF"/>
<path d="M30.0301 55.1198C30.0301 55.1198 30.8815 52.3669 31.3114 52.2876C33.3238 51.9123 34.5879 52.2001 36.1101 51.5535C37.3613 51.0197 40.3368 47.2949 40.3368 47.2949L41.3602 48.2334C41.3602 48.2334 38.5008 52.2209 37.2882 53.0927C35.0308 54.7235 32.094 55.637 32.094 55.637L30.0301 55.1198Z" fill="#E1DBFF"/>
<path d="M38.1783 88.4414L33.9042 88.529C33.9042 88.529 33.9085 88.7584 34.016 88.7876C35.4995 89.1922 37.4301 89.4883 38.088 88.9628C38.2901 88.8001 38.1783 88.4414 38.1783 88.4414Z" fill="#2D517E"/>
<path d="M34.016 87.2241C33.9472 87.3826 33.7709 87.8957 33.9042 88.5297C33.9128 88.563 33.9343 88.5881 33.9687 88.5964C34.4417 88.709 37.9203 89.514 38.1697 88.5839C38.3288 87.9874 37.2581 88.0875 36.0972 87.1908C36.08 87.1783 36.0628 87.1699 36.0413 87.1699H34.0977C34.0633 87.1699 34.0289 87.1908 34.016 87.2241Z" fill="#2D517E"/>
<path d="M24.6811 88.6894L20.5532 87.6133C20.5532 87.6133 20.493 87.8343 20.5876 87.8927C21.8948 88.6852 23.662 89.4944 24.4446 89.1649C24.6854 89.0648 24.6811 88.6894 24.6811 88.6894Z" fill="#2D517E"/>
<path d="M21.0391 86.3911C20.9274 86.5246 20.6092 86.9667 20.5533 87.6133C20.549 87.6466 20.5662 87.68 20.5963 87.6967C21.0176 87.9344 24.1264 89.6487 24.6295 88.8229C24.952 88.2931 23.8985 88.1013 23.0429 86.9209C23.03 86.9042 23.0128 86.8917 22.9956 86.8875L21.1294 86.3619C21.095 86.3536 21.0606 86.3661 21.0391 86.3911Z" fill="#2D517E"/>
<path d="M31.2384 64.0508C31.2384 64.0508 29.0197 72.4471 28.2199 75.8256C27.5964 78.4659 23.2407 87.1708 23.2407 87.1708L20.9016 86.5577L24.9348 75.5044C24.9348 75.5044 25.7088 69.8402 25.8077 64.1467L31.2384 64.0508Z" fill="#3EC57B"/>
<path d="M33.2851 63.834C33.2851 63.834 36.7379 70.4534 37.0431 74.858C37.2581 77.9404 36.252 87.3044 36.252 87.3044L34.0118 87.2126C34.0118 87.2126 34.0848 78.3867 33.8527 75.5671C33.7366 74.1907 30.2279 67.8924 30.2279 67.8924C25.6486 67.8757 25.6486 63.9091 25.6486 63.9091L33.2851 63.834Z" fill="#3EC57B"/>
<path d="M25.6528 64.7386C29.0497 65.8064 33.6033 65.0639 33.7881 64.5217C34.0375 63.7709 34.1751 60.3214 33.7881 57.1264C33.5603 55.2703 32.9927 53.4809 31.7543 52.4716C31.7242 52.4465 31.6941 52.4257 31.664 52.4048C31.5909 52.3548 31.5092 52.3047 31.4232 52.263C31.3888 52.2463 31.3544 52.2296 31.3157 52.2171C30.8428 52.0127 30.2107 51.9168 29.5786 51.9043C29.4926 51.9043 29.4109 51.9043 29.3249 51.9043C28.7702 51.9126 28.2285 51.9877 27.8157 52.1087C27.7985 52.1128 27.7856 52.117 27.7684 52.1212C27.7684 52.1212 27.7641 52.1212 27.7598 52.1212C27.7211 52.1337 27.6824 52.1504 27.6437 52.1629C26.7364 52.5425 25.971 53.9314 25.8205 54.3986C25.6184 55.0284 25.5239 56.1087 25.4852 57.31C25.4035 60.1629 25.1584 64.5801 25.6528 64.7386Z" fill="#3A8FF3"/>
<path d="M31.7457 51.2789L31.7414 51.9504C31.5393 51.988 31.3373 52.0172 31.1352 52.0464C31.0793 52.0464 31.0234 52.0505 30.9675 52.0505C30.8256 52.0547 30.6794 52.0672 30.5332 52.0797C29.1572 52.1965 27.6222 52.5552 26.6246 52.8889L26.616 52.3675C26.6547 51.4666 29.2733 51.3707 30.9288 51.2956C30.9761 51.2956 31.0234 51.2914 31.0707 51.2914C31.2943 51.2789 31.5221 51.2747 31.7457 51.2789Z" fill="#3EC57B"/>
<path d="M26.9041 64.855C26.8912 65.2387 26.3623 65.5349 25.7302 65.5098C25.0939 65.489 24.5951 65.1553 24.608 64.7716C24.6209 64.3878 25.1498 64.0917 25.7818 64.1167C26.4182 64.1417 26.9213 64.4713 26.9041 64.855Z" fill="#E9F3FE"/>
<path d="M24.2812 63.5117L25.4164 64.1999L24.8015 65.1509L23.9544 64.1165L24.2812 63.5117Z" fill="#E9F3FE"/>
<path d="M27.648 52.1621C28.0823 52.1579 27.7598 55.8284 27.3384 55.9494C25.0294 56.6209 24.3285 57.8597 24.2855 59.3905C24.2253 61.4802 25.0509 63.9786 25.0509 63.9786C25.0509 63.9786 24.8144 64.5125 24.5091 65.1507C24.5091 65.1507 22.3205 62.6481 22.256 59.1319C22.1958 55.9703 25.2788 52.1871 27.648 52.1621Z" fill="#3A8FF3"/>
<path d="M28.6283 53.2687L28.2758 52.9892L28.6025 52.6305L28.9465 52.6055L28.9766 52.9642L28.9981 53.2645L28.6584 53.2937L28.6283 53.2687Z" fill="#26AC63"/>
<path d="M41.085 46.1355C39.9843 47.6496 38.6212 48.9176 37.0303 49.9144C35.4307 50.9155 33.6248 51.6079 31.7372 51.9499C31.5351 51.9874 31.333 52.0166 31.1309 52.0458C30.9288 52.075 30.7267 52.1001 30.5246 52.1167C30.5246 52.1042 30.5289 52.0917 30.5289 52.0792C30.5461 51.9374 30.5547 51.7747 30.5676 51.5954L30.5848 51.3451C30.7396 51.3284 30.8987 51.3076 31.0664 51.2825C32.5971 51.0615 34.6008 50.5276 36.6046 49.2721C38.1095 48.3295 39.3995 47.1282 40.4443 45.6934L41.085 46.1355Z" fill="#3EC57B"/>
<path d="M42.491 46.2438C42.2803 47.0864 40.9904 51.3992 36.3981 53.3554C34.9792 53.9602 33.5989 54.1855 32.3262 54.1855C30.5461 54.1855 28.9852 53.7475 27.8544 53.2929C27.1578 53.0134 26.6203 52.3711 26.6203 52.3711C26.9514 52.2042 27.1836 52.0999 27.5018 52.0457C27.5018 52.0457 27.4932 52.3752 27.9404 52.5671C29.699 53.3262 32.7089 54.0937 36.0843 52.6589C40.3411 50.8486 41.5365 46.8486 41.7342 46.0645L42.491 46.2438Z" fill="#3EC57B"/>
<path d="M45.0795 40.3096C46.4856 42.2157 46.0298 44.8643 44.0648 46.2283C42.0998 47.5922 39.3694 47.1501 37.9633 45.2439C36.5573 43.3377 37.013 40.6891 38.9781 39.3252C40.9474 37.9613 43.6778 38.4034 45.0795 40.3096Z" fill="#FFC100"/>
<path d="M44.3099 46.5612C42.1556 48.0545 39.1543 47.5665 37.6193 45.4809C36.08 43.3913 36.583 40.4799 38.733 38.9908C40.8872 37.4976 43.8885 37.9856 45.4235 40.0711C46.9629 42.1608 46.4641 45.0722 44.3099 46.5612ZM39.2274 39.6582C37.4559 40.8845 37.0431 43.2828 38.3073 45.0054C39.5714 46.7239 42.0438 47.1243 43.8197 45.8939C45.5912 44.6634 46.004 42.2692 44.7398 40.5466C43.4714 38.8281 40.999 38.4319 39.2274 39.6582Z" fill="#FFDF00"/>
<path opacity="0.3" d="M41.5364 39.3705C40.8657 39.65 40.8141 40.113 41.0076 40.5926C40.8528 40.2089 40.3712 39.8127 39.7348 40.0546C39.7348 40.0546 40.6679 39.7459 40.2852 38.7949C40.6722 39.7543 41.5364 39.3705 41.5364 39.3705Z" fill="white"/>
<path opacity="0.3" d="M45.488 42.2367C44.555 42.6246 44.4819 43.2711 44.7528 43.9426C44.5378 43.4045 43.8627 42.854 42.9769 43.1876C42.9769 43.1876 44.2798 42.758 43.7423 41.4316C44.2798 42.7705 45.488 42.2367 45.488 42.2367Z" fill="white"/>
<path opacity="0.3" d="M40.612 44.2841C39.9498 44.5635 39.8982 45.0223 40.0874 45.4978C39.9326 45.1141 39.4553 44.722 38.8232 44.9639C38.8232 44.9639 39.7477 44.6595 39.3693 43.7168C39.752 44.6636 40.612 44.2841 40.612 44.2841Z" fill="white"/>
<path d="M27.2567 50.9707L27.2223 51.0792L27.2309 51.9134L28.6627 52.685L28.968 52.7726L29.2303 52.6516L29.5184 52.1136C29.5184 52.1136 29.355 51.8049 29.355 51.6381L27.2567 50.9707Z" fill="#E9F3FE"/>
<path d="M28.6627 52.6811L28.968 52.7687L29.2303 52.6477L29.2518 52.606C28.6885 52.5935 28.4176 52.2098 28.164 51.997C27.9275 51.7968 28.4219 51.4506 28.5552 51.3797L27.2567 50.9668L27.2223 51.0752L27.2309 51.9094L28.6627 52.6811Z" fill="#92C1F8"/>
<path d="M29.226 52.398C29.226 52.2645 29.1873 52.1519 29.4539 52.0935C29.7248 52.0309 29.9914 52.0601 30.1462 51.9058C30.301 51.7515 30.3569 51.6389 30.4085 51.8432C30.4601 52.0476 30.4429 52.2895 30.4429 52.2895C30.4429 52.2895 30.2838 52.5607 29.8581 52.6024C29.4324 52.6441 29.226 52.6524 29.226 52.6524V52.398Z" fill="#2D517E"/>
<path d="M26.6461 51.6931C26.659 51.5596 26.6332 51.3719 27.0589 51.5596C27.4846 51.7473 28.3058 52.0477 28.4778 52.0602C28.6498 52.0727 28.7186 52.1811 28.7057 52.3146C28.6928 52.4481 28.6584 52.6817 28.6584 52.6817C28.6584 52.6817 27.764 52.4272 27.2739 52.2687C26.7837 52.1144 26.6117 52.1144 26.6461 51.6931Z" fill="#2D517E"/>
<path d="M30.6794 47.7793C30.6794 47.7793 31.0234 49.5144 30.473 50.5572C29.9226 51.6 29.5356 51.8669 28.6627 51.8002C27.7942 51.7334 27.0804 51.0202 26.4182 50.2652C25.756 49.5103 25.7088 49.4435 25.8463 48.8221C25.9839 48.2006 27.1965 47.9795 27.1965 47.9795L30.6794 47.7793Z" fill="#E9F3FE"/>
<path d="M30.6793 47.7793L27.1965 47.9795C27.1965 47.9795 26.7149 48.0671 26.3236 48.2882L26.616 49.0348C26.616 49.0348 26.6719 48.8804 26.8224 48.7345C26.9729 48.5885 28.0951 48.5343 29.2647 48.5468C30.0946 48.5551 30.559 48.4175 30.761 48.334C30.7223 48.0045 30.6793 47.7793 30.6793 47.7793Z" fill="#92C1F8"/>
<path d="M26.6117 50.5576C26.6117 50.5576 26.1645 50.8788 25.8549 49.9028C25.5453 48.9268 25.4077 47.8798 25.339 47.3584C25.2702 46.8371 25.4894 46.3699 25.9796 46.1488C26.4698 45.9278 27.3083 44.8475 28.065 44.4721C28.8218 44.0925 29.6474 43.7046 30.1161 44.0925C30.5848 44.4804 30.2193 45.1019 30.2193 45.1019C30.2193 45.1019 31.6382 44.5138 32.051 44.9893C32.4638 45.469 32.4982 46.0112 32.0725 46.3657C31.6468 46.7203 31.5565 46.787 31.5565 46.787C31.5565 46.787 32.3133 46.7203 32.4251 47.1666C32.5412 47.6129 31.1437 48.3345 29.2518 48.3428C27.3599 48.3512 26.6074 48.4221 26.6074 48.4221V49.0352C26.6074 49.0352 26.3752 48.6848 26.2032 48.8684C26.0312 49.0519 26.1172 49.811 26.3408 49.8444C26.5644 49.8778 26.5644 49.8778 26.5644 49.8778L26.6117 50.5576Z" fill="#2D517E"/>
<path d="M46.8253 36.6174L39.2231 33.2013C38.4105 32.8342 38.0536 31.8916 38.4277 31.1033C38.8061 30.3149 39.7778 29.9687 40.5905 30.3316L48.1926 33.7477C49.0053 34.1147 49.3622 35.0574 48.9881 35.8457C48.6097 36.634 47.6379 36.9802 46.8253 36.6174Z" fill="#FFDB17"/>
<path opacity="0.4" d="M48.9623 35.9049L49.0139 35.7923C49.3751 35.0332 49.0311 34.128 48.2528 33.7735L47.7712 33.5566L46.9758 33.2188C47.7154 33.8945 47.208 34.7787 47.0618 35.0498C46.6619 35.7965 45.7632 36.1426 44.9807 35.7881L46.8812 36.6432C47.6638 36.9935 48.5968 36.6599 48.9623 35.9049Z" fill="#F7B336"/>
<path opacity="0.67" d="M39.8251 31.7967C40.0315 31.3671 40.8184 30.537 41.6698 30.8332C41.6698 30.8332 41.3774 30.6955 41.0033 30.5162C40.8227 30.4286 40.6464 30.3577 40.5389 30.3076C39.7821 29.9656 38.8233 30.291 38.4578 31.0459L38.4062 31.1585C38.045 31.9177 38.389 32.8228 39.1673 33.1773L40.5862 33.8155C39.8036 33.4609 39.4424 32.5892 39.8251 31.7967Z" fill="#F7B336"/>
<path opacity="0.6" d="M41.1452 32.3888C41.416 31.7715 42.0997 31.0249 42.8823 31.3794L41.6654 30.833C41.1666 30.5744 40.1992 31.004 39.8208 31.7965C39.4596 32.5556 39.8036 33.4608 40.5819 33.8153L41.9019 34.4076C41.1279 34.053 40.8055 33.1563 41.1452 32.3888Z" fill="#FFEE8A"/>
<path d="M47.7368 33.5448C46.8166 33.1819 41.7944 30.9212 40.913 30.4791C41.7729 30.3373 43.1403 29.9035 44.1722 28.7273C44.1894 28.7064 44.2066 28.6856 44.2281 28.6647C44.2625 28.6272 44.2926 28.5855 44.327 28.5438C45.0021 27.7012 45.4278 26.867 45.703 26.1788C45.7245 26.1204 45.746 26.0662 45.7675 26.0119C45.789 25.9535 45.8105 25.8993 45.8277 25.8451C45.8363 25.8242 45.8406 25.8076 45.8492 25.7867C45.875 25.7116 45.9008 25.6365 45.9223 25.5656C45.9481 25.4906 45.9696 25.4155 45.9868 25.3446C46.004 25.2904 46.0169 25.2361 46.0298 25.1819V25.1777C46.4512 25.3738 48.141 26.1329 48.5667 26.3206C48.5667 26.3206 48.5667 26.3206 48.5667 26.3248C48.098 26.9713 47.3799 28.1392 47.0273 29.7575C46.9327 30.1913 46.9155 30.6168 46.9456 31.0214C47.0015 32.0933 47.3971 32.9859 47.7368 33.5448Z" fill="#FFDB17"/>
<path opacity="0.67" d="M44.8215 28.7648C43.7724 30.0745 41.6654 30.8295 41.6654 30.8295C41.2355 30.6376 40.913 30.4749 40.913 30.4749C41.7729 30.3331 43.1403 29.8993 44.1722 28.7231C44.1894 28.7023 44.2066 28.6814 44.2281 28.6605C44.2625 28.623 44.2926 28.5813 44.327 28.5396C45.0021 27.697 45.4278 26.8628 45.703 26.1746C45.7245 26.1162 45.746 26.062 45.7675 26.0078C45.789 25.9494 45.8105 25.8952 45.8277 25.8409C45.8363 25.8201 45.8406 25.8034 45.8492 25.7825C45.875 25.7075 45.9008 25.6324 45.9223 25.5615C45.9481 25.4864 45.9696 25.4113 45.9868 25.3404C46.004 25.2862 46.0169 25.232 46.0298 25.1777C46.1846 25.2486 46.3523 25.3237 46.5243 25.3988C46.3222 26.1746 45.8664 27.4593 44.8215 28.7648Z" fill="#F7B336"/>
<path opacity="0.4" d="M47.7368 33.5441L47.3283 33.3689L46.9715 33.2146C46.9715 33.2146 46.2018 31.1666 46.5587 29.5441C46.9113 27.9257 47.6293 26.7578 48.098 26.1113C48.2614 26.1864 48.4205 26.2573 48.571 26.3241C48.1023 26.9706 47.3842 28.1385 47.0316 29.7568C46.9371 30.1906 46.9199 30.616 46.95 31.0206C46.9973 32.0968 47.3971 32.9852 47.7368 33.5441Z" fill="#F7B336"/>
<path opacity="0.6" d="M42.7404 31.3252C43.4499 30.9415 44.426 30.3659 45.4751 29.0562C46.52 27.7506 46.9758 26.4618 47.1822 25.6985C47.122 25.6693 47.0618 25.6443 47.0016 25.6151C46.8468 25.5442 46.6877 25.4733 46.5286 25.4023C46.3222 26.1656 45.8707 27.4503 44.8216 28.76C43.7724 30.0697 41.6655 30.8247 41.6655 30.8247" fill="#FFEE8A"/>
<path d="M52.2861 25.8196C52.0195 25.6986 51.7529 25.5693 51.482 25.4317L52.2302 24.0761C54.7972 25.4067 57.2094 25.7153 59.4023 24.9812C61.8317 24.1679 64.059 22.0031 65.5941 18.9874L60.516 16.7059L61.1824 15.3086L67.6881 18.2325L67.3742 18.9249C66.6088 20.61 65.6027 22.1491 64.4718 23.3754C63.1088 24.8519 61.578 25.8822 59.9183 26.4369C57.5319 27.2336 54.9692 27.025 52.2861 25.8196Z" fill="#F7B336"/>
<path d="M44.1852 22.1781C44.4518 22.2991 44.7269 22.4117 45.0107 22.5202L45.5955 21.0895C42.8909 20.0509 41.0893 18.4618 40.2465 16.3637C39.3134 14.0405 39.5757 10.9914 40.956 7.90487L46.0341 10.1864L46.7006 8.78913L40.1949 5.86523L39.8552 6.54511C39.0253 8.20101 38.4621 9.94033 38.2299 11.5712C37.9504 13.5316 38.131 15.3335 38.7674 16.9185C39.6832 19.2084 41.5021 20.9727 44.1852 22.1781Z" fill="#FFDB17"/>
<path d="M63.4914 13.6691L46.3866 5.97771C46.2147 5.9068 44.7484 9.15186 44.6151 9.4772C43.6863 11.6879 42.9296 14.0195 42.6587 16.4011C42.2029 20.3636 43.2005 25.1561 47.5089 26.6994C51.2283 28.0341 55.0766 25.8443 57.6049 23.2833C59.2002 21.6691 60.4901 19.7838 61.5608 17.8068C61.75 17.448 63.7451 13.7817 63.4914 13.6691Z" fill="#FFDB17"/>
<path opacity="0.6" d="M48.9967 7.15448L46.3867 5.98242C45.2257 7.98452 44.2411 10.0951 43.5445 12.289C42.9339 14.2119 42.534 16.2181 42.5254 18.2369C42.5168 19.8678 42.7705 21.532 43.48 23.0211C43.8541 23.8052 44.3787 24.5352 45.015 25.1483C44.7441 23.5508 44.6065 21.7698 44.7054 19.8344C45.0064 13.9658 47.3584 9.57785 48.9967 7.15448Z" fill="#FFEE8A"/>
<path opacity="0.67" d="M47.638 26.7497H47.6337C47.5907 26.733 47.5434 26.7205 47.5004 26.7038C47.4918 26.6997 47.4832 26.6955 47.4746 26.6955C47.466 26.6913 47.4617 26.6913 47.4531 26.6872C47.4058 26.6705 47.3585 26.6538 47.3112 26.6329C47.3026 26.6288 47.294 26.6246 47.2854 26.6246C47.2424 26.6079 47.2037 26.5912 47.1607 26.5745C47.1521 26.5704 47.1435 26.5662 47.1349 26.562C47.0833 26.5412 47.0317 26.5203 46.9844 26.4953C46.9457 26.4786 46.907 26.4578 46.864 26.4411C46.8382 26.4286 46.8124 26.416 46.7866 26.4035C46.7565 26.391 46.7307 26.3785 46.7049 26.3618C46.6748 26.3493 46.649 26.3326 46.6189 26.3201C46.5845 26.3034 46.5501 26.2826 46.5157 26.2659C46.4985 26.2575 46.4813 26.2492 46.4641 26.2367C46.3824 26.1908 46.3007 26.1449 46.2233 26.099C46.1932 26.0824 46.1631 26.0657 46.1373 26.0448C46.0814 26.0073 46.0255 25.9739 45.9696 25.9364C45.9395 25.9155 45.9137 25.8988 45.8836 25.878C45.8664 25.8655 45.8535 25.8571 45.8363 25.8446C45.8105 25.8279 45.7847 25.8071 45.7589 25.7904C45.7245 25.7654 45.6944 25.7403 45.66 25.7195C45.6385 25.7028 45.617 25.6861 45.5955 25.6694C45.574 25.6527 45.5568 25.6402 45.5353 25.6235C41.3258 22.3326 41.472 14.4619 46.3953 5.98633L47.6853 6.5661C42.9769 14.6412 42.6329 22.1824 46.2663 25.7153C46.6705 26.1116 47.1306 26.4578 47.638 26.7497Z" fill="#F7B336"/>
<path opacity="0.4" d="M63.4915 13.6697C60.0731 22.6165 54.1393 27.7844 48.9064 27.0503C48.8161 27.0378 48.7215 27.0211 48.6312 27.0045C48.6011 27.0003 48.5667 26.992 48.5366 26.9878C48.5065 26.9836 48.4721 26.9753 48.442 26.9669C48.4033 26.9586 48.3603 26.9502 48.3216 26.9419C48.2399 26.9252 48.1582 26.9044 48.0722 26.8793C48.0292 26.8668 47.9905 26.8585 47.9475 26.846C47.9174 26.8376 47.883 26.8293 47.8529 26.8168C47.7798 26.7959 47.7067 26.7709 47.6336 26.7459H47.6293C47.5863 26.7292 47.539 26.7167 47.496 26.7C47.4874 26.6958 47.4788 26.6916 47.4702 26.6916C47.4616 26.6875 47.4573 26.6875 47.4487 26.6833C47.4358 26.6791 47.4186 26.6708 47.4057 26.6666C47.4014 26.6666 47.3971 26.6624 47.3971 26.6624C47.3799 26.6541 47.3584 26.6499 47.3412 26.6416C47.3283 26.6374 47.3197 26.6332 47.3068 26.6291C47.2982 26.6249 47.2896 26.6207 47.281 26.6207C47.238 26.604 47.1993 26.5874 47.1563 26.5707C47.1477 26.5665 47.1391 26.5623 47.1305 26.5582C47.0789 26.5373 47.0274 26.5165 46.9801 26.4914C46.9414 26.4747 46.9027 26.4539 46.8597 26.4372C46.8339 26.4247 46.8081 26.4122 46.7823 26.3997C46.7522 26.3872 46.7264 26.3746 46.7006 26.358C46.6705 26.3454 46.6447 26.3288 46.6146 26.3162C46.5802 26.2996 46.5458 26.2787 46.5114 26.262C46.4942 26.2537 46.477 26.2453 46.4598 26.2328C46.3781 26.1869 46.2964 26.1411 46.219 26.0952C46.1889 26.0785 46.1588 26.0618 46.133 26.041C46.0771 26.0034 46.0212 25.97 45.9653 25.9325C45.9352 25.9117 45.9094 25.895 45.8793 25.8741C45.8621 25.8616 45.8492 25.8533 45.832 25.8407C45.8062 25.8241 45.7804 25.8032 45.7546 25.7865C45.7202 25.7615 45.6901 25.7365 45.6557 25.7156C45.6342 25.6989 45.6127 25.6822 45.5912 25.6656C45.5697 25.6489 45.5525 25.6364 45.531 25.6197C45.7761 25.6656 46.0212 25.6989 46.2663 25.7156C46.7393 25.7532 47.2165 25.7448 47.6938 25.6864C52.4237 25.1442 57.4029 20.189 60.4214 12.2891" fill="#F7B336"/>
<path d="M77.7798 105.506C88.5123 105.281 97.9332 99.8964 103.506 91.7963V91.1289H77.7798V105.506Z" fill="#B1AEAD"/>
<path d="M72.0051 105.523H77.0789C84.9691 105.523 92.18 102.724 97.7311 98.1068V91.1328H72.0051V105.523Z" fill="#B1AEAD"/>
<path d="M92.4036 53.8203C92.4036 53.8203 92.7347 55.5429 93.3023 56.4397C93.8698 57.3365 95.4307 58.9423 94.7685 60.6191C94.1063 62.2958 93.2765 62.3626 92.4466 62.2249C91.6167 62.0873 90.9803 61.4199 90.9803 61.4199L92.4036 53.8203Z" fill="#2D517E"/>
<path d="M83.5975 87.5497L83.6233 87.8959C83.6233 87.8959 83.3868 88.6092 82.9827 88.7468C82.5785 88.8845 80.7553 88.8636 80.4715 89.7103C80.1878 90.5612 80.0932 91.4997 82.9354 91.2953C85.7776 91.0868 86.6762 91.2703 86.5085 90.1483C86.3408 89.0221 85.7733 87.6665 85.726 87.5998C85.6787 87.5289 83.5975 87.5497 83.5975 87.5497Z" fill="#2D517E"/>
<path d="M92.094 87.1383L92.1886 87.5513C92.1886 87.5513 92.4251 88.0101 92.5928 88.4022C92.7605 88.7942 92.6874 89.1363 92.2832 89.5492C91.879 89.9621 90.8384 89.7119 90.6966 90.2166C90.5547 90.7212 90.4601 91.4095 91.4318 91.3886C92.4036 91.3678 93.6075 91.3636 94.0375 91.3636C94.4632 91.3636 96.2863 89.9162 95.2458 88.7692C94.2052 87.6222 93.4485 86.934 93.3754 86.7963C93.3023 86.6587 92.094 87.1383 92.094 87.1383Z" fill="#2D517E"/>
<path d="M83.1202 44.627C83.1202 44.627 83.404 45.4528 83.0428 46.3871C82.6817 47.3214 82.127 48.1765 82.5398 49.4653C82.9482 50.75 83.3782 51.7761 83.3782 51.7761L86.7708 50.5498L86.3279 47.0295L84.2124 44.702L83.1202 44.627Z" fill="#2D517E"/>
<path d="M85.9151 50.0328C85.9151 50.0328 85.9495 48.965 85.928 48.794C85.9022 48.623 85.8807 48.4853 85.8807 48.4853L88.1554 47.9473L88.5466 48.99L88.4263 50.2205L86.8525 51.964L85.9151 50.0328Z" fill="#E9F3FE"/>
<path d="M84.6381 63.1211C84.6381 63.1211 82.8408 67.1336 82.8408 72.4892C82.8408 77.8448 83.6319 80.4517 83.4384 83.2964C83.2449 86.141 83.0601 87.8261 83.9415 88.1014C84.8273 88.3767 86.1817 88.2557 86.2763 87.1212C86.3709 85.9867 86.5601 79.313 86.9686 77.7823C87.3771 76.2515 89.2088 70.0075 89.2088 70.0075L90.3139 63.8552L84.6381 63.1211Z" fill="#3EC57B"/>
<path d="M87.0374 63.1211C87.0374 63.1211 86.3107 64.9563 86.8181 68.6936C87.3212 72.4308 88.3015 76.5602 89.6603 81.1566C91.019 85.7531 91.6468 87.6801 92.3735 87.5258C93.1001 87.3715 93.9816 87.2213 93.6376 85.9033C93.2936 84.5852 92.2187 79.1963 92.5025 76.3516C92.7863 73.5028 93.2592 70.7791 92.567 67.9303C91.8747 65.0815 90.675 63.1837 90.675 63.1837L87.0374 63.1211Z" fill="#3EC57B"/>
<path d="M80.2092 64.3687L80.0028 64.4062C80.0028 64.4062 79.547 63.9933 78.6527 64.06C77.7626 64.1309 77.1864 64.4187 77.8572 64.8776C78.528 65.3364 79.3578 65.6283 79.6717 65.7952C79.9856 65.962 80.0802 66.8505 80.4543 66.888C80.8241 66.9255 81.267 66.7212 81.1982 66.2165C81.1251 65.7118 81.009 65.0444 81.009 65.0444L80.2092 64.3687Z" fill="#E9F3FE"/>
<path d="M79.6158 64.1895C79.7018 64.4981 79.9426 65.1655 80.3898 65.2739C80.6994 65.349 80.9359 65.4574 81.0907 65.545C81.0434 65.2656 81.0047 65.0487 81.0047 65.0487L80.2092 64.3688L80.0028 64.4063C80.0028 64.4063 79.8695 64.2896 79.6158 64.1895Z" fill="#92C1F8"/>
<path d="M82.7762 52.5273L82.1786 53.1697C82.1786 53.1697 81.8561 57.8704 81.4863 59.5389C81.0735 61.3783 80.0071 64.4064 80.0071 64.4064C80.0071 64.4064 80.45 65.6911 81.6497 64.8361C82.8493 63.9768 83.9157 60.5816 83.9157 60.5816L82.7762 52.5273Z" fill="#3A8FF3"/>
<path d="M85.584 49.9531C85.584 49.9531 82.7762 50.9333 82.3033 52.4349C81.8303 53.9365 82.7762 58.8041 83.3782 60.2723C83.9802 61.7405 84.2296 63.9177 86.0312 64.2514C87.8286 64.5893 89.7248 64.2222 90.3225 63.8552C90.9201 63.4881 91.5522 62.387 91.6812 61.0397C91.8059 59.6925 93.6376 53.5694 92.0897 52.3139C90.5418 51.0584 89.4066 50.4787 88.9981 50.4787C88.5896 50.4787 86.8525 51.5214 86.8525 51.5214L85.584 49.9531Z" fill="#3A8FF3"/>
<path d="M87.0374 55.0128C87.0288 55.0128 87.0245 55.0128 87.0159 55.0128C86.9471 55.0086 86.8869 54.9752 86.8439 54.9252C86.7794 54.8459 85.2916 53.1066 84.9348 50.2161L85.4077 50.0117C85.6786 52.214 86.6762 53.8491 87.0675 54.4122C87.5319 53.9241 88.8433 52.6395 88.9293 50.4163L89.3765 50.5665C89.2647 53.5613 87.2782 54.8918 87.1965 54.9586C87.1535 54.9919 87.0976 55.0128 87.0374 55.0128Z" fill="#3EC57B"/>
<path d="M89.1701 57.218C88.9809 58.2691 87.9489 58.9698 86.8653 58.7863C85.7818 58.6028 85.0594 57.6017 85.2486 56.5506C85.4378 55.4995 86.4698 54.7988 87.5533 54.9823C88.6369 55.17 89.3592 56.1669 89.1701 57.218Z" fill="#FFDC45"/>
<path d="M86.8353 58.9744C85.6485 58.7742 84.8531 57.673 85.0594 56.5218C85.2658 55.3706 86.401 54.599 87.5878 54.7992C88.7745 54.9994 89.57 56.1006 89.3636 57.2518C89.1529 58.403 88.0177 59.1746 86.8353 58.9744ZM87.519 55.1704C86.5429 55.0036 85.6098 55.6417 85.4378 56.5886C85.2658 57.5354 85.9237 58.4405 86.8998 58.6073C87.8758 58.7742 88.8089 58.136 88.9809 57.1892C89.1529 56.2382 88.495 55.3331 87.519 55.1704Z" fill="#FFDF00"/>
<path opacity="0.3" d="M88.3531 55.8061C88.0479 55.6851 87.8759 55.8144 87.777 56.0313C87.8544 55.8603 87.8329 55.5808 87.5491 55.4599C87.5491 55.4599 87.949 55.6559 88.1468 55.2305C87.949 55.6559 88.3531 55.8061 88.3531 55.8061Z" fill="white"/>
<path opacity="0.3" d="M88.6541 57.9613C88.2241 57.7902 87.9876 57.9738 87.85 58.2741C87.9618 58.0363 87.9317 57.6443 87.5361 57.4732C87.5361 57.4732 88.0951 57.7444 88.366 57.1562C88.0908 57.7527 88.6541 57.9613 88.6541 57.9613Z" fill="white"/>
<path opacity="0.3" d="M86.4139 57.0812C86.1086 56.9602 85.9409 57.0895 85.842 57.3023C85.9194 57.1312 85.8979 56.856 85.6184 56.735C85.6184 56.735 86.014 56.9269 86.2075 56.5098C86.014 56.931 86.4139 57.0812 86.4139 57.0812Z" fill="white"/>
<path d="M83.4427 44.7602C83.4427 44.7602 83.5975 46.9417 83.8813 47.6174C84.1651 48.2931 84.7671 48.8353 85.4895 48.7644C86.2119 48.6935 87.5964 48.1429 87.5964 48.1429L87.6437 46.0199L87.5362 43.584L83.4427 44.7602Z" fill="#E9F3FE"/>
<path d="M87.6652 40.8473C86.7923 40.4553 84.7284 40.5721 83.0945 41.352C81.4605 42.132 81.3659 43.3041 81.9593 44.2676C82.5527 45.2311 85.1068 44.864 85.8163 44.6138C86.5257 44.3635 87.3771 43.9714 87.3771 43.9714C87.3771 43.9714 86.7149 45.6482 87.0202 46.7744C87.3298 47.9006 87.7555 48.9558 88.0608 49.1852C88.3704 49.4146 88.4865 49.448 88.4865 49.448V49.6441C88.4865 49.6441 88.6714 49.5773 88.7058 49.6399C88.7402 49.7024 88.809 49.8526 88.8391 50.1488C88.8691 50.4449 88.852 50.4783 88.852 50.4783C88.852 50.4783 88.9336 50.4115 89.4453 50.5992C89.957 50.7869 90.4773 51.154 90.9632 51.4793C91.4491 51.8046 92.0725 52.3135 92.0725 52.3135C92.0725 52.3135 91.8661 51.7171 91.3932 50.6743C90.9202 49.6315 90.6837 48.301 90.903 47.1831C91.1223 46.0653 90.9976 45.1644 90.2709 43.7546C89.5442 42.3447 88.8648 42.7118 88.8648 42.7118C88.8648 42.7118 88.9938 41.4438 87.6652 40.8473Z" fill="#2D517E"/>
<path d="M84.1565 57.2431C84.1565 57.2431 83.1331 56.655 83.1202 56.7802C83.1116 56.9053 81.6325 56.484 81.6325 56.484C81.6325 56.484 81.1853 55.6123 80.3726 55.7249C79.56 55.8375 80.1404 56.3714 80.1404 56.3714C80.1404 56.3714 78.6183 55.3745 78.227 56.0753C77.8357 56.776 78.3861 57.5643 79.7363 57.873C81.0864 58.1816 81.2713 57.9731 81.2713 57.9731L83.3137 58.6321L84.1565 57.2431Z" fill="#E9F3FE"/>
<path d="M84.1565 57.2436C84.1565 57.2436 83.1331 56.6555 83.1202 56.7806C83.1159 56.8223 82.9525 56.8015 82.7332 56.7598C82.6945 57.1894 82.5483 57.9277 82.0237 57.9193C81.4605 57.9068 80.2823 57.9402 79.5685 57.8359C79.6244 57.8526 79.676 57.8651 79.7362 57.8776C81.0821 58.1863 81.2713 57.9777 81.2713 57.9777L83.3137 58.6367L84.1565 57.2436Z" fill="#92C1F8"/>
<path d="M92.0854 52.3139C90.9416 51.3838 90.0215 50.8248 89.4539 50.5996C89.3679 51.2336 89.1056 52.5099 88.3574 53.6319C87.3169 55.1919 85.0422 56.8144 84.1608 56.8144C83.275 56.8144 83.1202 56.7852 83.1202 56.7852C83.1202 56.7852 83.2793 57.7654 82.9955 58.1951C82.931 58.291 82.8794 58.3702 82.8364 58.437C82.8708 58.5913 82.9095 58.7373 82.9439 58.8791C83.8383 59.2378 86.5945 60.022 89.1185 57.3984C90.8169 55.634 91.9865 54.6497 92.696 54.1241C92.6616 53.2983 92.4896 52.6392 92.0854 52.3139Z" fill="#3576C4"/>
<path d="M85.5367 50.3665L85.584 49.9536C85.584 49.9536 85.5668 49.4656 85.584 49.3112C85.6012 49.1569 85.8678 49.4489 86.1344 49.891C86.401 50.3331 86.8783 51.4385 86.8138 51.5761C86.7536 51.7138 85.5367 50.3665 85.5367 50.3665Z" fill="#3A8FF3"/>
<path d="M110.48 15.5535C109.074 22.978 106.025 39.2325 105.845 40.0917C105.729 40.0792 105.608 40.0667 105.492 40.0542L105.51 39.8998C105.277 39.1574 104.641 38.5943 104.353 37.8685L104.357 37.8102C104.4 37.8143 104.439 37.8185 104.482 37.8227C105.583 33.9019 106.537 29.4848 107.371 25.0927C107.801 22.8278 108.193 20.5754 108.558 18.394C108.799 17.1886 108.992 15.9915 109.143 14.8069C109.143 14.8069 109.143 14.8069 109.143 14.8027C109.556 15.0488 109.964 15.2907 110.377 15.5368L110.48 15.5535Z" fill="#92C1F8"/>
<path d="M109.147 14.753C109.147 14.7488 109.147 14.7447 109.151 14.7405C109.409 13.4808 109.715 12.1503 109.973 10.8906H109.981C110.377 11.2243 110.772 11.558 111.168 11.8917L111.172 11.9459C111.121 12.1795 110.863 13.5434 110.48 15.558L110.373 15.5372C109.96 15.2911 109.551 15.0491 109.139 14.8031C109.139 14.7947 109.143 14.7864 109.143 14.778C109.147 14.7697 109.147 14.7613 109.147 14.753Z" fill="#3783DC"/>
<path d="M105.509 39.9011L105.492 40.0554C95.1125 38.9 83.4556 36.9438 73.3467 34.5163L73.0113 34.2493C72.4308 33.7738 71.5751 32.9563 71.0677 32.4141C81.8346 34.8207 93.3538 36.827 104.361 37.8156L104.357 37.8739C104.645 38.5914 105.277 39.1586 105.509 39.9011Z" fill="#92C1F8"/>
<path d="M108.558 18.3945C108.197 20.5718 107.801 22.8283 107.371 25.0932C106.541 29.4853 105.583 33.9024 104.482 37.8232C104.439 37.819 104.4 37.8149 104.357 37.8107C93.3496 36.8222 81.8303 34.8159 71.0635 32.4092C71.1495 31.5875 71.2312 30.7616 71.3172 29.9399L71.343 29.8565C75.8449 31.1329 80.4242 32.1172 85.0466 32.9389C90.6278 33.9316 96.2692 34.6908 101.889 35.4457C105.054 30.3988 107.363 24.3466 108.558 18.3945Z" fill="#C9E0FC"/>
<path d="M109.151 14.741C109.151 14.7452 109.151 14.7494 109.147 14.7536H109.143L75.8019 8.87658L76.4211 5.00586C81.4347 5.68991 86.4483 6.37396 91.4619 7.05801C97.5677 7.88804 104.035 9.26448 109.977 10.8703C109.977 10.8787 109.973 10.8828 109.973 10.8912C109.715 12.1508 109.409 13.4814 109.151 14.741Z" fill="#3A8FF3"/>
<path d="M109.139 14.8036C108.954 15.9673 108.76 17.1728 108.554 18.3949C107.363 24.3469 105.049 30.3991 101.885 35.4502C96.2648 34.6953 90.6234 33.9362 85.0422 32.9434C80.4199 32.1218 75.8406 31.1374 71.3386 29.8611C70.0573 29.4982 68.7802 29.1103 67.5118 28.6932L67.0517 28.5639C69.623 26.3407 72.6716 21.8443 73.7594 18.6743C74.8473 15.5044 75.3203 12.1717 75.6772 8.85156L109.139 14.7494H109.143C109.143 14.7577 109.139 14.7661 109.139 14.7744C109.139 14.7786 109.139 14.7828 109.139 14.7869C109.143 14.7911 109.143 14.7953 109.139 14.8036Z" fill="white"/>
<path d="M82.0581 25.2019C81.4605 24.2968 81.2885 23.0788 81.5422 21.5439L81.826 19.8296C82.0796 18.2947 82.6343 17.1893 83.4943 16.5178C84.35 15.8421 85.4937 15.6169 86.917 15.8379C88.3316 16.059 89.3378 16.6179 89.9355 17.5188C90.5331 18.4198 90.7051 19.6336 90.4514 21.1727L90.1676 22.887C89.914 24.4219 89.3593 25.5272 88.4993 26.2071C87.6393 26.887 86.5042 27.1164 85.0895 26.8953C83.662 26.6701 82.6515 26.107 82.0581 25.2019ZM87.1148 23.1414L87.635 19.9964C87.8328 18.7952 87.4759 18.1236 86.5601 17.9818C86.1086 17.9109 85.7388 18.011 85.4507 18.278C85.1626 18.5449 84.9734 18.9745 84.8745 19.5668L84.3543 22.7118C84.1565 23.9214 84.5177 24.6013 85.4421 24.7431C86.358 24.8891 86.9127 24.3552 87.1148 23.1414Z" fill="#3576C4"/>
<path d="M93.457 19.345L91.922 19.1073L92.5928 16.8633L96.7808 17.514L95.005 28.2836L92.0553 27.8248L93.457 19.345Z" fill="#3576C4"/>
<path d="M74.039 62.6248C74.039 62.6248 72.534 66.2244 68.991 68.7145C65.4479 71.2046 65.1856 76.6144 65.1856 76.6144L71.7988 81.1817C71.7988 81.1817 69.8122 76.9981 72.2116 75.7051C74.6109 74.4121 76.3437 69.3026 76.3265 67.5758C76.3093 65.849 73.824 62.2285 73.824 62.2285" fill="#61D093"/>
<path d="M68.3675 72.7323C68.5352 72.4153 68.6986 72.1567 68.862 71.9649C69.1286 71.6437 69.3952 71.456 69.6574 71.4018C69.9197 71.3476 70.1863 71.4226 70.4572 71.6312C70.7496 71.8606 70.8829 72.1234 70.8571 72.4153L72.0181 72.699L71.5107 73.3121L70.5776 73.0702C70.5561 73.0994 70.5174 73.1494 70.4658 73.2078L70.3669 73.3288L71.0549 73.8627L70.5733 74.4466L68.3675 72.7323ZM70.0616 72.8032C70.2207 72.6114 70.182 72.4237 69.9498 72.2402C69.7176 72.0566 69.5198 72.0608 69.3608 72.2568C69.3221 72.3069 69.2834 72.3736 69.2447 72.4571L69.9154 72.9784L70.0616 72.8032Z" fill="white"/>
<path d="M70.6034 71.3848C70.6292 71.218 70.6722 71.0595 70.7367 70.9093C70.8012 70.7592 70.8829 70.6215 70.9818 70.5006C71.1151 70.3379 71.2656 70.2211 71.429 70.1502C71.5924 70.0793 71.7644 70.0626 71.9363 70.0918C72.1126 70.121 72.2803 70.2003 72.4437 70.3296L72.5899 70.4422C72.8479 70.6466 72.9941 70.8676 73.0199 71.1179C73.0457 71.364 72.9511 71.6184 72.7404 71.8728C72.7146 71.902 72.6716 71.9521 72.6071 72.0188L73.1833 72.4693L72.7748 73.0824L70.6034 71.3848ZM72.362 71.3097C72.3577 71.2472 72.3233 71.1888 72.2545 71.1346L71.8331 70.8092C71.7643 70.755 71.6999 70.7341 71.6311 70.7425C71.5666 70.7508 71.5021 70.7925 71.4462 70.8634C71.3946 70.926 71.3645 70.9844 71.3516 71.0386L72.1255 71.6393C72.1771 71.6142 72.2287 71.5725 72.2803 71.51C72.3405 71.4432 72.3663 71.3765 72.362 71.3097Z" fill="white"/>
<path d="M106.335 52.7513C106.335 52.7513 107.294 50.4614 109.547 48.8764C111.8 47.2914 111.968 43.8503 111.968 43.8503L107.763 40.9473C107.763 40.9473 109.027 43.6084 107.5 44.4301C105.974 45.2518 104.873 48.5052 104.882 49.6022C104.89 50.6991 106.473 53.0016 106.473 53.0016" fill="#61D093"/>
<path d="M109.943 46.3194C109.835 46.5238 109.732 46.6864 109.629 46.8074C109.461 47.0118 109.289 47.1327 109.121 47.1661C108.954 47.1995 108.786 47.1536 108.614 47.0201C108.425 46.8741 108.343 46.7073 108.36 46.5196L107.621 46.3402L107.943 45.9482L108.537 46.1025C108.55 46.0816 108.575 46.0524 108.605 46.0149L108.67 45.9398L108.231 45.5978L108.537 45.2266L109.943 46.3194ZM108.863 46.2777C108.76 46.3986 108.786 46.5196 108.937 46.6364C109.087 46.7532 109.212 46.749 109.311 46.628C109.336 46.5988 109.362 46.553 109.384 46.4987L108.958 46.165L108.863 46.2777Z" fill="white"/>
<path d="M108.519 47.1777C108.502 47.282 108.476 47.3821 108.433 47.4822C108.39 47.5781 108.339 47.6657 108.274 47.7408C108.188 47.8451 108.094 47.9201 107.991 47.9618C107.887 48.0077 107.78 48.0202 107.668 47.9994C107.556 47.9785 107.449 47.9285 107.346 47.8492L107.251 47.7783C107.088 47.649 106.993 47.5072 106.98 47.3487C106.963 47.1902 107.023 47.0317 107.156 46.869C107.174 46.8482 107.199 46.819 107.238 46.7773L106.873 46.4936L107.135 46.1016L108.519 47.1777ZM107.401 47.2236C107.406 47.2653 107.427 47.3028 107.47 47.3362L107.737 47.5447C107.78 47.5781 107.823 47.5906 107.866 47.5864C107.909 47.5823 107.948 47.5531 107.982 47.5114C108.016 47.4697 108.034 47.4363 108.042 47.3988L107.548 47.015C107.513 47.0317 107.483 47.0567 107.449 47.0984C107.414 47.1401 107.397 47.1819 107.401 47.2236Z" fill="white"/>
<path d="M25.6442 17.1478C25.6442 17.1478 22.3506 22.3825 16.176 25.3898C10.0014 28.3971 8.16968 36.7559 8.16968 36.7559L17.2724 45.5067C17.2724 45.5067 15.2773 38.4952 19.3536 37.0729C23.4298 35.6505 27.4717 28.1218 27.9017 25.4273C28.3316 22.7328 25.412 16.4805 25.412 16.4805" fill="#61D093"/>
<path d="M14.1508 31.4922C14.4947 31.0376 14.8215 30.6789 15.1225 30.4161C15.6213 29.9781 16.0857 29.7529 16.5114 29.732C16.9371 29.7112 17.3326 29.8989 17.6938 30.291C18.0937 30.7206 18.2313 31.1627 18.1109 31.6132L19.8438 32.3431L18.8892 33.1731L17.5003 32.5642C17.4573 32.6059 17.3885 32.6684 17.2939 32.7519L17.109 32.9145L18.0378 33.9198L17.1348 34.7081L14.1508 31.4922ZM16.7694 32.0219C17.0661 31.7633 17.0575 31.463 16.7393 31.121C16.4211 30.779 16.1158 30.7373 15.8191 31C15.7417 31.0668 15.6643 31.1585 15.5826 31.2837L16.4942 32.2639L16.7694 32.0219Z" fill="white"/>
<path d="M17.9819 29.9442C18.0636 29.6939 18.1754 29.4562 18.3173 29.2351C18.4592 29.0141 18.6226 28.8222 18.8075 28.6595C19.0612 28.4385 19.3235 28.2967 19.5987 28.2257C19.8739 28.159 20.1448 28.1715 20.407 28.2633C20.6693 28.355 20.9144 28.5219 21.138 28.7596L21.3358 28.9724C21.6884 29.3519 21.8518 29.7398 21.826 30.1319C21.8002 30.524 21.5895 30.891 21.1939 31.2372C21.1466 31.2789 21.0649 31.3457 20.9488 31.4333L21.7271 32.2758L20.9273 33.1309L17.9819 29.9442ZM20.7467 30.2654C20.7553 30.1653 20.7166 30.0652 20.622 29.9651L20.0545 29.3519C19.9642 29.2518 19.8653 29.2018 19.7578 29.2018C19.6546 29.2018 19.5471 29.2476 19.4396 29.3394C19.345 29.4228 19.2762 29.5063 19.2461 29.5897L20.2952 30.72C20.3812 30.695 20.4758 30.6449 20.5704 30.5574C20.6779 30.4656 20.7381 30.3655 20.7467 30.2654Z" fill="white"/>
<defs>
<linearGradient id="paint0_linear" x1="-11.6091" y1="-0.116663" x2="82.3642" y2="106.977" gradientUnits="userSpaceOnUse">
<stop offset="1.11884e-07" stop-color="white" stop-opacity="0"/>
<stop offset="1" stop-color="#F1F2F2"/>
</linearGradient>
<linearGradient id="paint1_linear" x1="11.3852" y1="-20.2934" x2="105.359" y2="86.8001" gradientUnits="userSpaceOnUse">
<stop offset="1.11884e-07" stop-color="white" stop-opacity="0"/>
<stop offset="1" stop-color="#F1F2F2"/>
</linearGradient>
</defs>
</svg>
