<svg width="120" height="111" viewBox="0 0 120 111" fill="none" xmlns="http://www.w3.org/2000/svg">
<path d="M37.4052 0.515625H73.9325C92.1805 0.515625 106.97 16.3184 106.97 35.8066V75.2658C106.97 94.7588 92.176 110.557 73.9325 110.557H37.4052C19.1572 110.557 4.36823 94.754 4.36823 75.2658V35.8066C4.36375 16.3136 19.1572 0.515625 37.4052 0.515625Z" fill="#E0E3ED"/>
<path d="M106.231 46.9876C112.227 46.9876 117.087 41.7958 117.087 35.3913C117.087 28.9868 112.227 23.7949 106.231 23.7949C100.236 23.7949 95.3755 28.9868 95.3755 35.3913C95.3755 41.7958 100.236 46.9876 106.231 46.9876Z" fill="#FFDF00"/>
<path d="M106.231 45.7592C111.592 45.7592 115.937 41.1174 115.937 35.3913C115.937 29.6653 111.592 25.0234 106.231 25.0234C100.871 25.0234 96.5255 29.6653 96.5255 35.3913C96.5255 41.1174 100.871 45.7592 106.231 45.7592Z" fill="#FFC100"/>
<path d="M102.844 47.0684L120 63.6933C120 63.6933 109.346 72.6129 106.137 81.1787C102.929 89.7445 84.8196 87.8659 82.9447 90.0074C81.0698 92.1488 68.903 70.653 68.903 70.653C68.903 70.653 85.4684 76.2648 88.2383 68.5211C91.0082 60.7775 95.0444 48.8609 102.844 47.0684Z" fill="#E9F3FE"/>
<path d="M93.0844 67.2635C91.4109 56.3794 97.9753 49.8403 98.5705 49.2715C93.4693 53.497 90.4488 62.3353 88.2383 68.5159C85.4684 76.2548 68.903 70.6478 68.903 70.6478C68.903 70.6478 69.2475 71.2549 69.8247 72.2491C71.8921 70.4327 83.2087 76.6181 90.0595 81.2117C96.9059 85.8101 94.8341 78.6639 93.0844 67.2635Z" fill="#92C1F8"/>
<path d="M29.7803 100.633C31.069 98.8167 32.2727 96.9 33.0245 94.7681C33.7762 92.6362 34.0626 90.2605 33.4988 88.0617C33.2393 87.0483 32.7291 86.011 31.8252 85.6C30.635 85.0598 29.2165 85.8629 28.5318 87.034C27.8472 88.2051 27.7219 89.6343 27.61 91.011C28.9793 85.8342 29.6639 80.4566 29.6371 75.0791C29.6237 72.2207 29.2433 69.0085 27.1402 67.2446C26.1781 66.4368 24.8178 66.0496 23.7125 66.5993C22.1151 67.3976 21.7571 69.606 21.6094 71.4845C21.417 73.8889 21.2246 76.2932 21.0277 78.6976C21.2828 76.1164 21.3365 73.5113 21.1843 70.9253C21.0635 68.8603 20.804 66.7571 19.9403 64.9024C19.0767 63.0478 17.515 61.4656 15.6043 61.1119C14.8212 60.9637 13.9531 61.0497 13.3222 61.5707C12.6913 62.0918 12.3959 62.9617 12.2841 63.8078C12.0872 65.3135 12.378 66.8479 12.7718 68.3058C14.1276 73.2962 16.7275 77.775 19.3004 82.1822C17.1973 78.0953 13.2103 75.1843 8.88325 74.5772C8.46262 74.5198 7.99725 74.4912 7.64822 74.7493C7.36631 74.9596 7.21865 75.3133 7.12468 75.6671C6.62351 77.5313 7.29472 79.5293 8.22994 81.1928C11.1296 86.3409 16.2979 89.4144 20.6205 93.2624C19.108 91.1448 16.6917 89.8016 14.1992 89.6917C13.5549 89.663 12.8121 89.7682 12.4496 90.337C12.2438 90.662 12.208 91.0779 12.2438 91.4651C12.3691 92.8561 13.2953 94.0033 14.2306 94.9784C16.2576 97.1007 18.5442 98.9362 21.0143 100.423C23.1577 101.713 25.6501 102.77 28.0441 102.139C28.4647 102.029 28.9525 101.737 28.9167 101.278" fill="#B0E7C9"/>
<path d="M18.052 69.9636C18.4726 73.7446 19.372 77.4348 20.4728 81.0485C21.5736 84.667 22.8623 88.2138 24.0839 91.7845C24.7731 93.8064 25.4443 95.8332 26.0439 97.8886C26.1557 98.271 25.6054 98.4861 25.4935 98.1037C24.4196 94.4374 23.1308 90.8572 21.8868 87.253C20.6473 83.668 19.4526 80.0543 18.58 76.345C18.0878 74.2609 17.703 72.1481 17.4658 70.0162C17.4255 69.6147 18.0072 69.5621 18.052 69.9636Z" fill="#D8F3E4"/>
<path d="M21.4841 86.7762C18.5711 85.6099 15.8504 83.9082 13.4788 81.7572C12.8031 81.1453 12.1588 80.4952 11.5412 79.8165C11.3667 79.6253 11.6173 79.3002 11.7918 79.4962C13.9397 81.8719 16.4679 83.8461 19.2467 85.2944C20.0298 85.7055 20.8308 86.0735 21.6497 86.3986C21.8824 86.4942 21.7168 86.8718 21.4841 86.7762Z" fill="#D8F3E4"/>
<path d="M26.3884 76.1302C26.1244 78.2716 25.8604 80.4131 25.5964 82.5593C25.3771 84.3518 25.2116 86.1826 24.7015 87.9129C24.4285 88.8403 24.0481 89.715 23.5157 90.5037C23.368 90.7236 23.0682 90.4559 23.2158 90.236C24.1645 88.8259 24.5717 87.1242 24.8312 85.4321C25.131 83.4962 25.3279 81.5412 25.5696 79.6005C25.7172 78.4198 25.8604 77.2343 26.0081 76.0537C26.0349 75.7908 26.4198 75.8673 26.3884 76.1302Z" fill="#D8F3E4"/>
<path d="M16.7588 92.7602C17.6001 93.5059 18.4189 94.3042 19.3184 94.9686C20.1865 95.6091 21.1441 96.1015 22.1017 96.5795C22.3299 96.6942 22.1643 97.0718 21.9361 96.9571C20.9785 96.4791 20.0209 95.982 19.1439 95.3414C18.2131 94.6675 17.3719 93.8453 16.5082 93.0805C16.3203 92.9084 16.5664 92.5881 16.7588 92.7602Z" fill="#D8F3E4"/>
<path d="M30.4202 89.0743C29.9458 89.5571 29.5789 90.1498 29.1896 90.7091C28.7779 91.3018 28.3618 91.8993 27.9501 92.4921C27.798 92.7072 27.4982 92.4395 27.6503 92.2244C28.062 91.6317 28.4781 91.0342 28.8898 90.4414C29.2791 89.8822 29.646 89.2894 30.1203 88.8067C30.2993 88.625 30.5991 88.8927 30.4202 89.0743Z" fill="#D8F3E4"/>
<path d="M29.2433 105.06C29.9056 101.738 30.1204 97.9953 29.8832 94.6062C29.749 92.7229 29.4357 90.7487 28.3036 89.2956C27.9635 88.8558 27.4579 88.4495 26.9388 88.5882C26.4555 88.7172 26.1781 89.2621 26.0618 89.7736C25.8515 90.6866 25.9499 91.6426 26.0841 92.5699C26.648 96.4848 27.9814 101.336 29.2433 105.06Z" fill="#89DCAE"/>
<path d="M28.0352 92.8994C27.7577 94.7541 27.9546 96.5944 28.1739 98.4443C28.3618 100.041 28.5184 101.671 29.033 103.196C29.0733 103.31 28.8988 103.363 28.8585 103.248C28.3394 101.709 28.1873 100.06 27.9949 98.4443C27.7711 96.5753 27.5832 94.7254 27.8651 92.8468C27.8785 92.7273 28.0531 92.7799 28.0352 92.8994Z" fill="white"/>
<path d="M29.0017 103.516C28.505 98.9843 27.1715 94.5627 25.1042 90.5714C24.254 88.9366 23.1487 87.2588 21.4707 86.7187C20.8621 86.5227 20.173 86.4988 19.6092 86.8191C18.7053 87.3258 18.3607 88.5638 18.4592 89.6489C18.5979 91.1546 19.3855 92.493 20.1909 93.7406C22.831 97.837 25.8694 101.637 29.2433 105.06" fill="#61D093"/>
<path d="M29.2433 105.06C27.0104 101.283 23.7573 96.9048 20.3118 94.3762C19.7121 93.9364 19.0812 93.511 18.3697 93.3532C17.7835 93.2242 17.1123 93.3102 16.6962 93.7691C16.3292 94.1706 16.2308 94.7825 16.3113 95.3369C16.4993 96.6275 17.5106 97.574 18.4905 98.3531C21.5647 100.805 25.6277 103.688 29.2433 105.06Z" fill="#89DCAE"/>
<path d="M28.5184 103.74C26.9343 100.303 25.3458 96.8565 23.4217 93.6156C22.8802 92.7027 22.2985 91.8136 21.6362 90.9962C21.5602 90.9054 21.6855 90.7667 21.7615 90.8623C22.9071 92.2724 23.8199 93.8881 24.697 95.499C25.6098 97.1768 26.4555 98.8976 27.2744 100.628C27.7487 101.632 28.2141 102.636 28.675 103.644C28.7287 103.754 28.5721 103.854 28.5184 103.74Z" fill="white"/>
<path d="M18.7725 95.8535C20.5042 96.8955 22.218 97.9567 23.7439 99.319C25.234 100.648 26.5943 102.144 27.8741 103.698C27.9502 103.788 27.8249 103.927 27.7488 103.831C26.4914 102.302 25.1534 100.829 23.6947 99.5198C22.1554 98.1383 20.4281 97.0676 18.683 96.016C18.58 95.9586 18.6695 95.7913 18.7725 95.8535Z" fill="white"/>
<path d="M17.8909 39.957L18.5532 44.2208C18.5532 44.2208 17.7701 49.4454 14.4095 49.3211C11.049 49.1968 10.8342 47.9349 10.8342 47.9349L10.8387 40.6023L17.8909 39.957Z" fill="#E9F3FE"/>
<path d="M17.8909 39.957L18.0967 41.2715C17.0004 41.6731 14.2708 42.8203 14.3469 44.3451C14.4274 45.913 16.7454 45.9799 18.1415 45.8317C17.6224 47.3565 16.5306 49.4024 14.4095 49.3259C11.0445 49.2016 10.8342 47.9397 10.8342 47.9397L10.8387 40.6071L17.8909 39.957Z" fill="#92C1F8"/>
<path d="M24.8267 43.3301C24.8267 43.3301 21.5915 43.2489 20.352 43.3206C19.1125 43.3923 18.4189 43.4831 18.4189 43.4831C18.4189 43.4831 18.5442 45.9735 15.7072 46.8817C12.8702 47.7899 10.8208 45.6198 10.8208 45.6198C10.8208 45.6198 2.45749 50.5145 2.01896 57.5507C1.58044 64.5869 15.743 85.1315 29.467 87.1057C43.1955 89.0798 39.9155 53.569 39.9155 53.569L24.8267 43.3301Z" fill="#3A8FF3"/>
<path d="M39.9111 53.5689C39.9111 53.5689 39.9871 54.3719 40.0632 55.7247L34.613 85.662C33.2392 86.8379 31.5478 87.4067 29.4625 87.1056C19.4525 85.6668 9.21434 74.3477 4.57404 65.6002C6.9725 63.4205 8.88769 61.7284 8.88769 61.7284C8.88769 61.7284 14.2305 76.9337 20.5086 77.2109C26.7911 77.4834 25.5069 46.0021 25.4845 45.5766L24.8849 43.373L39.9111 53.5689Z" fill="#2D517E"/>
<path d="M18.4234 26.3579C10.7268 17.534 4.1803 29.5701 4.1803 29.5701C4.1803 29.5701 4.54723 30.5452 5.13342 31.9697C4.99918 31.9601 4.87388 31.9792 4.75754 32.0414C4.15345 32.3521 4.0908 33.5519 4.61882 34.7277C5.14684 35.8989 6.06416 36.6015 6.66825 36.2908C6.76222 36.243 6.83829 36.1761 6.90541 36.0901C7.5632 37.5384 8.27916 39.0059 8.97722 40.2391C11.2593 44.283 15.9936 42.371 20.2894 39.8376C24.5851 37.2946 18.4234 26.3579 18.4234 26.3579Z" fill="#E9F3FE"/>
<path d="M13.707 28.5233C15.7206 28.3846 17.8954 27.9736 19.1304 27.7107C18.7187 26.8741 18.4278 26.3579 18.4278 26.3579C10.7313 17.534 4.18475 29.5701 4.18475 29.5701C4.18475 29.5701 4.55168 30.5452 5.13787 31.9697C5.13787 31.9697 6.54742 33.4706 7.01726 32.8301C7.48711 32.1943 10.6731 28.7288 13.707 28.5233Z" fill="#539CEA"/>
<path d="M8.06884 29.3453C8.06884 29.3453 19.7524 27.4142 22.558 21.9076C25.3637 16.401 19.824 14.4412 18.75 14.9909C17.6761 15.5406 17.6761 15.5406 17.6761 15.5406C17.6761 15.5406 18.3563 11.2385 14.857 10.598C11.3578 9.95749 9.31729 15.5453 9.31729 15.5453C9.31729 15.5453 7.09334 10.6028 5.86279 12.0081C4.63224 13.4135 -1.94116 25.5117 0.564698 28.547C3.07055 31.5824 4.60986 36.4676 5.92991 37.4857C7.24996 38.5038 8.07331 38.3748 8.07331 38.3748L6.91435 35.6884C6.91435 35.6884 5.85832 36.6349 4.95442 34.7037C4.05052 32.7726 5.95676 32.7965 5.95676 32.7965L5.61221 31.4151C5.61221 31.4151 6.74431 31.9409 7.05307 30.7841C7.37078 29.6321 7.62584 29.4266 8.06884 29.3453Z" fill="#2D517E"/>
<path d="M15.9131 31.7109L18.1326 34.9948L17.0989 36.4288" fill="#92C1F8"/>
<path d="M2.01898 57.5512C2.46198 50.515 10.8163 45.625 10.8163 45.625C10.8163 45.625 11.3533 46.189 12.2527 46.6192C11.3667 50.2234 10.3017 55.4193 11.1385 56.9202C12.4496 59.2911 14.1724 61.8484 14.1724 61.8484L6.35053 68.4592C6.35053 68.4592 6.26998 68.4019 6.13127 68.2919C3.43747 63.9851 1.86684 59.9699 2.01898 57.5512Z" fill="#3576C4"/>
<path d="M33.8836 106.609C31.3107 106.609 29.2165 104.372 29.2165 101.623V6.61057C29.2165 3.86206 31.3107 1.625 33.8836 1.625H80.5015C83.0745 1.625 85.1686 3.86206 85.1686 6.61057V101.623C85.1686 104.372 83.0745 106.609 80.5015 106.609H33.8836Z" fill="#92C1F8"/>
<path d="M79.2575 5.97026C80.8997 5.97026 82.2332 7.39471 82.2332 9.14898V99.0805C82.2332 100.835 80.8997 102.259 79.2575 102.259H35.1276C33.4854 102.259 32.1519 100.835 32.1519 99.0805V9.14898C32.1519 7.39471 33.4854 5.97026 35.1276 5.97026H79.2575ZM80.5015 0H33.8836C30.4649 0 27.6951 2.95884 27.6951 6.61079V101.624C27.6951 105.275 30.4649 108.234 33.8836 108.234H80.5015C83.9202 108.234 86.69 105.275 86.69 101.624V6.61079C86.69 2.95884 83.9202 0 80.5015 0Z" fill="#3576C4"/>
<path d="M65.8153 10.7748H48.5697C46.7216 10.7748 45.2226 9.17349 45.2226 7.19933V3.84375H69.1625V7.20411C69.1625 9.17349 67.6634 10.7748 65.8153 10.7748Z" fill="#3576C4"/>
<path d="M75.6956 47.1162H38.0407C36.6087 47.1162 35.4453 45.8733 35.4453 44.3437V20.8642C35.4453 19.3346 36.6087 18.0918 38.0407 18.0918H75.6956C77.1275 18.0918 78.2909 19.3346 78.2909 20.8642V44.3437C78.2909 45.8733 77.1275 47.1162 75.6956 47.1162Z" fill="#3A8FF3"/>
<path d="M36.8011 96.1599L40.4883 90.4621C41.2401 89.3005 42.7302 89.0233 43.8041 89.8455L44.3232 90.2422C45.6119 91.2269 47.4197 90.6055 47.9343 89.0042L49.7242 83.4068C50.4536 81.1315 53.4651 81.1315 54.1945 83.4068L55.0626 86.117C55.7562 88.2872 58.5887 88.421 59.4568 86.3226L60.2085 84.5109C60.9603 82.7041 63.2737 82.4794 64.3163 84.1094C65.4126 85.8254 67.8738 85.4669 68.5002 83.5023L69.337 80.8829C70.1066 78.4785 73.3464 78.6602 73.8744 81.1362L77.0783 96.1599C77.0828 96.1599 36.913 96.0404 36.8011 96.1599Z" fill="#3576C4"/>
<path d="M36.6982 96.3087L39.6963 86.9446C40.3989 84.7505 43.2895 84.7123 44.0458 86.8872L45.4822 91.0363C46.1041 92.8336 48.3191 93.2208 49.4423 91.7246L50.6057 90.1807C51.3799 89.153 52.7715 88.957 53.7649 89.7361L56.4721 91.8537C56.8659 92.1644 57.3447 92.3269 57.8324 92.3269H61.278C61.7657 92.3269 62.2445 92.4942 62.6383 92.8001L65.2023 94.803C66.2539 95.6251 67.735 95.3527 68.4689 94.2055L70.8763 90.4436C70.9076 90.3958 70.9389 90.348 70.9703 90.3049C71.9368 89 73.8699 89.2725 74.5724 90.759L77.1454 96.2131C77.1544 96.2178 36.6982 96.1318 36.6982 96.3087Z" fill="#E9F3FE"/>
<path d="M77.1409 96.218L74.0086 93.4934C69.7128 90.1187 67.6768 96.543 64.3029 91.7247L63.1395 90.1808C62.3653 89.1531 60.9737 88.9571 59.9803 89.7363L58.6334 90.7879C57.3536 91.7869 55.8098 92.327 54.2213 92.327H52.4627C51.975 92.327 51.4962 92.4943 51.1024 92.8003L48.5384 94.8031C47.4868 95.6253 46.753 95.7352 45.0705 94.2247C45.0705 94.2247 43.2448 92.6377 43.2 92.5804C42.3051 91.414 40.4346 91.414 39.6247 92.5804C39.4323 92.8576 39.2264 93.111 39.0117 93.3643L36.5908 96.2132C36.5863 96.218 77.1409 96.0411 77.1409 96.218Z" fill="#3A8FF3"/>
<path opacity="0.3" d="M77.3602 54.5217H36.8862C36.3716 54.5217 35.9554 54.0772 35.9554 53.5275C35.9554 52.9777 36.3716 52.5332 36.8862 52.5332H77.3602C77.8748 52.5332 78.291 52.9777 78.291 53.5275C78.291 54.0772 77.8748 54.5217 77.3602 54.5217Z" fill="#3576C4"/>
<path opacity="0.3" d="M77.3602 61.5334H36.8862C36.3716 61.5334 35.9554 61.0889 35.9554 60.5392C35.9554 59.9895 36.3716 59.5449 36.8862 59.5449H77.3602C77.8748 59.5449 78.291 59.9895 78.291 60.5392C78.291 61.0889 77.8748 61.5334 77.3602 61.5334Z" fill="#3576C4"/>
<path opacity="0.3" d="M65.623 68.5451H36.8862C36.3716 68.5451 35.9554 68.1006 35.9554 67.5509C35.9554 67.0012 36.3716 66.5566 36.8862 66.5566H65.623C66.1376 66.5566 66.5537 67.0012 66.5537 67.5509C66.5492 68.1006 66.1331 68.5451 65.623 68.5451Z" fill="#3576C4"/>
<path d="M52.5612 44.4105C50.8294 44.4105 49.8316 41.7672 48.6726 38.708C47.6076 35.8973 46.4039 32.709 44.8109 32.6039C43.9741 32.5513 42.22 33.3591 39.7455 39.425C39.6247 39.7261 39.298 39.8599 39.0161 39.7309C38.7342 39.6018 38.6089 39.2529 38.7297 38.9517C40.8508 33.7511 42.8644 31.2846 44.8825 31.4232C47.1691 31.5761 48.4534 34.9795 49.7018 38.2682C50.5833 40.6008 51.6125 43.249 52.5746 43.2299C53.8365 43.2107 55.0849 39.076 56.0873 35.7491C57.5147 31.0169 58.8661 26.5523 61.3361 26.4328C63.1395 26.342 64.4103 28.5791 65.6498 30.7396C66.3881 32.0302 67.3949 33.7941 67.9945 33.6555C68.7329 33.4834 69.1356 30.8305 69.4623 28.6986C69.9858 25.2761 70.5765 21.3995 72.881 20.7255C73.4134 20.5677 73.9862 20.5964 74.5858 20.8067C74.8767 20.9071 75.0333 21.2417 74.9393 21.5524C74.8454 21.8631 74.5277 22.0304 74.2413 21.93C73.852 21.7914 73.494 21.7723 73.1763 21.8631C71.5564 22.3411 71.0016 25.9692 70.5586 28.885C70.0842 32.0016 69.7084 34.4633 68.2317 34.8122C66.8714 35.1325 65.869 33.383 64.7056 31.3563C63.6854 29.5781 62.5443 27.5657 61.3853 27.6135C59.6849 27.6948 58.2754 32.3601 57.1433 36.1124C55.8053 40.5483 54.6464 44.3819 52.588 44.4105C52.5791 44.4105 52.5701 44.4105 52.5612 44.4105Z" fill="white"/>
<path opacity="0.4" d="M65.0931 27.7332C65.4605 25.5293 64.0858 23.4245 62.0226 23.032C59.9594 22.6396 57.989 24.1081 57.6216 26.3121C57.2542 28.5161 58.629 30.6209 60.6922 31.0133C62.7554 31.4057 64.7258 29.9372 65.0931 27.7332Z" fill="#F5F8FF"/>
<path d="M61.3585 29.1244C62.4459 29.1244 63.3274 28.1828 63.3274 27.0212C63.3274 25.8596 62.4459 24.918 61.3585 24.918C60.2711 24.918 59.3896 25.8596 59.3896 27.0212C59.3896 28.1828 60.2711 29.1244 61.3585 29.1244Z" fill="#F5F8FF"/>
<path d="M12.8479 61.2842C12.8479 61.2842 23.5201 69.807 24.9744 71.002C26.4287 72.1922 36.0897 56.6571 36.0897 56.6571C36.0897 56.6571 35.8838 53.5883 36.2194 52.8235C36.5551 52.0587 36.8996 53.5023 36.8996 53.5023C36.8996 53.5023 37.5395 50.1467 39.0922 50.6152C40.645 51.0836 41.0835 54.6065 39.9514 55.7872C38.8193 56.9678 38.8193 56.9678 38.8193 56.9678C38.8193 56.9678 32.8544 76.3174 26.6435 76.6329C20.4326 76.9484 8.33286 68.5212 7.19181 66.5948C6.0418 64.6637 12.8479 61.2842 12.8479 61.2842Z" fill="#E9F3FE"/>
<path d="M8.86087 63.7559C11.2191 66.1363 19.5465 74.2576 24.7596 75.5865C28.7332 76.5998 32.9931 70.2806 35.4945 65.7205C33.19 70.8925 29.9503 76.466 26.639 76.6333C20.4281 76.9488 8.32837 68.5216 7.18731 66.5952C6.70404 65.7826 7.63031 64.7166 8.86087 63.7559Z" fill="#92C1F8"/>
<path d="M89.9163 60.2951C93.2724 60.2951 95.993 57.3888 95.993 53.8038C95.993 50.2187 93.2724 47.3125 89.9163 47.3125C86.5602 47.3125 83.8396 50.2187 83.8396 53.8038C83.8396 57.3888 86.5602 60.2951 89.9163 60.2951Z" fill="#FFDF00"/>
<path d="M89.9163 59.6059C92.9165 59.6059 95.3486 57.0078 95.3486 53.803C95.3486 50.5981 92.9165 48 89.9163 48C86.9161 48 84.4839 50.5981 84.4839 53.803C84.4839 57.0078 86.9161 59.6059 89.9163 59.6059Z" fill="#FFC100"/>
</svg>
