<svg width="120" height="111" viewBox="0 0 120 111" fill="none" xmlns="http://www.w3.org/2000/svg">
<g clip-path="url(#clip0)">
<path d="M41.257 5.32812H76.3566C93.8914 5.32812 108.102 19.5442 108.102 37.0757V72.5729C108.102 90.1086 93.8871 104.32 76.3566 104.32H41.257C23.7222 104.32 9.51126 90.1043 9.51126 72.5729V37.0757C9.50696 19.5442 23.7222 5.32812 41.257 5.32812Z" fill="#E0E3ED"/>
<path d="M46.5802 35.1056C40.4916 20.9884 35.6758 12.1861 32.0123 6.69922C18.9881 10.6553 9.50696 22.76 9.50696 37.0793V51.2266C21.4476 59.9472 36.7981 73.7891 46.5802 92.4945C49.087 97.2934 51.095 101.181 52.6946 104.328H67.6193C65.1856 91.6474 58.9422 63.7527 46.5802 35.1056Z" fill="url(#paint0_linear)"/>
<path d="M76.3566 5.32812H64.661C66.0327 11.3998 68.475 22.3006 72.8092 41.81C79.6589 72.6417 77.9605 95.144 76.7221 104.312C79.7019 104.277 82.5785 103.834 85.3089 103.035C86.616 98.0423 88.5897 89.7689 91.5437 76.0559C96.4283 53.3816 98.045 28.7808 98.5782 14.4056C92.8465 8.79399 85.0079 5.32812 76.3566 5.32812Z" fill="url(#paint1_linear)"/>
<path d="M108.102 72.5727V72.4179C106.374 65.0562 97.2882 58.9114 95.0867 57.2601C92.7218 55.4842 72.2116 55.6175 72.2116 55.6175C72.2116 55.6175 60.1849 63.1126 58.2113 67.6448C56.2376 72.1771 54.2683 76.718 53.6749 80.4634C53.0816 84.2088 53.4771 85.9847 57.4201 85.9847C61.3631 85.9847 64.3214 86.3803 64.3214 86.3803L65.3662 104.325H76.348C93.8914 104.325 108.102 90.1085 108.102 72.5727Z" fill="#3A8FF3"/>
<path d="M72.5427 53.5743L70.8356 51.7984C70.8356 51.7984 69.9154 50.0913 76.8167 50.3536C83.7179 50.6159 93.9731 52.3918 94.3686 53.7076C94.7642 55.0235 91.1481 57.5863 90.8213 57.6508C90.4945 57.7153 86.5472 59.358 86.3537 59.358C86.1602 59.358 72.5427 53.5743 72.5427 53.5743Z" fill="#2D517E"/>
<path d="M74.3658 48.4316L74.1465 49.1498L74.2024 54.6797L83.4169 59.7839L85.3691 60.373L87.0632 59.5603L88.9078 56.0041C88.9078 56.0041 87.8587 53.9573 87.8587 52.8521L74.3658 48.4316Z" fill="#E9F3FE"/>
<path d="M83.4126 59.7843L85.3648 60.3734L87.0589 59.5607L87.1965 59.294C83.5803 59.208 81.8389 56.6667 80.205 55.2477C78.6828 53.9275 81.8776 51.627 82.7118 51.1669L74.3658 48.4277L74.1465 49.1458L74.2024 54.6758L83.4126 59.7843Z" fill="#92C1F8"/>
<path d="M87.0245 57.9056C87.0245 57.0197 86.7665 56.2844 88.4994 55.8802C90.2322 55.476 91.965 55.6609 92.9583 54.6289C93.9516 53.5969 94.3214 52.8616 94.6524 54.2247C94.9835 55.5878 94.8717 57.1745 94.8717 57.1745C94.8717 57.1745 93.8398 58.9806 91.1137 59.2386C88.3876 59.4966 87.0589 59.5697 87.0589 59.5697L87.0245 57.9056Z" fill="#2D517E"/>
<path d="M70.44 53.2224C70.5088 52.3365 70.3669 51.0852 73.093 52.3365C75.8191 53.5879 81.1294 55.5788 82.2345 55.6562C83.3396 55.7336 83.7824 56.4689 83.7093 57.3504C83.6363 58.232 83.4127 59.7843 83.4127 59.7843C83.4127 59.7843 77.6638 58.0901 74.4905 57.058C71.3215 56.026 70.2164 56.026 70.44 53.2224Z" fill="#2D517E"/>
<path d="M96.3896 27.2715C96.3896 27.2715 98.5997 38.7742 95.0609 45.7016C91.5222 52.6334 89.0154 54.4007 83.4127 53.9578C77.81 53.5149 73.2392 48.7977 68.9652 43.7838C64.6911 38.7699 64.3945 38.327 65.2802 34.1989C66.166 30.0708 73.9788 28.5959 73.9788 28.5959L96.3896 27.2715Z" fill="#E9F3FE"/>
<path d="M96.3896 27.2715L73.9788 28.6002C73.9788 28.6002 70.8657 29.1893 68.3503 30.66L70.2207 35.6051C70.2207 35.6051 70.5905 34.573 71.5494 33.6141C72.5083 32.6552 79.732 32.2854 87.2524 32.3628C92.6057 32.4144 95.5941 31.4985 96.8798 30.9653C96.6691 28.7507 96.3896 27.2715 96.3896 27.2715Z" fill="#92C1F8"/>
<path d="M70.2164 45.7015C70.2164 45.7015 67.3398 47.8386 65.349 41.3498C63.3582 34.861 62.4724 27.9336 62.0295 24.4677C61.5866 21.0018 62.9884 17.9058 66.1574 16.4308C69.3264 14.9559 74.7098 7.80485 79.5729 5.2979C84.4446 2.79526 89.7506 0.215204 92.7734 2.79526C95.7962 5.37531 93.4356 9.50339 93.4356 9.50339C93.4356 9.50339 102.577 5.59461 105.23 8.76807C107.883 11.9372 108.107 15.5493 105.376 17.9101C102.65 20.2708 102.057 20.7137 102.057 20.7137C102.057 20.7137 106.924 20.2708 107.659 23.2207C108.395 26.1705 99.4038 30.9608 87.2395 31.0339C75.0753 31.107 70.2121 31.5499 70.2121 31.5499V35.6049C70.2121 35.6049 68.7201 33.2829 67.615 34.4998C66.51 35.7167 67.0603 40.7478 68.5008 40.9671C69.9412 41.1864 69.9369 41.1864 69.9369 41.1864L70.2164 45.7015Z" fill="#2D517E"/>
<path d="M94.274 98.7812C93.9344 93.7458 93.0443 82.3764 91.5393 76.0596C89.5657 67.7776 87.0632 59.5645 87.0632 59.5645L86.7622 59.6849C85.8894 60.0375 84.9348 60.1192 84.0189 59.9171L83.4126 59.7838C83.4126 59.7838 83.6534 60.4116 84.0447 76.3219C84.3629 89.1576 83.3997 99.9337 83.0128 103.619C87.1191 102.742 90.9245 101.073 94.274 98.7812Z" fill="white"/>
<path d="M0.855665 61.6839L0.580475 60.8023L2.20582 58.7168L3.19478 60.2003L0.855665 61.6839Z" fill="#3576C4"/>
<path d="M2.96689 59.271L32.4896 54.6527C34.5363 54.3302 36.4154 55.8481 36.5358 57.9164L38.8448 97.847C38.9523 99.7047 37.6021 101.321 35.7575 101.549L10.8399 104.633C8.98236 104.86 7.26673 103.601 6.93564 101.756L0.0558923 63.3603C-0.292395 61.4167 1.02336 59.572 2.96689 59.271Z" fill="#2D517E"/>
<path d="M38.088 55.934L40.397 95.8603C40.5045 97.7179 39.1544 99.3348 37.3097 99.5627L32.524 100.156L15.3117 102.285L12.3921 102.646C10.5346 102.874 8.81897 101.61 8.48789 99.7691L1.60814 61.3736C1.25985 59.4343 2.5756 57.5938 4.51913 57.2885L34.0418 52.6702C36.0886 52.3477 37.9676 53.8657 38.088 55.934Z" fill="#3A8FF3"/>
<path d="M34.2998 92.6667C32.3262 94.4383 29.8667 95.8143 27.218 95.9132C26.2118 95.9519 25.2057 95.8014 24.2167 95.595C19.7363 94.649 15.531 92.413 12.2416 89.2266C11.2785 88.2935 10.397 87.2873 9.51554 86.2767C8.25999 84.8448 7.00444 83.4086 5.75318 81.9767C5.55969 81.7574 5.3662 81.5381 5.177 81.3145L8.48358 99.779C8.81467 101.624 10.5303 102.888 12.3878 102.656L15.3074 102.295L32.5197 100.166L37.3054 99.5726C39.1501 99.3447 40.5002 97.7236 40.3927 95.8702L39.7735 85.206C38.346 87.9882 36.6218 90.5811 34.2998 92.6667Z" fill="#3576C4"/>
<path d="M15.1483 101.134C15.1483 101.082 15.1526 101.031 15.1526 100.975C15.1526 101.026 15.1483 101.082 15.1483 101.134Z" fill="#61D093"/>
<path d="M15.1612 100.854C15.1827 100.545 15.23 100.205 15.2945 99.8438C15.23 100.201 15.1827 100.54 15.1612 100.854Z" fill="#61D093"/>
<path d="M31.3114 95.3841C31.32 95.4314 31.2942 95.4787 31.2512 95.4959C29.4367 96.2527 27.347 97.0526 25.1154 97.7664C22.2302 98.6909 19.2504 98.8199 16.7393 98.6522C16.3437 98.6264 15.961 98.592 15.5955 98.5533C15.5912 98.5748 15.5826 98.5963 15.5783 98.6178C15.5826 98.5963 15.5912 98.5748 15.5955 98.5533C15.6428 98.3727 15.6944 98.1878 15.7503 98.0072C15.7804 97.904 15.8105 97.8008 15.8449 97.6976C15.8965 97.5342 15.9481 97.3665 15.9997 97.2031C16.0212 97.1429 16.0384 97.0827 16.0599 97.0225C16.0814 96.9623 16.0986 96.9021 16.1201 96.8419C16.1416 96.7817 16.1588 96.7214 16.1803 96.6612C16.1846 96.6483 16.1889 96.6312 16.1932 96.6183C16.3007 96.3043 16.4125 95.9947 16.52 95.6937C16.5458 95.6249 16.5716 95.5604 16.5931 95.4916C16.6662 95.2938 16.7436 95.096 16.8167 94.9111C16.9156 94.6617 17.0102 94.4209 17.0962 94.1973C17.1048 94.1758 17.1177 94.15 17.1263 94.1285C17.1478 94.0726 17.1692 94.021 17.1907 93.9694C17.2552 93.8146 17.3154 93.6641 17.3756 93.5265C17.4057 93.4577 17.4315 93.3932 17.4573 93.3287C17.539 93.1395 17.6078 92.9761 17.6637 92.8428C17.7669 92.5977 17.8314 92.4601 17.8314 92.4601L18.9838 89.8671C19.001 89.8327 19.0354 89.8069 19.0741 89.8069L29.4023 89.4414C29.4496 89.4414 29.4883 89.4715 29.5012 89.5145C29.6302 89.9746 30.6966 92.2838 30.7868 92.473C30.7911 92.4816 30.7912 92.4902 30.7955 92.4988C30.8212 92.6407 31.0276 93.9178 31.3114 95.3841Z" fill="#61D093"/>
<path d="M17.9475 93.9777L17.6723 94.6829C17.6637 94.7044 17.6637 94.7216 17.668 94.7431C17.7196 94.9581 18.012 96.2697 17.3628 97.2329V97.2372C17.1822 97.5124 16.9758 97.9983 16.7651 98.5788C16.7479 98.6218 16.7092 98.6476 16.6619 98.6476C16.3351 98.6261 16.0212 98.596 15.7116 98.5659C15.6514 98.5616 15.6084 98.4971 15.6256 98.4369C15.6643 98.295 15.7073 98.1488 15.7503 98.0026C15.7804 97.8994 15.8105 97.7962 15.8449 97.693C15.8965 97.5296 15.9481 97.3619 15.9997 97.1985C16.0212 97.1383 16.0384 97.0781 16.0599 97.0179C16.0814 96.9577 16.0986 96.8975 16.1201 96.8373C16.1416 96.7771 16.1588 96.7169 16.1803 96.6567C16.1846 96.6438 16.1889 96.6266 16.1932 96.6137C16.3007 96.2998 16.4125 95.9902 16.52 95.6892C16.5458 95.6204 16.5716 95.5559 16.5931 95.4871C16.6705 95.2892 16.7436 95.0914 16.8167 94.9065C16.9156 94.6571 17.0102 94.4163 17.0962 94.1927C17.1048 94.1712 17.1177 94.1454 17.1263 94.1239C17.1478 94.068 17.1693 94.0164 17.1908 93.9648C17.2553 93.81 17.3155 93.6595 17.3757 93.5219C17.4058 93.4531 17.4316 93.3886 17.4574 93.3241C17.5175 93.1822 17.5734 93.0532 17.6207 92.9457C17.6465 92.8898 17.711 92.8683 17.7626 92.8984L18.1797 93.1478C18.2227 93.1736 18.2399 93.2252 18.2227 93.2725L17.9475 93.9777Z" fill="#246641"/>
<path d="M18.1582 94.8771C18.1582 94.8771 18.0765 96.1843 17.367 97.2335V97.2378C17.036 97.0916 16.6404 96.8895 16.1975 96.61C15.3246 96.0682 14.2583 95.2383 13.0887 93.9568C10.4658 91.0844 11.4935 85.5287 11.4935 85.5287L11.8976 83.1378C11.8976 83.1378 14.2282 82.9443 14.3357 82.9357C14.4432 82.9271 15.6987 83.2539 15.5869 83.843C15.4751 84.4321 14.886 89.4976 15.4493 91.0758C15.7718 91.9745 16.6576 92.8947 17.3842 93.5182C17.5949 93.6988 17.7884 93.8536 17.9561 93.974L18.1582 94.8771Z" fill="#E9F3FE"/>
<path d="M32.7132 77.9941L35.1985 79.0004C35.1985 79.0004 36.7938 80.7978 37.2581 81.1676C37.7225 81.5331 39.0469 82.9908 37.9504 84.1089C36.8539 85.2269 35.4694 85.3043 34.3342 84.6765C33.255 84.0788 31.5737 83.1284 31.5737 83.1284C31.5737 83.1284 31.1309 81.7051 31.3545 80.4925C31.5737 79.2842 32.7132 77.9941 32.7132 77.9941Z" fill="#E9F3FE"/>
<path d="M35.1942 79.0004L32.7089 77.9941C32.7089 77.9941 31.5694 79.2842 31.3458 80.4968C31.1223 81.7051 31.5651 83.1327 31.5651 83.1327C31.5651 83.1327 32.051 83.4079 32.6659 83.752C32.5498 83.3219 32.5842 82.7156 33.0701 81.9158C33.8656 80.6129 35.0222 79.8346 35.6285 79.4906C35.3791 79.2068 35.1942 79.0004 35.1942 79.0004Z" fill="#539CEA"/>
<path d="M43.2822 74.1243C42.2847 75.0402 40.8313 76.5151 40.3626 78.4458C39.8939 80.3809 38.8706 83.3479 37.9074 84.2209C36.9443 85.0938 35.8263 85.1798 35.0523 84.9863C34.2784 84.7885 34.4976 83.2963 36.1058 80.4153C36.1058 80.4153 37.142 78.8888 38.3718 76.9451C39.5973 75.0015 40.2121 74.378 40.2121 74.378C40.2121 74.378 40.2164 74.0512 40.3067 73.6341C40.4443 73.0062 40.7754 72.1677 41.5838 71.9011C41.6268 71.8882 41.6655 71.871 41.7085 71.8538C42.7318 71.4238 43.652 69.8629 44.4045 69.4458C44.4647 69.4114 44.5249 69.3856 44.5808 69.3684C44.7184 69.3254 44.8474 69.334 44.9721 69.3985C45.832 69.8672 44.0347 73.4319 43.2822 74.1243Z" fill="#E9F3FE"/>
<path d="M15.2171 88.0341C15.2601 86.6495 15.402 85.2003 15.5009 84.4048C14.9033 84.0651 14.3013 83.7168 14.2626 83.7168C14.211 83.7168 12.5641 84.1769 11.6741 84.4263L11.4849 85.5314C11.4849 85.5314 11.3473 86.271 11.3043 87.3461C12.1686 87.5224 14.2669 87.9395 15.2171 88.0341Z" fill="#539CEA"/>
<path d="M26.3064 73.5359L25.8378 71.4805C25.8378 71.4805 32.4122 75.0108 33.8054 77.0061C35.1985 79.0013 35.1985 79.0013 35.1985 79.0013C35.1985 79.0013 33.3324 80.0075 32.4509 81.5685C31.5694 83.1294 31.5694 83.1294 31.5694 83.1294C31.5694 83.1294 30.5332 81.9641 29.6044 81.2245C28.6799 80.4848 26.3064 73.5359 26.3064 73.5359Z" fill="#92C1F8"/>
<path d="M16.7393 73.8457L13.3854 75.0239C13.3854 75.0239 10.655 80.7946 10.5002 82.82C10.3841 84.3379 10.7238 86.273 10.7238 86.273H17.0532L16.7393 73.8457Z" fill="#92C1F8"/>
<path d="M24.4016 66.4273L25.5797 68.4053C25.5797 68.4053 24.6295 69.1278 25.2315 70.306C25.8334 71.4842 25.8334 71.4842 25.8334 71.4842C25.8334 71.4842 25.1111 74.9587 22.5957 75.9176C20.0802 76.8765 19.3106 72.886 19.3106 72.886C19.3106 72.886 20.0759 68.1989 19.9685 66.9476C19.8653 65.7006 24.4016 66.4273 24.4016 66.4273Z" fill="#E9F3FE"/>
<path d="M25.5798 68.4058L24.4016 66.4278C24.4016 66.4278 24.2898 66.4106 24.1006 66.3848C23.2793 67.3093 22.1098 68.8917 22.3764 70.143C22.7849 72.0394 21.4734 71.9663 21.1638 71.8373C20.8499 71.7083 20.7897 73.0456 21.1638 73.2606C21.3831 73.3853 23.275 73.6605 24.9004 73.8067C25.5884 72.6414 25.8291 71.4804 25.8291 71.4804C25.8291 71.4804 25.8291 71.4804 25.2272 70.3021C24.6295 69.1282 25.5798 68.4058 25.5798 68.4058Z" fill="#539CEA"/>
<path d="M28.6628 58.6835C25.3906 50.6166 17.5821 56.9377 17.5821 56.9377C17.5821 56.9377 17.5993 57.6945 17.6509 58.8168C17.5563 58.7738 17.4617 58.7523 17.3628 58.7609C16.8468 58.8039 16.4942 59.5995 16.5716 60.5326C16.649 61.47 17.1306 62.1924 17.6466 62.1494C17.724 62.1408 17.8013 62.1193 17.8701 62.0806C17.9733 63.2373 18.1109 64.4242 18.2958 65.4433C18.9021 68.7973 22.7978 68.8102 26.5472 68.2813C30.2881 67.7524 28.6628 58.6835 28.6628 58.6835Z" fill="#E9F3FE"/>
<path d="M24.7112 58.8509C26.1989 59.311 27.8673 59.6292 28.8262 59.7926C28.7445 59.1175 28.6671 58.6875 28.6671 58.6875C25.3949 50.6205 17.5864 56.9416 17.5864 56.9416C17.5864 56.9416 17.6036 57.6984 17.6552 58.8208C17.6552 58.8208 18.2829 60.2183 18.786 59.9173C19.2848 59.6163 22.471 58.1542 24.7112 58.8509Z" fill="#539CEA"/>
<path d="M20.4372 57.8527C20.4372 57.8527 29.3507 59.762 32.7863 56.8207C36.2219 53.8794 32.7347 51.0328 31.8231 51.1059C30.9073 51.1833 30.9073 51.1833 30.9073 51.1833C30.9073 51.1833 32.5025 48.4699 30.1505 47.0767C27.7985 45.6835 24.8875 48.887 24.8875 48.887C24.8875 48.887 24.5607 44.9439 23.3095 45.5545C22.0625 46.1651 14.2153 52.512 15.2386 55.2469C16.262 57.9817 16.1158 61.7013 16.8038 62.7505C17.4918 63.7997 18.1195 63.9416 18.1195 63.9416L17.9776 61.8131C17.9776 61.8131 16.9715 62.1614 16.8167 60.6091C16.6619 59.0567 18.0292 59.5986 18.0292 59.5986L18.1367 58.5708C18.1367 58.5708 18.8161 59.2373 19.3364 58.5407C19.8567 57.8441 20.0975 57.7882 20.4372 57.8527Z" fill="#2D517E"/>
<path d="M18.0464 91.4026C18.0034 91.48 17.2768 92.2282 17.2768 92.2282L17.1994 93.3763C17.1994 93.3763 20.7639 94.5932 24.1221 94.1718C27.4803 93.7461 30.774 92.2712 30.774 92.2712L30.4386 90.5684C30.4386 90.5684 27.3943 91.8799 24.4833 92.1465C21.568 92.4131 17.926 91.4198 17.926 91.4198" fill="#539CEA"/>
<path d="M19.13 70.7402C19.13 70.7402 21.052 72.0948 22.5742 72.1851C24.0963 72.2754 25.8335 71.4798 25.8335 71.4798C25.8335 71.4798 28.7573 72.7785 29.6732 74.692C30.5891 76.6056 31.0019 79.4952 30.7826 83.0858C30.5633 86.6763 31.2083 90.5206 30.4945 91.0151C29.7764 91.5096 26.5601 93.1824 22.5441 93.0878C18.528 92.9932 17.2768 92.2278 17.2768 92.2278C17.2768 92.2278 17.5821 89.3854 15.8879 85.9539C14.1938 82.5225 12.0525 76.3131 13.738 74.4383C15.4192 72.5678 19.13 70.7402 19.13 70.7402Z" fill="#92C1F8"/>
<path d="M25.4766 61.6016L26.2333 64.4267L25.1154 65.1104" fill="#92C1F8"/>
<path d="M44.5378 70.2722C43.8369 72.6802 42.1471 72.8092 41.8418 73.0242C41.5365 73.2392 41.4806 72.8092 41.8246 72.2158C42.0611 71.8073 41.8547 71.8116 41.7085 71.8546C42.7318 71.4246 43.652 69.8636 44.4045 69.4465C44.4647 69.4121 44.5249 69.3863 44.5808 69.3691C44.6195 69.6185 44.6367 69.9453 44.5378 70.2722Z" fill="#539CEA"/>
<path d="M44.1293 65.7855C44.0992 65.7468 44.0648 65.721 44.0261 65.6952L43.7939 65.4888L43.7122 65.5963L42.203 65.4673C42.0095 65.4501 41.7945 65.5232 41.6225 65.6651C41.4505 65.807 41.3344 66.0048 41.3043 66.2026L40.6679 70.4081V70.4124L40.5948 70.3995L40.5819 70.7048L40.8055 70.9284C40.8743 71.0101 40.9689 71.0703 41.0807 71.1004L42.6157 71.5304C42.706 71.5562 42.7963 71.5605 42.8909 71.5519C43.0242 71.5347 43.1575 71.4874 43.2779 71.4014C43.4843 71.2595 43.6219 71.0402 43.652 70.8037L44.254 66.2284C44.2755 66.0521 44.2282 65.8973 44.1293 65.7855Z" fill="#3576C4"/>
<path d="M43.4757 65.3612L41.9493 65.2408C41.7558 65.2236 41.5451 65.2967 41.3731 65.4429C41.2011 65.5848 41.085 65.7783 41.0549 65.9761L40.4185 70.1557C40.3669 70.4782 40.5346 70.762 40.827 70.8438L42.3491 71.2609C42.4351 71.2867 42.5297 71.291 42.62 71.2824C42.7533 71.2652 42.8866 71.2136 43.007 71.1319C43.2134 70.99 43.3467 70.7706 43.3768 70.5384L43.9831 65.9933C44.0218 65.6536 43.8111 65.3913 43.4757 65.3612Z" fill="#2D517E"/>
<path d="M43.3725 65.6107L43.136 65.5892C43.136 65.615 43.136 65.6451 43.136 65.6795C43.1317 65.8429 43.0285 65.8128 42.8866 65.8128C42.749 65.8128 42.3319 65.7569 42.16 65.7397C41.9837 65.7225 41.9493 65.6709 41.9579 65.6021C41.9622 65.572 41.9708 65.529 41.9794 65.4903L41.9235 65.486C41.601 65.4602 41.2613 65.7397 41.2097 66.0708L40.6077 70.0527C40.569 70.3107 40.7023 70.5343 40.9345 70.5945L42.3792 70.9815C42.7361 71.0761 43.1403 70.7923 43.1919 70.4053L43.7724 66.1095C43.8068 65.8429 43.6391 65.6365 43.3725 65.6107Z" stroke="#92C1F8" stroke-width="0.0456" stroke-miterlimit="10"/>
<path d="M20.076 71.3207C19.5127 71.0111 19.13 70.7402 19.13 70.7402C19.13 70.7402 15.4192 72.5678 13.7337 74.4383C12.0482 76.3131 14.1895 82.5225 15.8836 85.9539C17.5778 89.3854 17.2725 92.2278 17.2725 92.2278C17.2725 92.2278 17.3499 92.2751 17.5262 92.3439C17.8099 91.987 17.5176 86.9516 17.1951 82.7074C16.8726 78.4632 15.6815 75.0833 16.2964 74.5415C16.8167 74.0857 19.3235 71.9615 20.076 71.3207Z" fill="#92C1F8"/>
<path d="M32.3993 100.174L15.746 102.234C15.6729 102.242 15.617 102.173 15.6385 102.105C15.9309 101.193 16.3265 99.8169 16.7135 98.7204C16.7264 98.6774 16.7694 98.6516 16.8124 98.6559C19.3063 98.815 22.256 98.6774 25.1111 97.7658C27.3255 97.0563 29.4023 96.265 31.2082 95.5125C31.2684 95.4867 31.3329 95.5211 31.3458 95.5856C31.5694 96.7294 31.836 97.955 32.094 98.8236C32.2144 99.2278 32.352 99.6406 32.481 100.045C32.5025 100.105 32.4638 100.165 32.3993 100.174Z" fill="#26AC63"/>
<path d="M16.6963 98.7775C16.3007 99.8998 15.9008 101.302 15.6084 102.196C15.5955 102.235 15.5654 102.261 15.5267 102.265L15.3977 102.282C15.3547 102.252 15.3289 102.235 15.2859 102.205C15.2816 102.187 15.2773 102.175 15.273 102.157C15.2644 102.127 15.2558 102.093 15.2515 102.063C15.2472 102.041 15.2429 102.02 15.2386 101.998C15.2214 101.917 15.2042 101.835 15.1913 101.749C15.187 101.727 15.1827 101.706 15.1827 101.689C15.1784 101.646 15.1698 101.603 15.1655 101.56C15.1612 101.538 15.1612 101.517 15.1612 101.491C15.1612 101.474 15.1569 101.456 15.1569 101.444C15.1569 101.426 15.1526 101.409 15.1526 101.392C15.1526 101.362 15.1483 101.332 15.1483 101.302C15.144 101.198 15.1483 101.091 15.1526 100.979C15.1569 100.94 15.1569 100.902 15.1612 100.859C15.1827 100.549 15.23 100.209 15.2945 99.8482C15.2988 99.8267 15.3031 99.8095 15.3074 99.788C15.3203 99.7278 15.3332 99.6676 15.3461 99.6031C15.3504 99.5816 15.3547 99.5558 15.359 99.53C15.3719 99.4569 15.3891 99.3838 15.4063 99.3107C15.4235 99.2333 15.4407 99.1559 15.4622 99.0785C15.4751 99.0269 15.488 98.9753 15.5009 98.9194C15.5267 98.8248 15.5482 98.7302 15.574 98.6356C15.6127 98.6055 15.6428 98.5883 15.6815 98.5625C15.9825 98.5926 16.2921 98.6184 16.6103 98.6442C16.6748 98.6485 16.7178 98.713 16.6963 98.7775Z" fill="#246641"/>
<path d="M84.0189 59.9174L83.4126 59.7841C83.4126 59.7841 83.6534 60.4119 84.0447 76.3222C84.3629 89.1579 83.3997 99.9339 83.0128 103.619C85.167 103.159 87.2395 102.475 89.2088 101.602C88.6757 98.8718 87.7942 94.8125 86.5429 89.0762C83.8469 76.7178 86.7622 59.6895 86.7622 59.6895C85.8937 60.0335 84.9348 60.1152 84.0189 59.9174Z" fill="#E0E3ED"/>
<path d="M73.0414 91.0059V110.434L63.2765 104.727L53.5115 110.434V91.0059H73.0414Z" fill="#61D093"/>
<path d="M63.2421 104.749L63.2765 104.727L73.0414 110.434V91.0059H63.2421V104.749Z" fill="#26AC63"/>
<path d="M79.603 80.9739C79.603 89.9912 72.2933 97.297 63.2808 97.297V64.6465C72.2933 64.6508 79.603 71.9609 79.603 80.9739Z" fill="#FFC100"/>
<path d="M63.2765 64.6504V97.3009C54.2597 97.3009 46.9543 89.9908 46.9543 80.9778C46.9543 77.6194 47.969 74.4933 49.7105 71.896C49.8524 71.681 50.0029 71.4703 50.1577 71.2639C53.1289 67.2519 57.9017 64.6504 63.2765 64.6504Z" fill="#DDA805"/>
<path d="M75.0538 80.9732C75.0538 87.4793 69.7822 92.7512 63.2765 92.7512C56.7708 92.7512 51.4992 87.4793 51.4992 80.9732C51.4992 74.4672 56.7708 69.1953 63.2765 69.1953C69.7822 69.1953 75.0538 74.4715 75.0538 80.9732Z" fill="#FFDA23"/>
<path d="M65.6543 73.3027H61.2814L59.6259 83.7605L59.4582 84.6765L60.3182 84.526L59.1701 89.2561L64.0032 81.9803L62.2144 82.2297L62.6057 79.7658C62.6788 79.8088 64.0204 80.0066 64.5922 80.041C65.8306 80.1141 67.6752 80.2431 68.1826 76.9234C68.6169 74.0638 67.026 73.3027 65.6543 73.3027ZM65.8177 76.631C65.6586 77.6544 65.2802 78.0156 64.6868 78.0156H62.8766L63.3066 75.3367H65.1211C65.6328 75.3367 65.9682 75.6248 65.8177 76.631Z" fill="white"/>
<path d="M76.6146 67.2441L78.528 68.4997C78.6011 68.547 78.6613 68.6201 78.7 68.7018L79.6331 70.7917C79.7836 71.1271 80.248 71.1658 80.4501 70.8562L81.7056 68.9426C81.7529 68.8695 81.826 68.8093 81.9077 68.7706L83.9974 67.8375C84.3328 67.687 84.3715 67.2226 84.0619 67.0205L82.1485 65.7649C82.0754 65.7176 82.0152 65.6445 81.9765 65.5628L81.0434 63.4729C80.893 63.1375 80.4286 63.0988 80.2265 63.4084L78.9709 65.322C78.9236 65.3951 78.8505 65.4553 78.7688 65.494L76.6791 66.4271C76.3437 66.5776 76.305 67.042 76.6146 67.2441Z" fill="#B1AEAD"/>
<path d="M44.0863 88.5506L44.6367 88.9118C44.6582 88.9247 44.6754 88.9462 44.684 88.9677L44.9549 89.5697C44.9979 89.6687 45.1312 89.6772 45.1914 89.5869L45.5525 89.0365C45.5654 89.015 45.5869 88.9978 45.6084 88.9892L46.2104 88.7183C46.3093 88.6753 46.3179 88.542 46.2276 88.4818L45.6772 88.1206C45.6557 88.1077 45.6385 88.0862 45.6299 88.0647L45.359 87.4627C45.3161 87.3638 45.1828 87.3552 45.1226 87.4455L44.7614 87.9959C44.7485 88.0174 44.727 88.0346 44.7055 88.0432L44.1035 88.3141C44.0089 88.3571 43.996 88.4904 44.0863 88.5506Z" fill="#B1AEAD"/>
<path d="M41.8375 72.5076L42.3879 72.8689C42.4094 72.8818 42.4266 72.9033 42.4352 72.9248L42.706 73.5268C42.749 73.6257 42.8823 73.6343 42.9425 73.544L43.3037 72.9936C43.3166 72.9721 43.3381 72.9549 43.3596 72.9463L43.9616 72.6754C44.0605 72.6324 44.0691 72.4991 43.9788 72.4389L43.4284 72.0776C43.4069 72.0647 43.3897 72.0432 43.3811 72.0217L43.1102 71.4197C43.0672 71.3208 42.9339 71.3122 42.8737 71.4025L42.5126 71.9529C42.4997 71.9744 42.4781 71.9916 42.4566 72.0002L41.8547 72.2711C41.7558 72.3142 41.7472 72.4474 41.8375 72.5076Z" fill="#61D093"/>
<path d="M44.039 92.7904L45.1484 93.5171C45.1914 93.5472 45.2258 93.5859 45.2473 93.6332L45.789 94.8459C45.875 95.0394 46.1459 95.0652 46.262 94.8846L46.9887 93.7752C47.0188 93.7322 47.0575 93.6978 47.1048 93.6763L48.3173 93.1344C48.5108 93.0484 48.5366 92.7775 48.356 92.6614L47.2467 91.9347C47.2037 91.9046 47.1693 91.8659 47.1478 91.8186L46.606 90.606C46.52 90.4125 46.2491 90.3867 46.133 90.5673L45.4064 91.6767C45.3763 91.7197 45.3376 91.7541 45.2903 91.7756L44.0777 92.3174C43.8799 92.4034 43.8584 92.67 44.039 92.7904Z" fill="#B1AEAD"/>
<path d="M81.6583 74.7653L82.4323 75.2727C82.4624 75.2942 82.4882 75.32 82.5011 75.3544L82.8795 76.2015C82.9397 76.3391 83.1289 76.352 83.2105 76.2273L83.7179 75.4533C83.7394 75.4232 83.7652 75.3974 83.7996 75.3845L84.6467 75.0061C84.7843 74.9459 84.7972 74.7567 84.6725 74.675L83.8985 74.1676C83.8684 74.1461 83.8426 74.1203 83.8297 74.0859L83.4513 73.2388C83.3911 73.1012 83.2019 73.0882 83.1202 73.2129L82.6129 73.987C82.5914 74.0171 82.5656 74.0429 82.5312 74.0558L81.6841 74.4342C81.5465 74.4987 81.5336 74.6836 81.6583 74.7653Z" fill="#B1AEAD"/>
<path d="M77.079 93.5172L77.8529 94.0247C77.883 94.0462 77.9088 94.072 77.9217 94.1064L78.3001 94.9535C78.3603 95.0911 78.5495 95.104 78.6312 94.9793L79.1386 94.2053C79.1601 94.1752 79.1859 94.1494 79.2203 94.1365L80.0674 93.758C80.205 93.6978 80.2179 93.5086 80.0932 93.4269L79.3192 92.9195C79.2891 92.898 79.2633 92.8722 79.2504 92.8378L78.872 91.9907C78.8118 91.8531 78.6226 91.8402 78.5409 91.9649L78.0335 92.7389C78.012 92.769 77.9862 92.7948 77.9518 92.8077L77.1048 93.1861C76.9715 93.2506 76.9543 93.4355 77.079 93.5172Z" fill="#B1AEAD"/>
<path d="M46.7221 63.3398L48.3259 64.3934C48.3904 64.4364 48.4377 64.4923 48.4678 64.5611L49.2504 66.3112C49.3751 66.595 49.7664 66.6251 49.9341 66.3671L50.9875 64.7632C51.0305 64.6987 51.0864 64.6514 51.1552 64.6213L52.9053 63.8386C53.189 63.7139 53.2191 63.3226 52.9612 63.1549L51.3573 62.1014C51.2928 62.0584 51.2455 62.0025 51.2154 61.9337L50.4329 60.1836C50.3082 59.8998 49.9169 59.8697 49.7492 60.1277L48.6957 61.7316C48.6527 61.7961 48.5968 61.8434 48.528 61.8735L46.778 62.6561C46.4942 62.7808 46.4641 63.1678 46.7221 63.3398Z" fill="#B1AEAD"/>
<path d="M32.0639 61.1299C32.0639 61.1299 38.4922 50.986 46.778 46.9869C55.0638 42.9878 62.4939 40.9883 63.2765 40.9883C64.0634 40.9883 65.2071 43.3447 64.8459 44.4155C64.4847 45.4862 67.0603 46.9869 66.5616 48.1995C66.0628 49.4121 67.2753 51.201 67.3484 52.1986C67.4215 53.1962 57.777 53.4843 50.205 58.0553C42.6329 62.6263 37.9891 66.6985 37.6322 67.1285C37.2753 67.5585 35.4178 67.0554 35.3447 66.1997C35.2716 65.344 32.4896 64.699 32.5584 63.9851C32.6315 63.2713 31.3458 61.9856 31.7715 61.3406" fill="#61D093"/>
<path d="M38.4535 64.0551C38.0063 64.0852 37.5763 63.9175 37.1592 63.552L34.7599 61.4321L35.6242 60.456L38.1697 62.7049C38.3202 62.8382 38.4664 62.907 38.6083 62.9156C38.7502 62.9242 38.8749 62.864 38.9824 62.7436C39.0899 62.6232 39.1286 62.4942 39.1071 62.3523C39.0813 62.2104 38.9953 62.0771 38.8448 61.9438L36.2993 59.6949L37.1635 58.7188L39.5628 60.8387C39.9799 61.2085 40.1992 61.617 40.2207 62.0599C40.2422 62.5071 40.0659 62.9414 39.6875 63.3714C39.3092 63.7928 38.8964 64.025 38.4535 64.0551Z" fill="white"/>
<path d="M37.8171 58.2244C38.1826 57.717 38.5266 57.3171 38.8448 57.0204C39.3779 56.5302 39.8681 56.2722 40.3282 56.2464C40.784 56.2206 41.2097 56.4184 41.6053 56.8484C42.0008 57.2784 42.1642 57.717 42.0997 58.1685C42.0352 58.62 41.7343 59.093 41.2054 59.5789L41.0076 59.7595L42.018 60.8604L41.0592 61.7419L37.8171 58.2244ZM40.6378 58.7748C40.956 58.4824 40.9388 58.1513 40.5948 57.7772C40.2508 57.4031 39.9197 57.3601 39.6015 57.6525C39.5198 57.7256 39.4381 57.8331 39.3521 57.9707L40.3411 59.0457L40.6378 58.7748Z" fill="white"/>
<path d="M43.9616 58.4304C43.4155 58.3315 42.9081 57.9703 42.4394 57.3425L42.2846 57.1318C41.8031 56.4825 41.5967 55.8891 41.6612 55.3473C41.73 54.8055 42.0783 54.3024 42.7103 53.8293C43.1446 53.5068 43.5703 53.309 43.996 53.2402L44.3658 53.9584C44.1938 54.0401 44.0433 54.1218 43.9143 54.1949C43.7853 54.268 43.6348 54.3669 43.4628 54.4959C43.1102 54.7582 42.9253 55.0119 42.9038 55.257C42.8823 55.5021 42.9769 55.7687 43.1876 56.0568L43.7294 56.7921C43.9358 57.0759 44.1465 57.2522 44.3658 57.3253C44.5808 57.3941 44.8259 57.3296 45.101 57.1232L45.4149 56.891L44.7442 55.9923L44.168 56.4223L43.6219 55.6913L45.1913 54.5217L46.8296 56.7233C46.5673 57.1404 46.1803 57.5403 45.6686 57.9187C45.0752 58.3573 44.5077 58.5293 43.9616 58.4304Z" fill="white"/>
<path d="M44.77 52.5941C45.2343 52.177 45.6557 51.8588 46.0298 51.6352C46.6533 51.2697 47.1908 51.1235 47.6423 51.1923C48.0937 51.2611 48.4678 51.5492 48.7602 52.0523C49.0827 52.6027 49.13 53.1101 48.9064 53.5788L50.5661 54.7484L49.3794 55.4451L48.055 54.4818C47.9991 54.5205 47.9131 54.5721 47.7927 54.6409L47.5606 54.7742L48.313 56.0643L47.1865 56.7222L44.77 52.5941ZM47.4101 53.7293C47.7798 53.51 47.84 53.1832 47.5821 52.7446C47.3241 52.306 47.0102 52.1942 46.6404 52.4135C46.5458 52.4694 46.4426 52.5554 46.3308 52.6715L47.0704 53.9314L47.4101 53.7293Z" fill="white"/>
<path d="M49.6503 49.7791L51.3315 49.0352L54.4489 53.0256L53.2148 53.5717L52.6516 52.8149L51.568 53.2965L51.7486 54.2211L50.5145 54.7672L49.6503 49.7791ZM52.0969 51.9893L50.9359 50.4069L51.3315 52.329L52.0969 51.9893Z" fill="white"/>
<path d="M54.4833 52.8865L53.0815 48.4402C53.5674 48.1564 54.0447 47.9371 54.522 47.7866C55.0466 47.6189 55.4981 47.5673 55.8721 47.6232C56.2462 47.6791 56.5601 47.8511 56.8181 48.1349C57.0761 48.4187 57.2911 48.8315 57.4588 49.3733L57.5362 49.6228C57.7039 50.1603 57.7684 50.6204 57.7211 51.0031C57.6738 51.3858 57.5147 51.704 57.2352 51.962C56.96 52.22 56.5558 52.4307 56.0312 52.5984C55.5626 52.7446 55.0423 52.8435 54.4833 52.8865ZM56.3494 51.3342C56.4483 51.2138 56.4913 51.0461 56.4827 50.8397C56.4741 50.6333 56.4139 50.3538 56.3064 50.0055L56.229 49.7561C56.1215 49.412 56.0097 49.1497 55.8936 48.9734C55.7776 48.7971 55.6443 48.6853 55.4938 48.6423C55.3433 48.5993 55.1584 48.6122 54.9391 48.681C54.8187 48.7197 54.6983 48.7799 54.5779 48.8616L55.4637 51.6782C55.6099 51.6782 55.7431 51.6567 55.8635 51.6223C56.0914 51.5535 56.2548 51.4589 56.3494 51.3342Z" fill="white"/>
<path d="M57.6394 46.9446L60.8342 46.291L61.032 47.2499L59.1142 47.6412L59.312 48.6045L60.9847 48.2648L61.1782 49.2237L59.5055 49.5634L59.7033 50.5352L61.621 50.1439L61.8145 51.1028L58.6198 51.7564L57.6394 46.9446Z" fill="white"/>
<path d="M36.3982 18.112C41.3994 18.112 45.4536 14.0575 45.4536 9.05598C45.4536 4.0545 41.3994 0 36.3982 0C31.397 0 27.3427 4.0545 27.3427 9.05598C27.3427 14.0575 31.397 18.112 36.3982 18.112Z" fill="#FFDF00"/>
<path d="M36.3982 17.1531C40.8698 17.1531 44.4948 13.5279 44.4948 9.05604C44.4948 4.58416 40.8698 0.958984 36.3982 0.958984C31.9265 0.958984 28.3016 4.58416 28.3016 9.05604C28.3016 13.5279 31.9265 17.1531 36.3982 17.1531Z" fill="#FFC100"/>
<path d="M29.57 39.8405C34.5712 39.8405 38.6255 35.786 38.6255 30.7845C38.6255 25.783 34.5712 21.7285 29.57 21.7285C24.5688 21.7285 20.5146 25.783 20.5146 30.7845C20.5146 35.786 24.5688 39.8405 29.57 39.8405Z" fill="#FFDF00"/>
<path d="M29.57 38.8816C34.0417 38.8816 37.6666 35.2564 37.6666 30.7846C37.6666 26.3127 34.0417 22.6875 29.57 22.6875C25.0984 22.6875 21.4734 26.3127 21.4734 30.7846C21.4734 35.2564 25.0984 38.8816 29.57 38.8816Z" fill="#FFC100"/>
<path d="M48.7344 27.8301C50.9192 27.8301 52.6903 26.0589 52.6903 23.874C52.6903 21.6892 50.9192 19.918 48.7344 19.918C46.5497 19.918 44.7786 21.6892 44.7786 23.874C44.7786 26.0589 46.5497 27.8301 48.7344 27.8301Z" fill="#FFDF00"/>
<path d="M48.7344 27.4139C50.6888 27.4139 52.2732 25.8294 52.2732 23.8749C52.2732 21.9204 50.6888 20.3359 48.7344 20.3359C46.78 20.3359 45.1956 21.9204 45.1956 23.8749C45.1956 25.8294 46.78 27.4139 48.7344 27.4139Z" fill="#FFC100"/>
<path d="M45.2988 18.9084H44.0519V17.6614C44.0519 17.3475 43.7982 17.0938 43.4843 17.0938C43.1704 17.0938 42.9167 17.3475 42.9167 17.6614V18.9084H41.6698C41.3559 18.9084 41.1022 19.1621 41.1022 19.476C41.1022 19.7899 41.3559 20.0436 41.6698 20.0436H42.9167V21.2906C42.9167 21.6045 43.1704 21.8582 43.4843 21.8582C43.7982 21.8582 44.0519 21.6045 44.0519 21.2906V20.0436H45.2988C45.6127 20.0436 45.8664 19.7899 45.8664 19.476C45.8664 19.1621 45.6084 18.9084 45.2988 18.9084Z" fill="#FFC100"/>
<path d="M22.7849 39.9865H21.5379V38.7395C21.5379 38.4256 21.2842 38.1719 20.9703 38.1719C20.6565 38.1719 20.4028 38.4256 20.4028 38.7395V39.9865H19.1558C18.8419 39.9865 18.5882 40.2402 18.5882 40.5541C18.5882 40.868 18.8419 41.1217 19.1558 41.1217H20.4028V42.3688C20.4028 42.6827 20.6565 42.9364 20.9703 42.9364C21.2842 42.9364 21.5379 42.6827 21.5379 42.3688V41.1217H22.7849C23.0988 41.1217 23.3525 40.868 23.3525 40.5541C23.3525 40.2402 23.0988 39.9865 22.7849 39.9865Z" fill="#FFC100"/>
</g>
<defs>
<linearGradient id="paint0_linear" x1="-12.0362" y1="-4.62037" x2="85.1846" y2="102.849" gradientUnits="userSpaceOnUse">
<stop offset="1.11884e-07" stop-color="white" stop-opacity="0"/>
<stop offset="1" stop-color="#F1F2F2"/>
</linearGradient>
<linearGradient id="paint1_linear" x1="10.9581" y1="-25.4213" x2="108.179" y2="82.048" gradientUnits="userSpaceOnUse">
<stop offset="1.11884e-07" stop-color="white" stop-opacity="0"/>
<stop offset="1" stop-color="#F1F2F2"/>
</linearGradient>
<clipPath id="clip0">
<rect width="120" height="110.435" fill="white"/>
</clipPath>
</defs>
</svg>
