<svg width="120" height="111" viewBox="0 0 120 111" fill="none" xmlns="http://www.w3.org/2000/svg">
<g clip-path="url(#clip0)">
<path d="M40.4874 2.05078H80.4124C100.358 2.05078 116.522 16.8251 116.522 35.0451V71.9362C116.522 90.1606 100.353 104.931 80.4124 104.931H40.4874C20.542 104.931 4.37738 90.1562 4.37738 71.9362V35.0495C4.37249 16.8251 20.542 2.05078 40.4874 2.05078Z" fill="#E0E3ED"/>
<path d="M15.5533 89.0392C10.8286 84.9412 6.40716 79.7706 3.13999 74.6224C1.32055 71.7622 -0.288584 68.5759 0.0440023 65.2823C0.146713 64.2857 0.557554 63.164 1.57977 62.8109C2.53351 62.4847 3.58996 62.9763 4.35295 63.5975C5.69797 64.6879 6.57345 66.176 7.35111 67.6553C10.633 73.9073 13.6409 82.3268 15.5533 89.0392Z" fill="#89DCAE"/>
<path d="M4.39207 70.1924C6.24086 71.9621 7.69837 74.0267 8.95535 76.1763C10.1536 78.2186 11.3324 80.2922 12.3839 82.4015C12.9806 83.6037 13.5235 84.8371 13.8854 86.1152C13.9441 86.3253 14.3012 86.2359 14.2425 86.0259C13.5871 83.7243 12.4035 81.5703 11.2248 79.4654C10.0265 77.3293 8.88198 75.1618 7.42936 73.1598C6.60279 72.0246 5.68818 70.9432 4.65618 69.96C4.48989 69.7991 4.22578 70.036 4.39207 70.1924Z" fill="white"/>
<path d="M14.2865 86.5538C10.2123 79.4883 7.66415 71.6856 6.82779 63.7353C6.48542 60.473 6.53433 56.8799 8.77929 54.3237C9.59608 53.3941 10.7357 52.6344 12.0318 52.4959C14.1104 52.2724 16.0326 53.6936 17.045 55.3694C18.4438 57.6933 18.5661 60.4596 18.5612 63.1096C18.5466 71.8152 17.539 80.5207 15.5582 89.0385" fill="#61D093"/>
<path d="M15.5532 89.0378C15.2304 81.2216 15.9739 71.4525 19.0454 64.1502C19.5785 62.881 20.185 61.5985 21.2121 60.6198C22.0582 59.8109 23.2908 59.2299 24.489 59.4489C25.5406 59.6411 26.377 60.4186 26.8367 61.3035C27.9176 63.3637 27.2378 65.8037 26.4308 67.9667C23.9021 74.764 20.1752 83.2282 15.5532 89.0378Z" fill="#89DCAE"/>
<path d="M15.3381 86.3347C14.2767 79.676 13.2203 72.9904 12.9659 66.2557C12.8926 64.3832 12.9121 62.5063 13.1469 60.6472C13.1762 60.4327 12.8045 60.4327 12.7801 60.6472C12.3594 63.981 12.5991 67.3685 12.8828 70.7068C13.1714 74.063 13.6066 77.4058 14.1006 80.7396C14.3794 82.6389 14.6827 84.5338 14.981 86.4286C15.0152 86.6386 15.3723 86.5493 15.3381 86.3347Z" fill="white"/>
<path d="M23.2516 64.6431C21.7941 67.3557 20.3171 70.0818 19.2655 72.9553C18.2873 75.6278 17.6221 78.3896 17.0939 81.1648C16.8102 82.6574 16.5755 84.1545 16.3798 85.6561C16.3505 85.8706 16.7222 85.8706 16.7466 85.6561C17.4705 80.1325 18.6737 74.6222 21.129 69.5098C21.8919 67.9233 22.7283 66.3681 23.5647 64.8129C23.6723 64.6207 23.3543 64.4509 23.2516 64.6431Z" fill="white"/>
<path d="M34.3591 105.137C29.7616 104.551 17.9548 99.3539 13.2056 94.1073L45.2268 57.3145L69.4909 75.3824L41.5928 105.753C41.5879 105.753 38.9517 105.722 34.3591 105.137Z" fill="#92C1F8"/>
<path d="M32.6423 65.52L57.283 89.6613C58.8824 91.2299 61.6067 91.212 63.1864 89.6255L118.953 33.6117C120.562 31.9984 120.279 29.4645 118.347 28.1775L87.925 7.93311C86.7022 7.11976 85.0002 7.28958 83.9975 8.32638L32.5836 61.498C31.4685 62.6509 31.4929 64.3938 32.6423 65.52Z" fill="#2D517E"/>
<path d="M84.0024 8.32638C85.0051 7.28958 86.7071 7.11976 87.9299 7.93311L116.312 26.8234C117.466 28.1909 117.447 30.1796 116.107 31.5292L60.3399 87.543C59.2492 88.6379 57.6156 88.982 56.1826 88.5798L32.6472 65.52C31.4978 64.3938 31.4734 62.6509 32.5885 61.498L84.0024 8.32638Z" fill="#3576C4"/>
<path d="M112.487 31.8249L61.3279 84.1742L35.6747 59.6933L82.7063 11.9023L112.487 31.8249Z" fill="#92C1F8"/>
<path d="M63.9054 31.0054L64.0375 30.9473L63.9005 31.0098L63.9054 31.0054Z" fill="#3576C4"/>
<path d="M91.8329 52.962L61.3279 84.1731L35.6747 59.6922L63.5093 31.4082C62.8588 33.2003 59.1563 43.9794 59.5476 56.631C59.9731 70.4981 68.8453 74.8956 71.1979 71.4768C73.5504 68.0581 70.6648 61.4172 74.9395 59.4643C79.2142 57.5113 85.3083 56.2422 87.8712 54.3875C88.7222 53.7708 90.214 53.3061 91.8329 52.962Z" fill="#3576C4"/>
<path d="M57.0092 41.8035C57.2244 41.8035 57.4298 41.8794 57.5863 42.0135L80.3929 61.6322C80.5592 61.7752 80.6521 61.9674 80.657 62.1729C80.6619 62.3785 80.5788 62.5751 80.4223 62.7226L78.1235 64.9035C77.9621 65.0554 77.7469 65.1403 77.517 65.1403C77.3018 65.1403 77.0964 65.0643 76.9399 64.9303L54.2115 45.1552C54.0452 45.0122 53.9523 44.8155 53.9523 44.61C53.9474 44.3999 54.0355 44.2033 54.1969 44.0558L56.4174 42.0269C56.5739 41.8839 56.7842 41.8035 57.0092 41.8035ZM57.0092 41.3789C56.6766 41.3789 56.3391 41.4951 56.0848 41.7275L53.8643 43.7564C53.3458 44.2301 53.3556 45.0032 53.8887 45.4635L76.6171 65.2386C76.8714 65.4576 77.1942 65.5693 77.517 65.5693C77.8594 65.5693 78.2018 65.4487 78.4561 65.2029L80.7548 63.022C81.2586 62.5439 81.239 61.7797 80.7108 61.3238L57.9042 41.7051C57.6499 41.4862 57.332 41.3789 57.0092 41.3789Z" fill="white"/>
<path d="M51.0226 47.7298C51.2378 47.7298 51.4432 47.8058 51.5997 47.9398L74.4063 67.5585C74.5726 67.7015 74.6655 67.8937 74.6704 68.0993C74.6753 68.3049 74.5922 68.5015 74.4357 68.649L72.1369 70.8298C71.9755 70.9818 71.7603 71.0667 71.5304 71.0667C71.3152 71.0667 71.1098 70.9907 70.9533 70.8566L48.225 51.0815C48.0587 50.9385 47.9657 50.7419 47.9657 50.5363C47.9608 50.3263 48.0489 50.1296 48.2103 49.9822L50.4308 47.9533C50.5873 47.8102 50.7976 47.7298 51.0226 47.7298ZM51.0226 47.3008C50.69 47.3008 50.3525 47.417 50.0982 47.6494L47.8777 49.6783C47.3593 50.152 47.369 50.9251 47.9022 51.3854L70.6305 71.1605C70.8848 71.3795 71.2076 71.4912 71.5304 71.4912C71.8728 71.4912 72.2152 71.3705 72.4695 71.1248L74.7682 68.9439C75.272 68.4657 75.2525 67.7015 74.7242 67.2457L51.9176 47.627C51.6682 47.4125 51.3454 47.3008 51.0226 47.3008Z" fill="white"/>
<path d="M45.8186 53.2566C46.0632 53.2566 46.2979 53.3415 46.474 53.4979L68.8258 73.3535C69.1975 73.6842 69.2073 74.2294 68.8453 74.569L65.8472 77.3889C65.6662 77.5587 65.4265 77.6481 65.1722 77.6481C64.9179 77.6481 64.6782 77.5543 64.4972 77.3889L42.7324 56.9658C42.3754 56.6306 42.3754 56.1033 42.7324 55.7637L45.1388 53.5113C45.3246 53.3504 45.5643 53.2566 45.8186 53.2566ZM45.8186 52.832C45.4518 52.832 45.085 52.9616 44.8111 53.2208L42.4047 55.4732C41.8716 55.9737 41.8716 56.7692 42.4047 57.2697L64.1696 77.6928C64.4434 77.952 64.8103 78.0816 65.1771 78.0816C65.5439 78.0816 65.9107 77.952 66.1846 77.6928L69.1828 74.8729C69.7257 74.3634 69.711 73.5501 69.1535 73.054L46.8017 53.1985C46.5278 52.9527 46.1757 52.832 45.8186 52.832Z" fill="white"/>
<path d="M92.8942 62.2003C96.4206 60.3457 96.851 55.7561 96.851 55.7561C96.851 55.7561 75.365 55.1706 72.4793 55.2689C69.5936 55.3673 63.4995 57.3202 67.1335 59.9569C70.7675 62.5936 82.2026 63.2773 85.6262 63.7644C89.0499 64.2515 92.8942 62.2003 92.8942 62.2003Z" fill="#E9F3FE"/>
<path d="M88.1744 64.5735C88.1744 64.5735 68.0823 63.7914 64.7662 65.5522C61.455 67.3085 60.4915 70.8255 65.1917 71.6076C69.8968 72.3897 81.4395 73.7572 84.6431 71.9964C87.8516 70.2401 89.4558 66.2359 88.1744 64.5735Z" fill="#E9F3FE"/>
<path d="M79.268 73.4302C79.268 73.4302 65.0548 73.6268 62.3794 76.3618C59.7041 79.0968 59.171 81.0498 60.7752 81.5369C62.3794 82.024 74.8856 82.4173 78.5196 79.4856C82.1536 76.554 79.5859 73.2336 79.268 73.4302Z" fill="#E9F3FE"/>
<path d="M52.9203 46.6692C46.0778 45.4983 42.659 44.9129 42.659 44.9129C42.659 44.9129 49.927 50.3829 47.5745 59.7588C45.2219 69.1346 40.732 73.6259 40.732 73.6259C40.732 73.6259 26.196 84.1726 22.3468 90.8135C20.8306 93.4278 19.5834 96.3103 18.6248 98.8487C11.934 94.2412 7.3658 87.3366 6.14795 79.5741L16.15 72.8438C16.15 72.8438 28.9741 39.8362 33.0385 34.1695C37.1029 28.5029 46.0778 30.4603 54.6273 33.3875C63.1767 36.3191 66.8107 37.8788 65.9547 41.7846C65.1037 45.6905 59.7579 47.8401 52.9203 46.6692Z" fill="#92C1F8"/>
<path d="M86.712 17.3667L105.753 30.3669C106.633 30.9658 107.865 30.8674 108.619 30.139L109.621 29.1648L87.1033 13.7871L86.4381 14.4351C85.548 15.2887 85.68 16.6606 86.712 17.3667Z" fill="#3576C4"/>
<path d="M91.6372 16.4784L106.462 26.3012C106.687 26.4486 106.995 26.404 107.156 26.1984C107.318 25.9928 107.269 25.7113 107.044 25.5638L92.2193 15.741C91.9943 15.5936 91.6861 15.6383 91.5247 15.8438C91.3633 16.0449 91.4122 16.3309 91.6372 16.4784Z" fill="#2D517E"/>
<path d="M97.2032 55.3616C97.2032 55.3616 102.759 54.5796 106.608 51.2591C110.458 47.9387 101.903 46.3746 99.1253 45.7891C96.3472 45.2037 85.6556 43.0541 83.7334 44.6183C81.8113 46.1824 86.2963 51.2591 89.9303 52.8233C93.5643 54.3874 97.2032 55.3616 97.2032 55.3616Z" fill="#E9F3FE"/>
<path d="M84.966 48.5966C90.1993 46.5453 98.6998 51.1707 102.725 53.6822C99.8345 54.9916 97.2032 55.3626 97.2032 55.3626C97.2032 55.3626 93.5692 54.3839 89.9352 52.8242C88.1109 52.0377 86.0664 50.3663 84.7312 48.6994C84.8095 48.6636 84.8877 48.6279 84.966 48.5966Z" fill="#92C1F8"/>
<path d="M66.0183 58.4152C71.9951 57.4231 87.1277 61.0117 92.5372 62.3747C91.5101 62.8618 88.4288 64.1623 85.6262 63.7601C82.2074 63.2729 70.7674 62.5892 67.1335 59.9525C66.3851 59.4073 66.0525 58.8934 66.0183 58.4152Z" fill="#92C1F8"/>
<path d="M86.8049 70.2441C86.2082 70.9279 85.4844 71.5401 84.648 72.0004C81.4395 73.7567 69.8969 72.3892 65.1966 71.6116C62.6093 71.1826 61.7387 69.9268 62.0273 68.5861C66.752 67.2097 80.8722 69.2744 86.8049 70.2441Z" fill="#92C1F8"/>
<path d="M60.0464 81.0232C65.1184 80.3886 75.9323 77.9888 80.3049 76.9922C80.0799 77.7966 79.5468 78.6546 78.5197 79.4859C74.8857 82.4175 62.3794 82.0242 60.7752 81.5371C60.4328 81.4299 60.1932 81.2556 60.0464 81.0232Z" fill="#92C1F8"/>
<path d="M54.7348 38.4644C46.6109 35.2423 37.6311 31.1398 32.2902 44.6181C26.9443 58.0965 24.0587 73.0362 28.7638 76.5532C33.4689 80.0703 39.6658 81.4378 39.6658 81.4378C39.6658 81.4378 43.0112 96.4267 34.4618 105.105L32.0407 104.618C18.0623 102.428 7.51252 91.8326 5.5708 79.4581L16.15 72.844C16.15 72.844 28.9741 39.8363 33.0385 34.1697C37.098 28.5075 46.0778 30.4605 54.6272 33.3876C63.1767 36.3148 66.8107 37.8789 65.9547 41.7848C65.7591 42.6831 65.3189 43.483 64.6831 44.1757C62.9125 42.9869 59.1514 40.5335 56.2804 39.2241C55.8451 38.956 55.3315 38.7012 54.7348 38.4644Z" fill="#E9F3FE"/>
<path d="M46.7332 0.85357C46.7332 0.85357 41.2994 6.52914 32.6619 8.91556C24.0245 11.302 19.7546 21.0666 19.7546 21.0666L29.4583 33.5216C29.4583 33.5216 28.4948 24.6195 34.0705 23.7257C39.6413 22.8319 46.5718 14.5241 47.7408 11.3467C48.9097 8.16924 46.5865 0 46.5865 0" fill="#61D093"/>
<path d="M28.6562 15.902C29.204 15.4193 29.7029 15.0529 30.1528 14.7937C30.8963 14.3647 31.5419 14.1859 32.0945 14.2485C32.6472 14.311 33.1119 14.6149 33.4885 15.1646C33.9042 15.7679 33.9776 16.3265 33.7232 16.8539L35.7823 18.0918L34.364 18.9051L32.7157 17.8817C32.6521 17.9264 32.5494 17.989 32.4027 18.0694L32.1288 18.2258L33.0972 19.6291L31.7571 20.4022L28.6562 15.902ZM31.9087 17.0729C32.3538 16.8181 32.4076 16.4517 32.0799 15.9735C31.7522 15.4953 31.3658 15.3836 30.9207 15.6383C30.8082 15.7009 30.6859 15.8037 30.5539 15.9333L31.4978 17.3052L31.9087 17.0729Z" fill="white"/>
<path d="M33.9434 14.8062C34.1097 14.5202 34.3053 14.2565 34.5352 14.0152C34.7699 13.7738 35.0243 13.5772 35.2982 13.4163C35.6748 13.2018 36.0465 13.0811 36.4133 13.0543C36.7801 13.0275 37.1274 13.099 37.4453 13.2599C37.7632 13.4253 38.0371 13.6755 38.2719 14.0107L38.4773 14.3101C38.8441 14.8419 38.9664 15.3424 38.8441 15.8117C38.7218 16.2809 38.3648 16.6831 37.7779 17.0228C37.7045 17.063 37.5871 17.1256 37.4208 17.2105L38.2327 18.3903L37.0051 19.2662L33.9434 14.8062ZM37.4257 15.7581C37.46 15.6374 37.4306 15.5078 37.3377 15.3693L36.7459 14.5112C36.6481 14.3727 36.5356 14.2922 36.3986 14.2699C36.2666 14.2475 36.115 14.2833 35.9536 14.3727C35.8117 14.4531 35.709 14.5425 35.6454 14.6363L36.7361 16.2184C36.8535 16.2094 36.9855 16.1603 37.1274 16.0798C37.2937 15.9815 37.3915 15.8787 37.4257 15.7581Z" fill="white"/>
<path d="M12.9758 32.3024C12.9758 32.3024 16.5902 35.9759 17.6124 41.2895C18.6346 46.6031 25.2472 49.9056 25.2472 49.9056L34.8678 45.1149C34.8678 45.1149 28.4606 44.9898 28.26 41.6112C28.0595 38.2327 22.6892 33.4688 20.5225 32.5214C18.3509 31.5784 12.3595 32.3203 12.3595 32.3203" fill="#61D093"/>
<path d="M22.2686 44.2166C21.9702 43.8546 21.7452 43.5284 21.5985 43.2423C21.354 42.7686 21.2757 42.3664 21.3638 42.0447C21.4518 41.7229 21.7061 41.4682 22.1219 41.2894C22.5816 41.0928 22.9876 41.0883 23.3397 41.2805L24.3815 40.1543L24.851 41.0615L23.9951 41.9598C24.0196 42 24.0587 42.067 24.1027 42.1609L24.1956 42.3351L25.2716 41.8704L25.7167 42.7284L22.2686 44.2166ZM23.3544 42.3754C23.2076 42.0938 22.9533 42.0313 22.5865 42.1877C22.2197 42.3441 22.1121 42.5675 22.2588 42.8491C22.2979 42.9206 22.3566 43.001 22.4398 43.0904L23.4913 42.6346L23.3544 42.3754Z" fill="white"/>
<path d="M21.9017 40.9896C21.711 40.869 21.5398 40.7304 21.3833 40.574C21.2317 40.4176 21.1094 40.2523 21.0165 40.0735C20.8942 39.8322 20.8355 39.6043 20.8453 39.3808C20.8551 39.1618 20.9333 38.9607 21.0752 38.782C21.217 38.6032 21.4175 38.4602 21.6719 38.3485L21.9017 38.2502C22.3077 38.0759 22.6745 38.0401 22.9973 38.1519C23.3201 38.2636 23.5793 38.5049 23.775 38.8803C23.7994 38.925 23.8337 39.001 23.8826 39.1082L24.7825 38.7194L25.3107 39.5149L21.9017 40.9896ZM22.8506 38.9965C22.7674 38.9652 22.6745 38.9741 22.5669 39.0188L21.9115 39.3049C21.8039 39.3495 21.7403 39.4121 21.711 39.4925C21.6865 39.5685 21.6963 39.6624 21.7501 39.7652C21.799 39.859 21.8528 39.926 21.9115 39.9663L23.1245 39.4434C23.1245 39.3719 23.1049 39.2914 23.056 39.2021C23.0022 39.0903 22.9337 39.0233 22.8506 38.9965Z" fill="white"/>
<path d="M118.117 80.1469C116.268 89.3485 112.258 109.495 112.018 110.558C111.861 110.545 111.71 110.527 111.553 110.509L111.578 110.317C111.27 109.401 110.438 108.695 110.057 107.801L110.061 107.729C110.115 107.734 110.169 107.738 110.223 107.743C111.671 102.885 112.928 97.4105 114.023 91.9673C114.586 89.1608 115.109 86.3677 115.583 83.664C115.901 82.1713 116.156 80.6876 116.351 79.2174C116.351 79.2174 116.351 79.2174 116.351 79.2129C116.894 79.5168 117.432 79.8207 117.97 80.1201L118.117 80.1469Z" fill="#92C1F8"/>
<path d="M116.361 79.1534C116.361 79.149 116.361 79.1445 116.366 79.14C116.708 77.5804 117.105 75.9269 117.447 74.3672H117.457C117.975 74.7783 118.498 75.1939 119.017 75.6096L119.022 75.6766C118.958 75.9671 118.616 77.6563 118.112 80.15L117.97 80.1277C117.427 79.8238 116.889 79.5199 116.351 79.2205C116.351 79.2115 116.356 79.1981 116.356 79.1892C116.361 79.1713 116.361 79.1624 116.361 79.1534Z" fill="#3783DC"/>
<path d="M111.578 110.321L111.553 110.513C97.8976 109.079 82.5547 106.657 69.2561 103.644L68.8159 103.314C68.0529 102.724 66.928 101.714 66.2579 101.039C80.4222 104.024 95.5842 106.509 110.066 107.734L110.061 107.805C110.438 108.699 111.27 109.4 111.578 110.321Z" fill="#92C1F8"/>
<path d="M115.583 83.668C115.109 86.3672 114.586 89.1648 114.023 91.9713C112.928 97.4145 111.671 102.889 110.223 107.747C110.169 107.742 110.115 107.738 110.061 107.733C95.5793 106.509 80.4222 104.024 66.2531 101.039C66.3655 100.02 66.478 98.9965 66.5856 97.982L66.6199 97.8792C72.5428 99.4612 78.5685 100.677 84.648 101.7C91.9893 102.934 99.4089 103.872 106.809 104.806C110.976 98.5451 114.018 91.0417 115.583 83.668Z" fill="#C9E0FC"/>
<path d="M116.366 79.1365C116.366 79.141 116.366 79.1454 116.361 79.1499H116.351L72.4841 71.8655L73.3009 67.0703C79.8988 67.9194 86.4919 68.764 93.0898 69.6131C101.126 70.6455 109.631 72.3437 117.452 74.3368C117.452 74.3458 117.447 74.3547 117.447 74.3636C117.104 75.9278 116.708 77.5768 116.366 79.1365Z" fill="#3A8FF3"/>
<path d="M116.351 79.2131C116.107 80.6565 115.852 82.1492 115.583 83.6641C114.013 91.0424 110.971 98.5413 106.809 104.802C99.4139 103.868 91.9942 102.925 84.648 101.696C78.5685 100.677 72.538 99.4574 66.6199 97.8754C64.9325 97.424 63.2549 96.9414 61.5871 96.4319L60.9806 96.271C64.3651 93.5182 68.3757 87.9409 69.8039 84.0172C71.237 80.089 71.8581 75.9597 72.3276 71.8438L116.351 79.1505H116.361C116.361 79.1594 116.356 79.1728 116.356 79.1818C116.356 79.1862 116.356 79.1907 116.351 79.1952C116.356 79.2041 116.356 79.2086 116.351 79.2131Z" fill="white"/>
<path d="M80.7157 92.1041C79.9283 90.9824 79.7033 89.4719 80.0359 87.5681L80.4076 85.4409C80.7402 83.5371 81.4689 82.1696 82.5987 81.3339C83.7286 80.4982 85.2252 80.2167 87.1033 80.4938C88.9668 80.7664 90.2874 81.4591 91.0748 82.5763C91.8623 83.6891 92.0872 85.1996 91.7547 87.1034L91.3829 89.2306C91.0503 91.1343 90.3167 92.5063 89.1918 93.3465C88.062 94.1866 86.5653 94.4727 84.7068 94.2C82.8335 93.923 81.5032 93.2258 80.7157 92.1041ZM87.3723 89.5523L88.0571 85.6509C88.3163 84.1628 87.8468 83.3316 86.6436 83.1528C86.0469 83.0679 85.5627 83.1885 85.1861 83.5192C84.8095 83.8544 84.5551 84.3862 84.428 85.1191L83.7432 89.0205C83.4791 90.5221 83.9584 91.3623 85.1714 91.5366C86.3746 91.7153 87.1082 91.0539 87.3723 89.5523Z" fill="#3576C4"/>
<path d="M95.7163 84.8461L93.7012 84.5512L94.5865 81.7715L100.094 82.5759L97.7558 95.9247L93.8773 95.3571L95.7163 84.8461Z" fill="#3576C4"/>
<path d="M56.0652 23.1038L57.5716 24.0065C57.6303 24.0423 57.6792 24.0915 57.7037 24.1496L58.4373 25.6556C58.5547 25.8969 58.9215 25.9237 59.0829 25.7047L60.0709 24.3283C60.11 24.2747 60.1638 24.23 60.2274 24.2076L61.8757 23.5373C62.1398 23.43 62.1691 23.0949 61.9295 22.9474L60.4231 22.0447C60.3644 22.0089 60.3155 21.9598 60.291 21.9017L59.5574 20.3956C59.44 20.1543 59.0731 20.1275 58.9117 20.3465L57.9238 21.7229C57.8846 21.7765 57.8308 21.8212 57.7673 21.8436L56.119 22.5139C55.85 22.6256 55.8206 22.9563 56.0652 23.1038Z" fill="#FFC100"/>
<path d="M102.422 59.3128L103.928 60.2155C103.987 60.2513 104.036 60.3004 104.06 60.3585L104.794 61.8646C104.911 62.1059 105.278 62.1327 105.44 61.9137L106.428 60.5373C106.467 60.4837 106.52 60.439 106.584 60.4166L108.232 59.7463C108.496 59.639 108.526 59.3039 108.286 59.1564L106.78 58.2537C106.721 58.2179 106.672 58.1687 106.648 58.1107L105.914 56.6046C105.797 56.3633 105.43 56.3365 105.268 56.5555L104.28 57.9319C104.241 57.9855 104.187 58.0302 104.124 58.0526L102.476 58.7229C102.207 58.8302 102.177 59.1653 102.422 59.3128Z" fill="#FFC100"/>
<path d="M12.8485 48.1077L14.355 49.0104C14.4137 49.0462 14.4626 49.0954 14.487 49.1535L15.2207 50.6595C15.338 50.9008 15.7049 50.9276 15.8663 50.7086L16.8542 49.3322C16.8934 49.2786 16.9472 49.2339 17.0108 49.2116L18.659 48.5412C18.9231 48.434 18.9525 48.0988 18.7128 47.9513L17.2064 47.0486C17.1477 47.0128 17.0988 46.9637 17.0743 46.9056L16.3407 45.3995C16.2233 45.1582 15.8565 45.1314 15.6951 45.3504L14.7071 46.7268C14.668 46.7804 14.6142 46.8251 14.5506 46.8475L12.9023 47.5178C12.6382 47.6251 12.6089 47.9602 12.8485 48.1077Z" fill="#FFC100"/>
<path d="M100.108 63.6415L100.808 64.0616C100.837 64.0794 100.857 64.1018 100.871 64.1286L101.214 64.8258C101.268 64.9375 101.439 64.9509 101.512 64.8481L101.972 64.209C101.991 64.1822 102.016 64.1643 102.045 64.1509L102.808 63.8381C102.93 63.789 102.945 63.6325 102.833 63.5655L102.133 63.1454C102.104 63.1276 102.084 63.1052 102.07 63.0784L101.727 62.3812C101.673 62.2695 101.502 62.2561 101.429 62.3589L100.969 62.998C100.95 63.0248 100.925 63.0426 100.896 63.0561L100.133 63.3689C100.006 63.418 99.991 63.5744 100.108 63.6415Z" fill="#FFC100"/>
<path d="M56.2266 98.2101L56.9554 98.6481C56.9847 98.666 57.0043 98.6883 57.0189 98.7196L57.376 99.448C57.4347 99.5642 57.6108 99.5776 57.689 99.4704L58.1683 98.8045C58.1879 98.7777 58.2123 98.7598 58.2466 98.7464L59.0438 98.4202C59.171 98.3666 59.1856 98.2057 59.0683 98.1342L58.3395 97.6962C58.3102 97.6783 58.2906 97.656 58.2759 97.6247L57.9189 96.8963C57.8602 96.7801 57.6841 96.7667 57.6059 96.8739L57.1266 97.5398C57.107 97.5666 57.0825 97.5845 57.0483 97.5979L56.2511 97.9241C56.1239 97.9778 56.1092 98.1386 56.2266 98.2101Z" fill="#FFC100"/>
</g>
<defs>
<clipPath id="clip0">
<rect width="120" height="110.557" fill="white"/>
</clipPath>
</defs>
</svg>
