<svg width="1266" height="594" viewBox="0 0 1266 594" fill="none" xmlns="http://www.w3.org/2000/svg">
<mask id="mask0" mask-type="alpha" maskUnits="userSpaceOnUse" x="0" y="0" width="1266" height="594">
<rect width="1266" height="594" fill="url(#paint0_linear)"/>
</mask>
<g mask="url(#mask0)">
<path fill-rule="evenodd" clip-rule="evenodd" d="M642.8 -411.453C717.17 -348.104 727.798 -299.355 698.488 -251.572L608.762 -105.293L414.06 -272.432L503.931 -418.945C529.362 -460.404 569.545 -473.473 642.8 -411.453ZM366.361 -562.806L149.767 -209.7L910.482 441.152L975.963 499.853L1006.41 422.948L1330.54 749.584L983.594 -0.288643L915.045 156.563L735.817 3.26675C742.726 -0.393122 825.565 -98.9959 856.369 -143.446C923.751 -239.924 1025.46 -382.399 782.866 -587.619C574.626 -764.675 434.465 -673.832 366.361 -562.806Z" fill="url(#paint1_linear)"/>
</g>
<defs>
<linearGradient id="paint0_linear" x1="-259.613" y1="623.5" x2="624.445" y2="-482.877" gradientUnits="userSpaceOnUse">
<stop offset="0.454702" stop-color="#2A83EF"/>
<stop offset="0.601357" stop-color="#3F95FF"/>
<stop offset="0.964361" stop-color="#3B8EF3"/>
</linearGradient>
<linearGradient id="paint1_linear" x1="1368.92" y1="146.234" x2="611.765" y2="-491.822" gradientUnits="userSpaceOnUse">
<stop stop-color="#2A83EF"/>
<stop offset="0.581638" stop-color="#3F95FF"/>
<stop offset="1" stop-color="#66ABFF"/>
</linearGradient>
</defs>
</svg>
