<svg width="1440" height="2297" viewBox="0 0 1440 2297" fill="none" xmlns="http://www.w3.org/2000/svg">
<g opacity="0.12">
<mask id="mask0" mask-type="alpha" maskUnits="userSpaceOnUse" x="0" y="0" width="1440" height="2297">
<rect width="1440" height="2297" fill="white"/>
</mask>
<g mask="url(#mask0)">
<g opacity="0.64">
<path d="M139.697 2300C45.7194 2298.44 28.1887 2165.14 118.687 2139.74C134.142 2135.4 151.768 2133.25 171.817 2133.98C327.632 2139.7 427.319 2113.35 478.873 2150.01C526.044 2183.55 554.032 2287.1 558.453 2304.5C558.78 2305.75 557.799 2306.96 556.512 2306.94L139.697 2300Z" fill="#94C2F8"/>
<path d="M180.507 2300.69C193.77 2289.91 228.927 2262.82 259.683 2252.35C298.473 2239.12 314.332 2210.92 335.495 2180.05C345.606 2165.31 353.295 2146.36 358.562 2130.57C308.7 2132.07 246.766 2136.74 171.818 2133.98C151.75 2133.25 134.143 2135.4 118.688 2139.74C28.1897 2165.14 45.7396 2298.44 139.698 2300L180.507 2300.69Z" fill="#2F75C7"/>
<path d="M51.5436 2222.59C30.8028 2202.91 11.4075 2178.05 -2.95145 2153.33C-10.9287 2139.59 -18.0025 2124.29 -16.5416 2108.47C-16.0995 2103.68 -14.2926 2098.28 -9.79456 2096.59C-5.62334 2095.01 -0.971563 2097.4 2.3731 2100.36C8.27433 2105.6 12.1188 2112.74 15.5211 2119.85C29.957 2149.89 43.1627 2190.35 51.5436 2222.59Z" fill="#2F75C7"/>
<path d="M2.56533 2132.05C10.6579 2140.51 17.0204 2150.39 22.5372 2160.68C25.1322 2165.5 27.5542 2170.42 30.0723 2175.28C32.6866 2180.38 35.2816 2185.47 37.6459 2190.68C40.2793 2196.45 42.6437 2202.37 44.2391 2208.52C44.5082 2209.52 46.0652 2209.1 45.7961 2208.1C42.9128 2197.01 37.6843 2186.61 32.4751 2176.46C27.2274 2166.21 22.2104 2155.81 15.8287 2146.22C12.2149 2140.78 8.19744 2135.61 3.68022 2130.88C2.98822 2130.15 1.83489 2131.3 2.56533 2132.05Z" fill="white"/>
<path d="M45.9884 2210.65C28.0925 2176.71 16.9051 2139.24 13.2529 2101.03C11.7536 2085.36 11.965 2068.08 21.826 2055.82C25.4206 2051.34 30.3991 2047.71 36.0889 2047.03C45.2195 2045.96 53.658 2052.78 58.0791 2060.84C64.2302 2071.98 64.7492 2085.29 64.73 2098.03C64.6531 2139.86 60.232 2181.69 51.5436 2222.59" fill="#2F75C7"/>
<path d="M51.5436 2222.59C50.1211 2185.03 53.3889 2138.11 66.8637 2103.03C69.2088 2096.93 71.8615 2090.76 76.3787 2086.06C80.1078 2082.17 85.49 2079.37 90.7761 2080.42C95.3894 2081.35 99.0609 2085.07 101.098 2089.32C105.827 2099.22 102.867 2110.95 99.33 2121.35C88.2003 2154.01 71.8422 2194.68 51.5436 2222.59Z" fill="#2F75C7"/>
<path d="M50.6209 2209.62C48.2757 2193.55 45.9691 2177.46 44.1045 2161.31C42.2592 2145.36 40.7791 2129.34 40.2216 2113.29C39.8949 2104.26 39.9717 2095.2 41.0097 2086.21C41.1251 2085.17 39.5104 2085.19 39.3951 2086.21C37.5497 2102.24 38.5877 2118.54 39.8564 2134.59C41.1251 2150.7 43.0473 2166.73 45.2002 2182.74C46.4304 2191.85 47.7375 2200.95 49.0639 2210.04C49.1984 2211.06 50.7554 2210.63 50.6209 2209.62Z" fill="white"/>
<path d="M85.3362 2105.39C78.9352 2118.43 72.4573 2131.52 67.844 2145.32C63.5767 2158.08 60.6549 2171.29 58.3482 2184.55C57.0988 2191.78 56.0415 2199.06 55.1765 2206.35C55.0612 2207.39 56.6759 2207.37 56.7912 2206.35C58.3674 2193.2 60.5011 2180.09 63.4613 2167.17C66.4792 2154.01 70.5735 2141.24 75.9942 2128.86C79.3389 2121.21 83.0295 2113.72 86.701 2106.22C87.2008 2105.28 85.7975 2104.45 85.3362 2105.39Z" fill="white"/>
<path opacity="0.7" d="M547.074 1931.45H429.242C416.555 1931.45 406.175 1921.07 406.175 1908.38V1801.14C406.175 1788.46 416.555 1778.08 429.242 1778.08H547.074C559.761 1778.08 570.141 1788.46 570.141 1801.14V1908.4C570.141 1921.07 559.761 1931.45 547.074 1931.45Z" fill="#C9E0FC"/>
<path opacity="0.7" d="M372.516 1973.76H254.684C241.997 1973.76 231.617 1963.38 231.617 1950.69V1843.43C231.617 1830.75 241.997 1820.37 254.684 1820.37H372.516C385.203 1820.37 395.583 1830.75 395.583 1843.43V1950.69C395.583 1963.38 385.203 1973.76 372.516 1973.76Z" fill="#C9E0FC"/>
<path opacity="0.7" d="M512.686 2141.7H394.854C382.167 2141.7 371.787 2131.32 371.787 2118.64V2011.38C371.787 1998.69 382.167 1988.31 394.854 1988.31H512.686C525.373 1988.31 535.753 1998.69 535.753 2011.38V2118.64C535.753 2131.32 525.373 2141.7 512.686 2141.7Z" fill="#C9E0FC"/>
<path opacity="0.3" d="M300.223 1904.35C300.223 1893.24 309.334 1875.23 316.927 1861.58C314.101 1856.5 311.487 1852.02 309.642 1848.74H304.163C297.339 1860.85 280.193 1889.12 280.193 1904.37C280.193 1919.15 292.149 1931.12 306.912 1931.12C310.449 1931.12 313.832 1930.41 316.927 1929.16C307.143 1925.17 300.223 1915.57 300.223 1904.35Z" fill="#3B8EF3"/>
<path d="M306.893 1859.33C313.947 1871.73 325.981 1893.51 325.981 1904.35C325.981 1914.88 317.427 1923.47 306.893 1923.47C296.359 1923.47 287.805 1914.9 287.805 1904.35C287.824 1893.51 299.838 1871.73 306.893 1859.33ZM306.893 1847.12C305.816 1847.12 304.759 1847.66 304.144 1848.74C297.32 1860.85 280.174 1889.12 280.174 1904.37C280.174 1919.15 292.13 1931.12 306.893 1931.12C321.656 1931.12 333.612 1919.15 333.612 1904.37C333.612 1889.12 316.446 1860.85 309.642 1848.74C309.046 1847.66 307.969 1847.12 306.893 1847.12Z" fill="#3B8EF3"/>
<path d="M306.893 1919.01C301.069 1919.01 296.109 1916.8 293.303 1912.94C290.592 1909.25 290.035 1904.31 291.727 1899.02C292.034 1898.02 293.13 1897.47 294.129 1897.77C295.129 1898.1 295.686 1899.18 295.379 1900.18C294.052 1904.33 294.418 1907.96 296.398 1910.69C298.493 1913.55 302.318 1915.19 306.912 1915.19C307.969 1915.19 308.815 1916.03 308.815 1917.09C308.815 1918.15 307.95 1919.01 306.893 1919.01Z" fill="#3B8EF3"/>
<path d="M120.917 2297.31C103.136 2294.83 57.4257 2272.8 39.0685 2250.6L162.975 2094.76L256.875 2171.29L148.923 2299.92C148.904 2299.94 138.697 2299.79 120.917 2297.31Z" fill="#94C2F8"/>
<path d="M114.285 2129.52L209.646 2231.76C215.836 2238.41 226.389 2238.33 232.502 2231.62L448.29 1994.4C454.518 1987.56 453.423 1976.83 445.945 1971.39L328.209 1885.64C323.48 1882.2 316.887 1882.91 313.024 1887.3L114.054 2112.49C109.729 2117.39 109.825 2124.75 114.285 2129.52Z" fill="#204E85"/>
<path d="M313.024 1887.3C316.906 1882.91 323.48 1882.18 328.209 1885.64L438.045 1965.65C442.524 1971.43 442.447 1979.85 437.238 1985.58L221.468 2222.8C217.258 2227.43 210.934 2228.9 205.379 2227.18L114.285 2129.54C109.825 2124.77 109.729 2117.39 114.054 2112.5L313.024 1887.3Z" fill="#2F75C7"/>
<path d="M423.263 1986.81L225.274 2208.52L126.011 2104.84L308.007 1902.44L423.263 1986.81Z" fill="#94C2F8"/>
<path d="M235.25 1983.35L235.77 1983.1L235.25 1983.37V1983.35Z" fill="#2F75C7"/>
<path d="M343.337 2076.33L225.293 2208.52L126.03 2104.84L233.751 1985.04C231.233 1992.64 216.913 2038.29 218.412 2091.88C220.065 2150.62 254.396 2169.23 263.488 2154.76C272.58 2140.28 261.412 2112.16 277.962 2103.87C294.513 2095.61 318.079 2090.23 328.017 2082.36C331.285 2079.77 337.071 2077.81 343.337 2076.33Z" fill="#2F75C7"/>
<path d="M208.57 2029.08C209.397 2029.08 210.185 2029.39 210.8 2029.96L299.049 2113.06C299.683 2113.66 300.049 2114.47 300.068 2115.35C300.087 2116.23 299.76 2117.06 299.164 2117.68L290.265 2126.92C289.649 2127.56 288.823 2127.92 287.919 2127.92C287.074 2127.92 286.285 2127.59 285.67 2127.02L197.729 2043.27C197.094 2042.65 196.729 2041.84 196.729 2040.96C196.71 2040.08 197.056 2039.25 197.69 2038.61L206.283 2030.02C206.878 2029.41 207.705 2029.08 208.57 2029.08ZM208.57 2027.27C207.282 2027.27 205.975 2027.77 204.995 2028.75L196.402 2037.35C194.403 2039.35 194.442 2042.61 196.498 2044.57L284.44 2128.32C285.42 2129.25 286.67 2129.73 287.919 2129.73C289.246 2129.73 290.572 2129.21 291.572 2128.17L300.472 2118.93C302.413 2116.91 302.336 2113.68 300.298 2111.74L212.049 2028.64C211.05 2027.73 209.819 2027.27 208.57 2027.27Z" fill="white"/>
<path d="M185.407 2054.17C186.234 2054.17 187.022 2054.47 187.637 2055.05L275.886 2138.15C276.521 2138.74 276.886 2139.55 276.905 2140.43C276.924 2141.32 276.597 2142.15 276.002 2142.76L267.102 2152.01C266.487 2152.64 265.66 2153.01 264.757 2153.01C263.911 2153.01 263.123 2152.68 262.508 2152.1L174.566 2068.35C173.932 2067.74 173.566 2066.93 173.566 2066.04C173.547 2065.16 173.893 2064.33 174.528 2063.7L183.12 2055.11C183.716 2054.51 184.542 2054.17 185.407 2054.17ZM185.407 2052.36C184.119 2052.36 182.812 2052.86 181.832 2053.84L173.24 2062.43C171.241 2064.43 171.279 2067.7 173.336 2069.66L261.277 2153.41C262.258 2154.33 263.507 2154.81 264.757 2154.81C266.083 2154.81 267.409 2154.29 268.409 2153.26L277.309 2144.01C279.25 2141.99 279.173 2138.76 277.136 2136.82L188.887 2053.72C187.887 2052.82 186.657 2052.36 185.407 2052.36Z" fill="white"/>
<path d="M165.262 2077.6C166.224 2077.6 167.108 2077.96 167.8 2078.64L254.3 2162.73C255.741 2164.14 255.78 2166.44 254.377 2167.88L242.766 2179.82C242.074 2180.53 241.152 2180.92 240.152 2180.92C239.153 2180.92 238.23 2180.53 237.538 2179.82L153.325 2093.32C151.941 2091.9 151.941 2089.67 153.325 2088.25L162.648 2078.69C163.359 2077.98 164.282 2077.6 165.262 2077.6ZM165.262 2075.79C163.84 2075.79 162.437 2076.35 161.36 2077.42L152.038 2086.98C149.981 2089.09 149.981 2092.46 152.038 2094.57L236.25 2181.07C237.326 2182.17 238.73 2182.72 240.152 2182.72C241.575 2182.72 242.978 2182.17 244.054 2181.07L255.665 2169.13C257.76 2166.98 257.721 2163.52 255.549 2161.43L169.049 2077.33C168.011 2076.31 166.646 2075.79 165.262 2075.79Z" fill="white"/>
<path d="M347.431 2115.47C361.079 2107.6 362.732 2088.17 362.732 2088.17C362.732 2088.17 279.596 2085.69 268.428 2086.09C257.26 2086.5 233.674 2094.78 247.745 2105.95C261.816 2117.12 306.065 2120.02 319.309 2122.08C332.553 2124.13 347.431 2115.47 347.431 2115.47Z" fill="#DBEBFD"/>
<path d="M329.17 2125.52C329.17 2125.52 251.416 2122.21 238.595 2129.65C225.774 2137.09 222.045 2151.99 240.248 2155.29C258.452 2158.6 303.124 2164.39 315.523 2156.95C327.921 2149.51 334.13 2132.55 329.17 2125.52Z" fill="#DBEBFD"/>
<path d="M294.705 2163.02C294.705 2163.02 239.691 2163.85 229.349 2175.44C219.008 2187.03 216.932 2195.29 223.14 2197.35C229.349 2199.41 277.732 2201.08 291.802 2188.66C305.873 2176.26 295.935 2162.19 294.705 2163.02Z" fill="#DBEBFD"/>
<path d="M192.75 2049.69C166.281 2044.73 153.037 2042.25 153.037 2042.25C153.037 2042.25 181.159 2065.41 172.067 2105.12C162.975 2144.84 145.598 2163.87 145.598 2163.87C145.598 2163.87 89.3539 2208.54 74.4566 2236.66C68.5938 2247.73 63.7691 2259.94 60.0592 2270.7C34.1668 2251.19 16.4824 2221.96 11.7729 2189.09L50.4673 2160.58C50.4673 2160.58 100.099 2020.78 115.823 1996.79C131.547 1972.8 166.281 1981.06 199.382 1993.48C232.463 2005.9 246.534 2012.51 243.228 2029.06C239.902 2045.55 219.219 2054.65 192.75 2049.69Z" fill="#94C2F8"/>
<path d="M323.519 1925.57L397.198 1980.64C400.6 1983.18 405.367 1982.77 408.289 1979.68L412.153 1975.57L324.999 1910.42L322.423 1913.15C319.002 1916.78 319.521 1922.59 323.519 1925.57Z" fill="#2F75C7"/>
<path d="M342.568 1921.8L399.947 1963.4C400.812 1964.03 402.023 1963.84 402.638 1962.98C403.272 1962.11 403.08 1960.9 402.215 1960.28L344.836 1918.69C343.971 1918.05 342.76 1918.25 342.145 1919.11C341.511 1919.98 341.703 1921.19 342.568 1921.8Z" fill="#204E85"/>
<path d="M364.116 2086.5C364.116 2086.5 385.626 2083.19 400.523 2069.12C415.42 2055.05 382.32 2048.44 371.575 2045.96C360.829 2043.48 319.463 2034.37 312.005 2041C304.547 2047.63 321.924 2069.12 335.994 2075.75C350.065 2082.38 364.116 2086.5 364.116 2086.5Z" fill="#DBEBFD"/>
<path d="M316.772 2057.86C337.013 2049.17 369.921 2068.76 385.491 2079.4C374.304 2084.96 364.135 2086.52 364.135 2086.52C364.135 2086.52 350.065 2082.38 336.013 2075.77C328.94 2072.45 321.039 2065.35 315.868 2058.3C316.157 2058.13 316.445 2057.99 316.772 2057.86Z" fill="#94C2F8"/>
<path d="M243.439 2099.43C266.564 2095.22 325.134 2110.43 346.047 2116.2C342.068 2118.25 330.131 2123.75 319.309 2122.06C306.065 2119.98 261.816 2117.1 247.745 2105.93C244.842 2103.64 243.574 2101.45 243.439 2099.43Z" fill="#94C2F8"/>
<path d="M323.865 2149.53C321.558 2152.41 318.752 2155.02 315.523 2156.97C303.105 2164.4 258.433 2158.62 240.248 2155.31C230.234 2153.49 226.87 2148.16 227.984 2142.51C246.265 2136.69 300.914 2145.43 323.865 2149.53Z" fill="#94C2F8"/>
<path d="M220.315 2195.18C239.941 2192.49 281.788 2182.32 298.722 2178.11C297.838 2181.51 295.781 2185.16 291.802 2188.66C277.732 2201.08 229.349 2199.41 223.141 2197.35C221.814 2196.91 220.892 2196.16 220.315 2195.18Z" fill="#94C2F8"/>
<path d="M199.766 2014.95C168.338 2001.3 133.584 1983.93 112.901 2041.02C92.2179 2098.09 81.0498 2161.39 99.2533 2176.26C117.457 2191.16 141.446 2196.95 141.446 2196.95C141.446 2196.95 154.402 2260.44 121.32 2297.19L111.94 2295.12C57.8486 2285.85 19.2696 2241.49 11.7537 2189.07L50.4481 2160.56C50.4481 2160.56 100.08 2020.76 115.804 1996.77C131.527 1972.78 166.262 1981.04 199.363 1993.46C232.444 2005.88 246.515 2012.49 243.208 2029.04C242.44 2032.85 240.748 2036.23 238.288 2039.17C231.445 2034.14 216.874 2023.76 205.764 2018.2C204.053 2017.03 202.073 2015.95 199.766 2014.95Z" fill="#DBEBFD"/>
<path d="M117.304 1944.54C145.713 1944.54 168.742 1921.51 168.742 1893.1C168.742 1864.69 145.713 1841.66 117.304 1841.66C88.8949 1841.66 65.8651 1864.69 65.8651 1893.1C65.8651 1921.51 88.8949 1944.54 117.304 1944.54Z" fill="#2F75C7"/>
<path d="M117.304 1939.1C142.708 1939.1 163.302 1918.51 163.302 1893.1C163.302 1867.7 142.708 1847.1 117.304 1847.1C91.8993 1847.1 71.3049 1867.7 71.3049 1893.1C71.3049 1918.51 91.8993 1939.1 117.304 1939.1Z" fill="#2F75C7"/>
<path d="M78.5139 2067.97C106.923 2067.97 129.953 2044.94 129.953 2016.53C129.953 1988.12 106.923 1965.09 78.5139 1965.09C50.1051 1965.09 27.0752 1988.12 27.0752 2016.53C27.0752 2044.94 50.1051 2067.97 78.5139 2067.97Z" fill="#94C2F8"/>
<path d="M78.5139 2062.53C103.918 2062.53 124.513 2041.93 124.513 2016.53C124.513 1991.12 103.918 1970.53 78.5139 1970.53C53.1094 1970.53 32.5151 1991.12 32.5151 2016.53C32.5151 2041.93 53.1094 2062.53 78.5139 2062.53Z" fill="#2F75C7"/>
<path d="M187.388 1997.4C198.493 1997.4 207.495 1988.4 207.495 1977.3C207.495 1966.19 198.493 1957.19 187.388 1957.19C176.284 1957.19 167.282 1966.19 167.282 1977.3C167.282 1988.4 176.284 1997.4 187.388 1997.4Z" fill="#2F75C7"/>
<path d="M447.926 2075.71C447.58 2075.37 447.368 2074.91 447.368 2074.39C447.368 2073.35 448.214 2072.5 449.252 2072.5H460.651L453.231 2065.08C452.693 2064.55 452.539 2063.74 452.827 2063.05C453.116 2062.35 453.808 2061.89 454.557 2061.89H470.492C471.53 2061.89 472.376 2062.74 472.376 2063.78C472.376 2064.81 471.53 2065.66 470.492 2065.66H459.094L466.514 2073.08C467.052 2073.62 467.206 2074.43 466.917 2075.12C466.629 2075.81 465.937 2076.27 465.187 2076.27H449.252C448.733 2076.25 448.272 2076.04 447.926 2075.71Z" fill="#3B8EF3"/>
<path d="M493.079 2049.15C491.618 2047.69 489.234 2047.69 487.773 2049.15L479.796 2057.13L471.819 2049.15L479.796 2041.17C481.257 2039.71 481.257 2037.33 479.796 2035.87C478.335 2034.41 475.952 2034.41 474.491 2035.87L466.514 2043.84L463.861 2041.19C459.478 2036.81 452.308 2036.81 447.926 2041.19L431.99 2057.13C427.608 2061.51 427.608 2068.68 431.99 2073.06L441.294 2082.36L433.067 2090.59L423.994 2087.57C422.648 2087.11 421.149 2087.48 420.15 2088.48L416.401 2092.23C415.402 2093.23 415.036 2094.72 415.498 2096.07L418.516 2105.14L412.653 2111.02C411.192 2112.49 411.192 2114.87 412.653 2116.33C413.383 2117.06 414.344 2117.43 415.306 2117.43C416.267 2117.43 417.228 2117.06 417.958 2116.33L425.474 2108.81C426.474 2107.81 426.839 2106.32 426.378 2104.97L423.36 2095.9L423.84 2095.42L432.913 2098.43C434.259 2098.9 435.758 2098.53 436.758 2097.53L446.619 2087.67L455.922 2096.97C460.305 2101.36 467.475 2101.36 471.857 2096.97L487.792 2081.04C492.175 2076.66 492.175 2069.49 487.792 2065.1L485.14 2062.45L493.117 2054.47C494.559 2052.99 494.559 2050.61 493.079 2049.15ZM482.468 2075.71L466.533 2091.65C465.091 2093.09 462.669 2093.09 461.227 2091.65L437.315 2067.74C435.873 2066.29 435.873 2063.87 437.315 2062.43L453.25 2046.5C454.692 2045.05 457.114 2045.05 458.555 2046.5L482.468 2070.41C483.91 2071.83 483.91 2074.27 482.468 2075.71Z" fill="#3B8EF3"/>
<path opacity="0.3" d="M452.846 2063.03C453.135 2062.34 453.827 2061.87 454.576 2061.87H455.538L464.687 2052.61L458.575 2046.5C457.133 2045.05 454.711 2045.05 453.269 2046.5L437.334 2062.43C435.892 2063.87 435.892 2066.29 437.334 2067.74L443.601 2074L452.962 2064.51C452.731 2064.03 452.635 2063.53 452.846 2063.03Z" fill="#3B8EF3"/>
<path d="M493.771 1887.72V1891.74H453.52V1835.4H493.771V1839.41H501.825V1831.36C501.825 1824.73 496.386 1819.29 489.754 1819.29H457.557C450.925 1819.29 445.485 1824.73 445.485 1831.36V1895.76C445.485 1902.39 450.925 1907.83 457.557 1907.83H489.754C496.386 1907.83 501.825 1902.39 501.825 1895.76V1887.7H493.771V1887.72ZM457.537 1827.36H489.735C491.907 1827.36 493.752 1829.21 493.752 1831.38H453.501C453.52 1829.19 455.365 1827.36 457.537 1827.36ZM489.735 1899.79H457.537C455.365 1899.79 453.52 1897.95 453.52 1895.77H493.771C493.771 1897.97 491.926 1899.79 489.735 1899.79Z" fill="#3B8EF3"/>
<path d="M493.771 1887.72V1891.74H453.52V1835.4H493.771V1839.41H501.825V1831.36C501.825 1824.73 496.386 1819.29 489.754 1819.29H457.557C450.925 1819.29 445.485 1824.73 445.485 1831.36V1895.76C445.485 1902.39 450.925 1907.83 457.557 1907.83H489.754C496.386 1907.83 501.825 1902.39 501.825 1895.76V1887.7H493.771V1887.72ZM457.537 1827.36H489.735C491.907 1827.36 493.752 1829.21 493.752 1831.38H453.501C453.52 1829.19 455.365 1827.36 457.537 1827.36ZM489.735 1899.79H457.537C455.365 1899.79 453.52 1897.95 453.52 1895.77H493.771C493.771 1897.97 491.926 1899.79 489.735 1899.79Z" fill="#3B8EF3"/>
<path d="M525.969 1843.45C528.179 1843.45 529.986 1845.26 529.986 1847.47V1879.67C529.986 1881.88 528.179 1883.68 525.969 1883.68H477.663C475.453 1883.68 473.646 1881.88 473.646 1879.67V1847.49C473.646 1845.28 475.453 1843.47 477.663 1843.47H525.969V1843.45ZM525.969 1839.43H477.663C473.242 1839.43 469.609 1843.05 469.609 1847.49V1879.69C469.609 1884.11 473.223 1887.74 477.663 1887.74H525.969C530.39 1887.74 534.023 1884.13 534.023 1879.69V1847.49C534.003 1843.05 530.39 1839.43 525.969 1839.43Z" fill="#3B8EF3"/>
<path d="M487.716 1879.69H479.662C478.547 1879.69 477.644 1878.78 477.644 1877.67C477.644 1876.55 478.547 1875.65 479.662 1875.65H487.716C488.831 1875.65 489.735 1876.55 489.735 1877.67C489.735 1878.76 488.831 1879.69 487.716 1879.69Z" fill="#3B8EF3"/>
<path d="M503.825 1879.69H495.77C494.656 1879.69 493.752 1878.78 493.752 1877.67C493.752 1876.55 494.656 1875.65 495.77 1875.65H503.825C504.939 1875.65 505.843 1876.55 505.843 1877.67C505.843 1878.76 504.939 1879.69 503.825 1879.69Z" fill="#3B8EF3"/>
<path d="M523.95 1879.69H511.879C510.764 1879.69 509.86 1878.78 509.86 1877.67C509.86 1876.55 510.764 1875.65 511.879 1875.65H523.95C525.065 1875.65 525.969 1876.55 525.969 1877.67C525.969 1878.76 525.046 1879.69 523.95 1879.69Z" fill="#3B8EF3"/>
<path d="M496.712 1866.31L493.867 1860.94H493.483H489.754V1866.31H485.717V1847.55H493.502C495.847 1847.55 497.654 1848.12 498.923 1849.26C500.211 1850.39 500.845 1851.99 500.845 1854.06C500.845 1855.5 500.557 1856.75 499.98 1857.77C499.404 1858.79 498.577 1859.58 497.481 1860.12L501.287 1866.31H496.712ZM489.754 1857.41H493.483C494.617 1857.41 495.482 1857.14 496.078 1856.58C496.674 1856.04 496.981 1855.23 496.981 1854.18C496.981 1853.14 496.674 1852.35 496.078 1851.83C495.482 1851.31 494.617 1851.04 493.483 1851.04H489.754V1857.41Z" fill="#3B8EF3"/>
<path d="M514.82 1852.68C515.8 1853.29 516.55 1854.16 517.088 1855.29C517.626 1856.43 517.895 1857.71 517.895 1859.18C517.895 1860.62 517.626 1861.89 517.107 1863C516.569 1864.1 515.838 1864.96 514.877 1865.56C513.916 1866.17 512.801 1866.46 511.513 1866.46C510.552 1866.46 509.707 1866.27 508.976 1865.88C508.226 1865.5 507.611 1864.94 507.092 1864.21V1871.5H503.152V1851.89H507.092V1854C507.592 1853.27 508.207 1852.72 508.938 1852.33C509.687 1851.95 510.514 1851.76 511.437 1851.76C512.724 1851.76 513.839 1852.06 514.82 1852.68ZM512.974 1861.92C513.609 1861.17 513.916 1860.21 513.916 1859.04C513.916 1857.89 513.609 1856.93 512.974 1856.2C512.34 1855.45 511.533 1855.08 510.514 1855.08C509.514 1855.08 508.688 1855.45 508.053 1856.2C507.419 1856.95 507.092 1857.89 507.092 1859.04C507.092 1860.23 507.419 1861.19 508.053 1861.94C508.688 1862.67 509.514 1863.04 510.514 1863.04C511.533 1863.04 512.34 1862.65 512.974 1861.92Z" fill="#3B8EF3"/>
<g opacity="0.3">
<path opacity="0.3" d="M453.52 1831.38H465.592V1827.36H457.537C455.365 1827.36 453.52 1829.19 453.52 1831.38Z" fill="#3B8EF3"/>
<path opacity="0.3" d="M465.592 1835.4H453.52V1891.74H465.592V1835.4Z" fill="#3B8EF3"/>
<path opacity="0.3" d="M457.537 1899.79H465.592V1895.77H453.52C453.52 1897.97 455.365 1899.79 457.537 1899.79Z" fill="#3B8EF3"/>
</g>
<path opacity="0.3" d="M479.681 1879.69C478.567 1879.69 477.663 1878.78 477.663 1877.67C477.663 1876.55 478.567 1875.65 479.681 1875.65H481.7V1843.45H477.682C475.472 1843.45 473.665 1845.26 473.665 1847.47V1879.67C473.665 1881.88 475.472 1883.68 477.682 1883.68H481.7V1879.67H479.681V1879.69Z" fill="#3B8EF3"/>
<path d="M486.293 2194.45C485.313 2187.64 482.641 2178.78 474.51 2177.88C467.494 2177.11 462.708 2183.65 461.516 2189.8C459.786 2198.72 462.208 2208.27 463.976 2217C466.149 2227.68 467.648 2237.95 464.726 2248.66C461.189 2261.67 453.327 2276.41 455.461 2290C452.212 2278.78 453.923 2265.82 453.731 2254.35C453.596 2246.04 452.828 2237.72 451.213 2229.55C450.021 2223.53 448.503 2216.79 444.062 2212.23C435.681 2203.62 422.341 2210.08 421.899 2221.48C421.611 2228.61 425.647 2234.78 429.434 2240.47C434.144 2247.54 438.238 2254.85 440.737 2263.01C442.582 2269.01 443.774 2275.18 445.292 2281.26C443.351 2277.32 441.256 2273.36 438.238 2270.22C433.086 2264.88 421.822 2261.27 419.65 2271.07C418.766 2275.09 418.785 2279.51 421.495 2282.85C424.513 2286.56 429.53 2287.56 433.528 2289.85C443.101 2295.33 449.656 2305.98 461.766 2305.86C462.189 2305.86 462.496 2305.71 462.708 2305.46C463.361 2305.03 463.727 2304.09 463.015 2303.36C462.804 2303.15 463.015 2303.36 463.304 2302.52C463.304 2302.5 463.304 2302.54 463.304 2302.52C463.919 2302.09 463.4 2301.27 462.785 2300.5C462.592 2300.27 462.958 2300.75 462.785 2300.5C462.592 2291.23 464.668 2281.93 469.551 2273.82C474.491 2265.63 479.066 2257.59 482.084 2248.44C487.812 2231.16 488.888 2212.4 486.293 2194.45Z" fill="#2F75C7"/>
<path d="M71.285 1851.49H60.905V1841.11C60.905 1838.51 58.7714 1836.38 56.1764 1836.38C53.5814 1836.38 51.4477 1838.51 51.4477 1841.11V1851.49H41.0677C38.4727 1851.49 36.3391 1853.62 36.3391 1856.21C36.3391 1858.81 38.4727 1860.94 41.0677 1860.94H51.4477V1871.32C51.4477 1873.92 53.5814 1876.05 56.1764 1876.05C58.7714 1876.05 60.905 1873.92 60.905 1871.32V1860.94H71.285C73.88 1860.94 76.0137 1858.81 76.0137 1856.21C75.9945 1853.62 73.88 1851.49 71.285 1851.49Z" fill="#2F75C7"/>
<path d="M33.8209 1975.78H23.4217V1965.4C23.4217 1962.8 21.288 1960.67 18.693 1960.67C16.098 1960.67 13.9644 1962.8 13.9644 1965.4V1975.78H3.58438C0.989378 1975.78 -1.14429 1977.91 -1.14429 1980.51C-1.14429 1983.1 0.989378 1985.23 3.58438 1985.23H13.9644V1995.61C13.9644 1998.21 16.098 2000.34 18.693 2000.34C21.288 2000.34 23.4217 1998.21 23.4217 1995.61V1985.23H33.8017C36.3967 1985.23 38.5304 1983.1 38.5304 1980.51C38.5304 1977.91 36.4159 1975.78 33.8209 1975.78Z" fill="#2F75C7"/>
<path d="M167.857 1949.08H160.764V1941.98C160.764 1940.22 159.323 1938.76 157.535 1938.76C155.767 1938.76 154.306 1940.2 154.306 1941.98V1949.08H147.213C145.444 1949.08 143.983 1950.52 143.983 1952.31C143.983 1954.08 145.425 1955.54 147.213 1955.54H154.306V1962.63C154.306 1964.4 155.747 1965.86 157.535 1965.86C159.304 1965.86 160.764 1964.42 160.764 1962.63V1955.54H167.857C169.626 1955.54 171.087 1954.09 171.087 1952.31C171.087 1950.52 169.626 1949.08 167.857 1949.08Z" fill="#2F75C7"/>
</g>
<g opacity="0.64">
<path d="M1311.3 2298C1405.28 2296.44 1422.81 2163.14 1332.31 2137.74C1316.86 2133.4 1299.23 2131.25 1279.18 2131.98C1123.37 2137.7 1023.68 2111.35 972.127 2148.01C924.956 2181.55 896.968 2285.1 892.547 2302.5C892.22 2303.75 893.201 2304.96 894.488 2304.94L1311.3 2298Z" fill="#94C2F8"/>
<path d="M1270.49 2298.69C1257.23 2287.91 1222.07 2260.82 1191.32 2250.35C1152.53 2237.12 1136.67 2208.92 1115.5 2178.05C1105.39 2163.31 1097.7 2144.36 1092.44 2128.57C1142.3 2130.07 1204.23 2134.74 1279.18 2131.98C1299.25 2131.25 1316.86 2133.4 1332.31 2137.74C1422.81 2163.14 1405.26 2296.44 1311.3 2298L1270.49 2298.69Z" fill="#2F75C7"/>
<path d="M1399.46 2220.59C1420.2 2200.91 1439.59 2176.05 1453.95 2151.33C1461.93 2137.59 1469 2122.29 1467.54 2106.47C1467.1 2101.68 1465.29 2096.28 1460.79 2094.59C1456.62 2093.01 1451.97 2095.4 1448.63 2098.36C1442.73 2103.6 1438.88 2110.74 1435.48 2117.85C1421.04 2147.89 1407.84 2188.35 1399.46 2220.59Z" fill="#2F75C7"/>
<path d="M1448.43 2130.05C1440.34 2138.51 1433.98 2148.39 1428.46 2158.68C1425.87 2163.5 1423.45 2168.42 1420.93 2173.28C1418.31 2178.38 1415.72 2183.47 1413.35 2188.68C1410.72 2194.45 1408.36 2200.37 1406.76 2206.52C1406.49 2207.52 1404.93 2207.1 1405.2 2206.1C1408.09 2195.01 1413.32 2184.61 1418.52 2174.46C1423.77 2164.21 1428.79 2153.81 1435.17 2144.22C1438.79 2138.78 1442.8 2133.61 1447.32 2128.88C1448.01 2128.15 1449.17 2129.3 1448.43 2130.05Z" fill="white"/>
<path d="M1405.01 2208.65C1422.91 2174.71 1434.09 2137.24 1437.75 2099.03C1439.25 2083.36 1439.03 2066.08 1429.17 2053.82C1425.58 2049.34 1420.6 2045.71 1414.91 2045.03C1405.78 2043.96 1397.34 2050.78 1392.92 2058.84C1386.77 2069.98 1386.25 2083.29 1386.27 2096.03C1386.35 2137.86 1390.77 2179.69 1399.46 2220.59" fill="#2F75C7"/>
<path d="M1399.46 2220.59C1400.88 2183.03 1397.61 2136.11 1384.14 2101.03C1381.79 2094.93 1379.14 2088.76 1374.62 2084.06C1370.89 2080.17 1365.51 2077.37 1360.22 2078.42C1355.61 2079.35 1351.94 2083.07 1349.9 2087.32C1345.17 2097.22 1348.13 2108.95 1351.67 2119.35C1362.8 2152.01 1379.16 2192.68 1399.46 2220.59Z" fill="#2F75C7"/>
<path d="M1400.38 2207.62C1402.72 2191.55 1405.03 2175.46 1406.9 2159.31C1408.74 2143.36 1410.22 2127.34 1410.78 2111.29C1411.11 2102.26 1411.03 2093.2 1409.99 2084.21C1409.87 2083.17 1411.49 2083.19 1411.6 2084.21C1413.45 2100.24 1412.41 2116.54 1411.14 2132.59C1409.87 2148.7 1407.95 2164.73 1405.8 2180.74C1404.57 2189.85 1403.26 2198.95 1401.94 2208.04C1401.8 2209.06 1400.24 2208.63 1400.38 2207.62Z" fill="white"/>
<path d="M1365.66 2103.39C1372.06 2116.43 1378.54 2129.52 1383.16 2143.32C1387.42 2156.08 1390.35 2169.29 1392.65 2182.55C1393.9 2189.78 1394.96 2197.06 1395.82 2204.35C1395.94 2205.39 1394.32 2205.37 1394.21 2204.35C1392.63 2191.2 1390.5 2178.09 1387.54 2165.17C1384.52 2152.01 1380.43 2139.24 1375.01 2126.86C1371.66 2119.21 1367.97 2111.72 1364.3 2104.22C1363.8 2103.28 1365.2 2102.45 1365.66 2103.39Z" fill="white"/>
<path opacity="0.7" d="M903.926 1929.45H1021.76C1034.44 1929.45 1044.82 1919.07 1044.82 1906.38V1799.14C1044.82 1786.46 1034.44 1776.08 1021.76 1776.08H903.926C891.239 1776.08 880.859 1786.46 880.859 1799.14V1906.4C880.859 1919.07 891.239 1929.45 903.926 1929.45Z" fill="#C9E0FC"/>
<path opacity="0.7" d="M1078.48 1971.76H1196.32C1209 1971.76 1219.38 1961.38 1219.38 1948.69V1841.43C1219.38 1828.75 1209 1818.37 1196.32 1818.37H1078.48C1065.8 1818.37 1055.42 1828.75 1055.42 1841.43V1948.69C1055.42 1961.38 1065.8 1971.76 1078.48 1971.76Z" fill="#C9E0FC"/>
<path opacity="0.7" d="M938.314 2139.7H1056.15C1068.83 2139.7 1079.21 2129.32 1079.21 2116.64V2009.38C1079.21 1996.69 1068.83 1986.31 1056.15 1986.31H938.314C925.627 1986.31 915.247 1996.69 915.247 2009.38V2116.64C915.247 2129.32 925.627 2139.7 938.314 2139.7Z" fill="#C9E0FC"/>
<path opacity="0.3" d="M1150.78 1902.35C1150.78 1891.24 1141.67 1873.23 1134.07 1859.58C1136.9 1854.5 1139.51 1850.02 1141.36 1846.74H1146.84C1153.66 1858.85 1170.81 1887.12 1170.81 1902.37C1170.81 1917.15 1158.85 1929.12 1144.09 1929.12C1140.55 1929.12 1137.17 1928.41 1134.07 1927.16C1143.86 1923.17 1150.78 1913.57 1150.78 1902.35Z" fill="#3B8EF3"/>
<path d="M1144.11 1857.33C1137.05 1869.73 1125.02 1891.51 1125.02 1902.35C1125.02 1912.88 1133.57 1921.47 1144.11 1921.47C1154.64 1921.47 1163.19 1912.9 1163.19 1902.35C1163.18 1891.51 1151.16 1869.73 1144.11 1857.33ZM1144.11 1845.12C1145.18 1845.12 1146.24 1845.66 1146.86 1846.74C1153.68 1858.85 1170.83 1887.12 1170.83 1902.37C1170.83 1917.15 1158.87 1929.12 1144.11 1929.12C1129.34 1929.12 1117.39 1917.15 1117.39 1902.37C1117.39 1887.12 1134.55 1858.85 1141.36 1846.74C1141.95 1845.66 1143.03 1845.12 1144.11 1845.12Z" fill="#3B8EF3"/>
<path d="M1144.11 1917.01C1149.93 1917.01 1154.89 1914.8 1157.7 1910.94C1160.41 1907.25 1160.96 1902.31 1159.27 1897.02C1158.97 1896.02 1157.87 1895.47 1156.87 1895.77C1155.87 1896.1 1155.31 1897.18 1155.62 1898.18C1156.95 1902.33 1156.58 1905.96 1154.6 1908.69C1152.51 1911.55 1148.68 1913.19 1144.09 1913.19C1143.03 1913.19 1142.18 1914.03 1142.18 1915.09C1142.18 1916.15 1143.05 1917.01 1144.11 1917.01Z" fill="#3B8EF3"/>
<path d="M1330.08 2295.31C1347.86 2292.83 1393.57 2270.8 1411.93 2248.6L1288.03 2092.76L1194.12 2169.29L1302.08 2297.92C1302.1 2297.94 1312.3 2297.79 1330.08 2295.31Z" fill="#94C2F8"/>
<path d="M1336.71 2127.52L1241.35 2229.76C1235.16 2236.41 1224.61 2236.33 1218.5 2229.62L1002.71 1992.4C996.482 1985.56 997.577 1974.83 1005.05 1969.39L1122.79 1883.64C1127.52 1880.2 1134.11 1880.91 1137.98 1885.3L1336.95 2110.49C1341.27 2115.39 1341.17 2122.75 1336.71 2127.52Z" fill="#204E85"/>
<path d="M1137.98 1885.3C1134.09 1880.91 1127.52 1880.18 1122.79 1883.64L1012.96 1963.65C1008.48 1969.43 1008.55 1977.85 1013.76 1983.58L1229.53 2220.8C1233.74 2225.43 1240.07 2226.9 1245.62 2225.18L1336.71 2127.54C1341.17 2122.77 1341.27 2115.39 1336.95 2110.5L1137.98 1885.3Z" fill="#2F75C7"/>
<path d="M1027.74 1984.81L1225.73 2206.52L1324.99 2102.84L1142.99 1900.44L1027.74 1984.81Z" fill="#94C2F8"/>
<path d="M1215.75 1981.35L1215.23 1981.1L1215.75 1981.37V1981.35Z" fill="#2F75C7"/>
<path d="M1107.66 2074.33L1225.71 2206.52L1324.97 2102.84L1217.25 1983.04C1219.77 1990.64 1234.09 2036.29 1232.59 2089.88C1230.94 2148.62 1196.6 2167.23 1187.51 2152.76C1178.42 2138.28 1189.59 2110.16 1173.04 2101.87C1156.49 2093.61 1132.92 2088.23 1122.98 2080.36C1119.72 2077.77 1113.93 2075.81 1107.66 2074.33Z" fill="#2F75C7"/>
<path d="M1242.43 2027.08C1241.6 2027.08 1240.82 2027.39 1240.2 2027.96L1151.95 2111.06C1151.32 2111.66 1150.95 2112.47 1150.93 2113.35C1150.91 2114.23 1151.24 2115.06 1151.84 2115.68L1160.74 2124.92C1161.35 2125.56 1162.18 2125.92 1163.08 2125.92C1163.93 2125.92 1164.71 2125.59 1165.33 2125.02L1253.27 2041.27C1253.91 2040.65 1254.27 2039.84 1254.27 2038.96C1254.29 2038.08 1253.94 2037.25 1253.31 2036.61L1244.72 2028.02C1244.12 2027.41 1243.29 2027.08 1242.43 2027.08ZM1242.43 2025.27C1243.72 2025.27 1245.02 2025.77 1246.01 2026.75L1254.6 2035.35C1256.6 2037.35 1256.56 2040.61 1254.5 2042.57L1166.56 2126.32C1165.58 2127.25 1164.33 2127.73 1163.08 2127.73C1161.75 2127.73 1160.43 2127.21 1159.43 2126.17L1150.53 2116.93C1148.59 2114.91 1148.66 2111.68 1150.7 2109.74L1238.95 2026.64C1239.95 2025.73 1241.18 2025.27 1242.43 2025.27Z" fill="white"/>
<path d="M1265.59 2052.17C1264.77 2052.17 1263.98 2052.47 1263.36 2053.05L1175.11 2136.15C1174.48 2136.74 1174.11 2137.55 1174.09 2138.43C1174.08 2139.32 1174.4 2140.15 1175 2140.76L1183.9 2150.01C1184.51 2150.64 1185.34 2151.01 1186.24 2151.01C1187.09 2151.01 1187.88 2150.68 1188.49 2150.1L1276.43 2066.35C1277.07 2065.74 1277.43 2064.93 1277.43 2064.04C1277.45 2063.16 1277.11 2062.33 1276.47 2061.7L1267.88 2053.11C1267.28 2052.51 1266.46 2052.17 1265.59 2052.17ZM1265.59 2050.36C1266.88 2050.36 1268.19 2050.86 1269.17 2051.84L1277.76 2060.43C1279.76 2062.43 1279.72 2065.7 1277.66 2067.66L1189.72 2151.41C1188.74 2152.33 1187.49 2152.81 1186.24 2152.81C1184.92 2152.81 1183.59 2152.29 1182.59 2151.26L1173.69 2142.01C1171.75 2139.99 1171.83 2136.76 1173.86 2134.82L1262.11 2051.72C1263.11 2050.82 1264.34 2050.36 1265.59 2050.36Z" fill="white"/>
<path d="M1285.74 2075.6C1284.78 2075.6 1283.89 2075.96 1283.2 2076.64L1196.7 2160.73C1195.26 2162.14 1195.22 2164.44 1196.62 2165.88L1208.23 2177.82C1208.93 2178.53 1209.85 2178.92 1210.85 2178.92C1211.85 2178.92 1212.77 2178.53 1213.46 2177.82L1297.67 2091.32C1299.06 2089.9 1299.06 2087.67 1297.67 2086.25L1288.35 2076.69C1287.64 2075.98 1286.72 2075.6 1285.74 2075.6ZM1285.74 2073.79C1287.16 2073.79 1288.56 2074.35 1289.64 2075.42L1298.96 2084.98C1301.02 2087.09 1301.02 2090.46 1298.96 2092.57L1214.75 2179.07C1213.67 2180.17 1212.27 2180.72 1210.85 2180.72C1209.43 2180.72 1208.02 2180.17 1206.95 2179.07L1195.34 2167.13C1193.24 2164.98 1193.28 2161.52 1195.45 2159.43L1281.95 2075.33C1282.99 2074.31 1284.35 2073.79 1285.74 2073.79Z" fill="white"/>
<path d="M1103.57 2113.47C1089.92 2105.6 1088.27 2086.17 1088.27 2086.17C1088.27 2086.17 1171.4 2083.69 1182.57 2084.09C1193.74 2084.5 1217.33 2092.78 1203.26 2103.95C1189.18 2115.12 1144.93 2118.02 1131.69 2120.08C1118.45 2122.13 1103.57 2113.47 1103.57 2113.47Z" fill="#DBEBFD"/>
<path d="M1121.83 2123.52C1121.83 2123.52 1199.58 2120.21 1212.4 2127.65C1225.23 2135.09 1228.96 2149.99 1210.75 2153.29C1192.55 2156.6 1147.88 2162.39 1135.48 2154.95C1123.08 2147.51 1116.87 2130.55 1121.83 2123.52Z" fill="#DBEBFD"/>
<path d="M1156.3 2161.02C1156.3 2161.02 1211.31 2161.85 1221.65 2173.44C1231.99 2185.03 1234.07 2193.29 1227.86 2195.35C1221.65 2197.41 1173.27 2199.08 1159.2 2186.66C1145.13 2174.26 1155.06 2160.19 1156.3 2161.02Z" fill="#DBEBFD"/>
<path d="M1258.25 2047.69C1284.72 2042.73 1297.96 2040.25 1297.96 2040.25C1297.96 2040.25 1269.84 2063.41 1278.93 2103.12C1288.03 2142.84 1305.4 2161.87 1305.4 2161.87C1305.4 2161.87 1361.65 2206.54 1376.54 2234.66C1382.41 2245.73 1387.23 2257.94 1390.94 2268.7C1416.83 2249.19 1434.52 2219.96 1439.23 2187.09L1400.53 2158.58C1400.53 2158.58 1350.9 2018.78 1335.18 1994.79C1319.45 1970.8 1284.72 1979.06 1251.62 1991.48C1218.54 2003.9 1204.47 2010.51 1207.77 2027.06C1211.1 2043.55 1231.78 2052.65 1258.25 2047.69Z" fill="#94C2F8"/>
<path d="M1127.48 1923.57L1053.8 1978.64C1050.4 1981.18 1045.63 1980.77 1042.71 1977.68L1038.85 1973.57L1126 1908.42L1128.58 1911.15C1132 1914.78 1131.48 1920.59 1127.48 1923.57Z" fill="#2F75C7"/>
<path d="M1108.43 1919.8L1051.05 1961.4C1050.19 1962.03 1048.98 1961.84 1048.36 1960.98C1047.73 1960.11 1047.92 1958.9 1048.79 1958.28L1106.16 1916.69C1107.03 1916.05 1108.24 1916.25 1108.85 1917.11C1109.49 1917.98 1109.3 1919.19 1108.43 1919.8Z" fill="#204E85"/>
<path d="M1086.88 2084.5C1086.88 2084.5 1065.37 2081.19 1050.48 2067.12C1035.58 2053.05 1068.68 2046.44 1079.43 2043.96C1090.17 2041.48 1131.54 2032.37 1139 2039C1146.45 2045.63 1129.08 2067.12 1115.01 2073.75C1100.94 2080.38 1086.88 2084.5 1086.88 2084.5Z" fill="#DBEBFD"/>
<path d="M1134.23 2055.86C1113.99 2047.17 1081.08 2066.76 1065.51 2077.4C1076.7 2082.96 1086.86 2084.52 1086.86 2084.52C1086.86 2084.52 1100.94 2080.38 1114.99 2073.77C1122.06 2070.45 1129.96 2063.35 1135.13 2056.3C1134.84 2056.13 1134.55 2055.99 1134.23 2055.86Z" fill="#94C2F8"/>
<path d="M1207.56 2097.43C1184.44 2093.22 1125.87 2108.43 1104.95 2114.2C1108.93 2116.25 1120.87 2121.75 1131.69 2120.06C1144.93 2117.98 1189.18 2115.1 1203.26 2103.93C1206.16 2101.64 1207.43 2099.45 1207.56 2097.43Z" fill="#94C2F8"/>
<path d="M1127.14 2147.53C1129.44 2150.41 1132.25 2153.02 1135.48 2154.97C1147.9 2162.4 1192.57 2156.62 1210.75 2153.31C1220.77 2151.49 1224.13 2146.16 1223.02 2140.51C1204.74 2134.69 1150.09 2143.43 1127.14 2147.53Z" fill="#94C2F8"/>
<path d="M1230.69 2193.18C1211.06 2190.49 1169.21 2180.32 1152.28 2176.11C1153.16 2179.51 1155.22 2183.16 1159.2 2186.66C1173.27 2199.08 1221.65 2197.41 1227.86 2195.35C1229.19 2194.91 1230.11 2194.16 1230.69 2193.18Z" fill="#94C2F8"/>
<path d="M1251.23 2012.95C1282.66 1999.3 1317.42 1981.93 1338.1 2039.02C1358.78 2096.09 1369.95 2159.39 1351.75 2174.26C1333.54 2189.16 1309.55 2194.95 1309.55 2194.95C1309.55 2194.95 1296.6 2258.44 1329.68 2295.19L1339.06 2293.12C1393.15 2283.85 1431.73 2239.49 1439.25 2187.07L1400.55 2158.56C1400.55 2158.56 1350.92 2018.76 1335.2 1994.77C1319.47 1970.78 1284.74 1979.04 1251.64 1991.46C1218.56 2003.88 1204.49 2010.49 1207.79 2027.04C1208.56 2030.85 1210.25 2034.23 1212.71 2037.17C1219.56 2032.14 1234.13 2021.76 1245.24 2016.2C1246.95 2015.03 1248.93 2013.95 1251.23 2012.95Z" fill="#DBEBFD"/>
<path d="M1333.7 1942.54C1305.29 1942.54 1282.26 1919.51 1282.26 1891.1C1282.26 1862.69 1305.29 1839.66 1333.7 1839.66C1362.11 1839.66 1385.13 1862.69 1385.13 1891.1C1385.13 1919.51 1362.11 1942.54 1333.7 1942.54Z" fill="#2F75C7"/>
<path d="M1333.7 1937.1C1308.29 1937.1 1287.7 1916.51 1287.7 1891.1C1287.7 1865.7 1308.29 1845.1 1333.7 1845.1C1359.1 1845.1 1379.7 1865.7 1379.7 1891.1C1379.7 1916.51 1359.1 1937.1 1333.7 1937.1Z" fill="#2F75C7"/>
<path d="M1372.49 2065.97C1344.08 2065.97 1321.05 2042.94 1321.05 2014.53C1321.05 1986.12 1344.08 1963.09 1372.49 1963.09C1400.89 1963.09 1423.92 1986.12 1423.92 2014.53C1423.92 2042.94 1400.89 2065.97 1372.49 2065.97Z" fill="#94C2F8"/>
<path d="M1372.49 2060.53C1347.08 2060.53 1326.49 2039.93 1326.49 2014.53C1326.49 1989.12 1347.08 1968.53 1372.49 1968.53C1397.89 1968.53 1418.48 1989.12 1418.48 2014.53C1418.48 2039.93 1397.89 2060.53 1372.49 2060.53Z" fill="#2F75C7"/>
<path d="M1263.61 1995.4C1252.51 1995.4 1243.51 1986.4 1243.51 1975.3C1243.51 1964.19 1252.51 1955.19 1263.61 1955.19C1274.72 1955.19 1283.72 1964.19 1283.72 1975.3C1283.72 1986.4 1274.72 1995.4 1263.61 1995.4Z" fill="#2F75C7"/>
<path d="M1003.07 2073.71C1003.42 2073.37 1003.63 2072.91 1003.63 2072.39C1003.63 2071.35 1002.79 2070.5 1001.75 2070.5H990.349L997.769 2063.08C998.307 2062.55 998.461 2061.74 998.173 2061.05C997.884 2060.35 997.192 2059.89 996.443 2059.89H980.508C979.47 2059.89 978.624 2060.74 978.624 2061.78C978.624 2062.81 979.47 2063.66 980.508 2063.66H991.906L984.486 2071.08C983.948 2071.62 983.794 2072.43 984.083 2073.12C984.371 2073.81 985.063 2074.27 985.813 2074.27H1001.75C1002.27 2074.25 1002.73 2074.04 1003.07 2073.71Z" fill="#3B8EF3"/>
<path d="M957.921 2047.15C959.382 2045.69 961.766 2045.69 963.227 2047.15L971.204 2055.13L979.181 2047.15L971.204 2039.17C969.743 2037.71 969.743 2035.33 971.204 2033.87C972.665 2032.41 975.048 2032.41 976.509 2033.87L984.486 2041.84L987.139 2039.19C991.522 2034.81 998.692 2034.81 1003.07 2039.19L1019.01 2055.13C1023.39 2059.51 1023.39 2066.68 1019.01 2071.06L1009.71 2080.36L1017.93 2088.59L1027.01 2085.57C1028.35 2085.11 1029.85 2085.48 1030.85 2086.48L1034.6 2090.23C1035.6 2091.23 1035.96 2092.72 1035.5 2094.07L1032.48 2103.14L1038.35 2109.02C1039.81 2110.49 1039.81 2112.87 1038.35 2114.33C1037.62 2115.06 1036.66 2115.43 1035.69 2115.43C1034.73 2115.43 1033.77 2115.06 1033.04 2114.33L1025.53 2106.81C1024.53 2105.81 1024.16 2104.32 1024.62 2102.97L1027.64 2093.9L1027.16 2093.42L1018.09 2096.43C1016.74 2096.9 1015.24 2096.53 1014.24 2095.53L1004.38 2085.67L995.078 2094.97C990.695 2099.36 983.525 2099.36 979.143 2094.97L963.208 2079.04C958.825 2074.66 958.825 2067.49 963.208 2063.1L965.86 2060.45L957.883 2052.47C956.441 2050.99 956.441 2048.61 957.921 2047.15ZM968.532 2073.71L984.467 2089.65C985.909 2091.09 988.331 2091.09 989.773 2089.65L1013.69 2065.74C1015.13 2064.29 1015.13 2061.87 1013.69 2060.43L997.75 2044.5C996.308 2043.05 993.886 2043.05 992.445 2044.5L968.532 2068.41C967.09 2069.83 967.09 2072.27 968.532 2073.71Z" fill="#3B8EF3"/>
<path opacity="0.3" d="M998.154 2061.03C997.865 2060.34 997.173 2059.87 996.424 2059.87H995.462L986.313 2050.61L992.425 2044.5C993.867 2043.05 996.289 2043.05 997.731 2044.5L1013.67 2060.43C1015.11 2061.87 1015.11 2064.29 1013.67 2065.74L1007.4 2072L998.038 2062.51C998.269 2062.03 998.365 2061.53 998.154 2061.03Z" fill="#3B8EF3"/>
<path d="M957.229 1885.72V1889.74H997.48V1833.4H957.229V1837.41H949.175V1829.36C949.175 1822.73 954.614 1817.29 961.246 1817.29H993.443C1000.07 1817.29 1005.51 1822.73 1005.51 1829.36V1893.76C1005.51 1900.39 1000.07 1905.83 993.443 1905.83H961.246C954.614 1905.83 949.175 1900.39 949.175 1893.76V1885.7H957.229V1885.72ZM993.463 1825.36H961.265C959.093 1825.36 957.248 1827.21 957.248 1829.38H997.499C997.48 1827.19 995.635 1825.36 993.463 1825.36ZM961.265 1897.79H993.463C995.635 1897.79 997.48 1895.95 997.48 1893.77H957.229C957.229 1895.97 959.074 1897.79 961.265 1897.79Z" fill="#3B8EF3"/>
<path d="M957.229 1885.72V1889.74H997.48V1833.4H957.229V1837.41H949.175V1829.36C949.175 1822.73 954.614 1817.29 961.246 1817.29H993.443C1000.07 1817.29 1005.51 1822.73 1005.51 1829.36V1893.76C1005.51 1900.39 1000.07 1905.83 993.443 1905.83H961.246C954.614 1905.83 949.175 1900.39 949.175 1893.76V1885.7H957.229V1885.72ZM993.463 1825.36H961.265C959.093 1825.36 957.248 1827.21 957.248 1829.38H997.499C997.48 1827.19 995.635 1825.36 993.463 1825.36ZM961.265 1897.79H993.463C995.635 1897.79 997.48 1895.95 997.48 1893.77H957.229C957.229 1895.97 959.074 1897.79 961.265 1897.79Z" fill="#3B8EF3"/>
<path d="M925.031 1841.45C922.821 1841.45 921.014 1843.26 921.014 1845.47V1877.67C921.014 1879.88 922.821 1881.68 925.031 1881.68H973.337C975.547 1881.68 977.354 1879.88 977.354 1877.67V1845.49C977.354 1843.28 975.547 1841.47 973.337 1841.47H925.031V1841.45ZM925.031 1837.43H973.337C977.758 1837.43 981.391 1841.05 981.391 1845.49V1877.69C981.391 1882.11 977.777 1885.74 973.337 1885.74H925.031C920.61 1885.74 916.977 1882.13 916.977 1877.69V1845.49C916.997 1841.05 920.61 1837.43 925.031 1837.43Z" fill="#3B8EF3"/>
<path d="M963.284 1877.69H971.338C972.453 1877.69 973.356 1876.78 973.356 1875.67C973.356 1874.55 972.453 1873.65 971.338 1873.65H963.284C962.169 1873.65 961.265 1874.55 961.265 1875.67C961.265 1876.76 962.169 1877.69 963.284 1877.69Z" fill="#3B8EF3"/>
<path d="M947.175 1877.69H955.23C956.344 1877.69 957.248 1876.78 957.248 1875.67C957.248 1874.55 956.344 1873.65 955.23 1873.65H947.175C946.061 1873.65 945.157 1874.55 945.157 1875.67C945.157 1876.76 946.061 1877.69 947.175 1877.69Z" fill="#3B8EF3"/>
<path d="M927.05 1877.69H939.121C940.236 1877.69 941.14 1876.78 941.14 1875.67C941.14 1874.55 940.236 1873.65 939.121 1873.65H927.05C925.935 1873.65 925.031 1874.55 925.031 1875.67C925.031 1876.76 925.954 1877.69 927.05 1877.69Z" fill="#3B8EF3"/>
<path d="M954.288 1864.31L957.133 1858.94H957.517H961.246V1864.31H965.283V1845.55H957.498C955.153 1845.55 953.346 1846.12 952.077 1847.26C950.789 1848.39 950.155 1849.99 950.155 1852.06C950.155 1853.5 950.443 1854.75 951.02 1855.77C951.596 1856.79 952.423 1857.58 953.519 1858.12L949.713 1864.31H954.288ZM961.246 1855.41H957.517C956.383 1855.41 955.518 1855.14 954.922 1854.58C954.326 1854.04 954.019 1853.23 954.019 1852.18C954.019 1851.14 954.326 1850.35 954.922 1849.83C955.518 1849.31 956.383 1849.04 957.517 1849.04H961.246V1855.41Z" fill="#3B8EF3"/>
<path d="M936.18 1850.68C935.2 1851.29 934.45 1852.16 933.912 1853.29C933.374 1854.43 933.105 1855.71 933.105 1857.18C933.105 1858.62 933.374 1859.89 933.893 1861C934.431 1862.1 935.162 1862.96 936.123 1863.56C937.084 1864.17 938.199 1864.46 939.487 1864.46C940.448 1864.46 941.293 1864.27 942.024 1863.88C942.774 1863.5 943.389 1862.94 943.908 1862.21V1869.5H947.848V1849.89H943.908V1852C943.408 1851.27 942.793 1850.72 942.062 1850.33C941.313 1849.95 940.486 1849.76 939.563 1849.76C938.276 1849.76 937.161 1850.06 936.18 1850.68ZM938.026 1859.92C937.391 1859.17 937.084 1858.21 937.084 1857.04C937.084 1855.89 937.391 1854.93 938.026 1854.2C938.66 1853.45 939.467 1853.08 940.486 1853.08C941.486 1853.08 942.312 1853.45 942.947 1854.2C943.581 1854.95 943.908 1855.89 943.908 1857.04C943.908 1858.23 943.581 1859.19 942.947 1859.94C942.312 1860.67 941.486 1861.04 940.486 1861.04C939.467 1861.04 938.66 1860.65 938.026 1859.92Z" fill="#3B8EF3"/>
<g opacity="0.3">
<path opacity="0.3" d="M997.48 1829.38H985.408V1825.36H993.463C995.635 1825.36 997.48 1827.19 997.48 1829.38Z" fill="#3B8EF3"/>
<path opacity="0.3" d="M985.408 1833.4H997.48V1889.74H985.408V1833.4Z" fill="#3B8EF3"/>
<path opacity="0.3" d="M993.463 1897.79H985.408V1893.77H997.48C997.48 1895.97 995.635 1897.79 993.463 1897.79Z" fill="#3B8EF3"/>
</g>
<path opacity="0.3" d="M971.319 1877.69C972.433 1877.69 973.337 1876.78 973.337 1875.67C973.337 1874.55 972.433 1873.65 971.319 1873.65H969.3V1841.45H973.318C975.528 1841.45 977.335 1843.26 977.335 1845.47V1877.67C977.335 1879.88 975.528 1881.68 973.318 1881.68H969.3V1877.67H971.319V1877.69Z" fill="#3B8EF3"/>
<path d="M964.707 2192.45C965.687 2185.64 968.359 2176.78 976.49 2175.88C983.506 2175.11 988.292 2181.65 989.484 2187.8C991.214 2196.72 988.792 2206.27 987.024 2215C984.851 2225.68 983.352 2235.95 986.274 2246.66C989.811 2259.67 997.673 2274.41 995.539 2288C998.788 2276.78 997.077 2263.82 997.269 2252.35C997.404 2244.04 998.172 2235.72 999.787 2227.55C1000.98 2221.53 1002.5 2214.79 1006.94 2210.23C1015.32 2201.62 1028.66 2208.08 1029.1 2219.48C1029.39 2226.61 1025.35 2232.78 1021.57 2238.47C1016.86 2245.54 1012.76 2252.85 1010.26 2261.01C1008.42 2267.01 1007.23 2273.18 1005.71 2279.26C1007.65 2275.32 1009.74 2271.36 1012.76 2268.22C1017.91 2262.88 1029.18 2259.27 1031.35 2269.07C1032.23 2273.09 1032.22 2277.51 1029.5 2280.85C1026.49 2284.56 1021.47 2285.56 1017.47 2287.85C1007.9 2293.33 1001.34 2303.98 989.234 2303.86C988.811 2303.86 988.504 2303.71 988.292 2303.46C987.639 2303.03 987.273 2302.09 987.985 2301.36C988.196 2301.15 987.985 2301.36 987.696 2300.52C987.696 2300.5 987.696 2300.54 987.696 2300.52C987.081 2300.09 987.6 2299.27 988.215 2298.5C988.408 2298.27 988.042 2298.75 988.215 2298.5C988.408 2289.23 986.332 2279.93 981.449 2271.82C976.509 2263.63 971.934 2255.59 968.916 2246.44C963.188 2229.16 962.112 2210.4 964.707 2192.45Z" fill="#2F75C7"/>
<path d="M1379.71 1849.49H1390.09V1839.11C1390.09 1836.51 1392.23 1834.38 1394.82 1834.38C1397.42 1834.38 1399.55 1836.51 1399.55 1839.11V1849.49H1409.93C1412.53 1849.49 1414.66 1851.62 1414.66 1854.21C1414.66 1856.81 1412.53 1858.94 1409.93 1858.94H1399.55V1869.32C1399.55 1871.92 1397.42 1874.05 1394.82 1874.05C1392.23 1874.05 1390.09 1871.92 1390.09 1869.32V1858.94H1379.71C1377.12 1858.94 1374.99 1856.81 1374.99 1854.21C1375.01 1851.62 1377.12 1849.49 1379.71 1849.49Z" fill="#2F75C7"/>
<path d="M1417.18 1973.78H1427.58V1963.4C1427.58 1960.8 1429.71 1958.67 1432.31 1958.67C1434.9 1958.67 1437.04 1960.8 1437.04 1963.4V1973.78H1447.42C1450.01 1973.78 1452.14 1975.91 1452.14 1978.51C1452.14 1981.1 1450.01 1983.23 1447.42 1983.23H1437.04V1993.61C1437.04 1996.21 1434.9 1998.34 1432.31 1998.34C1429.71 1998.34 1427.58 1996.21 1427.58 1993.61V1983.23H1417.2C1414.6 1983.23 1412.47 1981.1 1412.47 1978.51C1412.47 1975.91 1414.58 1973.78 1417.18 1973.78Z" fill="#2F75C7"/>
<path d="M1283.14 1947.08H1290.24V1939.98C1290.24 1938.22 1291.68 1936.76 1293.46 1936.76C1295.23 1936.76 1296.69 1938.2 1296.69 1939.98V1947.08H1303.79C1305.56 1947.08 1307.02 1948.52 1307.02 1950.31C1307.02 1952.08 1305.57 1953.54 1303.79 1953.54H1296.69V1960.63C1296.69 1962.4 1295.25 1963.86 1293.46 1963.86C1291.7 1963.86 1290.24 1962.42 1290.24 1960.63V1953.54H1283.14C1281.37 1953.54 1279.91 1952.09 1279.91 1950.31C1279.91 1948.52 1281.37 1947.08 1283.14 1947.08Z" fill="#2F75C7"/>
</g>
<g opacity="0.3">
<path fill-rule="evenodd" clip-rule="evenodd" d="M2269.6 172.376C2198.78 294.921 2132.1 322.817 2056.34 293.55L1824.43 203.953L2011.67 -117.209L2243.95 -27.4694C2309.68 -2.0754 2338.81 51.7663 2269.6 172.376ZM2412.97 -261.131L1853.14 -477.411L1124.68 776.83L1058.16 885.492L1175.71 908.761L795.042 1456.07L1772.84 765.545L1531.4 708.893L1702.96 413.4C1709.99 422.288 1872.16 514.54 1943.56 546.808C2098.66 617.59 2328.29 725.254 2557.27 325.887C2755.1 -17.1627 2588.99 -193.127 2412.97 -261.131Z" fill="url(#paint0_linear)"/>
<path fill-rule="evenodd" clip-rule="evenodd" d="M-798.981 172.376C-728.164 294.922 -661.478 322.818 -585.721 293.55L-353.808 203.954L-541.049 -117.209L-773.333 -27.4692C-839.064 -2.07513 -868.196 51.7666 -798.981 172.376ZM-942.347 -261.131L-382.526 -477.411L345.941 776.83L412.461 885.492L294.909 908.762L675.576 1456.07L-302.224 765.545L-60.7843 708.893L-232.347 413.4C-239.369 422.288 -401.544 514.54 -472.94 546.808C-628.045 617.59 -857.672 725.255 -1086.65 325.887C-1284.48 -17.1625 -1118.37 -193.127 -942.347 -261.131Z" fill="url(#paint1_linear)"/>
</g>
</g>
</g>
<defs>
<linearGradient id="paint0_linear" x1="1664.84" y1="1352.95" x2="2376.01" y2="107.13" gradientUnits="userSpaceOnUse">
<stop stop-color="#2A83EF"/>
<stop offset="0.581638" stop-color="#3F95FF"/>
<stop offset="1" stop-color="#66ABFF"/>
</linearGradient>
<linearGradient id="paint1_linear" x1="-194.22" y1="1352.95" x2="-905.388" y2="107.13" gradientUnits="userSpaceOnUse">
<stop stop-color="#2A83EF"/>
<stop offset="0.581638" stop-color="#3F95FF"/>
<stop offset="1" stop-color="#66ABFF"/>
</linearGradient>
</defs>
</svg>
