<svg width="40" height="40" viewBox="0 0 40 40" fill="none" xmlns="http://www.w3.org/2000/svg">
<path opacity="0.3" d="M22.8334 8.1665H16.8334V18.3332H22.8334V8.1665Z" fill="#3B8EF3"/>
<path opacity="0.3" d="M22.8334 24.6665H16.8334V27.3332H22.8334V24.6665Z" fill="#3B8EF3"/>
<path d="M28.8333 9.16683V17.8335H17.5V9.16683H28.8333ZM30.8333 5.8335H15.5C14.8333 5.8335 14.1666 6.50016 14.1666 7.16683V19.6668C14.1666 20.3335 14.8333 21.0002 15.5 21.0002H30.8333C31.5 21.0002 32.1666 20.3335 32.1666 19.6668V7.16683C32.1666 6.3335 31.5 5.8335 30.8333 5.8335Z" fill="#3B8EF3"/>
<path d="M37.3333 34.8332L35 32.6665C33.8333 31.6665 32.3333 30.9998 30.8333 30.9998H14.5C14 30.1665 13.3333 29.4998 12.5 28.9998V6.6665C12.5 3.83317 10.3333 1.6665 7.49996 1.6665H3.83329C2.83329 1.6665 2.16663 2.33317 2.16663 3.33317C2.16663 4.33317 2.83329 4.99984 3.83329 4.99984H7.49996C8.49996 4.99984 9.16663 5.6665 9.16663 6.6665V28.4998C6.83329 28.9998 4.99996 30.9998 4.99996 33.3332C4.99996 36.1665 7.16663 38.3332 9.99996 38.3332C12.5 38.3332 14.5 36.6665 14.8333 34.3332H30.6666C31.3333 34.3332 32.1666 34.6665 32.6666 35.1665L35 37.3332C35.3333 37.6665 35.6666 37.8332 36.1666 37.8332C36.6666 37.8332 37 37.6665 37.3333 37.3332C38 36.4998 38 35.3332 37.3333 34.8332ZM10.1666 35.3332C8.99996 35.3332 8.16663 34.4998 8.16663 33.3332C8.16663 32.1665 8.99996 31.3332 10.1666 31.3332C11.3333 31.3332 12.1666 32.1665 12.1666 33.3332C12.1666 34.4998 11.1666 35.3332 10.1666 35.3332Z" fill="#3B8EF3"/>
<path d="M29.0002 25.1668V26.5002H17.5002V25.1668H29.0002ZM30.6668 21.8335H16.0002C15.0002 21.8335 14.3335 22.5002 14.3335 23.5002V28.1668C14.3335 29.1668 15.0002 29.8335 16.0002 29.8335H30.8335C31.8335 29.8335 32.5002 29.1668 32.5002 28.1668V23.5002C32.3335 22.6668 31.6668 21.8335 30.6668 21.8335Z" fill="#3B8EF3"/>
<path d="M26 13.3333H23.1667C22.5 13.3333 22 12.8333 22 12.1667C22 11.5 22.5 11 23.1667 11H26C26.6667 11 27.1667 11.5 27.1667 12.1667C27.1667 12.8333 26.6667 13.3333 26 13.3333Z" fill="#3B8EF3"/>
</svg>
