<svg width="40" height="40" viewBox="0 0 40 40" fill="none" xmlns="http://www.w3.org/2000/svg">
<path d="M37 6.16683L34.8333 3.66683C34 2.8335 33 2.3335 32 2.3335C31 2.3335 29.8333 2.66683 29 3.3335L19 12.1668C18.3333 12.8335 17.8333 13.5002 17.5 14.3335L16.1667 18.6668L15.1667 21.5002C14.8333 22.6668 15.8333 23.8335 17.1667 23.6668L20 23.0002L24.3333 22.0002C25.1667 21.8335 26 21.5002 26.6667 20.8335L29.3333 18.3335L36.6667 12.0002C38.3333 10.5002 38.5 7.8335 37 6.16683ZM18.5 20.3335L20.3333 14.5002L24.8333 19.0002L18.5 20.3335ZM27.1667 16.0002C27 16.1668 26.8333 16.3335 26.8333 16.3335L23.3333 12.6668C23.5 12.5002 23.6667 12.3335 23.8333 12.1668L27.3333 9.16683L30.6667 12.8335L27.1667 16.0002ZM34.3333 9.50016L33 10.6668L29.6667 7.00016L31 5.8335C31.1667 5.66683 31.5 5.66683 31.6667 5.66683C31.8333 5.66683 32 5.66683 32.1667 6.00016L34.5 8.3335C34.8333 8.66683 34.6667 9.16683 34.3333 9.50016Z" fill="#3B8EF3"/>
<path d="M16.6667 7.83333C16.6667 7.83333 16.8333 7.83333 16.6667 7.83333L20.1667 11.3333L22.6667 9.16667L19 5.5C18.3333 4.83333 17.5 4.5 16.5 4.5C16.3333 4.5 16 4.5 15.8333 4.5L6.66667 6.33333C5.33333 6.66667 4.16667 7.66667 4 9.16667L2.16667 18.5C2 19.6667 2.33333 20.8333 3.16667 21.6667L18.3333 36.8333C19 37.5 19.8333 37.8333 20.8333 37.8333C21.8333 37.8333 22.6667 37.5 23.3333 36.8333L34.6667 25.5C36 24.1667 36 22 34.6667 20.5L30.8333 16.8333L29.5 18L28.5 19.1667L32.1667 23V23.1667L20.8333 34.5C20.8333 34.5 20.8333 34.5 20.6667 34.5H20.5L5.33333 19.3333V19.1667L7.16667 9.83333C7.16667 9.83333 7.16667 9.66667 7.33333 9.66667L16.6667 7.83333Z" fill="#3B8EF3"/>
<path d="M10.4999 14.9998C11.4204 14.9998 12.1666 14.2536 12.1666 13.3332C12.1666 12.4127 11.4204 11.6665 10.4999 11.6665C9.57944 11.6665 8.83325 12.4127 8.83325 13.3332C8.83325 14.2536 9.57944 14.9998 10.4999 14.9998Z" fill="#3B8EF3"/>
</svg>
