<svg width="40" height="40" viewBox="0 0 40 40" fill="none" xmlns="http://www.w3.org/2000/svg">
<path fill-rule="evenodd" clip-rule="evenodd" d="M20 1.6665C15.7817 1.6665 12.3617 5.05817 12.3617 9.2415C12.3617 13.4265 15.7817 16.8182 20 16.8182C24.2184 16.8182 27.6384 13.4265 27.6384 9.2415C27.6384 5.05817 24.2184 1.6665 20 1.6665ZM20 3.1815C23.3684 3.1815 26.1117 5.9015 26.1117 9.2415C26.1117 12.5848 23.3684 15.3032 20 15.3032C16.6317 15.3032 13.8884 12.5848 13.8884 9.2415C13.8884 5.9015 16.6317 3.1815 20 3.1815Z" fill="#3B8EF3"/>
<path fill-rule="evenodd" clip-rule="evenodd" d="M19.9999 1.6665C18.3116 1.6665 16.9449 5.05817 16.9449 9.2415C16.9449 13.4265 18.3116 16.8182 19.9999 16.8182C21.6883 16.8182 23.0549 13.4265 23.0549 9.2415C23.0549 5.05817 21.6883 1.6665 19.9999 1.6665ZM19.9999 3.41817C20.4999 3.9365 21.3883 5.9315 21.3883 9.2415C21.3883 12.5548 20.4999 14.5482 19.9999 15.0665C19.4999 14.5482 18.6116 12.5548 18.6116 9.2415C18.6116 5.9315 19.4999 3.9365 19.9999 3.41817ZM20.1383 3.3065H20.1466H20.1383Z" fill="#3B8EF3"/>
<path fill-rule="evenodd" clip-rule="evenodd" d="M20 6.21191C15.7817 6.21191 12.3617 7.56858 12.3617 9.24191C12.3617 10.9169 15.7817 12.2736 20 12.2736C24.2184 12.2736 27.6384 10.9169 27.6384 9.24191C27.6384 7.56858 24.2184 6.21191 20 6.21191ZM20 7.87858C23.2984 7.87858 25.3134 8.74358 25.87 9.24191C25.3134 9.74191 23.2984 10.6069 20 10.6069C16.7017 10.6069 14.6867 9.74191 14.13 9.24191C14.6867 8.74358 16.7017 7.87858 20 7.87858Z" fill="#3B8EF3"/>
<path fill-rule="evenodd" clip-rule="evenodd" d="M32.5 31.6665H7.49996C7.04163 31.6665 6.66663 32.0415 6.66663 32.4998C6.66663 32.9582 7.04163 33.3332 7.49996 33.3332H32.5C32.9583 33.3332 33.3333 32.9582 33.3333 32.4998C33.3333 32.0415 32.9583 31.6665 32.5 31.6665Z" fill="#3B8EF3"/>
<path fill-rule="evenodd" clip-rule="evenodd" d="M33.75 6.21191H26.9933C27.4033 7.14191 27.6383 8.16358 27.6383 9.24191H33.75C34.5783 9.24191 35.2783 9.93691 35.2783 10.7586V25.9086C35.2783 26.7302 34.5783 27.4252 33.75 27.4252H6.24996C5.42163 27.4252 4.72163 26.7302 4.72163 25.9086V10.7586C4.72163 9.93691 5.42163 9.24191 6.24996 9.24191H12.3616C12.3616 8.16358 12.5966 7.14191 13.0066 6.21191H6.24996C3.72829 6.21191 1.66663 8.25858 1.66663 10.7586V25.9086C1.66663 28.4086 3.72829 30.4552 6.24996 30.4552H33.75C36.2716 30.4552 38.3333 28.4086 38.3333 25.9086V10.7586C38.3333 8.25858 36.2716 6.21191 33.75 6.21191Z" fill="#3B8EF3"/>
</svg>
