<svg width="26" height="26" viewBox="0 0 26 26" fill="none" xmlns="http://www.w3.org/2000/svg">
<rect x="3" y="3" width="20" height="20" rx="3" stroke="white" stroke-width="2"/>
<g clip-path="url(#clip0)">
<path d="M17.9975 18.0004V18H18V14.3325C18 12.5383 17.6138 11.1562 15.5163 11.1562C14.5079 11.1562 13.8313 11.7096 13.555 12.2342H13.5259V11.3238H11.5371V18H13.6079V14.6942C13.6079 13.8238 13.7729 12.9821 14.8509 12.9821C15.9129 12.9821 15.9288 13.9754 15.9288 14.75V18.0004H17.9975Z" fill="white"/>
<path d="M8.16504 11.3242H10.2384V18.0005H8.16504V11.3242Z" fill="white"/>
<path d="M9.20083 8C8.53792 8 8 8.53792 8 9.20083C8 9.86375 8.53792 10.4129 9.20083 10.4129C9.86375 10.4129 10.4017 9.86375 10.4017 9.20083C10.4012 8.53792 9.86333 8 9.20083 8V8Z" fill="white"/>
</g>
<defs>
<clipPath id="clip0">
<rect width="10" height="10" fill="white" transform="translate(8 8)"/>
</clipPath>
</defs>
</svg>
