<svg width="40" height="40" viewBox="0 0 40 40" fill="none" xmlns="http://www.w3.org/2000/svg">
<path fill-rule="evenodd" clip-rule="evenodd" d="M12.8889 24.157C13.1039 24.3587 13.4189 24.462 13.8889 24.467L15.5023 24.4454L18.4823 21.7937H15.1823V21.672V18.1487H16.7389L13.8289 15.5337L11.0389 18.1054H12.4623V22.4854C12.4689 23.3054 12.5589 23.8487 12.8889 24.157Z" fill="#3B8EF3"/>
<path fill-rule="evenodd" clip-rule="evenodd" d="M27.5375 17.5149C27.5275 16.1615 27.2975 15.5482 26.1125 15.5332L24.4975 15.5565L21.5175 18.2065H24.8175V21.3232C24.5475 21.4599 24.2958 21.6365 24.0658 21.8532H23.2625L23.6808 22.2282L26.1708 24.4665L28.7275 22.1115L28.9608 21.8949H28.5308C28.2358 21.6065 27.8975 21.3882 27.5375 21.2349V17.5149Z" fill="#3B8EF3"/>
<path fill-rule="evenodd" clip-rule="evenodd" d="M18.0875 28.8801V27.7701L18.3925 27.4684H22.5075C23.8758 27.4584 24.4942 27.2318 24.5092 26.0551L24.4858 24.4568L23.0408 22.8618L21.8092 21.5034V24.0818L21.1108 24.7734H18.1308V23.2318L15.4908 26.1134L17.5042 28.2584L18.0875 28.8801Z" fill="#3B8EF3"/>
<path fill-rule="evenodd" clip-rule="evenodd" d="M24.5085 13.8858L21.9118 11.1191V12.5325H20.4185H17.4918C16.1252 12.5408 15.5068 12.7675 15.4918 13.9441L15.5152 15.5441L18.1902 18.4975V15.2258H21.0085H21.8685V16.7675L24.5085 13.8858Z" fill="#3B8EF3"/>
<path fill-rule="evenodd" clip-rule="evenodd" d="M4.5997 17.9672C5.37804 16.9589 6.92637 15.4605 7.65303 14.4505C8.38137 13.4422 8.57137 12.1522 8.57137 12.1522C7.8997 12.4522 7.15637 12.6205 6.37303 12.6205C6.31804 12.6205 6.2647 12.6105 6.21137 12.6089C5.26804 12.5805 4.38637 12.3189 3.6297 11.8672C3.25137 12.4622 2.9347 12.4672 2.65137 14.9989C2.36637 17.5305 3.9897 20.2005 3.9897 20.2005C3.9897 20.2005 3.85803 19.1772 4.42804 18.2305C4.48303 18.1405 4.53304 18.0522 4.5997 17.9672Z" fill="#3B8EF3"/>
<path fill-rule="evenodd" clip-rule="evenodd" d="M11.3818 9.20162C11.7068 9.18829 12.2851 9.11162 12.9618 8.79496C14.0085 8.30496 15.0551 7.44162 16.5385 6.11496C18.0218 4.78996 19.0201 3.67662 20.2701 2.94829C21.5201 2.22162 23.5335 2.08162 23.5335 2.08162C23.5335 2.08162 19.3601 1.38996 16.4518 1.79329C13.5435 2.19662 10.6501 4.26829 10.6501 4.26829C11.3068 5.14662 11.6951 6.23496 11.6951 7.41162C11.6951 8.03996 11.5851 8.64329 11.3818 9.20162Z" fill="#3B8EF3"/>
<path fill-rule="evenodd" clip-rule="evenodd" d="M20.3712 36.0434C20.3712 36.0434 19.7312 36.1234 18.9945 35.8868C18.7062 35.7934 18.4028 35.6551 18.1162 35.4384C17.0978 34.6668 15.5862 33.1334 14.5695 32.4118C13.5512 31.6918 12.2495 31.5034 12.2495 31.5034C12.5528 32.1668 12.7195 32.9051 12.7195 33.6801C12.7195 34.6751 12.4428 35.6051 11.9612 36.3984C12.5612 36.7734 12.5645 37.0868 15.1212 37.3684C16.2995 37.4984 17.5028 37.2268 18.4612 36.8968C19.5845 36.5101 20.3712 36.0434 20.3712 36.0434Z" fill="#3B8EF3"/>
<path fill-rule="evenodd" clip-rule="evenodd" d="M32.347 25.5493C31.6187 26.5577 31.4287 27.8477 31.4287 27.8477C32.1004 27.5477 32.8437 27.381 33.627 27.381C34.6304 27.381 35.5704 27.656 36.3704 28.1327C36.7487 27.5377 37.0654 27.5327 37.3487 25.001C37.6337 22.4693 36.012 19.7993 36.012 19.7993C36.012 19.7993 36.1787 21.0243 35.4004 22.0343C34.622 23.0427 33.0754 24.541 32.347 25.5493Z" fill="#3B8EF3"/>
<path fill-rule="evenodd" clip-rule="evenodd" d="M33.6394 28.8525C31.5577 28.8525 29.8694 30.5242 29.8694 32.5875C29.8694 33.0442 29.9577 33.4809 30.1094 33.8859C30.6411 35.3075 32.0177 36.3225 33.6394 36.3225C34.161 36.3225 34.6577 36.2175 35.1094 36.0292C36.461 35.4609 37.411 34.1342 37.411 32.5875C37.411 30.5242 35.7227 28.8525 33.6394 28.8525Z" fill="#3B8EF3"/>
<path fill-rule="evenodd" clip-rule="evenodd" d="M6.36066 11.1477C6.86732 11.1477 7.35066 11.0477 7.79066 10.8677C9.16399 10.3094 10.1307 8.97273 10.1307 7.41273C10.1307 5.3494 8.44232 3.67773 6.36066 3.67773C4.34732 3.67773 2.70899 5.24107 2.60066 7.2094C2.59732 7.27607 2.58899 7.3444 2.58899 7.41273C2.58899 9.47607 4.27732 11.1477 6.36066 11.1477Z" fill="#3B8EF3"/>
<path fill-rule="evenodd" clip-rule="evenodd" d="M7.46588 29.9575C5.38921 29.9575 3.69421 31.6359 3.69421 33.6925C3.69421 35.7509 5.38921 37.4292 7.46588 37.4292C9.54088 37.4292 11.2359 35.7509 11.2359 33.6925C11.2359 31.6359 9.54088 29.9575 7.46588 29.9575Z" fill="#3B8EF3"/>
<mask id="mask0" mask-type="alpha" maskUnits="userSpaceOnUse" x="1" y="16" width="9" height="14">
<path fill-rule="evenodd" clip-rule="evenodd" d="M1.66663 29.4434V16.6768L9.27029 16.6768V29.4434H1.66663Z" fill="white"/>
</mask>
<g mask="url(#mask0)">
<path fill-rule="evenodd" clip-rule="evenodd" d="M4.29206 29.4434C5.17872 28.7918 6.27539 28.4068 7.46539 28.4068C8.09872 28.4068 8.70706 28.5168 9.27039 28.7168C9.25706 28.3951 9.18039 27.8218 8.86039 27.1518C8.36539 26.1151 7.49539 25.0768 6.15706 23.6084C4.81872 22.1384 3.69539 21.1501 2.96039 19.9101C2.22539 18.6718 2.08539 16.6768 2.08539 16.6768C2.08539 16.6768 1.38706 20.8118 1.79372 23.6934C2.20039 26.5751 4.29206 29.4434 4.29206 29.4434Z" fill="#3B8EF3"/>
</g>
<path fill-rule="evenodd" clip-rule="evenodd" d="M28.304 32.5879C28.304 31.9595 28.4157 31.3562 28.6174 30.7979C28.2924 30.8129 27.714 30.8879 27.0374 31.2045C25.9907 31.6945 24.944 32.5579 23.4607 33.8845C21.9774 35.2095 20.979 36.3245 19.729 37.0512C19.3124 37.2945 18.814 37.4695 18.3307 37.5979C17.3624 37.8562 16.4657 37.9195 16.4657 37.9195C16.4657 37.9195 17.2324 38.0445 18.3357 38.1579C19.809 38.3095 21.884 38.4379 23.5474 38.2079C24.6257 38.0579 25.7007 37.6779 26.6274 37.2612C28.2024 36.5512 29.3507 35.7312 29.3507 35.7312C29.1807 35.5045 29.0307 35.2629 28.8974 35.0112C28.519 34.2862 28.304 33.4612 28.304 32.5879Z" fill="#3B8EF3"/>
<path fill-rule="evenodd" clip-rule="evenodd" d="M21.8832 4.56194C22.9015 5.33194 24.4148 6.86694 25.4315 7.58694C26.4482 8.30861 27.7515 8.49694 27.7515 8.49694C27.4482 7.83194 27.2798 7.09527 27.2798 6.32027C27.2798 5.32527 27.5565 4.39527 28.0382 3.60027C27.4382 3.22694 27.4348 2.91194 24.8798 2.63027C22.3232 2.34861 19.6282 3.95694 19.6282 3.95694C19.6282 3.95694 20.8665 3.79027 21.8832 4.56194Z" fill="#3B8EF3"/>
<path fill-rule="evenodd" clip-rule="evenodd" d="M32.5342 10.0425C34.6108 10.0425 36.3058 8.36413 36.3058 6.3058C36.3058 4.24913 34.6108 2.5708 32.5342 2.5708C30.4592 2.5708 28.7642 4.24913 28.7642 6.3058C28.7642 8.36413 30.4592 10.0425 32.5342 10.0425Z" fill="#3B8EF3"/>
<mask id="mask1" mask-type="alpha" maskUnits="userSpaceOnUse" x="30" y="10" width="9" height="14">
<path fill-rule="evenodd" clip-rule="evenodd" d="M38.3333 10.5562V23.3228H30.7296V10.5562H38.3333V10.5562Z" fill="white"/>
</mask>
<g mask="url(#mask1)">
<path fill-rule="evenodd" clip-rule="evenodd" d="M38.2063 16.3062C37.7979 13.4245 35.7079 10.5562 35.7079 10.5562C34.8213 11.2078 33.7246 11.5928 32.5346 11.5928C31.9013 11.5928 31.2929 11.4828 30.7296 11.2828C30.7413 11.6045 30.8196 12.1778 31.1396 12.8478C31.6329 13.8862 32.5046 14.9228 33.8429 16.3928C35.1813 17.8628 36.3046 18.8495 37.0396 20.0895C37.7746 21.3295 37.9146 23.3228 37.9146 23.3228C37.9146 23.3228 38.6129 19.1878 38.2063 16.3062Z" fill="#3B8EF3"/>
</g>
</svg>
