<svg width="22" height="22" viewBox="0 0 22 22" fill="none" xmlns="http://www.w3.org/2000/svg">
<rect x="1" y="1" width="20" height="20" rx="3" stroke="white" stroke-width="2"/>
<path d="M16.5323 7.50254C16.0991 6.98763 15.2994 6.77759 13.772 6.77759H8.22785C6.66556 6.77759 5.85227 7.00118 5.42074 7.54938C5 8.08388 5 8.87143 5 9.96142V12.0389C5 14.1506 5.4992 15.2227 8.22785 15.2227H13.7721C15.0966 15.2227 15.8305 15.0374 16.3053 14.583C16.7922 14.117 17 13.3561 17 12.0389V9.96142C17 8.81194 16.9674 8.01974 16.5323 7.50254ZM12.704 11.287L10.1864 12.6028C10.1302 12.6322 10.0686 12.6468 10.0071 12.6468C9.93754 12.6468 9.86809 12.6281 9.80658 12.5908C9.69076 12.5206 9.62004 12.3951 9.62004 12.2597V9.63657C9.62004 9.50139 9.69057 9.37597 9.80615 9.30576C9.92178 9.23554 10.0656 9.23074 10.1855 9.29306L12.7031 10.6004C12.8312 10.6669 12.9117 10.7991 12.9119 10.9434C12.912 11.0878 12.8319 11.2202 12.704 11.287Z" fill="white"/>
</svg>
