<svg width="40" height="40" viewBox="0 0 40 40" fill="none" xmlns="http://www.w3.org/2000/svg">
<path fill-rule="evenodd" clip-rule="evenodd" d="M33.3333 1.6665H6.66663C3.90496 1.6665 1.66663 3.90484 1.66663 6.6665V33.3332C1.66663 36.0948 3.90496 38.3332 6.66663 38.3332H33.3333C36.095 38.3332 38.3333 36.0948 38.3333 33.3332V6.6665C38.3333 3.90484 36.095 1.6665 33.3333 1.6665ZM33.3333 4.99984C34.2533 4.99984 35 5.7465 35 6.6665V33.3332C35 34.2532 34.2533 34.9998 33.3333 34.9998H6.66663C5.74663 34.9998 4.99996 34.2532 4.99996 33.3332V6.6665C4.99996 5.7465 5.74663 4.99984 6.66663 4.99984H33.3333Z" fill="#3B8EF3"/>
<path fill-rule="evenodd" clip-rule="evenodd" d="M13.3334 25H10C9.07837 25 8.33337 25.745 8.33337 26.6667V30C8.33337 30.9217 9.07837 31.6667 10 31.6667H13.3334C14.255 31.6667 15 30.9217 15 30V26.6667C15 25.745 14.255 25 13.3334 25ZM10 30H13.3334V26.6667H10V30Z" fill="#3B8EF3"/>
<path fill-rule="evenodd" clip-rule="evenodd" d="M11.6667 15.0002C11.4917 15.0002 11.3217 14.9319 11.1967 14.8052L8.52837 12.1369C8.26837 11.8769 8.26837 11.4552 8.52837 11.1952C8.78837 10.9352 9.21004 10.9352 9.47171 11.1952L11.485 13.2085L13.7367 8.70186C13.9034 8.37186 14.3034 8.24019 14.6317 8.40353C14.9617 8.56853 15.095 8.96853 14.93 9.29686L12.2634 14.6319C12.1667 14.8235 11.9834 14.9585 11.7734 14.9919C11.7384 14.9969 11.7017 15.0002 11.6667 15.0002Z" fill="#3B8EF3"/>
<path fill-rule="evenodd" clip-rule="evenodd" d="M11.6667 23.3332C11.4917 23.3332 11.3217 23.2649 11.1967 23.1382L8.52837 20.4699C8.26837 20.2099 8.26837 19.7882 8.52837 19.5282C8.78837 19.2682 9.21004 19.2682 9.47171 19.5282L11.485 21.5415L13.7367 17.0349C13.9034 16.7049 14.3034 16.5732 14.6317 16.7365C14.9617 16.9015 15.095 17.3015 14.93 17.6299L12.2634 22.9649C12.1667 23.1565 11.9834 23.2915 11.7734 23.3249C11.7384 23.3299 11.7017 23.3332 11.6667 23.3332Z" fill="#3B8EF3"/>
<path fill-rule="evenodd" clip-rule="evenodd" d="M30.9262 13.3332H19.0746C18.6662 13.3332 18.3329 12.9598 18.3329 12.4998C18.3329 12.0398 18.6662 11.6665 19.0746 11.6665H30.9262C31.3346 11.6665 31.6662 12.0398 31.6662 12.4998C31.6662 12.9598 31.3346 13.3332 30.9262 13.3332Z" fill="#3B8EF3"/>
<path fill-rule="evenodd" clip-rule="evenodd" d="M30.9262 21.6667H19.0746C18.6662 21.6667 18.3329 21.2933 18.3329 20.8333C18.3329 20.3733 18.6662 20 19.0746 20H30.9262C31.3346 20 31.6662 20.3733 31.6662 20.8333C31.6662 21.2933 31.3346 21.6667 30.9262 21.6667Z" fill="#3B8EF3"/>
<path fill-rule="evenodd" clip-rule="evenodd" d="M30.9262 30.0002H19.0746C18.6662 30.0002 18.3329 29.6268 18.3329 29.1668C18.3329 28.7068 18.6662 28.3335 19.0746 28.3335H30.9262C31.3346 28.3335 31.6662 28.7068 31.6662 29.1668C31.6662 29.6268 31.3346 30.0002 30.9262 30.0002Z" fill="#3B8EF3"/>
</svg>
