<svg width="24" height="24" viewBox="0 0 24 24" fill="none" xmlns="http://www.w3.org/2000/svg">
<path fill-rule="evenodd" clip-rule="evenodd" d="M14 16.5C13.857 16.5 13.715 16.439 13.616 16.32L11.616 13.92C11.541 13.831 11.5 13.717 11.5 13.6V9C11.5 8.724 11.724 8.5 12 8.5C12.276 8.5 12.5 8.724 12.5 9V13.419L14.384 15.68C14.561 15.892 14.532 16.208 14.32 16.384C14.227 16.462 14.113 16.5 14 16.5Z" fill="white"/>
<path fill-rule="evenodd" clip-rule="evenodd" d="M15 3H9C8.447 3 8 2.552 8 2C8 1.448 8.447 1 9 1H15C15.553 1 16 1.448 16 2C16 2.552 15.553 3 15 3Z" fill="white"/>
<path fill-rule="evenodd" clip-rule="evenodd" d="M12.5 19.9745V18.9995C12.5 18.7235 12.276 18.4995 12 18.4995C11.724 18.4995 11.5 18.7235 11.5 18.9995V19.9745C8.208 19.7405 5.544 17.2245 5.08 13.9995H6C6.276 13.9995 6.5 13.7765 6.5 13.4995C6.5 13.2235 6.276 12.9995 6 12.9995H5C5 9.30851 7.874 6.28351 11.5 6.02551V6.99951C11.5 7.27651 11.724 7.49951 12 7.49951C12.276 7.49951 12.5 7.27651 12.5 6.99951V6.02551C16.126 6.28351 19 9.30851 19 12.9995H18C17.724 12.9995 17.5 13.2235 17.5 13.4995C17.5 13.7765 17.724 13.9995 18 13.9995H18.92C18.456 17.2245 15.792 19.7405 12.5 19.9745ZM12 3.99951C7.029 3.99951 3 8.02951 3 12.9995C3 17.9705 7.029 21.9995 12 21.9995C16.971 21.9995 21 17.9705 21 12.9995C21 8.02951 16.971 3.99951 12 3.99951Z" fill="white"/>
</svg>
