<svg width="26" height="26" viewBox="0 0 26 26" fill="none" xmlns="http://www.w3.org/2000/svg">
<g clip-path="url(#clip0)">
<path d="M18 9.89938C17.6281 10.0625 17.2319 10.1706 16.8187 10.2231C17.2437 9.96938 17.5681 9.57062 17.7206 9.09C17.3244 9.32625 16.8869 9.49313 16.4206 9.58625C16.0444 9.18563 15.5081 8.9375 14.9231 8.9375C13.7881 8.9375 12.8744 9.85875 12.8744 10.9881C12.8744 11.1506 12.8881 11.3069 12.9219 11.4556C11.2175 11.3725 9.70938 10.5556 8.69625 9.31125C8.51937 9.61813 8.41563 9.96938 8.41563 10.3475C8.41563 11.0575 8.78125 11.6869 9.32625 12.0512C8.99687 12.045 8.67375 11.9494 8.4 11.7987C8.4 11.805 8.4 11.8131 8.4 11.8212C8.4 12.8175 9.11062 13.645 10.0425 13.8356C9.87562 13.8812 9.69375 13.9031 9.505 13.9031C9.37375 13.9031 9.24125 13.8956 9.11687 13.8681C9.3825 14.68 10.1363 15.2769 11.0325 15.2962C10.335 15.8419 9.44938 16.1706 8.49063 16.1706C8.3225 16.1706 8.16125 16.1631 8 16.1425C8.90812 16.7281 9.98438 17.0625 11.145 17.0625C14.9175 17.0625 16.98 13.9375 16.98 11.2287C16.98 11.1381 16.9769 11.0506 16.9725 10.9638C17.3794 10.675 17.7212 10.3144 18 9.89938Z" fill="white"/>
</g>
<rect x="3" y="3" width="20" height="20" rx="3" stroke="white" stroke-width="2"/>
<defs>
<clipPath id="clip0">
<rect width="10" height="10" fill="white" transform="translate(8 8)"/>
</clipPath>
</defs>
</svg>
