<svg width="40" height="40" viewBox="0 0 40 40" fill="none" xmlns="http://www.w3.org/2000/svg">
<path fill-rule="evenodd" clip-rule="evenodd" d="M35 33.3332C35 34.2365 34.2366 34.9998 33.3333 34.9998H6.66663C5.76329 34.9998 4.99996 34.2365 4.99996 33.3332V29.9998H35V33.3332ZM9.48829 16.6665H21.6666H28.3333H30.5116L34.2616 26.6665H5.73829L9.48829 16.6665ZM23.3333 13.3332H26.6666V11.6665H23.3333V13.3332ZM20 4.99984H30V8.33317H28.3333H21.6666H20V4.99984ZM38.3216 28.3748C38.3266 28.1632 38.3033 27.9515 38.2283 27.7482L33.2283 14.4148C32.9833 13.7648 32.3616 13.3332 31.6666 13.3332H30V11.6665H31.6666C32.5883 11.6665 33.3333 10.9198 33.3333 9.99984V3.33317C33.3333 2.41317 32.5883 1.6665 31.6666 1.6665H18.3333C17.4116 1.6665 16.6666 2.41317 16.6666 3.33317V9.99984C16.6666 10.9198 17.4116 11.6665 18.3333 11.6665H20V13.3332H8.33329C7.63829 13.3332 7.01663 13.7648 6.77163 14.4148L1.77163 27.7482C1.68329 27.9848 1.65663 28.2348 1.67996 28.4798C1.67829 28.5015 1.66663 28.5182 1.66663 28.5398V33.3332C1.66663 36.0832 3.91663 38.3332 6.66663 38.3332H33.3333C36.0833 38.3332 38.3333 36.0832 38.3333 33.3332V28.4348C38.3333 28.4132 38.3216 28.3965 38.3216 28.3748Z" fill="#3B8EF3"/>
<path fill-rule="evenodd" clip-rule="evenodd" d="M19.1666 20.0002H17.5C17.0416 20.0002 16.6666 19.6252 16.6666 19.1668C16.6666 18.7085 17.0416 18.3335 17.5 18.3335H19.1666C19.625 18.3335 20 18.7085 20 19.1668C20 19.6252 19.625 20.0002 19.1666 20.0002Z" fill="#3B8EF3"/>
<path fill-rule="evenodd" clip-rule="evenodd" d="M19.1666 23.3332H17.5C17.0416 23.3332 16.6666 22.9582 16.6666 22.4998C16.6666 22.0415 17.0416 21.6665 17.5 21.6665H19.1666C19.625 21.6665 20 22.0415 20 22.4998C20 22.9582 19.625 23.3332 19.1666 23.3332Z" fill="#3B8EF3"/>
<path fill-rule="evenodd" clip-rule="evenodd" d="M29.1666 33.3332H22.5C22.0416 33.3332 21.6666 32.9582 21.6666 32.4998C21.6666 32.0415 22.0416 31.6665 22.5 31.6665H29.1666C29.625 31.6665 30 32.0415 30 32.4998C30 32.9582 29.625 33.3332 29.1666 33.3332Z" fill="#3B8EF3"/>
<path fill-rule="evenodd" clip-rule="evenodd" d="M24.1666 20.0002H22.5C22.0416 20.0002 21.6666 19.6252 21.6666 19.1668C21.6666 18.7085 22.0416 18.3335 22.5 18.3335H24.1666C24.625 18.3335 25 18.7085 25 19.1668C25 19.6252 24.625 20.0002 24.1666 20.0002Z" fill="#3B8EF3"/>
<path fill-rule="evenodd" clip-rule="evenodd" d="M24.1666 23.3332H22.5C22.0416 23.3332 21.6666 22.9582 21.6666 22.4998C21.6666 22.0415 22.0416 21.6665 22.5 21.6665H24.1666C24.625 21.6665 25 22.0415 25 22.4998C25 22.9582 24.625 23.3332 24.1666 23.3332Z" fill="#3B8EF3"/>
<path fill-rule="evenodd" clip-rule="evenodd" d="M29.1666 20.0002H27.5C27.0416 20.0002 26.6666 19.6252 26.6666 19.1668C26.6666 18.7085 27.0416 18.3335 27.5 18.3335H29.1666C29.625 18.3335 30 18.7085 30 19.1668C30 19.6252 29.625 20.0002 29.1666 20.0002Z" fill="#3B8EF3"/>
<path fill-rule="evenodd" clip-rule="evenodd" d="M29.1666 23.3332H27.5C27.0416 23.3332 26.6666 22.9582 26.6666 22.4998C26.6666 22.0415 27.0416 21.6665 27.5 21.6665H29.1666C29.625 21.6665 30 22.0415 30 22.4998C30 22.9582 29.625 23.3332 29.1666 23.3332Z" fill="#3B8EF3"/>
</svg>
