<svg width="40" height="40" viewBox="0 0 40 40" fill="none" xmlns="http://www.w3.org/2000/svg">
<path fill-rule="evenodd" clip-rule="evenodd" d="M26.7756 32.1738H22.2106C21.7906 32.1738 21.449 32.5138 21.449 32.9355C21.449 33.3555 21.7906 33.6955 22.2106 33.6955H26.7756C27.1956 33.6955 27.5356 33.3555 27.5356 32.9355C27.5356 32.5138 27.1956 32.1738 26.7756 32.1738Z" fill="#3B8EF3"/>
<path fill-rule="evenodd" clip-rule="evenodd" d="M34.3327 29.1299H19.166C18.746 29.1299 18.406 29.4715 18.406 29.8916C18.406 30.3116 18.746 30.6516 19.166 30.6516H34.3327C34.7527 30.6516 35.0927 30.3116 35.0927 29.8916C35.0927 29.4715 34.7527 29.1299 34.3327 29.1299Z" fill="#3B8EF3"/>
<path fill-rule="evenodd" clip-rule="evenodd" d="M34.3327 7.82617H14.6527C14.2327 7.82617 13.8927 8.16617 13.8927 8.58784C13.8927 9.00617 14.2327 9.34784 14.6527 9.34784H34.3327C34.7527 9.34784 35.0927 9.00617 35.0927 8.58784C35.0927 8.16617 34.7527 7.82617 34.3327 7.82617Z" fill="#3B8EF3"/>
<path fill-rule="evenodd" clip-rule="evenodd" d="M13.0795 20.4136C10.2895 20.4136 7.49952 21.5419 5.37786 23.7969C4.90286 24.3019 4.90286 25.1236 5.37786 25.6336C5.61452 25.8869 5.92786 26.0136 6.24119 26.0136C6.55452 26.0136 6.86786 25.8869 7.10786 25.6336C8.75452 23.8852 10.9179 23.0119 13.0829 23.0119C15.2462 23.0119 17.4095 23.8852 19.0562 25.6336C19.2945 25.8869 19.6062 26.0152 19.9195 26.0152C20.2312 26.0152 20.5445 25.8869 20.7812 25.6336C21.2579 25.1302 21.2579 24.3069 20.7812 23.7969C18.6595 21.5419 15.8695 20.4136 13.0795 20.4136Z" fill="#3B8EF3"/>
<path fill-rule="evenodd" clip-rule="evenodd" d="M13.0762 25.3726C11.4845 25.3726 9.89283 26.0159 8.67949 27.3026C8.20449 27.8076 8.20449 28.6292 8.67949 29.1392C8.91949 29.3926 9.23116 29.5192 9.54449 29.5192C9.85616 29.5192 10.1712 29.3926 10.4112 29.1392C11.1462 28.3576 12.1128 27.9659 13.0795 27.9659C14.0462 27.9659 15.0128 28.3576 15.7495 29.1392C15.9862 29.3926 16.2995 29.5209 16.6112 29.5209C16.9245 29.5209 17.2362 29.3926 17.4745 29.1392C17.9495 28.6359 17.9495 27.8126 17.4745 27.3076C16.2628 26.0176 14.6695 25.3726 13.0762 25.3726Z" fill="#3B8EF3"/>
<path fill-rule="evenodd" clip-rule="evenodd" d="M13.0795 30.4458C12.2395 30.4458 11.5579 31.1275 11.5579 31.9675C11.5579 32.8075 12.2395 33.4891 13.0795 33.4891C13.9212 33.4891 14.6012 32.8075 14.6012 31.9675C14.6012 31.1275 13.9212 30.4458 13.0795 30.4458Z" fill="#3B8EF3"/>
<path fill-rule="evenodd" clip-rule="evenodd" d="M13.0795 15.4346C9.07621 15.4346 5.07121 17.0512 2.02288 20.2846C1.54788 20.7896 1.54788 21.6129 2.02288 22.1229C2.26121 22.3746 2.57288 22.5012 2.88788 22.5012C3.19954 22.5012 3.51454 22.3746 3.75454 22.1229C6.32454 19.3912 9.70288 18.0262 13.0812 18.0262C16.4579 18.0262 19.8379 19.3912 22.4112 22.1229C22.6479 22.3746 22.9612 22.5029 23.2729 22.5029C23.5862 22.5029 23.8979 22.3746 24.1362 22.1229C24.6112 21.6162 24.6112 20.7946 24.1362 20.2846C21.0879 17.0512 17.0829 15.4346 13.0795 15.4346Z" fill="#3B8EF3"/>
<path fill-rule="evenodd" clip-rule="evenodd" d="M32.1011 1.73926H16.8845C14.3728 1.73926 12.3195 3.79259 12.3195 6.30426V13.7559C12.5728 13.7443 12.8278 13.7376 13.0795 13.7376C13.8428 13.7376 14.6045 13.7959 15.3628 13.9126V6.30426C15.3628 5.47926 16.0595 4.78259 16.8845 4.78259H32.1011C32.9261 4.78259 33.6228 5.47926 33.6228 6.30426V33.6959C33.6228 34.5209 32.9261 35.2176 32.1011 35.2176H16.8845C16.8845 35.2176 15.3628 35.2176 15.3628 33.6959C15.3628 33.6959 15.3628 35.2176 13.8411 35.2176H12.3195C12.3195 36.7393 14.3728 38.2609 16.8845 38.2609H32.1011C34.6128 38.2609 36.6661 36.2059 36.6661 33.6959V6.30426C36.6661 3.79259 34.6128 1.73926 32.1011 1.73926Z" fill="#3B8EF3"/>
</svg>
