<svg width="24" height="24" viewBox="0 0 24 24" fill="none" xmlns="http://www.w3.org/2000/svg">
<path fill-rule="evenodd" clip-rule="evenodd" d="M20 19C20 19.542 19.542 20 19 20H5C4.458 20 4 19.542 4 19V12.532L10.971 16.715L11.953 17.304L12.958 16.756L20 12.915V19ZM7 4H17V9V11V11.839L12 14.696L7 11.839V11V9V4ZM21.941 11.421C21.93 11.361 21.906 11.305 21.889 11.248C21.866 11.17 21.847 11.092 21.82 11.017C21.806 10.976 21.797 10.932 21.781 10.892C21.773 10.874 21.771 10.854 21.764 10.835C21.687 10.656 21.594 10.485 21.486 10.326C21.402 10.202 21.302 10.091 21.201 9.981C21.042 9.808 20.87 9.646 20.674 9.514C20.195 9.19 19.619 9 19 9V4C19 2.9 18.1 2 17 2H7C5.9 2 5 2.9 5 4V9C4.381 9 3.805 9.19 3.326 9.514C3.255 9.562 3.195 9.624 3.129 9.677H3.128C3.029 9.757 2.947 9.854 2.859 9.946C2.801 10.006 2.733 10.059 2.681 10.125C2.672 10.135 2.663 10.145 2.654 10.156C2.609 10.213 2.556 10.265 2.514 10.326C2.448 10.423 2.399 10.531 2.346 10.635C2.33 10.666 2.312 10.694 2.297 10.725C2.279 10.763 2.253 10.796 2.236 10.835C2.186 10.956 2.154 11.085 2.119 11.213C2.113 11.233 2.107 11.253 2.101 11.272C2.092 11.297 2.083 11.321 2.077 11.347C2.029 11.558 2 11.775 2 12V19C2 19.413 2.084 19.806 2.236 20.165C2.313 20.344 2.406 20.515 2.514 20.674C2.73 20.994 3.006 21.27 3.326 21.486C3.805 21.81 4.381 22 5 22H19C19.619 22 20.195 21.81 20.674 21.486C20.994 21.27 21.27 20.994 21.486 20.674C21.594 20.515 21.687 20.344 21.764 20.165C21.916 19.806 22 19.413 22 19V12C22 11.802 21.979 11.609 21.941 11.421Z" fill="white"/>
<path fill-rule="evenodd" clip-rule="evenodd" d="M14.5 7H9.5C9.224 7 9 6.776 9 6.5C9 6.224 9.224 6 9.5 6H14.5C14.776 6 15 6.224 15 6.5C15 6.776 14.776 7 14.5 7Z" fill="white"/>
<path fill-rule="evenodd" clip-rule="evenodd" d="M14.5 9H9.5C9.224 9 9 8.776 9 8.5C9 8.224 9.224 8 9.5 8H14.5C14.776 8 15 8.224 15 8.5C15 8.776 14.776 9 14.5 9Z" fill="white"/>
<path fill-rule="evenodd" clip-rule="evenodd" d="M14.5 11H9.5C9.224 11 9 10.776 9 10.5C9 10.224 9.224 10 9.5 10H14.5C14.776 10 15 10.224 15 10.5C15 10.776 14.776 11 14.5 11Z" fill="white"/>
</svg>
