<svg width="40" height="40" viewBox="0 0 40 40" fill="none" xmlns="http://www.w3.org/2000/svg">
<path fill-rule="evenodd" clip-rule="evenodd" d="M17.8108 19.8325C17.6592 19.6825 17.5675 19.4741 17.5675 19.2425C17.5675 18.7825 17.9392 18.4091 18.4008 18.4091H23.4592L20.1675 15.1191C19.9292 14.8808 19.8575 14.5208 19.9875 14.2108C20.1158 13.8991 20.4192 13.6958 20.7575 13.6958H27.8275C28.2875 13.6958 28.6608 14.0691 28.6608 14.5291C28.6608 14.9908 28.2875 15.3625 27.8275 15.3625H22.7692L26.0592 18.6541C26.2975 18.8941 26.3692 19.2508 26.2408 19.5625C26.1108 19.8725 25.8058 20.0758 25.4708 20.0758H18.4008C18.1692 20.0758 17.9608 19.9841 17.8108 19.8325Z" fill="#3B8EF3"/>
<path fill-rule="evenodd" clip-rule="evenodd" d="M33.1316 19.8324L26.0599 26.9041C25.4216 27.5424 24.3416 27.5424 23.7032 26.9041L13.0966 16.2974C12.4582 15.6591 12.4582 14.5791 13.0966 13.9407L20.1682 6.86908C20.8049 6.23074 21.8849 6.23074 22.5249 6.86908L33.1316 17.4757C33.7699 18.1157 33.7699 19.1941 33.1316 19.8324ZM37.8449 8.04908C37.1949 7.39574 36.1399 7.39574 35.4882 8.04908L31.9516 11.5841L28.4166 8.04908L31.9516 4.51241C32.6049 3.86074 32.6049 2.80574 31.9516 2.15574C31.2999 1.50408 30.2482 1.50408 29.5949 2.15574L26.0599 5.69074L24.8816 4.51241C22.9366 2.56908 19.7549 2.56908 17.8099 4.51241L10.7382 11.5841C8.79322 13.5291 8.79322 16.7107 10.7382 18.6541L14.8632 22.7807L11.2166 26.4257L7.19322 25.0857C6.59322 24.8841 5.93489 25.0424 5.48822 25.4891L3.82155 27.1557C3.37489 27.6007 3.21989 28.2624 3.41989 28.8607L4.75989 32.8824L2.15489 35.4891C1.50322 36.1391 1.50322 37.1941 2.15489 37.8457C2.47989 38.1707 2.90655 38.3341 3.33322 38.3341C3.75989 38.3341 4.18655 38.1707 4.51155 37.8457L7.84489 34.5124C8.29155 34.0657 8.44655 33.4057 8.24655 32.8057L6.90822 28.7841L7.11822 28.5741L11.1399 29.9141C11.7399 30.1174 12.3999 29.9574 12.8449 29.5124L17.2199 25.1374L21.3466 29.2607C23.2916 31.2057 26.4716 31.2057 28.4166 29.2607L35.4882 22.1891C37.4316 20.2457 37.4316 17.0641 35.4882 15.1191L34.3099 13.9407L37.8449 10.4057C38.4966 9.75408 38.4966 8.69908 37.8449 8.04908Z" fill="#3B8EF3"/>
</svg>
