<svg width="26" height="26" viewBox="0 0 26 26" fill="none" xmlns="http://www.w3.org/2000/svg">
<path fill-rule="evenodd" clip-rule="evenodd" d="M20.5834 2.16675H5.41669C3.62919 2.16675 2.16669 3.62925 2.16669 5.41675V20.5834C2.16669 22.3709 3.62919 23.8334 5.41669 23.8334H20.5834C22.3709 23.8334 23.8334 22.3709 23.8334 20.5834V5.41675C23.8334 3.62925 22.3709 2.16675 20.5834 2.16675ZM20.5834 4.33341C21.1705 4.33341 21.6667 4.82958 21.6667 5.41675V20.5834C21.6667 21.1706 21.1705 21.6667 20.5834 21.6667H5.41669C4.82952 21.6667 4.33335 21.1706 4.33335 20.5834V5.41675C4.33335 4.82958 4.82952 4.33341 5.41669 4.33341H20.5834Z" fill="white"/>
<path fill-rule="evenodd" clip-rule="evenodd" d="M10.0677 6.5H15.8605C17.8278 6.5 19.4283 8.10053 19.4283 10.0677V15.8605C19.4283 17.8277 17.8278 19.4283 15.8605 19.4283H10.0677C8.10045 19.4283 6.5 17.8278 6.5 15.8605V10.0677C6.5 8.10053 8.10045 6.5 10.0677 6.5ZM15.8605 18.2812C17.1953 18.2812 18.2813 17.1953 18.2813 15.8605H18.2812V10.0677C18.2812 8.73302 17.1953 7.64706 15.8605 7.64706H10.0677C8.73294 7.64706 7.64706 8.73302 7.64706 10.0677V15.8605C7.64706 17.1953 8.73294 18.2813 10.0677 18.2812H15.8605Z" fill="white"/>
<path fill-rule="evenodd" clip-rule="evenodd" d="M9.63287 12.9643C9.63287 11.1274 11.1273 9.63306 12.9642 9.63306C14.8011 9.63306 16.2955 11.1274 16.2955 12.9643C16.2955 14.8012 14.8011 16.2955 12.9642 16.2955C11.1273 16.2955 9.63287 14.8012 9.63287 12.9643ZM10.7799 12.9643C10.7799 14.1686 11.7598 15.1483 12.9642 15.1483C14.1685 15.1483 15.1484 14.1686 15.1484 12.9643C15.1484 11.7599 14.1686 10.78 12.9642 10.78C11.7598 10.78 10.7799 11.7599 10.7799 12.9643Z" fill="white"/>
<path d="M16.4351 8.6604C16.2141 8.6604 15.997 8.74987 15.8409 8.90664C15.6841 9.06264 15.5939 9.27981 15.5939 9.50158C15.5939 9.72265 15.6842 9.93975 15.8409 10.0965C15.9969 10.2525 16.2141 10.3428 16.4351 10.3428C16.6569 10.3428 16.8733 10.2525 17.0301 10.0965C17.1868 9.93975 17.2763 9.72258 17.2763 9.50158C17.2763 9.27981 17.1868 9.06264 17.0301 8.90664C16.8741 8.74987 16.6569 8.6604 16.4351 8.6604Z" fill="white"/>
</svg>
