<svg width="40" height="40" viewBox="0 0 40 40" fill="none" xmlns="http://www.w3.org/2000/svg">
<path fill-rule="evenodd" clip-rule="evenodd" d="M16.4061 29.3057H12.3428C11.9695 29.3057 11.6661 29.6157 11.6661 30.0007C11.6661 30.384 11.9695 30.694 12.3428 30.694H16.4061C16.7811 30.694 17.0828 30.384 17.0828 30.0007C17.0828 29.6157 16.7811 29.3057 16.4061 29.3057Z" fill="#3B8EF3"/>
<path fill-rule="evenodd" clip-rule="evenodd" d="M31.6667 5H20C17.25 5 15 7.25 15 10V33.3333C15 36.0833 17.25 38.3333 20 38.3333H31.6667C34.4167 38.3333 36.6667 36.0833 36.6667 33.3333V10C36.6667 7.25 34.4167 5 31.6667 5ZM31.6667 8.33333C32.57 8.33333 33.3333 9.09667 33.3333 10V33.3333C33.3333 34.2367 32.57 35 31.6667 35H20C19.0967 35 18.3333 34.2367 18.3333 33.3333V10C18.3333 9.09667 19.0967 8.33333 20 8.33333H31.6667Z" fill="#3B8EF3"/>
<path fill-rule="evenodd" clip-rule="evenodd" d="M27.8646 32.7773H23.8013C23.428 32.7773 23.1246 33.089 23.1246 33.4723C23.1246 33.8557 23.428 34.1657 23.8013 34.1657H27.8646C28.2396 34.1657 28.5413 33.8557 28.5413 33.4723C28.5413 33.089 28.2396 32.7773 27.8646 32.7773Z" fill="#3B8EF3"/>
<path fill-rule="evenodd" clip-rule="evenodd" d="M34.5898 30H17.0764C16.7031 30 16.3998 30.3117 16.3998 30.695C16.3998 31.0783 16.7031 31.3883 17.0764 31.3883H34.5898C34.9648 31.3883 35.2664 31.0783 35.2664 30.695C35.2664 30.3117 34.9648 30 34.5898 30Z" fill="#3B8EF3"/>
<path fill-rule="evenodd" clip-rule="evenodd" d="M34.5898 10.5557H17.0764C16.7031 10.5557 16.3998 10.8657 16.3998 11.2507C16.3998 11.634 16.7031 11.944 17.0764 11.944H34.5898C34.9648 11.944 35.2664 11.634 35.2664 11.2507C35.2664 10.8657 34.9648 10.5557 34.5898 10.5557Z" fill="#3B8EF3"/>
<path fill-rule="evenodd" clip-rule="evenodd" d="M16.1881 8.3335H3.81146C3.54813 8.3335 3.33313 8.64516 3.33313 9.0285C3.33313 9.41183 3.54813 9.72183 3.81146 9.72183H16.1881C16.4515 9.72183 16.6665 9.41183 16.6665 9.0285C16.6665 8.64516 16.4515 8.3335 16.1881 8.3335Z" fill="#3B8EF3"/>
<path fill-rule="evenodd" clip-rule="evenodd" d="M16.2386 26.6665H5.16198C4.92531 26.6665 4.73364 27.0398 4.73364 27.4998C4.73364 27.9598 4.92531 28.3332 5.16198 28.3332H16.2386C16.4753 28.3332 16.667 27.9598 16.667 27.4998C16.667 27.0398 16.4753 26.6665 16.2386 26.6665Z" fill="#3B8EF3"/>
<path fill-rule="evenodd" clip-rule="evenodd" d="M20 1.6665H8.33337C5.58337 1.6665 3.33337 3.9165 3.33337 6.6665V29.9998C3.33337 32.7498 5.58337 34.9998 8.33337 34.9998H15.31C15.12 34.4765 15 33.9198 15 33.3332V31.6665H8.33337C7.43004 31.6665 6.66671 30.9032 6.66671 29.9998V6.6665C6.66671 5.76317 7.43004 4.99984 8.33337 4.99984H20H24.69C23.9984 3.0665 22.1634 1.6665 20 1.6665Z" fill="#3B8EF3"/>
</svg>
