<svg width="40" height="40" viewBox="0 0 40 40" fill="none" xmlns="http://www.w3.org/2000/svg">
<path fill-rule="evenodd" clip-rule="evenodd" d="M20 1.6665C19.5334 1.6665 19.065 1.89984 18.8017 2.36817C15.8267 7.65484 8.33337 19.9998 8.33337 26.6532C8.33337 33.1032 13.5567 38.3332 20 38.3332C26.4434 38.3332 31.6667 33.1032 31.6667 26.6532C31.6667 19.9998 24.1734 7.65484 21.1984 2.36817C20.935 1.89984 20.4667 1.6665 20 1.6665ZM20 6.99817C23.085 12.4115 28.3334 21.9215 28.3334 26.6532C28.3334 31.2548 24.595 34.9998 20 34.9998C15.405 34.9998 11.6667 31.2548 11.6667 26.6532C11.6667 21.9215 16.915 12.4115 20 6.99817ZM21.7067 4.00317H21.715H21.7067Z" fill="#3B8EF3"/>
<path fill-rule="evenodd" clip-rule="evenodd" d="M19.9999 33.0559C17.4583 33.0559 15.2949 32.0909 14.0633 30.4076C12.8833 28.7942 12.6383 26.6359 13.3716 24.3309C13.5099 23.8926 13.9816 23.6476 14.4183 23.7892C14.8583 23.9292 15.1016 24.3976 14.9616 24.8359C14.3849 26.6476 14.5399 28.2342 15.4083 29.4242C16.3216 30.6726 17.9966 31.3892 19.9999 31.3892C20.4599 31.3892 20.8333 31.7626 20.8333 32.2226C20.8333 32.6826 20.4599 33.0559 19.9999 33.0559Z" fill="#3B8EF3"/>
</svg>
