<svg width="24" height="24" viewBox="0 0 24 24" fill="none" xmlns="http://www.w3.org/2000/svg">
<path fill-rule="evenodd" clip-rule="evenodd" d="M4 10C4 6.691 6.691 4 10 4C13.309 4 16 6.691 16 10C16 13.309 13.309 16 10 16C6.691 16 4 13.309 4 10ZM20.687 21.179L15.399 15.891C16.994 14.429 18 12.334 18 10C18 5.582 14.418 2 10 2C5.582 2 2 5.582 2 10C2 14.418 5.582 18 10 18C11.305 18 12.531 17.682 13.619 17.128L19.179 22.688C19.388 22.896 19.66 23 19.934 23C20.206 23 20.479 22.896 20.687 22.688C21.104 22.271 21.104 21.596 20.687 21.179Z" fill="#333333"/>
</svg>
