<svg width="27" height="27" viewBox="0 0 27 27" fill="none" xmlns="http://www.w3.org/2000/svg">
<path fill-rule="evenodd" clip-rule="evenodd" d="M14.0114 10.7933V9.70875C14.0114 9.189 14.332 9.06412 14.5649 9.06412H15.979V6.75H14.0328C11.8671 6.75 11.3823 8.46337 11.3823 9.57713V10.7933H10.1245V12.4268V13.4955H11.3958V20.25H13.9158V13.4955H15.781L15.8631 12.4335L16.0128 10.7933H14.0114Z" fill="white"/>
<path fill-rule="evenodd" clip-rule="evenodd" d="M21.375 2.25H5.625C3.76875 2.25 2.25 3.76875 2.25 5.625V21.375C2.25 23.2313 3.76875 24.75 5.625 24.75H21.375C23.2313 24.75 24.75 23.2313 24.75 21.375V5.625C24.75 3.76875 23.2313 2.25 21.375 2.25ZM21.375 4.5C21.9848 4.5 22.5 5.01525 22.5 5.625V21.375C22.5 21.9848 21.9848 22.5 21.375 22.5H5.625C5.01525 22.5 4.5 21.9848 4.5 21.375V5.625C4.5 5.01525 5.01525 4.5 5.625 4.5H21.375Z" fill="white"/>
</svg>
