<svg width="40" height="40" viewBox="0 0 40 40" fill="none" xmlns="http://www.w3.org/2000/svg">
<path fill-rule="evenodd" clip-rule="evenodd" d="M20 34.9998H6.66663C5.76329 34.9998 4.99996 34.2365 4.99996 33.3332H21.6666C21.6666 34.2365 20.9033 34.9998 20 34.9998ZM6.66663 4.99984H20C20.9033 4.99984 21.6666 5.76317 21.6666 6.6665H4.99996C4.99996 5.76317 5.76329 4.99984 6.66663 4.99984ZM21.6666 29.9998V31.6665H4.99996V8.33317H21.6666V9.99984H25V6.6665C25 3.9165 22.75 1.6665 20 1.6665H6.66663C3.91663 1.6665 1.66663 3.9165 1.66663 6.6665V33.3332C1.66663 36.0832 3.91663 38.3332 6.66663 38.3332H20C22.75 38.3332 25 36.0832 25 33.3332V29.9998H21.6666Z" fill="#3B8EF3"/>
<path fill-rule="evenodd" clip-rule="evenodd" d="M20 34.9998H6.66663C5.76329 34.9998 4.99996 34.2365 4.99996 33.3332H21.6666C21.6666 34.2365 20.9033 34.9998 20 34.9998ZM6.66663 4.99984H20C20.9033 4.99984 21.6666 5.76317 21.6666 6.6665H4.99996C4.99996 5.76317 5.76329 4.99984 6.66663 4.99984ZM21.6666 29.9998V31.6665H4.99996V8.33317H21.6666V9.99984H25V6.6665C25 3.9165 22.75 1.6665 20 1.6665H6.66663C3.91663 1.6665 1.66663 3.9165 1.66663 6.6665V33.3332C1.66663 36.0832 3.91663 38.3332 6.66663 38.3332H20C22.75 38.3332 25 36.0832 25 33.3332V29.9998H21.6666Z" fill="#3B8EF3"/>
<path fill-rule="evenodd" clip-rule="evenodd" d="M35 10H15C13.1666 10 11.6666 11.5 11.6666 13.3333V26.6667C11.6666 28.5 13.1666 30 15 30H35C36.8333 30 38.3333 28.5 38.3333 26.6667V13.3333C38.3333 11.5 36.8333 10 35 10ZM35 11.6667C35.92 11.6667 36.6666 12.4133 36.6666 13.3333V26.6667C36.6666 27.5867 35.92 28.3333 35 28.3333H15C14.08 28.3333 13.3333 27.5867 13.3333 26.6667V13.3333C13.3333 12.4133 14.08 11.6667 15 11.6667H35Z" fill="#3B8EF3"/>
<path fill-rule="evenodd" clip-rule="evenodd" d="M19.1667 26.6667H15.8333C15.375 26.6667 15 26.2917 15 25.8333C15 25.375 15.375 25 15.8333 25H19.1667C19.625 25 20 25.375 20 25.8333C20 26.2917 19.625 26.6667 19.1667 26.6667Z" fill="#3B8EF3"/>
<path fill-rule="evenodd" clip-rule="evenodd" d="M25.8333 26.6667H22.5C22.0416 26.6667 21.6666 26.2917 21.6666 25.8333C21.6666 25.375 22.0416 25 22.5 25H25.8333C26.2916 25 26.6666 25.375 26.6666 25.8333C26.6666 26.2917 26.2916 26.6667 25.8333 26.6667Z" fill="#3B8EF3"/>
<path fill-rule="evenodd" clip-rule="evenodd" d="M34.1667 26.6667H29.1667C28.7084 26.6667 28.3334 26.2917 28.3334 25.8333C28.3334 25.375 28.7084 25 29.1667 25H34.1667C34.625 25 35 25.375 35 25.8333C35 26.2917 34.625 26.6667 34.1667 26.6667Z" fill="#3B8EF3"/>
<path fill-rule="evenodd" clip-rule="evenodd" d="M20.0065 17.4447H21.5531C22.0198 17.4447 22.3781 17.3313 22.6281 17.1063C22.8798 16.8797 23.0048 16.5497 23.0048 16.113C23.0048 15.683 22.8798 15.3597 22.6281 15.1413C22.3781 14.923 22.0198 14.8147 21.5531 14.8147H20.0065V17.4447ZM22.8881 21.128L21.7115 18.9097H21.5531H20.0065V21.128H18.3331V13.3613H21.5531C22.5215 13.3613 23.2698 13.5947 23.7981 14.0647C24.3298 14.5347 24.5931 15.198 24.5931 16.0563C24.5931 16.6563 24.4765 17.1697 24.2381 17.5947C24.0015 18.0197 23.6565 18.343 23.2065 18.5647L24.7831 21.128H22.8881Z" fill="#3B8EF3"/>
<path fill-rule="evenodd" clip-rule="evenodd" d="M29.6223 19.313C29.8823 19.0064 30.014 18.6097 30.014 18.1197C30.014 17.6397 29.8823 17.2464 29.6223 16.9397C29.3607 16.633 29.0223 16.4797 28.6057 16.4797C28.189 16.4797 27.849 16.633 27.5823 16.9397C27.3173 17.2464 27.1857 17.6397 27.1857 18.1197C27.1857 18.6164 27.3173 19.0164 27.5823 19.3197C27.849 19.623 28.189 19.7747 28.6057 19.7747C29.0223 19.7747 29.3607 19.6214 29.6223 19.313ZM30.3907 15.4847C30.7957 15.7397 31.1107 16.1014 31.3323 16.568C31.5557 17.033 31.6673 17.5697 31.6673 18.1764C31.6673 18.7764 31.5557 19.303 31.3373 19.758C31.119 20.213 30.8107 20.5664 30.4123 20.818C30.0107 21.0697 29.5473 21.1947 29.019 21.1947C28.6223 21.1947 28.2707 21.1147 27.964 20.9564C27.6573 20.798 27.3973 20.5664 27.1857 20.2614V23.2814H25.5557V15.158H27.1857V16.0347C27.3907 15.7314 27.6457 15.4997 27.954 15.3414C28.2607 15.1814 28.6057 15.103 28.9857 15.103C29.5173 15.103 29.984 15.2297 30.3907 15.4847Z" fill="#3B8EF3"/>
</svg>
