<svg width="24" height="24" viewBox="0 0 24 24" fill="none" xmlns="http://www.w3.org/2000/svg">
<path fill-rule="evenodd" clip-rule="evenodd" d="M14.6318 8.17383C13.9758 8.17383 13.4378 8.71183 13.4378 9.36783V10.5678H10.5668V9.36783C10.5668 8.71183 10.0328 8.17383 9.3718 8.17383C8.7108 8.17383 8.1788 8.71183 8.1788 9.36783V10.5678L1.7248 17.4578C1.2788 17.8938 1.0018 18.4988 1.0018 19.1708V21.0878C1.0018 22.1428 1.8588 22.9998 2.9138 22.9998H3.3968H5.7848H18.2138H20.6088H21.0848C22.1468 22.9998 23.0018 22.1428 23.0018 21.0878V19.1708C23.0018 18.4988 22.7198 17.8938 22.2788 17.4578L15.8258 10.5678V9.36783C15.8258 8.71183 15.2928 8.17383 14.6318 8.17383ZM14.9588 12.5678L20.8188 18.8248L20.8458 18.8528L20.8728 18.8808C20.9208 18.9278 21.0018 19.0288 21.0018 19.1708V20.9998H20.6088H18.2138H5.7848H3.3968H3.0018V19.1708C3.0018 19.0348 3.0678 18.9428 3.1218 18.8888L3.1538 18.8578L3.1848 18.8248L9.0448 12.5678H10.5668H13.4378H14.9588Z" fill="white"/>
<path fill-rule="evenodd" clip-rule="evenodd" d="M12 1C6.501 1 4.156 2.668 2.731 4.164C1.548 5.404 1.154 7.598 1.022 8.988C1.022 8.988 1.002 9.124 1.002 9.182C1.002 9.729 1.414 10.167 1.92 10.167H5.585C5.604 10.167 5.99 10.169 6.255 10.169C6.388 10.169 6.49 10.168 6.501 10.167C6.993 10.146 7.418 9.781 7.418 9.25V8.333C7.418 7.734 7.773 6.5 8.334 6.5H15.666C16.226 6.5 16.583 6.817 16.583 7.417V9.25C16.583 10.167 18.387 10.167 18.416 10.167H22.08C22.586 10.167 22.998 9.729 22.998 9.182C22.998 9.124 22.979 8.988 22.979 8.988C22.846 7.598 22.454 5.404 21.27 4.164C19.845 2.663 17.499 1 12 1ZM12 3C16.792 3 18.696 4.358 19.823 5.544C20.272 6.015 20.639 6.961 20.852 8.167H18.583V7.417C18.583 5.727 17.356 4.5 15.666 4.5H8.334C6.392 4.5 5.481 6.59 5.421 8.167H3.148C3.361 6.963 3.728 6.016 4.179 5.543C5.308 4.359 7.216 3 12 3Z" fill="white"/>
<path fill-rule="evenodd" clip-rule="evenodd" d="M12 14.3335C10.76 14.3335 9.751 15.3425 9.751 16.5835C9.751 17.8245 10.76 18.8335 12 18.8335C13.24 18.8335 14.25 17.8245 14.25 16.5835C14.25 15.3425 13.24 14.3335 12 14.3335ZM12 19.8335C10.208 19.8335 8.751 18.3755 8.751 16.5835C8.751 14.7915 10.208 13.3335 12 13.3335C13.792 13.3335 15.25 14.7915 15.25 16.5835C15.25 18.3755 13.792 19.8335 12 19.8335Z" fill="white"/>
<path fill-rule="evenodd" clip-rule="evenodd" d="M13.375 16.5835C13.375 17.3435 12.76 17.9585 12 17.9585C11.24 17.9585 10.625 17.3435 10.625 16.5835C10.625 15.8245 11.24 15.2085 12 15.2085C12.76 15.2085 13.375 15.8245 13.375 16.5835Z" fill="white"/>
</svg>
