<svg width="26" height="26" viewBox="0 0 26 26" fill="none" xmlns="http://www.w3.org/2000/svg">
<path d="M19 9.18385C18.5538 9.38462 18.0782 9.51769 17.5825 9.58231C18.0925 9.27 18.4818 8.77923 18.6648 8.18769C18.1892 8.47846 17.6642 8.68385 17.1047 8.79846C16.6532 8.30538 16.0097 8 15.3077 8C13.9457 8 12.8492 9.13385 12.8492 10.5238C12.8492 10.7238 12.8657 10.9162 12.9062 11.0992C10.861 10.9969 9.05125 9.99154 7.8355 8.46C7.62325 8.83769 7.49875 9.27 7.49875 9.73538C7.49875 10.6092 7.9375 11.3838 8.5915 11.8323C8.19625 11.8246 7.8085 11.7069 7.48 11.5215C7.48 11.5292 7.48 11.5392 7.48 11.5492C7.48 12.7754 8.33275 13.7938 9.451 14.0285C9.25075 14.0846 9.0325 14.1115 8.806 14.1115C8.6485 14.1115 8.4895 14.1023 8.34025 14.0685C8.659 15.0677 9.5635 15.8023 10.639 15.8262C9.802 16.4977 8.73925 16.9023 7.58875 16.9023C7.387 16.9023 7.1935 16.8931 7 16.8677C8.08975 17.5885 9.38125 18 10.774 18C15.301 18 17.776 14.1538 17.776 10.82C17.776 10.7085 17.7723 10.6008 17.767 10.4938C18.2552 10.1385 18.6655 9.69462 19 9.18385Z" fill="white"/>
<path fill-rule="evenodd" clip-rule="evenodd" d="M20.5834 2.16675H5.41669C3.62919 2.16675 2.16669 3.62925 2.16669 5.41675V20.5834C2.16669 22.3709 3.62919 23.8334 5.41669 23.8334H20.5834C22.3709 23.8334 23.8334 22.3709 23.8334 20.5834V5.41675C23.8334 3.62925 22.3709 2.16675 20.5834 2.16675ZM20.5834 4.33341C21.1705 4.33341 21.6667 4.82958 21.6667 5.41675V20.5834C21.6667 21.1706 21.1705 21.6667 20.5834 21.6667H5.41669C4.82952 21.6667 4.33335 21.1706 4.33335 20.5834V5.41675C4.33335 4.82958 4.82952 4.33341 5.41669 4.33341H20.5834Z" fill="white"/>
</svg>
