<svg width="40" height="40" viewBox="0 0 40 40" fill="none" xmlns="http://www.w3.org/2000/svg">
<path fill-rule="evenodd" clip-rule="evenodd" d="M22.2917 9.30568H7.01333C6.59167 9.30568 6.25 8.96401 6.25 8.54234C6.25 8.11901 6.59167 7.77734 7.01333 7.77734H22.2917C22.7133 7.77734 23.055 8.11901 23.055 8.54234C23.055 8.96401 22.7133 9.30568 22.2917 9.30568Z" fill="#3B8EF3"/>
<path fill-rule="evenodd" clip-rule="evenodd" d="M14.6533 13.8892H7.01333C6.59167 13.8892 6.25 13.5475 6.25 13.1258C6.25 12.7025 6.59167 12.3608 7.01333 12.3608H14.6533C15.075 12.3608 15.4167 12.7025 15.4167 13.1258C15.4167 13.5475 15.075 13.8892 14.6533 13.8892Z" fill="#3B8EF3"/>
<path fill-rule="evenodd" clip-rule="evenodd" d="M14.6533 18.4727H7.01333C6.59167 18.4727 6.25 18.131 6.25 17.7093C6.25 17.286 6.59167 16.9443 7.01333 16.9443H14.6533C15.075 16.9443 15.4167 17.286 15.4167 17.7093C15.4167 18.131 15.075 18.4727 14.6533 18.4727Z" fill="#3B8EF3"/>
<path fill-rule="evenodd" clip-rule="evenodd" d="M14.6533 23.0557H7.01333C6.59167 23.0557 6.25 22.714 6.25 22.2923C6.25 21.869 6.59167 21.5273 7.01333 21.5273H14.6533C15.075 21.5273 15.4167 21.869 15.4167 22.2923C15.4167 22.714 15.075 23.0557 14.6533 23.0557Z" fill="#3B8EF3"/>
<path fill-rule="evenodd" clip-rule="evenodd" d="M14.6533 27.6392H7.01333C6.59167 27.6392 6.25 27.2975 6.25 26.8758C6.25 26.4525 6.59167 26.1108 7.01333 26.1108H14.6533C15.075 26.1108 15.4167 26.4525 15.4167 26.8758C15.4167 27.2975 15.075 27.6392 14.6533 27.6392Z" fill="#3B8EF3"/>
<path fill-rule="evenodd" clip-rule="evenodd" d="M23.75 24.5833H22.3617C21.9017 24.5833 21.5283 24.21 21.5283 23.75V22.3617C21.5283 21.9017 21.9017 21.5283 22.3617 21.5283H23.75C24.21 21.5283 24.5833 21.9017 24.5833 22.3617V23.75C24.5833 24.21 24.21 24.5833 23.75 24.5833Z" fill="#3B8EF3"/>
<path fill-rule="evenodd" clip-rule="evenodd" d="M28.3332 24.5833H26.9449C26.4849 24.5833 26.1116 24.21 26.1116 23.75V22.3617C26.1116 21.9017 26.4849 21.5283 26.9449 21.5283H28.3332C28.7932 21.5283 29.1666 21.9017 29.1666 22.3617V23.75C29.1666 24.21 28.7932 24.5833 28.3332 24.5833Z" fill="#3B8EF3"/>
<path fill-rule="evenodd" clip-rule="evenodd" d="M32.9167 24.5833H31.5284C31.0684 24.5833 30.6951 24.21 30.6951 23.75V22.3617C30.6951 21.9017 31.0684 21.5283 31.5284 21.5283H32.9167C33.3767 21.5283 33.7501 21.9017 33.7501 22.3617V23.75C33.7501 24.21 33.3767 24.5833 32.9167 24.5833Z" fill="#3B8EF3"/>
<path fill-rule="evenodd" clip-rule="evenodd" d="M23.75 29.1668H22.3617C21.9017 29.1668 21.5283 28.7935 21.5283 28.3335V26.9451C21.5283 26.4851 21.9017 26.1118 22.3617 26.1118H23.75C24.21 26.1118 24.5833 26.4851 24.5833 26.9451V28.3335C24.5833 28.7935 24.21 29.1668 23.75 29.1668Z" fill="#3B8EF3"/>
<path fill-rule="evenodd" clip-rule="evenodd" d="M28.3332 29.1668H26.9449C26.4849 29.1668 26.1116 28.7935 26.1116 28.3335V26.9451C26.1116 26.4851 26.4849 26.1118 26.9449 26.1118H28.3332C28.7932 26.1118 29.1666 26.4851 29.1666 26.9451V28.3335C29.1666 28.7935 28.7932 29.1668 28.3332 29.1668Z" fill="#3B8EF3"/>
<path fill-rule="evenodd" clip-rule="evenodd" d="M32.9167 29.1668H31.5284C31.0684 29.1668 30.6951 28.7935 30.6951 28.3335V26.9451C30.6951 26.4851 31.0684 26.1118 31.5284 26.1118H32.9167C33.3767 26.1118 33.7501 26.4851 33.7501 26.9451V28.3335C33.7501 28.7935 33.3767 29.1668 32.9167 29.1668Z" fill="#3B8EF3"/>
<path fill-rule="evenodd" clip-rule="evenodd" d="M23.75 33.7498H22.3617C21.9017 33.7498 21.5283 33.3765 21.5283 32.9165V31.5282C21.5283 31.0682 21.9017 30.6948 22.3617 30.6948H23.75C24.21 30.6948 24.5833 31.0682 24.5833 31.5282V32.9165C24.5833 33.3765 24.21 33.7498 23.75 33.7498Z" fill="#3B8EF3"/>
<path fill-rule="evenodd" clip-rule="evenodd" d="M28.3332 33.7498H26.9449C26.4849 33.7498 26.1116 33.3765 26.1116 32.9165V31.5282C26.1116 31.0682 26.4849 30.6948 26.9449 30.6948H28.3332C28.7932 30.6948 29.1666 31.0682 29.1666 31.5282V32.9165C29.1666 33.3765 28.7932 33.7498 28.3332 33.7498Z" fill="#3B8EF3"/>
<path fill-rule="evenodd" clip-rule="evenodd" d="M32.9167 33.7498H31.5284C31.0684 33.7498 30.6951 33.3765 30.6951 32.9165V31.5282C30.6951 31.0682 31.0684 30.6948 31.5284 30.6948H32.9167C33.3767 30.6948 33.7501 31.0682 33.7501 31.5282V32.9165C33.7501 33.3765 33.3767 33.7498 32.9167 33.7498Z" fill="#3B8EF3"/>
<path fill-rule="evenodd" clip-rule="evenodd" d="M33.7501 10.8335H21.5284C19.0067 10.8335 16.9451 12.8952 16.9451 15.4168V33.7502C16.9451 36.2718 19.0067 38.3335 21.5284 38.3335H33.7501C36.2717 38.3335 38.3334 36.2718 38.3334 33.7502V15.4168C38.3334 12.8952 36.2717 10.8335 33.7501 10.8335ZM33.7501 13.8885C34.5784 13.8885 35.2784 14.5885 35.2784 15.4168V33.7502C35.2784 34.5785 34.5784 35.2785 33.7501 35.2785H21.5284C20.7001 35.2785 20.0001 34.5785 20.0001 33.7502V15.4168C20.0001 14.5885 20.7001 13.8885 21.5284 13.8885H33.7501Z" fill="#3B8EF3"/>
<path fill-rule="evenodd" clip-rule="evenodd" d="M23.0551 1.6665H6.25008C3.72841 1.6665 1.66675 3.63484 1.66675 6.0415V28.9582C1.66675 31.3648 3.72841 33.3332 6.25008 33.3332H20.0001C19.8267 32.8748 20.0001 32.3882 20.0001 31.8748V15.4165C20.0001 15.4165 20.0001 13.8882 21.5284 13.8882L28.3334 13.3332V6.6665C28.3334 4.25984 26.6667 1.6665 23.0551 1.6665ZM23.3334 4.99984C24.1617 4.99984 24.5834 5.3265 24.5834 6.0415V10.8332H21.5284C18.5517 10.8332 16.9451 13.1948 16.9451 15.4165L16.6667 29.9998L6.59675 29.9298C5.77008 29.9298 5.00008 29.0482 5.00008 28.3332V6.6665C5.00008 5.9515 5.83841 4.99984 6.66675 4.99984H23.3334Z" fill="#3B8EF3"/>
<path fill-rule="evenodd" clip-rule="evenodd" d="M31.4583 15.4165H23.82C22.5583 15.4165 21.5283 16.4482 21.5283 17.7082C21.5283 18.9682 22.5583 19.9998 23.82 19.9998H31.4583C32.7183 19.9998 33.75 18.9682 33.75 17.7082C33.75 16.4482 32.7183 15.4165 31.4583 15.4165ZM31.4583 16.9448C31.8717 16.9448 32.2217 17.2932 32.2217 17.7082C32.2217 18.1232 31.8717 18.4715 31.4583 18.4715H23.82C23.405 18.4715 23.055 18.1232 23.055 17.7082C23.055 17.2932 23.405 16.9448 23.82 16.9448H31.4583Z" fill="#3B8EF3"/>
</svg>
