<svg width="40" height="40" viewBox="0 0 40 40" fill="none" xmlns="http://www.w3.org/2000/svg">
<path fill-rule="evenodd" clip-rule="evenodd" d="M24.3863 13.623C23.293 13.623 22.3963 14.5197 22.3963 15.613V17.613H17.6113V15.613C17.6113 14.5197 16.7213 13.623 15.6197 13.623C14.518 13.623 13.6313 14.5197 13.6313 15.613V17.613L2.87468 29.0964C2.13134 29.823 1.66968 30.8314 1.66968 31.9514V35.1464C1.66968 36.9047 3.09801 38.333 4.85634 38.333H5.66134H9.64134H30.3563H34.348H35.1413C36.9113 38.333 38.3363 36.9047 38.3363 35.1464V31.9514C38.3363 30.8314 37.8663 29.823 37.1313 29.0964L26.3763 17.613V15.613C26.3763 14.5197 25.488 13.623 24.3863 13.623ZM24.9313 20.9464L34.698 31.3747L34.743 31.4214L34.788 31.468C34.868 31.5464 35.003 31.7147 35.003 31.9514V34.9997H34.348H30.3563H9.64134H5.66134H5.00301V31.9514C5.00301 31.7247 5.11301 31.5714 5.20301 31.4814L5.25634 31.4297L5.30801 31.3747L15.0747 20.9464H17.6113H22.3963H24.9313Z" fill="#3B8EF3"/>
<path fill-rule="evenodd" clip-rule="evenodd" d="M19.9999 1.6665C10.8349 1.6665 6.92659 4.4465 4.55159 6.93984C2.57992 9.0065 1.92326 12.6632 1.70326 14.9798C1.70326 14.9798 1.66992 15.2065 1.66992 15.3032C1.66992 16.2148 2.35659 16.9448 3.19992 16.9448H9.30826C9.33992 16.9448 9.98325 16.9482 10.4249 16.9482C10.6466 16.9482 10.8166 16.9465 10.8349 16.9448C11.6549 16.9098 12.3633 16.3015 12.3633 15.4165V13.8882C12.3633 12.8898 12.9549 10.8332 13.8899 10.8332H26.1099C27.0433 10.8332 27.6383 11.3615 27.6383 12.3615V15.4165C27.6383 16.9448 30.6449 16.9448 30.6933 16.9448H36.7999C37.6433 16.9448 38.3299 16.2148 38.3299 15.3032C38.3299 15.2065 38.2983 14.9798 38.2983 14.9798C38.0766 12.6632 37.4233 9.0065 35.4499 6.93984C33.0749 4.43817 29.1649 1.6665 19.9999 1.6665ZM19.9999 4.99984C27.9866 4.99984 31.1599 7.26317 33.0383 9.23984C33.7866 10.0248 34.3983 11.6015 34.7533 13.6115H30.9716V12.3615C30.9716 9.54484 28.9266 7.49984 26.1099 7.49984H13.8899C10.6533 7.49984 9.13492 10.9832 9.03492 13.6115H5.24659C5.60159 11.6048 6.21325 10.0265 6.96492 9.23817C8.84659 7.26484 12.0266 4.99984 19.9999 4.99984Z" fill="#3B8EF3"/>
<path fill-rule="evenodd" clip-rule="evenodd" d="M20 23.8893C17.9333 23.8893 16.2516 25.571 16.2516 27.6393C16.2516 29.7077 17.9333 31.3893 20 31.3893C22.0666 31.3893 23.75 29.7077 23.75 27.6393C23.75 25.571 22.0666 23.8893 20 23.8893ZM20 33.056C17.0133 33.056 14.585 30.626 14.585 27.6393C14.585 24.6527 17.0133 22.2227 20 22.2227C22.9866 22.2227 25.4166 24.6527 25.4166 27.6393C25.4166 30.626 22.9866 33.056 20 33.056Z" fill="#3B8EF3"/>
<path fill-rule="evenodd" clip-rule="evenodd" d="M22.2916 27.6393C22.2916 28.906 21.2666 29.931 19.9999 29.931C18.7333 29.931 17.7083 28.906 17.7083 27.6393C17.7083 26.3743 18.7333 25.3477 19.9999 25.3477C21.2666 25.3477 22.2916 26.3743 22.2916 27.6393Z" fill="#3B8EF3"/>
</svg>
