<svg width="40" height="40" viewBox="0 0 40 40" fill="none" xmlns="http://www.w3.org/2000/svg">
<path fill-rule="evenodd" clip-rule="evenodd" d="M20.8276 12.0152C24.0617 16.0572 20.002 17.6065 15.7451 19.3467C12.9339 20.4949 8.32568 22.9295 8.32568 24.2962C8.32568 24.2962 10.037 28.6841 17.7907 28.5651C14.8223 24.8081 18.9592 22.1715 22.6818 21.1423C25.8958 20.2542 29.4756 18.1931 30.4041 16.2288C27.0043 11.022 20.8276 12.0152 20.8276 12.0152Z" fill="#3B8EF3"/>
<path fill-rule="evenodd" clip-rule="evenodd" d="M20.9039 7.15599C23.2094 4.5526 20.8667 2.41954 20.8667 2.41954C28.5033 1.69468 33.2316 8.17135 31.6917 13.9757C29.5432 8.38991 25.4293 7.10066 20.9039 7.15599ZM17.7447 33.4483C18.7788 32.4708 20.5939 31.7449 22.5891 30.9469C27.5061 28.9803 33.5165 26.5763 31.6265 18.8931C31.018 22.6359 26.7018 24.4703 22.8572 26.1043C18.4718 27.9681 14.7 29.5711 17.7447 33.4483ZM17.7838 38.1845C17.7838 38.1845 15.4411 36.0514 17.7438 33.448C13.2213 33.5034 9.10732 32.2114 6.95605 26.6283C5.41616 32.4327 10.1472 38.9094 17.7838 38.1845ZM16.0617 9.65565C18.056 8.858 19.87 8.13246 20.903 7.15599C23.9496 11.0336 20.1774 12.6366 15.7917 14.5002C11.9478 16.1337 7.63255 17.9674 7.02405 21.7084C5.13386 14.0265 11.1456 11.622 16.0617 9.65565Z" fill="#3B8EF3"/>
</svg>
