<svg width="40" height="40" viewBox="0 0 40 40" fill="none" xmlns="http://www.w3.org/2000/svg">
<path fill-rule="evenodd" clip-rule="evenodd" d="M20 4.99984C14.485 4.99984 9.99996 9.48484 9.99996 14.9998C9.99996 22.8648 17.7833 34.5948 20.04 35.0015C22.2166 34.5948 30 22.8648 30 14.9998C30 9.48484 25.515 4.99984 20 4.99984ZM20 38.3332C15.14 38.3332 6.66663 23.5048 6.66663 14.9998C6.66663 7.64817 12.6483 1.6665 20 1.6665C27.3516 1.6665 33.3333 7.64817 33.3333 14.9998C33.3333 23.5048 24.86 38.3332 20 38.3332Z" fill="#3B8EF3"/>
<path fill-rule="evenodd" clip-rule="evenodd" d="M20 8.3335C16.3184 8.3335 13.3334 11.3185 13.3334 15.0002C13.3334 18.6818 16.3184 21.6668 20 21.6668C23.6817 21.6668 26.6667 18.6818 26.6667 15.0002C26.6667 11.3185 23.6817 8.3335 20 8.3335ZM20 11.6668C21.8384 11.6668 23.3334 13.1618 23.3334 15.0002C23.3334 16.8385 21.8384 18.3335 20 18.3335C18.1617 18.3335 16.6667 16.8385 16.6667 15.0002C16.6667 13.1618 18.1617 11.6668 20 11.6668Z" fill="#3B8EF3"/>
</svg>
