<svg width="40" height="40" viewBox="0 0 40 40" fill="none" xmlns="http://www.w3.org/2000/svg">
<path fill-rule="evenodd" clip-rule="evenodd" d="M35 17.8573C35 19.209 33.8816 20.3073 32.5083 20.3073C31.135 20.3073 30.0166 19.209 30.0166 17.8573V17.174H35V17.8573ZM23.35 33.334V26.6673C23.35 25.7407 22.6 24.9923 21.675 24.9923H13.3416C12.4166 24.9923 11.6666 25.7407 11.6666 26.6673V33.334H8.34163V23.574C9.63663 23.3873 10.7983 22.7973 11.675 21.9107C12.7366 22.9857 14.2083 23.6573 15.8416 23.6573C17.4733 23.6573 18.9466 22.9857 20.0083 21.9107C21.07 22.9857 22.5416 23.6573 24.175 23.6573C25.8066 23.6573 27.28 22.9857 28.3416 21.9107C29.2166 22.7973 30.38 23.3873 31.675 23.574V33.334H23.35ZM15.0166 33.334H20V28.3423H15.0166V33.334ZM5.01663 17.174H9.99996V17.8573C9.99996 19.209 8.88163 20.3073 7.50829 20.3073C6.13496 20.3073 5.01663 19.209 5.01663 17.8573V17.174ZM10.365 6.66732H29.6516L33.7833 13.8257H28.3416H20.0083H11.675H6.23329L10.365 6.66732ZM18.3333 17.8573C18.3333 19.209 17.215 20.3073 15.8416 20.3073C14.4683 20.3073 13.35 19.209 13.35 17.8573V17.174H18.3333V17.8573ZM26.6666 17.8573C26.6666 19.209 25.5483 20.3073 24.175 20.3073C22.8016 20.3073 21.6833 19.209 21.6833 17.8573V17.174H26.6666V17.8573ZM38.3266 15.3923C38.3183 15.2457 38.29 15.104 38.2416 14.964C38.2166 14.8906 38.19 14.8223 38.155 14.754C38.14 14.7257 38.135 14.694 38.1183 14.6657L32.0566 4.16732C31.76 3.65065 31.21 3.33398 30.6133 3.33398H9.40329C8.80663 3.33398 8.25663 3.65065 7.95829 4.16732L1.89829 14.6657C1.88163 14.694 1.87496 14.7257 1.86163 14.754C1.82663 14.8223 1.79996 14.8906 1.77329 14.964C1.72663 15.104 1.69829 15.2457 1.68996 15.3923C1.68663 15.429 1.66663 15.4623 1.66663 15.499V17.8573C1.66663 20.1823 3.05996 22.179 5.05496 23.1023C5.04329 23.1807 5.00829 23.2507 5.00829 23.334V35.0007C5.00829 35.9207 5.75329 36.6673 6.67496 36.6673H13.3C13.315 36.6673 13.3266 36.6756 13.3416 36.6756C13.3566 36.6756 13.3683 36.6673 13.3816 36.6673H21.6333C21.6483 36.6673 21.66 36.6756 21.675 36.6756C21.69 36.6756 21.7016 36.6673 21.715 36.6673H33.3416C34.2633 36.6673 35.0083 35.9207 35.0083 35.0007V23.334C35.0083 23.2507 34.9733 23.1807 34.9616 23.1023C36.9566 22.179 38.35 20.1823 38.35 17.8573V15.499C38.35 15.4623 38.33 15.429 38.3266 15.3923Z" fill="#3B8EF3"/>
</svg>
