<svg width="40" height="40" viewBox="0 0 40 40" fill="none" xmlns="http://www.w3.org/2000/svg">
<path fill-rule="evenodd" clip-rule="evenodd" d="M20.0001 1.6665C12.6367 1.6665 6.66675 7.82317 6.66675 15.4165C6.66675 20.8115 9.68841 25.4682 14.0734 27.7198V33.7498C14.0734 36.2715 16.0751 38.3332 18.5184 38.3332H21.4817C23.9251 38.3332 25.9267 36.2715 25.9267 33.7498V27.7198C30.3117 25.4682 33.3334 20.8115 33.3334 15.4165C33.3334 7.82317 27.3634 1.6665 20.0001 1.6665ZM20.0001 4.99984C25.5151 4.99984 30.0001 9.67317 30.0001 15.4165C30.0001 19.4048 27.8567 22.9832 24.4051 24.7548C23.2917 25.3248 22.5934 26.4698 22.5934 27.7198V33.7498C22.5934 34.4282 22.0834 34.9998 21.4817 34.9998H18.5184C17.9167 34.9998 17.4067 34.4282 17.4067 33.7498V27.7198C17.4067 26.4698 16.7084 25.3248 15.5951 24.7548C12.1434 22.9832 10.0001 19.4048 10.0001 15.4165C10.0001 9.67317 14.4851 4.99984 20.0001 4.99984Z" fill="#3B8EF3"/>
<path fill-rule="evenodd" clip-rule="evenodd" d="M25.1854 29.1665H16.2954C15.8871 29.1665 15.5554 28.8249 15.5554 28.4032C15.5554 27.9799 15.8871 27.6382 16.2954 27.6382H25.1854C25.5938 27.6382 25.9254 27.9799 25.9254 28.4032C25.9254 28.8249 25.5938 29.1665 25.1854 29.1665Z" fill="#3B8EF3"/>
<path fill-rule="evenodd" clip-rule="evenodd" d="M25.1854 32.2227H16.2954C15.8871 32.2227 15.5554 31.881 15.5554 31.4593C15.5554 31.036 15.8871 30.6943 16.2954 30.6943H25.1854C25.5938 30.6943 25.9254 31.036 25.9254 31.4593C25.9254 31.881 25.5938 32.2227 25.1854 32.2227Z" fill="#3B8EF3"/>
<path fill-rule="evenodd" clip-rule="evenodd" d="M17.7866 20.8334C17.5783 20.8334 17.3683 20.7551 17.2066 20.5984C16.8766 20.2784 16.8683 19.7501 17.1883 19.4201L20.2566 16.2534H17.7783C17.4433 16.2534 17.1416 16.0534 17.0116 15.7451C16.8799 15.4367 16.9466 15.0801 17.1799 14.8401L21.6283 10.2534C21.9499 9.92505 22.4766 9.91505 22.8066 10.2351C23.1366 10.5551 23.1449 11.0834 22.8249 11.4134L19.7483 14.5867H22.2266C22.5616 14.5867 22.8633 14.7884 22.9933 15.0967C23.1249 15.4051 23.0583 15.7617 22.8249 16.0017L18.3849 20.5801C18.2216 20.7484 18.0049 20.8334 17.7866 20.8334Z" fill="#3B8EF3"/>
</svg>
