<svg width="26" height="26" viewBox="0 0 26 26" fill="none" xmlns="http://www.w3.org/2000/svg">
<path fill-rule="evenodd" clip-rule="evenodd" d="M13.4925 10.3937V9.34941C13.4925 8.84891 13.8012 8.72866 14.0255 8.72866H15.3872V6.50024H13.5131C11.4277 6.50024 10.9607 8.15016 10.9607 9.22266V10.3937H9.74957V11.9667V12.9959H10.9737V19.5002H13.4004V12.9959H15.1966L15.2757 11.9732L15.4197 10.3937H13.4925Z" fill="white"/>
<path fill-rule="evenodd" clip-rule="evenodd" d="M20.5834 2.16675H5.41669C3.62919 2.16675 2.16669 3.62925 2.16669 5.41675V20.5834C2.16669 22.3709 3.62919 23.8334 5.41669 23.8334H20.5834C22.3709 23.8334 23.8334 22.3709 23.8334 20.5834V5.41675C23.8334 3.62925 22.3709 2.16675 20.5834 2.16675ZM20.5834 4.33341C21.1705 4.33341 21.6667 4.82958 21.6667 5.41675V20.5834C21.6667 21.1706 21.1705 21.6667 20.5834 21.6667H5.41669C4.82952 21.6667 4.33335 21.1706 4.33335 20.5834V5.41675C4.33335 4.82958 4.82952 4.33341 5.41669 4.33341H20.5834Z" fill="white"/>
</svg>
