<svg width="181" height="69" viewBox="0 0 181 69" fill="none" xmlns="http://www.w3.org/2000/svg">
<path d="M10.8789 4.98633L8.13477 13.1602L5.39062 4.98633H1.33789V19H4.23828V9.63477L6.64062 16.5H9.62891L12.0312 9.61523V19H14.9219V4.98633H10.8789ZM26.8652 13.2285C26.8652 10.1133 25.0195 8.23828 22.0605 8.23828C19.0625 8.23828 17.1484 10.2402 17.1484 13.2285V14.1855C17.1484 17.3008 19.3262 19.1855 22.5586 19.1855C23.75 19.1855 25.0586 18.8828 26.0352 18.4434L25.7031 16.6367C24.8438 16.8516 24.0234 16.9688 23.0566 16.9688C21.1914 16.9688 20.1953 16.2461 20.1172 14.5957H26.7285C26.8066 14.1367 26.8652 13.707 26.8652 13.2285ZM23.9551 12.6621H20.1172V12.4668C20.1172 11.1973 20.8594 10.4648 22.0605 10.4648C23.2715 10.4648 23.9551 11.1875 23.9551 12.4668V12.6621ZM28.8184 19H31.7676V10.8848C32.1582 10.709 32.7637 10.6016 33.3008 10.6016C34.4434 10.6016 34.8828 11.0996 34.8828 12.0176V19H37.832V11.7637C37.832 11.4609 37.7832 11.168 37.6953 10.9238C38.1934 10.7188 38.8086 10.6016 39.3848 10.6016C40.5371 10.6016 40.957 11.1191 40.957 12.0176V19H43.9062V12.1641C43.9062 9.61523 42.3633 8.23828 39.5215 8.23828C38.4277 8.23828 37.207 8.46289 36.1816 8.85352C35.4883 8.46289 34.5801 8.23828 33.4473 8.23828C31.8457 8.23828 30.0977 8.7168 28.8184 9.46875V19ZM50.3906 19.1855C53.623 19.1855 55.459 17.3789 55.459 14.1855V13.2285C55.459 10.1328 53.5352 8.23828 50.3906 8.23828C49.9414 8.23828 49.4434 8.29688 48.9941 8.4043V4.47852L46.0449 4.78125V18.3848C47.1484 18.8535 49.0039 19.1855 50.3906 19.1855ZM50.3906 16.8223C49.9121 16.8223 49.3555 16.7246 48.9941 16.5488V10.875C49.3457 10.709 49.8828 10.6016 50.3906 10.6016C51.709 10.6016 52.4219 11.2949 52.4219 12.5938V14.8398C52.4219 16.1289 51.709 16.8223 50.3906 16.8223ZM66.9434 13.2285C66.9434 10.1133 65.0977 8.23828 62.1387 8.23828C59.1406 8.23828 57.2266 10.2402 57.2266 13.2285V14.1855C57.2266 17.3008 59.4043 19.1855 62.6367 19.1855C63.8281 19.1855 65.1367 18.8828 66.1133 18.4434L65.7812 16.6367C64.9219 16.8516 64.1016 16.9688 63.1348 16.9688C61.2695 16.9688 60.2734 16.2461 60.1953 14.5957H66.8066C66.8848 14.1367 66.9434 13.707 66.9434 13.2285ZM64.0332 12.6621H60.1953V12.4668C60.1953 11.1973 60.9375 10.4648 62.1387 10.4648C63.3496 10.4648 64.0332 11.1875 64.0332 12.4668V12.6621ZM68.8965 19H71.8555V10.9727C72.3535 10.7383 73.125 10.6016 73.9355 10.6016C74.3164 10.6016 74.7363 10.6211 75 10.6699V8.35547C74.6582 8.27734 74.043 8.23828 73.5938 8.23828C71.8066 8.23828 70.3125 8.62891 68.8965 9.46875V19ZM85.7422 19.1855C88.7012 19.1855 90.6348 17.1738 90.6348 14.1855V13.2285C90.6348 10.2305 88.7012 8.23828 85.7422 8.23828C82.7832 8.23828 80.8691 10.2305 80.8691 13.2285V14.1855C80.8691 17.1738 82.7832 19.1855 85.7422 19.1855ZM85.7422 16.9688C84.6191 16.9688 83.916 16.1777 83.916 14.9863V12.4375C83.916 11.2363 84.6191 10.4648 85.7422 10.4648C86.8848 10.4648 87.5879 11.2363 87.5879 12.4375V14.9863C87.5879 16.168 86.8848 16.9688 85.7422 16.9688ZM92.4902 19H95.4395V10.6504H98.623V8.42383H95.4395V8.07227C95.4395 7.04688 96.1426 6.49023 97.3828 6.49023C97.8613 6.49023 98.4863 6.55859 99.0332 6.69531L99.375 4.86914C98.5449 4.55664 97.7539 4.41992 96.9629 4.41992C94.2871 4.41992 92.4902 5.96289 92.4902 8.35547V19Z" fill="white"/>
<path d="M134.43 61.1484C135.703 61.1484 136.961 60.9375 137.992 60.5391L138.82 54.6875H134.578L134.391 56.0312H136.906L136.414 59.5547C135.875 59.6641 135.172 59.7344 134.641 59.7344C132.5 59.7344 131.641 58.4297 131.93 56.4375L132.234 54.3516C132.531 52.3047 133.75 51.0547 136.086 51.0547C137.078 51.0547 137.859 51.1953 138.492 51.3984L138.883 50.2109C138.117 49.8594 137.133 49.6406 136.047 49.6406C132.562 49.6406 130.695 51.6484 130.227 54.9531L130.102 55.8438C129.625 59.2656 131.172 61.1484 134.43 61.1484ZM140.094 61H141.922L142.484 56.9766H144.203C144.391 56.9766 144.57 56.9766 144.734 56.9609L146.414 61H148.391L146.555 56.5391C148.07 56.0391 149.039 54.9219 149.266 53.3047C149.602 50.9219 148.227 49.6406 145.328 49.6406C144.219 49.6406 142.773 49.8672 141.609 50.2188L140.094 61ZM142.688 55.5625L143.281 51.3672C143.852 51.1797 144.703 51.0547 145.273 51.0547C146.797 51.0547 147.539 51.8594 147.336 53.3047C147.133 54.7812 146.156 55.5625 144.547 55.5625H142.688ZM154.641 61.1484C157.625 61.1484 159.602 59.2266 160.078 55.8359L160.203 54.9453C160.672 51.6016 159.211 49.6406 156.258 49.6406C153.305 49.6406 151.289 51.6016 150.82 54.9453L150.695 55.8359C150.219 59.2266 151.648 61.1484 154.641 61.1484ZM154.836 59.7344C153.109 59.7344 152.234 58.5547 152.508 56.5781L152.844 54.1953C153.117 52.2266 154.328 51.0547 156.055 51.0547C157.789 51.0547 158.656 52.2266 158.383 54.1953L158.047 56.5781C157.773 58.5547 156.562 59.7344 154.836 59.7344ZM165.234 61.1484C167.695 61.1484 169.375 59.6719 169.727 57.1797L170.766 49.7891H168.938L167.867 57.4141C167.656 58.9219 166.773 59.7656 165.43 59.7656C164.078 59.7656 163.43 58.9141 163.641 57.4141L164.703 49.7891H162.875L161.844 57.1797C161.492 59.6641 162.766 61.1484 165.234 61.1484ZM171.359 61H173.188L173.75 56.9766H175.391C178.344 56.9766 180.117 55.6875 180.453 53.3047C180.789 50.9219 179.438 49.6406 176.594 49.6406C175.461 49.6406 174.055 49.8672 172.875 50.2188L171.359 61ZM173.953 55.5625L174.547 51.3672C175.141 51.1797 175.945 51.0547 176.539 51.0547C178.016 51.0547 178.734 51.8594 178.539 53.3047C178.328 54.7812 177.344 55.5625 175.734 55.5625H173.953Z" fill="white"/>
<path d="M117.231 59.5642C116.789 59.1797 116.568 58.5992 116.568 57.8201C116.568 57.5605 116.589 57.3008 116.633 57.0411L118.058 48.0986H120.89L119.515 56.6678C119.503 56.7328 119.498 56.8189 119.498 56.9275C119.498 57.3932 119.781 57.6254 120.349 57.6254H124L123.591 60.141H119.089C118.292 60.1397 117.673 59.9487 117.231 59.5642Z" fill="white"/>
<path d="M43.1314 50.9364C43.2951 49.8864 43.6854 49.1511 44.3025 48.7291C44.9195 48.3072 45.6474 48.0962 46.4873 48.0962C48.2112 48.1074 49.8709 48.1886 51.4639 48.3396L51.0874 50.7092H46.9457C46.5855 50.7092 46.3236 50.7903 46.1599 50.9526C45.9962 51.1149 45.8866 51.3633 45.8325 51.6992L45.5869 53.2897L49.876 53.4195L49.4995 55.6429L45.194 55.789L44.4901 60.1385H41.658L43.1314 50.9364Z" fill="white"/>
<path d="M52.9045 48.0962H55.7366L53.8049 60.1385H50.9728L52.9045 48.0962Z" fill="white"/>
<path d="M57.6357 48.0962H59.8784L63.3653 55.3833L64.5276 48.0962H67.3597L65.428 60.1385H63.1852L59.6983 52.8515L58.536 60.1385H55.7039L57.6357 48.0962Z" fill="white"/>
<path d="M72.1889 48.0974H75.7249L77.4929 60.1398H74.5626L74.3007 57.9488H70.4209L69.4551 60.1398H66.5575L72.1889 48.0974ZM74.0388 55.4332L73.5477 50.4994L71.485 55.4332H74.0388Z" fill="white"/>
<path d="M80.6359 48.0974H82.8787L86.3656 55.3845L87.5279 48.0974H90.36L88.4283 60.1398H86.1855L82.6986 52.8527L81.5363 60.1398H78.7042L80.6359 48.0974Z" fill="white"/>
<path d="M91.7504 59.141C91.0628 58.4106 90.719 57.3807 90.719 56.0499C90.719 55.3033 90.7845 54.5243 90.9155 53.7128C91.2215 51.7653 91.7781 50.3271 92.5852 49.3957C93.3937 48.4657 94.5724 48 96.1225 48C97.6613 48 98.9924 48.2497 100.117 48.7466L99.7404 50.97C99.2707 50.8289 98.7607 50.7191 98.2091 50.6367C97.6576 50.5555 97.1312 50.5156 96.63 50.5156C96.0621 50.5156 95.6037 50.6017 95.2549 50.7753C94.9061 50.9488 94.6051 51.2971 94.3545 51.8214C94.1039 52.347 93.8911 53.1385 93.7161 54.1985C93.5851 55.0536 93.5196 55.6803 93.5196 56.0811C93.5196 56.6653 93.6758 57.0848 93.9856 57.3395C94.2966 57.5942 94.8343 57.7203 95.5987 57.7203C96.2308 57.7203 96.7584 57.7065 97.1778 57.6803C97.5971 57.6541 98.1021 57.6079 98.6914 57.543L98.3476 59.734C97.4636 60.0698 96.2963 60.2371 94.8444 60.2371C93.4692 60.2371 92.4379 59.8726 91.7504 59.141Z" fill="white"/>
<path d="M101.819 48.0974H104.651L102.72 60.1398H99.8876L101.819 48.0974Z" fill="white"/>
<path d="M109.61 48.0974H113.146L114.914 60.1398H111.984L111.722 57.9488H107.842L106.877 60.1398H103.979L109.61 48.0974ZM111.46 55.4332L110.969 50.4994L108.906 55.4332H111.46Z" fill="white"/>
<path d="M16.7385 48.3108L11.2079 60.1384H14.0538L15.002 57.9861H18.8125L19.0694 60.1384H21.9481L20.2116 48.3108H16.7385ZM16.0472 55.5155L18.0734 50.6691L18.5557 55.5155H16.0472Z" fill="white"/>
<path d="M7.06112 55.8663L11.2897 55.7227L11.6599 53.5392L7.44771 53.4119L7.68949 51.8501C7.74238 51.5205 7.85068 51.2758 8.01061 51.1173C8.17053 50.9587 8.42868 50.8776 8.78253 50.8776H12.85L13.2189 48.5493C11.6549 48.4007 10.0254 48.3208 8.33172 48.3096C7.50564 48.3096 6.79038 48.5168 6.18467 48.9313C5.57897 49.3458 5.19615 50.0686 5.03497 51.0986L4.73652 52.9625L3.33874 61.2046L4.33608 61.0311L3 66.4817L8.61757 58.096L6.65564 58.3682L7.06112 55.8663Z" fill="white"/>
<path d="M31.9013 50.6541L32.2703 48.3108H24.2954L23.8937 50.7814H28.7015L22.7679 57.8113L22.3977 60.1384H30.5501L30.9518 57.6678H25.9841L31.9013 50.6541Z" fill="white"/>
<path d="M41.1306 48.3108H33.1556L32.7527 50.7814H37.5605L31.6282 57.8113L31.2579 60.1384H39.4091L39.8121 57.6678H34.8431L40.7603 50.6541L41.1306 48.3108Z" fill="white"/>
<path d="M12.7378 68.3783L12.039 67.3908C11.9596 67.3995 11.8765 67.4032 11.7921 67.402L10.9635 67.397L10.9585 68.367L10.6324 68.3658L10.65 65.3071L11.8047 65.3134C12.1989 65.3159 12.5061 65.4107 12.729 65.598C12.9507 65.7853 13.0615 66.0425 13.059 66.3683C13.0577 66.6067 12.996 66.809 12.8726 66.9725C12.7492 67.1361 12.5754 67.2547 12.3487 67.3258L13.0967 68.3783H12.7378ZM12.486 66.9301C12.6484 66.7965 12.7303 66.6092 12.7315 66.3683C12.7328 66.1211 12.6535 65.9301 12.4923 65.7965C12.3311 65.6629 12.0981 65.5955 11.7921 65.5943L10.9724 65.5893L10.9635 67.1223L11.7833 67.1273C12.0893 67.1298 12.3235 67.0637 12.486 66.9301Z" fill="white"/>
<path d="M17.7623 68.1262L17.761 68.4059L15.58 68.3934L15.5976 65.3347L17.7132 65.346L17.7119 65.6256L15.9225 65.6156L15.9162 66.703L17.5117 66.7117L17.5104 66.9876L15.9149 66.9789L15.9087 68.115L17.7623 68.1262Z" fill="white"/>
<path d="M20.3085 65.3621L20.6346 65.3633L20.617 68.422L20.2909 68.4207L20.3085 65.3621Z" fill="white"/>
<path d="M25.9803 65.3946L25.9626 68.4532L25.6944 68.452L23.7249 65.9589L23.7111 68.4408L23.3849 68.4395L23.4025 65.3809L23.6708 65.3821L25.644 67.8752L25.6579 65.3933L25.9803 65.3946Z" fill="white"/>
<path d="M31.2767 65.4232L29.8928 68.4744L29.5717 68.4731L28.223 65.407L28.5756 65.4095L29.7417 68.0724L30.9468 65.4232H31.2767Z" fill="white"/>
<path d="M35.6501 68.2273L35.6489 68.5069L33.4678 68.4944L33.4855 65.4358L35.601 65.447L35.5998 65.7267L33.8104 65.7167L33.8041 66.8041L35.3995 66.8128L35.3983 67.0887L33.8028 67.08L33.7965 68.216L35.6501 68.2273Z" fill="white"/>
<path d="M40.7741 65.4769L40.7564 68.5355L40.4882 68.5343L38.5187 66.0412L38.5049 68.523L38.1787 68.5218L38.1963 65.4631L38.4646 65.4644L40.4378 67.9575L40.4517 65.4756L40.7741 65.4769Z" fill="white"/>
<path d="M44.1388 65.7751L43.0545 65.7689L43.0558 65.4893L45.5504 65.503L45.5491 65.7826L44.4649 65.7764L44.4485 68.5554L44.1224 68.5542L44.1388 65.7751Z" fill="white"/>
<path d="M51.0761 65.8139L51.0698 67.0149L52.6653 67.0236L52.664 67.3033L51.0685 67.2945L51.061 68.5916L50.7348 68.5904L50.7525 65.5317L52.868 65.543L52.8668 65.8226L51.0761 65.8139Z" fill="white"/>
<path d="M55.3034 65.5581L55.6296 65.5594L55.6119 68.618L55.2858 68.6168L55.3034 65.5581Z" fill="white"/>
<path d="M60.9752 65.5892L60.9575 68.6478L60.6893 68.6466L58.7198 66.1535L58.706 68.6353L58.3798 68.6341L58.3975 65.5754L58.6657 65.5767L60.6389 68.0698L60.6528 65.5879L60.9752 65.5892Z" fill="white"/>
<path d="M65.6646 67.8577L63.9457 67.8478L63.5705 68.663L63.2317 68.6617L64.6597 65.6118L64.9808 65.6131L66.3736 68.6792L66.0298 68.6767L65.6646 67.8577ZM65.5475 67.5943L64.8171 65.9476L64.0679 67.5856L65.5475 67.5943Z" fill="white"/>
<path d="M71.2432 65.648L71.2255 68.7067L70.9573 68.7054L68.9878 66.2123L68.974 68.6942L68.6478 68.6929L68.6655 65.6343L68.9337 65.6355L70.9069 68.1286L70.9208 65.6468L71.2432 65.648Z" fill="white"/>
<path d="M74.5072 68.5492C74.2629 68.4144 74.0715 68.2271 73.933 67.9887C73.7945 67.7502 73.7264 67.4843 73.7277 67.1897C73.729 66.8951 73.8007 66.6304 73.9418 66.3932C74.0828 66.1572 74.2767 65.9725 74.5248 65.8389C74.7729 65.7053 75.0487 65.6404 75.3547 65.6429C75.5839 65.6441 75.7954 65.6828 75.9881 65.7602C76.182 65.8376 76.3457 65.9488 76.4805 66.0948L76.2727 66.2996C76.0334 66.0561 75.7299 65.9338 75.3622 65.9313C75.1179 65.93 74.8963 65.9837 74.6961 66.0936C74.4959 66.2034 74.3385 66.3532 74.2239 66.5455C74.1093 66.7378 74.0513 66.9525 74.0501 67.1909C74.0488 67.4294 74.1042 67.6454 74.2163 67.8389C74.3284 68.0324 74.4845 68.1847 74.6835 68.2958C74.8825 68.4082 75.1041 68.4643 75.3484 68.4656C75.7186 68.4681 76.0233 68.347 76.2626 68.1035L76.4691 68.3108C76.3331 68.4556 76.1669 68.5667 75.9717 68.6416C75.7765 68.7178 75.5637 68.7552 75.3345 68.754C75.0273 68.7527 74.7527 68.6841 74.5072 68.5492Z" fill="white"/>
<path d="M78.9423 65.6904L79.2685 65.6917L79.2509 68.7503L78.9247 68.7491L78.9423 65.6904Z" fill="white"/>
<path d="M83.9579 67.9601L82.239 67.9501L81.8638 68.7653L81.525 68.7628L82.953 65.7129L83.2741 65.7141L84.6669 68.7803L84.3231 68.779L83.9579 67.9601ZM83.8408 67.6966L83.1104 66.05L82.3612 67.6879L83.8408 67.6966Z" fill="white"/>
<path d="M86.9588 65.7354L87.2849 65.7366L87.2686 68.5156L88.9963 68.5256L88.995 68.8052L86.9412 68.794L86.9588 65.7354Z" fill="white"/>
<path d="M96.1565 68.0287L94.4376 68.0187L94.0623 68.8339L93.7236 68.8314L95.1516 65.7815L95.4727 65.7827L96.8655 68.8489L96.5217 68.8464L96.1565 68.0287ZM96.0381 67.7652L95.3077 66.1186L94.5585 67.7565L96.0381 67.7652Z" fill="white"/>
<path d="M99.6093 68.6903C99.365 68.5555 99.1736 68.3683 99.0351 68.1298C98.8966 67.8914 98.8286 67.6254 98.8298 67.3308C98.8311 67.0362 98.9029 66.7715 99.0439 66.5343C99.1849 66.2984 99.3789 66.1136 99.6269 65.98C99.8738 65.8477 100.151 65.7815 100.457 65.784C100.686 65.7853 100.898 65.824 101.09 65.9014C101.284 65.9788 101.448 66.0899 101.583 66.2359L101.375 66.4407C101.136 66.1972 100.832 66.0749 100.464 66.0724C100.22 66.0711 99.9984 66.1248 99.7982 66.2347C99.598 66.3445 99.4406 66.4944 99.326 66.6866C99.2114 66.8789 99.1535 67.0936 99.1522 67.3321C99.1509 67.5705 99.2063 67.7865 99.3184 67.98C99.4305 68.1735 99.5866 68.3258 99.7856 68.4369C99.9846 68.5493 100.206 68.6055 100.45 68.6067C100.821 68.6092 101.125 68.4881 101.365 68.2447L101.571 68.4519C101.435 68.5967 101.269 68.7078 101.074 68.7827C100.879 68.8589 100.666 68.8963 100.437 68.8951C100.129 68.8938 99.8549 68.8252 99.6093 68.6903Z" fill="white"/>
<path d="M104.475 68.7165C104.231 68.5816 104.039 68.3944 103.901 68.1559C103.762 67.9175 103.694 67.6516 103.696 67.3569C103.697 67.0623 103.769 66.7976 103.91 66.5604C104.051 66.3232 104.245 66.1397 104.493 66.0061C104.741 65.8738 105.017 65.8076 105.323 65.8101C105.552 65.8114 105.763 65.8501 105.956 65.9275C106.149 66.0049 106.314 66.116 106.448 66.2621L106.241 66.4668C106.001 66.2234 105.698 66.101 105.33 66.0985C105.086 66.0973 104.864 66.1509 104.664 66.2608C104.464 66.3707 104.306 66.5205 104.192 66.7127C104.077 66.905 104.019 67.1197 104.018 67.3582C104.017 67.5966 104.072 67.8126 104.184 68.0061C104.296 68.1996 104.452 68.3507 104.651 68.463C104.85 68.5754 105.072 68.6316 105.316 68.6328C105.687 68.6353 105.991 68.5142 106.231 68.2708L106.437 68.4768C106.301 68.6216 106.135 68.7327 105.94 68.8089C105.744 68.885 105.532 68.9225 105.302 68.9212C104.995 68.9212 104.719 68.8525 104.475 68.7165Z" fill="white"/>
<path d="M111.075 68.6492L111.074 68.9288L108.893 68.9163L108.91 65.8577L111.026 65.8689L111.025 66.1486L109.235 66.1386L109.229 67.2259L110.824 67.2347L110.823 67.5106L109.228 67.5018L109.221 68.6379L111.075 68.6492Z" fill="white"/>
<path d="M113.795 68.8615C113.585 68.7878 113.423 68.6904 113.31 68.5706L113.44 68.3221C113.551 68.4333 113.699 68.5244 113.883 68.5931C114.068 68.663 114.258 68.6979 114.455 68.6992C114.731 68.7004 114.938 68.6517 115.077 68.5519C115.215 68.452 115.285 68.3221 115.286 68.1623C115.287 68.04 115.249 67.9426 115.175 67.869C115.101 67.7953 115.009 67.7391 114.901 67.6992C114.792 67.6592 114.641 67.6155 114.447 67.5681C114.216 67.5082 114.03 67.452 113.893 67.3971C113.756 67.3421 113.638 67.2597 113.539 67.1486C113.441 67.0375 113.393 66.8877 113.394 66.6979C113.396 66.5431 113.437 66.4033 113.52 66.2772C113.604 66.1511 113.731 66.05 113.901 65.9763C114.072 65.9014 114.284 65.8652 114.535 65.8665C114.712 65.8677 114.884 65.8927 115.053 65.9414C115.222 65.9901 115.368 66.0575 115.49 66.1424L115.378 66.3996C115.249 66.3147 115.111 66.2498 114.965 66.2073C114.819 66.1649 114.674 66.1424 114.533 66.1411C114.262 66.1399 114.059 66.1898 113.922 66.2922C113.785 66.3946 113.716 66.5282 113.716 66.6905C113.714 66.8128 113.752 66.9114 113.826 66.9863C113.901 67.0612 113.994 67.1187 114.107 67.1586C114.221 67.1986 114.372 67.2423 114.563 67.2897C114.789 67.3459 114.971 67.4021 115.111 67.457C115.249 67.5119 115.368 67.5943 115.465 67.7042C115.56 67.814 115.608 67.9626 115.607 68.1486C115.606 68.3034 115.563 68.4432 115.479 68.5693C115.394 68.6954 115.265 68.7953 115.091 68.869C114.917 68.9426 114.704 68.9788 114.451 68.9763C114.224 68.9726 114.005 68.9351 113.795 68.8615Z" fill="white"/>
<path d="M118.268 68.8864C118.059 68.8127 117.896 68.7154 117.783 68.5955L117.913 68.3471C118.024 68.4582 118.171 68.5493 118.356 68.618C118.541 68.6879 118.731 68.7229 118.928 68.7241C119.203 68.7253 119.411 68.6767 119.55 68.5768C119.688 68.4769 119.758 68.3471 119.759 68.1873C119.76 68.0649 119.722 67.9676 119.648 67.8939C119.574 67.8215 119.482 67.7641 119.373 67.7241C119.265 67.6842 119.114 67.6405 118.92 67.593C118.688 67.5331 118.503 67.4769 118.366 67.422C118.229 67.3671 118.11 67.2847 118.012 67.1736C117.914 67.0624 117.866 66.9126 117.867 66.7229C117.869 66.5681 117.91 66.4282 117.993 66.3021C118.076 66.1761 118.204 66.0749 118.374 66C118.545 65.9251 118.756 65.8889 119.008 65.8902C119.185 65.8914 119.357 65.9164 119.526 65.9651C119.695 66.0138 119.841 66.0812 119.963 66.1661L119.851 66.4232C119.722 66.3384 119.584 66.2734 119.438 66.231C119.29 66.1885 119.147 66.1661 119.006 66.1648C118.735 66.1636 118.532 66.2135 118.395 66.3159C118.258 66.4183 118.188 66.5518 118.188 66.7141C118.187 66.8365 118.225 66.9351 118.299 67.01C118.374 67.0849 118.467 67.1423 118.58 67.1823C118.693 67.2222 118.845 67.2659 119.036 67.3134C119.261 67.3696 119.444 67.4257 119.584 67.4807C119.722 67.5356 119.841 67.618 119.938 67.7279C120.033 67.8377 120.081 67.9863 120.08 68.1723C120.079 68.3271 120.036 68.4669 119.951 68.593C119.867 68.7191 119.737 68.819 119.564 68.8926C119.39 68.9663 119.177 69.0025 118.924 69C118.697 68.9975 118.478 68.9601 118.268 68.8864Z" fill="white"/>
</svg>
