<svg width="114" height="35" viewBox="0 0 114 35" fill="none" xmlns="http://www.w3.org/2000/svg">
<path d="M17.2612 8.14057C17.4419 7.15114 17.5322 6.3865 17.5322 5.89179C17.5322 3.77806 17.0352 2.24878 15.9959 1.34927C15.0019 0.449757 13.6011 0 11.8389 0H3.3438L0 20.8238H4.88011L5.96454 14.2124C6.46158 14.3472 7.13948 14.4823 7.99806 14.6172C8.85646 14.7071 9.71505 14.797 10.5736 14.797C12.2003 14.797 13.6011 14.2573 14.8663 13.2229C16.1315 12.1434 16.8997 10.4345 17.2612 8.14057ZM12.4263 7.6009C12.2906 8.45545 12.0196 9.13018 11.5677 9.66985C11.1158 10.1646 10.5736 10.4345 9.89572 10.4345H6.5521L7.50102 4.36269H10.8446C11.387 4.36269 11.8389 4.49756 12.1099 4.81245C12.3811 5.12733 12.5166 5.62204 12.5166 6.34155C12.5618 6.61147 12.5166 7.01627 12.4263 7.6009Z" fill="#3B8EF3"/>
<path d="M23.9489 0L14.2336 20.8238H19.2494L20.9213 17.046H27.5637L28.0156 20.8238H33.0764L30.0489 0H23.9489ZM22.7288 12.6833L26.2984 4.13772L27.157 12.6833H22.7288Z" fill="#3B8EF3"/>
<path d="M45.593 0L40.5322 9.75976L38.7247 0H33.4379L37.2787 15.022L36.3298 20.8238H41.2099L42.1588 15.022L51.151 0H45.593Z" fill="#3B8EF3"/>
<path d="M54.8109 13.3128L62.2216 13.0429L62.8542 9.1751L55.4888 8.99509L55.8955 6.25159C55.9859 5.66696 56.1665 5.26217 56.4377 4.94728C56.7088 4.67736 57.1606 4.54248 57.7934 4.54248H64.9327L65.5654 0.449721C62.809 0.17985 59.9622 0.0449219 56.98 0.0449219C55.534 0.0449219 54.2687 0.404763 53.2295 1.12427C52.145 1.84395 51.5125 3.14826 51.1961 4.94728L50.2924 10.7492L48.259 22.8027L50.0212 22.4879L47.6716 32.1128L57.5222 17.3157L54.0429 17.8104L54.8109 13.3128Z" fill="#3B8EF3"/>
<path d="M71.2589 0L61.5438 20.8238H66.5594L68.2314 17.046H74.9189L75.3707 20.8238H80.4317L77.3589 0H71.2589ZM70.0388 12.6833L73.6086 4.13772L74.467 12.6833H70.0388Z" fill="#3B8EF3"/>
<path d="M97.8737 4.13772L98.5514 0H84.5436L83.8207 4.36269H92.2705L81.8326 16.7311L81.1998 20.8238H95.524L96.2019 16.5061H87.4809L97.8737 4.13772Z" fill="#3B8EF3"/>
<path d="M79.7685 23.5156H83.7015L84.8668 33.9897H81.9535L81.8078 32.0109H79.2829L78.5545 33.9897H75.6412L79.7685 23.5156ZM81.7592 29.9353L81.4194 25.8324L79.9626 29.9353H81.7592Z" fill="#333333"/>
<path d="M87.1973 33.1212C86.469 32.4454 86.1292 31.48 86.1292 30.2249C86.1292 29.8389 86.1777 29.4526 86.2261 29.0666L86.3233 28.4873C86.5661 26.7496 87.1487 25.4947 88.0713 24.6257C88.9938 23.8053 90.3048 23.3708 92.0042 23.3708C93.1697 23.3708 94.1408 23.5639 94.8691 23.9983L94.3349 25.6878C93.9465 25.5913 93.6067 25.5429 93.2668 25.4947C92.9754 25.4464 92.587 25.4464 92.1014 25.4464C91.1788 25.4464 90.4991 25.6394 90.0621 26.0257C89.6737 26.4117 89.3822 26.991 89.2853 27.7633L88.9938 29.694C88.9453 29.9354 88.9453 30.1768 88.9453 30.418C88.9453 30.9489 89.091 31.3351 89.3337 31.5765C89.5766 31.8661 90.0136 31.9626 90.5963 31.9626H91.4217L91.7615 29.5975H90.2077L90.4991 27.6668H94.6748L93.8494 33.5072C92.8298 33.8933 91.6158 34.0865 90.2562 34.0865C88.9452 34.1347 87.8771 33.7968 87.1973 33.1212Z" fill="#333333"/>
<path d="M96.9572 23.5156H103.949L103.658 25.591H99.482L99.1908 27.6665H102.832L102.541 29.7421H98.8993L98.6081 31.866H102.784L102.492 33.9415H95.5005L96.9572 23.5156Z" fill="#333333"/>
<path d="M114 23.5156L112.495 33.9897H109.824L107.542 28.4872L106.765 33.9897H104.095L105.6 23.5156H108.27L110.553 29.0181L111.329 23.5156H114Z" fill="#333333"/>
<path d="M113.998 0H99.9907L99.2676 4.36269H107.718L97.3246 16.7311L96.6469 20.8238H110.971L111.694 16.5061H102.973L113.321 4.13772L113.998 0Z" fill="#3B8EF3"/>
</svg>
