<svg width="116" height="32" viewBox="0 0 116 32" fill="none" xmlns="http://www.w3.org/2000/svg">
<path fill-rule="evenodd" clip-rule="evenodd" d="M18 5.91509C18 6.40607 17.9129 7.16038 17.739 8.17924C17.3717 10.519 16.5507 12.222 15.2754 13.2878C14 14.354 12.5313 14.8868 10.8695 14.8868C9.9999 14.8868 9.11594 14.8302 8.2174 14.717C7.31904 14.6038 6.61817 14.4719 6.11606 14.3208L5.01462 21H0L3.42026 0H12.1448C13.961 0 15.3912 0.448435 16.4346 1.34443C17.4781 2.24077 18 3.76415 18 5.91509ZM11.8841 9.72161C12.3284 9.20304 12.6181 8.50955 12.7537 7.64151C12.85 7.07547 12.8986 6.66061 12.8986 6.39623C12.8986 5.67936 12.7537 5.16518 12.4638 4.85386C12.1738 4.54254 11.739 4.38679 11.1595 4.38679H7.71007L6.72475 10.5H10.174C10.8695 10.5 11.4393 10.2409 11.8841 9.72161Z" fill="white"/>
<path fill-rule="evenodd" clip-rule="evenodd" d="M14 21L23.7844 0H29.9281L33 21H27.9087L27.4534 17.1794H20.7126L19.0344 21H14ZM26.1452 4.18868L22.5614 12.7925H26.9985L26.1452 4.18868Z" fill="white"/>
<path d="M45.3732 0L40.2057 9.84906L38.3971 0H33L36.9043 15.1132L35.9569 21H40.9234L41.8708 15.1132L51 0H45.3732Z" fill="white"/>
<path d="M54.143 13.288L61.5983 13.0357L62.2503 9.19504L54.8233 8.97077L55.2485 6.22347C55.3427 5.64434 55.532 5.21426 55.8155 4.93393C56.099 4.65359 56.5525 4.51342 57.1761 4.51342H64.348L65 0.420505C62.2405 0.158974 59.3682 0.0188052 56.3824 0C54.927 0 53.6655 0.364438 52.5981 1.09331C51.5301 1.82219 50.8547 3.09328 50.5712 4.90589L49.6439 10.684L47.5971 22.7226L49.3562 22.4165L47 32L56.9036 17.2529L53.4215 17.7352L54.143 13.288Z" fill="white"/>
<path fill-rule="evenodd" clip-rule="evenodd" d="M62 21L71.7844 0H77.9281L81 21H75.9089L75.4536 17.1794H68.7126L67.0344 21H62ZM74.1452 4.18868L70.5614 12.7925H74.9985L74.1452 4.18868Z" fill="white"/>
<path d="M99.3257 4.16038L100 0H85.4593L84.7264 4.38679H93.4919L82.6743 16.8679L82 21H96.8632L97.5961 16.6132H88.5375L99.3257 4.16038Z" fill="white"/>
<path d="M116 0H101.459L100.726 4.38679H109.492L98.6743 16.8679L98 21H112.863L113.596 16.6132H104.537L115.326 4.16038L116 0Z" fill="white"/>
<path fill-rule="evenodd" clip-rule="evenodd" d="M73 32L77.1348 24H79.2722L81 32H78.773L78.5532 30.7218H75.7268L75.1174 32H73ZM77.804 26.3509L76.5556 28.9872H78.2534L77.804 26.3509Z" fill="white"/>
<path d="M86.4964 26.2033C86.8359 26.0018 87.2032 25.9011 87.5986 25.9011C87.9415 25.9011 88.2866 25.9782 88.6337 26.1318C88.9805 26.2857 89.2769 26.4909 89.5231 26.7472L91 25.1868C90.6196 24.8206 90.1423 24.5312 89.5678 24.3187C88.9934 24.1063 88.4078 24 87.8112 24C86.9235 24 86.1122 24.1907 85.3777 24.5714C84.6429 24.9525 84.0629 25.4744 83.6378 26.1374C83.2126 26.8005 83 27.5384 83 28.3515C83 29.0476 83.1621 29.6722 83.4866 30.2252C83.8113 30.7784 84.2641 31.2125 84.8462 31.5273C85.428 31.8424 86.0917 32 86.8378 32C87.3822 32 87.951 31.9065 88.5442 31.7197C89.1372 31.5329 89.6685 31.2895 90.1385 30.9888L90.7762 27.8571H90.7713L90.861 27.421H87.4346L87.1302 28.9032H88.5627L88.3816 29.8021C87.9193 29.9999 87.5239 30.0989 87.1958 30.0989C86.8526 30.0989 86.5429 30.0164 86.2671 29.8516C85.991 29.6868 85.7765 29.4579 85.6237 29.1647C85.4708 28.8719 85.3942 28.5458 85.3942 28.1867C85.3942 27.7691 85.4932 27.3845 85.6908 27.0331C85.8884 26.6813 86.157 26.4049 86.4964 26.2033Z" fill="white"/>
<path d="M93 32H99.532L99.8908 30.174H95.6779L95.9356 28.9073H99.6555L100.014 27.0813H96.2941L96.5406 25.826H100.641L101 24H94.5686L93 32Z" fill="white"/>
<path d="M108.867 24L107.996 28.4736L105.551 24H103.563L102 32H104.144L105.015 27.5606L107.449 32H109.437L111 24H108.867Z" fill="white"/>
</svg>
