<svg width="260" height="260" viewBox="0 0 260 260" fill="none" xmlns="http://www.w3.org/2000/svg">
<path d="M191.83 68.9934C192.472 68.9934 193.13 69.0729 193.801 69.1523C218.407 72.0412 258.613 109.871 229.587 151.486C199.781 194.212 177.421 234.455 131.719 236.939C86.0168 239.423 23.9057 216.551 20.4318 168.855C16.9579 121.16 84.5218 130.577 114.321 120.163C144.12 109.748 156.78 67.4479 191.83 68.9934Z" fill="#E6F1FF"/>
<path d="M76.7363 216.053L79.8274 232.389C79.8274 232.389 90.6608 236.145 101.494 236.809C112.327 237.474 120.763 237.279 120.763 237.279L120.041 222.452L76.7363 216.053Z" fill="#3E6295"/>
<path d="M114.718 220.689L115.158 237.25C115.158 237.25 124.648 238.131 139.663 235.264C154.678 232.397 159.763 228.417 159.763 228.417L158.434 211.416L114.718 220.689Z" fill="#0A2245"/>
<path d="M78.9971 78.9319L95.0665 84.7097L161.193 83.6047C161.193 83.6047 155.235 78.968 154.513 78.968C153.79 78.968 130.614 74.7719 128.628 74.9886C126.642 75.2052 78.9971 78.9319 78.9971 78.9319Z" fill="#D4DCE8"/>
<path d="M139.995 70.3152C139.995 70.3152 144.328 76.613 142.646 85.8863C140.963 95.1596 167.158 97.8102 167.49 124.634C167.822 151.457 186.268 162.767 187.026 177.63C188.521 206.447 170.141 221.021 124.763 204.128C79.3862 187.236 94.6179 158.419 99.5868 142.191C104.556 125.962 95.9756 118.357 97.2684 110.724C98.5612 103.09 102.57 94.4952 105.885 91.8446C109.2 89.1941 97.2684 81.9141 99.919 76.2807C102.57 70.6474 95.9468 43.1596 112.197 49.4502C128.447 55.7407 141.981 62.0385 139.995 70.3152Z" fill="#0A2245"/>
<path d="M165.281 35.2085L157.329 22.6201L154.513 78.9318L160.861 83.3446L165.281 35.2085Z" fill="#0A2245"/>
<path d="M102.902 79.2638C102.902 79.2638 101.58 82.8749 110.846 85.5544C120.113 88.2338 117.137 92.8416 116.805 94.4955C116.473 96.1494 104.527 99.9049 104.527 101.674C104.527 103.444 116.234 105.87 123.305 105.206C130.375 104.542 132.138 98.7999 132.138 98.7999C132.138 98.7999 126.36 94.8277 126.36 92.6177C126.36 90.4077 126.584 85.3305 129.891 81.3583C133.199 77.386 144.083 68.7627 132.6 61.7066C121.116 54.6505 111.829 55.3005 107.647 60.6016C103.465 65.9027 102.902 79.2638 102.902 79.2638Z" fill="#BDE3FF"/>
<path d="M110.962 97.478C110.962 97.478 112.508 102.534 118.69 102.534C124.872 102.534 129.523 96.5752 129.523 96.5752C129.523 96.5752 154.584 102.425 163.193 138.854C171.802 175.283 170.813 195.491 170.155 209.408C169.498 223.325 141.007 227.955 127.097 225.969C113.187 223.982 92.9787 229.276 78.0721 215.034C72.2293 209.451 73.8832 170.321 79.8415 140.515C85.7998 110.709 94.8421 100.129 110.962 97.478Z" fill="#D4DCE8"/>
<path d="M139.273 101.263C138.284 100.613 137.345 100.05 136.457 99.5586C131.481 103.711 123.002 115.079 121.117 142.105C118.466 180.079 112.508 213.424 103.011 199.514C93.5134 185.604 100.736 103.538 100.36 104.123C91.0868 118.697 80.4918 171.47 79.8273 171.694C79.4084 171.831 80.9468 198.907 82.7162 218.79C96.9801 228.324 114.588 224.221 127.104 226.012C127.826 226.106 128.548 226.186 129.271 226.251C128.267 220.95 127.169 215.829 127.104 215.417C126.88 214.536 131.517 166.4 131.517 144.979C131.495 128.332 137.107 109.207 139.273 101.263Z" fill="#BFCBDC"/>
<path d="M139.007 106.752C139.007 106.752 163.071 120.886 174.554 108.962C186.038 97.038 160.861 65.8741 159.099 60.8186C157.337 55.763 158.218 45.8036 160.861 46.6847C163.504 47.5658 164.617 53.748 163.75 55.7414C162.883 57.7347 163.309 63.6858 166.177 64.5741C169.044 65.4625 201.067 90.408 188.919 116.899C176.772 143.39 146.084 138.32 139.902 134.124C133.72 129.928 139.007 106.752 139.007 106.752Z" fill="#BDE3FF"/>
<path d="M75.1903 43.377C72.7636 43.377 71.2181 49.5664 72.3014 52.6575C73.3847 55.7486 78.4836 70.3158 69.4125 79.5892C60.3414 88.8625 58.1531 106.311 68.7481 116.249C79.3431 126.187 81.5603 126.844 81.5603 126.844L96.792 104.766C96.792 104.766 75.8475 100.794 76.2592 91.5131C76.6709 82.2325 77.8047 67.2247 77.8047 67.2247L75.1903 43.377Z" fill="#BDE3FF"/>
<path d="M107.04 98.3086C107.04 98.3086 96.4743 101.508 92.0543 101.284C87.6343 101.06 81.0404 98.4747 81.0404 98.4747L70.0049 120.329C70.0049 120.329 77.4004 125.081 76.736 132.145C76.0716 139.208 70.2793 150.142 70.5538 185.799C70.7993 217.945 71.6588 218.92 74.7499 221.794C77.841 224.669 89.1943 228.251 94.2932 229.796C99.3921 231.342 99.3488 221.498 98.6265 199.463C96.1638 130.375 98.5977 107.192 107.04 98.3086Z" fill="#3B8EF3"/>
<path d="M137.179 99.1318C137.179 99.1318 127.068 102.996 123.991 120.221C118.177 152.612 123.991 216.276 124.208 221.794C124.424 227.312 134.369 237.683 153.819 228.193C173.268 218.703 173.03 213.842 171.925 191.981C170.82 170.119 161.965 140.985 167.043 138.096C172.12 135.207 177.421 132.578 177.421 132.578L169.036 109.395C169.036 109.395 156.173 114.147 137.179 99.1318Z" fill="#3B8EF3"/>
<path d="M169.036 109.402C169.036 109.402 156.174 114.147 137.179 99.1318C135.168 100.071 133.369 101.41 131.893 103.068C135.28 107.149 142.581 114.566 150.764 114.205C157.121 113.877 163.343 112.247 169.044 109.416L169.036 109.402Z" fill="#2E609C"/>
<path d="M162.529 223.362C173.11 216.385 172.806 209.885 171.918 191.981C170.813 170.127 161.98 140.978 167.057 138.104C172.135 135.229 177.436 132.586 177.436 132.586L176.107 128.917C172.59 130.253 153.328 138.306 152.924 143.073C152.483 148.265 163.078 158.42 163.078 189.331C163.107 197.571 162.717 214.695 162.529 223.362Z" fill="#2E609C"/>
<path d="M78.9962 78.9318H154.512L157.328 22.6201L71.4346 24.1729L78.9962 78.9318Z" fill="#3E6295"/>
<path d="M154.512 78.9315L148.106 65.0215L67.0225 65.6787L78.9969 78.9315H154.512Z" fill="#133F7E"/>
<path d="M169.253 77.0536L160.088 63.8008L154.513 78.9313L161.193 83.568L169.253 77.0536Z" fill="#030B17"/>
<path d="M135.662 198.164C135.662 198.164 139.418 198.604 146.04 196.618C150.062 195.412 153.919 193.714 157.524 191.563C157.524 191.562 164.147 208.347 159.069 213.424C153.992 218.501 140.739 221.593 138.753 218.061C136.767 214.529 135.662 198.164 135.662 198.164Z" fill="#2E609C"/>
<path d="M74.3096 191.324C74.3096 191.324 78.7224 195.961 84.0235 196.842L89.3246 197.723C89.3246 197.723 91.7513 208.325 89.5413 213.403C87.3313 218.48 79.3868 216.494 76.5413 214.508C73.6957 212.521 72.1068 200.814 74.3096 191.324Z" fill="#2E609C"/>
<path d="M143.708 218.191C143.467 218.206 143.226 218.206 142.985 218.191C142.962 218.189 142.939 218.182 142.918 218.172C142.897 218.161 142.879 218.146 142.864 218.127C142.849 218.109 142.838 218.088 142.832 218.065C142.825 218.043 142.823 218.019 142.826 217.996C142.828 217.972 142.835 217.949 142.846 217.928C142.856 217.906 142.871 217.888 142.889 217.872C142.907 217.857 142.928 217.845 142.951 217.838C142.974 217.83 142.998 217.828 143.021 217.83C143.238 217.83 143.469 217.83 143.744 217.83C144.069 217.83 144.395 217.813 144.719 217.779C144.745 217.774 144.772 217.774 144.798 217.781C144.824 217.787 144.848 217.799 144.869 217.816C144.89 217.833 144.906 217.854 144.918 217.879C144.929 217.903 144.935 217.929 144.935 217.956C144.935 217.983 144.929 218.009 144.918 218.033C144.906 218.058 144.89 218.079 144.869 218.096C144.848 218.113 144.824 218.125 144.798 218.131C144.772 218.138 144.745 218.138 144.719 218.133C144.383 218.173 144.045 218.192 143.708 218.191ZM146.387 217.858C146.346 217.858 146.306 217.843 146.275 217.817C146.243 217.79 146.222 217.754 146.214 217.714C146.208 217.691 146.208 217.667 146.212 217.643C146.216 217.62 146.224 217.597 146.237 217.577C146.25 217.557 146.266 217.54 146.286 217.526C146.306 217.512 146.328 217.503 146.351 217.497C146.871 217.382 147.427 217.237 147.99 217.071C148.013 217.063 148.036 217.06 148.06 217.062C148.083 217.064 148.106 217.07 148.127 217.081C148.148 217.092 148.167 217.107 148.182 217.125C148.197 217.143 148.208 217.164 148.214 217.187C148.221 217.21 148.223 217.233 148.22 217.257C148.218 217.281 148.211 217.303 148.199 217.324C148.188 217.345 148.172 217.363 148.154 217.378C148.135 217.393 148.114 217.404 148.091 217.411C147.521 217.584 146.958 217.736 146.43 217.851L146.387 217.858ZM141.44 217.541C141.417 217.541 141.394 217.537 141.373 217.528C141.352 217.52 141.333 217.507 141.317 217.49C141.23 217.411 141.15 217.324 141.079 217.23C140.804 216.838 140.578 216.413 140.407 215.966C140.396 215.945 140.39 215.922 140.39 215.898C140.389 215.875 140.393 215.851 140.402 215.829C140.411 215.808 140.424 215.788 140.441 215.772C140.458 215.755 140.479 215.743 140.501 215.735C140.523 215.726 140.546 215.72 140.57 215.72C140.594 215.72 140.617 215.724 140.64 215.733C140.662 215.741 140.682 215.754 140.699 215.771C140.716 215.787 140.73 215.807 140.739 215.829C140.902 216.251 141.115 216.651 141.375 217.021C141.429 217.093 141.489 217.161 141.555 217.223C141.574 217.239 141.588 217.258 141.598 217.28C141.608 217.302 141.614 217.325 141.614 217.349C141.614 217.373 141.608 217.397 141.598 217.419C141.588 217.441 141.574 217.46 141.555 217.476C141.542 217.495 141.525 217.51 141.505 217.522C141.485 217.533 141.463 217.539 141.44 217.541ZM149.673 216.818C149.632 216.816 149.594 216.799 149.564 216.772C149.534 216.745 149.514 216.708 149.507 216.668C149.5 216.628 149.507 216.587 149.527 216.551C149.547 216.515 149.578 216.488 149.615 216.472C150.135 216.277 150.663 216.067 151.19 215.836C151.234 215.819 151.283 215.819 151.327 215.836C151.372 215.854 151.408 215.887 151.428 215.93C151.446 215.974 151.446 216.024 151.428 216.068C151.411 216.112 151.377 216.148 151.334 216.169C150.8 216.4 150.265 216.616 149.738 216.811L149.673 216.818ZM152.815 215.468C152.781 215.468 152.749 215.459 152.72 215.441C152.692 215.423 152.67 215.397 152.656 215.367C152.645 215.346 152.638 215.322 152.636 215.298C152.634 215.274 152.637 215.25 152.644 215.227C152.651 215.204 152.663 215.183 152.679 215.165C152.695 215.147 152.714 215.132 152.735 215.121C153.248 214.868 153.754 214.601 154.238 214.327C154.28 214.306 154.329 214.301 154.375 214.315C154.42 214.328 154.459 214.358 154.483 214.399C154.495 214.42 154.502 214.443 154.504 214.466C154.507 214.49 154.505 214.514 154.498 214.537C154.491 214.56 154.48 214.581 154.465 214.599C154.45 214.618 154.432 214.633 154.411 214.645C153.927 214.919 153.414 215.186 152.894 215.446C152.874 215.484 152.841 215.512 152.8 215.526L152.815 215.468ZM139.995 214.5C139.957 214.5 139.92 214.487 139.89 214.463C139.86 214.44 139.839 214.407 139.829 214.37C139.678 213.879 139.519 213.323 139.36 212.716C139.347 212.669 139.354 212.619 139.378 212.577C139.403 212.535 139.443 212.505 139.49 212.492C139.537 212.48 139.587 212.487 139.629 212.511C139.671 212.535 139.701 212.575 139.714 212.622C139.865 213.222 140.017 213.778 140.169 214.262C140.182 214.307 140.178 214.355 140.156 214.397C140.135 214.439 140.098 214.471 140.053 214.486L139.995 214.5ZM155.783 213.836C155.753 213.835 155.723 213.827 155.696 213.812C155.67 213.797 155.647 213.775 155.631 213.749C155.618 213.73 155.609 213.708 155.604 213.685C155.599 213.662 155.599 213.638 155.604 213.615C155.609 213.593 155.618 213.571 155.632 213.552C155.645 213.532 155.662 213.516 155.682 213.504C156.18 213.171 156.643 212.839 157.054 212.507C157.092 212.482 157.138 212.472 157.182 212.479C157.227 212.486 157.267 212.509 157.295 212.545C157.324 212.58 157.337 212.625 157.334 212.67C157.331 212.715 157.311 212.757 157.278 212.789C156.859 213.128 156.39 213.467 155.884 213.8C155.85 213.824 155.81 213.836 155.769 213.836H155.783ZM158.419 211.669C158.374 211.667 158.33 211.649 158.296 211.618C158.279 211.602 158.265 211.583 158.256 211.561C158.247 211.539 158.242 211.516 158.242 211.492C158.242 211.468 158.247 211.445 158.256 211.423C158.265 211.402 158.279 211.382 158.296 211.366C158.591 211.048 158.85 210.699 159.069 210.326C159.127 210.225 159.178 210.123 159.228 210.015C159.247 209.971 159.283 209.936 159.328 209.919C159.372 209.901 159.422 209.902 159.466 209.921C159.51 209.94 159.545 209.976 159.563 210.021C159.58 210.066 159.579 210.116 159.56 210.16C159.503 210.275 159.452 210.391 159.387 210.499C159.156 210.9 158.877 211.271 158.556 211.604C158.541 211.63 158.518 211.65 158.491 211.663C158.465 211.676 158.434 211.681 158.405 211.676L158.419 211.669ZM139.136 211.178C139.096 211.176 139.058 211.162 139.027 211.138C138.996 211.113 138.973 211.079 138.963 211.041C138.84 210.485 138.724 209.929 138.609 209.358C138.599 209.311 138.609 209.262 138.635 209.222C138.661 209.182 138.703 209.154 138.749 209.145C138.796 209.135 138.845 209.145 138.885 209.171C138.925 209.198 138.953 209.239 138.963 209.286C139.078 209.849 139.194 210.412 139.316 210.961C139.325 211.007 139.316 211.055 139.29 211.094C139.264 211.133 139.225 211.16 139.179 211.171L139.136 211.178ZM159.813 208.621C159.789 208.619 159.766 208.611 159.745 208.6C159.724 208.588 159.706 208.572 159.691 208.553C159.677 208.535 159.666 208.513 159.659 208.49C159.653 208.467 159.651 208.443 159.654 208.419C159.708 207.978 159.735 207.534 159.734 207.09C159.734 206.975 159.734 206.859 159.734 206.736C159.734 206.688 159.753 206.642 159.787 206.609C159.82 206.575 159.866 206.556 159.914 206.556C159.961 206.556 160.006 206.574 160.039 206.606C160.073 206.638 160.093 206.682 160.095 206.729C160.095 206.852 160.095 206.967 160.095 207.09C160.096 207.549 160.069 208.007 160.015 208.462C160.008 208.513 159.981 208.559 159.941 208.59C159.9 208.621 159.849 208.635 159.799 208.629L159.813 208.621ZM138.464 207.827C138.421 207.826 138.38 207.81 138.347 207.783C138.314 207.755 138.292 207.717 138.284 207.675C138.183 207.105 138.081 206.541 137.988 205.992C137.983 205.969 137.984 205.944 137.99 205.921C137.995 205.897 138.005 205.875 138.019 205.856C138.033 205.836 138.051 205.82 138.072 205.807C138.092 205.795 138.115 205.786 138.139 205.783C138.185 205.777 138.231 205.788 138.269 205.815C138.307 205.842 138.333 205.882 138.341 205.927C138.435 206.476 138.536 207.04 138.638 207.61C138.643 207.633 138.643 207.658 138.639 207.681C138.634 207.705 138.625 207.727 138.611 207.746C138.598 207.766 138.58 207.783 138.56 207.795C138.539 207.808 138.517 207.816 138.493 207.82L138.464 207.827ZM159.763 205.212C159.718 205.213 159.675 205.197 159.642 205.167C159.609 205.138 159.587 205.098 159.582 205.053C159.524 204.526 159.438 203.963 159.329 203.371C159.323 203.324 159.334 203.277 159.361 203.238C159.387 203.199 159.428 203.172 159.474 203.161C159.521 203.154 159.57 203.165 159.61 203.192C159.65 203.219 159.678 203.259 159.69 203.306C159.791 203.905 159.878 204.476 159.943 205.01C159.947 205.058 159.933 205.105 159.904 205.143C159.874 205.18 159.831 205.205 159.784 205.212H159.763ZM137.886 204.454C137.844 204.453 137.804 204.437 137.772 204.409C137.741 204.382 137.72 204.344 137.713 204.302C137.612 203.696 137.525 203.125 137.453 202.605C137.449 202.582 137.45 202.558 137.455 202.535C137.461 202.512 137.471 202.49 137.485 202.471C137.499 202.452 137.517 202.436 137.538 202.425C137.558 202.413 137.581 202.406 137.605 202.403C137.628 202.398 137.653 202.398 137.676 202.403C137.7 202.408 137.722 202.418 137.741 202.432C137.76 202.447 137.776 202.465 137.787 202.486C137.799 202.507 137.805 202.531 137.807 202.555L138.067 204.245C138.073 204.291 138.061 204.339 138.032 204.377C138.004 204.415 137.962 204.44 137.915 204.447L137.886 204.454ZM159.17 201.847C159.128 201.846 159.088 201.832 159.055 201.806C159.022 201.78 158.999 201.743 158.99 201.702C158.874 201.175 158.737 200.619 158.585 200.056C158.572 200.01 158.577 199.96 158.6 199.918C158.623 199.876 158.662 199.845 158.708 199.832C158.731 199.825 158.756 199.824 158.78 199.827C158.804 199.83 158.827 199.837 158.847 199.85C158.868 199.862 158.887 199.878 158.901 199.897C158.916 199.916 158.926 199.938 158.932 199.962C159.084 200.532 159.221 201.096 159.344 201.623C159.349 201.646 159.35 201.67 159.346 201.694C159.342 201.717 159.333 201.74 159.32 201.76C159.307 201.78 159.291 201.797 159.271 201.811C159.252 201.825 159.23 201.835 159.206 201.84L159.17 201.847ZM137.388 201.067C137.345 201.065 137.304 201.049 137.272 201.019C137.24 200.99 137.22 200.951 137.215 200.908C137.128 200.265 137.078 199.875 137.07 199.839V199.651H137.258C137.258 199.651 137.923 199.601 138.955 199.478C139.003 199.474 139.05 199.488 139.088 199.517C139.125 199.547 139.15 199.59 139.158 199.637C139.161 199.661 139.159 199.685 139.152 199.708C139.146 199.731 139.135 199.752 139.12 199.771C139.106 199.79 139.087 199.806 139.066 199.817C139.045 199.829 139.022 199.836 138.999 199.839C138.276 199.918 137.742 199.969 137.475 199.991C137.475 200.171 137.54 200.475 137.59 200.872C137.597 200.919 137.584 200.966 137.556 201.004C137.527 201.042 137.485 201.067 137.439 201.074L137.388 201.067ZM140.653 199.622C140.61 199.622 140.568 199.606 140.535 199.578C140.503 199.551 140.48 199.513 140.472 199.471C140.468 199.447 140.469 199.422 140.475 199.399C140.481 199.375 140.492 199.353 140.507 199.334C140.521 199.315 140.54 199.3 140.562 199.288C140.583 199.277 140.607 199.27 140.631 199.269L142.314 199.009C142.338 199.001 142.364 199 142.389 199.003C142.414 199.007 142.439 199.016 142.46 199.029C142.482 199.043 142.5 199.061 142.514 199.082C142.528 199.104 142.538 199.128 142.542 199.153C142.546 199.178 142.545 199.204 142.538 199.229C142.532 199.253 142.52 199.276 142.504 199.296C142.488 199.316 142.467 199.332 142.445 199.343C142.422 199.355 142.397 199.361 142.371 199.362C141.779 199.463 141.209 199.55 140.681 199.622H140.653ZM144.025 199.059C143.983 199.056 143.943 199.038 143.912 199.009C143.882 198.979 143.863 198.94 143.859 198.897C143.854 198.855 143.865 198.813 143.889 198.777C143.913 198.742 143.948 198.717 143.989 198.705C144.56 198.59 145.123 198.467 145.658 198.344C145.681 198.339 145.705 198.338 145.728 198.342C145.752 198.346 145.774 198.355 145.794 198.368C145.815 198.38 145.832 198.397 145.846 198.416C145.859 198.436 145.869 198.458 145.874 198.481C145.883 198.528 145.874 198.576 145.848 198.617C145.823 198.657 145.783 198.686 145.737 198.698C145.203 198.821 144.639 198.944 144.061 199.059H144.025ZM158.296 198.553C158.258 198.554 158.221 198.542 158.19 198.52C158.159 198.498 158.135 198.467 158.123 198.431C157.95 197.853 157.776 197.304 157.61 196.799C157.596 196.753 157.6 196.703 157.623 196.66C157.645 196.617 157.683 196.585 157.729 196.571C157.775 196.557 157.825 196.561 157.868 196.583C157.911 196.606 157.943 196.644 157.957 196.69C158.123 197.196 158.296 197.745 158.47 198.322C158.483 198.368 158.478 198.418 158.455 198.46C158.432 198.502 158.393 198.533 158.347 198.546L158.296 198.553ZM147.348 198.272C147.309 198.271 147.271 198.258 147.24 198.234C147.209 198.211 147.186 198.179 147.174 198.142C147.163 198.095 147.17 198.046 147.194 198.004C147.219 197.962 147.258 197.931 147.304 197.918C147.875 197.759 148.424 197.586 148.922 197.412C148.968 197.398 149.018 197.403 149.061 197.424C149.104 197.446 149.137 197.483 149.153 197.528C149.161 197.551 149.164 197.575 149.163 197.599C149.161 197.623 149.155 197.646 149.144 197.668C149.133 197.689 149.118 197.709 149.1 197.724C149.082 197.74 149.06 197.752 149.038 197.759C148.532 197.932 147.983 198.106 147.398 198.272H147.348ZM150.576 197.145C150.541 197.145 150.506 197.135 150.477 197.116C150.447 197.097 150.424 197.069 150.41 197.037C150.399 197.015 150.393 196.992 150.392 196.967C150.391 196.943 150.395 196.919 150.404 196.897C150.413 196.875 150.426 196.854 150.443 196.837C150.461 196.82 150.481 196.807 150.504 196.799L150.973 196.575L152.028 196.055C152.071 196.034 152.12 196.031 152.166 196.045C152.212 196.06 152.25 196.092 152.273 196.134C152.284 196.156 152.29 196.179 152.292 196.204C152.294 196.228 152.29 196.252 152.282 196.275C152.274 196.298 152.261 196.319 152.245 196.337C152.228 196.355 152.209 196.37 152.186 196.38L151.132 196.9L150.648 197.124C150.622 197.138 150.591 197.143 150.561 197.138L150.576 197.145ZM153.631 195.621C153.597 195.622 153.565 195.612 153.536 195.594C153.508 195.576 153.486 195.551 153.472 195.52C153.461 195.5 153.454 195.477 153.451 195.454C153.449 195.431 153.451 195.408 153.458 195.386C153.464 195.363 153.475 195.343 153.49 195.325C153.505 195.307 153.524 195.292 153.544 195.282C154.158 194.964 154.649 194.697 155.039 194.473C155.08 194.455 155.126 194.452 155.169 194.466C155.211 194.479 155.247 194.508 155.27 194.547C155.292 194.585 155.299 194.631 155.29 194.675C155.281 194.718 155.256 194.757 155.22 194.783C154.823 195.007 154.324 195.282 153.71 195.6C153.682 195.615 153.648 195.62 153.616 195.614L153.631 195.621ZM157.242 195.303C157.205 195.305 157.168 195.294 157.137 195.273C157.106 195.253 157.082 195.223 157.069 195.188C156.859 194.588 156.693 194.148 156.599 193.91C156.569 193.914 156.537 193.91 156.509 193.897C156.481 193.884 156.457 193.864 156.44 193.837C156.407 193.804 156.389 193.758 156.389 193.711C156.389 193.664 156.407 193.618 156.44 193.585V192.696L156.794 193.57C156.794 193.57 157.018 194.134 157.343 195.058C157.359 195.103 157.357 195.153 157.337 195.196C157.316 195.239 157.28 195.273 157.235 195.289L157.242 195.303Z" fill="white"/>
<path d="M82.4421 215.706C82.3942 215.706 82.3483 215.687 82.3144 215.653C82.2806 215.62 82.2615 215.574 82.2615 215.526C82.2615 215.478 82.2806 215.432 82.3144 215.398C82.3483 215.364 82.3942 215.345 82.4421 215.345C83.0004 215.323 83.5559 215.255 84.1032 215.143C84.1501 215.132 84.1993 215.141 84.24 215.167C84.2806 215.192 84.3093 215.233 84.3199 215.28C84.3304 215.327 84.3219 215.376 84.2961 215.417C84.2704 215.458 84.2296 215.486 84.1827 215.497C83.6142 215.615 83.0368 215.685 82.4565 215.706H82.4421ZM80.7377 215.648C80.1585 215.588 79.5872 215.467 79.0332 215.287C78.9886 215.272 78.9515 215.241 78.9299 215.199C78.9083 215.157 78.9039 215.109 78.9177 215.063C78.9341 215.018 78.9672 214.981 79.0102 214.96C79.0532 214.938 79.1028 214.934 79.1488 214.948C79.6802 215.117 80.2269 215.233 80.781 215.295C80.8218 215.303 80.8585 215.325 80.8849 215.357C80.9112 215.39 80.9256 215.43 80.9256 215.472C80.9256 215.513 80.9112 215.554 80.8849 215.586C80.8585 215.618 80.8218 215.64 80.781 215.648H80.7377ZM85.7932 214.998C85.7578 215 85.7228 214.99 85.6931 214.97C85.6634 214.951 85.6404 214.923 85.6271 214.89C85.6097 214.846 85.6097 214.797 85.6271 214.752C85.6445 214.708 85.6781 214.672 85.721 214.652C86.2396 214.445 86.726 214.166 87.1654 213.821C87.1836 213.804 87.2052 213.791 87.2287 213.782C87.2523 213.774 87.2773 213.771 87.3022 213.772C87.3272 213.774 87.3515 213.781 87.3736 213.793C87.3957 213.805 87.4152 213.821 87.4307 213.84C87.4463 213.86 87.4576 213.882 87.464 213.907C87.4703 213.931 87.4716 213.956 87.4677 213.981C87.4638 214.005 87.4549 214.029 87.4414 214.05C87.4279 214.071 87.4101 214.089 87.3893 214.103C86.9297 214.466 86.4216 214.762 85.8799 214.984C85.8631 214.995 85.8439 215.002 85.8238 215.005C85.8037 215.007 85.7834 215.005 85.7643 214.998H85.7932ZM77.6104 214.486C77.575 214.496 77.5375 214.496 77.5021 214.486L76.1515 213.438C76.118 213.404 76.0993 213.357 76.0993 213.308C76.0993 213.26 76.118 213.213 76.1515 213.178C76.1861 213.147 76.2312 213.13 76.2779 213.13C76.3247 213.13 76.3697 213.147 76.4043 213.178L77.7477 214.226C77.7807 214.259 77.7993 214.305 77.7993 214.352C77.7993 214.399 77.7807 214.445 77.7477 214.478C77.7226 214.493 77.6944 214.501 77.6655 214.502C77.6366 214.504 77.6078 214.498 77.5815 214.486H77.6104ZM88.386 212.868C88.355 212.875 88.323 212.875 88.2921 212.868C88.2523 212.843 88.224 212.803 88.2132 212.757C88.2024 212.711 88.21 212.663 88.2343 212.622C88.4974 212.137 88.6895 211.617 88.8049 211.077C88.8153 211.031 88.8429 210.992 88.8819 210.966C88.921 210.94 88.9684 210.931 89.0143 210.94C89.0376 210.945 89.0597 210.954 89.0792 210.968C89.0987 210.982 89.1153 210.999 89.1281 211.019C89.1408 211.039 89.1495 211.062 89.1535 211.085C89.1575 211.109 89.1569 211.133 89.1515 211.156C89.035 211.733 88.8304 212.288 88.5449 212.803C88.5234 212.831 88.4941 212.852 88.4607 212.864C88.4274 212.875 88.3913 212.877 88.3571 212.868H88.386ZM89.2238 209.589C89.2 209.587 89.1769 209.581 89.1557 209.57C89.1345 209.559 89.1156 209.544 89.1001 209.526C89.0847 209.508 89.073 209.487 89.0657 209.464C89.0584 209.442 89.0557 209.418 89.0577 209.394C89.101 208.874 89.1227 208.303 89.1227 207.704C89.1227 207.656 89.1417 207.61 89.1755 207.576C89.2094 207.542 89.2553 207.523 89.3032 207.523C89.3511 207.523 89.397 207.542 89.4309 207.576C89.4647 207.61 89.4838 207.656 89.4838 207.704C89.4838 208.318 89.4838 208.896 89.4188 209.423C89.4185 209.45 89.412 209.477 89.3999 209.501C89.3878 209.526 89.3703 209.547 89.3488 209.564C89.3272 209.58 89.3022 209.592 89.2755 209.598C89.2489 209.603 89.2213 209.603 89.1949 209.596L89.2238 209.589ZM89.2238 206.173C89.1771 206.173 89.1322 206.155 89.0986 206.123C89.0649 206.09 89.0451 206.046 89.0432 206C89.0432 205.458 88.971 204.887 88.9132 204.31C88.9091 204.261 88.9242 204.213 88.9552 204.175C88.9862 204.137 89.0308 204.113 89.0793 204.107C89.103 204.105 89.1269 204.108 89.1496 204.115C89.1723 204.123 89.1933 204.134 89.2114 204.15C89.2295 204.165 89.2444 204.184 89.2552 204.205C89.266 204.227 89.2725 204.25 89.2743 204.273C89.3321 204.858 89.3754 205.436 89.4043 205.985C89.4063 206.032 89.3902 206.078 89.3592 206.113C89.3282 206.148 89.2848 206.169 89.2382 206.173H89.2238ZM88.8988 202.771C88.8552 202.771 88.8132 202.755 88.781 202.726C88.7489 202.696 88.7291 202.656 88.7254 202.612C88.6388 201.991 88.5521 201.421 88.4727 200.93C88.4663 200.882 88.4785 200.834 88.5067 200.795C88.5349 200.756 88.577 200.729 88.6243 200.72C88.6481 200.716 88.6724 200.717 88.6959 200.722C88.7194 200.728 88.7415 200.738 88.761 200.752C88.7805 200.766 88.797 200.784 88.8095 200.804C88.822 200.825 88.8303 200.848 88.8338 200.872C88.9132 201.363 88.9999 201.941 89.0793 202.569C89.0855 202.616 89.0731 202.663 89.0448 202.701C89.0164 202.739 88.9744 202.764 88.9277 202.771H88.8988ZM88.3571 199.398C88.3291 199.398 88.3014 199.392 88.2764 199.379C88.2513 199.367 88.2295 199.349 88.2127 199.326L86.6888 199.146C86.665 199.144 86.6419 199.137 86.6207 199.127C86.5995 199.116 86.5806 199.101 86.5651 199.083C86.5497 199.065 86.538 199.044 86.5307 199.021C86.5234 198.998 86.5207 198.974 86.5227 198.951C86.5253 198.927 86.5327 198.904 86.5444 198.883C86.556 198.862 86.5717 198.844 86.5905 198.829C86.6093 198.814 86.6309 198.803 86.654 198.797C86.677 198.791 86.7011 198.789 86.7249 198.792C88.5232 198.98 88.5232 198.98 88.5232 199.16C88.5284 199.183 88.5288 199.208 88.5242 199.231C88.5197 199.255 88.5103 199.277 88.4968 199.296C88.4832 199.316 88.4657 199.333 88.4454 199.345C88.4251 199.358 88.4024 199.366 88.3788 199.37L88.3571 199.398ZM85.006 198.98L83.3015 198.828C83.2549 198.822 83.2122 198.799 83.1826 198.763C83.1529 198.726 83.1386 198.68 83.1427 198.633C83.1435 198.609 83.1493 198.585 83.1598 198.563C83.1702 198.542 83.1851 198.522 83.2035 198.507C83.2218 198.491 83.2432 198.48 83.2663 198.473C83.2895 198.466 83.3137 198.464 83.3377 198.467L85.0349 198.618C85.0586 198.62 85.0818 198.627 85.103 198.638C85.1242 198.648 85.1431 198.663 85.1585 198.681C85.1739 198.7 85.1856 198.721 85.1929 198.743C85.2002 198.766 85.203 198.79 85.201 198.813C85.1993 198.839 85.1924 198.863 85.1807 198.885C85.169 198.908 85.1528 198.927 85.133 198.943C85.1133 198.959 85.0905 198.97 85.0662 198.976C85.0418 198.983 85.0164 198.984 84.9915 198.98H85.006ZM81.626 198.568H81.5754C81.0159 198.417 80.4718 198.214 79.9504 197.961C79.9128 197.938 79.885 197.902 79.8723 197.859C79.8597 197.817 79.863 197.771 79.8817 197.731C79.9004 197.691 79.9332 197.659 79.9738 197.642C80.0145 197.624 80.0601 197.622 80.1021 197.636C80.606 197.878 81.1305 198.074 81.6693 198.221C81.7146 198.236 81.7529 198.267 81.7768 198.309C81.8008 198.35 81.8088 198.398 81.7993 198.445C81.7865 198.484 81.7609 198.517 81.7268 198.539C81.6927 198.562 81.6521 198.572 81.6115 198.568H81.626ZM78.5277 197.123C78.4968 197.131 78.4646 197.131 78.4338 197.123C77.9643 196.835 77.4877 196.502 76.9893 196.141C76.951 196.113 76.9257 196.07 76.9189 196.022C76.9121 195.975 76.9245 195.927 76.9532 195.888C76.9819 195.85 77.0247 195.825 77.0721 195.818C77.1195 195.811 77.1677 195.824 77.206 195.852C77.6754 196.206 78.1449 196.531 78.5999 196.813C78.6402 196.84 78.6686 196.881 78.6794 196.928C78.6902 196.975 78.6824 197.024 78.6577 197.066C78.6416 197.09 78.6203 197.11 78.5953 197.125C78.5703 197.14 78.5422 197.15 78.5132 197.152L78.5277 197.123ZM75.7904 195.072C75.7478 195.073 75.7064 195.058 75.6749 195.029C74.9021 194.357 74.4327 193.866 74.411 193.845C74.3779 193.811 74.3594 193.765 74.3594 193.718C74.3594 193.671 74.3779 193.626 74.411 193.592C74.4272 193.575 74.4468 193.561 74.4685 193.551C74.4903 193.542 74.5137 193.537 74.5374 193.537C74.5611 193.537 74.5845 193.542 74.6062 193.551C74.628 193.561 74.6476 193.575 74.6638 193.592C74.6638 193.592 75.1404 194.09 75.906 194.747C75.9395 194.782 75.9583 194.829 75.9583 194.877C75.9583 194.926 75.9395 194.972 75.906 195.007C75.8922 195.031 75.8735 195.052 75.8511 195.068C75.8287 195.084 75.8031 195.096 75.776 195.101L75.7904 195.072Z" fill="white"/>
<path d="M166.631 218.674C166.583 218.672 166.537 218.652 166.503 218.617C166.469 218.582 166.451 218.535 166.451 218.486L166.487 216.775C166.49 216.729 166.511 216.685 166.544 216.653C166.577 216.621 166.621 216.603 166.667 216.601C166.715 216.601 166.761 216.62 166.795 216.654C166.829 216.688 166.848 216.734 166.848 216.782L166.812 218.493C166.812 218.541 166.793 218.587 166.759 218.621C166.725 218.655 166.679 218.674 166.631 218.674ZM166.696 215.251C166.648 215.251 166.602 215.232 166.569 215.198C166.535 215.164 166.516 215.118 166.516 215.07L166.552 213.358C166.559 213.319 166.58 213.282 166.61 213.255C166.64 213.228 166.678 213.211 166.718 213.207C166.741 213.207 166.764 213.211 166.786 213.221C166.808 213.23 166.827 213.243 166.843 213.26C166.859 213.277 166.872 213.297 166.88 213.319C166.888 213.341 166.892 213.364 166.891 213.387L166.855 215.099C166.851 215.136 166.836 215.17 166.811 215.197C166.787 215.225 166.754 215.243 166.718 215.251H166.696ZM166.776 211.835C166.752 211.835 166.729 211.83 166.708 211.821C166.686 211.812 166.667 211.798 166.651 211.781C166.634 211.764 166.622 211.744 166.613 211.723C166.605 211.701 166.601 211.677 166.602 211.654V209.942C166.604 209.896 166.624 209.852 166.658 209.819C166.691 209.787 166.736 209.769 166.783 209.769C166.831 209.769 166.877 209.788 166.911 209.822C166.944 209.856 166.964 209.902 166.964 209.95V211.661C166.96 211.709 166.938 211.753 166.904 211.785C166.869 211.817 166.823 211.835 166.776 211.835ZM166.848 208.418C166.8 208.418 166.754 208.399 166.72 208.366C166.686 208.332 166.667 208.286 166.667 208.238L166.711 206.526C166.711 206.503 166.715 206.48 166.725 206.458C166.734 206.437 166.747 206.417 166.764 206.401C166.781 206.385 166.801 206.372 166.823 206.364C166.845 206.356 166.868 206.352 166.891 206.353C166.938 206.355 166.982 206.375 167.014 206.408C167.047 206.442 167.065 206.487 167.065 206.533L167.021 208.245C167.02 208.291 167.001 208.334 166.969 208.366C166.936 208.398 166.893 208.417 166.848 208.418ZM166.935 205.002C166.911 205.002 166.887 204.998 166.865 204.988C166.843 204.978 166.823 204.964 166.807 204.947C166.79 204.929 166.778 204.908 166.77 204.885C166.762 204.863 166.759 204.839 166.761 204.815L166.805 203.11C166.805 203.087 166.809 203.064 166.818 203.042C166.828 203.021 166.841 203.001 166.858 202.985C166.875 202.969 166.895 202.956 166.917 202.948C166.938 202.94 166.962 202.936 166.985 202.937C167.033 202.937 167.079 202.956 167.113 202.99C167.147 203.024 167.166 203.069 167.166 203.117L167.122 204.829C167.119 204.876 167.097 204.92 167.063 204.953C167.028 204.985 166.982 205.003 166.935 205.002ZM167.021 201.586C166.998 201.585 166.974 201.58 166.953 201.57C166.931 201.56 166.912 201.546 166.896 201.528C166.88 201.511 166.867 201.49 166.859 201.468C166.851 201.446 166.847 201.422 166.848 201.398L166.891 199.694C166.891 199.67 166.896 199.646 166.906 199.624C166.915 199.602 166.929 199.582 166.947 199.566C166.965 199.55 166.986 199.537 167.008 199.53C167.031 199.522 167.055 199.519 167.079 199.521C167.103 199.52 167.126 199.524 167.148 199.532C167.17 199.541 167.19 199.554 167.207 199.572C167.223 199.589 167.236 199.609 167.244 199.631C167.251 199.654 167.254 199.678 167.252 199.701L167.209 201.413C167.208 201.437 167.203 201.46 167.193 201.481C167.183 201.503 167.169 201.522 167.151 201.539C167.134 201.555 167.113 201.567 167.091 201.575C167.069 201.583 167.045 201.587 167.021 201.586ZM167.115 198.17C167.091 198.169 167.068 198.164 167.047 198.154C167.025 198.144 167.006 198.13 166.99 198.112C166.973 198.095 166.961 198.074 166.953 198.052C166.945 198.03 166.941 198.006 166.942 197.982L166.992 196.278C166.992 196.255 166.997 196.231 167.006 196.21C167.015 196.188 167.029 196.169 167.046 196.153C167.063 196.137 167.083 196.124 167.104 196.116C167.126 196.107 167.15 196.104 167.173 196.105C167.221 196.105 167.267 196.124 167.301 196.157C167.334 196.191 167.354 196.237 167.354 196.285L167.303 197.997C167.302 198.021 167.296 198.044 167.286 198.065C167.277 198.087 167.262 198.106 167.245 198.122C167.228 198.139 167.207 198.151 167.185 198.159C167.163 198.167 167.139 198.171 167.115 198.17ZM167.216 194.754C167.192 194.754 167.168 194.749 167.146 194.74C167.124 194.73 167.105 194.716 167.088 194.698C167.072 194.681 167.06 194.66 167.052 194.637C167.044 194.614 167.041 194.59 167.043 194.566L167.094 192.862C167.093 192.838 167.098 192.814 167.108 192.792C167.118 192.77 167.132 192.75 167.149 192.734C167.167 192.718 167.188 192.705 167.211 192.697C167.233 192.689 167.257 192.686 167.281 192.688C167.305 192.689 167.328 192.695 167.35 192.705C167.371 192.715 167.391 192.729 167.407 192.746C167.423 192.764 167.435 192.784 167.444 192.807C167.452 192.829 167.456 192.853 167.455 192.876L167.404 194.581C167.403 194.604 167.398 194.628 167.388 194.649C167.378 194.671 167.364 194.69 167.346 194.706C167.329 194.722 167.308 194.735 167.286 194.743C167.264 194.751 167.24 194.755 167.216 194.754ZM167.274 191.338C167.251 191.339 167.227 191.335 167.206 191.327C167.184 191.319 167.164 191.306 167.147 191.29C167.13 191.274 167.117 191.254 167.107 191.233C167.098 191.211 167.093 191.188 167.094 191.165C167.094 190.616 167.057 190.045 167.021 189.46C167.02 189.436 167.024 189.413 167.032 189.39C167.04 189.368 167.053 189.348 167.069 189.33C167.085 189.313 167.105 189.299 167.126 189.289C167.148 189.279 167.171 189.273 167.195 189.272C167.241 189.272 167.286 189.289 167.32 189.319C167.355 189.35 167.377 189.393 167.382 189.438C167.419 190.031 167.44 190.608 167.455 191.157C167.455 191.205 167.436 191.251 167.402 191.285C167.368 191.319 167.322 191.338 167.274 191.338ZM167.079 187.929C167.034 187.929 166.99 187.912 166.956 187.881C166.923 187.851 166.902 187.808 166.899 187.763C166.848 187.207 166.79 186.643 166.725 186.066C166.721 186.018 166.735 185.971 166.765 185.933C166.794 185.896 166.837 185.871 166.884 185.863C166.932 185.859 166.979 185.873 167.017 185.903C167.054 185.932 167.079 185.975 167.086 186.022C167.151 186.607 167.209 187.178 167.26 187.727C167.264 187.776 167.249 187.824 167.218 187.862C167.187 187.899 167.142 187.924 167.094 187.929H167.079ZM166.696 184.527C166.652 184.526 166.61 184.51 166.577 184.481C166.544 184.452 166.522 184.412 166.516 184.368C166.444 183.812 166.364 183.249 166.285 182.678C166.285 182.635 166.3 182.593 166.329 182.56C166.357 182.527 166.397 182.506 166.44 182.5C166.483 182.494 166.526 182.503 166.563 182.527C166.6 182.55 166.626 182.586 166.639 182.628C166.725 183.198 166.805 183.769 166.877 184.325C166.88 184.349 166.878 184.373 166.872 184.396C166.865 184.419 166.854 184.441 166.84 184.459C166.825 184.478 166.807 184.494 166.786 184.506C166.765 184.517 166.742 184.525 166.718 184.527H166.696ZM166.198 181.147C166.156 181.146 166.116 181.13 166.084 181.103C166.052 181.075 166.031 181.037 166.025 180.996C165.931 180.44 165.837 179.876 165.736 179.306C165.729 179.258 165.742 179.21 165.77 179.171C165.798 179.132 165.84 179.105 165.887 179.096C165.935 179.09 165.983 179.102 166.022 179.13C166.061 179.159 166.088 179.201 166.097 179.248L166.379 180.938C166.385 180.985 166.372 181.032 166.344 181.07C166.316 181.108 166.274 181.133 166.227 181.14L166.198 181.147ZM165.613 177.775C165.571 177.774 165.531 177.76 165.498 177.733C165.465 177.707 165.442 177.671 165.432 177.63C165.331 177.074 165.223 176.511 165.115 175.947C165.106 175.9 165.117 175.852 165.144 175.813C165.171 175.774 165.212 175.747 165.259 175.738C165.282 175.733 165.307 175.732 165.33 175.737C165.353 175.741 165.376 175.751 165.395 175.764C165.415 175.778 165.432 175.795 165.444 175.816C165.457 175.836 165.465 175.859 165.469 175.882C165.577 176.446 165.685 177.002 165.786 177.565C165.795 177.612 165.784 177.66 165.757 177.7C165.73 177.739 165.689 177.766 165.642 177.775H165.613ZM164.956 174.416C164.915 174.415 164.875 174.401 164.844 174.374C164.812 174.348 164.791 174.312 164.782 174.272L164.436 172.603C164.431 172.58 164.43 172.556 164.434 172.533C164.438 172.509 164.447 172.487 164.459 172.467C164.472 172.447 164.489 172.429 164.508 172.415C164.528 172.402 164.55 172.392 164.573 172.387C164.596 172.382 164.62 172.381 164.644 172.385C164.667 172.389 164.69 172.398 164.71 172.411C164.73 172.423 164.747 172.44 164.761 172.459C164.775 172.479 164.784 172.501 164.79 172.524L165.136 174.2C165.142 174.223 165.142 174.248 165.137 174.272C165.133 174.296 165.124 174.318 165.11 174.339C165.097 174.359 165.079 174.376 165.059 174.39C165.039 174.403 165.016 174.412 164.992 174.416H164.956ZM164.234 171.072C164.193 171.072 164.153 171.057 164.121 171.031C164.09 171.004 164.068 170.968 164.06 170.928C163.937 170.372 163.815 169.816 163.685 169.267C163.679 169.244 163.679 169.219 163.683 169.196C163.687 169.172 163.695 169.15 163.708 169.13C163.721 169.11 163.737 169.092 163.757 169.079C163.777 169.065 163.799 169.055 163.822 169.05C163.868 169.039 163.916 169.047 163.957 169.071C163.997 169.095 164.027 169.134 164.039 169.18C164.169 169.736 164.291 170.292 164.414 170.848C164.419 170.872 164.42 170.897 164.415 170.921C164.411 170.945 164.401 170.967 164.388 170.988C164.375 171.008 164.357 171.025 164.337 171.038C164.316 171.052 164.294 171.061 164.27 171.065L164.234 171.072ZM163.511 167.736C163.47 167.736 163.431 167.722 163.398 167.697C163.365 167.673 163.342 167.638 163.331 167.598C163.208 167.042 163.071 166.486 162.941 165.937C162.93 165.89 162.938 165.839 162.964 165.797C162.989 165.756 163.03 165.725 163.078 165.713C163.101 165.708 163.125 165.707 163.149 165.712C163.172 165.716 163.195 165.724 163.215 165.737C163.235 165.75 163.252 165.766 163.266 165.786C163.28 165.805 163.289 165.827 163.295 165.851L163.685 167.519C163.69 167.542 163.691 167.566 163.687 167.59C163.683 167.613 163.674 167.636 163.661 167.656C163.648 167.676 163.632 167.694 163.612 167.707C163.593 167.721 163.571 167.731 163.547 167.736H163.511ZM162.717 164.413C162.677 164.413 162.638 164.399 162.607 164.374C162.575 164.35 162.553 164.315 162.544 164.276C162.406 163.713 162.269 163.157 162.132 162.615C162.121 162.568 162.128 162.519 162.152 162.477C162.176 162.436 162.216 162.405 162.262 162.391C162.285 162.386 162.309 162.385 162.333 162.389C162.356 162.393 162.379 162.402 162.399 162.415C162.419 162.427 162.436 162.444 162.45 162.464C162.464 162.483 162.473 162.505 162.479 162.528C162.616 163.07 162.753 163.626 162.89 164.19C162.901 164.236 162.894 164.284 162.869 164.324C162.845 164.365 162.806 164.394 162.76 164.406L162.717 164.413ZM161.886 161.091C161.846 161.092 161.807 161.079 161.775 161.054C161.743 161.029 161.721 160.993 161.713 160.954C161.569 160.398 161.431 159.842 161.287 159.3C161.274 159.253 161.281 159.203 161.305 159.161C161.33 159.119 161.37 159.089 161.417 159.076C161.464 159.064 161.514 159.07 161.556 159.095C161.598 159.119 161.628 159.159 161.641 159.206C161.778 159.755 161.922 160.304 162.067 160.867C162.078 160.913 162.07 160.962 162.046 161.002C162.022 161.043 161.983 161.072 161.937 161.084L161.886 161.091ZM161.027 157.783C160.987 157.782 160.949 157.768 160.918 157.743C160.887 157.718 160.864 157.685 160.854 157.646C160.709 157.083 160.557 156.527 160.413 155.992C160.407 155.97 160.405 155.946 160.408 155.922C160.411 155.899 160.419 155.876 160.431 155.856C160.443 155.836 160.459 155.818 160.479 155.804C160.498 155.79 160.52 155.781 160.543 155.776C160.565 155.769 160.589 155.767 160.612 155.77C160.635 155.772 160.657 155.78 160.677 155.791C160.698 155.803 160.715 155.818 160.729 155.836C160.743 155.855 160.754 155.876 160.76 155.898C160.904 156.44 161.056 156.989 161.2 157.552C161.207 157.575 161.209 157.599 161.206 157.623C161.204 157.646 161.197 157.669 161.185 157.69C161.174 157.711 161.158 157.729 161.14 157.744C161.121 157.759 161.1 157.77 161.077 157.776L161.027 157.783ZM160.139 154.476C160.099 154.476 160.061 154.463 160.03 154.44C159.999 154.416 159.976 154.383 159.965 154.346L159.51 152.692C159.504 152.669 159.502 152.645 159.505 152.622C159.508 152.598 159.516 152.576 159.528 152.555C159.54 152.535 159.557 152.517 159.576 152.504C159.595 152.49 159.617 152.48 159.64 152.475C159.686 152.464 159.735 152.47 159.776 152.493C159.818 152.515 159.849 152.553 159.864 152.598L160.319 154.245C160.33 154.291 160.323 154.341 160.299 154.383C160.275 154.424 160.235 154.455 160.189 154.468L160.139 154.476ZM159.221 151.175C159.183 151.174 159.145 151.161 159.114 151.138C159.083 151.114 159.06 151.082 159.048 151.045C158.882 150.453 158.723 149.904 158.579 149.398C158.567 149.353 158.573 149.304 158.596 149.262C158.619 149.221 158.656 149.19 158.701 149.175C158.724 149.167 158.748 149.164 158.772 149.166C158.796 149.168 158.819 149.175 158.84 149.187C158.861 149.198 158.88 149.214 158.894 149.233C158.909 149.252 158.919 149.274 158.925 149.297C159.07 149.803 159.229 150.352 159.395 150.951C159.402 150.974 159.405 150.997 159.403 151.021C159.401 151.044 159.394 151.067 159.382 151.087C159.37 151.108 159.355 151.126 159.336 151.139C159.317 151.153 159.295 151.163 159.272 151.168L159.221 151.175ZM158.275 147.882C158.236 147.882 158.198 147.869 158.167 147.846C158.136 147.822 158.113 147.789 158.102 147.752C157.791 146.697 157.611 146.105 157.611 146.105C157.604 146.082 157.602 146.059 157.605 146.035C157.607 146.011 157.614 145.989 157.626 145.968C157.637 145.947 157.653 145.929 157.671 145.914C157.69 145.899 157.711 145.888 157.734 145.881C157.756 145.875 157.78 145.873 157.804 145.875C157.827 145.878 157.85 145.885 157.871 145.896C157.892 145.908 157.91 145.923 157.925 145.942C157.94 145.96 157.951 145.981 157.957 146.004C157.957 146.004 158.138 146.596 158.449 147.651C158.456 147.673 158.459 147.698 158.457 147.721C158.455 147.745 158.448 147.769 158.436 147.79C158.425 147.811 158.409 147.829 158.39 147.844C158.371 147.858 158.349 147.869 158.326 147.875L158.275 147.882Z" fill="white"/>
<path d="M170.329 146.762C170.226 148.321 170.524 149.88 171.196 151.291C171.766 152.735 172.366 154.18 173.009 155.581C173.651 156.982 174.395 158.47 175.175 159.914C175.955 161.358 176.858 162.565 177.739 163.865C179.523 166.372 180.964 169.107 182.022 171.997C182.967 174.824 183.611 177.744 183.943 180.707C184.34 184.072 184.47 187.467 184.593 190.818C184.593 191.049 184.961 191.049 184.954 190.818C184.745 184.888 184.514 178.851 182.787 173.123C181.936 170.278 180.678 167.571 179.054 165.085C177.243 162.504 175.589 159.818 174.099 157.04C173.297 155.407 172.575 153.725 171.882 152.035C171.189 150.345 170.437 148.553 170.654 146.668C170.654 146.437 170.322 146.437 170.293 146.668L170.329 146.762Z" fill="#3E6295"/>
<path d="M107.134 87.7862C107.706 88.3476 108.128 89.0444 108.359 89.8121C108.59 90.5797 108.623 91.3933 108.456 92.1773C107.991 93.7772 107.232 95.2762 106.217 96.5973C106.08 96.7851 106.39 96.9584 106.527 96.7779C107.096 96.0193 107.581 95.2007 107.972 94.3368C108.398 93.5606 108.724 92.7329 108.94 91.874C109.033 91.0839 108.944 90.2831 108.682 89.5322C108.419 88.7814 107.988 88.1003 107.423 87.5407C107.264 87.3673 107.011 87.6273 107.17 87.7934L107.134 87.7862Z" fill="#3E6295"/>
<path d="M109.568 89.7071C109.812 90.3631 109.932 91.0585 109.922 91.7582C109.844 92.4284 109.674 93.0846 109.417 93.7082C109.337 93.9249 109.691 94.0188 109.763 93.8021C110.033 93.1489 110.208 92.4607 110.283 91.7582C110.295 91.0201 110.173 90.286 109.922 89.5915C109.902 89.5531 109.87 89.5227 109.83 89.5056C109.79 89.4884 109.746 89.4856 109.704 89.4975C109.662 89.5094 109.626 89.5353 109.601 89.5709C109.577 89.6064 109.565 89.6495 109.568 89.6927V89.7071Z" fill="#3E6295"/>
<path d="M181.163 175.854C181.754 178.072 182.024 180.363 181.964 182.657C181.964 182.888 182.318 182.888 182.325 182.657C182.384 180.328 182.109 178.003 181.509 175.753C181.452 175.529 181.105 175.63 181.163 175.854Z" fill="#3E6295"/>
<path d="M81.0191 141.129C77.9701 144.339 74.1591 146.727 69.9402 148.07C63.1585 150.121 59.8291 158.52 59.8291 158.52L67.4558 169.231C67.4558 169.231 66.6974 161.575 71.0669 160.803C75.4363 160.03 80.8963 152.858 81.8136 150.157C82.7308 147.456 80.9108 140.393 80.9108 140.393" fill="#F2C900"/>
<path d="M155.783 184.037C155.783 184.037 163.294 188.233 164.84 195.737C166.385 203.241 178.309 203.024 178.309 203.024L175.659 191.981C175.659 191.981 167.043 194.632 164.825 185.799C162.608 176.966 160.405 176.085 160.405 176.085L155.783 184.037Z" fill="#F2C900"/>
<path d="M77.4514 158.253C76.4129 160.223 74.763 161.802 72.7497 162.753C72.3308 162.948 72.6919 163.569 73.1108 163.374C75.2365 162.37 76.978 160.702 78.0725 158.621C78.2892 158.21 77.6681 157.842 77.4514 158.253Z" fill="#F2C900"/>
<path d="M83.0407 135.734C82.8194 138.588 82.9797 141.459 83.5173 144.271C83.604 144.726 84.2973 144.538 84.2395 144.083C83.7225 141.332 83.5719 138.525 83.7918 135.734C83.7918 135.272 83.0695 135.272 83.0695 135.734H83.0407Z" fill="#F2C900"/>
<path d="M159.633 172.575C161.026 174.322 162.178 176.248 163.056 178.303C163.106 178.385 163.186 178.445 163.279 178.469C163.372 178.493 163.471 178.48 163.555 178.433C163.636 178.382 163.695 178.302 163.719 178.209C163.743 178.117 163.731 178.018 163.685 177.934C162.772 175.827 161.579 173.852 160.139 172.063C159.85 171.702 159.344 172.214 159.633 172.575Z" fill="#F2C900"/>
<path d="M170.206 204.482C172.075 205.692 174.208 206.435 176.424 206.649C176.886 206.699 176.886 205.977 176.424 205.927C174.332 205.708 172.323 204.989 170.567 203.832C170.177 203.579 169.845 204.208 170.206 204.461V204.482Z" fill="#F2C900"/>
<path d="M155.762 87.2732C157.139 89.5809 158.666 91.7956 160.333 93.9032C161.777 95.8242 163.761 97.2702 166.032 98.056C167.368 98.4604 167.938 96.366 166.609 95.9687C164.587 95.3549 163.056 93.8454 161.763 92.2493C160.265 90.3124 158.885 88.2864 157.632 86.1826C156.91 84.9982 155.025 86.0887 155.762 87.2732Z" fill="#D4DCE8"/>
<path d="M87.9955 86.2985C86.443 89.2471 84.2786 91.8301 81.6472 93.8746C81.4154 94.0248 81.2474 94.2555 81.1754 94.5221C81.1034 94.7887 81.1325 95.0726 81.2572 95.319C81.4028 95.556 81.6335 95.7283 81.902 95.8008C82.1705 95.8733 82.4565 95.8405 82.7016 95.709C85.6503 93.468 88.0816 90.6179 89.83 87.3529C89.9078 87.2299 89.96 87.0925 89.9835 86.9488C90.0071 86.8052 90.0014 86.6582 89.9669 86.5168C89.9323 86.3754 89.8697 86.2424 89.7826 86.1258C89.6955 86.0091 89.5858 85.9112 89.4601 85.8379C89.3343 85.7646 89.1951 85.7173 89.0507 85.699C88.9062 85.6807 88.7596 85.6917 88.6196 85.7313C88.4795 85.771 88.3488 85.8384 88.2354 85.9296C88.122 86.0209 88.0281 86.134 87.9594 86.2624L87.9955 86.2985Z" fill="#D4DCE8"/>
<path d="M160.268 86.1542L162.095 87.8009C162.165 87.8659 162.256 87.902 162.352 87.902C162.447 87.902 162.538 87.8659 162.608 87.8009C162.642 87.7673 162.669 87.7274 162.687 87.6834C162.705 87.6394 162.715 87.5922 162.715 87.5445C162.715 87.4968 162.705 87.4496 162.687 87.4056C162.669 87.3616 162.642 87.3217 162.608 87.2881L160.774 85.6414C160.705 85.5769 160.615 85.541 160.521 85.541C160.427 85.541 160.336 85.5769 160.268 85.6414C160.234 85.675 160.207 85.715 160.189 85.759C160.171 85.803 160.161 85.8502 160.161 85.8978C160.161 85.9455 160.171 85.9927 160.189 86.0367C160.207 86.0807 160.234 86.1207 160.268 86.1542Z" fill="#D4DCE8"/>
<path d="M85.4675 84.1966L83.178 85.5761C83.1057 85.6287 83.0555 85.7062 83.0371 85.7937C83.0186 85.8811 83.0333 85.9723 83.0782 86.0496C83.1232 86.1269 83.1952 86.1848 83.2803 86.212C83.3654 86.2393 83.4577 86.234 83.5391 86.1972L85.8286 84.825C85.9119 84.7771 85.9728 84.698 85.9978 84.6053C86.0229 84.5125 86.0101 84.4136 85.9622 84.3302C85.9143 84.2469 85.8353 84.186 85.7425 84.161C85.6497 84.1359 85.5508 84.1487 85.4675 84.1966Z" fill="#D4DCE8"/>
</svg>
