<svg width="60" height="60" viewBox="0 0 60 60" fill="none" xmlns="http://www.w3.org/2000/svg">
<path opacity="0.4" fill-rule="evenodd" clip-rule="evenodd" d="M22.9176 22.5L24.5826 12.5H17.1176L15.4526 22.5H16.2501H22.9176Z" fill="#3B8EF3"/>
<path fill-rule="evenodd" clip-rule="evenodd" d="M50 40H45H37.5H32.5H27.5H22.5H15H10V33.75C10 30.305 12.8025 27.5 16.25 27.5H43.75C47.1975 27.5 50 30.305 50 33.75V40ZM45 46.25C45 48.3175 43.3175 50 41.25 50C39.1825 50 37.5 48.3175 37.5 46.25V45H45V46.25ZM22.5 46.25C22.5 48.3175 20.8175 50 18.75 50C16.6825 50 15 48.3175 15 46.25V45H22.5V46.25ZM15.4525 22.5L17.1175 12.5H42.8825L44.5475 22.5H43.75H16.25H15.4525ZM49.9325 24.375L47.8125 11.6775C47.4125 9.2675 45.325 7.5 42.88 7.5H17.12C14.675 7.5 12.5875 9.2675 12.1875 11.6775L10.0675 24.375C7.025 26.395 5 29.845 5 33.75V40C5 42.76 7.24 45 10 45V45.9975C10 50.1725 12.8225 53.9725 16.9125 54.8125C22.5375 55.9625 27.5 51.675 27.5 46.25V45H32.5V45.9975C32.5 50.1725 35.3225 53.9725 39.4125 54.8125C45.0375 55.9625 50 51.675 50 46.25V45C52.76 45 55 42.76 55 40V33.75C55 29.845 52.975 26.395 49.9325 24.375Z" fill="#3B8EF3"/>
<path opacity="0.4" fill-rule="evenodd" clip-rule="evenodd" d="M10 33.75V40H15H22.5V33.75C22.5 35.8225 20.82 37.5 18.75 37.5C16.68 37.5 15 35.8225 15 33.75C15 31.6775 16.68 30 18.75 30C20.82 30 22.5 31.6775 22.5 33.75V27.5H16.25C12.8025 27.5 10 30.305 10 33.75Z" fill="#3B8EF3"/>
<path fill-rule="evenodd" clip-rule="evenodd" d="M41.25 30C39.18 30 37.5 31.6775 37.5 33.75C37.5 35.8225 39.18 37.5 41.25 37.5C43.32 37.5 45 35.8225 45 33.75C45 31.6775 43.32 30 41.25 30Z" fill="#3B8EF3"/>
<path fill-rule="evenodd" clip-rule="evenodd" d="M18.75 30C16.68 30 15 31.6775 15 33.75C15 35.8225 16.68 37.5 18.75 37.5C20.82 37.5 22.5 35.8225 22.5 33.75C22.5 31.6775 20.82 30 18.75 30Z" fill="#3B8EF3"/>
<path fill-rule="evenodd" clip-rule="evenodd" d="M33.75 32.5H26.25C25.56 32.5 25 33.06 25 33.75C25 34.44 25.56 35 26.25 35H33.75C34.44 35 35 34.44 35 33.75C35 33.06 34.44 32.5 33.75 32.5Z" fill="#3B8EF3"/>
</svg>
