<svg width="60" height="60" viewBox="0 0 60 60" fill="none" xmlns="http://www.w3.org/2000/svg">
<path d="M18.9496 14.0508H15.2496L13.8496 22.9008L13.6996 23.6758L14.4246 23.5508L13.4496 27.5508L17.5246 21.4008L16.0246 21.6008L16.3496 19.5258C16.4246 19.5508 17.5496 19.7258 18.0496 19.7508C19.0996 19.8258 20.6496 19.9258 21.0746 17.1258C21.4496 14.7008 20.0996 14.0508 18.9496 14.0508ZM19.0746 16.8758C18.9496 17.7508 18.6246 18.0508 18.1246 18.0508H16.5996L16.9496 15.7758H18.4996C18.9246 15.7758 19.1996 16.0258 19.0746 16.8758Z" fill="#3B8EF3"/>
<path d="M52.9496 19.2754H43.1746V9.92539C43.1746 9.90039 43.1746 9.90039 43.1746 9.87539V9.77539C43.1746 5.77539 39.9246 2.52539 35.9246 2.52539H7.42456C4.79956 2.52539 2.67456 4.65039 2.67456 7.27539V31.5254C2.67456 34.1504 4.79956 36.2754 7.42456 36.2754H20.0746C20.4496 40.4504 23.9746 43.7254 28.2246 43.7254H55.1996C56.5746 43.7254 57.6996 42.6004 57.6996 41.2254V24.0004C57.6996 21.4004 55.5746 19.2754 52.9496 19.2754ZM52.6996 37.7254C52.6996 38.2754 52.2496 38.7254 51.6996 38.7254H28.2246C27.9996 38.7254 27.7996 38.7004 27.5746 38.6504C27.3496 38.6254 27.1246 38.5504 26.9246 38.4504C25.8246 37.9504 25.0246 36.8254 25.0246 35.5254V33.7754C25.0246 32.4004 23.9246 31.2754 22.5246 31.2754H8.57456C8.07456 31.2754 7.67456 30.8754 7.67456 30.3754V8.42539C7.67456 7.92539 8.07456 7.52539 8.57456 7.52539H35.9246C37.1746 7.52539 38.1746 8.52539 38.1746 9.77539C38.1746 11.0254 37.1746 12.0254 35.9246 12.0254H31.6496C28.4496 12.0254 25.5496 14.3254 25.2246 17.5004C25.1746 17.9254 25.1746 18.3254 25.2246 18.7254C25.2996 19.5004 25.5246 20.2254 25.8496 20.9004C25.9246 21.0504 26.0246 21.2254 26.1246 21.3754C26.2246 21.5504 26.3246 21.7004 26.4496 21.8254C26.6496 22.1254 26.8996 22.4004 27.1746 22.6504C27.3246 22.8004 27.4496 22.9004 27.5996 23.0004C27.7496 23.1254 27.8996 23.2254 28.0496 23.3254C28.9996 23.9254 30.0996 24.2754 31.2996 24.2754H51.6996C52.2496 24.2754 52.6996 24.7004 52.6996 25.2754V37.7254ZM40.6746 15.2254V19.2754H31.2996C30.6746 19.2754 30.1746 18.7754 30.1746 18.1504C30.1746 17.5254 30.6746 17.0254 31.2996 17.0254H35.9246C37.7496 17.0254 39.3996 16.3254 40.6746 15.2254Z" fill="#3B8EF3"/>
<g opacity="0.3">
<g opacity="0.3">
<path opacity="0.3" d="M33.0995 18.1504C33.0995 17.5254 33.5995 17.0254 34.2245 17.0254H31.2745C30.6495 17.0254 30.1495 17.5254 30.1495 18.1504C30.1495 18.7754 30.6495 19.2754 31.2745 19.2754H34.2245C33.5995 19.2504 33.0995 18.7504 33.0995 18.1504Z" fill="#3B8EF3"/>
</g>
</g>
<path opacity="0.3" d="M35.9245 7.52539H33.3495C34.5995 7.52539 35.5995 8.52539 35.5995 9.77539C35.5995 11.0254 34.5995 12.0254 33.3495 12.0254H35.9245C37.1745 12.0254 38.1745 11.0254 38.1745 9.77539C38.1745 8.52539 37.1745 7.52539 35.9245 7.52539Z" fill="#3B8EF3"/>
<path d="M48.7996 37.7246C50.1803 37.7246 51.2996 36.6053 51.2996 35.2246C51.2996 33.8439 50.1803 32.7246 48.7996 32.7246C47.4188 32.7246 46.2996 33.8439 46.2996 35.2246C46.2996 36.6053 47.4188 37.7246 48.7996 37.7246Z" fill="#3B8EF3"/>
<path d="M56.6245 57.875C55.9245 57.875 55.3745 57.325 55.3745 56.625V53.2C55.3745 51.725 54.1745 50.525 52.6995 50.525C49.8495 50.525 47.5245 48.2 47.5245 45.35V35.625C47.5245 34.925 48.0745 34.375 48.7745 34.375C49.4745 34.375 50.0245 34.925 50.0245 35.625V45.35C50.0245 46.825 51.2245 48.025 52.6995 48.025C55.5495 48.025 57.8745 50.35 57.8745 53.2V56.625C57.8745 57.3 57.3245 57.875 56.6245 57.875Z" fill="#3B8EF3"/>
<path opacity="0.3" d="M30.1745 24.1012C29.3995 23.9512 28.6745 23.7262 28.0495 23.3012C27.8995 23.2012 27.7495 23.1012 27.5995 22.9762C27.4495 22.8762 27.3245 22.7762 27.1745 22.6262C26.8995 22.3762 26.6495 22.1012 26.4495 21.8012C26.3245 21.6762 26.2245 21.5262 26.1245 21.3512C26.0245 21.2012 25.9245 21.0262 25.8495 20.8762C25.5245 20.2012 25.2995 19.4762 25.2245 18.7012H25.1745L25.0245 33.7512V35.5012C25.0245 36.8012 25.8245 37.9262 26.9245 38.4262C27.1245 38.5262 27.3495 38.6012 27.5745 38.6262C27.7995 38.6762 27.9995 38.7012 28.2245 38.7012H30.1745V24.1012Z" fill="#3B8EF3"/>
</svg>
