<svg width="60" height="60" viewBox="0 0 60 60" fill="none" xmlns="http://www.w3.org/2000/svg">
<path d="M46.225 11.6758H7.175V18.5508H46.225V11.6758Z" fill="#3B8EF3"/>
<path d="M35.725 39.2266H17.525C16.9 39.2266 16.375 39.7516 16.375 40.3766C16.375 41.0016 16.9 41.5266 17.525 41.5266H35.75C36.375 41.5266 36.9 41.0016 36.9 40.3766C36.875 39.7516 36.375 39.2266 35.725 39.2266Z" fill="#3B8EF3"/>
<path d="M22.1 43.8008H17.525C16.9 43.8008 16.375 44.3258 16.375 44.9508C16.375 45.5758 16.9 46.1008 17.525 46.1008H22.125C22.75 46.1008 23.275 45.5758 23.275 44.9508C23.25 44.3258 22.75 43.8008 22.1 43.8008Z" fill="#3B8EF3"/>
<path d="M31.3 43.8008H26.7C26.075 43.8008 25.55 44.3258 25.55 44.9508C25.55 45.5758 26.075 46.1008 26.7 46.1008H31.3C31.925 46.1008 32.45 45.5758 32.45 44.9508C32.45 44.3258 31.925 43.8008 31.3 43.8008Z" fill="#3B8EF3"/>
<path d="M21.375 36.9258H27.45C30.2 36.9258 32.45 34.6758 32.45 31.9258V28.1758C32.45 25.4258 30.2 23.1758 27.45 23.1758H21.375C18.625 23.1758 16.375 25.4258 16.375 28.1758V31.9258C16.375 34.6758 18.625 36.9258 21.375 36.9258ZM18.875 31.9258V30.0508H20.975V34.3508C19.775 34.1508 18.875 33.1758 18.875 31.9258ZM25.55 34.4258H23.25V25.6758H25.55V34.4258ZM27.85 34.3508V32.3508H29.85C29.675 33.4008 28.9 34.1758 27.85 34.3508ZM29.95 28.1758V30.0508H27.85V25.7508C29.025 25.9758 29.95 26.9508 29.95 28.1758ZM20.95 25.7758V27.7758H18.95C19.125 26.7258 19.925 25.9508 20.95 25.7758Z" fill="#3B8EF3"/>
<path d="M9.475 34.575C8.2 34.575 7.175 33.55 7.175 32.275V9.375C7.175 8.1 8.2 7.075 9.475 7.075H43.8C45.075 7.075 46.1 8.1 46.1 9.375V16.25H50.7V9.375C50.7 5.575 47.625 2.5 43.8 2.5H9.475C5.675 2.5 2.575 5.575 2.575 9.375V32.3C2.575 36.1 5.65 39.175 9.475 39.175V34.575Z" fill="#3B8EF3"/>
<path d="M50.675 16.25H16.375C12.575 16.25 9.47499 19.325 9.47499 23.125V46.05C9.47499 49.85 12.55 52.925 16.375 52.925H35.2C35.075 52.775 35 52.6 34.9 52.475C35.025 52.625 35.15 52.775 35.275 52.925H35.2C35.425 53.2 35.675 53.45 35.925 53.7C35.975 53.75 36 53.8 36.05 53.85C36.55 54.35 37.125 54.8 37.7 55.225C37.8 55.3 37.9 55.375 38 55.425C38.575 55.8 39.2 56.15 39.85 56.425C39.975 56.475 40.075 56.525 40.2 56.575C40.875 56.85 41.55 57.075 42.275 57.225C42.375 57.25 42.475 57.25 42.575 57.275C43.325 57.425 44.125 57.5 44.925 57.5C45.725 57.5 46.475 57.4 47.225 57.275C47.45 57.225 47.675 57.175 47.925 57.1C48.45 56.975 48.95 56.825 49.425 56.625C49.675 56.525 49.9 56.45 50.125 56.325C50.625 56.1 51.1 55.825 51.55 55.55C51.725 55.45 51.9 55.35 52.05 55.25C52.625 54.85 53.15 54.4 53.65 53.925C53.85 53.725 54.025 53.525 54.2 53.3C54.5 52.975 54.775 52.65 55.05 52.275C55.25 52.025 55.425 51.75 55.6 51.475C55.825 51.125 56.025 50.75 56.2 50.375C56.35 50.1 56.475 49.825 56.6 49.525C56.625 49.475 56.65 49.45 56.65 49.4C56.65 49.425 56.625 49.425 56.625 49.45C56.75 49.15 56.825 48.825 56.925 48.5C56.825 48.8 56.775 49.1 56.675 49.4C57.25 48.4 57.6 47.25 57.6 46.025V23.125C57.575 19.325 54.5 16.25 50.675 16.25ZM55.2 37.65C54.8 37.075 54.375 36.55 53.875 36.05C54.375 36.55 54.8 37.1 55.2 37.65ZM56.425 39.825C56.15 39.2 55.825 38.575 55.45 38C55.825 38.575 56.15 39.2 56.425 39.825ZM16.375 48.325C15.1 48.325 14.075 47.3 14.075 46.025V23.125C14.075 21.85 15.1 20.825 16.375 20.825H50.7C51.975 20.825 53 21.85 53 23.125V35.225C53.225 35.425 53.45 35.625 53.65 35.825C53.45 35.625 53.2 35.475 53 35.275V35.2C52.825 35.05 52.625 34.95 52.425 34.8C52.15 34.6 51.875 34.4 51.6 34.225C51.225 33.975 50.825 33.775 50.425 33.575C50.125 33.425 49.85 33.275 49.55 33.175C49.075 33 48.6 32.85 48.1 32.725C47.825 32.65 47.575 32.575 47.325 32.5C46.55 32.35 45.75 32.25 44.925 32.25C37.975 32.25 32.325 37.9 32.325 44.85C32.325 45.6 32.425 46.325 32.55 47.05C32.6 47.3 32.65 47.55 32.7 47.8C32.75 47.975 32.75 48.125 32.8 48.3H32.85C32.9 48.475 32.95 48.675 33.025 48.85C32.95 48.65 32.85 48.5 32.8 48.3H16.375V48.325ZM33.6 50.35C33.75 50.65 33.925 50.95 34.1 51.25C33.9 50.95 33.75 50.675 33.6 50.35ZM37.675 48.325C37.425 47.825 37.25 47.3 37.1 46.75C37.1 46.725 37.075 46.7 37.075 46.675C36.95 46.1 36.85 45.525 36.85 44.9C36.85 43.8 37.075 42.75 37.475 41.775C37.875 40.825 38.475 39.95 39.2 39.225C39.925 38.5 40.8 37.9 41.75 37.5C42.7 37.1 43.775 36.875 44.875 36.875C45.975 36.875 47.025 37.1 48 37.5C48.95 37.9 49.825 38.5 50.55 39.225C51.275 39.95 51.875 40.825 52.275 41.775C52.675 42.725 52.9 43.8 52.9 44.9C52.9 45.35 52.85 45.8 52.775 46.25C52.7 46.65 52.6 47.05 52.475 47.425C51.425 50.6 48.425 52.925 44.9 52.925C41.725 52.925 38.975 51.025 37.675 48.325ZM57.275 47.3C57.425 46.525 57.525 45.725 57.525 44.9C57.525 44.1 57.425 43.325 57.3 42.55C57.45 43.3 57.525 44.1 57.525 44.9C57.5 45.725 57.425 46.525 57.275 47.3ZM56.575 40.2C56.85 40.85 57.05 41.55 57.225 42.25C57.075 41.55 56.85 40.85 56.575 40.2Z" fill="#3B8EF3"/>
<path d="M46.525 43.9004H43.325C41.075 43.9004 39.225 45.6004 39.225 47.7004V49.1254C39.225 49.7004 39.7 50.2004 40.3 50.2004H49.575C50.15 50.2004 50.65 49.7254 50.65 49.1254V47.7004C50.625 45.6004 48.775 43.9004 46.525 43.9004ZM43.325 46.0254H46.525C47.625 46.0254 48.5 46.7754 48.5 47.7004V48.0754H41.35V47.7004C41.35 46.7754 42.225 46.0254 43.325 46.0254Z" fill="#3B8EF3"/>
<path d="M44.925 43.6246C46.55 43.6246 47.875 42.2996 47.875 40.6746C47.875 39.0496 46.55 37.7246 44.9 37.7246C43.25 37.7246 41.95 39.0496 41.95 40.6746C41.95 42.2746 43.3 43.6246 44.925 43.6246ZM45.725 40.9496C45.65 41.1996 45.45 41.3996 45.2 41.4746C44.825 41.5996 44.525 41.4496 44.4 41.3496C44.175 41.1746 44.05 40.9246 44.05 40.6496C44.05 40.1746 44.425 39.7996 44.9 39.7996C45.175 39.7996 45.425 39.9246 45.6 40.1496C45.7 40.2996 45.85 40.5746 45.725 40.9496Z" fill="#3B8EF3"/>
</svg>
