<svg width="60" height="60" viewBox="0 0 60 60" fill="none" xmlns="http://www.w3.org/2000/svg">
<path opacity="0.4" fill-rule="evenodd" clip-rule="evenodd" d="M29.9219 5.02148L7.49939 14.239V54.979H29.9219V5.02148Z" fill="#3B8EF3"/>
<path fill-rule="evenodd" clip-rule="evenodd" d="M11.3967 34.3995L8.10669 24.957L29.9992 17.332L51.8917 24.952L48.6067 34.397L29.9992 27.9195L11.3967 34.3995Z" fill="#3B8EF3"/>
<path fill-rule="evenodd" clip-rule="evenodd" d="M30 4.99023L7.5 14.2377V54.9802H52.5V14.2377L30 4.99023ZM30 10.3952L47.5 17.5902V49.9802H12.5V17.5902L30 10.3952Z" fill="#3B8EF3"/>
<path fill-rule="evenodd" clip-rule="evenodd" d="M54.8437 55H5.00122C3.61872 55 2.50122 53.88 2.50122 52.5C2.50122 51.12 3.61872 50 5.00122 50H54.8437C56.2262 50 57.3437 51.12 57.3437 52.5C57.3437 53.88 56.2262 55 54.8437 55Z" fill="#3B8EF3"/>
</svg>
