<svg width="60" height="60" viewBox="0 0 60 60" fill="none" xmlns="http://www.w3.org/2000/svg">
<g opacity="0.4">
<path fill-rule="evenodd" clip-rule="evenodd" d="M18.5962 2.5C16.7812 2.5 15.3137 3.8875 15.3137 5.595V11.06C15.3137 18.5875 24.0062 19.255 24.0062 19.255H28.4412C29.3487 18.1575 30.0012 17.5 30.0012 17.5V2.5H18.5962Z" fill="#3B8EF3"/>
<path fill-rule="evenodd" clip-rule="evenodd" d="M30.0012 17.5L30 15.0625C18.8925 15.72 10 24.985 10 36.25C10 47.205 10 56.2925 27.5 57.39V52.5C22.5 50 22.5 45 22.5 45V32.5C22.5 25 30.0012 17.5 30.0012 17.5Z" fill="#3B8EF3"/>
</g>
<path d="M24.0063 19.255L23.968 19.7535L23.9871 19.755H24.0063H28.3286C20.4803 21.141 14.5 28.0101 14.5 36.25V36.2766C14.5 39.1284 14.5 41.6059 14.7577 43.6986C15.0166 45.802 15.5417 47.5762 16.6358 48.9906C17.7358 50.4127 19.3663 51.414 21.7234 52.0593C24.0718 52.7022 27.1702 53 31.25 53C35.3298 53 38.4282 52.7022 40.7766 52.0593C43.1338 51.414 44.7642 50.4127 45.8642 48.9906C46.9583 47.5762 47.4834 45.802 47.7423 43.6986C48 41.6059 48 39.1284 48 36.2766V36.25C48 28.0101 42.0197 21.141 34.1714 19.755H38.4938C40.1733 19.755 41.5586 19.4596 42.6983 18.968C48.294 22.6951 52 29.0613 52 36.25C52 39.1798 51.9992 41.9345 51.6722 44.4362C51.3458 46.9333 50.6984 49.1378 49.4321 50.9739C46.92 54.6166 41.8269 57 31.25 57C20.6731 57 15.58 54.6166 13.0679 50.9739C11.8016 49.1378 11.1542 46.9333 10.8278 44.4362C10.5008 41.9345 10.5 39.1798 10.5 36.25C10.5 28.9211 14.352 22.4472 20.1311 18.7531C21.0211 19.1347 21.871 19.3735 22.5398 19.5213C22.9621 19.6147 23.315 19.6724 23.564 19.7069C23.6886 19.7241 23.7874 19.7356 23.8561 19.7429C23.8905 19.7465 23.9173 19.7491 23.9362 19.7508L23.9583 19.7527L23.9647 19.7533L23.9668 19.7534L23.9675 19.7535C23.9678 19.7535 23.968 19.7535 24.0063 19.255ZM21.2168 18.1045C24.1949 16.4463 27.6175 15.5 31.25 15.5C35.0246 15.5 38.5724 16.5218 41.6305 18.3023C40.7555 18.5858 39.7203 18.755 38.4938 18.755H24.0276L24.0265 18.7549C24.0124 18.7536 23.9905 18.7515 23.9612 18.7484C23.9025 18.7422 23.8145 18.732 23.7013 18.7164C23.4748 18.685 23.1484 18.6317 22.7556 18.5449C22.309 18.4462 21.7802 18.3048 21.2168 18.1045ZM20.0583 17.6207C20.0008 17.5928 19.9433 17.5641 19.8858 17.5348C17.8211 16.4826 15.8113 14.5781 15.8113 11.06V5.595C15.8113 4.19103 17.0292 3 18.5963 3H43.9038C45.4703 3 46.6863 4.19055 46.6863 5.595V11.0593V11.0594V11.0596V11.06L46.6863 11.0617L46.6861 11.075C46.6859 11.0875 46.6854 11.1075 46.6845 11.1344C46.6826 11.1881 46.6787 11.2694 46.6707 11.3744C46.6548 11.5843 46.6227 11.8878 46.5581 12.2534C46.4284 12.9869 46.17 13.9578 45.658 14.9232C45.1473 15.8861 44.3876 16.8382 43.2531 17.5512C43.1008 17.6469 42.9412 17.7386 42.7741 17.8257C40.3218 16.2829 37.5438 15.2153 34.572 14.755H38.4938L38.5147 14.755C39.0024 14.7551 39.9976 14.7553 40.8929 14.2883C41.3579 14.0457 41.7971 13.6774 42.1255 13.1276C42.4523 12.5802 42.6535 11.8793 42.6859 10.9933L42.6863 10.9841V10.975V7.5V7H42.1863H20.3113H19.8113V7.5V11.06C19.8113 12.5324 20.6749 13.4385 21.6247 13.968C22.5576 14.488 23.6228 14.6798 24.2081 14.7513L24.2383 14.755H24.2688H27.928C25.0897 15.1947 22.4282 16.1882 20.0583 17.6207Z" fill="#3B8EF3" stroke="#3B8EF3"/>
<path fill-rule="evenodd" clip-rule="evenodd" d="M25 17.4996C25 17.4996 12.5 14.9996 7.5 22.4996L25 17.4996Z" fill="#3B8EF3"/>
<path d="M25 17.4996C25 17.4996 12.5 14.9996 7.5 22.4996" stroke="#3B8EF3" stroke-width="2" stroke-linecap="round" stroke-linejoin="round"/>
<path fill-rule="evenodd" clip-rule="evenodd" d="M24.1406 35.9525H26.2406C26.8281 35.9525 27.2856 35.7975 27.6056 35.49C27.9281 35.1825 28.0881 34.7375 28.0881 34.155C28.0881 33.595 27.9281 33.1625 27.6056 32.8625C27.2856 32.56 26.8281 32.4075 26.2406 32.4075H24.1406V35.9525ZM27.8981 41.56L26.2856 38.36H26.2231H24.1406V41.56H21.2506V30H26.2231C27.6881 30 28.8206 30.355 29.6256 31.0625C30.4331 31.7725 30.8356 32.77 30.8356 34.0575C30.8356 34.925 30.6656 35.675 30.3306 36.3075C29.9931 36.94 29.5031 37.43 28.8631 37.7825L31.1681 41.56H27.8981Z" fill="#3B8EF3"/>
<path fill-rule="evenodd" clip-rule="evenodd" d="M37.9423 38.1274C38.2823 37.7149 38.4498 37.1774 38.4498 36.5099C38.4498 35.8399 38.2823 35.2999 37.9423 34.8824C37.6023 34.4649 37.1623 34.2574 36.6223 34.2574C36.0898 34.2574 35.6573 34.4649 35.3223 34.8824C34.9898 35.2999 34.8223 35.8399 34.8223 36.5099C34.8223 37.1774 34.9898 37.7149 35.3223 38.1274C35.6573 38.5399 36.0898 38.7449 36.6223 38.7449C37.1623 38.7449 37.6023 38.5399 37.9423 38.1274ZM39.3723 32.4949C39.9698 32.8799 40.4298 33.4249 40.7573 34.1299C41.0873 34.8374 41.2498 35.6524 41.2498 36.5749C41.2498 37.4874 41.0923 38.2874 40.7748 38.9799C40.4548 39.6699 40.0023 40.2024 39.4148 40.5799C38.8248 40.9599 38.1448 41.1474 37.3698 41.1474C36.8423 41.1474 36.3573 41.0399 35.9248 40.8224C35.4948 40.6049 35.1248 40.2924 34.8223 39.8799V44.2849H32.0398V32.0199H34.8223V33.1874C35.4373 32.3424 36.2673 31.9199 37.3098 31.9199C38.0923 31.9199 38.7798 32.1124 39.3723 32.4949Z" fill="#3B8EF3"/>
</svg>
