<svg width="60" height="60" viewBox="0 0 60 60" fill="none" xmlns="http://www.w3.org/2000/svg">
<path d="M40.95 2.5H19.075C15.45 2.5 12.5 5.6 12.5 9.375V50.625C12.5 54.4 15.45 57.5 19.075 57.5H40.95C44.55 57.5 47.525 54.4 47.525 50.625V9.375C47.5 5.6 44.55 2.5 40.95 2.5ZM16.875 9.375C16.875 8.125 17.875 7.075 19.075 7.075H40.95C42.125 7.075 43.15 8.125 43.15 9.375V11.675H16.875V9.375ZM43.125 13.95V43.75H16.875V13.95H43.125ZM40.95 52.925H19.075C17.9 52.925 16.875 51.875 16.875 50.625V46.05H43.125V50.625C43.125 51.875 42.125 52.925 40.95 52.925Z" fill="#3B8EF3"/>
<path opacity="0.4" d="M23.45 50.6258V46.0508H16.875V50.6258C16.875 51.8758 17.875 52.9258 19.075 52.9258H25.65C24.425 52.9258 23.45 51.8758 23.45 50.6258Z" fill="#3B8EF3"/>
<path opacity="0.4" d="M23.45 13.9492H16.875V43.7492H23.45V13.9492Z" fill="#3B8EF3"/>
<path opacity="0.4" d="M16.875 9.37422V11.6742H23.45V9.37422C23.45 8.12422 24.425 7.07422 25.65 7.07422H19.075C17.875 7.07422 16.875 8.12422 16.875 9.37422Z" fill="#3B8EF3"/>
<path d="M33.275 50.6242H26.7C26.1 50.6242 25.6 50.1242 25.6 49.4742C25.6 48.8492 26.1 48.3242 26.7 48.3242H33.275C33.875 48.3242 34.375 48.8242 34.375 49.4742C34.375 50.1242 33.875 50.6242 33.275 50.6242Z" fill="#3B8EF3"/>
</svg>
