<svg width="65" height="57" viewBox="0 0 65 57" fill="none" xmlns="http://www.w3.org/2000/svg">
<rect x="3.34256" y="1.72852" width="13.2492" height="43.9974" fill="#3B8EF3" fill-opacity="0.4"/>
<path d="M58.4468 52.4631L58.4468 52.463L57.5367 46.9116H59.6253C62.1754 46.9116 64.25 44.837 64.25 42.2868V5.37474C64.2497 2.8243 62.1752 0.75 59.625 0.75H5.21745C2.66728 0.75 0.592712 2.82456 0.592712 5.37474V42.2871C0.592712 44.8373 2.66728 46.9118 5.21745 46.9118H36.649L35.7387 52.4635L35.9854 52.504L35.7387 52.4635C35.5459 53.64 35.9329 54.738 36.8125 55.3712C37.6917 56.0042 38.8549 56.0249 39.9102 55.4687L46.7527 51.8672C46.7529 51.8671 46.7532 51.8669 46.7534 51.8668C46.7669 51.8601 46.8049 51.8471 46.8724 51.8367C46.9368 51.8267 47.0135 51.8213 47.0926 51.8213C47.1717 51.8213 47.2484 51.8267 47.3129 51.8367C47.3806 51.8472 47.4185 51.8602 47.432 51.8669C47.4322 51.867 47.4324 51.8671 47.4326 51.8672L54.2751 55.4688C54.7759 55.7324 55.3006 55.8668 55.8095 55.8668C56.3732 55.8668 56.9138 55.7016 57.373 55.3709C58.2524 54.7377 58.6394 53.6395 58.4468 52.4631ZM44.7756 48.1055L40.3809 50.4187L41.7815 41.875C43.3746 42.6971 45.1804 43.1628 47.093 43.1628C49.0057 43.1628 50.8112 42.6969 52.4045 41.8749L52.9474 45.1886L52.9491 45.1988L52.9495 45.2006L52.9497 45.2013C52.95 45.2036 52.9505 45.2067 52.9512 45.2104L53.8051 50.4189L49.4098 48.1055C48.0618 47.3957 46.1235 47.3957 44.7756 48.1055ZM52.949 45.1967L52.949 45.1968C52.9486 45.1947 52.9485 45.1934 52.9486 45.1945L52.9487 45.1953L52.949 45.1967ZM5.21745 4.74978C5.21745 4.99978 5.21766 4.99978 5.21807 4.99978H5.21992H5.223H5.2273H5.23282H5.23956H5.2475H5.25664H5.26699H5.27853H5.29126H5.30517H5.32026H5.33653H5.35397H5.37257H5.39233H5.41325H5.43532H5.45854H5.48289H5.50839H5.53501H5.56276H5.59164H5.62163H5.65273H5.68494H5.71825H5.75266H5.78816H5.82476H5.86243H5.90118H5.94101H5.98191H6.02387H6.06689H6.11096H6.15608H6.20225H6.24946H6.2977H6.34697H6.39727H6.44859H6.50093H6.55427H6.60863H6.66398H6.72033H6.77767H6.836H6.89531H6.9556H7.01686H7.07909H7.14229H7.20644H7.27154H7.33759H7.40458H7.47252H7.54139H7.61118H7.6819H7.75354H7.8261H7.89957H7.97394H8.04921H8.12537H8.20243H8.28037H8.35919H8.43889H8.51946H8.6009H8.6832H8.76635H8.85036H8.93522H9.02091H9.10745H9.19481H9.28301H9.37203H9.46186H9.55252H9.64397H9.73624H9.8293H9.92315H10.0178H10.1132H10.2094H10.3064H10.4042H10.5027H10.602H10.702H10.8028H10.9043H11.0066H11.1096H11.2134H11.3178H11.423H11.5289H11.6355H11.7429H11.8509H11.9596H12.069H12.1792H12.2899H12.4014H12.5136H12.6264H12.7399H12.854H12.9688H13.0842H13.2003H13.317H13.4344H13.5524H13.671H13.7902H13.9101H14.0306H14.1516H14.2733H14.3956H14.5184H14.6419H14.7659H14.8905H15.0157H15.1414H15.2677H15.3946H15.522H15.65H15.7785H15.9076H16.0372H16.1673H16.2979H16.4291H16.5607H16.6929H16.8256H16.9588H17.0925H17.2267H17.3613H17.4965H17.6321H17.7682H17.9047H18.0417H18.1792H18.3171H18.4555H18.5943H18.7336H18.8733H19.0134H19.1539H19.2949H19.4362H19.578H19.7202H19.8628H20.0058H20.1491H20.2929H20.437H20.5815H20.7264H20.8716H21.0172H21.1632H21.3095H21.4561H21.6031H21.7504H21.8981H22.0461H22.1944H22.343H22.492H22.6412H22.7908H22.9406H23.0908H23.2412H23.3919H23.5429H23.6941H23.8457H23.9975H24.1495H24.3018H24.4544H24.6072H24.7603H24.9135H25.067H25.2208H25.3747H25.5289H25.6833H25.8379H25.9927H26.1477H26.3028H26.4582H26.6138H26.7695H26.9254H27.0815H27.2377H27.3941H27.5506H27.7073H27.8641H28.0211H28.1782H28.3354H28.4928H28.6503H28.8079H28.9656H29.1234H29.2813H29.4393H29.5974H29.7556H29.9138H30.0722H30.2306H30.3891H30.5476H30.7062H30.8648H31.0235H31.1823H31.341H31.4999H31.6587H31.8175H31.9764H32.1353H32.2942H32.4531H32.612H32.7709H32.9298H33.0887H33.2475H33.4063H33.5651H33.7239H33.8826H34.0413H34.1999H34.3585H34.517H34.6754H34.8338H34.9921H35.1504H35.3085H35.4666H35.6245H35.7824H35.9402H36.0978H36.2554H36.4128H36.5701H36.7273H36.8844H37.0413H37.1981H37.3547H37.5112H37.6675H37.8237H37.9797H38.1355H38.2912H38.4466H38.6019H38.757H38.912H39.0667H39.2212H39.3755H39.5296H39.6834H39.8371H39.9905H40.1437H40.2967H40.4494H40.6018H40.754H40.906H41.0577H41.2091H41.3603H41.5112H41.6618H41.8121H41.9621H42.1118H42.2613H42.4104H42.5592H42.7077H42.8559H43.0038H43.1513H43.2985H43.4453H43.5919H43.738H43.8838H44.0293H44.1744H44.3191H44.4635H44.6075H44.7511H44.8943H45.0371H45.1795H45.3215H45.4632H45.6044H45.7452H45.8855H46.0255H46.165H46.3041H46.4427H46.5809H46.7187H46.856H46.9928H47.1292H47.2651H47.4005H47.5355H47.6699H47.8039H47.9374H48.0704H48.2029H48.3349H48.4664H48.5973H48.7278H48.8577H48.987H49.1159H49.2442H49.3719H49.4991H49.6258H49.7519H49.8774H50.0024H50.1267H50.2505H50.3738H50.4964H50.6184H50.7399H50.8607H50.9809H51.1005H51.2195H51.3379H51.4557H51.5728H51.6892H51.8051H51.9203H52.0348H52.1487H52.2619H52.3744H52.4863H52.5975H52.7081H52.8179H52.927H53.0355H53.1433H53.2503H53.3567H53.4623H53.5672H53.6714H53.7748H53.8776H53.9795H54.0808H54.1813H54.281H54.38H54.4782H54.5757H54.6724H54.7683H54.8634H54.9577H55.0513H55.144H55.236H55.3271H55.4174H55.507H55.5956H55.6835H55.7706H55.8568H55.9421H56.0267H56.1103H56.1932H56.2751H56.3562H56.4364H56.5158H56.5943H56.6719H56.7486H56.8244H56.8993H56.9733H57.0465H57.1186H57.1899H57.2603H57.3297H57.3982H57.4658H57.5324H57.5981H57.6628H57.7266H57.7894H57.8513H57.9122H57.9721H58.031H58.0889H58.1459H58.2019H58.2568H58.3108H58.3637H58.4157H58.4666H58.5165H58.5654H58.6132H58.66H58.7058H58.7505H58.7941H58.8367H58.8783H58.9188H58.9582H58.9965H59.0337H59.0699H59.105H59.139H59.1719H59.2036H59.2343H59.2639H59.2923H59.3196H59.3458H59.3708H59.3947H59.4175H59.4391H59.4596H59.4789H59.4971H59.514H59.5298H59.5445H59.5579H59.5702H59.5813H59.5911H59.5998H59.6073H59.6135H59.6186H59.6224H59.625C59.8257 4.99978 60 5.17409 60 5.37474V5.37714V5.38037V5.38442V5.38928V5.39497V5.40146V5.40877V5.41688V5.4258V5.43552V5.44603V5.45734V5.46943V5.48232V5.49599V5.51043V5.52566V5.54166V5.55843V5.57597V5.59427V5.61333V5.63316V5.65373V5.67506V5.69713V5.71995V5.74351V5.76781V5.79285V5.81861V5.84511V5.87233V5.90027V5.92893V5.9583V5.98839V6.01919V6.05069V6.0829V6.1158V6.1494V6.18369V6.21867V6.25434V6.29069V6.32772V6.36543V6.40381V6.44286V6.48258V6.52296V6.564V6.60569V6.64804V6.69104V6.73469V6.77898V6.82392V6.86949V6.91569V6.96252V7.00999V7.05807V7.10678V7.15611V7.20604V7.2566V7.30775V7.35952V7.41188V7.46485V7.51841V7.57256V7.62729V7.68262V7.73852V7.79501V7.85207V7.9097V7.9679V8.02667V8.086V8.14589V8.20633V8.26733V8.32888V8.39097V8.45361V8.51678V8.58049V8.64474V8.70951V8.77482V8.84064V8.90699V8.97385V9.04123V9.10911V9.1775V9.2464V9.3158V9.38569V9.45608V9.52696V9.59833V9.67018V9.74252V9.81533V9.88861V9.96237V10.0366V10.1113V10.1864V10.262V10.3381V10.4146V10.4916V10.569V10.6469V10.7251V10.8039V10.883V10.9626V11.0426V11.1231V11.2039V11.2852V11.3669V11.449V11.5315V11.6144V11.6977V11.7814V11.8655V11.95V12.0348V12.1201V12.2057V12.2917V12.3781V12.4649V12.552V12.6395V12.7273V12.8155V12.9041V12.993V13.0822V13.1718V13.2618V13.352V13.4427V13.5336V13.6249V13.7165V13.8084V13.9006V13.9932V14.086V14.1792V14.2727V14.3665V14.4606V14.5549V14.6496V14.7446V14.8398V14.9353V15.0311V15.1272V15.2236V15.3202V15.4171V15.5142V15.6116V15.7093V15.8072V15.9054V16.0038V16.1025V16.2014V16.3005V16.3999V16.4995V16.5993V16.6994V16.7997V16.9001V17.0008V17.1018V17.2029V17.3042V17.4058V17.5075V17.6094V17.7115V17.8138V17.9163V18.019V18.1218V18.2248V18.328V18.4314V18.5349V18.6386V18.7425V18.8465V18.9506V19.0549V19.1594V19.264V19.3687V19.4736V19.5786V19.6837V19.789V19.8944V19.9999V20.1055V20.2112V20.3171V20.423V20.5291V20.6352V20.7415V20.8478V20.9543V21.0608V21.1674V21.2741V21.3808V21.4877V21.5946V21.7015V21.8086V21.9157V22.0229V22.1301V22.2373V22.3446V22.452V22.5594V22.6668V22.7743V22.8818V22.9894V23.0969V23.2045V23.3121V23.4197V23.5274V23.635V23.7426V23.8503V23.9579V24.0656V24.1732V24.2808V24.3884V24.496V24.6036V24.7112V24.8187V24.9262V25.0337V25.1411V25.2485V25.3558V25.4631V25.5703V25.6775V25.7847V25.8918V25.9988V26.1057V26.2126V26.3194V26.4262V26.5328V26.6394V26.7459V26.8523V26.9586V27.0648V27.1709V27.2769V27.3828V27.4886V27.5943V27.6999V27.8053V27.9107V28.0159V28.121V28.2259V28.3307V28.4354V28.54V28.6444V28.7486V28.8527V28.9567V29.0605V29.1641V29.2675V29.3708V29.474V29.5769V29.6797V29.7823V29.8847V29.987V30.089V30.1909V30.2925V30.394V30.4952V30.5963V30.6971V30.7977V30.8981V30.9983V31.0983V31.198V31.2975V31.3968V31.4959V31.5947V31.6933V31.7916V31.8897V31.9875V32.0851V32.1824V32.2794V32.3762V32.4727V32.569V32.6649V32.7606V32.8561V32.9512V33.046V33.1406V33.2349V33.3288V33.4225V33.5159V33.6089V33.7017V33.7941V33.8862V33.978V34.0695V34.1606V34.2514V34.3419V34.4321V34.5219V34.6114V34.7005V34.7893V34.8777V34.9657V35.0535V35.1408V35.2278V35.3144V35.4006V35.4865V35.572V35.6571V35.7418V35.8261V35.9101V35.9936V36.0768V36.1595V36.2419V36.3238V36.4053V36.4865V36.5672V36.6474V36.7273V36.8067V36.8857V36.9643V37.0424V37.1201V37.1973V37.2741V37.3504V37.4263V37.5018V37.5768V37.6513V37.7253V37.7989V37.872V37.9446V38.0168V38.0884V38.1596V38.2303V38.3005V38.3702V38.4394V38.5081V38.5763V38.644V38.7112V38.7779V38.844V38.9096V38.9747V39.0393V39.1034V39.1669V39.2298V39.2923V39.3541V39.4155V39.4763V39.5365V39.5962V39.6553V39.7138V39.7718V39.8292V39.8861V39.9424V39.998V40.0531V40.1077V40.1616V40.2149V40.2676V40.3198V40.3713V40.4222V40.4726V40.5223V40.5714V40.6198V40.6677V40.7149V40.7615V40.8074V40.8528V40.8975V40.9415V40.9849V41.0277V41.0698V41.1112V41.152V41.1921V41.2316V41.2704V41.3085V41.346V41.3827V41.4188V41.4542V41.4889V41.523V41.5563V41.5889V41.6209V41.6521V41.6826V41.7125V41.7416V41.7699V41.7976V41.8246V41.8508V41.8763V41.901V41.925V41.9483V41.9708V41.9926V42.0137V42.034V42.0535V42.0723V42.0903V42.1075V42.124V42.1397V42.1546V42.1688V42.1821V42.1947V42.2065V42.2175V42.2277V42.2372V42.2458V42.2536V42.2606V42.2668V42.2721V42.2767V42.2804V42.2833V42.2854V42.2867C60 42.2869 60 42.2871 60.25 42.2871H60C60 42.4877 59.8257 42.662 59.625 42.662H56.8398L56.199 38.7532C57.7737 36.7701 58.7173 34.2626 58.7173 31.5387C58.7173 25.1288 53.5029 19.9144 47.093 19.9144C40.683 19.9144 35.4687 25.1288 35.4687 31.5387C35.4687 34.2626 36.4123 36.7696 37.9869 38.7531L37.3462 42.662H5.21745C5.0168 42.662 4.84249 42.4877 4.84249 42.2871V5.37474C4.84249 5.17408 5.0168 4.99978 5.21745 4.99978V4.74978ZM47.0927 38.9133C43.0268 38.9133 39.7182 35.6046 39.7182 31.5387C39.7182 27.4728 43.0268 24.1642 47.0927 24.1642C51.1587 24.1642 54.4673 27.4728 54.4673 31.5387C54.4673 35.6046 51.1587 38.9133 47.0927 38.9133Z" fill="#3B8EF3" stroke="#3B8EF3" stroke-width="0.5"/>
<path d="M52.9944 11.7891H10.4969C9.46118 11.7891 8.62198 12.6283 8.62198 13.664C8.62198 14.6996 9.46118 15.5388 10.4969 15.5388H52.9944C54.0301 15.5388 54.8693 14.6996 54.8693 13.664C54.8693 12.6283 54.0301 11.7891 52.9944 11.7891Z" fill="#3B8EF3"/>
<path d="M28.4958 21.957H10.4969C9.46118 21.957 8.62198 22.7962 8.62198 23.8319C8.62198 24.8676 9.46118 25.7068 10.4969 25.7068H28.4958C29.5315 25.7068 30.3707 24.8676 30.3707 23.8319C30.3707 22.7962 29.5315 21.957 28.4958 21.957Z" fill="#3B8EF3"/>
</svg>
