<?xml version="1.0" encoding="utf-8"?>
<!-- Generator: Adobe Illustrator 25.4.1, SVG Export Plug-In . SVG Version: 6.00 Build 0)  -->
<svg version="1.1" id="Layer_1" xmlns="http://www.w3.org/2000/svg" xmlns:xlink="http://www.w3.org/1999/xlink" x="0px" y="0px"
	 viewBox="0 0 180 49.8" style="enable-background:new 0 0 180 49.8;" xml:space="preserve">
<style type="text/css">
	.st0{fill-rule:evenodd;clip-rule:evenodd;fill:#1B4180;}
	.st1{fill:#1B4180;}
</style>
<g>
	<path class="st0" d="M27.9,9.2c0,0.8-0.1,1.9-0.4,3.5c-0.6,3.6-1.8,6.3-3.8,7.9c-2,1.7-4.3,2.5-6.8,2.5c-1.3,0-2.7-0.1-4.1-0.3
		c-1.4-0.2-2.5-0.4-3.3-0.6L7.8,32.7H0L5.3,0h13.5c2.8,0,5,0.7,6.7,2.1C27.1,3.5,27.9,5.9,27.9,9.2z M18.4,15.1
		c0.7-0.8,1.1-1.9,1.3-3.2C19.9,11,20,10.4,20,9.9c0-1.1-0.2-1.9-0.7-2.4c-0.5-0.5-1.1-0.7-2-0.7H12l-1.5,9.5h5.4
		C16.9,16.3,17.8,15.9,18.4,15.1z"/>
	<path class="st0" d="M21.7,32.7L36.9,0h9.5l4.8,32.7h-7.9l-0.7-5.9H32.1l-2.6,5.9H21.7z M40.6,6.5L35,19.9h6.9L40.6,6.5z"/>
	<path class="st1" d="M70.4,0l-8,15.3L59.6,0h-8.4l6.1,23.5l-1.5,9.2h7.7l1.5-9.2L79.1,0H70.4z"/>
	<path class="st1" d="M84,20.7l11.6-0.4l1-6L85.1,14l0.7-4.3c0.1-0.9,0.4-1.6,0.9-2C87.1,7.2,87.8,7,88.7,7h11.1l1-6.4
		C96.6,0.2,92.1,0,87.5,0c-2.3,0-4.2,0.6-5.9,1.7c-1.7,1.1-2.7,3.1-3.1,5.9l-1.4,9l-3.2,18.7l2.7-0.5l-3.7,14.9l15.4-22.9l-5.4,0.8
		L84,20.7z"/>
	<path class="st0" d="M96.2,32.7L111.4,0h9.5l4.8,32.7h-7.9l-0.7-5.9h-10.5l-2.6,5.9H96.2z M115.1,6.5l-5.6,13.4h6.9L115.1,6.5z"/>
	<path class="st1" d="M154.1,6.5l1-6.5h-22.6l-1.1,6.8h13.6l-16.8,19.4l-1,6.4h23.1l1.1-6.8h-14.1L154.1,6.5z"/>
	<path class="st1" d="M180,0h-22.6l-1.1,6.8h13.6l-16.8,19.4l-1,6.4h23.1l1.1-6.8h-14.1L179,6.5L180,0z"/>
	<path class="st1" d="M94.2,39.3l-1.9,4.7l-0.6-4.7h-3.7L86.7,49h2.6l0.8-5.4l0.5,3.7h2.6l1.5-3.8L93.9,49h2.6l1.4-9.7H94.2z
		 M97.5,49h2.8l0.6-1.8h2.2l0.1,1.8h2.8l-1-9.7h-3.8L97.5,49z M101.5,45.2l1.3-3.7l0.2,3.7H101.5z M109.6,49.1c2.2,0,3.7-1.1,4-2.9
		c0.2-1.4-0.6-2.1-2.1-2.9l-0.7-0.4c-0.4-0.2-0.7-0.6-0.6-0.9c0.1-0.5,0.7-0.9,1.5-0.9c0.5,0,1,0.1,1.5,0.1l0.5-1.6
		c-0.7-0.4-1.4-0.5-2.4-0.5c-2.1,0-3.6,1.1-3.9,2.9c-0.2,1.3,0.4,2.1,1.6,2.8l0.6,0.4c0.7,0.4,1.2,0.6,1.1,1.1
		c-0.1,0.6-0.6,0.8-1.8,0.8c-0.5,0-1.3-0.1-1.9-0.2l-0.5,1.6C107.5,48.9,108.4,49.1,109.6,49.1z M115.3,49h2.7l1.1-7.7h1.9l0.3-2
		h-6.6l-0.3,2h1.9L115.3,49z M120.8,49h6.5l0.3-2h-3.8l0.3-1.8h3.3l0.3-2h-3.3l0.2-1.8h3.8l0.3-2h-6.5L120.8,49z M128.8,49h2.7
		l0.4-2.9h0.4c0.2,0,0.4,0,0.6,0l0.8,2.9h2.8l-1.1-3.6c0.9-0.6,1.4-1.5,1.6-2.7c0.3-2.3-0.9-3.5-3.8-3.5c-0.9,0-1.8,0.1-3.2,0.4
		L128.8,49z M132.2,44.1l0.4-2.8c0.3-0.1,0.5-0.1,0.7-0.1c0.8,0,1.1,0.5,1,1.4c-0.1,1-0.6,1.5-1.4,1.5H132.2z M140.4,49h2.8l0.6-1.8
		h2.2l0.1,1.8h2.8l-1-9.7h-3.8L140.4,49z M144.5,45.2l1.3-3.7l0.2,3.7H144.5z M154,49.1c1.3,0,2.4-0.2,3.3-0.5l0.8-5.5h-3.9
		l-0.3,1.9h1.3l-0.3,2.1c-0.1,0-0.5,0-0.7,0c-1.4,0-1.5-0.9-1.4-2l0.3-1.8c0.2-1.2,0.6-2.1,2.5-2.1c1,0,1.5,0.1,2,0.2l0.5-1.6
		c-0.7-0.4-1.6-0.6-2.7-0.6c-3.4,0-4.9,1.8-5.3,4.7l-0.1,0.5C149.7,47.5,151,49.1,154,49.1z M158.7,49h6.5l0.3-2h-3.8l0.3-1.8h3.3
		l0.3-2h-3.3l0.3-1.8h3.8l0.3-2H160L158.7,49z M173.3,39.3l-0.7,4.9l-2-4.9H168l-1.4,9.7h2.6l0.7-4.9l2,4.9h2.6l1.4-9.7H173.3z"/>
</g>
</svg>
