<?xml version="1.0" encoding="utf-8"?>
<!-- Generator: Adobe Illustrator 25.4.1, SVG Export Plug-In . SVG Version: 6.00 Build 0)  -->
<svg version="1.1" id="Layer_1" xmlns="http://www.w3.org/2000/svg" xmlns:xlink="http://www.w3.org/1999/xlink" x="0px" y="0px"
	 viewBox="0 0 183 61" style="enable-background:new 0 0 183 61;" xml:space="preserve">
<style type="text/css">
	.st0{fill:#18BA62;}
	.st1{fill:#3B8EF3;}
	.st2{fill:#1C1C1C;}
</style>
<path class="st0" d="M87.9,21.4L99.8,21l1-6.2L89,14.5l0.7-4.4c0.1-0.9,0.4-1.6,0.9-2.1c0.4-0.4,1.2-0.7,2.2-0.7h11.5l1-6.6
	c-4.4-0.4-9-0.7-13.8-0.7c-2.3,0-4.3,0.6-6,1.7c-1.7,1.2-2.8,3.3-3.3,6.2l-1.4,9.3l-3.3,19.4l2.8-0.5l-3.8,15.5l15.8-23.8l-5.6,0.8
	L87.9,21.4z"/>
<path class="st0" d="M114.3,0L98.7,33.5h8l2.7-6.1h10.7l0.7,6.1h8.1L124.1,0H114.3z M112.3,20.4l5.7-13.8l1.4,13.8H112.3z"/>
<path class="st0" d="M157,6.7l1.1-6.7h-22.5l-1.2,7H148l-16.7,19.9l-1,6.6h23l1.1-6.9h-14L157,6.7z"/>
<path class="st0" d="M183,0h-22.5l-1.2,7h13.6l-16.7,19.9l-1.1,6.6h23l1.2-6.9h-14l16.6-19.9L183,0z"/>
<path class="st1" d="M27.7,13.1c0.3-1.6,0.4-2.8,0.4-3.6c0-3.4-0.8-5.9-2.5-7.3C24.1,0.7,21.8,0,19,0H5.4L0,33.5h7.8l1.7-10.6
	c0.8,0.2,1.9,0.4,3.3,0.7c1.4,0.1,2.8,0.3,4.1,0.3c2.6,0,4.9-0.9,6.9-2.5C25.9,19.5,27.1,16.8,27.7,13.1z M19.9,12.2
	c-0.2,1.4-0.7,2.5-1.4,3.3c-0.7,0.8-1.6,1.2-2.7,1.2h-5.4L12,7h5.4c0.9,0,1.6,0.2,2,0.7c0.4,0.5,0.7,1.3,0.7,2.5
	C20.1,10.6,20.1,11.3,19.9,12.2z"/>
<path class="st1" d="M38.4,0L22.8,33.5h8l2.7-6.1h10.7l0.7,6.1h8.1L48.2,0H38.4z M36.5,20.4l5.7-13.8l1.4,13.8H36.5z"/>
<path class="st1" d="M73.1,0L65,15.7L62.1,0h-8.5l6.2,24.2l-1.5,9.3h7.8l1.5-9.3L82,0H73.1z"/>
<path class="st2" d="M108.7,44.4l-3.2,7.9l-1-7.9h-6.2l-2.3,16.3h4.4l1.3-9.2l0.8,6.3h4.5l2.6-6.3l-1.3,9.2h4.4l2.3-16.3H108.7z"/>
<path class="st2" d="M122.2,61c4.6,0,7.6-2.8,8.3-8l0.1-0.8c0.7-5-1.5-8-6-8c-4.5,0-7.6,2.9-8.3,8l-0.1,0.8
	C115.5,58.2,117.6,61,122.2,61z M122.7,57.6c-1.6,0-2.2-1-1.9-3l0.6-4c0.3-2,1.2-3,2.8-3c1.6,0,2.2,1,1.9,3l-0.6,4
	C125.2,56.6,124.3,57.6,122.7,57.6z"/>
<path class="st2" d="M137.3,61c4.9,0,7.8-1.7,8.3-4.7c0.3-2-0.6-3.7-2.2-4c1.3-0.4,2.3-1.9,2.5-3.6c0.4-2.8-1.9-4.4-6.4-4.4
	c-1.6,0-3.3,0.2-5.4,0.6l-2.2,15.5C133.8,60.8,135.6,61,137.3,61z M137.9,50.9l0.4-3.1c0.4-0.1,0.9-0.2,1.4-0.2
	c1.2,0,1.6,0.5,1.5,1.6c-0.2,1-0.8,1.7-1.7,1.7H137.9z M138.3,57.6c-0.5,0-1,0-1.3-0.2l0.5-3.3h2.3c0.9,0,1.4,0.7,1.3,1.7
	C140.8,57,140,57.6,138.3,57.6z"/>
<path class="st2" d="M147.3,60.8h4.6l2.3-16.3h-4.6L147.3,60.8z"/>
<path class="st2" d="M154.7,60.8h9.7l0.5-3.4h-5.1l1.8-12.9h-4.6L154.7,60.8z"/>
<path class="st2" d="M166.6,60.8h11.1l0.5-3.4h-6.4l0.4-3.1h5.6l0.5-3.4h-5.6l0.4-3.1h6.4l0.5-3.4h-11.1L166.6,60.8z"/>
</svg>
