<svg width="400" height="400" viewBox="0 0 400 400" fill="none" xmlns="http://www.w3.org/2000/svg">
<path d="M139.889 64.1118C167.889 76.4451 200.445 69.5562 231 68.4451C261.556 67.334 295.445 71.1118 316.445 93.0007C325.333 102.334 331.111 114.112 335.333 126.223C345.111 154.445 346.778 185.778 337.111 214.112C327.445 242.445 305.667 267.112 277.333 277.89C266.889 281.89 255.667 284.001 245.111 288.001C228.667 294.334 214.445 305.001 201.667 316.89C187.889 329.667 175 344.334 157.778 352.223C140.778 360.001 121.333 360.334 102.667 358.667C92.4445 357.778 82.0001 356.223 72.7779 351.778C56.889 344.112 46.3334 328.334 41.889 311.445C37.5556 294.667 38.889 276.89 42.0001 259.89C45.1112 243.445 49.889 227.001 50.0001 210.334C50.2223 187.223 41.4445 165.112 37.0001 142.334C32.5556 119.556 33.4445 93.6674 49.4445 76.6674C69.0001 56.2229 102.667 52.2229 130.333 59.6674C132.889 60.334 137.445 63.0007 139.889 64.1118Z" fill="#EAEEF3"/>
<g opacity="0.3">
<path opacity="0.6" d="M211.222 308.556C208 308.001 204.555 307.667 201.333 307.556C160.555 305.778 119.555 318.556 79.3332 312.112C67.9999 310.223 56.6666 306.778 47.111 300.445C44.3333 298.667 41.7777 296.556 39.3333 294.334C39.6666 300.112 40.4444 305.89 41.8888 311.556C46.2221 328.334 56.8888 344.223 72.7777 351.778C81.9999 356.223 92.4444 357.778 102.667 358.667C121.333 360.334 140.889 359.89 157.778 352.223C175 344.334 187.889 329.778 201.667 316.89C204.778 314.112 208 311.334 211.222 308.556Z" fill="#94A8C4"/>
</g>
<g opacity="0.3">
<path opacity="0.6" d="M197.333 227.444C175.556 218.111 151.667 215 128.222 211.555C104.778 208.111 80.8889 203.889 60.1111 192.555C55.5556 190.111 51.1111 187.111 47 183.889C48.8889 192.666 50.1111 201.444 50 210.444C49.8889 227.222 45 243.555 42 260C38.7778 277 37.5556 294.778 41.8889 311.555C46.2222 328.333 56.8889 344.222 72.7778 351.778C82 356.222 92.4445 357.778 102.667 358.666C121.333 360.333 140.889 359.889 157.778 352.222C175 344.333 187.889 329.778 201.667 316.889C214.444 305 228.667 294.222 245.111 288C249.444 286.333 253.889 285 258.333 283.778C245 259 223.222 238.666 197.333 227.444Z" fill="#BFCBDC"/>
</g>
<path d="M110 340.778C112.555 348.555 116.222 354.778 120.889 359.555C133.667 359.444 146.333 357.555 157.778 352.333C175 344.444 187.889 329.889 201.667 317C214.444 305.111 228.667 294.333 245.111 288.111C252.222 285.444 259.555 283.555 266.778 281.444C260 237.555 238.444 72.9999 231.111 40.3332C223.333 5.22209 203.333 9.55543 130.555 22.8888C57.8888 35.9999 59.2221 58.6665 64.4443 91.4443C69.6666 124.111 95.3332 295.444 110 340.778Z" fill="#5373A1"/>
<path d="M125.444 330.221C129.778 343.777 137.111 351.777 147.667 355.999C151.111 354.999 154.444 353.777 157.778 352.333C175 344.444 187.889 329.888 201.667 316.999C214.444 305.11 228.667 294.333 245.111 288.11C248 286.999 251 285.999 254 285.11C246.778 231.666 234.667 135.444 228.778 94.9992C220.889 41.1104 214.333 34.1104 208.222 34.777C202.111 35.4437 184.889 37.5548 178.444 38.777C172 39.9992 175.556 54.5548 169.667 56.1104C163.778 57.6659 150.222 59.2215 137.111 60.5548C124 61.9992 124.556 49.4437 120.444 50.2215C116.333 50.9992 111.222 51.8881 95.5555 55.2215C79.8889 58.6659 83 69.9992 84.1111 78.8881C84.1111 78.8881 115.667 299.555 125.444 330.221Z" fill="white"/>
<path d="M225.667 145.999C225.111 141.333 214 72.2216 212.222 67.7771C211.778 66.7771 211.333 65.666 210.333 65.1105C209.556 64.666 208.556 64.666 207.667 64.666C199.556 64.666 191.444 65.7771 183.333 66.8882C158.222 70.2216 133.111 73.5549 108.111 77.9993C104.667 78.666 100.556 79.666 99.3333 82.9993C98.5555 84.8882 99 86.8882 99.3333 88.8882C100.333 94.1105 110.667 157.888 111.667 163.11C111.667 163.11 112.778 169.666 119.556 168.888C126.333 168.11 221.222 152.444 221.222 152.444C221.222 152.444 226.444 152.11 225.667 145.999Z" fill="#EAEEF3"/>
<path d="M212.222 67.8885C211.778 66.8885 211.333 65.7773 210.333 65.2218C209.556 64.7773 208.556 64.7773 207.667 64.7773C199.556 64.7773 191.444 65.8885 183.333 66.9996C158.222 70.3329 133.111 73.6662 108.111 78.1107C104.667 78.7774 100.556 79.7774 99.3333 83.1107C98.5555 84.9996 99 86.9996 99.3333 88.9996C100 92.6662 105.111 124.222 108.556 145.111L222.778 127.555C219.222 105.222 213.556 70.8885 212.222 67.8885Z" fill="#BFCBDC"/>
<path d="M119.889 192.111C121.667 189.889 124.444 188.778 127.222 188C134.444 185.889 141.889 184.889 149.333 184C170.889 181.222 192.333 178.333 213.889 175.555C216.667 175.222 219.778 174.889 222 176.555C224.222 178.222 224.889 181.222 225.333 183.889C226.222 188.889 227.111 193.889 228 198.889C228.444 201.333 228.778 204.222 227 206C226.111 207 224.778 207.444 223.444 207.778C194.444 216.666 164.222 221.778 133.889 222.889C131.222 223 128.444 223 126 222.111C123.556 221.111 121.333 218.889 121.444 216.222C121.444 216.222 116.889 196 119.889 192.111Z" fill="#BFCBDC"/>
<path d="M156.222 221.333C179 219 201.555 214.444 223.444 207.778C224.778 207.333 226.111 207 227 206C228.667 204.222 228.444 201.333 228 198.889C227.111 193.889 226.222 188.889 225.333 183.889C224.889 181.222 224.222 178.222 222 176.555C219.778 174.889 216.667 175.222 213.889 175.555C193.333 178.222 169.889 181.333 149.333 184C151.778 199.222 153.667 205.444 156.222 221.333Z" fill="#EAEEF3"/>
<path d="M129.778 241.222C131.555 239 134.333 237.889 137.111 237.111C144.333 235 151.778 234 159.222 233.111C180.778 230.333 202.222 227.444 223.778 224.667C226.555 224.333 229.667 224 231.889 225.667C234.111 227.333 234.778 230.333 235.222 233C236.111 238 237 243 237.889 248C238.333 250.444 238.667 253.333 236.889 255.111C236 256.111 234.667 256.556 233.333 256.889C204.333 265.778 174.111 270.889 143.778 272C141.111 272.111 138.333 272.111 135.889 271.222C133.444 270.222 131.222 268 131.333 265.333C131.444 265.222 126.778 245.111 129.778 241.222Z" fill="#BFCBDC"/>
<path d="M166.222 270.333C189 268 211.555 263.444 233.444 256.778C234.778 256.333 236.111 256 237 255C238.667 253.222 238.444 250.333 238 247.889C237.111 242.889 236.222 237.889 235.333 232.889C234.889 230.222 234.222 227.222 232 225.555C229.778 223.889 226.667 224.222 223.889 224.555C203.333 227.222 179.889 230.333 159.333 233C161.778 248.222 163.667 254.555 166.222 270.333Z" fill="#EAEEF3"/>
<path d="M172.889 241C187.111 238.666 201.333 236.777 215.555 235.222C217.111 235.111 216.555 232.777 215 232.889C200.667 234.444 186.444 236.333 172.333 238.666C170.889 238.889 171.444 241.222 172.889 241Z" fill="#BFCBDC"/>
<path d="M179.333 248.223C185.333 246.667 191.333 245.667 197.556 245.223C198.222 245.223 198.778 244.778 198.778 244.112C198.778 243.556 198.333 242.779 197.667 242.89C191.333 243.334 185 244.334 178.889 246.001C177.333 246.334 177.778 248.556 179.333 248.223Z" fill="#BFCBDC"/>
<path d="M123.778 151.778C138.555 149.445 153.444 147.334 168.333 145.556C169.889 145.334 169.333 143.112 167.778 143.223C152.889 145.001 138 147.112 123.222 149.445C121.778 149.778 122.333 152.001 123.778 151.778Z" fill="#BFCBDC"/>
<path d="M125.333 157.999C130.333 156.999 135.444 156.111 140.555 155.444C142.111 155.222 141.555 152.888 140 153.111C134.889 153.777 129.889 154.666 124.778 155.666C123.333 155.999 123.778 158.222 125.333 157.999Z" fill="#BFCBDC"/>
<path d="M146 154C151.778 152.889 157.556 152.111 163.445 151.333C165 151.111 164.445 148.889 162.889 149C157 149.667 151.222 150.556 145.445 151.667C144 152 144.556 154.333 146 154Z" fill="#BFCBDC"/>
<path d="M161 195C176.445 192.222 191.889 189.333 207.333 186.555C208.778 186.333 208.333 184 206.778 184.222C191.333 187 175.889 189.889 160.445 192.666C159 193 159.556 195.222 161 195Z" fill="#BFCBDC"/>
<path d="M162.222 201.556C177.555 199.778 192.778 197.445 208 194.556C209.444 194.223 209 192 207.444 192.223C192.333 195.112 177 197.445 161.667 199.223C160.111 199.445 160.667 201.778 162.222 201.556Z" fill="#BFCBDC"/>
<path d="M166 211.556C172.667 210.667 179.444 209.778 186.111 208.889C187.667 208.667 187.111 206.334 185.556 206.556C178.889 207.445 172.111 208.334 165.444 209.223C164 209.445 164.444 211.778 166 211.556Z" fill="#BFCBDC"/>
<path d="M252 303.223C239.333 307.778 226.667 314.334 219.333 325.556C212 336.778 211.889 353.667 222.333 362.223C227 366.001 233 367.778 238.889 368.889C265.445 374.112 293.889 369.556 317.556 356.334C327.333 350.889 336.556 343.778 341.778 333.889C347 324.001 347.333 311.001 340.445 302.223C334 294.112 313.222 287.334 298.222 290.667C286.556 293.334 268.667 297.223 252 303.223Z" fill="#BFCBDC"/>
<g opacity="0.4">
<path opacity="0.8" d="M230.778 86.5547C211.889 98.4436 183.556 123.999 175.445 144.777C172.889 151.444 171.222 159.666 176 165.11C178.445 167.888 182.111 169.332 184.111 172.332C186.667 176.444 185.445 182.11 188.111 186.11C190.778 189.999 196.778 191.777 197.222 196.444C197.445 198.221 196.667 199.999 195.889 201.666C191.222 212.11 188 223.221 186 234.444C184.222 244.777 183.889 256.11 189.556 264.777C194.222 271.888 202.222 276.11 210 279.555C218.333 283.221 245.111 282.666 253.889 285.221L236.556 95.7769L230.778 86.5547Z" fill="#D4DCE8"/>
</g>
<path d="M229.778 115.111L218.667 106.889L226.667 97.3337C226.667 97.3337 231 94.4448 230.111 90.2226C229.222 86.0003 226.556 83.1115 224 82.8892C221.444 82.667 213.778 82.3337 213 75.2226C212.111 68.2226 212.111 68.2226 212.111 68.2226L209.222 68.0003C209.222 68.0003 214.667 54.5559 215.333 51.8892C216 49.2226 219.333 39.2226 225.667 39.7781C232 40.3337 250.222 39.7781 250.667 49.8892C251.111 60.0004 247.444 76.2226 244.333 81.1115C241.111 86.0004 239.555 89.3337 240.889 93.2226C242.222 97.1115 245.778 98.667 245.778 98.667L248.667 104.889C248.667 104.889 237.889 113.111 237.333 113.223C236.778 113.445 229.778 115.111 229.778 115.111Z" fill="url(#paint0_linear)"/>
<path d="M222.222 43.8898C222.222 43.8898 222.556 53.0009 229.889 56.8898C237.222 60.7787 237.111 60.7787 237.111 60.7787C237.111 60.7787 240.222 59.112 241.222 60.7787C242.222 62.4454 241.889 67.0009 240.556 67.4454C239.222 67.8898 239.222 67.8898 239.222 67.8898C239.222 67.8898 233.222 78.8898 237.444 85.6676C241.778 92.4454 242.222 93.6676 242.778 95.6676C243.222 97.7787 248.667 101.223 248.667 101.223L272.667 100.89C272.667 100.89 256.556 86.2231 257.333 78.0009C258.111 69.7787 259.889 49.0009 255 44.7787C250.111 40.5565 242.556 38.3343 236.222 37.8898C229.889 37.4454 225.778 36.6676 223.111 38.5565C220.444 40.4454 215.556 44.4454 214.556 48.112C213.556 51.7787 214.333 55.6676 214.333 55.6676C214.333 55.6676 218.444 45.2231 222.222 43.8898Z" fill="#07172E"/>
<path d="M270.333 280.668C270.333 280.668 276.111 284.779 276.222 289.668C276.333 294.557 276.556 291.001 276.556 291.001L281.222 293.335L286.556 288.446L287.222 283.557L277.556 275.668L270.333 280.668Z" fill="url(#paint1_linear)"/>
<path d="M273.556 312.557C273.556 312.557 270.778 317.002 275.444 318.335C280.111 319.668 284.889 317.002 287 313.224C289.111 309.557 289.556 303.557 292.111 300.002C294.667 296.557 299.222 292.113 298.111 289.557C297 287.002 293 284.446 292.333 284.891C291.667 285.335 283.333 299.002 283.333 299.002L273.556 312.557Z" fill="#07172E"/>
<path d="M274 289.779C274 289.779 275.667 297.445 274.222 302.668C272.889 308.001 270.778 313.112 273.555 314.223C276.333 315.334 281.222 314.89 283 312.334C284.889 309.779 286 301.668 287.667 298.668C289.333 295.668 294.778 289.001 294.778 287.112C294.778 285.223 292.667 281.112 289.444 280.223C286.222 279.334 283 280.223 283 280.223C283 280.223 284.889 285.557 282.778 287.112C280.667 288.779 279.778 286.89 277.667 286.89C275.555 287.001 273.556 286.668 274 289.779Z" fill="#07172E"/>
<path d="M269.556 244.224C269.556 244.224 273 241.446 276.667 242.668C280.333 243.89 286.222 269.779 285.333 271.001C284.444 272.224 278.889 271.89 278.889 271.89L269.556 244.224Z" fill="#07172E"/>
<path d="M258.778 244.557C258.778 244.557 268.667 238.446 272.667 242.446C276.667 246.446 281.889 270.446 280.667 272.335C279.444 274.224 274.555 277.89 270.778 274.224C267.111 270.557 262.444 255.779 262.444 255.779L258.778 244.557Z" fill="#07172E"/>
<path d="M215.889 177.334C215.889 177.334 199.222 212.779 197.667 223.89C196.111 235.001 198.889 248.556 210.889 252.556C222.889 256.556 232.111 257.779 232.111 257.779C232.111 257.779 261.333 281.779 268.778 284.223C268.778 284.223 279.222 280.779 280.444 276.223C280.444 276.223 266 247.001 261.667 242.668C257.333 238.334 252.778 237.779 252.778 237.779C252.778 237.779 263.555 219.334 267.222 207.556C270.889 195.89 271.889 182.556 267.889 176.112C263.889 169.668 256.778 160.445 256.778 160.445L228.111 166.556L215.889 177.334Z" fill="#1B4180"/>
<path opacity="0.13" d="M229.444 190.889C229.444 190.889 224.556 223.556 223.889 234.333C223.222 245.111 223.222 249.111 226.667 251.556C230 254 232.222 257.667 232.222 257.667L218 254.556C218 254.556 214.333 246.667 214.667 238.667C215 230.667 227 192.444 227 192.444C227 192.444 229.444 188.444 229.444 190.889Z" fill="#030B17"/>
<path d="M220.667 171.002C220.667 171.002 239.111 170.891 248.556 168.891C258 166.891 260.222 166.891 261.778 165.224C263.333 163.557 263.778 158.002 263.778 158.002C263.778 158.002 266.111 160.78 269.889 159.669C273.778 158.557 284.667 148.002 286.333 143.446C288 139.002 275.889 116.446 274.333 112.002C272.778 107.557 263.111 96.5574 260.111 95.3352C257.222 94.113 248.889 93.0019 248.889 93.0019C248.889 93.0019 246.111 87.5575 245.333 87.0019C244.556 86.3352 223.889 91.7797 223.889 91.7797L221.778 95.2241C221.778 95.2241 212.889 99.6686 209.444 103.113C206 106.446 192.667 123.002 189.556 128.113C186.444 133.224 179.889 141.224 182.889 148.002C186 154.78 194.333 159.446 194.333 159.446L220.667 171.002Z" fill="#E69716"/>
<path d="M255.556 124.224C255.556 124.224 259.111 133.668 262 136.113C262 136.113 254.889 143.335 254.556 147.224C254.222 151.113 254.556 155.335 254.556 155.335L254.222 160.002L238.667 163.668L224.333 162.89L206.778 148.224C206.778 148.224 208.444 134.557 212.333 124.335C212.333 124.335 213.222 123.446 213.444 124.335C213.556 125.224 213 134.224 216.333 135.779C219.778 137.335 232 138.668 239.111 138.224C246.222 137.779 251.111 132.335 251.556 129.335C252.111 126.224 254.111 121.557 255.556 124.224Z" fill="#A76E10"/>
<path d="M242.667 160.113C242.667 160.113 247.333 140.668 239.889 139.78C232.445 138.891 194.556 138.891 194.556 138.891C194.556 138.891 185.667 140.446 187.445 149.668C189.222 158.891 195.111 178.668 195.111 178.668C195.111 178.668 195.445 181.446 199.778 181.446C204.111 181.446 238.889 181.78 238.889 181.78C238.889 181.78 242.889 180.224 244.445 178.335C246 176.446 254.333 162.002 254.333 162.002L242.667 160.113Z" fill="#A9B9D0"/>
<path d="M255.778 151.445C255.778 151.445 251 154.667 248.889 156.334C246.778 158 244.111 159.667 243.222 161.111C242.333 162.445 240.889 163.889 243.333 165.222C245.778 166.556 246.444 167.111 248.889 166.111C251.333 165.222 255.333 163.667 258.444 162.111C261.556 160.556 264.778 157.222 264.778 157.222C264.778 157.222 265.889 152.778 262.444 151.334C259 150.111 256.555 150.667 255.778 151.445Z" fill="url(#paint2_linear)"/>
<path d="M95.9729 261.179L91.51 263.891L158.846 374.704L163.309 371.992L95.9729 261.179Z" fill="#1B4180"/>
<path d="M183.222 359.777C185.222 362.999 177.222 371.333 165.444 378.555C153.667 385.666 142.556 388.888 140.667 385.666C138.667 382.444 146.667 374.11 158.444 366.888C170.111 359.777 181.222 356.555 183.222 359.777Z" fill="#1B4180"/>
<path d="M179.832 323.468C184.151 294.082 163.83 266.759 134.444 262.441C105.058 258.122 77.7354 278.444 73.4169 307.829C69.0985 337.215 89.4196 364.538 118.805 368.856C148.191 373.175 175.514 352.854 179.832 323.468Z" fill="#5373A1"/>
<path d="M159.556 368.776L156.778 364.332C179.445 350.332 189.333 322.887 181 297.554C171.111 267.554 138.556 251.221 108.556 261.221C104.333 262.665 100.222 264.554 96.4445 266.887L93.6667 262.443C97.7779 259.887 102.222 257.776 106.889 256.332C139.667 245.443 175.111 263.332 186 296.11C195.111 323.554 184.222 353.554 159.556 368.776Z" fill="#1B4180"/>
<path d="M129.889 259.887C129.889 259.887 123.889 268.553 119.556 271.109C115.222 273.776 114.333 274.109 114.667 276.776C115 279.331 113.778 281.887 115 285.665C116.222 289.442 117.889 290.776 120.667 290.776C123.445 290.776 125.667 291.442 127.778 292.331C129.889 293.22 135.111 291.553 136.889 292.109C138.667 292.664 139.778 295.331 141.778 295.776C143.778 296.22 145.333 297.998 146.111 296.22C146.889 294.442 146.667 292.22 146.667 290.22C146.667 288.109 146.111 285.664 148.445 284.331C150.778 282.887 151.889 281.553 153.889 282.776C155.889 283.998 159.556 285.998 158.333 288.442C157.111 290.887 156.222 292.553 156.222 297.442C156.222 302.331 153.889 294.553 150.556 296.553C147.222 298.553 146.778 299.442 144.556 301.553C142.333 303.664 138.333 310.776 141.778 312.109C145.222 313.442 139.445 320.776 144.667 320.998C149.889 321.22 156.778 317.665 159.333 318.442C161.889 319.22 159.889 322.22 165 322.331C170.111 322.442 171.556 323.665 173.889 324.887C176.222 326.22 178.889 329.442 179.556 329.22C180.222 328.998 186.445 306.109 186.445 306.109L178.333 285.553L162.333 267.664L150.111 260.553L129.889 259.887Z" fill="#BFCBDC"/>
<path d="M148.444 336.776C145.778 335.443 138.556 330.998 134.889 330.109C131.222 329.22 129.889 333.332 127.889 330.665C125.778 327.998 124.111 325.998 124.333 324.332C124.556 322.665 125.889 320.443 123.667 316.776C121.333 312.998 120.222 307.887 117.111 305.998C114.111 304.109 107.556 303.554 104.778 303.998C102 304.443 98.1111 306.109 96 306.443C96 306.443 86.7778 307.665 84 310.443C81.2222 313.22 79.4444 314.887 79.4444 318.554C79.4444 322.109 80.3333 331.22 80.2222 332.665C80 334.22 77.5556 336.443 80 338.22C82.4444 339.998 87.8889 340.22 92.4444 340.109C97 339.998 103.889 342.332 107.333 340.443C110.889 338.554 115.667 334.22 117.778 332.776C119.889 331.332 122.111 329.665 122.667 330.665C123.222 331.665 121.889 336.22 118.556 337.998C115.222 339.776 114 340.887 112.444 342.109C110.889 343.332 105.667 344.998 111 346.332C116.333 347.554 122.889 349.554 123.778 350.887C124.667 352.22 121.667 355.109 125.444 355.998C129.222 356.776 130.667 357.554 135.556 357.887C140.333 358.22 142.222 362.887 146.111 363.554C150 364.22 151.333 363.665 153.667 364.22C156 364.776 155.889 365.665 156 362.776C156 362.776 153.778 358.665 155.222 354.332C156.444 349.776 150.111 337.554 148.444 336.776Z" fill="#BFCBDC"/>
<path d="M140.556 370.11C117.778 364.666 101.556 353.666 92.4445 337.444C76.8889 309.777 87.7778 275.888 87.8889 275.555L89.5556 276.11C89.4445 276.444 78.8889 309.555 94 336.555C102.889 352.332 118.667 362.999 140.889 368.332L140.556 370.11Z" fill="white"/>
<path d="M172.667 348.332L170.889 347.998C174.667 326.332 171.222 308.221 160.667 293.998C142.556 269.443 109.111 265.11 108.778 264.998L109 263.221C109.333 263.221 143.444 267.776 162.111 292.887C172.889 307.554 176.444 326.221 172.667 348.332Z" fill="white"/>
<path d="M162 358.666L160.222 358.555C163.667 303.999 102 268.444 101.445 268.11L102.222 266.666C102.889 266.999 165.445 303.11 162 358.666Z" fill="white"/>
<path d="M151.445 366.331C99.6668 344.331 94.5557 271.776 94.4446 270.998L96.2224 270.887C96.2224 271.553 101.333 343.109 152.111 364.664L151.445 366.331Z" fill="white"/>
<path d="M98.1665 267.761L96.6675 268.717L156.711 362.874L158.21 361.918L98.1665 267.761Z" fill="white"/>
<path d="M310 153.889C309 153.889 308.444 150.666 308.333 149.778L304.222 115.444C304.111 114.444 304.889 113.555 305.889 113.444C306.889 113.333 307.778 114.111 307.889 115.111L311.111 152.111C311.222 153.111 310.444 154 309.444 154.111L310 153.889Z" fill="#F2C900"/>
<path d="M309.445 117.222L309.889 153.333C309.889 153.555 309.889 153.666 310 153.888C311.778 157.666 333.889 205.777 334.333 205.777C334.778 205.666 329.222 161.222 328.778 158.333C328.778 158.222 328.778 158.111 328.667 158L311.889 116.666C311.333 115.333 309.333 115.777 309.445 117.222Z" fill="#A9B9D0"/>
<path d="M313 116.554V153.554C313 153.776 313 153.888 313.111 154.11L335.778 201.665C336.222 202.554 337.444 202.665 338 201.776L346.222 188.999C346.444 188.665 346.444 188.221 346.333 187.776L315.556 116.11C315 114.776 313 115.221 313 116.554Z" fill="#D4DCE8"/>
<path d="M320.556 113.333L317 152.778C317 153 317 153.333 317.111 153.556L343.778 203.222C344.333 204.222 345.778 204.111 346.111 203L356.778 173.333C356.889 173 356.889 172.556 356.667 172.222L323 112.889C322.333 111.667 320.667 112 320.556 113.333Z" fill="white"/>
<path d="M329.667 110.999L324.111 152.776C324.111 152.999 324.111 153.221 324.222 153.443L343.778 202.554C344.222 203.665 345.778 203.665 346.222 202.554L358.556 168.221C358.667 167.887 358.667 167.554 358.556 167.221L332.222 110.665C331.556 109.443 329.889 109.776 329.667 110.999Z" fill="#D4DCE8"/>
<path d="M327.111 150.889L334.667 110.889C334.889 109.667 336.667 109.444 337.111 110.667L361 167.333C361.111 167.556 361.111 167.889 361.111 168.222L353.445 196.555C353.111 197.667 351.556 197.889 351.111 196.778L327.333 151.889C327.111 151.444 327 151.111 327.111 150.889Z" fill="#A9B9D0"/>
<path d="M332 148.777L341.444 110.555C341.778 109.333 343.444 109.222 343.889 110.333L364.556 161.999C365.222 163.666 365.333 165.444 364.778 167.111L354.111 203.777L332 148.777Z" fill="#F2C900"/>
<path d="M332 148.666C332 148.666 326.222 152.333 319.667 153.777C316.333 154.444 309.778 153.444 309.778 153.444L332 208.444V208.555C332 208.555 345 216.777 354.222 203.777L332 148.777" fill="#E69716"/>
<path d="M211.556 154.555C211 155.444 210.445 156.11 209.889 156.999C209.222 157.999 208.667 159.221 208.556 160.444C208.333 162.888 210.222 165.221 212.556 165.777C214.889 166.333 217.556 165.333 218.556 162.999C219.667 160.555 219.222 157.555 217 155.999C216.222 155.444 215.111 155.221 214.222 155.444C213.111 155.666 212.333 156.666 212 157.666C211.778 158.444 211.667 159.333 211.667 160.11C211.667 160.999 211.778 161.777 212 162.555C212.333 163.666 213.667 164.444 214.778 164.11C216 163.777 216.667 162.555 216.333 161.333C216.222 160.999 216.222 160.777 216.222 160.444C216.222 160.666 216.222 160.888 216.333 160.999C216.222 160.333 216.222 159.777 216.333 159.11C216.333 159.333 216.333 159.555 216.222 159.666C216.222 159.333 216.333 158.999 216.445 158.666C216.556 158.444 216.445 158.555 216.445 158.666C216.445 158.777 216.333 158.999 216.222 159.11C215.889 159.333 215.778 159.444 216 159.333C215.556 159.444 215.556 159.555 215.778 159.444C215.556 159.444 215.333 159.444 215.222 159.555C215.333 159.555 215.445 159.555 215.556 159.555C215.333 159.555 215.111 159.555 215 159.444C215.222 159.444 215.445 159.666 215 159.333C215.111 159.333 215.222 159.444 215.222 159.444C214.889 159.221 214.889 159.11 215 159.333L215.111 159.444C215.222 159.555 214.778 158.888 215 159.333C215 159.444 215.111 159.444 215.111 159.555C215.333 159.999 215 159.11 215.111 159.444C215.222 159.666 215.222 159.888 215.222 160.11C215.222 159.888 215.222 159.666 215.111 159.555C215.111 159.888 215.111 160.221 215.111 160.555C215.111 160.333 215.111 160.11 215.222 159.999C215.222 160.11 215.222 160.333 215.111 160.444C215 160.666 214.778 161.11 215.111 160.444C215 160.555 215 160.666 214.889 160.777L214.778 160.999C214.778 160.999 215.222 160.555 214.889 160.777C214.778 160.888 214.667 160.999 214.556 161.11C214.889 160.666 214.889 160.888 214.778 160.999C214.667 160.999 214.667 161.11 214.556 161.11C214.445 161.11 214.222 161.333 214.556 161.11C214.889 160.999 214.667 161.11 214.556 161.11C214.445 161.11 214.222 161.221 214.111 161.221C214.333 161.221 214.556 161.221 214.667 161.11C214.445 161.11 214.111 161.11 213.889 161.11C214.111 161.11 214.333 161.11 214.445 161.221C214.333 161.221 214.111 161.221 214 161.11C213.889 161.11 213.889 161.11 213.778 160.999C213.556 160.888 213.445 160.777 214 161.11C213.889 160.999 213.778 160.999 213.667 160.888L213.445 160.777C213.445 160.777 213.889 161.221 213.667 160.888C213.556 160.777 213.445 160.666 213.333 160.555C213.111 160.333 213.556 160.888 213.445 160.777C213.445 160.666 213.333 160.666 213.333 160.555C213.333 160.444 213.222 160.444 213.222 160.333C213.111 160.221 213.445 160.888 213.333 160.555C213.333 160.444 213.222 160.221 213.222 160.11C213.222 160.333 213.222 160.555 213.333 160.666C213.333 160.444 213.333 160.11 213.333 159.888C213.333 160.11 213.333 160.333 213.222 160.444C213.222 160.221 213.333 159.999 213.333 159.777C213.333 159.666 213.445 159.555 213.445 159.444C213.222 160.11 213.333 159.777 213.445 159.555C213.667 159.11 213.889 158.777 214.111 158.444C214.667 157.666 215.222 156.999 215.667 156.221C216.222 155.221 215.889 153.777 214.889 153.221C213.556 153.11 212.222 153.444 211.556 154.555Z" fill="white"/>
<path d="M272.667 275.556C272.556 275.556 272.445 275.445 272.333 275.334C271.556 274.223 270.667 273 269.667 271.889C269.556 271.667 269.556 271.445 269.778 271.334C270 271.223 270.222 271.223 270.333 271.445C271.333 272.667 272.222 273.889 273 275C273.111 275.223 273.111 275.445 272.889 275.556C272.778 275.556 272.667 275.556 272.667 275.556ZM267.222 268.667C267.111 268.667 267 268.667 266.889 268.556C266 267.445 265 266.334 264 265.223C263.889 265 263.889 264.778 264 264.667C264.222 264.556 264.445 264.556 264.556 264.667C265.556 265.778 266.556 266.889 267.445 268C267.556 268.223 267.556 268.445 267.445 268.556C267.445 268.556 267.333 268.667 267.222 268.667ZM261.333 262C261.222 262 261.111 262 261 261.889C260 260.778 259 259.778 258 258.667C257.889 258.556 257.889 258.223 258 258.112C258.222 258 258.445 258 258.556 258.112C259.556 259.112 260.556 260.223 261.556 261.334C261.667 261.556 261.667 261.778 261.556 261.889C261.556 262 261.445 262 261.333 262ZM255.333 255.667C255.222 255.667 255.111 255.667 255 255.556C253.889 254.445 252.889 253.445 251.889 252.445C251.778 252.334 251.667 252 251.889 251.889C252 251.778 252.333 251.667 252.445 251.889C253.445 252.889 254.556 253.889 255.556 255C255.667 255.112 255.667 255.445 255.556 255.556C255.556 255.667 255.445 255.667 255.333 255.667ZM249 249.556C248.889 249.556 248.778 249.556 248.667 249.445C247.445 248.334 246.333 247.334 245.445 246.445C245.222 246.334 245.222 246 245.445 245.889C245.556 245.667 245.889 245.667 246 245.889C246.889 246.667 248 247.667 249.222 248.889C249.445 249 249.445 249.334 249.222 249.445C249.222 249.556 249.111 249.556 249 249.556ZM242.333 243.778C242.222 243.778 242.111 243.667 242 243.556C241.778 243.223 241.667 242.778 241.667 242C241.667 241.223 241.778 240.223 242.111 238.889C242.111 238.667 242.333 238.556 242.556 238.556C242.778 238.556 242.889 238.778 242.889 239C242.667 240.223 242.445 241.223 242.445 242C242.445 242.667 242.556 243 242.667 243C242.778 243.223 242.778 243.445 242.556 243.556C242.445 243.778 242.445 243.778 242.333 243.778ZM243.556 235.223H243.445C243.222 235.112 243.111 234.889 243.111 234.667C243.445 233.445 243.889 232 244.445 230.445C244.556 230.223 244.778 230.112 245 230.223C245.222 230.334 245.333 230.556 245.222 230.778C244.667 232.334 244.222 233.667 243.889 235C243.889 235.112 243.778 235.223 243.556 235.223ZM246.333 226.889H246.222C246 226.778 245.889 226.556 246 226.334C246.445 225 247 223.667 247.556 222.223C247.667 222 247.889 221.889 248.111 222C248.333 222.112 248.445 222.334 248.333 222.556C247.778 224 247.333 225.334 246.778 226.667C246.667 226.778 246.556 226.889 246.333 226.889ZM249.556 218.667H249.445C249.222 218.556 249.111 218.334 249.222 218.112C249.778 216.778 250.333 215.445 250.889 214C251 213.778 251.222 213.667 251.445 213.778C251.667 213.889 251.778 214.112 251.667 214.334C251.111 215.667 250.556 217.112 250 218.445C249.889 218.556 249.667 218.667 249.556 218.667ZM252.889 210.556H252.778C252.556 210.445 252.445 210.223 252.556 210C253.111 208.667 253.667 207.334 254.333 206C254.445 205.778 254.667 205.667 254.889 205.778C255.111 205.889 255.222 206.112 255.111 206.334C254.556 207.667 253.889 209 253.333 210.334C253.222 210.445 253 210.556 252.889 210.556ZM256.445 202.556C256.333 202.556 256.333 202.556 256.222 202.556C256 202.445 255.889 202.223 256 202C256.333 201.334 256.556 200.667 256.889 200C257.222 199.334 257.445 198.667 257.778 198C257.889 197.778 258.111 197.667 258.333 197.778C258.556 197.889 258.667 198.112 258.556 198.334C258.333 199 258 199.778 257.667 200.445C257.333 201.112 257.111 201.778 256.778 202.445C256.778 202.445 256.556 202.556 256.445 202.556ZM259.445 194.334C259.111 194.223 259 194 259 193.778C259.333 192.334 259.556 191 259.778 189.556C259.778 189.334 260 189.112 260.222 189.223C260.445 189.223 260.667 189.445 260.556 189.667C260.445 191.112 260.111 192.667 259.778 194C259.889 194.112 259.667 194.334 259.445 194.334ZM260.445 185.556C260.222 185.556 260 185.334 260 185.112C260 183.667 259.889 182.223 259.667 180.778C259.667 180.556 259.778 180.334 260 180.334C260.222 180.334 260.445 180.445 260.445 180.667C260.667 182.112 260.778 183.667 260.778 185.112C260.889 185.334 260.667 185.556 260.445 185.556ZM259.222 176.889C259 176.889 258.889 176.778 258.778 176.556C258.445 175.112 258 173.778 257.445 172.445C257.333 172.223 257.445 172 257.667 171.889C257.889 171.778 258.111 171.889 258.222 172.112C258.778 173.445 259.222 174.889 259.556 176.334C259.667 176.556 259.556 176.778 259.222 176.889C259.333 176.889 259.222 176.889 259.222 176.889Z" fill="white"/>
<path d="M267.667 284.111C267.667 284.111 272.111 283.111 276 280.111C279.778 277.111 280.222 274.444 281.222 275C282.222 275.555 283.556 277 281.889 278.888C280.222 280.777 274.778 284.555 271.778 285.333C268.667 286.111 268 285.777 267.667 284.111Z" fill="#07172E"/>
<defs>
<linearGradient id="paint0_linear" x1="218.889" y1="55.0005" x2="273.801" y2="122.741" gradientUnits="userSpaceOnUse">
<stop stop-color="#F8E3BF"/>
<stop offset="0.585011" stop-color="#E69716"/>
</linearGradient>
<linearGradient id="paint1_linear" x1="268.395" y1="274.646" x2="284.871" y2="291.122" gradientUnits="userSpaceOnUse">
<stop stop-color="#F8E3BF"/>
<stop offset="1" stop-color="#E69716"/>
</linearGradient>
<linearGradient id="paint2_linear" x1="213.236" y1="173.082" x2="291.198" y2="144.546" gradientUnits="userSpaceOnUse">
<stop stop-color="#F8E3BF"/>
<stop offset="1" stop-color="#E69716"/>
</linearGradient>
</defs>
</svg>
