<svg width="400" height="400" viewBox="0 0 400 400" fill="none" xmlns="http://www.w3.org/2000/svg">
<path d="M95.5556 97.444C122.889 102.666 138.556 92.8885 164.556 83.1107C190.556 73.3329 215.556 60.444 242.333 52.9996C269.111 45.5551 299 44.1107 323.889 56.5551C346.333 67.7773 362.444 89.444 371.111 113C379.778 136.555 381.778 162.111 381.556 187.222C381.222 231.666 373.889 277.555 349.889 315C321.556 359.111 271 387.333 218.778 391.333C166.556 395.333 113.444 376 73.8889 341.555C60.1111 329.555 47.7778 315.666 38.8889 299.666C17.4445 261.111 16.6667 223.777 19.5556 179.777C20.3334 166.888 22.7778 144.444 27 132.222C31.2223 120 38.7778 108.444 50.1111 102.222C63.6667 94.8885 80.1111 96.1107 95.5556 97.444Z" fill="#EAEEF3"/>
<path d="M65.1111 51.778L184.222 51.4447L153.889 45.2225C153.889 45.2225 155.111 11.1114 140.222 17.8891C125.333 24.6669 124.667 39.5558 124.667 39.5558C124.667 39.5558 119.111 25.8891 111 30.8891C102.889 35.8891 99.2222 44.5558 99.2222 44.5558C99.2222 44.5558 96.3333 34.778 91.1111 34.2225C86.6666 33.778 78.3333 43.1114 73.8889 48.3336L65.1111 51.778Z" fill="#A9B9D0"/>
<path d="M278.333 279.666H252.555C252 279.666 251.444 279.222 251.444 278.555V270C251.444 269.444 251.889 268.889 252.555 268.889H278.333C278.889 268.889 279.444 269.333 279.444 270V278.555C279.333 279.111 278.889 279.666 278.333 279.666Z" fill="#BFCBDC"/>
<path d="M323.889 259.111H321.556V307.778H323.889V259.111Z" fill="#BFCBDC"/>
<path d="M324.444 245H247.333V249H324.444V245Z" fill="#BFCBDC"/>
<path d="M302.667 263.556C302.667 263.556 304.111 265.889 306.889 265.889C309.667 265.889 310.667 263.667 310.667 263.667C310.667 263.667 312 265.667 313.778 265.778C315.556 265.889 316.889 263.445 316.889 263.445C316.889 263.445 318.222 265.889 320.556 265.778C322.889 265.667 324 263 324 263C324 263 324.778 265.445 327.333 265.445C329.889 265.445 330.444 263.445 330.444 263.445C330.444 263.445 331.333 265.445 335 265.334C338.778 265.223 338.222 263.334 338.222 263.334L324.222 247.667H248.111L231.111 263.667C231.111 263.667 232.556 266 235.333 266C238.111 266 239.111 263.778 239.111 263.778C239.111 263.778 240.444 265.778 242.222 265.889C244 266 245.333 263.556 245.333 263.556C245.333 263.556 246.667 266 249 265.889C251.333 265.778 252.444 263.111 252.444 263.111C252.444 263.111 253.222 265.556 255.778 265.556C258.333 265.556 258.889 263.556 258.889 263.556C258.889 263.556 259.778 265.556 263.444 265.445C267.222 265.334 266.667 263.445 266.667 263.445L266.778 263.556C266.778 263.556 268.222 265.889 271 265.889C273.778 265.889 274.778 263.667 274.778 263.667C274.778 263.667 276.111 265.667 277.889 265.778C279.667 265.889 281 263.445 281 263.445C281 263.445 282.333 265.889 284.667 265.778C287 265.667 288.111 263 288.111 263C288.111 263 288.889 265.445 291.444 265.445C294 265.445 294.556 263.445 294.556 263.445C294.556 263.445 295.444 265.445 299.111 265.334C302.889 265.223 302.333 263.334 302.333 263.334" fill="#BFCBDC"/>
<path d="M240.778 305.444V297.889H331.555C331.555 297.889 334.778 306.333 329.222 306.333C323.555 306.333 240.222 304.889 240.778 305.444Z" fill="#BFCBDC"/>
<path d="M327 303.444H243.111V340.555H327V303.444Z" fill="#BFCBDC"/>
<path d="M249 264.111H246.667V302.222H249V264.111Z" fill="#BFCBDC"/>
<path d="M253.889 262.777H253.444V269.444H253.889V262.777Z" fill="#BFCBDC"/>
<path d="M277 262.777H276.556V269.444H277V262.777Z" fill="#BFCBDC"/>
<path d="M303.667 286.444C302.778 285.333 302.222 283.888 300.333 283.222C298.555 282.666 296.444 282.444 296.222 282.444C296 282.111 295.778 281.666 295.778 281.222C295.778 280.888 295.889 280.444 296 280C298 279.333 299 277.111 299.222 275.444C299.444 274.555 300.111 272 299.556 269.888C299.444 269.333 298.333 268.666 297.222 268.666C296.111 268.555 293.555 268.666 293.222 267.777C292.889 266.888 292.667 267 292.667 267C292.667 267 292.333 268 291.778 268.333C291.222 268.666 287.333 268.555 288.889 274.777C289.111 275.555 289.333 276.555 289.333 276.555C289.333 276.555 289.333 276.555 289.333 276.444C289.778 278.111 290.667 279.333 292.222 280C292.222 280.222 292.333 280.555 292.333 280.777C292.333 281.333 292.222 282 292 282.444C291.222 282.444 286 282.777 285.444 284.666C285.222 285.555 283.778 289.333 283.222 290.666C283.444 290.888 284 291.333 284 291.333L284.222 298.222L293.778 298.111H304L304.222 290.777C304.222 290.777 304.778 290.333 305 290C304.778 288.555 304.222 287.111 303.667 286.444Z" fill="#BFCBDC"/>
<path d="M114.445 291.889C117 287 120.333 282.334 122 277.111C123.556 271.778 123 265.334 118.889 261.667C118.222 261.111 117.445 260.556 116.667 260.334C114.445 259.556 110.445 260.889 108.667 262.778C106.445 265.111 105.333 268.445 104.333 270.667C104.222 270.889 104.111 271.222 104 271.445C103.445 272.889 103.111 274.445 103 276.111C102.889 277.889 103.111 279.778 102.333 281.334C101.556 282.889 99.1112 283.778 98.0001 282.334C97.5556 281.778 97.4445 281.111 97.4445 280.334C96.6667 271 98.2223 261.556 98.889 252.222C99.5556 242.889 98.889 233 94.1112 224.889C92.3334 221.778 89.5556 218.889 86.0001 218.556C83.2223 218.334 80.5556 219.778 78.7778 221.889C77.0001 224 76.2223 226.778 76.1112 229.556C75.6667 235.222 77.7778 240.889 80.5556 245.889C83.3334 250.889 86.889 255.445 89.7778 260.334C90.5556 261.778 91.4445 263.222 91.5556 264.778C91.7778 266.445 91.2223 268.222 89.889 269.111C88.889 269.778 87.6667 269.889 86.4445 269.667C82.7778 269.222 79.6667 266.889 76.3334 265.222C71.6667 262.889 66.0001 262 61.2223 264C56.4445 266 52.889 271.445 54.1112 276.445C55.4445 281.889 61.4445 285.111 67.0001 285.778C72.6667 286.445 78.3334 285.445 83.889 286.111C87.2223 286.556 91.1112 288.111 91.889 291.445C92.5556 294.556 90.1112 297.556 87.1112 298.667C84.1112 299.778 80.889 299.334 77.7778 298.889C74.6667 298.445 71.4445 297.889 68.4445 298.889C65.3334 299.889 62.889 302.445 61.889 305.445C60.889 308.556 61.5556 312 63.5556 314.556C66.7778 318.778 72.889 319.778 78.2223 319.445C83.5556 319.111 89.0001 317.778 94.3334 318.667C95.5556 318.889 96.7778 319.222 97.6667 320C100.445 322.334 99.3334 326.667 99.2223 330.222C99.2223 334.778 101.445 339.334 105.222 341.889C108.889 344.556 113.889 345.222 118.222 343.778L120.111 344.111C123.111 343.667 125.111 340.556 125 337.556C125 334.556 123.333 331.889 121.333 329.556C119.333 327.334 117 325.445 115.111 323.111C112.222 319.667 110.333 315.445 109.889 311C109.445 307.222 110 303.667 110.889 300C112 297.222 113.111 294.445 114.445 291.889Z" fill="#BFCBDC"/>
<path d="M331.333 338.556C194.667 322.445 106.889 336.778 76.2222 343.556C115.444 376.778 167.555 395.334 218.778 391.445C261 388.112 302.111 369 331.333 338.556Z" fill="#BFCBDC"/>
<path d="M110.111 347.778C123.111 344 133.556 344.667 173 344.444C212.445 344.111 240.667 343 255.778 347C270.889 350.889 258.333 355.667 250.222 357.333C242.111 359 244.889 369.889 224.222 369.667C203.556 369.333 138.889 371.333 128 369.333C117.111 367.333 124.667 360.333 117.333 358.111C110 355.889 102.222 350 110.111 347.778Z" fill="#7E96B9"/>
<path d="M75.5306 65.2247L170.266 233.419C170.266 233.419 219.559 260.542 233.731 245.13C247.902 229.719 262.599 191.535 262.599 191.535L340.21 54.7012C340.21 54.7012 175.754 -50.0835 75.5306 65.2247Z" fill="url(#paint0_radial)"/>
<path d="M107.778 122.666C111.111 119.889 114.555 117.555 118.444 115.555C119.444 115.111 118.778 113.444 117.889 114C113.889 116 110.222 118.444 106.889 121.333C106 122 107 123.333 107.778 122.666Z" fill="white"/>
<path d="M126.222 111.111C125 111.778 124.111 112.889 123.667 114.222C123.333 115.222 124.778 116 125.222 114.889C125.667 113.889 126.333 113 127.333 112.445C128.111 111.889 127.222 110.556 126.222 111.111Z" fill="white"/>
<path d="M123.111 123.111C121.555 125.778 121 128.889 121.444 132C121.667 133.111 123.333 132.889 123.111 131.889C122.667 129 123.111 126.333 124.555 123.778C125.222 122.889 123.667 122.222 123.111 123.111Z" fill="white"/>
<path d="M114.555 126.333C113.333 128.555 112.778 131.111 113 133.666C113.111 134.777 114.778 134.555 114.667 133.555C114.444 131.222 114.889 129.111 116.111 127.111C116.667 126 115.111 125.333 114.555 126.333Z" fill="white"/>
<path d="M101 126.889C98.4445 129.445 95.7778 132 93.2222 134.556C92.4445 135.334 93.7778 136.334 94.5556 135.667C97.1111 133.112 99.7778 130.556 102.333 128C103.111 127.223 101.778 126.112 101 126.889Z" fill="white"/>
<path d="M106.555 113.778C101.889 114.556 97.8888 117 95.2221 121C94.6666 121.889 95.8888 123 96.5555 122.111C98.9999 118.556 102.444 116.222 106.778 115.556C107.778 115.333 107.667 113.667 106.555 113.778Z" fill="white"/>
<path d="M96.4444 101.556C92.5555 100.223 88.5555 100.111 84.6666 101.334C83.6666 101.667 84.2221 103.223 85.2221 102.889C88.6666 101.889 92.2221 101.889 95.6666 103C96.7777 103.445 97.4444 101.889 96.4444 101.556Z" fill="white"/>
<path d="M102.889 95.4444C99.3333 92.7777 95.7778 90.1111 92.2222 87.4444C91.3333 86.7777 90.3333 88.1111 91.1111 88.7777C94.6666 91.4444 98.2222 94.1111 101.778 96.7777C102.667 97.4444 103.778 96.1111 102.889 95.4444Z" fill="white"/>
<path d="M99.7776 79.4443C101 81.8887 102.222 84.2221 103.555 86.6665C104 87.6665 105.667 86.9999 105.111 86.111C103.889 83.6665 102.667 81.3332 101.333 78.8887C100.889 77.8887 99.2221 78.4443 99.7776 79.4443Z" fill="white"/>
<path d="M117.444 87.9995C116.444 84.7773 117 81.3329 118.889 78.5551C119.444 77.6662 118.222 76.5551 117.556 77.444C115.333 80.7773 114.667 84.7773 115.889 88.5551C116.111 89.6662 117.667 88.9995 117.444 87.9995Z" fill="white"/>
<path d="M133.222 86.778C134.555 84.5557 136.111 82.5557 138 80.8891C138.778 80.1113 137.778 78.778 137 79.5557C134.889 81.5557 133.111 83.6669 131.667 86.1113C131.111 87.0002 132.667 87.778 133.222 86.778Z" fill="white"/>
<path d="M140.222 97.1111C144.444 93.7778 147.889 89.6667 150.444 84.8889C151 83.8889 149.444 83.2222 148.889 84.2222C146.444 88.7778 143.222 92.6666 139.222 95.7778C138.444 96.4444 139.444 97.7778 140.222 97.1111Z" fill="white"/>
<path d="M147.111 109.556C150.333 109.111 153.333 109.778 156.222 111.334C157.222 111.889 157.889 110.334 156.889 109.778C153.889 108.111 150.444 107.445 147 107.889C145.889 108.111 146 109.778 147.111 109.556Z" fill="white"/>
<path d="M149.778 118C153.667 118.777 156.667 121.666 157.778 125.444C158.111 126.444 159.667 125.888 159.333 124.888C158.111 120.444 154.556 117.222 150.111 116.333C149 116.111 148.778 117.777 149.778 118Z" fill="white"/>
<path d="M134.889 116.889C138 119.111 140.333 122 141.889 125.556C142.333 126.556 143.889 126 143.444 125C141.778 121.223 139.333 118.111 136 115.556C135.111 115 134 116.223 134.889 116.889Z" fill="white"/>
<path d="M134.333 132.667C135.222 134.889 136.667 136.778 138.667 138.112C139.555 138.667 140.667 137.445 139.778 136.778C138 135.667 136.667 134.112 136 132.112C135.555 131 133.889 131.667 134.333 132.667Z" fill="white"/>
<path d="M147.222 133C149.555 136.555 150.667 140.666 150.444 144.889C150.333 146 152 146.222 152.111 145.222C152.333 140.444 151.222 136 148.555 132C148 131.111 146.667 132.111 147.222 133Z" fill="white"/>
<path d="M123 137.111C122.222 141.667 122.778 146.222 124.555 150.444C125 151.444 126.555 150.889 126.111 149.889C124.444 145.889 123.889 141.667 124.555 137.333C124.889 136.333 123.222 136 123 137.111Z" fill="white"/>
<path d="M117.889 101.111C116.333 99.4447 114.667 97.7781 113.111 96.1114C112.333 95.3336 111.333 96.667 112 97.4447C113.556 99.1114 115.222 100.778 116.778 102.445C117.556 103.223 118.667 101.889 117.889 101.111Z" fill="white"/>
<path d="M124.111 101.445C124.333 99.3335 125.222 97.4447 126.667 95.8891C127.444 95.1113 126.111 94.0002 125.333 94.778C123.667 96.5558 122.667 98.778 122.444 101.111C122.333 102.334 124 102.556 124.111 101.445Z" fill="white"/>
<path d="M132.778 106.222C135 105.555 137.333 105.222 139.667 105.333C140.778 105.333 140.556 103.666 139.555 103.666C137 103.555 134.667 103.889 132.222 104.666C131.111 104.889 131.778 106.555 132.778 106.222Z" fill="white"/>
<path d="M92.6666 111.778C90.8888 113.889 89.1111 116.111 87.4444 118.222C86.7777 119.111 88.1111 120.111 88.7777 119.334C90.5555 117.222 92.3333 115 93.9999 112.889C94.6666 112 93.3333 110.889 92.6666 111.778Z" fill="white"/>
<path d="M128.222 76.8889C129.778 75.6666 131.333 74.3333 132.889 73.1111C133.778 72.4444 132.778 71 131.889 71.7777C130.333 73 128.778 74.3333 127.222 75.5555C126.333 76.2222 127.333 77.6666 128.222 76.8889Z" fill="white"/>
<path d="M129.444 139.222C137.111 150.445 144.889 161.556 152.555 172.778C153.222 173.667 154.555 172.667 153.889 171.778C146.222 160.556 138.444 149.445 130.778 138.222C130.222 137.333 128.889 138.333 129.444 139.222Z" fill="white"/>
<path d="M147.667 150.889C150.667 156.889 153.778 162.889 156.778 168.889C157.222 169.889 158.889 169.222 158.333 168.333C155.333 162.333 152.222 156.333 149.222 150.333C148.778 149.333 147.111 149.889 147.667 150.889Z" fill="white"/>
<path d="M163.444 175.667C165.444 179.889 167.333 184 169.333 188.222C169.778 189.222 171.333 188.667 170.889 187.667C168.889 183.445 167 179.334 165 175.111C164.555 174.111 163 174.667 163.444 175.667Z" fill="white"/>
<path d="M339.444 120.222C336.889 117.111 334 114.333 330.778 111.889C330 111.222 330.778 109.889 331.556 110.556C334.889 113.111 337.889 115.889 340.556 119.111C341.222 119.889 340 121 339.444 120.222Z" fill="white"/>
<path d="M324.222 106.445C325.222 107.334 325.889 108.445 326.111 109.778C326.333 110.778 324.778 111.222 324.556 110.222C324.333 109.222 323.889 108.334 323 107.667C322.333 106.889 323.444 105.778 324.222 106.445Z" fill="white"/>
<path d="M325.111 118.111C326.111 120.888 326.111 123.888 325.111 126.666C324.778 127.666 323.222 127.222 323.556 126.222C324.444 123.666 324.444 120.999 323.556 118.555C323.222 117.444 324.778 117.111 325.111 118.111Z" fill="white"/>
<path d="M332.556 122.445C333.333 124.778 333.444 127.111 332.778 129.445C332.556 130.445 331 130 331.222 129C331.778 126.889 331.667 124.778 331 122.778C330.667 121.889 332.222 121.445 332.556 122.445Z" fill="white"/>
<path d="M345 125.222C347 128 349 130.778 350.889 133.556C351.444 134.444 350.111 135.111 349.445 134.333C347.445 131.556 345.445 128.778 343.556 126C343 125.111 344.444 124.444 345 125.222Z" fill="white"/>
<path d="M342 112.222C346.222 113.667 349.444 116.667 351.333 120.778C351.778 121.667 350.333 122.445 349.889 121.556C348.222 117.889 345.333 115.111 341.556 113.778C340.667 113.333 341 111.889 342 112.222Z" fill="white"/>
<path d="M353.444 102.444C357.222 101.888 360.889 102.444 364.333 104.222C365.222 104.666 364.444 106.111 363.556 105.555C360.556 103.999 357.222 103.444 353.889 103.999C352.778 104.111 352.444 102.555 353.444 102.444Z" fill="white"/>
<path d="M348.445 95.7773C352.222 93.8884 355.889 91.9995 359.667 90.1106C360.556 89.6662 361.333 90.9995 360.444 91.5551C356.667 93.444 353 95.3329 349.222 97.2217C348.333 97.6662 347.556 96.2217 348.445 95.7773Z" fill="white"/>
<path d="M354 81.4447C352.445 83.4447 350.889 85.4447 349.333 87.4447C348.667 88.2224 347.333 87.4447 348 86.6669C349.556 84.6669 351.111 82.6669 352.667 80.6669C353.222 79.8891 354.667 80.6669 354 81.4447Z" fill="white"/>
<path d="M336.222 86.4447C337.667 83.5558 337.778 80.3336 336.444 77.4447C336 76.5558 337.444 75.7781 337.889 76.6669C339.444 80.1114 339.333 83.8892 337.667 87.2225C337.111 88.2225 335.778 87.3336 336.222 86.4447Z" fill="white"/>
<path d="M321.778 82.7781C320.889 80.5559 319.778 78.4448 318.333 76.4448C317.778 75.667 318.889 74.5559 319.445 75.3337C321.111 77.4448 322.333 79.7781 323.333 82.3337C323.667 83.3337 322.111 83.667 321.778 82.7781Z" fill="white"/>
<path d="M313.556 91.1114C310.111 87.3336 307.667 82.8891 306.111 78.1114C305.778 77.1114 307.333 76.778 307.667 77.6669C309.111 82.3336 311.556 86.4447 314.778 90.0003C315.333 90.778 314.222 91.8891 313.556 91.1114Z" fill="white"/>
<path d="M305.111 101.555C302.222 100.666 299.222 100.666 296.444 101.666C295.444 101.999 295.111 100.444 296 100.111C299.111 99.1106 302.333 98.9995 305.556 99.9995C306.556 100.333 306.111 101.888 305.111 101.555Z" fill="white"/>
<path d="M301.222 108.889C297.444 109 294.222 111.111 292.556 114.444C292.111 115.333 290.778 114.555 291.222 113.666C293.111 109.777 296.889 107.333 301.222 107.333C302.333 107.333 302.333 108.889 301.222 108.889Z" fill="white"/>
<path d="M315.333 110.333C312.111 111.889 309.444 114.222 307.444 117.222C306.889 118.111 305.556 117.222 306.111 116.444C308.222 113.222 311.111 110.666 314.556 109C315.444 108.555 316.222 109.889 315.333 110.333Z" fill="white"/>
<path d="M313.222 125C312.111 126.889 310.333 128.445 308.333 129.334C307.445 129.778 306.667 128.334 307.556 127.889C309.444 127.111 310.889 125.889 311.889 124.223C312.333 123.334 313.667 124.223 313.222 125Z" fill="white"/>
<path d="M301.111 123.222C298.333 126.111 296.667 129.666 296.111 133.777C296 134.777 294.444 134.777 294.556 133.777C295.111 129.333 296.889 125.444 300 122.111C300.778 121.333 301.778 122.555 301.111 123.222Z" fill="white"/>
<path d="M322.889 131C322.778 135.333 321.556 139.444 319.222 143.111C318.667 144 317.333 143.111 317.889 142.333C320.111 138.889 321.333 135.111 321.333 131C321.333 130 322.889 130 322.889 131Z" fill="white"/>
<path d="M333.667 98.5555C335.444 97.3333 337.222 95.9999 338.889 94.7777C339.667 94.2222 340.445 95.5555 339.667 96.2222C337.889 97.4444 336.111 98.7777 334.444 99.9999C333.556 100.555 332.778 99.111 333.667 98.5555Z" fill="white"/>
<path d="M327.778 97.8889C327.889 95.8889 327.444 94.0001 326.333 92.3334C325.778 91.4445 327.111 90.6667 327.778 91.5556C329 93.4445 329.556 95.6667 329.444 97.8889C329.333 98.8889 327.667 98.8889 327.778 97.8889Z" fill="white"/>
<path d="M319 100.778C317 99.778 315 99.1114 312.778 98.778C311.778 98.6669 312.222 97.1114 313.222 97.2225C315.556 97.5558 317.778 98.3336 319.889 99.3336C320.667 99.8891 319.889 101.222 319 100.778Z" fill="white"/>
<path d="M355.222 112.556C356.444 114.889 357.778 117.111 359 119.444C359.444 120.333 358.111 121.111 357.556 120.222C356.333 117.889 355 115.667 353.778 113.333C353.333 112.444 354.778 111.667 355.222 112.556Z" fill="white"/>
<path d="M328.111 74.4443C326.889 72.9999 325.667 71.5554 324.444 70.2221C323.778 69.4443 324.889 68.3332 325.556 69.111C326.778 70.5554 328 71.9999 329.222 73.3332C329.889 74.111 328.778 75.2221 328.111 74.4443Z" fill="white"/>
<path d="M307.444 136.111C292.444 152 278.111 168.333 264.333 185.111C263.667 185.889 262.556 184.777 263.222 184C277 167.111 291.444 150.777 306.333 135C307.111 134.222 308.222 135.333 307.444 136.111Z" fill="white"/>
<path d="M316.556 131.889C307.556 141 298.556 150 289.556 159.111C288.889 159.889 287.778 158.667 288.444 158C297.444 148.889 306.444 139.889 315.444 130.778C316.222 130 317.333 131.222 316.556 131.889Z" fill="white"/>
<path d="M297.778 139.666C294 144.666 290.222 149.777 286.333 154.777C285.778 155.555 284.333 154.777 285 154C288.778 149 292.556 143.889 296.445 138.889C297.111 138.111 298.445 138.889 297.778 139.666Z" fill="white"/>
<path d="M279.111 159.999C276.556 163.555 274.111 167.111 271.556 170.666C271 171.444 269.556 170.666 270.222 169.888C272.778 166.333 275.222 162.777 277.778 159.222C278.333 158.333 279.667 159.222 279.111 159.999Z" fill="white"/>
<path d="M269.111 183.556C264.667 188.556 260.222 193.445 255.667 198.445C255 199.223 253.889 198.111 254.556 197.334C259 192.334 263.445 187.445 268 182.445C268.667 181.667 269.778 182.889 269.111 183.556Z" fill="white"/>
<path d="M254.778 195.445C253.889 196.445 253 197.445 252.111 198.445C251.444 199.223 250.333 198.111 251 197.334C251.889 196.334 252.778 195.334 253.667 194.334C254.333 193.556 255.444 194.667 254.778 195.445Z" fill="white"/>
<path d="M263 42.2227C263 42.2227 264.556 42.2227 265.333 42.2227C266.111 42.2227 267.444 42.2227 267.556 47.6671C267.667 53.1115 267.667 51.8893 267.778 54.7782C267.889 57.6671 268.333 59.8893 266.444 60.6671C264.556 61.3338 264.556 61.3338 264.556 61.3338L263 42.2227Z" fill="#133F7E"/>
<path d="M264.667 65.333C264.667 65.333 266.222 65.333 267 65.333C267.778 65.333 269.111 65.333 269.222 70.7775C269.333 76.2219 270 88.7775 270.111 91.6663C270.222 94.5552 270.667 96.7775 268.778 97.5552C266.889 98.2219 266.889 98.2219 266.889 98.2219L264.667 65.333Z" fill="#133F7E"/>
<path d="M258.778 196.334L183.778 200.778C175.556 201.222 168.556 195 168 186.778L159.111 37.778C158.778 32.2225 162.667 27.3336 168.222 26.3336C194.667 22.0003 221.445 20.2225 248.333 21.2225L253.333 21.4447C259 21.6669 263.556 26.1114 263.889 31.6669L272.778 180.556C273.222 188.889 267 195.889 258.778 196.334Z" fill="#BFCBDC"/>
<path d="M167.556 177.777L168.111 186.888C168.556 195.111 175.667 201.333 183.889 200.888L194.333 200.222C190.222 190.111 176 181.888 167.556 177.777Z" fill="#7E96B9"/>
<path d="M184.444 32.7776C181 33.5554 176.444 34.1109 173.444 34.6665C170.444 35.3331 168.333 37.1109 168.667 44.7776C169 52.4442 174.778 179.555 175.556 184.778C176.333 190 179.778 193.666 191.889 193.444C204 193.333 249.444 188.444 257.667 187.333C265.778 186.333 265 179.889 263.889 165.889C262.778 151.889 256 47.6665 255.556 39.8887C255.111 32.1109 253.333 28.6665 247.889 28.5554C242.444 28.4442 237.556 28.8887 235.333 29.3331C233.111 29.7776 234.111 37.8887 229 38.8887C223.889 39.8887 201 42.1109 195.667 42.4442C190.333 42.7776 188.222 31.9998 184.444 32.7776Z" fill="#1B4180"/>
<path d="M191.778 114C191.889 113.334 191.889 112.889 191.889 112.556C191.778 111.223 191.445 110.334 190.778 109.889C190.111 109.334 189.222 109.223 188.111 109.223L182.778 109.556L181.667 122.445L184.667 122.223L185 118.112C185.333 118.223 185.778 118.223 186.333 118.223C186.889 118.223 187.445 118.223 188 118.223C189 118.112 189.889 117.778 190.556 117.112C191.222 116.556 191.667 115.445 191.778 114ZM188.778 113.889C188.778 114.445 188.556 114.889 188.333 115.223C188.111 115.556 187.778 115.778 187.333 115.778L185.222 115.889L185.556 112.112L187.667 112C188 112 188.333 112 188.445 112.223C188.667 112.445 188.778 112.667 188.778 113.112C188.778 113.334 188.778 113.556 188.778 113.889Z" fill="white"/>
<path d="M195.555 108.778L190.444 122L193.555 121.778L194.444 119.333L198.555 119L199 121.333L202.111 121.111L199.333 108.444L195.555 108.778ZM195.444 116.555L197.333 111.111L198.222 116.333L195.444 116.555Z" fill="white"/>
<path d="M209.111 107.778L206.333 114L204.778 108.111L201.444 108.333L204.555 117.333L204.222 120.889L207.222 120.667L207.555 117.111L212.444 107.444L209.111 107.778Z" fill="white"/>
<path d="M215.445 115.556L220 115.112L220.222 112.667L215.667 112.889L215.778 111.223C215.778 110.889 215.889 110.556 216.111 110.445C216.222 110.223 216.556 110.112 216.889 110.112L221.333 109.778L221.556 107.223C219.778 107.223 218 107.223 216.222 107.334C215.333 107.445 214.556 107.667 213.889 108.112C213.222 108.556 212.889 109.445 212.778 110.556L212.445 114.112L211.667 121.556L212.778 121.334L211.778 127.334L217.222 117.778L215.111 118.223L215.445 115.556Z" fill="white"/>
<path d="M225.111 106.555L220 119.777L223.111 119.555L224 117.111L228.222 116.777L228.667 119.111L231.778 118.889L228.889 106.333L225.111 106.555ZM224.889 114.444L226.778 109L227.667 114.222L224.889 114.444Z" fill="white"/>
<path d="M241.889 107.889L242.111 105.333L233.333 106L233.111 108.666L238.333 108.333L232.333 116.444L232.222 118.889L241.111 118.222L241.333 115.555L235.889 116L241.889 107.889Z" fill="white"/>
<path d="M251.778 104.667L243 105.334L242.778 108L248 107.667L242.111 115.667L241.889 118.223L250.778 117.556L251 114.889L245.556 115.334L251.444 107.334L251.778 104.667Z" fill="white"/>
<path d="M219.556 122.778L218.889 124.667L218.556 122.778L217.111 122.889L216.889 126.778L217.889 126.667L218 124.444L218.333 125.889L219.444 125.778L220 124.222L219.889 126.444L220.889 126.333L221.111 122.444L219.556 122.778Z" fill="white"/>
<path d="M221.111 126.555L222.222 126.444L222.444 125.778L223.333 125.667L223.444 126.333L224.556 126.222L223.889 122.444L222.333 122.555L221.111 126.555ZM222.667 124.889L223.111 123.444L223.333 124.889H222.667Z" fill="white"/>
<path d="M226 126.222C226.889 126.111 227.444 125.666 227.556 125C227.556 124.444 227.222 124.222 226.667 123.889L226.333 123.778C226.111 123.666 226 123.555 226.111 123.444C226.111 123.222 226.333 123.111 226.667 123.111C226.889 123.111 227.111 123.111 227.333 123.111L227.444 122.444C227.111 122.333 226.889 122.222 226.444 122.333C225.556 122.444 225 122.889 225 123.555C225 124.111 225.222 124.333 225.778 124.666L226 124.778C226.333 124.889 226.444 125 226.444 125.222C226.444 125.444 226.222 125.555 225.778 125.555C225.556 125.555 225.222 125.555 225 125.555L224.889 126.222C225.222 126.222 225.556 126.222 226 126.222Z" fill="white"/>
<path d="M228.333 126L229.444 125.889L229.667 122.778L230.444 122.666L230.556 121.889L227.889 122.111L227.778 122.889L228.556 122.778L228.333 126Z" fill="white"/>
<path d="M230.667 125.888L233.333 125.666L233.445 124.888L231.889 125V124.222L233.222 124.111L233.333 123.333L232 123.444V122.666L233.556 122.555L233.667 121.777L231 122L230.667 125.888Z" fill="white"/>
<path d="M233.889 125.666L235 125.555L235.111 124.444H235.222C235.333 124.444 235.444 124.444 235.444 124.444L235.889 125.555L237 125.444L236.444 124C236.778 123.777 237 123.333 237 122.888C237.111 122 236.556 121.555 235.333 121.666C235 121.666 234.556 121.777 234.111 121.888L233.889 125.666ZM235.111 123.555L235.222 122.444C235.333 122.444 235.444 122.333 235.444 122.333C235.778 122.333 235.889 122.444 235.889 122.888C235.889 123.333 235.667 123.444 235.333 123.555H235.111Z" fill="white"/>
<path d="M239.889 121.334L241.333 121.223L242.111 125.112L241 125.223L240.889 124.445L239.889 124.556L239.667 125.334L238.556 125.445L239.889 121.334ZM240.778 123.667L240.556 122.112L240.111 123.667H240.778Z" fill="white"/>
<path d="M242.889 124.666C242.555 124.444 242.444 124.111 242.444 123.555C242.444 123.444 242.444 123.222 242.444 123.111V122.889C242.444 122.222 242.667 121.778 243 121.444C243.333 121.111 243.778 120.889 244.444 120.889C244.889 120.889 245.222 120.889 245.555 121L245.444 121.666C245.333 121.666 245.111 121.666 245 121.666C244.889 121.666 244.778 121.666 244.555 121.666C244.222 121.666 244 121.778 243.778 121.889C243.667 122 243.555 122.222 243.555 122.555L243.444 123.333C243.444 123.444 243.444 123.555 243.444 123.555C243.444 123.778 243.555 123.889 243.667 124C243.778 124.111 243.889 124.111 244.111 124.111H244.444L244.555 123.222H244L244.111 122.444L245.667 122.333L245.555 124.555C245.222 124.778 244.667 124.889 244.222 124.889C243.667 125 243.222 124.889 242.889 124.666Z" fill="white"/>
<path d="M246.333 120.778L249 120.556V121.333L247.444 121.445V122.222L248.778 122.111V122.889L247.444 123V123.778L249 123.667V124.445L246.333 124.667V120.778Z" fill="white"/>
<path d="M252.889 120.333L252.555 124.333L251.555 124.444L250.555 122.444L250.444 124.555L249.444 124.666L249.778 120.666L250.778 120.555L251.778 122.555L251.889 120.444L252.889 120.333Z" fill="white"/>
<path d="M169.111 198.889C169.111 198.889 170.444 197.445 171.333 196.556C172.222 195.556 173.556 196 174.444 196.445C175.333 196.889 176.778 196.889 176.778 195.778C176.778 194.667 179.444 192.222 181 194.111C182.556 196 180.333 197.667 178.556 197.889C176.778 198.111 177.333 199.222 177.778 200.222C178.222 201.111 178 202 176.889 202.778C175.778 203.556 174.333 204.445 174.444 204.556C174.556 204.445 170.444 200 169.111 198.889Z" fill="#BFCBDC"/>
<path d="M174.667 204.889L174.111 204.778V204.667C173.555 204.111 170 200.334 168.778 199.222L168.444 199L168.667 198.667C168.667 198.667 170 197.222 170.889 196.334C171.667 195.445 173 195.445 174.444 196.111C175 196.445 175.667 196.445 176 196.222C176.111 196.111 176.222 196 176.222 195.778C176.333 194.778 177.444 193.556 178.667 193.222C179.667 192.889 180.555 193.222 181.111 194C181.889 195 181.778 195.778 181.555 196.334C181.111 197.556 179.667 198.222 178.444 198.445C178.111 198.445 177.667 198.556 177.555 198.778C177.333 199.111 177.667 199.778 177.889 200.222C178.444 201.334 178.111 202.445 176.889 203.222L176.444 203.556C175.778 204 174.778 204.778 174.444 204.889H174.667ZM169.667 198.778C170.555 199.556 171.889 201 172.667 201.778C173.667 202.889 174.333 203.556 174.667 203.889C175 203.667 175.555 203.334 176.444 202.667L176.889 202.334C177.778 201.778 178 201 177.667 200.222C177.333 199.667 177 198.778 177.333 198.111C177.555 197.667 178 197.445 178.778 197.334C179.667 197.222 180.889 196.667 181.333 195.778C181.555 195.222 181.444 194.778 181 194.222C180.555 193.667 180 193.556 179.333 193.778C178.333 194.111 177.444 195.111 177.444 195.667C177.444 196.334 177.111 196.667 176.778 196.778C176.111 197.111 175.222 197 174.555 196.667C173.778 196.222 172.555 195.889 171.889 196.667C171 197.445 170.111 198.334 169.667 198.778Z" fill="#133F7E"/>
<path d="M174.667 204.445C174.667 204.445 176.111 203.112 177.222 202.223C178.222 201.334 179.555 201.889 180.333 202.445C181.111 203.001 182.555 203.223 182.778 202.001C183 200.778 185.778 198.667 187.111 200.778C188.444 202.889 186 204.334 184.222 204.445C182.444 204.445 182.778 205.667 183.111 206.667C183.444 207.667 183 208.556 181.889 209.112C180.778 209.778 179.222 210.556 179.222 210.667C179.222 210.667 175.778 205.889 174.667 204.445Z" fill="#BFCBDC"/>
<path d="M179.333 211.111L178.889 210.889V210.778C178.444 210.111 175.555 206 174.444 204.667L174.222 204.334L174.556 204.111C174.556 204.111 176 202.778 177.111 201.889C178 201.111 179.333 201.111 180.667 202C181.111 202.334 181.778 202.445 182.111 202.334C182.333 202.222 182.444 202.111 182.444 201.778C182.555 200.889 183.889 199.667 185.222 199.334C186.111 199.111 187 199.556 187.444 200.334C188.111 201.445 187.889 202.222 187.556 202.778C186.889 203.889 185.444 204.556 184.222 204.556C183.889 204.556 183.444 204.667 183.333 204.889C183.111 205.222 183.333 205.889 183.444 206.334C183.778 207.556 183.333 208.556 182.111 209.222L181.667 209.445C180.889 209.889 179.778 210.445 179.556 210.667L179.333 211.111ZM175.111 204.556C175.778 205.445 177 207 177.667 207.889C178.555 209.111 179 209.778 179.333 210.222C179.667 210 180.222 209.667 181.222 209.111L181.667 208.889C182.667 208.334 183 207.667 182.667 206.889C182.444 206.222 182.222 205.334 182.667 204.778C183 204.334 183.444 204.222 184.111 204.222C185 204.222 186.333 203.667 186.778 202.889C187.111 202.334 187 201.778 186.667 201.222C186.333 200.667 185.778 200.445 185.222 200.556C184.222 200.778 183.111 201.778 183 202.334C182.889 203 182.444 203.222 182.222 203.445C181.555 203.778 180.667 203.445 180 203.111C179.222 202.667 178.222 202.222 177.333 202.889C176.667 203.222 175.667 204.111 175.111 204.556Z" fill="#133F7E"/>
<path d="M179.333 210.778C179.333 210.778 180.889 209.667 182 209.001C183.111 208.334 184.222 208.889 185 209.556C185.778 210.223 187 210.556 187.334 209.445C187.667 208.334 190.667 206.556 191.667 208.778C192.667 211 190.222 212.112 188.445 211.889C186.778 211.667 186.889 212.889 187.111 213.889C187.333 214.889 186.778 215.667 185.667 216.112C184.445 216.556 182.889 217.223 182.889 217.223C183 217.334 180.333 212.223 179.333 210.778Z" fill="#BFCBDC"/>
<path d="M183 217.778L182.556 217.445V217.334C182.222 216.667 179.889 212.222 179 210.889L178.778 210.556L179.111 210.334C179.111 210.334 180.667 209.222 181.778 208.556C182.778 207.889 184 208.111 185.222 209.111C185.667 209.445 186.222 209.667 186.556 209.556C186.778 209.556 186.889 209.334 187 209.111C187.222 208.222 188.667 207.222 190 207.111C190.889 207.111 191.667 207.556 192 208.334C192.445 209.445 192.222 210.222 191.778 210.667C191 211.667 189.445 212.111 188.333 212C188 212 187.667 212 187.445 212.111C187.222 212.334 187.333 213.111 187.445 213.556C187.667 214.778 187 215.667 185.778 216.222L185.333 216.445C184.556 216.778 183.445 217.222 183.111 217.334L183 217.778ZM179.889 210.889C180.444 211.778 181.333 213.445 181.889 214.445C182.556 215.667 183 216.445 183.111 216.889C183.445 216.778 184.111 216.445 185.111 216.111L185.556 215.889C186.556 215.445 187 214.889 186.778 214C186.667 213.334 186.556 212.445 187 211.889C187.333 211.556 187.778 211.445 188.556 211.445C189.445 211.556 190.667 211.222 191.333 210.445C191.667 210 191.667 209.445 191.445 208.778C191.222 208.222 190.778 207.889 190.111 208C189.111 208 187.889 208.889 187.778 209.445C187.556 210.111 187.111 210.334 186.889 210.334C186.222 210.556 185.333 210.111 184.889 209.667C184.222 209.111 183.222 208.556 182.333 209.111C181.445 209.778 180.333 210.556 179.889 210.889Z" fill="#133F7E"/>
<path d="M183.222 217.334C183.222 217.334 185 216.445 186.111 215.889C187.333 215.334 188.333 216.112 189 216.778C189.667 217.445 190.889 218.001 191.333 216.889C191.889 215.778 195 214.445 195.778 216.778C196.444 219.112 193.889 219.889 192.222 219.556C190.556 219.112 190.556 220.445 190.667 221.445C190.667 222.445 190.111 223.223 188.889 223.445C187.667 223.778 186 224.223 186 224.223C186 224.445 184 219.001 183.222 217.334Z" fill="#BFCBDC"/>
<path d="M186 224.889L185.556 224.445V224.334C185.333 223.667 183.556 219 182.889 217.556L182.778 217.222L183.111 217.111C183.111 217.111 184.889 216.222 186 215.667C187.111 215.111 188.222 215.556 189.333 216.667C189.667 217.111 190.222 217.334 190.667 217.334C190.889 217.334 191 217.222 191.111 217C191.445 216.222 193 215.334 194.333 215.445C195.222 215.556 195.889 216.111 196.222 217C196.556 218.111 196.111 218.889 195.778 219.334C194.889 220.222 193.333 220.445 192.222 220.222C191.889 220.111 191.556 220.111 191.333 220.222C191 220.445 191.111 221.222 191.111 221.667C191.222 222.889 190.445 223.778 189.111 224.111L188.667 224.222C187.889 224.445 186.667 224.778 186.333 224.889H186ZM183.778 217.556C184.222 218.556 184.889 220.334 185.333 221.334C185.889 222.667 186.111 223.445 186.333 223.889C186.667 223.778 187.333 223.556 188.445 223.334L188.889 223.222C189.889 223 190.445 222.445 190.333 221.556C190.333 220.889 190.222 220 190.889 219.556C191.222 219.222 191.778 219.222 192.445 219.334C193.333 219.556 194.667 219.445 195.333 218.667C195.778 218.222 195.778 217.667 195.667 217C195.445 216.334 195.111 216.111 194.445 216C193.445 215.889 192.222 216.667 191.889 217.111C191.667 217.667 191.222 217.889 190.889 217.889C190.222 218 189.445 217.556 188.889 217C188.333 216.334 187.445 215.667 186.445 216.111C185.445 216.667 184.333 217.222 183.778 217.556Z" fill="#133F7E"/>
<path d="M185.667 224.556C185.667 224.556 187.556 224.001 188.778 223.667C190 223.334 190.889 224.334 191.445 225.112C192 225.89 193 226.668 193.778 225.667C194.445 224.779 197.889 224.001 198.111 226.334C198.333 228.779 195.667 229.001 194.111 228.334C192.556 227.667 192.333 228.89 192.222 229.89C192.111 230.89 191.333 231.445 190.111 231.556C188.889 231.668 187.111 231.779 187.111 231.779C187.111 231.779 186.111 226.223 185.667 224.556Z" fill="#BFCBDC"/>
<path d="M186.889 232.334L186.556 231.889V231.778C186.444 231.112 185.667 226.112 185.222 224.556L185.111 224.223L185.444 224.112C185.444 224.112 187.333 223.556 188.556 223.223C189.667 222.889 190.778 223.445 191.667 224.889C192 225.334 192.444 225.778 192.778 225.778C193 225.778 193.111 225.667 193.333 225.445C193.889 224.778 195.556 224.112 196.778 224.556C197.667 224.778 198.222 225.445 198.333 226.445C198.444 227.667 197.889 228.334 197.444 228.667C196.444 229.445 194.778 229.334 193.778 228.889C193.444 228.778 193.111 228.667 192.889 228.778C192.556 229 192.444 229.667 192.333 230.112C192.111 231.334 191.333 232 189.889 232.112H189.444C188.667 232.112 187.444 232.223 187.111 232.334H186.889ZM186.111 224.778C186.333 225.889 186.667 227.667 186.889 228.778C187.111 230.223 187.333 231 187.333 231.445C187.778 231.445 188.333 231.334 189.444 231.334H189.889C191 231.223 191.556 230.778 191.667 230C191.778 229.334 191.889 228.445 192.556 228.112C193 227.889 193.444 227.889 194.111 228.223C194.889 228.556 196.222 228.667 197 228.112C197.444 227.778 197.667 227.223 197.556 226.556C197.444 225.889 197.222 225.556 196.556 225.334C195.556 225.112 194.222 225.556 193.889 226C193.556 226.556 193 226.667 192.667 226.556C192 226.556 191.222 225.889 190.889 225.334C190.444 224.556 189.667 223.778 188.667 224C188 224.223 186.667 224.667 186.111 224.778Z" fill="#133F7E"/>
<path d="M187 232.444C187 232.444 188.778 232.222 190.111 232.111C191.333 232 192 233 192.444 233.889C192.778 234.778 193.778 235.555 194.556 234.778C195.333 234 198.667 233.778 198.556 236C198.444 238.333 195.889 238.222 194.444 237.333C193.111 236.444 192.667 237.555 192.444 238.444C192.222 239.333 191.444 239.778 190.222 239.778C189 239.667 187.333 239.555 187.444 239.555C187.222 239.667 187.222 234.111 187 232.444Z" fill="#BFCBDC"/>
<path d="M190.333 240.111C190.222 240.111 190.111 240.111 190 240.111H189.556C188.778 240 187.556 240 187.333 240L187.111 240.111L186.889 239.666L187 239.555C187 238.889 186.889 234.111 186.778 232.555V232.222H187.111C187.111 232.222 188.889 232 190.222 231.778C191.333 231.666 192.333 232.333 192.889 233.778C193.111 234.222 193.444 234.666 193.889 234.778C194.111 234.778 194.222 234.778 194.444 234.555C195 234 196.667 233.666 197.889 234.111C198.667 234.444 199.111 235.111 199.111 236.111C199.111 237.222 198.444 237.778 198 238.111C196.889 238.666 195.444 238.333 194.556 237.778C194.333 237.666 194 237.444 193.778 237.555C193.444 237.666 193.222 238.333 193.111 238.778C192.333 239.555 191.556 240.111 190.333 240.111ZM187.556 239.222C187.889 239.222 188.556 239.333 189.556 239.333H190C191 239.444 191.667 239.111 191.889 238.333C192.111 237.778 192.333 236.889 193 236.666C193.444 236.555 193.889 236.666 194.444 237C195.111 237.444 196.333 237.778 197.222 237.333C197.667 237.111 198 236.666 198 236C198 235.444 197.778 235 197.222 234.778C196.333 234.333 195 234.666 194.556 235C194.111 235.444 193.667 235.444 193.333 235.444C192.667 235.333 192.111 234.666 191.889 234C191.556 233.222 191 232.333 190 232.444C189.111 232.555 187.889 232.666 187.333 232.778C187.444 233.778 187.444 235.555 187.556 236.666C187.556 238 187.556 238.778 187.556 239.222Z" fill="#133F7E"/>
<path d="M162.445 194.333C162.445 194.333 163.667 192.222 164.445 191.111C165.111 190 166.445 190 167.667 190C168.889 190 169.222 189.556 169.556 188.111C169.889 186.556 171.445 184.667 173.445 187C175.445 189.333 174.333 190.222 172.445 191C170.556 191.778 171.111 193.111 171.556 194.111C172 195.111 171.445 196 170.445 197C169.445 198 168.778 198.778 168.778 198.778C168.778 198.778 166.667 196.222 162.445 194.333Z" fill="#BFCBDC"/>
<path d="M168.778 199.333L168.444 199C168.444 199 166.333 196.445 162.222 194.667L161.889 194.445L162.111 194.111C162.111 194.111 163.333 192 164.111 190.889C164.889 189.556 166.444 189.667 167.667 189.667C168.667 189.667 168.778 189.445 169.222 188C169.444 187 170.222 185.778 171.222 185.556C171.778 185.445 172.667 185.556 173.778 186.778C174.667 187.889 175.111 188.778 174.889 189.556C174.667 190.445 173.667 191 172.667 191.333C172.111 191.556 171.778 191.778 171.667 192.111C171.444 192.556 171.778 193.222 172 193.889V194C172.556 195.333 171.778 196.333 170.778 197.333C169.778 198.333 169.111 199.111 169.111 199.111L168.778 199.333ZM163 194.111C166.222 195.556 168.111 197.445 168.778 198.111C169.111 197.778 169.556 197.222 170.111 196.667C171.111 195.667 171.556 195 171.222 194.111V194C170.889 193.333 170.556 192.445 170.889 191.667C171.111 191.111 171.556 190.778 172.333 190.445C173.444 190 174 189.556 174.111 189.111C174.222 188.667 173.889 187.889 173.222 187C172.556 186.222 172 186 171.444 186.111C170.667 186.333 170.111 187.222 170 188C169.667 189.445 169.222 190.222 167.778 190.222C167.667 190.222 167.667 190.222 167.556 190.222C166.444 190.222 165.333 190.222 164.778 191.111C164.222 192.111 163.333 193.445 163 194.111Z" fill="#133F7E"/>
<path d="M245.333 263.667C245.333 263.667 247.111 265.445 247.889 266.334C248.667 267.223 248.556 268.667 245.889 272.445C243.222 276.223 240.778 277 239.333 284.556C237.889 292.111 236.889 296.556 235.333 296.667C233.778 296.778 231.111 296 231.111 296C231.111 296 233 280.223 236.333 275.556C239.667 271 245.333 263.667 245.333 263.667Z" fill="#051122"/>
<path d="M151.889 190.223C151.889 190.223 153.556 187.889 154.556 187C155.556 186.112 157.889 186.112 159.222 186.223C160.556 186.334 161.222 185.445 160.889 184.445C160.556 183.445 161.667 179.778 164.778 181.445C167.889 183.112 165.444 185 164.111 186C162.778 187 163.111 187.223 164 188.889C164.889 190.445 164.556 190.889 164 191.667C163.444 192.445 162.333 194.334 162.333 194.334L151.889 190.223Z" fill="#BFCBDC"/>
<path d="M162.555 194.667L151.333 190.334L151.667 189.889C151.778 189.778 153.333 187.556 154.333 186.667C155.555 185.445 158.889 185.778 159.333 185.778C159.889 185.778 160.222 185.667 160.444 185.445C160.667 185.223 160.667 184.889 160.555 184.556C160.222 183.778 160.667 182.112 161.667 181.223C162.222 180.778 163.333 180.112 165 181.112C166.111 181.667 166.667 182.445 166.667 183.223C166.778 184.556 165.111 185.778 164.333 186.334C163.444 187 163.444 187 164.111 188.223L164.444 188.667C165.444 190.334 165.111 190.889 164.444 191.778C163.889 192.556 162.778 194.445 162.778 194.445L162.555 194.667ZM152.555 190.112L162.222 193.778C162.555 193.223 163.222 192 163.667 191.445C164.222 190.667 164.444 190.445 163.667 189.112L163.444 188.667C162.667 187.334 162.444 186.889 163.889 185.778C164.555 185.334 165.889 184.223 165.889 183.334C165.889 182.778 165.444 182.334 164.555 181.889C163.555 181.334 162.778 181.334 162.111 181.889C161.333 182.556 161.111 183.889 161.222 184.334C161.444 184.889 161.444 185.556 161 186C160.667 186.556 159.889 186.778 159.222 186.667C157.667 186.445 155.555 186.667 154.889 187.334C154.111 188 153 189.334 152.555 190.112Z" fill="#133F7E"/>
<path d="M146.445 189.333C146.445 189.333 148.222 188.889 149 188.111C149.778 187.333 151.333 186.333 152.778 186.333C154.222 186.333 154.222 186.333 154.222 186.333C154.222 186.333 151.556 189.444 151.333 190.222L146.445 189.333Z" fill="#BFCBDC"/>
<path d="M151.556 190.555L144.667 189.333L146.333 188.889C146.778 188.778 148.111 188.333 148.667 187.778C149.445 187 151.111 185.889 152.667 185.889C154.111 185.889 154.222 185.889 154.333 186L154.778 186.222L154.445 186.555C153.111 188 151.778 189.889 151.667 190.222L151.556 190.555ZM147.889 189.222L151 189.778C151.445 189 152.667 187.555 153.333 186.666C153.111 186.666 152.889 186.666 152.667 186.666C151.445 186.666 149.889 187.666 149.222 188.333C148.889 188.666 148.445 189 147.889 189.222Z" fill="#133F7E"/>
<path d="M208.667 241.667C208.667 241.667 206.556 239.111 205.667 238.111C204.778 237 201.333 238.555 201.333 238.555L207 243.444L208.667 241.667Z" fill="#BFCBDC"/>
<path d="M206.889 243.889L200.556 238.444L201.111 238.222C201.445 238.111 204.778 236.666 205.889 237.889C206.778 239 208.889 241.444 208.889 241.444L209.111 241.666L206.889 243.889ZM202 238.666L206.889 242.889L208.111 241.666C207.556 241 206 239.222 205.333 238.333C204.889 237.777 203.222 238.111 202 238.666Z" fill="#133F7E"/>
<path d="M257.556 206.667C257.556 206.445 256.111 203.445 256.111 203.334C256.111 203.222 256.111 203.111 256.111 203.111C256.111 203.111 257.444 203.334 257.778 204C258.111 204.667 259.111 207.334 259.667 207.778C260.222 208.222 260.222 208.222 260.222 208.222L257.556 206.667Z" fill="#BFCBDC"/>
<path d="M260.111 208.667L257.222 206.889V206.667C257.111 206.445 256.778 205.667 256.556 205.111C255.889 203.445 255.778 203.445 255.778 203.223V202.667L256.222 202.778C256.333 202.778 257.778 203.111 258.111 203.889C258.222 204 258.333 204.334 258.445 204.556C258.778 205.445 259.556 207.223 259.889 207.556L260.445 208L260.111 208.667ZM257.889 206.445L258.667 206.889C258.333 206.334 258.111 205.556 257.778 204.889C257.667 204.556 257.556 204.334 257.445 204.223C257.333 204 257 203.778 256.667 203.667C256.778 204 257 204.445 257.222 204.889C257.667 205.778 257.778 206.223 257.889 206.445Z" fill="#133F7E"/>
<path d="M249.222 259.445C249.222 259.445 249.555 260.112 250.444 261.112C251.333 262 253.556 261.778 255.333 259.889C257.111 258 261.889 254.445 264.556 252.445C267.222 250.445 267 249.556 265.889 247.889C264.778 246.223 264.778 246.223 264.778 246.223L249.222 259.445Z" fill="#051122"/>
<path d="M208.556 241.444C208.556 241.444 206.556 239 205.667 238C204.778 237 206 234.444 206.667 233.444C207.333 232.444 205.667 231 204.556 231.333C203.444 231.667 201.444 229 203.556 227.333C205.556 225.667 207.222 228.556 206.889 229.667C206.556 230.778 208.444 231.667 209.889 231.111C211.333 230.556 212.111 230.111 213 230.889C213.889 231.667 215.667 233.556 215.667 233.556L208.556 241.444Z" fill="#BFCBDC"/>
<path d="M208.556 242L208.333 241.667C208.333 241.667 206.333 239.222 205.444 238.222C204.111 236.778 206.333 233.222 206.333 233.222C206.556 232.889 206.333 232.556 206.222 232.333C205.889 231.889 205.222 231.556 204.667 231.667C204 231.889 203.111 231.333 202.556 230.444C202 229.444 202 228.111 203.222 227C204.333 226.111 205.333 226.445 205.778 226.778C206.778 227.445 207.444 229 207.222 229.778C207.111 230 207.333 230.222 207.444 230.333C207.889 230.778 208.889 231 209.667 230.778L210.111 230.556C211.222 230.111 212.222 229.667 213.222 230.667C214.111 231.556 216 233.333 216 233.333L216.222 233.556L208.556 242ZM204.889 231C205.667 231 206.333 231.445 206.778 232C207.222 232.556 207.222 233.222 207 233.667C206.222 234.889 205.333 237 206 237.778C206.667 238.556 208.111 240.222 208.667 240.889L215.222 233.778C214.667 233.222 213.444 232 212.778 231.333C212.222 230.778 211.667 231 210.556 231.445L210.111 231.667C209.111 232 207.889 231.778 207.111 231.111C206.667 230.778 206.556 230.222 206.667 229.778C206.778 229.333 206.333 228.111 205.556 227.667C205 227.333 204.444 227.445 203.889 227.889C202.667 228.889 203.222 230 203.444 230.333C203.778 231 204.333 231.333 204.667 231.222C204.556 231 204.667 231 204.889 231Z" fill="#133F7E"/>
<path d="M215.667 233.778C215.667 233.778 213.556 231.445 212.667 230.556C211.778 229.667 212.889 227.445 213.556 226.556C214.111 225.667 212.556 224.445 211.444 224.667C210.333 225 208.444 222.667 210.333 221.223C212.222 219.889 213.889 222.445 213.667 223.334C213.444 224.222 215.333 225.111 216.556 224.667C217.889 224.222 218.667 223.778 219.667 224.556C220.556 225.334 222.333 226.889 222.333 226.889L215.667 233.778Z" fill="#BFCBDC"/>
<path d="M215.667 234.333L215.444 234C215.444 234 213.333 231.667 212.444 230.778C211.333 229.667 212.444 227.333 213.222 226.222C213.333 226.111 213.333 225.889 213.111 225.667C212.778 225.222 212 224.778 211.444 225C210.667 225.222 209.778 224.556 209.333 223.667C208.889 222.667 209.111 221.667 210.111 220.889C211 220.333 211.889 220.222 212.778 220.889C213.667 221.445 214.222 222.667 214 223.445C214 223.556 214 223.667 214.222 223.889C214.667 224.333 215.667 224.667 216.555 224.333L217 224.222C218.111 223.889 219 223.556 220 224.333C220.889 225.111 222.778 226.778 222.778 226.778L223.111 227L215.667 234.333ZM211.778 224.222C212.555 224.222 213.444 224.778 213.778 225.333C214.111 225.778 214.111 226.333 213.889 226.778C213.111 227.889 212.333 229.667 213 230.333C213.778 231 215.111 232.667 215.778 233.333L221.889 227C221.333 226.556 220.111 225.445 219.444 224.889C218.778 224.333 218.333 224.556 217.222 224.889L216.778 225C215.778 225.333 214.444 225 213.778 224.333C213.444 224 213.333 223.556 213.444 223.222C213.555 222.889 213.222 222 212.444 221.556C211.889 221.111 211.333 221.111 210.667 221.556C209.778 222.222 210 223 210.111 223.333C210.444 224 211 224.445 211.444 224.333C211.444 224.222 211.555 224.222 211.778 224.222Z" fill="#133F7E"/>
<path d="M222.111 227.334C222.111 227.334 220.333 225.112 219.556 224.223C218.778 223.334 220 221.334 220.556 220.556C221.111 219.778 219.778 218.556 218.778 218.667C217.778 218.889 216.222 216.556 218 215.445C219.889 214.334 221.111 216.778 220.889 217.556C220.556 218.334 222.222 219.223 223.444 219.001C224.667 218.667 225.444 218.334 226.222 219.112C227 219.889 228.556 221.445 228.556 221.445L222.111 227.334Z" fill="#BFCBDC"/>
<path d="M222.111 227.889L221.889 227.556C221.889 227.556 220.111 225.334 219.445 224.445C218.445 223.334 219.667 221.334 220.445 220.334C220.556 220.223 220.556 220 220.445 219.889C220.222 219.445 219.556 219 219 219.112C218.333 219.223 217.445 218.556 217.111 217.667C216.778 216.667 217.111 215.778 218 215.223C218.889 214.667 219.667 214.778 220.445 215.334C221.222 216 221.667 217.112 221.445 217.778C221.445 217.889 221.445 218 221.556 218.112C221.889 218.556 222.889 218.889 223.556 218.667L224 218.556C225 218.334 225.889 218.112 226.778 218.889C227.556 219.667 229.111 221.223 229.111 221.223L229.333 221.556L222.111 227.889ZM219 218.334C219.778 218.334 220.556 218.889 220.889 219.445C221.222 219.889 221.111 220.445 220.889 220.778C220.111 221.667 219.333 223.334 219.889 223.889C220.556 224.556 221.667 226.112 222.222 226.778L228.111 221.445C227.667 221 226.667 219.889 226.111 219.334C225.556 218.778 225.111 218.889 224.111 219.223L223.667 219.334C222.778 219.556 221.445 219.223 220.889 218.556C220.556 218.223 220.445 217.778 220.667 217.445C220.778 217.223 220.556 216.334 219.889 215.889C219.445 215.445 218.889 215.445 218.333 215.778C217.445 216.334 217.556 217 217.778 217.334C218 217.889 218.556 218.334 218.889 218.334C218.889 218.334 218.889 218.334 219 218.334Z" fill="#133F7E"/>
<path d="M228.778 221.445C228.778 221.445 227.222 219.112 226.444 218.223C225.667 217.334 227 215.445 227.667 214.778C228.333 214.112 227 212.778 226 212.89C225 213.001 223.555 210.667 225.444 209.667C227.333 208.667 228.444 211.112 228.111 211.89C227.778 212.667 229.333 213.667 230.555 213.445C231.778 213.223 232.555 212.89 233.333 213.778C234.111 214.556 235.444 216.223 235.444 216.223L228.778 221.445Z" fill="#BFCBDC"/>
<path d="M228.667 222L228.444 221.667C228.444 221.667 226.889 219.334 226.111 218.445C225.222 217.334 226.556 215.334 227.333 214.445C227.444 214.334 227.444 214.223 227.333 214C227.111 213.556 226.444 213.112 226 213.223C225.333 213.334 224.444 212.667 224.222 211.667C223.889 210.667 224.333 209.778 225.222 209.334C226.111 208.889 226.889 209 227.556 209.556C228.222 210.223 228.667 211.334 228.333 212C228.333 212.112 228.333 212.223 228.444 212.334C228.778 212.778 229.667 213.112 230.444 213L230.889 212.889C231.889 212.667 232.778 212.556 233.556 213.334C234.333 214.112 235.667 215.778 235.667 215.778L235.889 216.112L228.667 222ZM226.111 212.445C226.889 212.445 227.778 213 228 213.667C228.222 214.112 228.222 214.667 227.889 215C227.111 215.889 226.222 217.445 226.667 218C227.222 218.667 228.333 220.223 228.778 220.889L234.889 216C234.444 215.445 233.556 214.445 233 213.889C232.556 213.334 232.111 213.445 231 213.667L230.556 213.778C229.667 214 228.444 213.556 227.889 212.889C227.556 212.556 227.556 212.112 227.667 211.778C227.778 211.556 227.556 210.667 227 210.223C226.556 209.778 226 209.778 225.444 210.112C224.556 210.556 224.667 211.223 224.778 211.556C225 212.112 225.444 212.556 225.778 212.556C226 212.445 226 212.445 226.111 212.445Z" fill="#133F7E"/>
<path d="M235.667 216C235.667 216 234 213.667 233.445 213.222C232.889 212.778 233 211.667 233.222 211.111C233.444 210.445 233.111 209.556 232.222 209.445C231.333 209.222 229.667 207.333 231.556 206.111C233.333 204.889 234.667 207.667 234.667 208.222C234.667 208.778 235.667 209.111 236.556 209.111C237.444 209.111 238.222 208.445 239.444 209.667C240.556 210.889 241.333 211.889 241.333 211.889L235.667 216Z" fill="#BFCBDC"/>
<path d="M235.556 216.556L235.333 216.223C234.889 215.556 233.556 213.889 233.222 213.445C232.445 212.778 232.667 211.556 232.889 210.889C233 210.667 232.889 210.445 232.778 210.111C232.667 209.889 232.445 209.667 232.111 209.667C231.445 209.556 230.556 208.667 230.333 207.667C230.222 206.889 230.445 206.111 231.222 205.667C232 205.111 232.667 205.223 233.111 205.445C234.222 206 234.889 207.556 234.889 208.111C234.889 208.445 235.556 208.667 236.333 208.667C236.556 208.667 236.778 208.667 236.889 208.556C237.556 208.445 238.445 208.223 239.445 209.334C240.556 210.556 241.333 211.556 241.333 211.556L241.556 211.889L235.556 216.556ZM232.445 206.111C232.222 206.111 232 206.223 231.778 206.334C231.222 206.667 231.111 207.111 231.111 207.667C231.222 208.334 231.889 209 232.333 209C232.778 209.111 233.222 209.445 233.445 209.889C233.667 210.334 233.778 210.778 233.556 211.223C233.333 211.889 233.333 212.667 233.667 213C234.111 213.445 235.222 214.889 235.667 215.556L240.667 211.778C240.333 211.445 239.778 210.667 239 209.889C238.333 209.111 237.778 209.223 237.222 209.334C237 209.334 236.778 209.445 236.445 209.445C235.333 209.445 234.222 209.111 234.111 208.223C234.111 207.889 233.556 206.667 232.667 206.223C232.778 206.111 232.667 206.111 232.445 206.111Z" fill="#133F7E"/>
<path d="M241.778 211.556C241.778 211.556 240.667 210.112 240 209.112C239.333 208.223 240.778 206.667 240.333 205.889C239.778 205.223 238.222 205.223 237.445 204.445C236.667 203.667 237.556 202 238.445 201.889C239.445 201.778 240.556 202.667 240.667 203.667C240.778 204.667 242.556 204.889 243.556 205.112C244.556 205.334 245.445 205.889 245.889 206.667C246.333 207.556 247.222 209 247.222 209L241.778 211.556Z" fill="#BFCBDC"/>
<path d="M241.667 212L241.445 211.778C241.445 211.778 240.333 210.333 239.667 209.333C239.222 208.667 239.445 207.889 239.778 207.222C239.889 206.778 240.111 206.333 240 206.222C239.778 206 239.333 205.778 238.889 205.667C238.333 205.445 237.667 205.222 237.111 204.778C236.667 204.333 236.556 203.667 236.778 203C237 202.222 237.667 201.667 238.333 201.556C238.889 201.445 239.556 201.667 240.111 202.111C240.667 202.556 241 203.111 241 203.667C241.111 204.333 242.556 204.556 243.333 204.778H243.556C244.778 205 245.778 205.667 246.111 206.556C246.445 207.333 247.445 208.778 247.445 208.778L247.667 209.111L241.667 212ZM238.556 202.333H238.445C238.111 202.333 237.667 202.778 237.445 203.222C237.333 203.445 237.222 203.889 237.556 204.222C237.889 204.556 238.445 204.778 239 204.889C239.556 205.111 240.222 205.222 240.556 205.667C240.889 206.111 240.667 206.778 240.445 207.445C240.222 208 240 208.556 240.222 208.889C240.778 209.556 241.445 210.556 241.778 211L246.556 208.778C246.222 208.333 245.667 207.445 245.445 206.778C245.111 206.111 244.333 205.556 243.333 205.445H243.111C242 205.222 240.222 204.889 240.111 203.667C240.111 203.333 239.889 202.889 239.445 202.667C239.333 202.445 238.889 202.333 238.556 202.333Z" fill="#133F7E"/>
<path d="M247.334 208.889C247.334 208.889 246.111 206.334 245.889 205.889C245.667 205.445 246 204.334 246.667 203.556C247.334 202.778 246.222 202.556 245.778 202.556C245.334 202.556 244.778 200.667 246.445 200.556C248.111 200.445 247.889 201.889 247.778 202.111C247.667 202.334 248.111 203.223 248.889 203.223C249.667 203.223 250.334 203.223 251 204.223C251.667 205.223 252.667 207.223 252.667 207.223L247.334 208.889Z" fill="#BFCBDC"/>
<path d="M247.111 209.334L247 209C246.667 208.334 245.778 206.334 245.556 206C245.111 205.334 245.667 204 246.333 203.222C246.445 203.111 246.445 203 246.445 203C246.445 203 246.111 202.889 245.667 202.778C245.111 202.778 244.778 202 244.889 201.445C244.889 200.778 245.333 200.111 246.333 200.111C247 200.111 247.556 200.222 247.889 200.667C248.333 201.222 248.222 201.889 248.111 202.222C248.111 202.334 248.333 202.889 248.889 202.889H249.111C249.889 202.889 250.667 203 251.333 204.111L253.333 207.445L247.111 209.334ZM246.445 200.889H246.333C245.778 200.889 245.667 201.222 245.556 201.334C245.445 201.667 245.667 202.111 245.778 202.111C246.222 202.111 246.889 202.334 247.111 202.778C247.222 203 247.222 203.334 246.889 203.667C246.222 204.445 246.111 205.334 246.222 205.556C246.445 205.889 247.222 207.556 247.556 208.334L252 207L250.556 204.445C250.111 203.667 249.667 203.667 249 203.556H248.778C248.333 203.556 247.889 203.334 247.556 202.889C247.333 202.667 247.222 202.222 247.333 201.889C247.333 201.778 247.445 201.334 247.222 201.111C247 201 246.778 200.889 246.445 200.889Z" fill="#133F7E"/>
<path d="M252.555 207.223C252.555 207.223 251.889 204.779 251.667 204.334C251.444 203.89 251.889 203.001 252.667 202.334C253.333 201.779 252.333 201.445 252 201.334C251.555 201.223 251.333 199.556 252.778 199.667C254.222 199.779 253.889 201.001 253.778 201.223C253.667 201.445 253.889 202.223 254.555 202.334C255.222 202.445 255.889 202.556 256.222 203.556C256.667 204.556 257.333 206.445 257.333 206.445L252.555 207.223Z" fill="#BFCBDC"/>
<path d="M252.222 207.556L252.111 207.223C251.778 206.223 251.333 204.667 251.222 204.445C250.889 203.778 251.556 202.667 252.222 202C252.333 201.889 252.333 201.889 252.333 201.889C252.333 201.889 252.111 201.778 251.667 201.667C251.222 201.556 251 200.889 251.111 200.334C251.222 199.778 251.667 199.223 252.667 199.334C253.444 199.445 253.778 199.778 254 200.111C254.333 200.667 254.111 201.223 254 201.556C254 201.667 254.111 202.111 254.556 202.223H254.667C255.333 202.334 256 202.556 256.444 203.667L257.778 207L252.222 207.556ZM252.556 200.111C252.222 200.111 252.111 200.334 252 200.334C251.889 200.556 252 201 252 201C252.444 201.111 253 201.334 253.111 201.778C253.111 202 253.111 202.334 252.778 202.667C252.111 203.223 251.889 204 251.889 204.223C252 204.556 252.444 206.111 252.667 206.778L256.667 206.223L255.778 203.778C255.444 203 255.111 203 254.556 202.778H254.444C254 202.667 253.667 202.445 253.444 202C253.333 201.778 253.222 201.334 253.333 201.111C253.333 201 253.444 200.667 253.333 200.445C253.222 200.223 253 200.111 252.556 200.111C252.556 200.111 252.667 200.111 252.556 200.111Z" fill="#133F7E"/>
<path d="M147 188.777C147 188.777 138.444 189.555 126.222 195.888C114 202.222 114.222 219.111 122.111 222.222C130 225.222 138.222 226.333 140.333 229.222C142.444 232.111 139.333 234.777 140.667 238.888C142.111 243 146.111 245.111 145.444 250.333C144.667 255.666 128.444 312.888 125.889 320.777C123.333 328.666 123.333 340 131 342.444C138.667 344.888 193.778 362.444 202.778 365.333C211.778 368.222 218.778 362 221.667 347.222C224.556 332.444 224.667 322 228.333 316.666C232 311.444 231.667 310.111 231.667 304.444C231.667 298.777 232.667 278.333 245.778 264.111C258.889 249.888 280.111 239.222 274.889 229.333C269.667 219.444 259.556 207.444 259.111 207.111C258.667 206.777 256 205.666 252.111 206.888C248.111 208.111 243.444 210.333 241 212C238.556 213.666 228.556 221 220.556 228.888C212.556 236.777 203 248.111 200.667 250.888C198.333 253.666 195.556 257 195.556 257L189.222 255C189.222 255 189.556 244.111 188.222 236.333C186.778 228.444 184.111 217.222 178.889 210.444C173.778 203.555 166.333 192.111 147 188.777Z" fill="#133F7E"/>
<path d="M161.111 195.666C161.111 195.666 156.889 197.889 151.333 201.111C145.778 204.333 142 204.333 138.889 201.555C135.778 198.778 132.667 200.333 129.555 202.555C126.444 204.778 121.889 213.555 128.444 216.333C135 219.111 137.889 218.778 143.111 221.778C148.333 224.778 151.778 229 150.778 232.222C149.778 235.444 149.889 236.778 151.778 238.111C153.667 239.444 154.778 254.222 149.111 272.333C143.444 290.444 137.555 310 134.778 319.666C132 329.333 133.111 335 138.667 336.778C144.222 338.555 199 356 203.555 357.444C208.111 358.889 211.667 355.333 213.889 345.555C216 335.778 217.889 323.889 218.778 321C219.667 318.111 223.222 312.333 224.333 309.111C225.555 306 222.111 294.666 229.444 279.889C236.778 265.111 240.222 257 250.444 248.666C260.778 240.444 264.222 239.111 265.111 234.889C266 230.666 261.778 226.111 261.778 226.111C261.778 226.111 260 223.889 258.222 222.111C256.444 220.333 251.444 224.555 249 222.555C246.444 220.444 242.222 212.778 242.222 212.778L241.444 211.333C241.444 211.333 231.444 218.222 221.667 227.555C211.889 236.889 195.667 256.666 195.667 256.666L189.333 254.666C189.333 254.666 190.333 227.778 180.889 212.889C171.444 198 162.555 193.889 162.555 193.889L161.111 195.666Z" fill="white"/>
<path d="M223.222 228.333C231.333 220.667 239.444 214.556 242.111 212.667L241.444 211.556C241.444 211.556 231.444 218.445 221.667 227.778C211.889 237.111 195.667 256.889 195.667 256.889L197.222 257.333C197.222 257.445 213.444 237.667 223.222 228.333Z" fill="#BFCBDC"/>
<path d="M152.889 201.666C158.444 198.444 162.667 196.222 162.667 196.222L163.889 195C163 194.444 162.555 194.333 162.555 194.333L161.111 195.777C161.111 195.777 156.889 198 151.333 201.222C147.778 203.333 144.889 204 142.555 203.555C145.222 204.666 148.555 204.111 152.889 201.666Z" fill="#BFCBDC"/>
<path d="M258.444 222.444C258.333 222.444 258.333 222.444 258.444 222.444C257 221 253.444 223.444 250.778 223.333C252.778 224.889 256.222 222.666 258.444 222.444Z" fill="#BFCBDC"/>
<path d="M136.333 320.333C139.111 310.666 144.889 291.111 150.667 273C156.333 254.888 155.222 240.111 153.333 238.777C151.444 237.444 151.333 236.111 152.333 232.888C153.333 229.666 149.889 225.444 144.667 222.444C142.222 221 140.333 220.333 138.333 219.777C139.778 220.333 141.333 220.888 143.111 222C148.333 225 151.778 229.222 150.778 232.444C149.778 235.666 149.889 237 151.778 238.333C153.667 239.666 154.778 254.444 149.111 272.555C143.444 290.666 137.555 310.222 134.778 319.888C132 329.555 133.111 335.222 138.667 337C139 337.111 139.555 337.222 140.222 337.444C134.667 335.666 133.555 330 136.333 320.333Z" fill="#BFCBDC"/>
<path d="M130 216.888C123.444 214.111 128 205.333 131.111 203.111C133.222 201.555 135.444 200.444 137.555 200.666C134.889 199.333 132.333 200.666 129.555 202.555C126.444 204.777 121.889 213.555 128.444 216.333C130.444 217.222 132.222 217.777 133.667 218.222C132.555 217.888 131.333 217.444 130 216.888Z" fill="#BFCBDC"/>
<path d="M255.222 245.222C254 244.222 252.667 243.222 251.333 242.333C241.444 235.778 240.444 225.333 231.222 219.444C228.222 221.889 224.889 224.778 221.667 227.889C219.667 229.778 217.444 232.111 215.111 234.667C228.889 237.333 244.333 240.333 251.667 248.111C253 247 254.222 246.111 255.222 245.222Z" fill="#EAEEF3"/>
<path d="M185.556 223.556C184.556 220.333 183.333 217.111 181.667 214.333C161 214.111 138.222 214 125.778 214C126.333 215 127.111 215.778 128.445 216.333C135 219.111 137.889 218.778 143.111 221.778C146.889 224 149.778 226.778 150.667 229.444C159.111 226.333 176.222 220.667 185.556 223.556Z" fill="#EAEEF3"/>
<path d="M208.667 244.556C208.556 244.556 208.444 244.556 208.444 244.445C208.333 244.334 208.333 244.112 208.444 243.89C208.444 243.89 209 243.334 210 242.223C210.111 242.112 210.333 242.112 210.556 242.223C210.667 242.334 210.667 242.556 210.556 242.779C209.556 243.779 209 244.445 209 244.445C208.889 244.556 208.778 244.556 208.667 244.556Z" fill="#051122"/>
<path d="M212.222 240.889C212.111 240.889 212 240.889 212 240.778C211.889 240.667 211.889 240.445 212 240.223C212.889 239.334 213.889 238.223 215 237.111C215.111 237 215.333 237 215.555 237.111C215.667 237.223 215.667 237.445 215.555 237.667C214.444 238.778 213.444 239.889 212.555 240.778C212.444 240.778 212.333 240.889 212.222 240.889ZM217.333 235.667C217.222 235.667 217.111 235.667 217.111 235.556C217 235.445 217 235.223 217.111 235C218.111 234 219.111 233 220.222 231.889C220.333 231.778 220.555 231.778 220.778 231.889C220.889 232 220.889 232.223 220.778 232.445C219.666 233.556 218.666 234.556 217.666 235.556C217.555 235.556 217.444 235.667 217.333 235.667ZM222.555 230.556C222.444 230.556 222.333 230.556 222.333 230.445C222.222 230.334 222.222 230.111 222.333 229.889C223.333 228.889 224.444 227.889 225.444 226.889C225.555 226.778 225.889 226.778 226 226.889C226.111 227 226.111 227.223 226 227.445C224.889 228.445 223.889 229.445 222.889 230.445C222.667 230.445 222.555 230.556 222.555 230.556ZM227.778 225.556C227.666 225.556 227.555 225.556 227.555 225.445C227.444 225.334 227.444 225 227.555 224.889C228.667 223.889 229.666 222.889 230.778 222C230.889 221.889 231.222 221.889 231.333 222C231.444 222.111 231.444 222.445 231.333 222.556C230.222 223.556 229.222 224.445 228.111 225.445C228 225.445 227.889 225.556 227.778 225.556ZM233.222 220.667C233.111 220.667 233 220.667 232.889 220.556C232.778 220.445 232.778 220.111 232.889 220C234 219 235.222 218 236.222 217.223C236.333 217.111 236.667 217.111 236.778 217.223C236.889 217.334 236.889 217.667 236.778 217.778C235.667 218.667 234.555 219.556 233.444 220.556C233.333 220.667 233.222 220.667 233.222 220.667ZM238.778 216C238.666 216 238.555 216 238.444 215.889C238.333 215.778 238.333 215.445 238.555 215.334C239.889 214.334 241 213.445 242.111 212.778C242.333 212.667 242.555 212.667 242.666 212.889C242.778 213.111 242.778 213.334 242.555 213.445C241.444 214.111 240.333 215 239 216C239 216 238.889 216 238.778 216ZM244.889 212C244.778 212 244.667 211.889 244.555 211.778C244.444 211.556 244.555 211.334 244.666 211.223C246 210.556 247.333 209.889 248.667 209.334C248.889 209.223 249.111 209.334 249.111 209.556C249.222 209.778 249.111 210 248.889 210C247.667 210.556 246.333 211.111 245 211.778C245 212 244.889 212 244.889 212ZM251.555 209.223C251.444 209.223 251.222 209.111 251.222 209C251.111 208.778 251.222 208.556 251.444 208.556C253 208.111 254.444 207.778 255.778 207.667C256 207.667 256.111 207.778 256.222 208C256.222 208.223 256.111 208.334 255.889 208.445C254.555 208.556 253.111 208.778 251.555 209.223C251.666 209.223 251.555 209.223 251.555 209.223Z" fill="#051122"/>
<path d="M260.889 209.111C260.778 209.111 260.778 209.111 260.667 209C260.667 209 260 208.667 258.667 208.445C258.444 208.445 258.333 208.223 258.333 208C258.333 207.778 258.555 207.667 258.778 207.667C260.333 207.889 261 208.334 261.111 208.334C261.333 208.445 261.333 208.667 261.222 208.889C261.111 209 261 209.111 260.889 209.111Z" fill="#051122"/>
<path d="M186.222 235C186 235 185.889 234.889 185.889 234.667C185.889 234.667 185.556 232.889 185 230.334C185 230.111 185.111 229.889 185.222 229.889C185.445 229.889 185.667 230 185.667 230.111C186.333 232.778 186.556 234.556 186.556 234.556C186.667 234.778 186.556 235 186.222 235C186.333 235 186.222 235 186.222 235ZM184.556 227.667C184.445 227.667 184.222 227.556 184.222 227.445C183.778 226 183.333 224.556 182.889 223.222C182.778 223 182.889 222.778 183.111 222.778C183.333 222.667 183.556 222.778 183.556 223C184 224.445 184.445 225.889 184.889 227.334C185 227.445 184.889 227.667 184.556 227.667ZM182.111 220.556C182 220.556 181.778 220.445 181.778 220.334C181.222 218.889 180.667 217.556 180 216.222C179.889 216 180 215.778 180.222 215.778C180.445 215.667 180.667 215.778 180.667 216C181.333 217.334 181.889 218.667 182.445 220.111C182.556 220.334 182.445 220.556 182.222 220.556C182.222 220.556 182.222 220.556 182.111 220.556ZM179 213.778C178.889 213.778 178.778 213.667 178.667 213.556C177.889 212.222 177.111 210.889 176.333 209.778C176.222 209.556 176.222 209.334 176.445 209.222C176.667 209.111 176.889 209.111 177 209.334C177.778 210.556 178.556 211.889 179.333 213.222C179.445 213.445 179.333 213.667 179.222 213.778C179.111 213.778 179.111 213.778 179 213.778ZM174.889 207.556C174.778 207.556 174.667 207.556 174.556 207.445C173.556 206.222 172.556 205.111 171.556 204.111C171.445 204 171.445 203.778 171.556 203.556C171.667 203.445 171.889 203.445 172.111 203.556C173.222 204.556 174.222 205.667 175.222 206.889C175.333 207 175.333 207.334 175.111 207.445C175.111 207.445 175 207.556 174.889 207.556ZM169.667 202.222C169.556 202.222 169.556 202.222 169.445 202.111C168.333 201.222 167.111 200.334 165.889 199.445C165.667 199.334 165.667 199.111 165.778 198.889C165.889 198.667 166.111 198.667 166.333 198.778C167.667 199.667 168.889 200.556 170 201.445C170.111 201.556 170.222 201.778 170.111 202C169.889 202.222 169.778 202.222 169.667 202.222ZM163.445 198C163.333 198 163.333 198 163.222 198C162 197.222 160.667 196.556 159.333 195.889C159.111 195.778 159.111 195.556 159.222 195.334C159.333 195.111 159.556 195.111 159.778 195.222C161.111 195.889 162.445 196.667 163.778 197.445C164 197.556 164 197.778 163.889 198C163.667 197.889 163.556 198 163.445 198ZM156.778 194.556H156.667C155.333 194 153.889 193.334 152.556 192.778C152.333 192.667 152.222 192.445 152.333 192.334C152.445 192.111 152.667 192 152.778 192.111C154.222 192.667 155.556 193.222 157 193.889C157.222 194 157.222 194.222 157.222 194.334C157.111 194.445 156.889 194.556 156.778 194.556ZM149.778 191.778H149.667C148.222 191.334 146.778 190.889 145.333 190.445C145.111 190.445 145 190.222 145.111 190C145.111 189.778 145.333 189.667 145.556 189.778C147 190.111 148.445 190.667 149.889 191.111C150.111 191.222 150.222 191.445 150.111 191.556C150.111 191.667 150 191.778 149.778 191.778Z" fill="#051122"/>
<path d="M190.778 257.778C187.111 256.333 182 255.222 182.333 249.778C182.778 244.333 183.889 238 184.889 236C186 234 189 231.555 199.222 235.555C209.444 239.555 209.889 243.555 206.889 248.778C203.778 254.111 199.556 260.444 196.111 259.444C192.667 258.555 190.778 257.778 190.778 257.778Z" fill="#051122"/>
<path d="M196.333 258.444C195.778 255.666 199.667 252.555 197.889 250.222C196.111 247.889 192.444 247.222 192.444 247.222C192.444 247.222 190.778 247.111 188.555 248.222C186.444 249.333 187.778 253.777 186.111 256.222C184.333 258.666 181.889 262 181.555 266.889C181.222 271.666 191 275.222 194.111 270.666C197.333 266.111 196.889 261.222 196.333 258.444ZM187.111 268.444C184.333 267 186.222 262.555 186.222 262.555C186.889 260.333 194.222 260.555 193.222 265C192.111 269.444 189.778 269.889 187.111 268.444ZM190.778 255C188.222 253.777 189.778 250.444 189.778 250.444C190.222 248.777 196.889 249.333 196.111 252.666C195.333 256 193.222 256.333 190.778 255Z" fill="#051122"/>
<path d="M194.555 240.111C193.333 241.555 194.222 243 193.667 244.333C193.111 245.666 192 248.444 191.444 249.111C190.889 249.889 189.778 251.111 190.222 252.222C190.667 253.333 193.778 255.111 195.444 253.444C197.111 251.778 200.333 244 200 241.889C199.555 239.889 195.889 238.555 194.555 240.111Z" fill="#133F7E"/>
<path fill-rule="evenodd" clip-rule="evenodd" d="M164.111 276.223L167.778 275.112C167 270 163.111 271.223 163.111 271.223C162.444 273.223 163.111 274.778 164.111 276.223Z" fill="#F2C900"/>
<path fill-rule="evenodd" clip-rule="evenodd" d="M164.889 271.223C163.889 271.001 163.111 271.223 163.111 271.223C162.778 272.889 163.445 274.223 164.333 275.556C164.111 276.334 162.889 272.334 164.889 271.223Z" fill="#E69716"/>
<path fill-rule="evenodd" clip-rule="evenodd" d="M160.667 286.556C161.333 284.667 160.667 283 159.667 281.556L155.889 282.667C156.667 287.667 160.667 286.556 160.667 286.556Z" fill="#F2C900"/>
<path fill-rule="evenodd" clip-rule="evenodd" d="M159.667 281.556C159.667 281.556 160.889 285 158.778 286.556C159.667 286.778 160.556 286.556 160.556 286.556C160.556 286.556 160.556 286.556 160.556 286.445C161.111 284.333 160.556 282.889 159.667 281.556Z" fill="#E69716"/>
<path fill-rule="evenodd" clip-rule="evenodd" d="M163.111 271.223L160.333 272C157.222 272.889 155.889 276.667 157.889 279.223C159.556 281.445 161.556 283.445 160.556 286.445L163.445 285.667C166.556 284.778 167.889 281 165.889 278.445C164.111 276.334 162.111 274.223 163.111 271.223Z" fill="#1B4180"/>
<path fill-rule="evenodd" clip-rule="evenodd" d="M159.333 272.778L159.778 272.667C159.778 272.667 159.111 273.334 158.778 274.111C158.556 274.111 158 274.223 158 274.223C158 274.223 158.444 273.334 159.333 272.778Z" fill="white"/>
<path fill-rule="evenodd" clip-rule="evenodd" d="M164.333 285.223L163.889 285.334C163.889 285.334 164.556 284.667 164.889 283.778C165.111 283.778 165.667 283.667 165.667 283.667C165.667 283.667 165.222 284.556 164.333 285.223Z" fill="white"/>
<path fill-rule="evenodd" clip-rule="evenodd" d="M160.333 281.001C160.111 280.779 159.889 280.556 159.667 280.334C159.333 279.779 159.222 279.001 159.333 278.334C159.556 277.667 159.889 277.112 160.556 276.779C161.445 276.223 162.667 276.334 163.445 277.001C163.667 277.223 163.889 277.445 164.111 277.667C164.445 278.223 164.556 279.001 164.445 279.667C164.222 280.334 163.889 280.89 163.222 281.223C162.333 281.779 161.111 281.667 160.333 281.001Z" fill="white"/>
<path fill-rule="evenodd" clip-rule="evenodd" d="M162.778 279.111C162.667 279.334 162.556 279.556 162.333 279.667C162.111 279.778 161.889 279.778 161.667 279.778C161.556 279.778 161.445 279.667 161.445 279.667C161.333 279.556 161.333 279.556 161.222 279.445C161.111 279.223 161.111 279 161.111 278.778C161.222 278.556 161.333 278.334 161.556 278.223C161.778 278.111 162 278.111 162.222 278.111C162.333 278.111 162.445 278.223 162.445 278.223L163.667 277.889C163.556 277.667 163.333 277.445 163.222 277.334C163 277.223 162.778 277.111 162.556 277C162 276.778 161.445 276.889 160.889 277.223C160.445 277.445 160.111 277.889 160 278.445C159.889 279 160 279.556 160.222 280C160.333 280.223 160.556 280.445 160.667 280.556C160.889 280.667 161.111 280.778 161.333 280.889C161.889 281.111 162.445 281 163 280.667C163.445 280.445 163.778 280 163.889 279.445C164 279.223 164 279 163.889 278.778L162.778 279.111Z" fill="#F2C900"/>
<path fill-rule="evenodd" clip-rule="evenodd" d="M176.889 280.001C177 280.112 177 280.112 177 280.223L176.556 281.112C176.444 281.223 176.444 281.223 176.333 281.223L174.222 280.556C173.778 280.445 173.444 280.445 173.333 280.779V280.89C173.222 281.112 173.333 281.334 173.667 281.556L174.889 282.556C175.667 283.223 175.667 283.89 175.222 284.556L175.111 284.779C174.444 286.001 173.333 286.112 171.889 285.556C170.889 285.223 170.111 284.89 169.556 284.668C169.444 284.668 169.333 284.556 169.444 284.445L169.889 283.556C169.889 283.445 170 283.445 170.111 283.445L172.444 284.223C173 284.445 173.222 284.445 173.444 284.112V284.001C173.556 283.779 173.444 283.556 173.111 283.334L172 282.445C171.222 281.89 171.333 281.112 171.667 280.445L171.778 280.223C172.333 279.001 173.556 279.001 175.111 279.445C175.667 279.445 176.222 279.779 176.889 280.001Z" fill="#1B4180"/>
<path fill-rule="evenodd" clip-rule="evenodd" d="M178.556 284.556C178 284.334 177.667 284.445 177.445 285.001C177.222 285.556 177.333 285.778 178.111 286.001C178.333 286.112 178.889 286.223 179.333 286.223L180 285.001L178.556 284.556ZM182.445 283.778L180.556 287.556C180.445 287.778 180.333 287.778 180.111 287.778C179.222 287.667 178.222 287.445 177.445 287.223C175.778 286.667 174.889 286.223 175.778 284.445C176.556 283.001 177.445 282.89 179 283.334L180.445 283.778L180.667 283.334C180.889 282.778 180.667 282.445 180 282.223L178 281.556C177.889 281.556 177.889 281.445 177.889 281.334L178.333 280.445C178.445 280.334 178.445 280.334 178.556 280.334C179.333 280.445 180 280.556 180.667 280.778C182.778 281.778 183 282.667 182.445 283.778Z" fill="#1B4180"/>
<path fill-rule="evenodd" clip-rule="evenodd" d="M189.111 281.334C189.222 281.445 189.222 281.445 189.222 281.556L188.778 282.445C188.667 282.556 188.667 282.556 188.445 282.556L187.556 282.223C187.111 282.112 186.889 282.112 186.667 282.445L186.333 283.001L187.778 283.445C187.889 283.445 187.889 283.556 187.778 283.667L187.111 284.556C187 284.667 187 284.667 186.889 284.667L185.778 284.334L183.444 289.001C183.333 289.112 183.333 289.112 183.222 289.112L181.889 288.667C181.778 288.667 181.778 288.556 181.778 288.445L184.111 283.778L183.333 283.556C183.222 283.556 183.111 283.445 183.222 283.334L183.667 282.445C183.667 282.334 183.778 282.334 183.889 282.334L184.667 282.556L185.111 281.667C185.778 280.334 186.889 280.445 187.889 280.778C188.333 280.889 188.778 281.112 189.111 281.334Z" fill="#1B4180"/>
<path fill-rule="evenodd" clip-rule="evenodd" d="M188.778 286.668L191 287.334C191.444 286.334 191.333 286.001 190.556 285.779C189.667 285.556 189.222 285.779 188.778 286.668ZM192.444 288.334L192.222 288.667C192.111 288.89 192 288.89 191.667 288.89L188.111 287.779C187.667 288.779 187.778 289.001 188.778 289.334L190.778 290.001C190.889 290.001 190.889 290.112 190.889 290.223L190.444 291.112C190.333 291.223 190.333 291.223 190.222 291.223C189.556 291.112 188.778 290.89 188 290.668C185.778 289.89 185.444 289.112 186.778 286.668C188 284.112 188.889 283.667 191.222 284.445C193.444 285.112 193.667 285.89 192.444 288.334Z" fill="#1B4180"/>
<path fill-rule="evenodd" clip-rule="evenodd" d="M199.333 287.223C199.444 287.334 199.444 287.334 199.444 287.556L199 288.445C198.889 288.556 198.889 288.556 198.667 288.556L196.778 288.001C195.778 287.668 195.333 288.001 194.667 289.334C194 290.667 194 291.112 195 291.445L196.889 292.001C197 292.001 197 292.112 197 292.223L196.556 293.112C196.444 293.223 196.444 293.334 196.222 293.223C195.556 293.112 194.667 292.89 194.222 292.779C191.778 292.001 191.556 291.223 192.889 288.667C194.111 286.112 194.889 285.667 197.444 286.445C198 286.667 198.778 286.89 199.333 287.223Z" fill="#F2C900"/>
<path fill-rule="evenodd" clip-rule="evenodd" d="M200.667 291.668C200.111 291.446 199.778 291.557 199.556 292.112C199.333 292.668 199.445 292.89 200.222 293.112C200.445 293.224 201 293.335 201.445 293.335L202.111 292.112L200.667 291.668ZM204.556 290.89L202.667 294.668C202.556 294.89 202.445 294.89 202.222 294.89C201.333 294.779 200.333 294.557 199.556 294.335C197.889 293.779 197 293.335 197.889 291.557C198.667 290.112 199.556 290.001 201.111 290.446L202.556 290.89L202.778 290.446C203 289.89 202.778 289.557 202.111 289.335L200 288.89C199.889 288.89 199.889 288.779 199.889 288.668L200.333 287.779C200.445 287.668 200.445 287.668 200.556 287.668C201.333 287.779 202 287.89 202.667 288.112C205 288.89 205.111 289.668 204.556 290.89Z" fill="#F2C900"/>
<path fill-rule="evenodd" clip-rule="evenodd" d="M210.667 290.778C210.778 290.889 210.778 290.889 210.778 291L210.333 291.889C210.222 292 210.222 292 210.111 292L208 291.334C207.556 291.223 207.222 291.223 207.111 291.556V291.667C207 291.889 207.111 292.112 207.445 292.334L208.667 293.334C209.445 294 209.445 294.667 209 295.334L208.889 295.556C208.222 296.778 207.111 296.889 205.667 296.334C204.667 296 203.889 295.667 203.333 295.445C203.222 295.445 203.111 295.334 203.222 295.223L203.667 294.334C203.667 294.223 203.778 294.223 203.889 294.223L206.222 295C206.778 295.223 207 295.223 207.222 294.889V294.778C207.333 294.556 207.222 294.334 206.889 294.112L205.778 293.223C205 292.667 205.111 291.889 205.445 291.223L205.556 291C206.111 289.778 207.333 289.778 208.889 290.223C209.333 290.223 210 290.445 210.667 290.778Z" fill="#F2C900"/>
<path d="M209 297.223V297.112C209.111 297.112 209.111 297.001 209.111 297.001C209.556 296.112 210 295.223 210.444 294.223C211.333 292.556 212.111 290.89 213 289.223C213.111 289.001 213.222 289.001 213.333 289.112C213.778 289.223 214.222 289.334 214.556 289.556C214.778 289.668 214.667 289.779 214.556 289.89C214.222 290.445 214 291.112 213.667 291.668C213.556 291.89 213.556 291.89 213.778 292.001C214.444 292.112 215.111 292.334 215.778 292.668C216.667 293.001 216.889 293.556 216.778 294.334C216.556 295.001 216.333 295.556 216 296.223C215.556 297.112 215 298.112 214.556 299.001C214.444 299.223 214.333 299.223 214.111 299.112C213.667 299.001 213.333 298.89 212.889 298.779C212.778 298.779 212.667 298.668 212.778 298.556C212.778 298.556 212.778 298.445 212.889 298.445C213.222 297.668 213.667 296.89 214 296.223C214.222 295.668 214.556 295.223 214.667 294.668C214.778 294.223 214.667 294.001 214.222 293.89C213.778 293.779 213.333 293.668 213 293.445C212.889 293.445 212.778 293.445 212.778 293.556C212.444 294.223 212.111 294.89 211.778 295.556C211.333 296.334 211 297.112 210.556 297.89C210.444 298.001 210.333 298.112 210.222 298.001C209.778 297.89 209.444 297.779 209 297.668C209.111 297.334 209 297.334 209 297.223Z" fill="#F2C900"/>
<path d="M247.444 210.444L251.333 217.333C251.667 217.889 252.333 218.111 252.889 217.777C253.444 217.444 253.667 216.777 253.333 216.111L249.555 209.333C249.555 209.333 247.889 209.777 247.444 210.444Z" fill="#051122"/>
<path d="M213.889 345.778C214.667 342.333 215.333 338.778 216 335.222C202.778 333.667 193.778 330.667 205 331C208.556 331.111 212.556 331 216.889 330.667C217.445 327.889 217.889 325.333 218.222 323.556L135.667 317C135.333 318 135.111 319 134.889 319.778C134.111 322.333 133.667 324.667 133.556 326.667C135.556 326.778 137.889 327 140.445 327.222C162.667 328.889 166.556 334.111 155.111 334.889C150.333 335.222 143.667 335.778 137.556 336.333C138.222 336.667 139 337 139.778 337.222C143.556 338.444 154.111 341.778 165.667 345.444C182.111 346 200 346.556 213.667 347C213.667 346.667 213.778 346.222 213.889 345.778Z" fill="#EAEEF3"/>
<path d="M146.111 199.111C147.645 199.111 148.889 197.868 148.889 196.333C148.889 194.799 147.645 193.556 146.111 193.556C144.577 193.556 143.333 194.799 143.333 196.333C143.333 197.868 144.577 199.111 146.111 199.111Z" fill="#051122"/>
<path d="M199.889 36.5552C201.607 36.5552 203 35.1623 203 33.4441C203 31.7259 201.607 30.333 199.889 30.333C198.171 30.333 196.778 31.7259 196.778 33.4441C196.778 35.1623 198.171 36.5552 199.889 36.5552Z" fill="#051122"/>
<path d="M282.222 54.4449L285.778 60.1116C285.889 60.3338 286 60.556 286 60.8894V67.556C286 68.6671 287.222 69.3338 288.111 68.6671L293.778 65.1116C294 65.0005 294.222 64.8894 294.556 64.8894H301.222C302.333 64.8894 303 63.6671 302.333 62.7782L298.778 57.1116C298.667 56.8894 298.556 56.6671 298.556 56.3338V49.6671C298.556 48.556 297.333 47.8894 296.444 48.556L290.778 52.1116C290.556 52.2227 290.333 52.3338 290 52.3338H283.333C282.333 52.3338 281.667 53.556 282.222 54.4449Z" fill="white"/>
<path d="M278.222 81.444L281.111 81.6662C281.222 81.6662 281.333 81.6662 281.445 81.7773L283.778 83.5551C284.111 83.8884 284.667 83.5551 284.778 83.1107L285 80.2218C285 80.1107 285 79.9996 285.111 79.8884L286.889 77.5551C287.222 77.2218 286.889 76.6662 286.444 76.5551L283.556 76.3329C283.444 76.3329 283.333 76.3329 283.222 76.2218L280.889 74.444C280.556 74.1107 280 74.444 279.889 74.8885L279.667 77.7773C279.667 77.8884 279.667 77.9996 279.556 78.1107L277.778 80.444C277.556 80.8884 277.778 81.444 278.222 81.444Z" fill="white"/>
<path d="M223.555 33.6667L210.889 34.5556C210.111 34.5556 209.555 34.1111 209.444 33.3333C209.444 32.5556 209.889 32 210.667 31.8889L223.333 31C224.111 31 224.667 31.4444 224.778 32.2222C224.889 33 224.333 33.6667 223.555 33.6667Z" fill="#051122"/>
<defs>
<radialGradient id="paint0_radial" cx="0" cy="0" r="1" gradientUnits="userSpaceOnUse" gradientTransform="translate(208.568 210.504) rotate(1.04163) scale(174.384)">
<stop stop-color="#28508A"/>
<stop offset="1" stop-color="#28508A" stop-opacity="0"/>
</radialGradient>
</defs>
</svg>
