<svg width="400" height="400" viewBox="0 0 400 400" fill="none" xmlns="http://www.w3.org/2000/svg">
<path d="M225.333 40.5557C181.222 35.0002 135.111 50.6668 99.8889 80.5557C63.1111 111.778 36.5556 158.889 24 211.222C18.1111 235.445 15.1111 261.778 20.5556 286.334C28.5556 322.111 55.2222 351 88.3333 358C117.222 364.111 147.222 354.333 176.778 352.889C217.556 350.889 259.111 365.111 299.556 359.222C311.889 357.445 324.111 353.556 333.556 345C351.667 328.445 355.333 297.889 351.778 271C348.222 245 339.222 220.445 335.111 196.111C332.333 179.445 331.778 163.111 328.222 147.334C323 124.445 311.556 103.778 299.556 84.6668C294.333 76.2224 288.778 67.889 281.222 61.6668C264.889 48.3335 247.778 44.0002 225.333 40.5557Z" fill="#EAEEF3"/>
<path d="M242.556 72.4443H196.556V118.444H242.556V72.4443Z" fill="#BFCBDC"/>
<path d="M297.556 81.7779C295.556 78.6668 293.444 75.5557 291.222 72.5557H251.556V118.556H297.556V81.7779Z" fill="#BFCBDC"/>
<path d="M242.556 126.222H196.556V172.222H242.556V126.222Z" fill="#BFCBDC"/>
<path d="M297.556 126.222H251.556V172.222H297.556V126.222Z" fill="#BFCBDC"/>
<path d="M352.889 292.667C147.889 268.556 63.4444 290.334 29 310C41.3333 334.334 62.8889 352.556 88.2222 358C117.111 364.111 147.111 354.334 176.667 352.889C208.667 351.334 241.111 359.778 273.222 360.556C276.111 360.667 279 360.667 281.889 360.556C287.778 360.445 293.667 360 299.444 359.111C311.778 357.334 324 353.445 333.444 344.889C346.778 332.667 352.333 313 352.889 292.667Z" fill="#DEE4ED"/>
<path d="M308.889 248.222C308.556 245.445 308.222 242.667 306.889 240.222C305.333 237.222 302.556 235.111 300.222 232.667C295.778 228.222 292.333 222.778 290.222 216.778C288.667 212.222 287.889 207.222 285.667 202.889C284.333 200.222 282.444 197.889 281 195.334C277.444 189.334 275.444 182.111 270.556 177.111C269.667 183.222 271.444 189.778 275.556 194.445C276.778 195.889 278.111 197.111 279.111 198.667C280.778 201.556 280.667 205.111 280.778 208.445C281.111 214.778 282.889 221 285.889 226.445C289.111 232.334 293.667 237.556 295.444 244C296.778 248.889 296.333 254.334 299.111 258.556C299.444 259 299.778 259.445 299.778 260C299.778 260.334 299.778 260.556 299.778 260.889C299.667 261.334 299.667 261.667 299.556 262.111C298.889 266.111 298.333 271.111 301.667 274.111C304 276.222 307.111 276.222 308.778 273.445C310.444 270.667 310.333 266.667 310.222 263.556C310.111 258.556 309.556 253.334 308.889 248.222Z" fill="#5373A1"/>
<path d="M315.111 245C313.778 240.445 311.667 236 310.667 231.334C309.667 226.778 309.667 222.111 309.667 217.445C309.667 212.334 309.667 207.222 309.667 202.222C309.667 199 309.667 195.889 309.111 192.778C308 186.111 304.444 179.889 303.889 173C303.667 170.111 303.889 167.111 303.556 164.111C303.333 162.445 302.889 160.778 302.222 159.222C301.444 157.667 299.111 157.667 298.333 159.334C296.667 163 295.556 167 296.222 170.889C296.667 173.222 297.667 175.445 298.444 177.778C301.889 187.889 300 199.111 302.667 209.445C303.444 212.556 304.667 215.667 304.778 218.889C305.111 226.556 299.333 233.667 299.889 241.334C300.333 247.667 304.889 252.889 306.778 258.889C307.889 262.222 308.111 265.889 309.222 269.222C310.111 271.778 312.222 275 315.333 274.222C318.333 273.445 317.444 271 317.333 268.667C316.889 260.667 317.333 252.889 315.111 245Z" fill="#133F7E"/>
<path d="M322.111 249.223C322 246.778 321.556 244.445 321.889 242.112C322.222 240.112 323 238.223 323.556 236.334C324.667 232.667 324.889 228.889 325.111 225.112C325.556 218.223 326 211.334 326.556 204.556C327.333 193.889 328 183.223 330 172.667C330.556 169.778 331.222 166.556 329.889 163.889C329.667 163.334 329.111 162.778 328.444 162.889C328 163 327.778 163.445 327.667 163.889C323.333 175.778 321.667 188.556 316.778 200.223C315.556 203 314.222 205.778 313.667 208.778C312.889 212.334 313.333 216 313.444 219.667C313.556 224.889 313.111 230.112 311.667 235.112C310.889 237.778 309.889 240.334 309.444 243C308.889 246.334 309.333 249.778 309.667 253.223C310.333 259.778 310.444 266.334 310.333 272.778C310.222 276.667 313.444 276.556 315.556 274.112C317.111 272.445 317 270.667 317.556 268.556C319.222 261.778 322.444 256.556 322.111 249.223Z" fill="#5373A1"/>
<path d="M301.778 259.667C298.889 255.111 293.222 252.445 291.333 247.334C290.889 246 290.667 244.667 290.111 243.334C288.889 240.556 286 239 283.111 237.667C282.667 237.445 282.222 237.778 282.222 238.222C282.222 238.889 282.556 239.556 283.111 240C285.333 241.445 287 243.667 287.667 246.222C288.556 249.222 288.111 252.556 289.222 255.445C290.111 257.889 292 259.889 292.889 262.334C293.667 264.556 293.556 267 294 269.445C294.333 271.778 295.444 274.334 297.556 275.334C305.556 278.889 303.667 262.667 301.778 259.667Z" fill="#133F7E"/>
<path d="M334.444 258.111C334.333 260.333 334.667 262.667 333.778 264.778C333.222 266.111 332.222 267.111 331.444 268.333C328.556 272.445 327.556 278.222 323.111 280.556C322.778 280.667 322.444 280.889 322.111 280.778C321.667 280.667 321.333 280.222 321.222 279.778C320.111 277.222 321.333 274.333 322.111 271.667C322.222 271.222 322.333 270.667 322.111 270.222C321.889 269.778 321.333 269.556 320.889 269.222C320.111 268.445 320.222 267.222 320.333 266.222C320.667 263.556 321.222 261 321.889 258.445C322.222 257 322.667 255.556 323.556 254.333C324.444 253 325.778 251.889 327.111 250.889C332.667 246.111 336.889 239.889 339.222 233C339.778 231.556 340.222 229.889 341.222 228.778C342.222 227.667 344.222 227 345.444 227.889C346.333 228.556 342.556 234.556 342.111 235.333C340.889 237.445 340.889 239.222 340.111 241.556C338.444 247 334.778 252.111 334.444 258.111Z" fill="#5373A1"/>
<path d="M330.111 260.667C330.889 258.556 331.778 256.334 332 254.111C332.333 251.556 331.889 249 332.333 246.556C332.889 243.334 334.778 240.556 335.667 237.445C336.333 235.223 336.556 232.778 336.889 230.556C338 223.889 341.111 217.445 340.222 210.778C340 209.334 339.333 207.667 337.889 207.445C336.556 207.223 335.444 208.445 335.111 209.667C334.778 211 335 212.334 335.111 213.667C335.333 217.334 334.333 221.111 332.222 224.111C330.222 227 327.222 229.223 325.333 232.223C323.111 235.889 322.778 240.445 321.667 244.667C319.333 253 313.667 260.334 312.556 268.889C312.111 272.334 312.889 276.445 316.111 277.778C325.222 281.667 328 266.111 330.111 260.667Z" fill="#133F7E"/>
<path d="M314.111 271.333H312.667H293.222C291.778 271.333 290.778 272.667 291.111 274.111L298.778 306.334C299 307.334 299.889 308 300.889 308H312.778H314.222H326.111C327.111 308 328 307.334 328.222 306.334L335.889 274.111C336.222 272.667 335.111 271.333 333.778 271.333H314.111Z" fill="#0A2245"/>
<path d="M104.556 96.1112C77.1111 96.7778 -29.1111 298.889 101.778 318.222C232.667 337.556 280.556 307.111 276.889 238C275.111 205.111 222.333 201.889 191.222 175.333C156.778 146.111 142.222 95.1112 104.556 96.1112Z" fill="#070C12"/>
<path d="M112.444 99.8888C112 99.8888 111.667 99.6666 111.556 99.2221C111.444 98.7777 111.667 98.2221 112.111 98.111C112.889 97.8888 113.667 97.6666 114.444 97.5555C115 97.4444 115.444 97.7777 115.556 98.3332C115.667 98.8888 115.333 99.3332 114.778 99.4444C114.111 99.5555 113.333 99.7777 112.667 99.9999C112.667 99.8888 112.556 99.8888 112.444 99.8888Z" fill="white"/>
<path d="M156.444 290.667C155.889 290.667 155.556 290.222 155.556 289.778C155.556 289.222 156 288.889 156.444 288.889C158 288.889 159.556 288.778 161.111 288.778C161.667 288.778 162 289.111 162.111 289.667C162.111 290.222 161.778 290.556 161.222 290.667C159.444 290.667 157.889 290.667 156.444 290.667ZM151.778 290.667C150.222 290.667 148.667 290.556 147.111 290.556C146.556 290.556 146.222 290.111 146.222 289.556C146.222 289 146.667 288.667 147.222 288.667C148.778 288.778 150.333 288.778 151.889 288.778C152.444 288.778 152.778 289.222 152.778 289.667C152.667 290.333 152.222 290.667 151.778 290.667ZM165.667 290.333C165.222 290.333 164.778 290 164.778 289.444C164.778 288.889 165.111 288.444 165.667 288.444C167.222 288.333 168.778 288.222 170.333 288.111C170.889 288.111 171.333 288.444 171.333 289C171.333 289.556 171 290 170.444 290C168.889 290.111 167.333 290.222 165.667 290.333C165.778 290.333 165.667 290.333 165.667 290.333ZM142.444 290.222C140.778 290.111 139.222 290 137.667 289.778C137.111 289.667 136.778 289.222 136.889 288.778C137 288.222 137.444 287.889 137.889 288C139.333 288.222 140.889 288.333 142.444 288.444C143 288.444 143.333 288.889 143.333 289.444C143.333 289.889 142.889 290.222 142.444 290.222ZM175 289.556C174.556 289.556 174.111 289.222 174.111 288.778C174.111 288.222 174.444 287.778 174.889 287.778C176.444 287.667 177.889 287.444 179.444 287.222C180 287.111 180.444 287.556 180.444 288C180.556 288.556 180.111 289 179.667 289C178.111 289.222 176.556 289.444 175 289.556ZM133.222 289.222H133.111C131.556 289 130 288.667 128.444 288.444C128 288.333 127.667 287.889 127.667 287.333C127.778 286.889 128.222 286.556 128.778 286.556C130.222 286.889 131.778 287.111 133.333 287.333C133.889 287.444 134.222 287.889 134.111 288.333C134.111 288.889 133.667 289.222 133.222 289.222ZM184.222 288.444C183.778 288.444 183.333 288.111 183.333 287.667C183.222 287.111 183.667 286.667 184.111 286.667C185.667 286.444 187.111 286.222 188.667 286C189.222 285.889 189.667 286.222 189.667 286.778C189.778 287.333 189.444 287.778 188.889 287.778C187.333 288 185.778 288.222 184.222 288.444C184.333 288.444 184.222 288.444 184.222 288.444ZM124.111 287.444C124 287.444 124 287.444 123.889 287.444C122.333 287.111 120.778 286.667 119.333 286.222C118.889 286.111 118.556 285.556 118.667 285.111C118.778 284.667 119.333 284.333 119.778 284.444C121.222 284.889 122.667 285.333 124.222 285.667C124.667 285.778 125 286.333 124.889 286.778C124.889 287.111 124.556 287.444 124.111 287.444ZM193.444 287C193 287 192.667 286.667 192.556 286.222C192.444 285.667 192.778 285.222 193.333 285.111C194.889 284.889 196.333 284.556 197.889 284.333C198.333 284.222 198.889 284.556 199 285.111C199.111 285.667 198.778 286.111 198.222 286.222C196.667 286.556 195.111 286.778 193.667 287C193.556 287 193.444 287 193.444 287ZM202.556 285.333C202.111 285.333 201.778 285 201.667 284.556C201.556 284.111 201.889 283.556 202.444 283.444C203.889 283.111 205.444 282.889 207 282.556C207.444 282.444 208 282.778 208.111 283.222C208.222 283.667 207.889 284.222 207.444 284.333C205.889 284.667 204.333 285 202.889 285.222C202.667 285.333 202.556 285.333 202.556 285.333ZM115.222 284.667C115.111 284.667 115 284.667 114.889 284.556C113.444 284 111.889 283.444 110.556 282.778C110.111 282.556 109.889 282 110.111 281.556C110.333 281.111 110.889 280.889 111.333 281.111C112.667 281.667 114.111 282.333 115.556 282.778C116 283 116.333 283.444 116.111 284C115.889 284.444 115.556 284.667 115.222 284.667ZM211.667 283.444C211.222 283.444 210.889 283.111 210.778 282.778C210.667 282.333 211 281.778 211.444 281.667C213 281.333 214.444 280.889 215.889 280.556C216.333 280.444 216.889 280.667 217 281.222C217.111 281.667 216.889 282.222 216.333 282.333C214.889 282.778 213.333 283.111 211.778 283.444H211.667ZM220.667 281C220.222 281 219.889 280.778 219.778 280.333C219.667 279.889 219.889 279.333 220.444 279.222C221.889 278.778 223.444 278.333 224.889 277.889C225.333 277.778 225.889 278 226 278.444C226.111 278.889 225.889 279.444 225.444 279.556C224 280 222.444 280.444 221 280.889C220.778 281 220.778 281 220.667 281ZM106.667 281C106.556 281 106.333 281 106.222 280.889C104.778 280.111 103.444 279.333 102.111 278.556C101.667 278.333 101.556 277.667 101.778 277.333C102 276.889 102.667 276.778 103 277C104.333 277.778 105.667 278.556 107 279.222C107.444 279.444 107.667 280 107.444 280.444C107.333 280.778 107 281 106.667 281ZM229.444 278.111C229.111 278.111 228.667 277.889 228.556 277.556C228.333 277.111 228.667 276.556 229.111 276.333C230.556 275.778 232 275.222 233.444 274.667C233.889 274.444 234.444 274.667 234.667 275.222C234.889 275.667 234.667 276.222 234.111 276.444C232.667 277 231.222 277.556 229.778 278.111C229.667 278.111 229.556 278.111 229.444 278.111ZM98.7778 276.111C98.5556 276.111 98.4444 276 98.2222 275.889C97 275 95.6667 274 94.5555 273C94.2222 272.667 94.1111 272.111 94.4444 271.667C94.7778 271.333 95.3333 271.222 95.7778 271.556C96.8889 272.556 98.1111 273.444 99.3333 274.333C99.7778 274.667 99.8889 275.222 99.5555 275.667C99.3333 276 99.1111 276.111 98.7778 276.111ZM238.111 274.667C237.778 274.667 237.444 274.444 237.222 274.111C237 273.667 237.222 273.111 237.667 272.889C239.111 272.222 240.444 271.556 241.889 270.889C242.333 270.667 242.889 270.889 243.111 271.333C243.333 271.778 243.111 272.333 242.667 272.556C241.333 273.222 239.889 273.889 238.444 274.556C238.333 274.667 238.222 274.667 238.111 274.667ZM246.444 270.556C246.111 270.556 245.778 270.333 245.667 270.111C245.444 269.667 245.556 269.111 246 268.889C247.333 268.111 248.667 267.333 250 266.556C250.444 266.333 251 266.444 251.222 266.889C251.444 267.333 251.333 267.889 250.889 268.111C249.556 268.889 248.222 269.667 246.778 270.444C246.778 270.556 246.556 270.556 246.444 270.556ZM91.7778 270.111C91.5555 270.111 91.3333 270 91.1111 269.889C90 268.778 88.8889 267.556 87.8889 266.444C87.5555 266 87.5555 265.444 88 265.111C88.3333 264.778 89 264.778 89.3333 265.222C90.3333 266.333 91.3333 267.556 92.4444 268.556C92.7778 268.889 92.7778 269.556 92.4444 269.889C92.2222 270 92 270.111 91.7778 270.111ZM254.333 265.667C254 265.667 253.778 265.556 253.556 265.222C253.222 264.778 253.333 264.222 253.778 263.889C255 263 256.333 262.111 257.556 261.222C258 260.889 258.556 261 258.889 261.444C259.222 261.889 259.111 262.444 258.667 262.778C257.444 263.667 256.111 264.667 254.889 265.556C254.778 265.667 254.556 265.667 254.333 265.667ZM85.7778 263C85.4444 263 85.2222 262.889 85 262.667C84.1111 261.444 83.2222 260.111 82.4444 258.778C82.2222 258.333 82.3333 257.778 82.7778 257.556C83.2222 257.333 83.7778 257.444 84 257.889C84.7778 259.222 85.6667 260.444 86.5555 261.667C86.8889 262.111 86.7778 262.667 86.3333 263C86.1111 262.889 86 263 85.7778 263ZM261.778 260.111C261.556 260.111 261.222 260 261.111 259.778C260.778 259.333 260.889 258.778 261.222 258.444C262.444 257.444 263.556 256.444 264.667 255.444C265 255.111 265.667 255.111 266 255.444C266.333 255.778 266.333 256.444 266 256.778C264.889 257.889 263.667 258.889 262.444 259.889C262.222 260 262 260.111 261.778 260.111ZM81 255C80.6667 255 80.3333 254.778 80.2222 254.444C79.5555 253.111 78.8889 251.667 78.2222 250.111C78 249.667 78.2222 249.111 78.6667 248.889C79.1111 248.667 79.6667 248.889 79.8889 249.333C80.4444 250.778 81.1111 252.111 81.7778 253.556C82 254 81.7778 254.556 81.3333 254.778C81.2222 255 81.1111 255 81 255ZM268.556 253.778C268.333 253.778 268.111 253.667 267.889 253.556C267.556 253.222 267.556 252.667 267.889 252.222C268.889 251.111 270 250 271 248.778C271.333 248.444 271.889 248.333 272.333 248.667C272.667 249 272.778 249.556 272.444 250C271.444 251.222 270.333 252.333 269.333 253.556C269.111 253.667 268.889 253.778 268.556 253.778ZM77.3333 246.444C77 246.444 76.5555 246.222 76.4444 245.778C76 244.333 75.4444 242.778 75 241.333C74.8889 240.889 75.1111 240.333 75.6667 240.222C76.1111 240.111 76.6667 240.333 76.7778 240.889C77.2222 242.333 77.6667 243.889 78.1111 245.333C78.2222 245.778 78 246.333 77.5555 246.556C77.5555 246.444 77.4444 246.444 77.3333 246.444ZM74.8889 237.444C74.4444 237.444 74.1111 237.111 74 236.667C73.6667 235.111 73.3333 233.667 73.1111 232C73 231.444 73.3333 231 73.8889 230.889C74.4444 230.778 74.8889 231.111 75 231.667C75.2222 233.222 75.5555 234.667 75.8889 236.222C76 236.667 75.6667 237.222 75.2222 237.333C75 237.444 75 237.444 74.8889 237.444ZM73.3333 228.333C72.8889 228.333 72.4444 228 72.4444 227.556C72.2222 226 72.1111 224.444 72 222.889C72 222.333 72.3333 221.889 72.8889 221.889C73.4444 221.889 73.8889 222.222 73.8889 222.778C74 224.333 74.1111 225.889 74.3333 227.333C74.3333 227.778 74 228.222 73.3333 228.333C73.4444 228.333 73.4444 228.333 73.3333 228.333ZM72.6667 219C72.2222 219 71.7778 218.556 71.7778 218.111C71.6667 216.556 71.6667 215 71.6667 213.444C71.6667 212.889 72.1111 212.556 72.5555 212.556C73 212.556 73.4444 213 73.4444 213.444C73.4444 215 73.4444 216.556 73.5555 218.111C73.5555 218.556 73.2222 219 72.6667 219ZM72.5555 209.778C72 209.778 71.6667 209.333 71.6667 208.778C71.6667 207.222 71.7778 205.667 71.8889 204.111C71.8889 203.556 72.3333 203.222 72.8889 203.222C73.4444 203.222 73.7778 203.667 73.7778 204.222C73.6667 205.778 73.6667 207.333 73.5555 208.889C73.4444 209.333 73.1111 209.778 72.5555 209.778ZM73.1111 200.444C72.5555 200.444 72.1111 200 72.2222 199.444C72.3333 197.889 72.5555 196.333 72.6667 194.778C72.6667 194.222 73.2222 193.889 73.6667 194C74.2222 194 74.5555 194.556 74.4444 195C74.2222 196.556 74.1111 198.111 74 199.556C74 200.111 73.5555 200.444 73.1111 200.444ZM74.1111 191.222H74C73.4444 191.111 73.1111 190.667 73.2222 190.222C73.4444 188.667 73.6667 187.111 73.8889 185.556C74 185 74.4444 184.667 74.8889 184.778C75.4444 184.889 75.7778 185.333 75.6667 185.778C75.4444 187.333 75.2222 188.889 75 190.333C75 190.889 74.5555 191.222 74.1111 191.222ZM75.5555 182H75.4444C74.8889 181.889 74.5555 181.444 74.6667 180.889C74.8889 179.333 75.2222 177.778 75.5555 176.333C75.6667 175.889 76.1111 175.556 76.6667 175.556C77.1111 175.667 77.4444 176.111 77.4444 176.667C77.1111 178.222 76.8889 179.667 76.5555 181.222C76.3333 181.667 76 182 75.5555 182ZM77.3333 172.889C77.2222 172.889 77.2222 172.889 77.1111 172.889C76.6667 172.778 76.3333 172.333 76.4444 171.778C76.7778 170.222 77.1111 168.778 77.4444 167.222C77.5555 166.778 78 166.444 78.5555 166.556C79 166.667 79.3333 167.111 79.2222 167.667C78.8889 169.222 78.5555 170.667 78.2222 172.222C78.1111 172.556 77.6667 172.889 77.3333 172.889ZM79.3333 163.778C79.2222 163.778 79.2222 163.778 79.1111 163.778C78.6667 163.667 78.3333 163.111 78.4444 162.667C78.7778 161.111 79.2222 159.667 79.5555 158.111C79.6667 157.667 80.2222 157.333 80.6667 157.444C81.1111 157.556 81.4444 158.111 81.3333 158.556C81 160 80.5555 161.556 80.2222 163.111C80.1111 163.444 79.7778 163.778 79.3333 163.778ZM81.6667 154.778C81.5555 154.778 81.5556 154.778 81.4444 154.778C81 154.667 80.6667 154.111 80.7778 153.667C81.2222 152.111 81.5556 150.667 82 149.222C82.1111 148.778 82.6667 148.444 83.1111 148.556C83.5556 148.667 83.8889 149.222 83.7778 149.667C83.3333 151.111 82.8889 152.667 82.5556 154.111C82.4444 154.444 82.1111 154.778 81.6667 154.778ZM84.2222 145.778C84.1111 145.778 84 145.778 84 145.778C83.5555 145.667 83.2222 145.111 83.3333 144.667C83.7778 143.111 84.2222 141.667 84.6667 140.222C84.7778 139.778 85.3333 139.444 85.7778 139.667C86.2222 139.778 86.5555 140.333 86.3333 140.778C85.8889 142.222 85.4444 143.667 85 145.222C85 145.556 84.6667 145.778 84.2222 145.778ZM87 136.889C86.8889 136.889 86.7778 136.889 86.6667 136.889C86.2222 136.778 85.8889 136.222 86.1111 135.778C86.4444 134.778 86.7778 133.778 87.1111 132.778C87.2222 132.333 87.4444 131.889 87.5556 131.333C87.6667 130.889 88.2222 130.556 88.7778 130.778C89.2222 130.889 89.5555 131.444 89.3333 132C89.2222 132.444 89 132.889 88.8889 133.333C88.5555 134.333 88.2222 135.333 87.8889 136.333C87.7778 136.667 87.3333 136.889 87 136.889ZM90 128.111C89.8889 128.111 89.7778 128.111 89.6667 128C89.2222 127.778 89 127.333 89.1111 126.778C89.6667 125.222 90.2222 123.778 90.8889 122.444C91.1111 122 91.6667 121.778 92.1111 122C92.5555 122.222 92.7778 122.778 92.5556 123.222C92 124.556 91.3333 126 90.7778 127.444C90.6667 127.889 90.3333 128.111 90 128.111ZM93.6667 119.556C93.5556 119.556 93.4444 119.556 93.2222 119.444C92.7778 119.222 92.5555 118.667 92.7778 118.222C93.4444 116.778 94.2222 115.333 95 114.111C95.2222 113.667 95.7778 113.556 96.2222 113.778C96.6667 114 96.7778 114.556 96.5556 115C95.7778 116.222 95.1111 117.667 94.4444 119C94.3333 119.444 94 119.556 93.6667 119.556ZM98.3333 111.556C98.1111 111.556 98 111.556 97.7778 111.444C97.3333 111.111 97.2222 110.556 97.5556 110.111C98.4444 108.778 99.4444 107.444 100.444 106.333C100.778 106 101.333 105.889 101.778 106.222C102.111 106.556 102.222 107.111 101.889 107.556C101 108.667 100 109.889 99.1111 111.111C98.8889 111.444 98.6667 111.556 98.3333 111.556ZM104.444 104.556C104.222 104.556 103.889 104.444 103.778 104.222C103.444 103.889 103.444 103.222 103.889 102.889C105.111 101.778 106.444 100.889 107.778 100.111C108.222 99.8889 108.778 100 109 100.444C109.222 100.889 109.111 101.444 108.667 101.667C107.444 102.444 106.222 103.333 105 104.333C104.889 104.444 104.667 104.556 104.444 104.556Z" fill="white"/>
<path d="M274.667 246.555C274.444 246.555 274.333 246.444 274.111 246.333C273.667 246 273.667 245.444 273.889 245C274.333 244.444 274.778 243.778 275.222 243.111C275.556 242.666 276.111 242.555 276.556 242.889C277 243.222 277.111 243.778 276.778 244.222C276.333 244.889 275.889 245.444 275.444 246.111C275.222 246.333 275 246.555 274.667 246.555Z" fill="white"/>
<path d="M154.667 135.333C142.889 135.111 122.667 144.778 118.889 164.222C109.889 210 118.111 228.556 118.111 228.556L187.778 222.111C187.667 222.111 185.333 136 154.667 135.333Z" fill="#E69716"/>
<path d="M159.333 139.889C159.333 139.889 193.778 133.778 207.222 117.778L214.111 144C214.111 144 202.889 156.222 192 163.889C181 171.556 183.556 169.222 183.556 169.222L185.111 205.667L159.333 139.889Z" fill="#E69716"/>
<path d="M179.111 212.889C179.111 212.889 171.333 155.667 164.111 140.555C163.556 139.333 162.889 138.333 162.222 137.444C161.667 137.111 161.111 136.889 160.556 136.667C160.444 136.667 160.444 136.555 160.333 136.555C160.111 136.444 159.889 136.333 159.667 136.333C159.556 136.333 159.333 136.222 159.222 136.222C159 136.111 158.778 136.111 158.556 136C158.222 135.889 157.889 135.778 157.556 135.778C157.444 135.778 157.222 135.778 157.111 135.667C156.778 135.667 156.556 135.555 156.222 135.555C156.111 135.555 156 135.555 155.778 135.555C155.333 135.555 155 135.444 154.556 135.444C154 135.444 153.444 135.444 152.778 135.444C152.667 135.444 152.667 135.444 152.556 135.444C151.889 135.444 151.333 135.555 150.667 135.667C147.222 137.778 142.889 139.667 142.889 139.667C142.889 139.667 156.444 202.555 157.222 216C158.222 229.222 179.111 212.889 179.111 212.889Z" fill="#EAEEF3"/>
<path d="M185.444 195.778C177.222 197.222 156.778 200.111 150.444 194.333C142.667 187.111 129.444 172.222 129.444 172.222L127.889 172.556C127.889 172.556 126.222 202 141 208.555C153.333 213.889 177.778 209.111 186.667 206.222C186.333 202.889 186 199.444 185.444 195.778Z" fill="#BC7C12"/>
<path d="M127.889 172.556C127.889 172.556 130.333 185.778 133.778 193.556C137.222 201.334 150.111 212.111 173.111 206.556C196.111 200.889 189 200.111 189 200.111L186.111 184.222C186.111 184.222 174.889 186 167.778 186.556C160.667 187 153.889 182.667 148 167C142.111 151.334 139 155.222 139 155.222L127.889 172.556Z" fill="#E69716"/>
<path d="M189.556 191.111C189.556 191.111 194.111 174.333 194.667 171.445C195.222 168.556 199.778 169.333 203.222 169.889C206.667 170.445 209 172.778 207.111 179.333C205.333 185.889 206.222 197 201.444 197.111C196.667 197.222 191.333 196.556 190.556 196.333C189.778 196.222 189.556 191.111 189.556 191.111Z" fill="#255B9B"/>
<path d="M183.667 186.111L187.889 184.555C187.889 184.555 194.222 181 197.333 180.667C200.444 180.333 206.667 180.444 207 182.333C207.333 184.222 206.889 185.222 206.889 185.222C206.889 185.222 207.556 186 207.556 187.222C207.556 188.444 207.111 189 207.111 189C207.111 189 208 190.444 207.778 191.444C207.556 192.444 207.222 192.889 207.222 192.889C207.222 192.889 207.333 195.111 206.222 196C205.111 196.889 202.556 200.111 198.444 199.667C194.333 199.222 185 199.889 185 199.889L183.667 186.111Z" fill="#F7DDB2"/>
<path d="M195.222 199.555C194.111 198 192.889 196.111 192 194.666C190.444 192.222 189.667 186.444 189.333 183.889C188.444 184.333 188 184.666 188 184.666L183.778 186.222L184.889 199.889C184.778 199.889 190.667 199.444 195.222 199.555Z" fill="#F5D6A3"/>
<path d="M186.222 182.778C182.667 183.334 179.333 183.556 177.778 184.667C176.333 185.778 177 189.889 178 195.889C179 201.889 177 207.667 182.778 207.445C188.556 207.334 192.111 206.334 191.444 202.556C190.778 198.778 188.778 192.889 188.556 189.222C188.556 185.556 188.556 182.445 186.222 182.778Z" fill="#BC7C12"/>
<path d="M166.889 113.667C164.778 114.444 162.444 113.333 161.667 111.222C160.889 109.111 162 106.778 164.111 106C166.222 105.222 168.556 106.333 169.333 108.444C170.111 110.556 169 112.889 166.889 113.667Z" fill="#F5D6A3"/>
<path d="M136.889 124.889C134.778 125.667 132.444 124.556 131.667 122.444C130.889 120.333 132 118 134.111 117.222C136.222 116.444 138.556 117.556 139.333 119.667C140.111 121.667 139 124 136.889 124.889Z" fill="#F5D6A3"/>
<path d="M172.778 137.889C172.778 137.889 174.111 124.889 145.444 131.333C132.556 134.222 136.222 146.333 136.222 146.333L140.333 145.334C140.333 145.334 139.778 138.667 147.556 137.333C155.333 136 165 135.222 166.889 138.556C168.778 141.889 172.778 137.889 172.778 137.889Z" fill="#060F0E"/>
<path d="M162.111 129C162.111 129 161.444 135.222 162 135.667C162.556 136.222 168.556 146.111 159.444 148.445C150.444 150.778 140.333 140.334 143.444 137.222C146.556 134.111 143.222 128.111 143.222 128.111L162.111 129Z" fill="#F8E3BF"/>
<path d="M163.111 99.1113C163.111 99.1113 166.667 108.111 168.778 113.222C170.889 118.334 169 129.334 162.889 134.889C156.667 140.334 142.556 133.778 140.444 131.778C138.333 129.778 132.889 115.667 130.333 109.889C127.778 104.222 135.444 90.8891 142 90.8891C148.556 91.0002 159.222 88.8891 163.111 99.1113Z" fill="#F8E3BF"/>
<path d="M140.333 91.2222C139.111 95.5555 136.889 106.555 141.444 117.333C147.333 131.222 156.444 136.889 164.667 133C164.111 133.667 163.556 134.333 162.889 134.889C156.667 140.333 142.556 133.778 140.444 131.778C138.333 129.778 132.889 115.667 130.333 109.889C127.889 104.667 134.111 92.9999 140.333 91.2222Z" fill="#F5D6A3"/>
<path d="M123.222 103.222C122.333 100.778 123.556 98.111 126 97.2221C126.444 96.9998 126.889 96.9998 127.444 96.8887C127.222 96.4443 127 96.111 126.778 95.5554C125.556 92.3332 127.222 88.8887 130.444 87.6665C131.222 87.3332 132 87.2221 132.778 87.3332C133 85.111 134.444 82.9998 136.778 82.2221C139.111 81.3332 141.667 81.9998 143.333 83.7776C143.889 82.9998 144.667 82.4443 145.667 82.111C148.444 81.111 151.667 82.6665 153 85.5554C153.556 84.7776 154.444 84.111 155.444 83.6665C158.222 82.6665 161.333 83.9998 162.444 86.8887C163.444 89.6665 162.111 92.7776 159.222 93.8887C156.667 94.7776 153.889 93.7776 152.667 91.4443C152 92.4443 151.111 93.2221 150 93.6665C147.778 94.4443 145.333 93.6665 143.778 91.8887C143.111 92.6665 142.222 93.3332 141.111 93.7776C140.333 94.111 139.556 94.2221 138.778 94.111C138.556 96.3332 137.111 98.4443 134.778 99.2221C133.889 99.5554 132.889 99.6665 132 99.5554C132 99.6665 132.111 99.7776 132.111 99.8887C133 102.333 131.778 105 129.333 105.889C126.889 106.778 124.111 105.667 123.222 103.222Z" fill="#0A2245"/>
<path d="M164.222 99.8889C164.667 99.7778 165.111 99.6667 165.444 99.6667C165.111 98.4445 165.778 97.2222 167 96.7778C168.222 96.3334 169.667 97 170.111 98.2222C170.556 99.4445 169.889 100.889 168.667 101.333C168.667 101.333 168.667 101.333 168.556 101.333C168.667 101.556 168.778 101.778 168.889 102C169.556 103.889 168.667 106 166.667 106.778C164.778 107.444 162.667 106.556 161.889 104.556C161.333 102.667 162.333 100.556 164.222 99.8889Z" fill="#0A2245"/>
<path d="M197.556 289.667L191.222 299C191.222 299 186.222 312.222 193 315.222C199.778 318.222 209.889 314.222 209.889 314.222L216.556 301.778L197.556 289.667Z" fill="#F3CF93"/>
<path d="M179.778 312.222L177.889 311.889C177.889 311.889 175.111 315.444 177 319.889C178.889 324.333 197.889 339.666 202.444 343.666C206.889 347.666 216 353.444 217.222 352.889C218.444 352.333 220.222 349.444 220.222 349.444L213.444 340L179.778 312.222Z" fill="#DDEFEC"/>
<path d="M191.222 299C191.222 299 196.444 305.556 201 308.778C205.556 312 208.111 313.222 208.111 313.222C208.111 313.222 210.556 311.889 211.111 314.667C211.667 317.333 209.333 319.333 209.333 319.333C209.333 319.333 216.667 331.333 220.222 336.333C223.778 341.333 222.556 344.111 220.222 349.556C217.889 355 186.444 325.667 182.222 322.222C178 318.778 175.333 314.333 179.556 309.556C183.778 304.667 191.222 299 191.222 299Z" fill="#060F0E"/>
<path d="M172.333 219.445C172.333 219.445 209 182.778 238.889 191.556C268.778 200.333 266.111 225.333 254.222 246.667C241.778 268.889 214.444 313.222 214.444 313.222L191 292.333L217.667 230.667L172.333 219.445Z" fill="#133F7E"/>
<path d="M129.556 117.889C130.66 117.889 131.556 116.993 131.556 115.889C131.556 114.784 130.66 113.889 129.556 113.889C128.451 113.889 127.556 114.784 127.556 115.889C127.556 116.993 128.451 117.889 129.556 117.889Z" fill="#0A2245"/>
<path d="M161.444 97.889L163.111 99.2224L167.111 109.111C167.111 109.111 167.444 108.333 167.111 107.445C166.778 106.556 166.778 106.556 166.778 106.556C166.778 106.556 168.667 105.889 167.889 104C167.111 102.111 167.556 103.111 167.556 103.111C167.556 103.111 171.111 98.6668 167.222 93.7779C164.111 89.889 157.889 95.1113 157.889 95.1113L161.444 97.889Z" fill="#0A2245"/>
<path d="M131.889 108.889L131.444 111L134.889 121.111C134.889 121.111 134.111 120.778 133.778 119.889C133.444 119 133.444 119 133.444 119C133.444 119 131.556 119.667 130.889 117.889C130.222 116 130.556 117 130.556 117C130.556 117 124.889 115.889 124.667 109.667C124.444 104.667 132.556 104.556 132.556 104.556L131.889 108.889Z" fill="#0A2245"/>
<path d="M163.556 101.222C166.931 101.222 169.667 98.4862 169.667 95.1111C169.667 91.736 166.931 89 163.556 89C160.18 89 157.444 91.736 157.444 95.1111C157.444 98.4862 160.18 101.222 163.556 101.222Z" fill="#0A2245"/>
<path d="M159.778 112.333L163.778 119.333L161.333 121.667" fill="#F5D6A3"/>
<path d="M316.889 328.889L325.222 336.556C325.222 336.556 337.556 343.333 341.444 337.111C345.333 330.889 342.889 320.222 342.889 320.222L331.556 311.778L316.889 328.889Z" fill="#F3CF93"/>
<path d="M122.444 227.778C122.444 227.778 119.111 250 124.111 259C129.111 267.889 141.333 278.333 161.667 274.889C182 271.444 202.222 252.444 202.222 252.444L317 333.222C317 333.222 335.556 312.444 334.333 311.666C333.111 310.889 246.778 228.778 218.444 209.222C190.111 189.666 159.444 209.111 150.111 216.666C140.778 224.222 138 226.555 138 226.555L122.444 227.778Z" fill="#3E6295"/>
<path d="M336.667 349.667L336.111 351.556C336.111 351.556 339.222 354.889 343.889 353.556C348.556 352.222 366.444 335.667 371.111 331.778C375.778 327.889 382.778 319.778 382.444 318.444C382.111 317.111 379.444 315 379.444 315L369.111 320.333L336.667 349.667Z" fill="#DDEFEC"/>
<path d="M325.222 336.444C325.222 336.444 332.444 332.222 336.222 328.222C340 324.222 341.667 321.778 341.667 321.778C341.667 321.778 340.778 319.222 343.444 319C346.222 318.889 347.778 321.444 347.778 321.444C347.778 321.444 360.667 315.889 366.111 313C371.556 310.222 374.111 311.778 379.222 314.889C384.333 318 350.778 344.889 346.778 348.556C342.778 352.222 338 354.333 333.778 349.444C329.667 344.667 325.222 336.444 325.222 336.444Z" fill="#060F0E"/>
<path d="M324.444 323.555C324.333 323.555 324.222 323.555 324.111 323.444L323.889 323.222C323.667 323 323.667 322.666 323.778 322.444C324 322.222 324.333 322.222 324.556 322.333L324.778 322.555C325 322.778 325 323.111 324.889 323.333C324.778 323.444 324.667 323.555 324.444 323.555ZM322 321.555C321.889 321.555 321.778 321.555 321.667 321.444L319.444 319.666C319.222 319.444 319.222 319.111 319.333 318.889C319.556 318.666 319.889 318.666 320.111 318.778L322.333 320.555C322.556 320.778 322.556 321.111 322.444 321.333C322.333 321.444 322.111 321.555 322 321.555ZM317.444 317.889C317.333 317.889 317.222 317.889 317.111 317.778L314.889 316C314.667 315.778 314.667 315.444 314.778 315.222C315 315 315.333 315 315.556 315.111L317.778 316.889C318 317.111 318 317.444 317.889 317.666C317.778 317.889 317.556 317.889 317.444 317.889ZM312.889 314.333C312.778 314.333 312.667 314.333 312.556 314.222L310.333 312.444C310.111 312.222 310.111 311.889 310.222 311.666C310.444 311.444 310.778 311.444 311 311.555L313.222 313.333C313.444 313.555 313.444 313.889 313.333 314.111C313.222 314.222 313 314.333 312.889 314.333ZM308.333 310.778C308.222 310.778 308.111 310.778 308 310.666L305.778 308.889C305.556 308.666 305.556 308.333 305.667 308.111C305.889 307.889 306.222 307.889 306.444 308L308.667 309.778C308.889 310 308.889 310.333 308.778 310.555C308.667 310.666 308.444 310.778 308.333 310.778ZM303.778 307.111C303.667 307.111 303.556 307.111 303.444 307L301.222 305.222C301 305 301 304.666 301.111 304.444C301.333 304.222 301.667 304.222 301.889 304.333L304.111 306.111C304.333 306.333 304.333 306.666 304.222 306.889C304.111 307.111 304 307.111 303.778 307.111ZM299.222 303.555C299.111 303.555 299 303.555 298.889 303.444L296.667 301.666C296.444 301.444 296.444 301.111 296.556 300.889C296.778 300.666 297.111 300.666 297.333 300.778L299.556 302.555C299.778 302.778 299.778 303.111 299.667 303.333C299.556 303.444 299.444 303.555 299.222 303.555ZM294.667 300C294.556 300 294.444 300 294.333 299.889L292.111 298.111C291.889 297.889 291.889 297.555 292 297.333C292.222 297.111 292.556 297.111 292.778 297.222L295 299C295.222 299.222 295.222 299.555 295.111 299.778C295 299.889 294.889 300 294.667 300ZM290.222 296.333C290.111 296.333 290 296.333 289.889 296.222L287.667 294.444C287.444 294.222 287.444 293.889 287.556 293.666C287.778 293.444 288.111 293.444 288.333 293.555L290.556 295.333C290.778 295.555 290.778 295.889 290.667 296.111C290.444 296.333 290.333 296.333 290.222 296.333ZM285.667 292.778C285.556 292.778 285.444 292.778 285.333 292.666L283.111 290.889C282.889 290.666 282.889 290.333 283 290.111C283.222 289.889 283.556 289.889 283.778 290L286 291.778C286.222 292 286.222 292.333 286.111 292.555C285.889 292.778 285.778 292.778 285.667 292.778ZM281.111 289.222C281 289.222 280.889 289.222 280.778 289.111L278.556 287.333C278.333 287.111 278.333 286.778 278.444 286.555C278.667 286.333 279 286.333 279.222 286.444L281.444 288.222C281.667 288.444 281.667 288.778 281.556 289C281.444 289.111 281.222 289.222 281.111 289.222ZM276.556 285.666C276.444 285.666 276.333 285.666 276.222 285.555L274 283.778C273.778 283.555 273.778 283.222 273.889 283C274.111 282.778 274.444 282.778 274.667 282.889L276.889 284.666C277.111 284.889 277.111 285.222 277 285.444C276.889 285.555 276.667 285.666 276.556 285.666ZM272 282.111C271.889 282.111 271.778 282.111 271.667 282L269.444 280.222C269.222 280 269.222 279.666 269.333 279.444C269.556 279.222 269.889 279.222 270.111 279.333L272.333 281.111C272.556 281.333 272.556 281.666 272.444 281.889C272.333 282 272.111 282.111 272 282.111ZM267.444 278.555C267.333 278.555 267.222 278.555 267.111 278.444L264.889 276.666C264.667 276.444 264.667 276.111 264.778 275.889C265 275.666 265.333 275.666 265.556 275.778L267.778 277.555C268 277.778 268 278.111 267.889 278.333C267.778 278.444 267.556 278.555 267.444 278.555ZM262.889 275C262.778 275 262.667 275 262.556 274.889L260.222 273.111C260 272.889 260 272.555 260.111 272.333C260.333 272.111 260.667 272.111 260.889 272.222L263.222 274C263.444 274.222 263.444 274.555 263.333 274.778C263.222 274.889 263 275 262.889 275ZM258.333 271.444C258.222 271.444 258.111 271.444 258 271.333L255.667 269.555C255.444 269.333 255.444 269 255.556 268.778C255.778 268.555 256.111 268.555 256.333 268.666L258.667 270.444C258.889 270.666 258.889 271 258.778 271.222C258.667 271.333 258.444 271.444 258.333 271.444ZM253.778 267.889C253.667 267.889 253.556 267.889 253.444 267.778L251.111 266C250.889 265.778 250.889 265.444 251 265.222C251.222 265 251.556 265 251.778 265.111L254.111 266.889C254.333 267.111 254.333 267.444 254.222 267.666C254.111 267.778 253.889 267.889 253.778 267.889ZM249.222 264.222C249.111 264.222 249 264.222 248.889 264.111L246.556 262.333C246.333 262.111 246.333 261.778 246.444 261.555C246.667 261.333 247 261.333 247.222 261.444L249.556 263.222C249.778 263.444 249.778 263.778 249.667 264C249.444 264.222 249.333 264.222 249.222 264.222ZM244.556 260.666C244.444 260.666 244.333 260.666 244.222 260.555L241.889 258.778C241.667 258.555 241.667 258.222 241.778 258C242 257.778 242.333 257.778 242.556 257.889L244.889 259.666C245.111 259.889 245.111 260.222 245 260.444C244.889 260.666 244.778 260.666 244.556 260.666ZM240 257.222C239.889 257.222 239.778 257.222 239.667 257.111L237.333 255.333C237.111 255.111 237.111 254.778 237.222 254.555C237.444 254.333 237.778 254.333 238 254.444L240.333 256.222C240.556 256.444 240.556 256.778 240.444 257C240.333 257.111 240.222 257.222 240 257.222ZM235.444 253.666C235.333 253.666 235.222 253.666 235.111 253.555L232.778 251.778C232.556 251.555 232.556 251.222 232.667 251C232.889 250.778 233.222 250.778 233.444 250.889L235.778 252.666C236 252.889 236 253.222 235.889 253.444C235.778 253.555 235.667 253.666 235.444 253.666ZM132.444 250.222C131.889 250.222 131.444 250.111 131 249.889C130.778 249.778 130.667 249.444 130.778 249.222C130.889 249 131.222 248.889 131.444 249C132.111 249.333 132.889 249.333 133.778 248.889C134 248.778 134.333 248.889 134.444 249.222C134.556 249.444 134.444 249.778 134.111 249.889C133.556 250.111 133 250.222 132.444 250.222ZM230.889 250.111C230.778 250.111 230.667 250.111 230.556 250L228.222 248.222C228 248 228 247.666 228.111 247.444C228.333 247.222 228.667 247.222 228.889 247.333L231.222 249.111C231.444 249.333 231.444 249.666 231.333 249.889C231.222 250 231.111 250.111 230.889 250.111ZM136.444 248.333C136.333 248.333 136.111 248.222 136 248.111C135.778 247.889 135.889 247.555 136.111 247.333C136.222 247.222 136.333 247.111 136.556 247C137 246.555 137.444 246.222 138 245.666L138.333 245.444C138.556 245.222 138.889 245.222 139.111 245.444C139.333 245.666 139.333 246 139.111 246.222L138.778 246.444C138.222 246.889 137.778 247.333 137.333 247.778C137.222 247.889 137 248 136.889 248.111C136.667 248.333 136.556 248.333 136.444 248.333ZM129.222 247.889C129 247.889 128.889 247.778 128.778 247.555C128.333 246.778 128 245.778 127.778 244.778C127.667 244.444 127.889 244.222 128.111 244.111C128.444 244 128.667 244.222 128.778 244.444C129 245.444 129.333 246.333 129.667 247C129.778 247.222 129.667 247.555 129.444 247.666C129.444 247.889 129.333 247.889 129.222 247.889ZM226.333 246.555C226.222 246.555 226.111 246.555 226 246.444L223.667 244.666C223.444 244.444 223.444 244.111 223.556 243.889C223.778 243.666 224.111 243.666 224.333 243.778L226.667 245.555C226.889 245.778 226.889 246.111 226.778 246.333C226.667 246.444 226.444 246.555 226.333 246.555ZM140.778 244.555C140.667 244.555 140.444 244.444 140.333 244.333C140.111 244.111 140.111 243.778 140.333 243.555C141 243 141.778 242.333 142.556 241.666C142.778 241.444 143.111 241.555 143.333 241.778C143.556 242 143.444 242.333 143.222 242.555C142.444 243.222 141.778 243.778 141 244.444C141 244.555 140.889 244.555 140.778 244.555ZM221.778 243C221.667 243 221.556 243 221.444 242.889L221.111 242.666C220.444 242.111 219.778 241.666 219.111 241.111C218.889 240.889 218.778 240.555 219 240.333C219.222 240.111 219.556 240 219.778 240.222C220.444 240.666 221.111 241.222 221.778 241.778L222.111 242C222.333 242.222 222.444 242.555 222.222 242.778C222.111 243 221.889 243 221.778 243ZM127.778 242.333C127.556 242.333 127.333 242.111 127.222 241.889C127.111 241 127 240 126.889 239C126.889 238.666 127.111 238.444 127.333 238.444C127.667 238.444 127.889 238.666 127.889 238.889C128 239.889 128 240.889 128.111 241.778C128.333 242 128.111 242.333 127.778 242.333ZM145.222 240.889C145.111 240.889 144.889 240.778 144.778 240.666C144.556 240.444 144.667 240.111 144.889 239.889C145.667 239.333 146.444 238.666 147.222 238.111C147.444 237.889 147.778 238 148 238.222C148.222 238.444 148.111 238.778 147.889 239C147.111 239.555 146.333 240.222 145.556 240.778C145.444 240.778 145.333 240.889 145.222 240.889ZM217.111 239.666C217 239.666 216.889 239.666 216.778 239.555C216 239 215.222 238.444 214.333 238C214.111 237.889 214 237.555 214.222 237.222C214.333 237 214.667 236.889 215 237.111C215.778 237.666 216.556 238.111 217.444 238.778C217.667 239 217.778 239.222 217.556 239.555C217.444 239.555 217.222 239.666 217.111 239.666ZM149.889 237.444C149.667 237.444 149.556 237.333 149.444 237.222C149.333 237 149.333 236.666 149.556 236.444C150.333 235.889 151.111 235.333 152 234.889C152.222 234.778 152.556 234.778 152.778 235C152.889 235.222 152.889 235.555 152.667 235.778C151.889 236.333 151 236.778 150.222 237.333C150 237.333 149.889 237.444 149.889 237.444ZM127.333 236.555C127 236.555 126.778 236.333 126.778 236V235.444C126.778 234 126.778 233.111 126.778 233.111C126.778 232.778 127.111 232.555 127.333 232.555C127.667 232.555 127.889 232.778 127.889 233.111C127.889 233.111 127.889 234 127.889 235.333V235.889C127.889 236.333 127.667 236.555 127.333 236.555ZM212.222 236.444C212.111 236.444 212 236.444 212 236.333C211.111 235.778 210.333 235.333 209.556 234.889C209.333 234.778 209.222 234.444 209.333 234.111C209.444 233.889 209.778 233.778 210.111 233.889C210.889 234.333 211.778 234.889 212.667 235.333C212.889 235.444 213 235.778 212.889 236.111C212.556 236.333 212.444 236.444 212.222 236.444ZM154.667 234.333C154.444 234.333 154.333 234.222 154.222 234.111C154.111 233.889 154.111 233.555 154.444 233.333C155.222 232.889 156.111 232.333 157 231.889C157.222 231.778 157.556 231.889 157.667 232.111C157.778 232.333 157.667 232.666 157.444 232.778C156.556 233.222 155.778 233.666 154.889 234.111C154.889 234.333 154.778 234.333 154.667 234.333ZM207.222 233.666C207.111 233.666 207.111 233.666 207 233.555C206.111 233.111 205.222 232.666 204.444 232.333C204.222 232.222 204.111 231.889 204.222 231.666C204.333 231.444 204.667 231.333 204.889 231.444C205.778 231.889 206.667 232.222 207.556 232.666C207.778 232.778 207.889 233.111 207.778 233.333C207.556 233.555 207.333 233.666 207.222 233.666ZM159.889 231.666C159.667 231.666 159.444 231.555 159.444 231.333C159.333 231.111 159.444 230.778 159.667 230.666C160.556 230.222 161.444 229.889 162.333 229.555C162.556 229.444 162.889 229.555 163 229.889C163.111 230.111 163 230.444 162.667 230.555C161.778 230.889 160.889 231.333 160 231.666H159.889ZM201.889 231.222C201.778 231.222 201.778 231.222 201.667 231.222C200.778 230.889 199.889 230.555 199 230.222C198.778 230.111 198.556 229.778 198.667 229.555C198.778 229.333 199.111 229.111 199.333 229.222C200.222 229.555 201.111 229.889 202 230.222C202.222 230.333 202.444 230.666 202.333 230.889C202.333 231.111 202.111 231.222 201.889 231.222ZM165.222 229.555C165 229.555 164.778 229.444 164.667 229.222C164.556 228.889 164.778 228.666 165 228.555C165.889 228.222 166.889 228 167.778 227.666C168.111 227.555 168.333 227.778 168.444 228C168.556 228.333 168.333 228.555 168.111 228.666C167.222 228.889 166.333 229.222 165.333 229.555C165.333 229.555 165.333 229.555 165.222 229.555ZM196.444 229.333H196.333C195.444 229 194.444 228.778 193.556 228.555C193.222 228.444 193.111 228.222 193.222 227.889C193.333 227.555 193.556 227.444 193.889 227.555C194.778 227.778 195.778 228.111 196.667 228.333C197 228.444 197.111 228.666 197 229C196.889 229.111 196.667 229.333 196.444 229.333ZM170.778 228C170.556 228 170.333 227.778 170.222 227.555C170.111 227.222 170.333 227 170.667 226.889C171.667 226.666 172.556 226.555 173.556 226.333C173.889 226.333 174.111 226.444 174.111 226.778C174.111 227.111 174 227.333 173.667 227.333C172.778 227.444 171.778 227.666 170.889 227.889C170.889 228 170.889 228 170.778 228ZM190.889 227.889C190.889 227.889 190.778 227.889 190.889 227.889C189.889 227.666 188.889 227.555 188 227.444C187.667 227.444 187.556 227.111 187.556 226.889C187.556 226.555 187.889 226.444 188.111 226.444C189.111 226.555 190 226.778 191 226.889C191.333 227 191.444 227.222 191.444 227.555C191.333 227.666 191.111 227.889 190.889 227.889ZM176.556 227.111C176.333 227.111 176 226.889 176 226.666C176 226.333 176.222 226.111 176.444 226.111C177.444 226 178.444 226 179.333 225.889C179.667 225.889 179.889 226.111 179.889 226.444C179.889 226.778 179.667 227 179.333 227C178.444 227 177.444 227 176.556 227.111ZM185.111 227.111C184.111 227 183.111 227 182.222 227C181.889 227 181.667 226.778 181.667 226.444C181.667 226.111 182 225.889 182.222 225.889C183.222 225.889 184.222 226 185.111 226C185.444 226 185.667 226.333 185.556 226.555C185.667 226.889 185.444 227.111 185.111 227.111Z" fill="white"/>
<path d="M171 156.667C174.667 156 177 150.667 176.222 144.667C175.333 138.667 171.667 134.445 168 135C164.333 135.667 162 141 162.778 147C163.556 153 167.222 157.334 171 156.667Z" fill="#255B9B"/>
<path d="M173.889 155.778C177.556 155.111 179.889 150.111 179.111 144.445C178.333 138.778 174.667 134.778 171 135.445C167.333 136.111 165 141.111 165.778 146.778C166.556 152.334 170.222 156.334 173.889 155.778Z" fill="#060F0E"/>
<path d="M144.556 158.111C141 159.333 136.778 155.667 135.111 149.889C133.444 144.111 135.111 138.444 138.667 137.222C142.222 136 146.444 139.667 148.111 145.444C149.778 151.222 148.222 156.889 144.556 158.111Z" fill="#255B9B"/>
<path d="M141.556 158.667C138 159.889 133.889 156.444 132.333 151C130.778 145.555 132.444 140.222 136 139C139.556 137.778 143.667 141.222 145.222 146.667C146.778 152 145.111 157.444 141.556 158.667Z" fill="#060F0E"/>
<path d="M204.444 184.555C204.444 184.555 201.111 183.778 199.556 184C198 184.222 197.889 184.333 197.889 184.333C197.889 184.333 202.556 184.111 204.444 184.555Z" fill="#F5D6A3"/>
<path d="M199.444 188.222C199.444 188.222 202.556 187.555 204.111 188C205.667 188.444 206 188.556 206 188.556C206 188.556 201.222 187.778 199.444 188.222Z" fill="#F5D6A3"/>
<path d="M199.778 192.111C199.778 192.111 204.333 191.445 205.778 192.111C205.889 192.111 202.222 192.222 199.778 192.111Z" fill="#F5D6A3"/>
<path d="M198.333 174.889C198.763 174.889 199.111 174.441 199.111 173.889C199.111 173.336 198.763 172.889 198.333 172.889C197.904 172.889 197.556 173.336 197.556 173.889C197.556 174.441 197.904 174.889 198.333 174.889Z" fill="white"/>
<path d="M197.889 176.778C198.196 176.778 198.444 176.479 198.444 176.111C198.444 175.743 198.196 175.444 197.889 175.444C197.582 175.444 197.333 175.743 197.333 176.111C197.333 176.479 197.582 176.778 197.889 176.778Z" fill="white"/>
<path d="M164.333 99.5556C164.333 99.5556 163.667 101.889 161.444 101.667C159.222 101.445 159.556 100.778 159.222 99.889C158.889 99.0001 157 98.1112 156.444 99.3334C155.889 100.556 154.333 102.222 152.667 101.778C150.889 101.333 150.444 100 149.778 99.6668C149.111 99.3334 146.667 98.2223 145.889 99.0001C145.111 99.7779 146.667 99.7779 145.444 100.778C144.222 101.778 146.111 105.222 144.222 106C142.333 106.667 141.667 107.445 141.556 108.556C141.444 109.667 140.889 112.445 138.444 112.889C136 113.333 136.333 115.778 134.778 115.778C133.222 115.778 132.889 116.445 132.889 116.445L131.556 114.333L128.444 110.222C128.444 110.222 125.889 100.667 131.111 96.1112C136.222 91.5556 138.556 86.5556 145.889 88.0001C153.222 89.4445 157.444 89.4445 160.222 92.6668C163 95.889 165 98.2223 164.333 99.5556Z" fill="#0A2245"/>
<path d="M299.111 116.889L306.222 120.111C306.556 120.222 306.778 120.445 306.889 120.667L311.222 127.222C311.889 128.333 313.556 128.111 314 127L317.222 119.889C317.333 119.556 317.556 119.333 317.778 119.222L324.333 114.889C325.444 114.222 325.222 112.556 324.111 112.111L317 108.889C316.667 108.778 316.444 108.556 316.333 108.333L312 101.778C311.333 100.667 309.667 100.889 309.222 102L306 109.111C305.889 109.445 305.667 109.667 305.444 109.778L298.889 114.111C297.889 114.778 298 116.445 299.111 116.889Z" fill="url(#paint0_linear)"/>
<path d="M298.667 137.445L301.667 138.778C301.778 138.778 301.889 138.889 302 139L303.778 141.778C304.111 142.222 304.778 142.111 305 141.667L306.333 138.667C306.333 138.556 306.444 138.445 306.556 138.334L309.333 136.556C309.778 136.222 309.667 135.556 309.222 135.334L306.222 134C306.111 134 306 133.889 305.889 133.778L304.111 131C303.778 130.556 303.111 130.667 302.889 131.111L301.556 134.111C301.556 134.222 301.444 134.334 301.333 134.445L298.556 136.222C298.111 136.667 298.222 137.334 298.667 137.445Z" fill="url(#paint1_linear)"/>
<path d="M203.778 131.555C203.889 131.667 203.889 131.778 204 132C204.778 133.778 205.889 135.778 207.222 138C207.333 138.111 207.333 138.222 207.444 138.333C207.556 138.444 207.556 138.555 207.667 138.667C209.333 141.333 210.667 142.889 211.889 143.889C212 144 212.111 144.111 212.333 144.222C214.111 145.444 215.444 145.333 217 145C219.667 144.333 227.333 141.111 227.333 141.111C227.333 141.111 226.667 140.222 225.556 138.667C225.444 138.555 225.333 138.444 225.333 138.333C224.222 136.667 222.667 134.222 221.222 131.667C221.111 131.555 221.111 131.444 221 131.222C219.778 129.111 218.667 126.778 217.778 124.444C217.667 124.333 217.667 124.111 217.556 124C217.333 123.333 217.111 122.778 216.889 122.222C216.222 120.333 215.667 118.444 215.222 116.667C215.222 116.444 215.111 116.333 215.111 116.111C214.111 112.333 213.444 109 213 106.667C213.111 107.111 213.111 107.444 213.111 107.889C213.556 115.111 204.333 116.444 202.889 121.778C202.667 122.555 202.556 123.333 202.444 124.111C202.444 124.333 202.444 124.444 202.444 124.667C202.222 126.889 202.778 129.111 203.778 131.555Z" fill="#BC7C12"/>
<path d="M216.667 64.4443L212.111 63.4443C211.889 63.4443 211.778 63.4443 211.556 63.4443L207.222 65.111C206.556 65.3332 205.778 64.7777 206 63.9999L207 59.4443C207 59.2221 207 59.111 207 58.8888L205.333 54.5555C205.111 53.8888 205.667 53.111 206.444 53.3332L211 54.3332C211.222 54.3332 211.333 54.3332 211.556 54.3332L215.889 52.6666C216.556 52.4443 217.333 52.9999 217.111 53.7777L216.111 58.3332C216.111 58.5555 216.111 58.6666 216.111 58.8888L217.778 63.2221C218 63.8888 217.444 64.5555 216.667 64.4443Z" fill="#E69716"/>
<path d="M219.333 94.0001C219.333 94.0001 225.444 85.3334 231.444 87.0001C237.444 88.6668 241.333 94.6668 241 98.3334C240.667 102 240.667 102 240.667 102C240.667 102 250.667 99.889 252.556 92.6668C254.444 85.5557 255.111 76.6668 259.889 76.7779C264.667 76.889 262.333 95.5557 258.889 99.2223C255.444 102.889 252.222 106.222 252.222 106.222C252.222 106.222 260.889 102.222 263 95.0001C265.111 87.7779 266 82.6668 268.778 83.5557C271.556 84.4446 270.778 97.2223 266.444 104C262 110.778 256.556 115.111 256.556 115.111L256.889 117.889C256.889 117.889 264.889 116.556 270 109.778C275.111 103 276.444 101.333 278.778 103.667C281.111 106 269 125.111 259.556 128.445C250.111 131.778 238.778 143.667 228.889 141C219 138.222 207.556 114.222 212.111 105.556C216.667 96.889 218.889 93.6668 220.667 95.2223C222.444 96.7779 222.556 103.556 222 107.111C221.444 110.556 227 113.556 230.556 109.111C234.111 104.667 236.667 93.4446 231.111 94.889C225.667 96.4446 222.444 97.5557 219.333 94.0001Z" fill="#F7DDB2"/>
<path d="M122.222 266.667C124.667 264.889 135 269.556 145.556 280.778C156.111 292 171.222 311.445 169.444 316C167.667 320.556 115 271.889 122.222 266.667Z" fill="url(#paint2_linear)"/>
<path d="M169.222 316.445C169.222 316.445 162.444 323.445 160.111 325.334C157.778 327.223 155.333 326.667 148.778 322.556C142.222 318.445 131.111 310.223 122.222 298C113.333 285.889 111.444 279.667 111 278.445C110.556 277.223 111.778 276.334 113.778 274.445C115.778 272.556 120.222 268.556 121.333 267.445C122.444 266.556 169.222 316.445 169.222 316.445Z" fill="url(#paint3_linear)"/>
<path d="M124.778 269.223C126.889 267.667 135.667 272.556 144.889 282.334C154.111 292.112 168.667 309.334 167 313.334C166.222 315.334 154.556 304.667 143.333 293.778C132.222 282.778 121.556 271.556 124.778 269.223Z" fill="#E69716"/>
<path d="M44.7778 296.555C46.4445 292.889 61.8889 291.333 81.8889 297.555C101.889 303.778 133.111 316.778 133.889 323.333C134.667 329.889 39.6667 307.555 44.7778 296.555Z" fill="url(#paint4_linear)"/>
<path d="M134.111 323.889C134.111 323.889 130.667 336.778 129.222 340.667C127.778 344.556 124.444 345.556 113.889 345.111C103.333 344.667 84.5556 342.333 65.7778 333.889C47 325.444 40.6667 319.333 39.3333 318.222C38 317.111 38.7778 315.222 40 311.556C41.1111 307.889 43.7778 300.111 44.3333 298.111C44.8889 296.222 134.111 323.889 134.111 323.889Z" fill="url(#paint5_linear)"/>
<path d="M49.5556 297.889C51 294.667 64.6667 294.445 82.3333 299.889C100 305.333 128.778 315.889 129.444 321.778C129.778 324.667 108.778 320 88.1111 314.445C67.4444 308.889 47.3333 302.778 49.5556 297.889Z" fill="#E69716"/>
<defs>
<linearGradient id="paint0_linear" x1="298.476" y1="83.8448" x2="320.578" y2="134.922" gradientUnits="userSpaceOnUse">
<stop stop-color="#F8E3BF"/>
<stop offset="1" stop-color="#E69716"/>
</linearGradient>
<linearGradient id="paint1_linear" x1="298.439" y1="123.654" x2="307.676" y2="145" gradientUnits="userSpaceOnUse">
<stop stop-color="#F8E3BF"/>
<stop offset="1" stop-color="#E69716"/>
</linearGradient>
<linearGradient id="paint2_linear" x1="165.472" y1="294.03" x2="101.661" y2="285.074" gradientUnits="userSpaceOnUse">
<stop stop-color="#F8E3BF"/>
<stop offset="1" stop-color="#E69716"/>
</linearGradient>
<linearGradient id="paint3_linear" x1="174.81" y1="304.475" x2="124.357" y2="293.678" gradientUnits="userSpaceOnUse">
<stop stop-color="#F8E3BF"/>
<stop offset="1" stop-color="#E69716"/>
</linearGradient>
<linearGradient id="paint4_linear" x1="114.489" y1="299.93" x2="32.577" y2="332.197" gradientUnits="userSpaceOnUse">
<stop stop-color="#F8E3BF"/>
<stop offset="1" stop-color="#E69716"/>
</linearGradient>
<linearGradient id="paint5_linear" x1="132.672" y1="306.185" x2="65.3813" y2="327.29" gradientUnits="userSpaceOnUse">
<stop stop-color="#F8E3BF"/>
<stop offset="1" stop-color="#E69716"/>
</linearGradient>
</defs>
</svg>
