<svg width="60" height="60" viewBox="0 0 60 60" fill="none" xmlns="http://www.w3.org/2000/svg">
<path fill-rule="evenodd" clip-rule="evenodd" d="M23.855 17.5H6.145C5.5125 17.5 5 16.94 5 16.25C5 15.56 5.5125 15 6.145 15H23.855C24.4875 15 25 15.56 25 16.25C25 16.94 24.4875 17.5 23.855 17.5Z" fill="#1B4180"/>
<path fill-rule="evenodd" clip-rule="evenodd" d="M21.355 25H3.645C3.0125 25 2.5 24.44 2.5 23.75C2.5 23.06 3.0125 22.5 3.645 22.5H21.355C21.9875 22.5 22.5 23.06 22.5 23.75C22.5 24.44 21.9875 25 21.355 25Z" fill="#1B4180"/>
<path fill-rule="evenodd" clip-rule="evenodd" d="M18.855 32.5H6.145C5.5125 32.5 5 31.94 5 31.25C5 30.56 5.5125 30 6.145 30H18.855C19.4875 30 20 30.56 20 31.25C20 31.94 19.4875 32.5 18.855 32.5Z" fill="#1B4180"/>
<path fill-rule="evenodd" clip-rule="evenodd" d="M50 50H15C13.6175 50 12.5 48.88 12.5 47.5C12.5 46.12 13.6175 45 15 45H50C51.38 45 52.5 43.8775 52.5 42.5V20C52.5 18.6225 51.38 17.5 50 17.5H32.5C31.1175 17.5 30 16.38 30 15C30 13.62 31.1175 12.5 32.5 12.5H50C54.135 12.5 57.5 15.865 57.5 20V42.5C57.5 46.635 54.135 50 50 50Z" fill="#1B4180"/>
<path fill-rule="evenodd" clip-rule="evenodd" d="M32.7738 30.437H34.6163C35.2788 30.437 35.8388 30.287 36.2938 29.992C36.7513 29.697 37.0588 29.2795 37.2188 28.742C37.3213 28.392 37.2763 28.1245 37.0763 27.9395C36.8763 27.7595 36.5388 27.667 36.0613 27.667H34.1913L32.7738 30.437ZM38.0813 30.407C37.5113 30.9645 36.8188 31.3795 35.9988 31.652L36.5063 34.317H34.2288L34.0188 31.9795H31.9863L30.7813 34.317H28.7588L32.9688 26.1345H36.8363C37.8338 26.1345 38.5488 26.3345 38.9688 26.732C39.3888 27.1295 39.4913 27.6945 39.2738 28.427C39.0463 29.1895 38.6488 29.8495 38.0813 30.407Z" fill="#333333"/>
<path fill-rule="evenodd" clip-rule="evenodd" d="M41.8409 29.7875C41.5159 29.9575 41.2334 30.1875 40.9859 30.475C40.7434 30.7625 40.5684 31.0825 40.4684 31.43C40.3484 31.85 40.3759 32.1875 40.5509 32.4425C40.7284 32.7 41.0184 32.825 41.4309 32.825C41.7559 32.825 42.0834 32.74 42.4109 32.57C42.7384 32.4 43.0259 32.17 43.2709 31.8775C43.5184 31.585 43.6909 31.265 43.7909 30.92C43.9109 30.4975 43.8834 30.16 43.7084 29.91C43.5309 29.6575 43.2384 29.5325 42.8284 29.5325C42.4934 29.5325 42.1634 29.6175 41.8409 29.7875ZM45.0909 28.5125C45.4034 28.735 45.6059 29.045 45.7009 29.445C45.7959 29.8425 45.7709 30.3025 45.6234 30.82C45.4384 31.4625 45.1234 32.0475 44.6784 32.575C44.2309 33.105 43.7109 33.52 43.1184 33.8225C42.5209 34.125 41.9134 34.2775 41.2934 34.2775C40.7984 34.2775 40.4059 34.18 40.1184 33.985C39.8259 33.7875 39.6509 33.505 39.5859 33.135L37.9759 36.3625H36.1959L40.2184 28.2475H41.9959L41.6134 29.0125C41.9634 28.745 42.3309 28.54 42.7234 28.395C43.1109 28.2525 43.5009 28.18 43.8884 28.18C44.3784 28.18 44.7784 28.29 45.0909 28.5125Z" fill="#333333"/>
</svg>
