<svg width="30" height="30" viewBox="0 0 30 30" fill="none" xmlns="http://www.w3.org/2000/svg">
<path d="M17.3075 29.2141C17.1797 29.2559 17.0515 29.2943 16.9229 29.3294C17.0515 29.2943 17.1797 29.2559 17.3075 29.2141Z" fill="white"/>
<path d="M17.7702 29.2397C17.7184 29.2622 17.6666 29.2828 17.6147 29.3039C17.6666 29.2828 17.7184 29.2622 17.7702 29.2397Z" fill="white"/>
<path d="M16.9232 29.2273C16.7956 29.261 16.6673 29.291 16.5386 29.3163C16.6673 29.291 16.7956 29.261 16.9232 29.2273Z" fill="white"/>
<path d="M17.0007 29.2448C16.949 29.2641 16.897 29.2819 16.8452 29.2987C16.897 29.2819 16.949 29.2641 17.0007 29.2448Z" fill="white"/>
<path d="M18.1545 29.2378C18.1028 29.2608 18.0509 29.2837 17.999 29.3058C18.0509 29.2837 18.1028 29.2608 18.1545 29.2378Z" fill="white"/>
<path d="M19.3083 28.8557C19.2565 28.8805 19.2046 28.904 19.1528 28.9284C19.2046 28.904 19.2565 28.8805 19.3083 28.8557Z" fill="white"/>
<path d="M18.924 28.855C18.8724 28.8798 18.8205 28.9052 18.7686 28.9291C18.8205 28.9052 18.8724 28.8803 18.924 28.855Z" fill="white"/>
<path d="M18.5392 28.858C18.4877 28.8815 18.4358 28.9035 18.3838 28.926C18.4358 28.9035 18.4877 28.8815 18.5392 28.858Z" fill="white"/>
<path d="M16.5384 29.2535C16.4103 29.2671 16.2823 29.2793 16.1538 29.2901C16.2823 29.2793 16.4103 29.2671 16.5384 29.2535Z" fill="white"/>
<path d="M30 14.8101C30 6.63197 23.283 0 15 0C6.717 0 0 6.63197 0 14.8101C0 22.9883 6.717 29.6203 15 29.6203C15.0881 29.6203 15.1758 29.6184 15.2637 29.6169V18.0878H12.041V14.3796H15.2637V11.6509C15.2637 8.48617 17.2204 6.76372 20.0796 6.76372C21.4487 6.76372 22.6257 6.86451 22.9688 6.90948V10.217H20.9972C19.4417 10.217 19.1405 10.9469 19.1405 12.0179V14.3796H22.8598L22.375 18.0878H19.1405V29.0481C25.4102 27.2734 30 21.5702 30 14.8101Z" fill="white"/>
<path d="M16.1537 29.2479C16.026 29.2685 15.8977 29.2849 15.769 29.2957C15.8977 29.2849 16.026 29.2685 16.1537 29.2479Z" fill="white"/>
<path d="M15.7694 29.6452C15.6414 29.6508 15.5131 29.6551 15.3848 29.6579C15.5131 29.6551 15.6414 29.6508 15.7694 29.6452Z" fill="white"/>
</svg>
