<svg width="30" height="30" viewBox="0 0 30 30" fill="none" xmlns="http://www.w3.org/2000/svg">
<path d="M13.4482 17.5862L18.6207 15L13.4482 12.4138L13.4482 17.5862Z" fill="white"/>
<path fill-rule="evenodd" clip-rule="evenodd" d="M0 15C0 6.717 6.717 0 15 0C23.283 0 30 6.717 30 15C30 23.283 23.283 30 15 30C6.717 30 0 23.283 0 15ZM23.9868 19.5243C24.3727 18.0574 24.3727 15.0153 24.3727 15.0153C24.3727 15.0153 24.3883 11.9582 23.9868 10.4913C23.7705 9.68834 23.1375 9.05502 22.3345 8.83896C20.8676 8.4375 15 8.4375 15 8.4375C15 8.4375 9.1324 8.4375 7.6655 8.82362C6.87791 9.03969 6.22926 9.68834 6.0132 10.4913C5.62708 11.9582 5.62708 15 5.62708 15C5.62708 15 5.62708 18.0574 6.0132 19.5087C6.22949 20.3117 6.86258 20.945 7.6655 21.161C9.14774 21.5625 15 21.5625 15 21.5625C15 21.5625 20.8676 21.5625 22.3345 21.1764C23.1375 20.9603 23.7705 20.3272 23.9868 19.5243Z" fill="white"/>
</svg>
