<svg width="24" height="24" viewBox="0 0 24 24" fill="none" xmlns="http://www.w3.org/2000/svg">
<path fill-rule="evenodd" clip-rule="evenodd" d="M12 1C7.582 1 4 4.694 4 9.25C4 12.487 5.813 15.281 8.444 16.632V20.25C8.444 21.763 9.645 23 11.111 23H12.889C14.355 23 15.556 21.763 15.556 20.25V16.632C18.187 15.281 20 12.487 20 9.25C20 4.694 16.418 1 12 1ZM12 3C15.309 3 18 5.804 18 9.25C18 11.643 16.714 13.79 14.643 14.853C13.975 15.195 13.556 15.882 13.556 16.632V20.25C13.556 20.657 13.25 21 12.889 21H11.111C10.75 21 10.444 20.657 10.444 20.25V16.632C10.444 15.882 10.025 15.195 9.357 14.853C7.286 13.79 6 11.643 6 9.25C6 5.804 8.691 3 12 3Z" fill="#1B4180"/>
<path fill-rule="evenodd" clip-rule="evenodd" d="M15.1115 17.5H9.7775C9.5325 17.5 9.3335 17.295 9.3335 17.042C9.3335 16.788 9.5325 16.583 9.7775 16.583H15.1115C15.3565 16.583 15.5555 16.788 15.5555 17.042C15.5555 17.295 15.3565 17.5 15.1115 17.5Z" fill="#1B4180"/>
<path fill-rule="evenodd" clip-rule="evenodd" d="M15.1115 19.3335H9.7775C9.5325 19.3335 9.3335 19.1285 9.3335 18.8755C9.3335 18.6215 9.5325 18.4165 9.7775 18.4165H15.1115C15.3565 18.4165 15.5555 18.6215 15.5555 18.8755C15.5555 19.1285 15.3565 19.3335 15.1115 19.3335Z" fill="#1B4180"/>
<path fill-rule="evenodd" clip-rule="evenodd" d="M10.6721 12.4999C10.5471 12.4999 10.4211 12.4529 10.3241 12.3589C10.1261 12.1669 10.1211 11.8499 10.3131 11.6519L12.1541 9.75193H10.6671C10.4661 9.75193 10.2851 9.63193 10.2071 9.44693C10.1281 9.26193 10.1681 9.04793 10.3081 8.90393L12.9771 6.15193C13.1701 5.95493 13.4861 5.94893 13.6841 6.14093C13.8821 6.33293 13.8871 6.64993 13.6951 6.84793L11.8491 8.75193H13.3361C13.5371 8.75193 13.7181 8.87293 13.7961 9.05793C13.8751 9.24293 13.8351 9.45693 13.6951 9.60093L11.0311 12.3479C10.9331 12.4489 10.8031 12.4999 10.6721 12.4999Z" fill="#1B4180"/>
</svg>
