<svg width="40" height="40" viewBox="0 0 40 40" fill="none" xmlns="http://www.w3.org/2000/svg">
<path fill-rule="evenodd" clip-rule="evenodd" d="M20.0001 1.66602C9.87508 1.66602 1.66675 9.87435 1.66675 19.9993C1.66675 30.1243 9.87508 38.3327 20.0001 38.3327C30.1251 38.3327 38.3334 30.1243 38.3334 19.9993C38.3334 9.87435 30.1251 1.66602 20.0001 1.66602ZM20.0001 4.99935C28.2717 4.99935 35.0001 11.7293 35.0001 19.9993C35.0001 28.2693 28.2717 34.9993 20.0001 34.9993C11.7284 34.9993 5.00008 28.2693 5.00008 19.9993C5.00008 11.7293 11.7284 4.99935 20.0001 4.99935Z" fill="#1B4180"/>
<path fill-rule="evenodd" clip-rule="evenodd" d="M19.3834 24.7573C20.6684 24.7573 21.6184 25.7057 21.6184 26.9373V26.9873C21.6184 28.219 20.6684 29.1673 19.3834 29.1673C18.1001 29.1673 17.1501 28.219 17.1501 26.9873V26.9373C17.1501 25.7057 18.1001 24.7573 19.3834 24.7573ZM19.3834 23.064C18.6401 23.064 18.1001 22.5007 17.9968 21.809L17.7418 20.0657C17.6134 19.219 18.1001 18.629 18.9218 18.5273C21.1551 18.244 22.1834 17.5523 22.1834 16.2957V16.244C22.1834 15.0907 21.3101 14.424 19.8201 14.424C18.7168 14.424 17.7651 14.7573 16.8418 15.449C16.5334 15.6807 16.1234 15.859 15.6868 15.859C14.7101 15.859 13.8884 15.039 13.8884 14.064C13.8884 13.5773 14.0951 13.064 14.5568 12.6807C15.9184 11.5523 17.6384 10.834 19.8984 10.834C23.5951 10.834 26.1118 12.7323 26.1118 16.1423V16.1923C26.1118 19.449 23.8518 20.7823 21.0534 21.3473L20.9751 21.809C20.8734 22.4757 20.3334 23.064 19.5901 23.064H19.3834Z" fill="#1B4180"/>
</svg>
