<svg width="24" height="24" viewBox="0 0 24 24" fill="none" xmlns="http://www.w3.org/2000/svg">
<path fill-rule="evenodd" clip-rule="evenodd" d="M9.542 7H2.458C2.205 7 2 6.776 2 6.5C2 6.224 2.205 6 2.458 6H9.542C9.795 6 10 6.224 10 6.5C10 6.776 9.795 7 9.542 7Z" fill="#1B4180"/>
<path fill-rule="evenodd" clip-rule="evenodd" d="M8.542 10H1.458C1.205 10 1 9.776 1 9.5C1 9.224 1.205 9 1.458 9H8.542C8.795 9 9 9.224 9 9.5C9 9.776 8.795 10 8.542 10Z" fill="#1B4180"/>
<path fill-rule="evenodd" clip-rule="evenodd" d="M7.542 13H2.458C2.205 13 2 12.776 2 12.5C2 12.224 2.205 12 2.458 12H7.542C7.795 12 8 12.224 8 12.5C8 12.776 7.795 13 7.542 13Z" fill="#1B4180"/>
<path fill-rule="evenodd" clip-rule="evenodd" d="M20 20H6C5.447 20 5 19.552 5 19C5 18.448 5.447 18 6 18H20C20.552 18 21 17.551 21 17V8C21 7.449 20.552 7 20 7H13C12.447 7 12 6.552 12 6C12 5.448 12.447 5 13 5H20C21.654 5 23 6.346 23 8V17C23 18.654 21.654 20 20 20Z" fill="#1B4180"/>
<path fill-rule="evenodd" clip-rule="evenodd" d="M13.1094 12.1746H13.8464C14.1114 12.1746 14.3354 12.1146 14.5174 11.9966C14.7004 11.8786 14.8234 11.7116 14.8874 11.4966C14.9284 11.3566 14.9104 11.2496 14.8304 11.1756C14.7504 11.1036 14.6154 11.0666 14.4244 11.0666H13.6764L13.1094 12.1746ZM15.2324 12.1626C15.0044 12.3856 14.7274 12.5516 14.3994 12.6606L14.6024 13.7266H13.6914L13.6074 12.7916H12.7944L12.3124 13.7266H11.5034L13.1874 10.4536H14.7344C15.1334 10.4536 15.4194 10.5336 15.5874 10.6926C15.7554 10.8516 15.7964 11.0776 15.7094 11.3706C15.6184 11.6756 15.4594 11.9396 15.2324 12.1626Z" fill="#1B4180"/>
<path fill-rule="evenodd" clip-rule="evenodd" d="M16.7363 11.9148C16.6063 11.9828 16.4933 12.0748 16.3943 12.1898C16.2973 12.3048 16.2273 12.4328 16.1873 12.5718C16.1393 12.7398 16.1503 12.8748 16.2203 12.9768C16.2913 13.0798 16.4073 13.1298 16.5723 13.1298C16.7023 13.1298 16.8333 13.0958 16.9643 13.0278C17.0953 12.9598 17.2103 12.8678 17.3083 12.7508C17.4073 12.6338 17.4763 12.5058 17.5163 12.3678C17.5643 12.1988 17.5533 12.0638 17.4833 11.9638C17.4123 11.8628 17.2953 11.8128 17.1313 11.8128C16.9973 11.8128 16.8653 11.8468 16.7363 11.9148ZM18.0363 11.4048C18.1613 11.4938 18.2423 11.6178 18.2803 11.7778C18.3183 11.9368 18.3083 12.1208 18.2493 12.3278C18.1753 12.5848 18.0493 12.8188 17.8713 13.0298C17.6923 13.2418 17.4843 13.4078 17.2473 13.5288C17.0083 13.6498 16.7653 13.7108 16.5173 13.7108C16.3193 13.7108 16.1623 13.6718 16.0473 13.5938C15.9303 13.5148 15.8603 13.4018 15.8343 13.2538L15.1903 14.5448H14.4783L16.0873 11.2988H16.7983L16.6453 11.6048C16.7853 11.4978 16.9323 11.4158 17.0893 11.3578C17.2443 11.3008 17.4003 11.2718 17.5553 11.2718C17.7513 11.2718 17.9113 11.3158 18.0363 11.4048Z" fill="#1B4180"/>
</svg>
