<svg width="40" height="40" viewBox="0 0 40 40" fill="none" xmlns="http://www.w3.org/2000/svg">
<path d="M32.6501 1.66602H7.35008C4.21675 1.66602 1.66675 4.21602 1.66675 7.34935V24.316C1.66675 27.4493 4.21675 29.9993 7.35008 29.9993H7.93341C8.15008 29.9993 8.33341 30.1827 8.33341 30.3993V36.666C8.33341 37.316 8.71675 37.916 9.31675 38.1827C9.53341 38.2827 9.76675 38.3327 10.0001 38.3327C10.4001 38.3327 10.8001 38.1827 11.1001 37.916L20.0001 29.9993H32.6501C35.7834 29.9993 38.3334 27.4493 38.3334 24.316V7.34935C38.3334 4.21602 35.7834 1.66602 32.6501 1.66602ZM34.5167 24.316C34.5167 25.3493 33.6834 26.1827 32.6501 26.1827H24.3001H20.1334C19.5834 26.1827 19.0667 26.3827 18.6667 26.7493L14.9834 29.9993L11.6667 32.9493V29.9993V28.5827C11.6667 27.2493 10.5834 26.1827 9.26675 26.1827H8.33341H7.35008C6.31675 26.1827 5.48341 25.3493 5.48341 24.316V7.34935C5.48341 6.31601 6.31675 5.48268 7.35008 5.48268H32.6501C33.6834 5.48268 34.5167 6.31601 34.5167 7.34935V24.316Z" fill="#1B4180"/>
<path d="M12.8834 19.9839C12.0667 19.1172 11.6667 17.8172 11.6667 16.1172V15.5505C11.6667 13.8005 12.0501 12.5005 12.8334 11.6505C13.6167 10.8005 14.8001 10.3672 16.4167 10.3672C16.9501 10.3672 17.4167 10.4172 17.8501 10.5005C18.2667 10.6005 18.7001 10.7339 19.1334 10.9339L18.8501 12.6672C18.2168 12.5505 17.6501 12.4839 17.1501 12.4839C16.2001 12.4839 15.5501 12.6839 15.1834 13.0839C14.8334 13.4839 14.6501 14.0839 14.6334 14.8505V16.8339C14.6167 17.6005 14.8001 18.1839 15.1667 18.5839C15.5334 18.9839 16.2001 19.1839 17.1501 19.1839C17.6501 19.1839 18.2168 19.1172 18.8501 19.0005L19.1334 20.7339C18.2667 21.1172 17.3667 21.3172 16.4167 21.3172C14.8667 21.3005 13.6834 20.8672 12.8834 19.9839Z" fill="#1B4180"/>
<path d="M22.7333 21.1514C22.2167 21.0514 21.6833 20.8848 21.1333 20.6681L21.4167 19.0181C22.2833 19.1848 23.0166 19.2681 23.6167 19.2681C24.25 19.2681 24.7167 19.1848 25.0333 19.0348C25.35 18.8681 25.5 18.6348 25.5 18.3014C25.5 18.1181 25.45 17.9681 25.3333 17.8348C25.2166 17.7014 25.0833 17.5848 24.9166 17.4848C24.7333 17.3848 24.45 17.2181 24.0666 17.0181L23.3333 16.6348C22.5333 16.2181 21.95 15.7681 21.6 15.3014C21.25 14.8348 21.0667 14.2348 21.0667 13.5348C21.0667 12.5681 21.4 11.8014 22.0833 11.2348C22.7666 10.6681 23.6833 10.3848 24.85 10.3848C25.3833 10.3848 25.85 10.4348 26.2833 10.5181C26.7 10.6181 27.1333 10.7514 27.5667 10.9514L27.2833 12.6014C26.65 12.4848 26.0667 12.4181 25.5167 12.4181C25.0167 12.4181 24.6167 12.5014 24.3333 12.6848C24.05 12.8514 23.9 13.1014 23.9 13.4348C23.9 13.6348 23.9833 13.8348 24.1333 14.0348C24.2833 14.2181 24.5 14.4014 24.8 14.5514L25.6 14.9681C26.2833 15.3181 26.8333 15.6514 27.2333 15.9514C27.6333 16.2681 27.9167 16.6014 28.1 16.9514C28.2333 17.2848 28.3333 17.6848 28.3333 18.1681C28.3333 19.1514 27.9833 19.9181 27.3 20.4681C26.6166 21.0181 25.65 21.3014 24.4333 21.3014C23.8166 21.3014 23.25 21.2514 22.7333 21.1514Z" fill="#1B4180"/>
</svg>
