<svg width="18" height="20" viewBox="0 0 18 20" fill="none" xmlns="http://www.w3.org/2000/svg">
<path fill-rule="evenodd" clip-rule="evenodd" d="M2.5 7.75C2.5 4.85462 4.85462 2.5 7.75 2.5C10.6454 2.5 13 4.85462 13 7.75C13 10.6454 10.6454 13 7.75 13C4.85462 13 2.5 10.6454 2.5 7.75ZM17.1011 17.5316L12.4741 12.9046C13.8697 11.6254 14.75 9.79225 14.75 7.75C14.75 3.88425 11.6157 0.75 7.75 0.75C3.88425 0.75 0.75 3.88425 0.75 7.75C0.75 11.6158 3.88425 14.75 7.75 14.75C8.89187 14.75 9.96462 14.4718 10.9166 13.987L15.7816 18.852C15.9645 19.034 16.2025 19.125 16.4422 19.125C16.6802 19.125 16.9191 19.034 17.1011 18.852C17.466 18.4871 17.466 17.8965 17.1011 17.5316Z" fill="#757575"/>
</svg>
