<svg width="18" height="18" viewBox="0 0 18 18" fill="none" xmlns="http://www.w3.org/2000/svg">
<path fill-rule="evenodd" clip-rule="evenodd" d="M0.350489 3.09377C0.131841 3.45367 0 3.87644 0 4.33334V13.6667C0 14.0759 0.110474 14.4553 0.288946 14.7891L5.97152 8.19346L0.350489 3.09377ZM11.1816 8.96241L9.37102 10.6065C9.26511 10.7021 9.13323 10.7499 9.00087 10.7499C8.86844 10.7499 8.73656 10.7021 8.63065 10.6065L6.81959 8.96233L1.06445 15.6411C1.40941 15.8656 1.81369 16 2.25092 16H15.7508C16.1879 16 16.5924 15.8656 16.9373 15.6411L11.1816 8.96241ZM8.99815 9.39208L16.8205 2.294C16.4995 2.11176 16.138 2 15.748 2H2.24823C1.85782 2 1.49624 2.11176 1.17654 2.294L8.99815 9.39208ZM17.9994 13.6666C17.9994 14.0759 17.8884 14.4552 17.7106 14.789L12.0273 8.19454L17.649 3.09377C17.8677 3.45367 17.9994 3.87644 17.9994 4.3333V13.6666Z" fill="white"/>
<mask id="mask0" mask-type="alpha" maskUnits="userSpaceOnUse" x="0" y="0" width="18" height="18">
<path fill-rule="evenodd" clip-rule="evenodd" d="M17.7104 14.0362C17.7474 14.3193 17.6611 14.5655 17.452 14.7747L14.9964 17.2117C14.8856 17.3348 14.741 17.4395 14.5625 17.5256C14.3841 17.6118 14.2087 17.6672 14.0364 17.6917C14.0241 17.6917 13.9871 17.6949 13.9255 17.7011C13.8641 17.7072 13.7841 17.7103 13.6856 17.7103C13.4517 17.7103 13.0732 17.6703 12.55 17.5903C12.0269 17.5102 11.3869 17.3133 10.63 16.9995C9.87288 16.6856 9.01438 16.2147 8.05434 15.5871C7.09429 14.9594 6.07265 14.0977 4.98948 13.0023C4.12788 12.1529 3.41398 11.3406 2.84778 10.5652C2.28158 9.78968 1.82616 9.0727 1.48152 8.41419C1.13685 7.75568 0.878367 7.15871 0.706046 6.62328C0.533725 6.08785 0.416793 5.62628 0.355249 5.23856C0.293706 4.85083 0.269089 4.5462 0.281397 4.32464C0.293706 4.10308 0.29986 3.98 0.29986 3.95538C0.324478 3.78306 0.379867 3.60766 0.466027 3.42919C0.552188 3.25071 0.656811 3.10608 0.779898 2.99531L3.23547 0.539732C3.40779 0.367411 3.60473 0.28125 3.82629 0.28125C3.9863 0.28125 4.12785 0.327407 4.25094 0.419722C4.37402 0.512037 4.47865 0.625892 4.56481 0.761287L6.54034 4.50927C6.65112 4.70621 6.68189 4.92161 6.63266 5.15547C6.58342 5.38934 6.4788 5.58628 6.31879 5.74629L5.4141 6.65097C5.38949 6.67559 5.36795 6.71559 5.34948 6.77098C5.33102 6.82637 5.32179 6.87253 5.32179 6.90946C5.37102 7.16794 5.4818 7.46335 5.65412 7.79568C5.80183 8.09109 6.02954 8.45111 6.33725 8.87576C6.64497 9.30041 7.08192 9.78965 7.64812 10.3435C8.20201 10.9098 8.69436 11.3498 9.12516 11.6637C9.55587 11.9775 9.91602 12.2083 10.2053 12.356C10.4945 12.5037 10.7161 12.593 10.8699 12.6237L11.1006 12.6698C11.1253 12.6698 11.1653 12.6606 11.2207 12.6421C11.2761 12.6237 11.3161 12.6021 11.3407 12.5775L12.3931 11.5066C12.6148 11.3097 12.8731 11.2113 13.1686 11.2113C13.3779 11.2113 13.5439 11.2482 13.667 11.322H13.6855L17.2488 13.4268C17.5073 13.587 17.6612 13.79 17.7104 14.0362Z" fill="white"/>
</mask>
<g mask="url(#mask0)">
</g>
</svg>
