<svg width="60" height="60" viewBox="0 0 60 60" fill="none" xmlns="http://www.w3.org/2000/svg">
<path d="M51.775 23.1C52.4 23.1 52.925 23.625 52.925 24.25C52.925 24.875 52.4 25.4 51.775 25.4H8.225C7.6 25.4 7.075 24.875 7.075 24.25C7.075 23.625 7.6 23.1 8.225 23.1H51.775ZM51.775 18.5H8.225C5.075 18.5 2.5 21.075 2.5 24.25C2.5 27.425 5.075 30 8.225 30H51.775C54.925 30 57.5 27.425 57.5 24.25C57.5 21.075 54.925 18.5 51.775 18.5Z" fill="#1B4180"/>
<path d="M51.775 50.7249C52.4 50.7249 52.925 51.2499 52.925 51.8749C52.925 52.4999 52.4 53.0249 51.775 53.0249H8.225C7.6 53.0249 7.075 52.4999 7.075 51.8749C7.075 51.2499 7.6 50.7249 8.225 50.7249H51.775ZM51.775 46.1249H8.225C5.05 46.1249 2.5 48.6999 2.5 51.8749C2.5 55.0499 5.075 57.6249 8.225 57.6249H51.775C54.95 57.6249 57.5 55.0499 57.5 51.8749C57.5 48.6999 54.925 46.1249 51.775 46.1249Z" fill="#1B4180"/>
<path d="M16.25 48.5249H9.32495V25.9749H16.25V48.5249ZM11.65 46.1999H13.95V28.2999H11.65V46.1999Z" fill="#1B4180"/>
<path d="M50.625 48.4248H43.75V25.3998H50.625V48.4248ZM46.05 46.1248H48.35V27.6998H46.05V46.1248Z" fill="#1B4180"/>
<path d="M30.225 7.2499C30.6 7.2499 31.15 7.3499 31.675 7.7749L44.675 18.4999H15.5L28.775 7.7499C29.325 7.3499 29.875 7.2499 30.225 7.2499ZM30.225 2.6499C28.7 2.6499 27.175 3.1499 25.925 4.1749L4.32499 21.6249C3.72499 22.1249 4.07499 23.0999 4.84999 23.0999H54.625C55.6 23.0999 56.025 21.8749 55.275 21.2499L34.6 4.1999C33.325 3.1749 31.775 2.6499 30.225 2.6499Z" fill="#1B4180"/>
<path d="M22.5 32.4999C23.625 32.2749 24.575 32.1499 25.35 32.1499C26.675 32.1499 27.65 32.4249 28.3 32.9499C28.95 33.4749 29.275 34.2749 29.275 35.3249C29.275 36.4999 28.875 37.3249 28.1 37.8499L29.625 41.1999H27.125L25.925 38.4749C25.8 38.4749 25.625 38.4749 25.375 38.4749H24.9V41.1999H22.5V32.4999ZM25.6 36.7249C26.375 36.7249 26.775 36.2499 26.775 35.3249C26.775 34.3999 26.375 33.9249 25.6 33.9249C25.4 33.9249 25.15 33.9749 24.875 34.0499V36.6999H25.6V36.7249Z" fill="#1B4180"/>
<path d="M30.75 35.2001C31.2 34.9251 31.7 34.7251 32.2 34.5751C32.7 34.4251 33.2 34.3501 33.7 34.3501C34.375 34.3501 34.95 34.4751 35.425 34.7251C35.9 34.9751 36.3 35.3501 36.55 35.8251C36.8 36.3001 36.95 36.8751 36.95 37.5251V38.1001C36.95 39.1251 36.675 39.9251 36.1 40.4751C35.525 41.0251 34.725 41.3001 33.7 41.3001C33.575 41.3001 33.375 41.3001 33.075 41.2751V43.5501L30.75 43.8001V35.2001ZM34.35 39.3001C34.5 39.1501 34.575 38.9501 34.575 38.7001V37.0501C34.575 36.7751 34.5 36.5751 34.35 36.4501C34.2 36.3001 33.975 36.2501 33.7 36.2501C33.45 36.2501 33.25 36.3001 33.075 36.3751V39.4251C33.225 39.5001 33.45 39.5501 33.7 39.5501C33.975 39.5001 34.2 39.4251 34.35 39.3001Z" fill="#1B4180"/>
</svg>
