<svg width="24" height="24" viewBox="0 0 24 24" fill="none" xmlns="http://www.w3.org/2000/svg">
<path d="M20.71 9.24009C20.96 9.24009 21.17 9.45008 21.17 9.70008C21.17 9.95008 20.96 10.1601 20.71 10.1601H3.29C3.04 10.1601 2.83 9.95008 2.83 9.70008C2.83 9.45008 3.04 9.24009 3.29 9.24009H20.71ZM20.71 7.40009H3.29C2.03 7.40009 1 8.43008 1 9.70008C1 10.9701 2.03 12.0001 3.29 12.0001H20.71C21.97 12.0001 23 10.9701 23 9.70008C23 8.43008 21.97 7.40009 20.71 7.40009Z" fill="#1B4180"/>
<path d="M20.71 20.2901C20.96 20.2901 21.17 20.5001 21.17 20.7501C21.17 21.0001 20.96 21.2101 20.71 21.2101H3.29C3.04 21.2101 2.83 21.0001 2.83 20.7501C2.83 20.5001 3.04 20.2901 3.29 20.2901H20.71ZM20.71 18.4501H3.29C2.02 18.4501 1 19.4801 1 20.7501C1 22.0201 2.03 23.0501 3.29 23.0501H20.71C21.98 23.0501 23 22.0201 23 20.7501C23 19.4801 21.97 18.4501 20.71 18.4501Z" fill="#1B4180"/>
<path d="M6.49998 19.4101H3.72998V10.3901H6.49998V19.4101ZM4.65998 18.4801H5.57998V11.3201H4.65998V18.4801Z" fill="#1B4180"/>
<path d="M20.25 19.37H17.5V10.16H20.25V19.37ZM18.42 18.45H19.34V11.08H18.42V18.45Z" fill="#1B4180"/>
<path d="M12.09 2.90006C12.24 2.90006 12.46 2.94006 12.67 3.11006L17.87 7.40006H6.2L11.51 3.10006C11.73 2.94006 11.95 2.90006 12.09 2.90006ZM12.09 1.06006C11.48 1.06006 10.87 1.26006 10.37 1.67006L1.73 8.65006C1.49 8.85006 1.63 9.24006 1.94 9.24006H21.85C22.24 9.24006 22.41 8.75006 22.11 8.50006L13.84 1.68006C13.33 1.27006 12.71 1.06006 12.09 1.06006Z" fill="#1B4180"/>
<path d="M9 12.9999C9.45 12.9099 9.83 12.8599 10.14 12.8599C10.67 12.8599 11.06 12.9699 11.32 13.1799C11.58 13.3899 11.71 13.7099 11.71 14.1299C11.71 14.5999 11.55 14.9299 11.24 15.1399L11.85 16.4799H10.85L10.37 15.3899C10.32 15.3899 10.25 15.3899 10.15 15.3899H9.96V16.4799H9V12.9999ZM10.24 14.6899C10.55 14.6899 10.71 14.4999 10.71 14.1299C10.71 13.7599 10.55 13.5699 10.24 13.5699C10.16 13.5699 10.06 13.5899 9.95 13.6199V14.6799H10.24V14.6899Z" fill="#1B4180"/>
<path d="M12.2998 14.0802C12.4798 13.9702 12.6798 13.8902 12.8798 13.8302C13.0798 13.7702 13.2798 13.7402 13.4798 13.7402C13.7498 13.7402 13.9798 13.7902 14.1698 13.8902C14.3598 13.9902 14.5198 14.1402 14.6198 14.3302C14.7198 14.5202 14.7798 14.7502 14.7798 15.0102V15.2402C14.7798 15.6502 14.6698 15.9702 14.4398 16.1902C14.2098 16.4102 13.8898 16.5202 13.4798 16.5202C13.4298 16.5202 13.3498 16.5202 13.2298 16.5102V17.4202L12.2998 17.5202V14.0802ZM13.7398 15.7202C13.7998 15.6602 13.8298 15.5802 13.8298 15.4802V14.8202C13.8298 14.7102 13.7998 14.6302 13.7398 14.5802C13.6798 14.5202 13.5898 14.5002 13.4798 14.5002C13.3798 14.5002 13.2998 14.5202 13.2298 14.5502V15.7702C13.2898 15.8002 13.3798 15.8202 13.4798 15.8202C13.5898 15.8002 13.6798 15.7702 13.7398 15.7202Z" fill="#1B4180"/>
</svg>
