<svg width="24" height="24" viewBox="0 0 24 24" fill="none" xmlns="http://www.w3.org/2000/svg">
<path d="M22 10.7V18.3C22 20.34 20.34 22 18.3 22H5.7C3.66 22 2 20.34 2 18.3V10.7C2 8.66 3.66 7 5.7 7H7.41C7.96 7 8.41 7.45 8.41 8C8.41 8.55 7.96 9 7.41 9H5.7C4.76 9 4 9.76 4 10.7V18.3C4 19.24 4.76 20 5.7 20H18.3C19.24 20 20 19.24 20 18.3V10.7C20 9.76 19.24 9 18.3 9H16.51C15.96 9 15.51 8.55 15.51 8C15.51 7.45 15.96 7 16.51 7H18.3C20.34 7 22 8.66 22 10.7Z" fill="#1B4180"/>
<path d="M10.0398 6.47988C10.3598 6.40988 10.6398 6.37988 10.8698 6.37988C11.2498 6.37988 11.5298 6.45988 11.7198 6.60988C11.9098 6.76988 11.9998 6.99988 11.9998 7.29988C11.9998 7.63988 11.8898 7.87988 11.6598 8.02988L12.0998 8.99988H11.3698L11.0198 8.20988C10.9898 8.20988 10.9298 8.20988 10.8598 8.20988H10.7198V8.99988H10.0298V6.47988H10.0398ZM10.9398 7.70988C11.1698 7.70988 11.2798 7.57988 11.2798 7.30988C11.2798 7.03988 11.1698 6.90988 10.9398 6.90988C10.8798 6.90988 10.8098 6.91988 10.7298 6.93988V7.70988H10.9398Z" fill="#1B4180"/>
<path d="M12.4299 7.26978C12.5599 7.18978 12.6999 7.12979 12.8499 7.08979C12.9999 7.04979 13.1399 7.02979 13.2799 7.02979C13.4699 7.02979 13.6399 7.06978 13.7799 7.13978C13.9199 7.20978 14.0299 7.31978 14.1099 7.45978C14.1899 7.59978 14.2199 7.75978 14.2199 7.94978V8.11978C14.2199 8.41978 14.1399 8.64979 13.9699 8.80979C13.8099 8.96979 13.5699 9.04979 13.2699 9.04979C13.2299 9.04979 13.1699 9.04978 13.0899 9.03978V9.69978L12.4199 9.76979V7.26978H12.4299ZM13.4699 8.44978C13.5099 8.40978 13.5399 8.34979 13.5399 8.26979V7.78978C13.5399 7.70978 13.5199 7.64979 13.4699 7.60979C13.4299 7.56979 13.3599 7.54979 13.2799 7.54979C13.2099 7.54979 13.1499 7.55978 13.0999 7.57978V8.46979C13.1499 8.48979 13.2099 8.49978 13.2799 8.49978C13.3699 8.50978 13.4299 8.48978 13.4699 8.44978Z" fill="#1B4180"/>
<path d="M11.9498 4.6001C13.6798 4.6001 15.0798 6.0101 15.0798 7.7301C15.0798 9.4501 13.6698 10.8601 11.9498 10.8601C10.2298 10.8601 8.81982 9.4601 8.81982 7.7301C8.81982 6.0001 10.2298 4.6001 11.9498 4.6001ZM11.9498 2.6001C9.10982 2.6001 6.81982 4.9001 6.81982 7.7301C6.81982 10.5601 9.11982 12.8601 11.9498 12.8601C14.7798 12.8601 17.0798 10.5601 17.0798 7.7301C17.0798 4.9001 14.7898 2.6001 11.9498 2.6001Z" fill="#1B4180"/>
<path d="M16.3899 14.1302H7.57988C6.77988 14.1302 6.12988 13.4802 6.12988 12.6802V11.6102C6.12988 10.8102 6.77988 10.1602 7.57988 10.1602H8.64988V11.2502H7.57988C7.37988 11.2502 7.21988 11.4102 7.21988 11.6102V12.6802C7.21988 12.8802 7.37988 13.0402 7.57988 13.0402H16.3899C16.5899 13.0402 16.7499 12.8802 16.7499 12.6802V11.6102C16.7499 11.4102 16.5899 11.2502 16.3899 11.2502H15.2899V10.1602H16.3899C17.1899 10.1602 17.8399 10.8102 17.8399 11.6102V12.6802C17.8399 13.4802 17.1899 14.1302 16.3899 14.1302Z" fill="#1B4180"/>
</svg>
