<svg width="40" height="40" viewBox="0 0 40 40" fill="none" xmlns="http://www.w3.org/2000/svg">
<path fill-rule="evenodd" clip-rule="evenodd" d="M34.9918 20.4994C34.5252 20.9577 33.7685 20.9577 33.3019 20.4994L23.2752 10.6177L20.9969 8.15936C20.4419 7.56269 19.5435 7.55769 18.9869 8.15102L15.9002 11.431L6.69689 20.4994C6.2319 20.9577 5.47356 20.9577 5.00856 20.4994C4.78523 20.2794 4.6619 19.9844 4.6619 19.666C4.6619 19.3527 4.78523 19.056 5.00856 18.836L16.3302 7.67769L19.1469 4.90102L19.1552 4.89269C19.3902 4.66436 19.6935 4.54769 20.0019 4.54769C20.1535 4.54769 20.3052 4.57769 20.4485 4.63436C20.5935 4.69269 20.7285 4.77769 20.8469 4.89269C20.7285 4.77769 20.5935 4.69269 20.4485 4.63436C20.5919 4.69269 20.7269 4.77769 20.8435 4.89102L20.8485 4.89602L23.6702 7.67769L34.9935 18.836C35.2152 19.0544 35.3385 19.351 35.3385 19.666C35.3385 19.9827 35.2152 20.2794 34.9918 20.4994ZM30.6952 33.8326H27.6385V31.801C27.6385 28.626 25.1285 26.0426 22.0435 26.0426H17.9551C14.8718 26.0426 12.3618 28.626 12.3618 31.801V33.8326H9.30508V22.2226L13.6118 17.8593L20.0001 11.5643L25.6835 17.166L30.6952 22.2226V33.8326ZM26.2334 33.8327H13.7668V31.801C13.7668 29.4243 15.6468 27.4893 17.9551 27.4893H22.0435C24.3534 27.4893 26.2334 29.4243 26.2334 31.801V33.8327ZM37.1102 16.7477L22.9685 2.81266C22.9652 2.80932 22.9652 2.80766 22.9635 2.80599C22.3502 2.20099 21.5935 1.82266 20.7985 1.67266C20.7401 1.66266 20.6801 1.66432 20.6218 1.65599C20.4151 1.62599 20.2085 1.59766 20.0001 1.59766C18.9251 1.59766 17.8535 2.00099 17.0368 2.80432C17.0285 2.81099 17.0251 2.81932 17.0185 2.82599L2.89009 16.7493C2.10175 17.526 1.66675 18.561 1.66675 19.666C1.66675 20.7727 2.10175 21.8093 2.89009 22.586C3.67842 23.3643 4.73176 23.7927 5.85343 23.7927C5.98843 23.7927 6.11676 23.7677 6.2501 23.756V35.2027C6.2501 36.051 6.88843 36.736 7.67344 36.736H32.3252C33.1119 36.736 33.7502 36.051 33.7502 35.2027V23.756C33.8819 23.7677 34.0135 23.7943 34.1469 23.7943C35.2202 23.7943 36.2919 23.391 37.1102 22.586C37.8985 21.8077 38.3335 20.7727 38.3335 19.666C38.3335 18.561 37.8985 17.5243 37.1102 16.7477Z" fill="#1B4180"/>
<path fill-rule="evenodd" clip-rule="evenodd" d="M23.0551 21.4573C23.0551 23.1457 21.6885 24.5123 20.0001 24.5123C18.3117 24.5123 16.9451 23.1457 16.9451 21.4573C16.9451 19.769 18.3117 18.4023 20.0001 18.4023C21.6885 18.4023 23.0551 19.769 23.0551 21.4573Z" fill="#1B4180"/>
</svg>
