<svg width="24" height="24" viewBox="0 0 24 24" fill="none" xmlns="http://www.w3.org/2000/svg">
<path fill-rule="evenodd" clip-rule="evenodd" d="M16.375 1H7.625C6.182 1 5 2.237 5 3.75V20.25C5 21.763 6.182 23 7.625 23H16.375C17.818 23 19 21.763 19 20.25V3.75C19 2.237 17.818 1 16.375 1ZM16.375 2.833C16.85 2.833 17.25 3.253 17.25 3.75V20.25C17.25 20.747 16.85 21.167 16.375 21.167H7.625C7.15 21.167 6.75 20.747 6.75 20.25V3.75C6.75 3.253 7.15 2.833 7.625 2.833H16.375Z" fill="#1B4180"/>
<path fill-rule="evenodd" clip-rule="evenodd" d="M13.3125 20.25H10.6875C10.4455 20.25 10.2495 20.045 10.2495 19.792C10.2495 19.538 10.4455 19.333 10.6875 19.333H13.3125C13.5545 19.333 13.7495 19.538 13.7495 19.792C13.7495 20.045 13.5545 20.25 13.3125 20.25Z" fill="#1B4180"/>
<path fill-rule="evenodd" clip-rule="evenodd" d="M17.6573 18.4165H6.34327C6.10027 18.4165 5.90527 18.2115 5.90527 17.9585C5.90527 17.7055 6.10027 17.4995 6.34327 17.4995H17.6573C17.8993 17.4995 18.0943 17.7055 18.0943 17.9585C18.0943 18.2115 17.8993 18.4165 17.6573 18.4165Z" fill="#1B4180"/>
<path fill-rule="evenodd" clip-rule="evenodd" d="M17.6573 5.5835H6.34327C6.10027 5.5835 5.90527 5.3785 5.90527 5.1255C5.90527 4.8715 6.10027 4.6665 6.34327 4.6665H17.6573C17.8993 4.6665 18.0943 4.8715 18.0943 5.1255C18.0943 5.3785 17.8993 5.5835 17.6573 5.5835Z" fill="#1B4180"/>
<path fill-rule="evenodd" clip-rule="evenodd" d="M9.67791 11.302H10.4539C10.6889 11.302 10.8679 11.245 10.9939 11.132C11.1199 11.018 11.1839 10.852 11.1839 10.633C11.1839 10.417 11.1199 10.255 10.9939 10.145C10.8679 10.035 10.6889 9.98 10.4539 9.98H9.67791V11.302ZM11.1249 13.153L10.5339 12.037H10.4539H9.67791V13.153H8.83691V9.25H10.4539C10.9409 9.25 11.3169 9.368 11.5829 9.604C11.8489 9.841 11.9819 10.174 11.9819 10.605C11.9819 10.906 11.9219 11.163 11.8039 11.377C11.6849 11.591 11.5119 11.753 11.2839 11.864L12.0769 13.153H11.1249Z" fill="#1B4180"/>
<path fill-rule="evenodd" clip-rule="evenodd" d="M14.5078 12.2405C14.6388 12.0865 14.7048 11.8865 14.7048 11.6415C14.7048 11.3995 14.6388 11.2015 14.5078 11.0475C14.3758 10.8935 14.2058 10.8165 13.9968 10.8165C13.7868 10.8165 13.6158 10.8935 13.4838 11.0475C13.3508 11.2015 13.2838 11.3995 13.2838 11.6415C13.2838 11.8905 13.3508 12.0915 13.4838 12.2435C13.6158 12.3955 13.7868 12.4715 13.9968 12.4715C14.2058 12.4715 14.3758 12.3945 14.5078 12.2405ZM14.8938 10.3175C15.0978 10.4455 15.2548 10.6265 15.3668 10.8615C15.4788 11.0945 15.5348 11.3645 15.5348 11.6695C15.5348 11.9705 15.4798 12.2355 15.3698 12.4635C15.2598 12.6925 15.1048 12.8695 14.9038 12.9955C14.7038 13.1225 14.4708 13.1855 14.2038 13.1855C14.0058 13.1855 13.8288 13.1455 13.6748 13.0655C13.5208 12.9855 13.3908 12.8695 13.2838 12.7175V14.2335H12.4648V10.1525H13.2838V10.5935C13.3868 10.4405 13.5158 10.3245 13.6698 10.2445C13.8238 10.1645 13.9968 10.1255 14.1888 10.1255C14.4538 10.1255 14.6898 10.1895 14.8938 10.3175Z" fill="#1B4180"/>
</svg>
