<svg width="40" height="40" viewBox="0 0 40 40" fill="none" xmlns="http://www.w3.org/2000/svg">
<path d="M12.3333 24.1673C12.5 24.0006 12.3333 23.834 12.1667 23.834C11.3333 23.334 11 22.334 10.8333 21.334C10.6667 20.6673 10.3333 20.1673 9.83333 19.834C9.33333 19.6673 9.5 19.5006 9.5 19.1673C9.83333 18.0006 9.83333 16.834 9.33333 15.834C9.33333 15.6673 9.16667 15.5006 9.16667 15.334C9 14.834 9.16667 14.334 8.83333 14.0006C8.33333 13.834 8.16667 14.334 7.66667 14.6673C7.33333 14.834 7.16667 14.834 6.83333 14.6673C6.66667 14.5007 6.83333 14.1673 6.83333 14.0006C7 13.1673 6.5 12.5007 6.16667 12.0007C6 11.6673 5.66667 11.5007 5.5 11.334C5.5 11.1673 5.5 10.834 5.5 10.6673C5.83333 10.6673 5.83333 10.334 6 10.0007C6.16667 9.50065 6.16667 9.00065 6.83333 8.66732C7.16667 8.50065 7.33333 7.83398 7.5 7.16732C7.5 6.83398 7.66667 6.66732 8 6.66732C8.33333 6.50065 8.83333 6.50065 8.83333 5.83398C8.83333 5.66732 9 5.66732 9.16667 5.83398C9.66667 6.16732 9.83333 7.16732 9.33333 7.66732C9.16667 8.00065 9 8.33398 9 8.66732C9 8.83398 9 9.00065 9.16667 9.00065C10 8.83398 10 9.50065 10.1667 10.0007C10.3333 10.334 10.5 10.5007 10.8333 10.5007C11.1667 10.5007 11.5 10.6673 11.8333 11.0007C11.5 10.0007 12 9.83398 12.6667 9.83398C13 9.83398 13.3333 9.83398 13.6667 9.50065C14.1667 9.16732 14.6667 9.50065 14.8333 9.83398C15 10.5007 15.3333 10.5007 15.6667 10.6673C15.3333 11.0007 14.8333 11.334 14.5 11.834C14.3333 12.1673 14.1667 12.5006 14.5 12.834C15 13.334 15.3333 14.0006 16 14.5006C17.1667 15.5006 17 17.5006 15.6667 18.334C15.1667 18.6673 14.8333 19.0007 14.5 19.334C14.3333 19.5007 14.1667 19.6673 14 19.5006C13.8333 19.334 13.8333 19.1673 13.8333 19.0006C13.8333 18.834 13.8333 18.6673 13.6667 18.5007C13 18.334 12.5 17.834 12.3333 17.1673C12.1667 17.0007 12 16.834 11.6667 16.834C11.5 16.834 11.5 16.834 11.3333 16.834C10.8333 16.5007 10.8333 16.5007 10.6667 17.1673C10.6667 17.5006 10.5 17.6673 10.3333 17.834C10.1667 18.334 9.66667 18.834 10.5 19.1673C10.5 20.334 11.6667 20.6673 12.3333 21.334C12.6667 21.6673 12.8333 21.834 12.8333 22.334C12.8333 22.834 13 23.334 13.1667 23.6673C13.3333 23.834 13.5 24.1673 13.3333 24.334C13.1667 24.5007 13 24.334 12.6667 24.334C12.5 24.1673 12.5 23.834 12.3333 24.1673C12.1667 24.1673 12.3333 24.1673 12.3333 24.1673Z" fill="#1B4180"/>
<path d="M23.0001 24.666C22.3334 24.666 22.1667 24.9993 22.1667 25.4993C22.1667 25.666 22.1667 25.8327 22.0001 25.8327C21.5001 25.9993 21.5001 26.4993 21.5001 26.8327C21.3334 27.666 21.0001 27.8327 20.1667 27.4993C19.8334 27.3327 19.5001 27.166 19.0001 27.3327C18.5001 27.4993 18.1667 26.9993 17.8334 27.166C17.1667 27.3327 17.5001 26.666 17.3334 26.3327C17.0001 25.9993 16.6667 25.4993 16.6667 24.9993C16.6667 24.166 16.8334 23.9993 17.6667 23.9993C17.8334 23.9993 18.0001 23.9993 18.0001 23.9993C18.3334 22.9993 19.6667 23.3327 20.1667 22.3327C20.5001 21.666 21.5001 21.4993 21.8334 20.666C21.8334 20.4993 22.1667 20.4993 22.1667 20.666C22.5001 21.166 22.8334 21.4993 23.3334 21.666C23.5001 21.666 23.3334 21.8327 23.3334 21.8327H23.1667C21.8334 22.9993 21.8334 23.3327 23.0001 24.666Z" fill="#1B4180"/>
<path d="M14.3335 29.166C13.3335 29.166 12.8335 28.4993 12.3335 27.9993C11.3335 26.9993 10.5002 25.8327 9.8335 24.4993C9.50016 23.8327 8.8335 23.3327 8.3335 22.8327C8.00016 22.4993 7.66683 22.166 7.3335 21.666C8.16683 21.666 8.8335 21.666 9.3335 22.3327C9.66683 22.8327 10.1668 23.3327 10.6668 23.666C11.1668 23.9993 11.6668 23.9993 12.1668 24.3327C12.0002 24.4993 12.3335 24.666 12.3335 24.8327C12.6668 24.9993 13.3335 24.9993 12.8335 25.4993C13.5002 25.666 13.3335 26.4993 14.0002 26.666C14.3335 26.8327 14.6668 26.9993 14.5002 27.3327C14.1668 27.9993 14.3335 28.4993 14.3335 29.166Z" fill="#1B4180"/>
<path d="M34.5001 30.5002C33.8334 29.6668 33.1667 30.0002 32.3334 30.0002C32.1667 29.6668 32.3334 29.6668 32.5001 29.5002C33.0001 28.8335 32.8334 28.3335 32.1667 27.8335C31.5001 27.3335 30.5001 27.5002 29.8334 26.8335C29.6667 26.8335 29.6667 26.8335 29.5001 26.8335C28.6667 27.3335 29.1667 26.1668 28.6667 26.1668C28.6667 25.6668 28.5001 25.5002 28.1667 25.3335C28.0001 25.1668 27.6667 25.1668 27.6667 25.0002C28.3334 25.0002 28.8334 24.5002 29.5001 24.6668C29.8334 24.8335 30.0001 25.0002 30.0001 25.3335C30.0001 25.5002 30.0001 25.8335 30.1667 26.0002C30.3334 26.5002 30.8334 26.5002 31.1667 26.1668C32.0001 25.3335 32.3334 25.3335 33.3334 25.6668C34.3334 26.0002 34.5001 26.5002 34.5001 27.5002C34.3334 28.5002 34.5001 29.3335 34.5001 30.5002Z" fill="#1B4180"/>
<path d="M14.3335 29.1669C15.0002 29.0003 15.6668 29.1669 16.1668 29.5003C16.6668 29.6669 17.1668 29.8336 17.6668 29.5003C17.8335 29.3336 18.0002 29.5003 18.1668 29.5003C19.1668 29.8336 19.8335 30.3336 21.0002 30.6669C20.5002 31.1669 20.0002 30.8336 19.6668 30.8336C18.5002 31.0003 17.3335 30.3336 16.0002 30.3336C15.5002 30.3336 15.0002 30.0003 14.5002 29.8336C13.8335 29.5003 14.5002 29.3336 14.3335 29.1669Z" fill="#1B4180"/>
<path d="M23.6667 25C23.8334 25.6667 24.1667 26.1667 24.8334 25.6667C25.1667 25.5 25.5 25.5 25.8334 25.5C25.3334 25.8333 25 26.1667 24.6667 26.3333C25.1667 26.8333 25.1667 27.5 25.5 28C25.6667 28.1667 25.6667 28.5 25.5 28.6667C25.1667 28.8333 25.1667 28.5 25.1667 28.3333C24.8334 28.3333 24.6667 28 24.5 27.6667C24.3334 27.3333 24.3334 27.1667 24.1667 26.8333C23.8334 26.8333 23.8334 27 23.8334 27.1667C23.8334 27.5 23.8334 27.6667 23.8334 28C23.8334 28.3333 24 28.6667 23.5 28.6667C23 28.6667 23.1667 28.3333 23.1667 28C23.1667 27.6667 23.3334 27.3333 22.8334 27.1667C22.6667 27.1667 22.5 26.8333 22.6667 26.6667C23.3334 26.3333 23.3334 25.6667 23.6667 25Z" fill="#1B4180"/>
<path d="M24.8335 16.834C24.5002 16.6674 24.3335 16.5007 24.0002 16.334C23.0002 16.0007 23.0002 16.0007 23.0002 16.834C22.6668 16.334 22.8335 15.5007 22.3335 15.1674C22.1668 15.0007 22.5002 13.0007 22.6668 12.834C23.0002 12.5007 23.3335 12.834 23.5002 13.0007C23.8335 13.1674 23.8335 13.6674 23.8335 14.0007C23.8335 14.1674 23.6668 14.5007 23.5002 14.6674C23.1668 14.6674 23.3335 15.0007 23.3335 15.334C23.3335 15.6674 23.6668 15.6674 24.0002 15.6674C24.6668 15.6674 25.1668 16.0007 24.8335 16.834Z" fill="#1B4180"/>
<path d="M23.6665 20.5004C23.8332 19.8337 24.1665 19.5004 24.8332 19.6671C25.3332 19.8337 25.6665 19.3337 25.8332 19.1671C26.3332 18.6671 26.3332 19.0004 26.4998 19.3337C26.6665 19.6671 26.6665 20.1671 26.6665 20.5004C26.6665 20.8337 26.6665 20.8337 26.3332 20.6671C25.9998 20.5004 25.9998 20.6671 25.9998 20.8337C25.9998 21.0004 26.3332 21.3337 25.9998 21.5004C25.6665 21.5004 25.1665 21.3337 25.1665 21.0004C24.9998 19.3337 24.1665 20.3337 23.6665 20.5004Z" fill="#1B4180"/>
<path d="M23.6666 17.5002C24.3333 17.1668 24.3333 18.1668 24.8333 18.0002C25 18.0002 24.6666 18.5002 24.5 18.8335C24.5 19.0002 24.3333 19.1668 24.1666 19.0002C24 18.8335 23.8333 18.6668 23.9999 18.3335C23.9999 18.3335 24.1666 18.0002 23.9999 18.0002C23.1666 18.3335 23.8333 17.6668 23.6666 17.5002Z" fill="#1B4180"/>
<path d="M23.6665 24.8327C24.8332 23.9993 26.1665 24.9993 27.1665 24.166C26.8332 24.666 26.4998 25.166 25.8332 24.9993C24.9998 24.8327 24.3332 25.166 23.6665 24.8327Z" fill="#1B4180"/>
<path d="M21.6667 30.9994C22.0001 30.4994 22.5001 30.4994 23.1667 30.6661C22.6667 30.9994 22.1667 30.9994 21.6667 30.9994Z" fill="#1B4180"/>
<path d="M25.5001 17.8333C25.5001 17.5 25.5001 17.1667 25.1667 17C25.8334 16.8333 26.0001 17 26.0001 17.5C26.0001 17.8333 26.0001 17.8333 25.6667 17.8333C25.6667 17.6667 25.6667 17.8333 25.5001 17.8333Z" fill="#1B4180"/>
<path d="M25.0002 30.8336C24.5002 31.0002 24.1669 31.0002 23.5002 30.8336C24.1669 30.3335 24.6669 30.8336 25.0002 30.8336Z" fill="#1B4180"/>
<path fill-rule="evenodd" clip-rule="evenodd" d="M20.0001 38.3327C30.1253 38.3327 38.3334 30.1246 38.3334 19.9993C38.3334 9.87413 30.1253 1.66602 20.0001 1.66602C9.87486 1.66602 1.66675 9.87413 1.66675 19.9993C1.66675 30.1246 9.87486 38.3327 20.0001 38.3327ZM20.0001 34.9993C28.2844 34.9993 35.0001 28.2836 35.0001 19.9993C35.0001 11.7151 28.2844 4.99935 20.0001 4.99935C11.7158 4.99935 5.00008 11.7151 5.00008 19.9993C5.00008 28.2836 11.7158 34.9993 20.0001 34.9993Z" fill="#1B4180"/>
</svg>
