<svg width="24" height="24" viewBox="0 0 24 24" fill="none" xmlns="http://www.w3.org/2000/svg">
<path fill-rule="evenodd" clip-rule="evenodd" d="M16.0656 19.3042H13.3266C13.0746 19.3042 12.8696 19.5082 12.8696 19.7612C12.8696 20.0132 13.0746 20.2172 13.3266 20.2172H16.0656C16.3176 20.2172 16.5216 20.0132 16.5216 19.7612C16.5216 19.5082 16.3176 19.3042 16.0656 19.3042Z" fill="#1B4180"/>
<path fill-rule="evenodd" clip-rule="evenodd" d="M20.5995 17.478H11.4995C11.2475 17.478 11.0435 17.683 11.0435 17.935C11.0435 18.187 11.2475 18.391 11.4995 18.391H20.5995C20.8515 18.391 21.0555 18.187 21.0555 17.935C21.0555 17.683 20.8515 17.478 20.5995 17.478Z" fill="#1B4180"/>
<path fill-rule="evenodd" clip-rule="evenodd" d="M20.5994 4.6958H8.79145C8.53945 4.6958 8.33545 4.8998 8.33545 5.1528C8.33545 5.4038 8.53945 5.6088 8.79145 5.6088H20.5994C20.8514 5.6088 21.0554 5.4038 21.0554 5.1528C21.0554 4.8998 20.8514 4.6958 20.5994 4.6958Z" fill="#1B4180"/>
<path fill-rule="evenodd" clip-rule="evenodd" d="M7.84793 12.248C6.17393 12.248 4.49993 12.925 3.22693 14.278C2.94193 14.581 2.94193 15.074 3.22693 15.38C3.36893 15.532 3.55693 15.608 3.74493 15.608C3.93293 15.608 4.12093 15.532 4.26493 15.38C5.25293 14.331 6.55093 13.807 7.84993 13.807C9.14793 13.807 10.4459 14.331 11.4339 15.38C11.5769 15.532 11.7639 15.609 11.9519 15.609C12.1389 15.609 12.3269 15.532 12.4689 15.38C12.7549 15.078 12.7549 14.584 12.4689 14.278C11.1959 12.925 9.52193 12.248 7.84793 12.248Z" fill="#1B4180"/>
<path fill-rule="evenodd" clip-rule="evenodd" d="M7.84589 15.2236C6.89089 15.2236 5.93589 15.6096 5.20789 16.3816C4.92289 16.6846 4.92289 17.1776 5.20789 17.4836C5.35189 17.6356 5.53889 17.7116 5.72689 17.7116C5.91389 17.7116 6.10289 17.6356 6.24689 17.4836C6.68789 17.0146 7.26789 16.7796 7.84789 16.7796C8.42789 16.7796 9.00789 17.0146 9.44989 17.4836C9.59189 17.6356 9.77989 17.7126 9.96689 17.7126C10.1549 17.7126 10.3419 17.6356 10.4849 17.4836C10.7699 17.1816 10.7699 16.6876 10.4849 16.3846C9.75789 15.6106 8.80189 15.2236 7.84589 15.2236Z" fill="#1B4180"/>
<path fill-rule="evenodd" clip-rule="evenodd" d="M7.84757 18.2676C7.34357 18.2676 6.93457 18.6766 6.93457 19.1806C6.93457 19.6846 7.34357 20.0936 7.84757 20.0936C8.35257 20.0936 8.76057 19.6846 8.76057 19.1806C8.76057 18.6766 8.35257 18.2676 7.84757 18.2676Z" fill="#1B4180"/>
<path fill-rule="evenodd" clip-rule="evenodd" d="M7.84775 9.26074C5.44575 9.26074 3.04275 10.2307 1.21375 12.1707C0.92875 12.4737 0.92875 12.9677 1.21375 13.2737C1.35675 13.4247 1.54375 13.5007 1.73275 13.5007C1.91975 13.5007 2.10875 13.4247 2.25275 13.2737C3.79475 11.6347 5.82175 10.8157 7.84875 10.8157C9.87475 10.8157 11.9028 11.6347 13.4467 13.2737C13.5887 13.4247 13.7767 13.5017 13.9637 13.5017C14.1517 13.5017 14.3387 13.4247 14.4817 13.2737C14.7667 12.9697 14.7667 12.4767 14.4817 12.1707C12.6528 10.2307 10.2498 9.26074 7.84775 9.26074Z" fill="#1B4180"/>
<path fill-rule="evenodd" clip-rule="evenodd" d="M19.2606 1.04346H10.1306C8.6236 1.04346 7.3916 2.27546 7.3916 3.78246V8.25346C7.5436 8.24646 7.6966 8.24246 7.8476 8.24246C8.3056 8.24246 8.7626 8.27746 9.2176 8.34746V3.78246C9.2176 3.28746 9.6356 2.86946 10.1306 2.86946H19.2606C19.7556 2.86946 20.1736 3.28746 20.1736 3.78246V20.2175C20.1736 20.7125 19.7556 21.1305 19.2606 21.1305H10.1306C10.1306 21.1305 9.2176 21.1305 9.2176 20.2175C9.2176 20.2175 9.2176 21.1305 8.3046 21.1305H7.3916C7.3916 22.0435 8.6236 22.9565 10.1306 22.9565H19.2606C20.7676 22.9565 21.9996 21.7235 21.9996 20.2175V3.78246C21.9996 2.27546 20.7676 1.04346 19.2606 1.04346Z" fill="#1B4180"/>
</svg>
