<svg width="24" height="24" viewBox="0 0 24 24" fill="none" xmlns="http://www.w3.org/2000/svg">
<path fill-rule="evenodd" clip-rule="evenodd" d="M9.84351 17.5835H7.40551C7.18151 17.5835 6.99951 17.7695 6.99951 18.0005C6.99951 18.2305 7.18151 18.4165 7.40551 18.4165H9.84351C10.0685 18.4165 10.2495 18.2305 10.2495 18.0005C10.2495 17.7695 10.0685 17.5835 9.84351 17.5835Z" fill="#1B4180"/>
<path fill-rule="evenodd" clip-rule="evenodd" d="M19 3H12C10.35 3 9 4.35 9 6V20C9 21.65 10.35 23 12 23H19C20.65 23 22 21.65 22 20V6C22 4.35 20.65 3 19 3ZM19 5C19.542 5 20 5.458 20 6V20C20 20.542 19.542 21 19 21H12C11.458 21 11 20.542 11 20V6C11 5.458 11.458 5 12 5H19Z" fill="#1B4180"/>
<path fill-rule="evenodd" clip-rule="evenodd" d="M16.719 19.6665H14.281C14.057 19.6665 13.875 19.8535 13.875 20.0835C13.875 20.3135 14.057 20.4995 14.281 20.4995H16.719C16.944 20.4995 17.125 20.3135 17.125 20.0835C17.125 19.8535 16.944 19.6665 16.719 19.6665Z" fill="#1B4180"/>
<path fill-rule="evenodd" clip-rule="evenodd" d="M20.7538 18H10.2458C10.0218 18 9.83984 18.187 9.83984 18.417C9.83984 18.647 10.0218 18.833 10.2458 18.833H20.7538C20.9788 18.833 21.1598 18.647 21.1598 18.417C21.1598 18.187 20.9788 18 20.7538 18Z" fill="#1B4180"/>
<path fill-rule="evenodd" clip-rule="evenodd" d="M20.7538 6.3335H10.2458C10.0218 6.3335 9.83984 6.5195 9.83984 6.7505C9.83984 6.9805 10.0218 7.1665 10.2458 7.1665H20.7538C20.9788 7.1665 21.1598 6.9805 21.1598 6.7505C21.1598 6.5195 20.9788 6.3335 20.7538 6.3335Z" fill="#1B4180"/>
<path fill-rule="evenodd" clip-rule="evenodd" d="M9.713 5H2.287C2.129 5 2 5.187 2 5.417C2 5.647 2.129 5.833 2.287 5.833H9.713C9.871 5.833 10 5.647 10 5.417C10 5.187 9.871 5 9.713 5Z" fill="#1B4180"/>
<path fill-rule="evenodd" clip-rule="evenodd" d="M9.74333 16H3.09733C2.95533 16 2.84033 16.224 2.84033 16.5C2.84033 16.776 2.95533 17 3.09733 17H9.74333C9.88533 17 10.0003 16.776 10.0003 16.5C10.0003 16.224 9.88533 16 9.74333 16Z" fill="#1B4180"/>
<path fill-rule="evenodd" clip-rule="evenodd" d="M12 1H5C3.35 1 2 2.35 2 4V18C2 19.65 3.35 21 5 21H9.186C9.072 20.686 9 20.352 9 20V19H5C4.458 19 4 18.542 4 18V4C4 3.458 4.458 3 5 3H12H14.814C14.399 1.84 13.298 1 12 1Z" fill="#1B4180"/>
</svg>
