<svg width="60" height="60" viewBox="0 0 60 60" fill="none" xmlns="http://www.w3.org/2000/svg">
<path d="M52.5 2.5H7.5C4.75 2.5 2.5 4.75 2.5 7.5V10V12.5V20C2.5 22.75 4.75 25 7.5 25H10V50.675C10 54.425 13.075 57.5 16.825 57.5H43.175C46.95 57.5 50 54.425 50 50.675V25H52.5C55.25 25 57.5 22.75 57.5 20V7.5C57.5 4.75 55.25 2.5 52.5 2.5ZM7.5 20V12.5H10V20H7.5ZM45 50.675C45 51.675 44.175 52.5 43.175 52.5H16.825C15.825 52.5 15 51.675 15 50.675V12.5H45V50.675ZM52.5 20H50V12.5H52.5V20ZM52.5 10H7.5V7.5H52.5V10ZM30.575 40.675L34.375 36.875C34.9 36.35 34.9 35.5 34.375 34.975C33.85 34.45 33 34.45 32.475 34.975L30.975 36.475V23.825C30.975 23.075 30.375 22.475 29.625 22.475C28.875 22.475 28.275 23.075 28.275 23.825V36.5L26.775 35C26.25 34.475 25.4 34.475 24.875 35C24.625 35.25 24.475 35.6 24.475 35.95C24.475 36.3 24.6 36.625 24.875 36.9L28.675 40.7C29.2 41.2 30.05 41.2 30.575 40.675Z" fill="#1B4180"/>
<path d="M20 50C21.3807 50 22.5 48.8807 22.5 47.5C22.5 46.1193 21.3807 45 20 45C18.6193 45 17.5 46.1193 17.5 47.5C17.5 48.8807 18.6193 50 20 50Z" fill="#1B4180"/>
<path d="M40 50C41.3807 50 42.5 48.8807 42.5 47.5C42.5 46.1193 41.3807 45 40 45C38.6193 45 37.5 46.1193 37.5 47.5C37.5 48.8807 38.6193 50 40 50Z" fill="#1B4180"/>
</svg>
