<svg width="24" height="24" viewBox="0 0 24 24" fill="none" xmlns="http://www.w3.org/2000/svg">
<path d="M21 1H3C1.9 1 1 1.9 1 3V4V5V8C1 9.1 1.9 10 3 10H4V20.27C4 21.77 5.23 23 6.73 23H17.27C18.78 23 20 21.77 20 20.27V10H21C22.1 10 23 9.1 23 8V3C23 1.9 22.1 1 21 1ZM3 8V5H4V8H3ZM18 20.27C18 20.67 17.67 21 17.27 21H6.73C6.33 21 6 20.67 6 20.27V5H18V20.27ZM21 8H20V5H21V8ZM21 4H3V3H21V4ZM12.23 16.27L13.75 14.75C13.96 14.54 13.96 14.2 13.75 13.99C13.54 13.78 13.2 13.78 12.99 13.99L12.39 14.59V9.53C12.39 9.23 12.15 8.99 11.85 8.99C11.55 8.99 11.31 9.23 11.31 9.53V14.6L10.71 14C10.5 13.79 10.16 13.79 9.95 14C9.85 14.1 9.79 14.24 9.79 14.38C9.79 14.52 9.84 14.65 9.95 14.76L11.47 16.28C11.68 16.48 12.02 16.48 12.23 16.27Z" fill="#1B4180"/>
<path d="M8 20C8.55228 20 9 19.5523 9 19C9 18.4477 8.55228 18 8 18C7.44772 18 7 18.4477 7 19C7 19.5523 7.44772 20 8 20Z" fill="#1B4180"/>
<path d="M16 20C16.5523 20 17 19.5523 17 19C17 18.4477 16.5523 18 16 18C15.4477 18 15 18.4477 15 19C15 19.5523 15.4477 20 16 20Z" fill="#1B4180"/>
</svg>
