<svg width="30" height="30" viewBox="0 0 30 30" fill="none" xmlns="http://www.w3.org/2000/svg">
<path fill-rule="evenodd" clip-rule="evenodd" d="M0 15C0 6.717 6.717 0 15 0C23.283 0 30 6.717 30 15C30 23.283 23.283 30 15 30C6.717 30 0 23.283 0 15ZM6.98804 22.6757H10.6412V11.6851H6.98804V22.6757ZM8.81476 10.1843H8.79095C7.56506 10.1843 6.77222 9.34044 6.77222 8.28575C6.77222 7.20726 7.58932 6.38672 8.83902 6.38672C10.0887 6.38672 10.8578 7.20726 10.8816 8.28575C10.8816 9.34044 10.0887 10.1843 8.81476 10.1843ZM20.161 22.6759H23.8137V16.3738C23.8137 12.9981 22.0115 11.4272 19.608 11.4272C17.6699 11.4272 16.8013 12.4925 16.3158 13.2414V11.6852H12.6628C12.7107 12.7163 12.6628 22.6759 12.6628 22.6759H16.3158V16.5382C16.3158 16.2097 16.3394 15.8815 16.436 15.6467C16.7001 14.9905 17.3011 14.3107 18.3103 14.3107C19.6321 14.3107 20.161 15.3185 20.161 16.7961V22.6759Z" fill="white"/>
</svg>
