<svg width="30" height="30" viewBox="0 0 30 30" fill="none" xmlns="http://www.w3.org/2000/svg">
<path d="M17.8711 15C17.8711 16.5857 16.5857 17.8711 15 17.8711C13.4143 17.8711 12.1289 16.5857 12.1289 15C12.1289 13.4143 13.4143 12.1289 15 12.1289C16.5857 12.1289 17.8711 13.4143 17.8711 15Z" fill="white"/>
<path fill-rule="evenodd" clip-rule="evenodd" d="M21.7144 9.91893C21.5764 9.54494 21.3562 9.20642 21.0701 8.92856C20.7923 8.64246 20.454 8.42227 20.0797 8.28426C19.7762 8.16638 19.3203 8.02608 18.4805 7.98785C17.5721 7.94643 17.2997 7.9375 14.9999 7.9375C12.6999 7.9375 12.4275 7.9462 11.5193 7.98763C10.6796 8.02608 10.2234 8.16638 9.92014 8.28426C9.54591 8.42227 9.2074 8.64246 8.92976 8.92856C8.64366 9.20642 8.42348 9.54471 8.28523 9.91893C8.16736 10.2224 8.02705 10.6786 7.98883 11.5184C7.9474 12.4266 7.93848 12.6989 7.93848 14.999C7.93848 17.2988 7.9474 17.5711 7.98883 18.4796C8.02705 19.3193 8.16736 19.7753 8.28523 20.0788C8.42348 20.453 8.64343 20.7913 8.92953 21.0691C9.2074 21.3552 9.54568 21.5754 9.91991 21.7134C10.2234 21.8315 10.6796 21.9718 11.5193 22.0101C12.4275 22.0515 12.6997 22.0602 14.9997 22.0602C17.3 22.0602 17.5723 22.0515 18.4803 22.0101C19.3201 21.9718 19.7762 21.8315 20.0797 21.7134C20.8309 21.4237 21.4247 20.83 21.7144 20.0788C21.8323 19.7753 21.9726 19.3193 22.011 18.4796C22.0525 17.5711 22.0612 17.2988 22.0612 14.999C22.0612 12.6989 22.0525 12.4266 22.011 11.5184C21.9728 10.6786 21.8325 10.2224 21.7144 9.91893ZM15 19.42C12.5572 19.42 10.5769 17.44 10.5769 14.9971C10.5769 12.5543 12.5572 10.5742 15 10.5742C17.4427 10.5742 19.423 12.5543 19.423 14.9971C19.423 17.44 17.4427 19.42 15 19.42ZM18.5642 10.4008C18.5642 10.9716 19.027 11.4344 19.5978 11.4344C20.1687 11.4344 20.6312 10.9716 20.6315 10.4008C20.6315 9.82999 20.1687 9.36719 19.5978 9.36719C19.027 9.36719 18.5642 9.82999 18.5642 10.4008Z" fill="white"/>
<path fill-rule="evenodd" clip-rule="evenodd" d="M0 15C0 6.717 6.717 0 15 0C23.283 0 30 6.717 30 15C30 23.283 23.283 30 15 30C6.717 30 0 23.283 0 15ZM23.161 20.6419C23.3739 20.094 23.5197 19.468 23.5613 18.5511C23.6034 17.6326 23.6133 17.3392 23.6133 15C23.6133 12.6608 23.6034 12.3674 23.5616 11.4489C23.5197 10.532 23.3741 9.90601 23.161 9.35806C22.9449 8.78334 22.6057 8.26286 22.1677 7.83257C21.7374 7.39426 21.2167 7.05505 20.6419 6.83876C20.094 6.62613 19.468 6.48056 18.5511 6.4389C17.6326 6.39679 17.3392 6.38672 15 6.38672C12.6608 6.38672 12.3674 6.39679 11.4489 6.43867C10.532 6.48056 9.90601 6.62613 9.35806 6.83899C8.78334 7.05528 8.26263 7.39426 7.83257 7.83257C7.39426 8.26263 7.05505 8.78334 6.83876 9.35806C6.6259 9.90601 6.48033 10.532 6.43867 11.4489C6.39656 12.3674 6.38672 12.6608 6.38672 15C6.38672 17.3392 6.39656 17.6326 6.4389 18.5513C6.48056 19.468 6.62636 20.0942 6.83922 20.6419C7.05551 21.2167 7.39449 21.7374 7.83257 22.1674C8.26286 22.6057 8.78334 22.9447 9.35829 23.161C9.90601 23.3739 10.5322 23.5194 11.4489 23.5613C12.3676 23.6032 12.6608 23.6133 15.0002 23.6133C17.3394 23.6133 17.6328 23.6032 18.5513 23.5613C19.468 23.5194 20.0942 23.3739 20.6419 23.161C21.7989 22.7135 22.7135 21.7989 23.161 20.6419Z" fill="white"/>
</svg>
