<svg width="360" height="360" viewBox="0 0 360 360" fill="none" xmlns="http://www.w3.org/2000/svg">
<path d="M138.006 319.912C138.006 319.912 71.5274 314.375 73.6581 281.898C75.7889 249.42 -42.8929 264.115 43.6148 184.04C130.123 103.965 231.652 38.5846 265.957 59.3487C300.262 80.1128 366.74 128.775 336.804 159.23C306.76 189.684 365.462 218.54 342.557 249.42C265.158 323.745 208.107 331.412 208.107 331.412L138.006 319.912Z" fill="#EAEEF3"/>
<path d="M171.48 113.964C171.48 113.964 182.602 70.0718 199.574 75.3427C216.545 80.6136 198.711 129.681 191.52 142.81C184.232 155.94 181.452 158.815 179.534 152.777C177.521 146.739 171.48 113.964 171.48 113.964Z" fill="url(#paint0_linear)"/>
<path d="M97.0744 155.748C97.0744 155.748 67.8301 143.098 88.4449 181.623C109.06 220.149 97.5538 239.795 111.649 254.553C126.319 269.791 144.441 287.329 144.441 287.329L146.934 289.725C154.412 297.104 166.11 298.254 174.931 292.6C193.149 280.812 222.585 261.358 234.187 251.007C251.542 235.578 241.954 190.823 233.132 176.927C224.311 163.031 227.763 144.727 193.724 152.298C159.686 159.869 97.0744 155.748 97.0744 155.748Z" fill="url(#paint1_linear)"/>
<path d="M120.47 111.952C155.947 92.4013 165.535 86.6512 175.699 103.518C185.862 120.385 219.23 191.207 226.325 204.048C233.42 216.89 243.488 231.936 224.887 244.491C194.588 264.808 168.891 279.279 153.358 258.387C137.825 237.495 106.567 175.106 98.1295 159.102C89.6918 143.098 84.9935 131.502 120.47 111.952Z" fill="#255B9B"/>
<path d="M105.992 149.135C103.883 144.727 100.335 139.36 107.814 134.952C115.293 130.543 117.786 129.106 119.799 128.052C121.813 126.902 123.73 133.514 130.25 130.543C136.771 127.477 143.578 124.41 146.359 122.493C149.139 120.673 144.729 113.677 147.893 111.952C151.057 110.227 159.591 106.106 162.659 104.668C165.727 103.326 170.33 105.722 183.753 132.364C197.273 158.91 221.915 213.344 226.996 221.97C232.078 230.595 224.695 239.603 203.984 250.432C183.274 261.262 169.658 264.328 159.207 250.145C148.948 236.057 105.992 149.135 105.992 149.135Z" fill="white"/>
<path d="M163.906 209.032C180.745 209.032 194.397 195.388 194.397 178.556C194.397 161.725 180.745 148.081 163.906 148.081C147.066 148.081 133.415 161.725 133.415 178.556C133.415 195.388 147.066 209.032 163.906 209.032Z" fill="#DEE4ED"/>
<path d="M163.905 200.694C176.138 200.694 186.054 190.783 186.054 178.556C186.054 166.33 176.138 156.418 163.905 156.418C151.673 156.418 141.756 166.33 141.756 178.556C141.756 190.783 151.673 200.694 163.905 200.694Z" fill="#1B4180"/>
<path d="M312.428 153.639L250.584 183.156C248.954 183.923 247.132 183.252 246.365 181.623L228.147 143.481C227.38 141.852 228.051 140.031 229.681 139.264L291.526 109.747C293.156 108.98 294.978 109.651 295.745 111.28L313.962 149.423C314.634 150.956 313.962 152.873 312.428 153.639Z" fill="#3E6295"/>
<path d="M289.224 123.26C290.471 125.848 289.32 128.914 286.827 130.16C284.238 131.406 281.17 130.256 279.923 127.764C278.677 125.177 279.828 122.11 282.321 120.864C284.909 119.618 287.978 120.768 289.224 123.26Z" fill="white"/>
<path d="M293.348 127.189C293.06 127.381 292.772 127.573 292.485 127.668C289.8 128.914 286.636 127.764 285.294 125.177C284.047 122.493 285.198 119.331 287.786 117.989C290.471 116.743 293.635 117.893 294.978 120.481C295.553 121.822 295.649 123.26 295.169 124.602C294.882 125.656 294.211 126.614 293.348 127.189ZM287.307 118.852C285.389 120.193 284.718 122.781 285.677 124.985C286.828 127.477 289.8 128.531 292.293 127.285C293.444 126.71 294.402 125.752 294.786 124.506C295.265 123.26 295.169 121.918 294.594 120.672C293.444 118.181 290.471 117.127 287.978 118.372C287.786 118.468 287.499 118.66 287.307 118.852Z" fill="white"/>
<path d="M307.072 144.756L277.038 159.064L277.824 160.707L307.858 146.399L307.072 144.756Z" fill="white"/>
<path d="M308.605 147.958L293.199 155.297L293.984 156.94L309.391 149.6L308.605 147.958Z" fill="white"/>
<path d="M253.364 158.335L243.872 162.839C243.009 163.223 242.05 162.839 241.571 162.073L238.503 155.748C238.119 154.885 238.503 153.927 239.27 153.448L248.762 148.943C249.625 148.56 250.584 148.943 251.063 149.71L254.131 156.035C254.611 156.993 254.227 157.952 253.364 158.335Z" fill="white"/>
<path d="M241.091 161.019L240.803 160.444L247.323 157.377C248.09 156.994 248.378 156.131 247.995 155.365C247.611 154.598 246.748 154.31 245.981 154.694L239.461 157.76L239.173 157.185L245.693 154.119C246.748 153.64 248.09 154.023 248.57 155.173C249.049 156.227 248.666 157.569 247.515 158.048L241.091 161.019Z" fill="#001E3A"/>
<path d="M252.514 152.83L248.098 154.929L248.387 155.535L252.803 153.436L252.514 152.83Z" fill="#001E3A"/>
<path d="M268.017 130.346L235.559 145.806L236.882 148.573L269.339 133.113L268.017 130.346Z" fill="white"/>
<path d="M203.41 153.64C203.41 153.64 185.192 177.694 195.739 185.073C206.286 192.453 222.518 166.258 222.518 166.258L203.41 153.64Z" fill="url(#paint2_linear)"/>
<path d="M214.724 176.544C214.724 176.544 195.835 201.461 206.766 209.128C217.696 216.794 231.763 190.58 231.763 190.58L214.724 176.544Z" fill="url(#paint3_linear)"/>
<path d="M229.489 202.994C229.489 202.994 216.545 220.053 224.024 225.324C231.503 230.499 239.077 216.794 239.077 216.794L229.489 202.994Z" fill="url(#paint4_linear)"/>
<path d="M269.664 253.116C267.267 244.587 252.022 234.332 243.872 233.086C235.818 231.745 221.627 230.499 221.627 230.499C221.627 230.499 217.504 224.653 208.97 226.378C200.437 228.103 193.725 233.757 193.725 233.757C193.725 233.757 176.946 198.203 173.014 188.14C169.083 178.077 162.755 169.165 152.304 176.161C141.852 183.157 169.083 237.687 176.562 259.729C183.945 281.77 187.876 305.729 194.205 318.858C197.752 326.238 203.793 329.209 208.779 331.413C234.667 326.525 277.623 303.142 278.582 300.267C277.143 282.345 271.39 259.249 269.664 253.116Z" fill="url(#paint5_linear)"/>
<path d="M168.315 73.9052C170.041 71.0302 163.905 60.0092 150.577 49.3716C137.249 38.734 114.141 23.7838 109.347 26.2755C104.553 28.7672 163.234 82.3387 168.315 73.9052Z" fill="#FDCB24"/>
<path d="M108.868 26.4683C108.868 26.4683 101.773 34.6142 99.8553 37.3934C97.9376 40.1726 98.8006 42.856 103.978 49.6602C109.156 56.5603 119.32 68.0604 133.606 76.8772C147.893 85.694 154.892 87.1315 156.234 87.5149C157.577 87.8982 158.536 86.4607 160.453 84.0648C162.371 81.5731 166.398 76.3022 167.453 74.9605C168.507 73.6188 108.868 26.4683 108.868 26.4683Z" fill="#FDCB24"/>
<path d="M165.247 71.3185C166.781 68.8268 160.549 59.6267 148.851 50.2349C137.058 40.8431 116.826 26.3721 112.512 28.5763C110.402 29.7263 123.25 41.6098 136.386 53.0141C149.522 64.4184 162.946 75.0561 165.247 71.3185Z" fill="#F7961D"/>
<path d="M86.3357 186.606C85.5687 185.073 79.1445 184.786 70.9944 187.565C62.7485 190.44 50.092 196.286 49.8043 199.065C49.5167 201.94 88.6369 191.111 86.3357 186.606Z" fill="#FDCB24"/>
<path d="M49.709 199.354C49.709 199.354 51.339 204.625 52.0102 206.158C52.6814 207.692 54.1196 208.075 58.4343 207.692C62.7491 207.308 70.5156 206.063 78.1862 202.325C85.8568 198.587 88.3498 195.904 88.9251 195.425C89.5004 194.946 89.1169 194.179 88.5416 192.646C87.9663 191.112 86.8157 187.95 86.528 187.183C86.2404 186.512 49.709 199.354 49.709 199.354Z" fill="#FDCB24"/>
<path d="M84.3229 187.278C83.6517 185.936 77.9946 186.128 70.8034 188.619C63.6121 191.111 51.8185 195.999 51.6268 198.394C51.5309 199.64 60.1604 197.34 68.5981 194.753C77.0358 192.165 85.3776 189.29 84.3229 187.278Z" fill="#F7961D"/>
<path d="M307.25 247.27C307.442 245.64 302.456 241.615 294.018 239.315C285.676 237.015 271.869 234.619 270.047 236.728C268.321 238.932 306.579 252.253 307.25 247.27Z" fill="#FDCB24"/>
<path d="M269.952 236.921C269.952 236.921 268.322 242.192 267.938 243.821C267.555 245.45 268.513 246.6 272.349 248.804C276.088 251.009 283.279 254.363 291.717 255.609C300.155 256.855 303.702 256.088 304.469 256.088C305.141 255.992 305.332 255.129 305.716 253.596C306.099 252.063 306.962 248.804 307.154 247.942C307.25 247.079 269.952 236.921 269.952 236.921Z" fill="#FDCB24"/>
<path d="M305.236 246.696C305.428 245.259 300.73 242.096 293.347 240.084C285.964 238.071 273.499 235.388 271.965 237.209C271.198 238.167 279.635 241.138 288.073 243.821C296.511 246.505 304.948 248.9 305.236 246.696Z" fill="#F7961D"/>
<path d="M312.716 230.691C312.716 230.691 302.552 220.053 299.292 204.24C296.032 188.428 277.719 179.228 277.719 179.228L251.926 194.274C251.926 194.274 269.377 194.082 270.24 204.145C271.103 214.207 286.156 228.007 292.101 230.595C298.046 233.278 314.346 230.499 314.346 230.499" fill="#3E6295"/>
<path d="M286.349 195.999C287.211 197.053 287.787 198.011 288.266 198.874C288.937 200.311 289.225 201.461 289.033 202.419C288.841 203.378 288.17 204.144 287.02 204.719C285.773 205.39 284.718 205.39 283.664 204.815L280.883 208.265L279.541 205.582L281.746 202.803C281.65 202.707 281.554 202.515 281.458 202.228L281.171 201.749L278.294 203.186L277.048 200.694L286.349 195.999ZM283.568 201.557C283.951 202.419 284.718 202.515 285.677 202.036C286.636 201.557 286.924 200.886 286.54 200.024C286.444 199.832 286.253 199.544 286.061 199.353L283.28 200.79L283.568 201.557Z" fill="white"/>
<path d="M287.595 205.582C288.17 205.965 288.649 206.349 289.033 206.732C289.417 207.211 289.8 207.69 290.088 208.17C290.471 208.84 290.663 209.511 290.663 210.182C290.663 210.853 290.471 211.428 290.088 212.003C289.704 212.578 289.225 212.961 288.458 213.345L287.882 213.632C286.828 214.207 285.773 214.303 284.91 214.015C284.047 213.728 283.28 213.057 282.705 211.907C282.609 211.811 282.513 211.524 282.417 211.236L280.02 212.482L278.486 210.182L287.595 205.582ZM285.198 211.524C285.389 211.62 285.677 211.62 285.965 211.428L287.691 210.565C287.978 210.374 288.17 210.182 288.17 209.99C288.266 209.799 288.17 209.511 288.074 209.224C287.978 208.936 287.787 208.745 287.595 208.649L284.335 210.278C284.335 210.47 284.431 210.757 284.526 211.045C284.814 211.332 285.006 211.524 285.198 211.524Z" fill="white"/>
<path d="M92.1847 93.6471C92.1847 93.6471 83.6511 105.339 68.214 111.664C52.8727 117.989 47.5991 136.868 47.5991 136.868L69.1728 157.473C69.1728 157.473 64.858 141.373 75.0216 138.498C85.1852 135.527 95.7324 118.756 96.9788 112.622C98.2253 106.489 91.6094 92.1138 91.6094 92.1138" fill="#3E6295"/>
<path d="M62.749 125.369C63.612 124.314 64.4749 123.548 65.242 122.973C66.4885 122.014 67.6391 121.535 68.6938 121.535C69.7485 121.535 70.7073 122.014 71.5703 122.877C72.5291 123.835 72.8167 124.889 72.4332 125.944L76.6521 127.764L74.255 129.585L70.8991 128.052C70.8032 128.148 70.6114 128.244 70.3238 128.435L69.8444 128.819L72.0497 131.214L69.7485 132.939L62.749 125.369ZM69.1732 126.71C69.9402 126.135 69.9402 125.464 69.1732 124.698C68.4061 123.931 67.6391 123.739 66.9679 124.314C66.7761 124.41 66.5843 124.698 66.3926 124.985L68.502 127.285L69.1732 126.71Z" fill="white"/>
<path d="M72.3372 122.11C72.5289 121.535 72.8166 121.056 73.2001 120.481C73.5836 120.002 73.9672 119.523 74.4466 119.235C75.1178 118.756 75.7889 118.468 76.4601 118.277C77.1313 118.181 77.8025 118.181 78.4737 118.373C79.1449 118.564 79.7201 118.948 80.1996 119.523L80.679 120.002C81.5419 120.864 81.8296 121.823 81.7337 122.685C81.6378 123.548 81.0625 124.41 80.1037 125.177C80.0078 125.273 79.816 125.369 79.5284 125.56L81.3502 127.573L79.3366 129.489L72.3372 122.11ZM79.049 123.069C79.049 122.877 78.9531 122.589 78.7613 122.398L77.419 120.96C77.2272 120.769 76.9395 120.577 76.7478 120.577C76.4601 120.577 76.2684 120.673 75.9807 120.864C75.6931 121.056 75.5972 121.248 75.5013 121.439L77.9943 124.123C78.186 124.123 78.4737 123.931 78.6654 123.739C78.8572 123.548 79.049 123.26 79.049 123.069Z" fill="white"/>
<path d="M186.917 151.914C186.725 151.914 186.437 151.819 186.246 151.627C185.862 151.244 185.862 150.669 186.246 150.285C187.3 149.135 188.163 147.985 188.93 146.644C189.218 146.164 189.793 145.973 190.273 146.26C190.752 146.548 190.944 147.123 190.656 147.602C189.889 149.039 188.834 150.381 187.684 151.627C187.396 151.819 187.204 151.914 186.917 151.914ZM191.519 143.577C191.423 143.577 191.327 143.577 191.232 143.577C190.752 143.481 190.369 142.906 190.56 142.427C190.944 140.989 191.136 139.552 191.327 137.923C191.327 137.348 191.807 136.964 192.382 137.06C192.957 137.06 193.341 137.539 193.245 138.114C193.149 139.839 192.862 141.468 192.478 143.002C192.286 143.289 191.903 143.577 191.519 143.577ZM192.286 134.089C191.807 134.089 191.327 133.706 191.327 133.131C191.232 131.693 191.136 130.16 190.944 128.435C190.848 127.956 191.232 127.477 191.807 127.381C192.382 127.285 192.766 127.668 192.862 128.243C193.053 130.064 193.149 131.598 193.245 133.131C193.341 133.61 192.862 134.089 192.286 134.089C192.382 134.089 192.286 134.089 192.286 134.089ZM191.327 124.506C190.848 124.506 190.465 124.122 190.369 123.643L190.273 122.972C190.081 121.631 189.889 120.289 189.697 118.947C189.602 118.468 189.985 117.989 190.56 117.893C191.136 117.797 191.519 118.181 191.615 118.756C191.807 120.097 191.999 121.439 192.19 122.781L192.286 123.452C192.382 123.931 191.999 124.506 191.423 124.506H191.327ZM257.391 119.522C257.103 119.522 256.816 119.427 256.624 119.139C255.665 117.893 254.61 116.647 253.651 115.401C253.268 115.018 253.364 114.347 253.747 114.06C254.131 113.676 254.802 113.772 255.09 114.156C256.144 115.401 257.103 116.647 258.158 117.893C258.446 118.277 258.446 118.947 257.966 119.235C257.774 119.522 257.583 119.522 257.391 119.522ZM190.177 115.018C189.697 115.018 189.218 114.635 189.218 114.156C189.122 113.197 189.122 112.335 189.122 111.472C189.122 110.706 189.122 109.939 189.218 109.268C189.218 108.693 189.697 108.31 190.273 108.406C190.848 108.406 191.232 108.885 191.136 109.46C191.136 110.131 191.04 110.801 191.04 111.472C191.04 112.335 191.04 113.197 191.136 114.06C191.232 114.539 190.848 115.018 190.177 115.018C190.273 115.018 190.273 115.018 190.177 115.018ZM251.254 112.239C250.967 112.239 250.775 112.143 250.583 111.951C249.528 110.801 248.378 109.556 247.323 108.501C246.94 108.118 246.94 107.543 247.323 107.16C247.707 106.776 248.282 106.776 248.665 107.16C249.816 108.31 250.871 109.46 252.021 110.706C252.405 111.089 252.309 111.664 251.925 112.047C251.638 112.143 251.446 112.239 251.254 112.239ZM191.04 105.531C190.944 105.531 190.848 105.531 190.752 105.531C190.273 105.339 189.985 104.86 190.081 104.381C190.56 102.655 191.327 101.122 192.286 99.7805C192.574 99.3013 193.149 99.2054 193.629 99.4929C194.108 99.7805 194.204 100.355 193.916 100.835C193.053 102.08 192.478 103.326 191.999 104.86C191.807 105.243 191.423 105.531 191.04 105.531ZM244.447 105.435C244.255 105.435 243.967 105.339 243.775 105.147C242.529 104.093 241.378 103.039 240.132 102.08C239.748 101.793 239.652 101.122 239.94 100.739C240.228 100.355 240.899 100.26 241.282 100.547C242.529 101.505 243.775 102.56 245.022 103.614C245.405 103.997 245.405 104.572 245.118 104.956C244.926 105.339 244.638 105.435 244.447 105.435ZM236.872 99.5888C236.68 99.5888 236.488 99.493 236.297 99.3971C234.954 98.5346 233.612 97.6721 232.269 97.0013C231.79 96.7138 231.598 96.1387 231.886 95.6596C232.174 95.1804 232.749 94.9887 233.228 95.2762C234.571 96.0429 236.009 96.9054 237.447 97.7679C237.927 98.0554 238.022 98.6304 237.735 99.1096C237.447 99.3971 237.16 99.5888 236.872 99.5888ZM196.313 97.7679C196.026 97.7679 195.738 97.6721 195.546 97.3846C195.259 97.0013 195.355 96.3304 195.738 96.0429C196.889 95.1804 198.327 94.3179 199.861 93.647L200.149 93.5512C200.628 93.3595 201.203 93.5512 201.395 94.0304C201.587 94.5096 201.395 95.0846 200.916 95.2762L200.628 95.3721C199.19 96.0429 197.943 96.7138 196.889 97.4804C196.793 97.7679 196.505 97.7679 196.313 97.7679ZM228.434 95.0846C228.338 95.0846 228.147 95.0846 228.051 94.9887C226.612 94.4137 225.078 93.8387 223.64 93.4554C223.161 93.3595 222.873 92.7845 222.969 92.3054C223.065 91.8262 223.64 91.5387 224.119 91.6345C225.654 92.0179 227.188 92.5929 228.722 93.2637C229.201 93.4554 229.489 94.0304 229.201 94.5096C229.201 94.7971 228.818 95.0846 228.434 95.0846ZM204.943 93.7429C204.559 93.7429 204.176 93.4554 203.984 93.072C203.792 92.5929 204.08 92.0179 204.655 91.922C206.285 91.4428 207.819 91.0595 209.449 90.772C209.929 90.6762 210.504 91.0595 210.504 91.5387C210.6 92.0179 210.216 92.5929 209.737 92.5929C208.203 92.7845 206.669 93.1679 205.23 93.647C205.135 93.7429 205.039 93.7429 204.943 93.7429ZM219.229 92.5929H219.134C217.695 92.4012 216.257 92.3054 214.915 92.3054H214.531C214.052 92.3054 213.572 91.922 213.572 91.347C213.572 90.772 213.956 90.3887 214.531 90.3887H215.011C216.545 90.3887 217.983 90.4845 219.517 90.6762C219.996 90.772 220.38 91.2512 220.38 91.7304C220.092 92.2095 219.709 92.5929 219.229 92.5929Z" fill="#DEE4ED"/>
<path d="M106.472 239.124C105.609 239.124 104.842 239.124 103.979 239.028C103.403 239.028 103.02 238.549 103.116 237.974C103.116 237.399 103.595 237.016 104.17 237.112C105.705 237.207 107.239 237.207 108.773 237.112C109.348 237.112 109.732 237.495 109.828 237.974C109.828 238.549 109.444 238.932 108.965 239.028C108.102 239.124 107.239 239.124 106.472 239.124ZM99.2804 238.357C99.1846 238.357 99.1846 238.357 99.0887 238.357C97.4587 238.07 95.8287 237.687 94.3904 237.207C93.911 237.016 93.6233 236.537 93.7192 236.057C93.911 235.578 94.3904 235.291 94.8698 235.387C96.3081 235.77 97.8422 236.153 99.4722 236.441C99.9516 236.537 100.335 237.016 100.239 237.591C100.143 238.07 99.7598 238.357 99.2804 238.357ZM113.567 238.357C113.088 238.357 112.704 238.07 112.608 237.591C112.512 237.112 112.8 236.537 113.375 236.441C114.909 236.057 116.348 235.674 117.786 235.099C118.265 234.907 118.841 235.195 119.032 235.674C119.224 236.153 118.936 236.728 118.457 236.92C116.923 237.495 115.293 237.974 113.759 238.357C113.663 238.357 113.567 238.357 113.567 238.357ZM90.0757 235.674C89.9798 235.674 89.788 235.674 89.6921 235.578C88.158 234.907 86.7198 234.237 85.2815 233.374C84.8021 233.086 84.7062 232.511 84.898 232.032C85.1856 231.553 85.7609 231.457 86.2404 231.649C87.5827 232.416 89.021 233.087 90.4592 233.757C90.9386 233.949 91.1304 234.524 90.9386 235.003C90.8427 235.482 90.4592 235.674 90.0757 235.674ZM122.484 235.003C122.101 235.003 121.813 234.812 121.621 234.524C121.334 234.045 121.525 233.47 122.005 233.182C123.347 232.416 124.689 231.649 126.032 230.691C126.511 230.403 127.086 230.499 127.374 230.882C127.662 231.361 127.566 231.936 127.182 232.224C125.84 233.182 124.402 234.045 122.964 234.812C122.772 234.907 122.58 235.003 122.484 235.003ZM81.8297 230.882C81.638 230.882 81.4462 230.786 81.2544 230.691C79.9121 229.732 78.6656 228.582 77.515 227.432C77.1315 227.049 77.1315 226.474 77.515 226.091C77.8985 225.707 78.4738 225.707 78.8574 226.091C79.9121 227.145 81.1586 228.199 82.405 229.157C82.7886 229.445 82.8845 230.116 82.5968 230.499C82.405 230.786 82.1174 230.882 81.8297 230.882ZM130.347 229.541C130.059 229.541 129.771 229.445 129.579 229.157C129.196 228.774 129.292 228.103 129.675 227.816C130.826 226.857 131.977 225.707 133.127 224.557C133.511 224.174 134.086 224.174 134.469 224.557C134.853 224.941 134.853 225.516 134.469 225.899C133.319 227.049 132.072 228.199 130.922 229.253C130.73 229.445 130.538 229.541 130.347 229.541ZM75.0221 224.174C74.7344 224.174 74.4468 224.078 74.255 223.791C73.2962 222.449 72.3373 221.107 71.5703 219.67C71.2826 219.19 71.4744 218.615 71.9538 218.328C72.4332 218.04 73.0085 218.232 73.2962 218.711C74.0632 220.053 74.9262 221.395 75.885 222.641C76.1726 223.024 76.0768 223.695 75.6932 223.982C75.5015 224.078 75.2138 224.174 75.0221 224.174ZM137.058 222.736C136.867 222.736 136.579 222.641 136.483 222.545C136.099 222.161 136.004 221.586 136.387 221.203C137.346 220.053 138.401 218.807 139.359 217.465C139.647 217.082 140.318 216.986 140.702 217.274C141.085 217.561 141.181 218.232 140.894 218.616C139.935 219.957 138.88 221.203 137.921 222.449C137.634 222.641 137.346 222.736 137.058 222.736ZM70.3238 215.836C69.9403 215.836 69.5567 215.645 69.4608 215.261C68.3103 212.482 68.0226 210.565 68.0226 210.47C67.9267 209.99 68.3103 209.415 68.7897 209.32C69.2691 209.224 69.8444 209.607 69.9403 210.086C69.9403 210.086 70.2279 211.907 71.2826 214.495C71.4744 214.974 71.2826 215.549 70.7073 215.74C70.6114 215.836 70.4197 215.836 70.3238 215.836ZM142.811 214.974C142.62 214.974 142.428 214.878 142.332 214.782C141.852 214.495 141.757 213.92 142.044 213.44C142.907 212.099 143.77 210.757 144.441 209.415C144.729 208.936 145.304 208.745 145.784 209.032C146.263 209.32 146.455 209.895 146.167 210.374C145.4 211.715 144.537 213.153 143.674 214.59C143.387 214.878 143.099 214.974 142.811 214.974Z" fill="#DEE4ED"/>
<path d="M243.68 258.865C243.105 258.865 242.434 258.865 241.763 258.77C241.187 258.77 240.804 258.29 240.9 257.715C240.9 257.14 241.379 256.757 241.954 256.853C243.584 256.949 245.119 256.949 246.557 256.757C247.036 256.661 247.516 257.045 247.612 257.62C247.707 258.099 247.324 258.578 246.749 258.674C245.694 258.77 244.735 258.865 243.68 258.865ZM237.064 258.195C236.968 258.195 236.969 258.195 236.873 258.195C235.338 257.907 233.708 257.524 232.078 257.045C231.599 256.853 231.311 256.374 231.407 255.895C231.599 255.415 232.078 255.128 232.558 255.224C234.092 255.703 235.626 256.086 237.16 256.374C237.64 256.47 238.023 256.949 237.927 257.524C237.927 257.811 237.544 258.195 237.064 258.195ZM251.255 257.715C250.872 257.715 250.488 257.428 250.296 257.045C250.104 256.565 250.392 255.99 250.967 255.799C252.406 255.32 253.844 254.745 255.186 253.978C255.666 253.69 256.241 253.882 256.529 254.361C256.816 254.84 256.625 255.415 256.145 255.703C254.707 256.565 253.173 257.236 251.543 257.715C251.447 257.715 251.351 257.715 251.255 257.715ZM227.86 255.511C227.764 255.511 227.572 255.511 227.476 255.415C225.942 254.745 224.408 254.074 223.065 253.307C222.586 253.02 222.49 252.445 222.682 251.965C222.97 251.486 223.545 251.39 224.024 251.582C225.271 252.349 226.709 253.02 228.243 253.595C228.723 253.786 229.01 254.361 228.723 254.84C228.627 255.224 228.243 255.511 227.86 255.511ZM259.501 252.924C259.213 252.924 259.022 252.828 258.83 252.636C258.446 252.253 258.446 251.678 258.926 251.295C259.98 250.24 261.035 249.09 261.994 247.844C262.282 247.461 262.857 247.365 263.336 247.653C263.72 247.94 263.816 248.611 263.528 248.995C262.569 250.336 261.419 251.582 260.268 252.732C259.98 252.828 259.693 252.924 259.501 252.924ZM219.71 250.624C219.518 250.624 219.23 250.528 219.134 250.432C217.888 249.378 216.641 248.132 215.682 246.886C215.395 246.503 215.395 245.832 215.874 245.544C216.258 245.257 216.929 245.257 217.217 245.736C218.175 246.886 219.23 248.036 220.381 248.995C220.764 249.378 220.86 249.953 220.477 250.336C220.189 250.528 219.997 250.624 219.71 250.624ZM265.158 245.257C264.966 245.257 264.87 245.257 264.679 245.161C264.199 244.969 264.007 244.299 264.295 243.915C264.966 242.574 265.638 241.136 266.117 239.603C266.309 239.124 266.884 238.836 267.363 239.028C267.843 239.219 268.13 239.794 267.939 240.274C267.363 241.903 266.692 243.34 266.021 244.778C265.829 245.065 265.446 245.257 265.158 245.257ZM213.765 243.244C213.381 243.244 213.094 243.053 212.902 242.765C212.135 241.328 211.56 239.89 210.984 238.261C210.792 237.782 211.08 237.207 211.56 237.015C212.039 236.824 212.614 237.111 212.806 237.59C213.285 239.124 213.861 240.561 214.628 241.903C214.915 242.382 214.724 242.957 214.244 243.149C214.052 243.244 213.861 243.244 213.765 243.244ZM268.322 236.249C268.226 236.249 268.226 236.249 268.13 236.249C267.651 236.153 267.268 235.578 267.363 235.098C267.939 232.415 268.13 230.498 268.13 230.498C268.13 229.923 268.61 229.54 269.185 229.636C269.76 229.636 270.144 230.115 270.048 230.69C270.048 230.786 269.856 232.703 269.281 235.578C269.185 235.961 268.802 236.249 268.322 236.249ZM210.697 234.236C210.217 234.236 209.834 233.948 209.738 233.469C209.45 232.032 209.162 230.594 208.875 228.678C208.779 228.198 209.162 227.623 209.642 227.623C210.217 227.528 210.697 227.911 210.697 228.39C210.984 230.211 211.272 231.648 211.56 233.086C211.655 233.565 211.368 234.14 210.792 234.236H210.697ZM209.067 224.748C208.587 224.748 208.204 224.365 208.108 223.886C207.82 222.161 207.628 220.627 207.341 219.19C207.245 218.711 207.628 218.136 208.108 218.04C208.587 217.944 209.162 218.327 209.258 218.807C209.546 220.34 209.738 221.778 210.025 223.598C210.121 224.078 209.738 224.653 209.258 224.653C209.162 224.748 209.162 224.748 209.067 224.748ZM207.341 215.357C206.957 215.357 206.478 215.069 206.382 214.59C205.998 212.961 205.519 211.523 205.039 210.086C204.848 209.607 205.135 209.032 205.615 208.84C206.094 208.648 206.669 208.936 206.861 209.415C207.437 210.852 207.82 212.386 208.299 214.111C208.395 214.59 208.108 215.165 207.628 215.261C207.532 215.357 207.437 215.357 207.341 215.357ZM203.985 206.444C203.601 206.444 203.314 206.252 203.122 205.965C202.355 204.623 201.588 203.281 200.629 202.036C200.341 201.652 200.437 200.981 200.821 200.694C201.204 200.406 201.875 200.502 202.163 200.886C203.122 202.227 203.985 203.569 204.848 205.006C205.135 205.486 204.944 206.061 204.464 206.348C204.368 206.348 204.177 206.444 203.985 206.444ZM198.328 198.777C198.04 198.777 197.848 198.681 197.657 198.49C196.985 197.819 196.314 197.244 195.547 196.669C195.164 196.381 195.068 195.711 195.451 195.327C195.739 194.944 196.41 194.848 196.794 195.231C197.561 195.902 198.328 196.477 198.999 197.148C199.382 197.531 199.382 198.106 198.999 198.49C198.807 198.681 198.519 198.777 198.328 198.777Z" fill="#DEE4ED"/>
<path d="M109.252 161.689C107.526 161.594 105.896 161.114 104.266 160.252C103.787 159.964 103.595 159.389 103.883 159.006C104.171 158.527 104.746 158.335 105.129 158.623C106.472 159.294 107.91 159.773 109.348 159.869C109.924 159.869 110.307 160.348 110.211 160.923C110.211 161.306 109.828 161.689 109.252 161.689ZM114.047 161.019C113.663 161.019 113.279 160.731 113.184 160.348C112.992 159.869 113.279 159.294 113.759 159.102C114.334 158.91 114.909 158.623 115.485 158.431C116.348 157.952 117.211 157.569 118.074 157.185C118.553 156.994 119.128 157.185 119.32 157.664C119.512 158.144 119.32 158.719 118.841 158.91C118.074 159.294 117.211 159.677 116.348 160.156C115.677 160.444 115.101 160.731 114.43 160.923C114.238 161.019 114.142 161.019 114.047 161.019ZM100.815 157.569C100.623 157.569 100.335 157.473 100.143 157.281C98.9929 156.227 97.9382 154.981 96.8835 153.543C96.5958 153.16 96.6917 152.489 97.0752 152.202C97.4587 151.914 98.1299 152.01 98.4176 152.393C99.3764 153.735 100.431 154.885 101.486 155.844C101.869 156.227 101.869 156.802 101.486 157.185C101.39 157.473 101.102 157.569 100.815 157.569ZM122.772 157.089C122.388 157.089 122.005 156.898 121.909 156.514C121.717 156.035 121.909 155.46 122.388 155.268C123.922 154.598 125.457 154.023 126.895 153.543C127.374 153.352 127.95 153.639 128.141 154.118C128.333 154.598 128.045 155.173 127.566 155.364C126.128 155.844 124.69 156.419 123.155 156.994C122.964 157.089 122.868 157.089 122.772 157.089ZM131.785 154.118C131.305 154.118 130.922 153.831 130.826 153.352C130.73 152.873 131.018 152.298 131.593 152.202C133.415 151.818 135.045 151.531 136.483 151.435C136.963 151.435 137.442 151.818 137.442 152.393C137.442 152.968 137.058 153.352 136.483 153.352C135.141 153.448 133.607 153.639 131.881 154.023C131.977 154.118 131.881 154.118 131.785 154.118ZM94.9658 149.998C94.6781 149.998 94.2946 149.806 94.1028 149.518C93.3358 148.177 92.5687 146.739 91.8017 145.206C91.6099 144.727 91.8017 144.152 92.2811 143.96C92.7605 143.768 93.3358 143.96 93.5276 144.439C94.1987 145.877 94.9658 147.314 95.7329 148.56C96.0205 149.039 95.8287 149.614 95.4452 149.902C95.3493 149.902 95.1576 149.998 94.9658 149.998ZM90.7469 141.372C90.3634 141.372 89.9799 141.181 89.884 140.797C88.8293 138.114 88.254 136.293 88.254 136.197C88.0622 135.718 88.3499 135.143 88.9252 135.047C89.4046 134.856 89.9799 135.143 90.0758 135.718C90.0758 135.718 90.6511 137.539 91.7058 140.127C91.8975 140.606 91.7058 141.181 91.1305 141.372C91.0346 141.372 90.9387 141.372 90.7469 141.372Z" fill="#DEE4ED"/>
<path d="M165.823 147.506C165.631 147.506 165.439 147.41 165.248 147.315C164.768 147.027 164.672 146.452 165.056 145.973C165.344 145.59 166.398 144.056 167.165 141.948C167.357 141.469 167.932 141.181 168.412 141.373C168.891 141.565 169.179 142.14 168.987 142.619C168.124 144.823 167.069 146.452 166.59 147.027C166.398 147.315 166.111 147.506 165.823 147.506ZM169.179 138.594C169.179 138.594 169.083 138.594 169.179 138.594C168.604 138.498 168.22 138.114 168.22 137.539C168.22 137.156 168.316 136.773 168.316 136.389C168.316 135.239 168.124 134.185 167.837 133.131C167.645 132.652 167.932 132.077 168.508 131.981C168.987 131.789 169.562 132.077 169.754 132.652C170.138 133.898 170.329 135.144 170.329 136.485C170.329 136.964 170.329 137.348 170.234 137.827C170.042 138.21 169.658 138.594 169.179 138.594ZM166.398 129.681C166.111 129.681 165.823 129.585 165.631 129.298C164.768 128.244 163.618 127.189 162.275 126.327C161.796 126.039 161.7 125.464 161.988 124.985C162.275 124.506 162.851 124.41 163.33 124.698C164.864 125.656 166.111 126.806 167.069 128.052C167.453 128.435 167.357 129.106 166.974 129.394C166.878 129.681 166.686 129.681 166.398 129.681ZM158.632 124.314C158.536 124.314 158.344 124.314 158.248 124.218C156.906 123.739 155.468 123.26 153.838 122.973C153.358 122.877 152.975 122.398 153.071 121.823C153.166 121.343 153.646 120.96 154.221 121.056C155.947 121.343 157.577 121.823 159.015 122.398C159.495 122.589 159.782 123.164 159.591 123.643C159.399 124.123 159.015 124.314 158.632 124.314ZM120.566 123.739C120.47 123.739 120.47 123.739 120.566 123.739C118.744 123.739 117.21 123.643 115.676 123.452C115.197 123.356 114.813 122.877 114.813 122.398C114.909 121.918 115.389 121.535 115.868 121.535C117.306 121.727 118.84 121.823 120.566 121.823C121.142 121.823 121.525 122.302 121.525 122.781C121.429 123.356 121.046 123.739 120.566 123.739ZM125.264 123.643C124.785 123.643 124.306 123.26 124.306 122.685C124.306 122.11 124.689 121.727 125.264 121.727C126.703 121.631 128.141 121.535 130.059 121.439C130.538 121.439 131.017 121.823 131.113 122.302C131.113 122.877 130.73 123.26 130.25 123.356C128.333 123.548 126.799 123.643 125.264 123.643C125.36 123.643 125.36 123.643 125.264 123.643ZM134.853 123.068C134.373 123.068 133.894 122.685 133.894 122.206C133.894 121.631 134.277 121.248 134.757 121.152C136.387 121.056 137.921 120.864 139.551 120.768C140.126 120.768 140.51 121.152 140.606 121.631C140.606 122.206 140.222 122.589 139.743 122.685C138.113 122.781 136.579 122.877 134.853 123.068C134.949 123.068 134.949 123.068 134.853 123.068ZM111.074 122.589C110.978 122.589 110.882 122.589 110.786 122.589C109.06 122.11 107.526 121.439 106.184 120.673C105.704 120.385 105.513 119.81 105.8 119.331C106.088 118.852 106.663 118.66 107.143 118.948C108.389 119.618 109.827 120.193 111.361 120.673C111.841 120.768 112.129 121.343 112.033 121.823C111.841 122.302 111.457 122.589 111.074 122.589ZM149.235 122.493C147.701 122.398 146.071 122.398 144.441 122.398C143.962 122.398 143.482 122.014 143.482 121.439C143.482 120.864 143.866 120.481 144.441 120.481C146.167 120.481 147.797 120.481 149.331 120.577C149.906 120.577 150.29 121.056 150.194 121.631C150.194 122.11 149.715 122.493 149.235 122.493ZM102.828 117.798C102.54 117.798 102.348 117.702 102.157 117.51C101.006 116.36 100.047 114.923 99.2802 113.389C98.9925 112.91 99.1843 112.335 99.6637 112.143C100.143 111.856 100.718 112.047 100.91 112.527C101.677 113.868 102.54 115.114 103.499 116.168C103.883 116.552 103.883 117.127 103.499 117.51C103.307 117.702 103.02 117.798 102.828 117.798ZM98.4172 109.46C97.9378 109.46 97.5543 109.172 97.4584 108.693C97.1708 107.352 96.979 106.01 96.979 104.764C96.979 104.381 96.979 103.997 96.979 103.71C96.979 103.135 97.4584 102.752 98.0337 102.847C98.609 102.847 98.9925 103.327 98.8967 103.902C98.8967 104.189 98.8967 104.572 98.8967 104.86C98.8967 106.01 99.0884 107.16 99.3761 108.406C99.472 108.885 99.1843 109.46 98.7049 109.556C98.5131 109.46 98.4172 109.46 98.4172 109.46ZM99.0884 100.068C98.9926 100.068 98.8008 100.068 98.7049 99.9724C98.2255 99.7807 97.9378 99.2057 98.2255 98.7265C98.8008 97.289 99.6637 95.7556 100.814 94.4139C101.102 94.0306 101.773 93.9348 102.157 94.2223C102.54 94.5098 102.636 95.1806 102.348 95.564C101.39 96.8098 100.623 98.1515 100.047 99.4932C99.7596 99.8765 99.472 100.068 99.0884 100.068ZM104.746 92.4973C104.458 92.4973 104.17 92.4014 104.074 92.2098C103.691 91.8264 103.787 91.2514 104.17 90.8681C105.321 89.8139 106.663 88.8555 108.101 87.8972C108.581 87.6097 109.156 87.7055 109.444 88.1847C109.731 88.6639 109.636 89.2389 109.156 89.5264C107.814 90.4847 106.567 91.4431 105.417 92.4014C105.225 92.4014 105.033 92.4973 104.746 92.4973ZM112.704 87.1305C112.32 87.1305 112.033 86.9389 111.841 86.6514C111.553 86.1722 111.745 85.5972 112.224 85.3097C113.567 84.543 115.101 83.8722 116.635 83.2013C117.114 83.0096 117.69 83.2013 117.881 83.6805C118.073 84.1597 117.881 84.7347 117.402 84.9263C115.964 85.5972 114.526 86.268 113.183 87.0347C112.991 87.1305 112.896 87.1305 112.704 87.1305ZM121.525 83.2013C121.142 83.2013 120.758 82.9138 120.662 82.5305C120.47 82.0513 120.758 81.4763 121.237 81.2846C124.018 80.3263 125.84 79.7513 125.936 79.7513C126.415 79.6554 126.99 79.9429 127.086 80.4221C127.182 80.9013 126.894 81.4763 126.415 81.5721C126.415 81.5721 124.593 82.0513 121.909 83.0096C121.717 83.2013 121.621 83.2013 121.525 83.2013Z" fill="#DEE4ED"/>
<path d="M74.7344 239.316L101.677 219.095C101.677 219.095 126.607 220.245 127.47 245.737C128.333 271.229 139.743 279.183 148.564 277.937C157.385 276.787 160.55 274.679 160.55 274.679L155.468 279.279L157.194 282.537L153.55 284.933L154.893 288L151.92 290.3L152.495 293.654L148.948 296.242L150.002 299.5L147.03 301.321L147.893 304.579L144.633 307.358L145.4 310.808L142.811 313.3L143.003 316.558C143.003 316.558 116.348 322.117 105.8 291.066C95.2533 260.016 95.8286 241.041 74.7344 239.316Z" fill="white"/>
<path d="M98.8963 250.241C102.732 246.983 106.471 243.724 110.115 240.37C111.073 239.508 109.635 238.166 108.772 239.029C105.033 242.383 101.293 245.641 97.554 248.899C96.5952 249.666 97.9375 251.008 98.8963 250.241Z" fill="#B9C2C9"/>
<path d="M101.389 256.374C104.649 253.211 108.005 250.049 111.265 246.886C112.128 246.024 110.786 244.682 109.923 245.545C106.663 248.707 103.307 251.87 100.047 255.032C99.1838 255.895 100.526 257.236 101.389 256.374Z" fill="#B9C2C9"/>
<path d="M104.362 263.466C107.142 260.399 110.211 257.524 113.566 255.032C113.95 254.745 114.238 254.17 113.95 253.691C113.662 253.307 113.087 253.02 112.608 253.307C109.156 255.895 105.896 258.77 103.019 262.028C102.156 262.987 103.499 264.328 104.362 263.466Z" fill="#B9C2C9"/>
<path d="M106.951 269.887C109.636 266.916 112.512 264.137 115.581 261.645C115.964 261.358 115.964 260.591 115.581 260.304C115.197 259.92 114.622 260.016 114.238 260.304C111.17 262.891 108.293 265.575 105.609 268.545C104.746 269.408 106.088 270.75 106.951 269.887Z" fill="#B9C2C9"/>
<path d="M108.293 278.416C108.581 278.129 108.964 277.937 109.348 277.745C109.731 277.458 110.115 277.074 110.402 276.691C111.074 275.828 111.745 275.158 112.512 274.391C113.95 272.953 115.58 271.612 117.114 270.27C118.073 269.408 116.635 268.066 115.772 268.928C114.238 270.27 112.608 271.612 111.169 273.049C110.402 273.72 109.731 274.487 109.156 275.253C108.868 275.637 108.676 275.924 108.293 276.212C107.909 276.499 107.43 276.787 107.046 277.074C106.663 277.362 106.663 278.129 107.046 278.416C107.334 278.799 107.814 278.704 108.293 278.416Z" fill="#B9C2C9"/>
<path d="M110.402 284.837C112.991 281.962 115.964 279.374 118.648 276.595C119.511 275.732 118.169 274.295 117.306 275.253C114.621 278.032 111.745 280.62 109.06 283.495C108.677 283.878 108.677 284.453 109.06 284.837C109.444 285.22 110.115 285.22 110.402 284.837Z" fill="#B9C2C9"/>
<path d="M113.566 291.641C115.964 288.383 119.032 285.796 121.908 282.92C122.771 282.058 121.429 280.716 120.566 281.579C117.594 284.55 114.429 287.329 111.936 290.683C111.649 291.066 111.841 291.737 112.32 292.025C112.703 292.216 113.183 292.025 113.566 291.641Z" fill="#B9C2C9"/>
<path d="M116.347 235.961C117.402 235.003 118.552 234.14 119.607 233.182C119.99 232.894 119.99 232.128 119.607 231.84C119.223 231.457 118.648 231.457 118.264 231.84C117.21 232.799 116.059 233.661 115.004 234.619C114.621 234.907 114.621 235.674 115.004 235.961C115.388 236.249 115.963 236.249 116.347 235.961Z" fill="#B9C2C9"/>
<path d="M119.511 241.615C120.758 240.849 121.812 239.89 122.771 238.836C123.059 238.453 123.155 237.878 122.771 237.495C122.388 237.207 121.812 237.111 121.429 237.495C120.854 238.165 120.182 238.74 119.511 239.315C119.607 239.22 119.607 239.22 119.703 239.124C119.319 239.411 118.936 239.699 118.456 239.986C118.073 240.274 117.785 240.849 118.073 241.328C118.456 241.711 119.128 241.903 119.511 241.615Z" fill="#B9C2C9"/>
<path d="M121.237 248.324C122.196 247.653 123.154 246.886 124.113 246.215C124.305 246.024 124.497 245.928 124.593 245.64C124.689 245.449 124.593 245.065 124.497 244.874C124.401 244.682 124.209 244.49 123.921 244.394C123.73 244.299 123.346 244.299 123.154 244.49C122.196 245.257 121.237 245.928 120.278 246.599C120.086 246.79 119.894 246.886 119.799 247.174C119.703 247.365 119.799 247.749 119.894 247.94C120.182 248.324 120.757 248.611 121.237 248.324Z" fill="#B9C2C9"/>
<path d="M122.1 256.279C122.772 255.608 123.539 255.033 124.21 254.458C124.114 254.554 124.114 254.554 124.018 254.649C124.306 254.458 124.593 254.17 124.881 253.979C125.073 253.787 125.265 253.691 125.36 253.404C125.456 253.212 125.36 252.829 125.265 252.637C124.977 252.254 124.402 251.966 123.922 252.254C122.772 253.02 121.717 253.979 120.662 254.937C120.279 255.32 120.279 255.991 120.662 256.279C121.142 256.662 121.717 256.662 122.1 256.279Z" fill="#B9C2C9"/>
<path d="M123.155 264.808C123.826 264.137 124.593 263.562 125.265 262.987C125.169 263.083 125.169 263.083 125.073 263.179C125.36 262.987 125.648 262.7 125.936 262.508C126.127 262.316 126.319 262.22 126.415 261.933C126.511 261.741 126.415 261.358 126.319 261.166C126.032 260.783 125.456 260.495 124.977 260.783C123.826 261.549 122.772 262.508 121.717 263.466C121.333 263.85 121.333 264.52 121.717 264.808C122.196 265.191 122.772 265.191 123.155 264.808Z" fill="#B9C2C9"/>
<path d="M126.127 270.174C126.702 269.599 127.374 269.12 127.949 268.641C127.853 268.737 127.853 268.737 127.757 268.832C128.045 268.641 128.332 268.449 128.62 268.257C128.812 268.066 129.004 267.97 129.099 267.682C129.195 267.491 129.099 267.107 129.004 266.916C128.908 266.724 128.716 266.532 128.428 266.436C128.237 266.341 127.853 266.341 127.661 266.532C126.702 267.299 125.744 268.066 124.785 268.832C124.593 269.024 124.497 269.312 124.497 269.503C124.497 269.695 124.593 269.982 124.785 270.174C125.168 270.557 125.648 270.557 126.127 270.174Z" fill="#B9C2C9"/>
<path d="M128.141 276.595C129.004 275.541 129.867 274.583 130.73 273.624C131.113 273.241 131.113 272.666 130.73 272.283C130.346 271.899 129.771 271.899 129.387 272.283C128.524 273.241 127.661 274.199 126.798 275.253C126.607 275.445 126.511 275.637 126.511 275.924C126.511 276.116 126.607 276.403 126.798 276.595C126.99 276.787 127.182 276.883 127.47 276.883C127.661 276.883 127.949 276.787 128.141 276.595Z" fill="#B9C2C9"/>
<path d="M116.059 299.117C116.635 299.117 116.635 298.158 116.059 298.158C115.484 298.158 115.484 299.117 116.059 299.117Z" fill="#B9C2C9"/>
<path d="M116.54 299.021C122.58 291.833 128.909 284.837 135.429 278.129C135.812 277.649 135.141 276.979 134.757 277.458C128.237 284.166 121.909 291.162 115.868 298.35C115.485 298.829 116.156 299.5 116.54 299.021Z" fill="#B9C2C9"/>
<path d="M123.826 304.196C124.593 303.142 125.36 302.183 126.223 301.225C127.086 300.267 128.045 299.308 129.003 298.35C129.387 297.967 129.387 297.296 129.003 297.008C128.62 296.625 128.045 296.625 127.661 297.008C125.647 298.925 123.826 301.033 122.196 303.333C121.908 303.717 122.1 304.387 122.579 304.675C122.963 304.867 123.538 304.675 123.826 304.196Z" fill="#B9C2C9"/>
<path d="M137.537 287.904C137.537 288 137.442 288.096 137.537 287.904C137.633 287.808 137.729 287.712 137.729 287.616C137.825 287.521 137.921 287.329 138.113 287.233C138.4 286.946 138.592 286.658 138.88 286.371C139.455 285.796 139.935 285.125 140.318 284.454C140.606 283.975 140.414 283.4 139.935 283.112C139.455 282.825 138.88 283.016 138.592 283.495C138.496 283.687 138.4 283.783 138.305 283.975C138.209 284.07 138.209 284.166 138.113 284.166C138.113 284.262 138.017 284.358 138.113 284.166C138.113 284.166 138.113 284.262 138.017 284.262C137.825 284.55 137.537 284.837 137.25 285.125C136.675 285.7 136.195 286.275 135.716 286.946C135.62 287.137 135.524 287.521 135.62 287.712C135.716 287.904 135.812 288.191 136.099 288.287C136.291 288.383 136.579 288.479 136.866 288.383C137.25 288.287 137.346 288.096 137.537 287.904Z" fill="#B9C2C9"/>
<path d="M270.815 100.355C270.815 100.355 266.596 93.072 266.884 83.776C267.172 74.5759 258.254 66.9092 258.254 66.9092L241.858 71.7967C241.858 71.7967 251.638 74.0968 250.776 79.751C249.913 85.5011 256.433 95.1803 259.405 97.4804C262.377 99.7804 271.87 100.451 271.87 100.451" fill="white"/>
<path d="M179.438 293.174C179.438 293.174 176.945 299.212 171.096 303.429C165.247 307.645 164.768 316.75 164.768 316.75L175.603 324.512C175.603 324.512 172.343 317.421 176.274 315.216C180.205 313.012 183.082 304.387 183.082 301.512C183.082 298.637 178.959 292.408 178.959 292.408" fill="white"/>
<path d="M73.2 247.078C73.2 247.078 69.3647 241.712 68.8853 234.524C68.4059 227.336 60.927 222.065 60.927 222.065L48.5581 227.145C48.5581 227.145 56.3246 228.199 56.037 232.703C55.7493 237.207 61.5982 244.203 64.0911 245.737C66.5841 247.27 73.9671 247.078 73.9671 247.078" fill="white"/>
<defs>
<linearGradient id="paint0_linear" x1="216.719" y1="91.0991" x2="175.162" y2="81.7537" gradientUnits="userSpaceOnUse">
<stop stop-color="#E69716"/>
<stop offset="1" stop-color="#F8E3BF"/>
</linearGradient>
<linearGradient id="paint1_linear" x1="239.173" y1="179.858" x2="126.344" y2="255.834" gradientUnits="userSpaceOnUse">
<stop stop-color="#E69716"/>
<stop offset="0.231623" stop-color="#F8E3BF"/>
<stop offset="0.782639" stop-color="#E69716"/>
<stop offset="0.923101" stop-color="#F8E3BF"/>
</linearGradient>
<linearGradient id="paint2_linear" x1="226.218" y1="157.801" x2="196.917" y2="178.531" gradientUnits="userSpaceOnUse">
<stop stop-color="#E69716"/>
<stop offset="1" stop-color="#F8E3BF"/>
</linearGradient>
<linearGradient id="paint3_linear" x1="247.926" y1="174.226" x2="201.824" y2="200.969" gradientUnits="userSpaceOnUse">
<stop stop-color="#E69716"/>
<stop offset="1" stop-color="#F8E3BF"/>
</linearGradient>
<linearGradient id="paint4_linear" x1="260.435" y1="196.413" x2="221.077" y2="219.353" gradientUnits="userSpaceOnUse">
<stop stop-color="#E69716"/>
<stop offset="1" stop-color="#F8E3BF"/>
</linearGradient>
<linearGradient id="paint5_linear" x1="160.01" y1="252.539" x2="234.903" y2="213.846" gradientUnits="userSpaceOnUse">
<stop stop-color="#F8E3BF"/>
<stop offset="1" stop-color="#E69716"/>
</linearGradient>
</defs>
</svg>
