<svg width="360" height="360" viewBox="0 0 360 360" fill="none" xmlns="http://www.w3.org/2000/svg">
<path d="M226.602 32.3194C177.388 25.8155 126.285 43.819 89.3508 76.9039C52.4167 109.989 29.3683 157.212 22.0948 206.133C18.8832 227.718 18.6943 250.246 26.3456 270.7C37.1141 299.449 63.8464 321.6 94.0738 326.879C120.334 331.497 147.066 324.051 173.704 323.014C210.638 321.506 247.572 332.157 284.317 327.727C295.558 326.407 306.893 323.485 316.151 316.981C334.193 304.162 340.616 280.032 339.86 257.975C339.104 235.919 332.87 214.333 331.17 192.277C330.036 176.818 331.17 161.171 329.186 145.713C326.163 122.808 316.056 101.505 305.004 81.1455C300.092 72.0024 294.802 62.8593 287.057 55.9784C270.243 41.0855 251.445 36.184 226.602 32.3194Z" fill="#EAEEF3"/>
<path d="M78.0165 264.385C80.378 263.537 82.7395 262.5 84.7232 260.992C86.7068 259.484 88.4071 257.41 89.1628 255.053C89.5407 253.922 89.6351 252.697 88.9739 251.754C88.1237 250.529 86.2345 250.34 84.8176 251C83.4007 251.66 82.4561 252.885 81.5115 254.111C85.9512 250.152 89.824 245.628 92.9412 240.538C94.6415 237.898 96.1529 234.693 95.1138 231.677C94.6415 230.358 93.508 229.132 92.0911 228.944C90.013 228.661 88.4071 230.546 87.0847 232.148C85.4789 234.222 83.873 236.39 82.2672 238.464C84.0619 236.202 85.6678 233.845 86.9902 231.3C88.1237 229.321 89.0684 227.153 89.3517 224.891C89.5407 222.628 88.9739 220.178 87.2736 218.669C86.6124 218.01 85.6678 217.538 84.7232 217.633C83.7786 217.727 83.0229 218.387 82.3617 219.046C81.3226 220.366 80.6614 221.969 80.1891 223.571C78.5832 229.038 78.4888 234.882 78.4888 240.538C78.7722 235.448 76.5996 230.169 72.6322 226.87C72.2544 226.587 71.7821 226.21 71.3098 226.21C70.9319 226.21 70.5541 226.493 70.2707 226.776C68.6649 228.19 68.1926 230.452 68.0981 232.62C67.9092 239.218 71.3098 245.345 73.2934 251.66C73.0101 248.738 71.4042 246.005 69.0427 244.308C68.3815 243.837 67.6258 243.46 66.9646 243.837C66.5867 244.025 66.3034 244.402 66.1144 244.779C65.4532 246.193 65.6421 247.795 66.02 249.304C66.7757 252.508 68.0036 255.713 69.515 258.635C70.9319 261.18 72.7267 263.725 75.466 264.668C75.9383 264.856 76.5996 264.856 76.8829 264.385" fill="#BFCBDC"/>
<path d="M50.717 261.557C53.5508 259.484 56.1957 257.221 58.3683 254.394C60.5409 251.566 61.9578 248.267 61.9578 244.779C61.9578 243.177 61.58 241.386 60.352 240.349C58.7462 239.029 56.1013 239.595 54.5899 240.915C52.9841 242.329 52.2284 244.402 51.4727 246.382C55.8179 239.407 59.2185 231.772 61.4855 223.854C62.7135 219.612 63.4692 214.711 60.9188 211.223C59.7852 209.621 57.8016 208.395 55.8179 208.678C52.9841 209.149 51.4727 212.26 50.4336 214.899C49.1112 218.387 47.7887 221.78 46.4663 225.268C47.9777 221.592 49.2057 217.821 50.0558 213.862C50.717 210.752 51.2838 207.547 50.6226 204.436C50.0558 201.326 48.261 198.31 45.4272 196.896C44.2937 196.33 42.8768 196.047 41.6488 196.519C40.4208 196.99 39.5707 198.121 39.0984 199.346C38.1538 201.514 37.9648 203.871 37.9648 206.227C37.9648 214.145 40.1374 221.969 42.31 229.604C40.7042 222.628 35.6978 216.502 29.18 213.674C28.5188 213.391 27.8576 213.108 27.1963 213.391C26.6296 213.58 26.2517 214.051 25.9684 214.522C24.3625 217.067 24.5515 220.272 25.3071 223.194C27.6686 232.054 34.4698 238.935 39.6651 246.57C38.1538 242.8 34.9421 239.689 31.0692 238.37C30.0302 237.993 28.8966 237.804 28.0465 238.558C27.5742 238.935 27.3853 239.501 27.1963 240.161C26.8185 242.234 27.7631 244.402 28.8022 246.193C31.0692 250.246 33.903 254.017 37.1147 257.316C39.9485 260.238 43.4436 262.877 47.4109 263.066C48.0721 263.066 49.0167 262.877 49.1112 262.217" fill="#BFCBDC"/>
<path d="M339.954 258.164C330.319 266.647 321.062 273.151 315.772 272.868C301.036 272.02 288.945 284.934 234.347 271.172C179.749 257.316 116.555 250.623 87.9332 259.295C70.6469 264.574 41.0808 266.836 21.9053 253.64C22.9443 259.484 24.4557 265.233 26.5338 270.889C37.3023 299.638 64.0347 321.789 94.2621 327.067C120.522 331.686 147.254 324.24 173.892 323.203C210.826 321.695 247.76 332.346 284.506 327.916C295.746 326.596 307.082 323.674 316.339 317.17C334.192 304.257 340.615 280.126 339.954 258.164Z" fill="#BFCBDC"/>
<path d="M135.541 154.291C135.541 154.291 124.679 165.791 113.532 180.212C102.386 194.634 93.601 217.633 99.9298 242.8C106.259 267.873 129.874 283.143 138.092 283.803C146.31 284.463 146.31 284.463 146.31 284.463C146.31 284.463 169.831 295.962 194.201 290.495C218.572 285.028 223.862 282.389 223.862 282.389C223.862 282.389 254.278 286.348 261.835 258.541C269.392 230.735 268.92 208.301 258.435 194.068C247.95 179.835 239.354 169.184 239.354 169.184C239.354 169.184 212.055 161.643 209.126 161.643C206.198 161.643 135.541 154.291 135.541 154.291Z" fill="#E69716"/>
<path d="M198.736 248.927C200.153 246.664 199.492 244.402 199.303 241.857C199.114 240.255 199.114 238.652 199.114 237.144C199.114 236.956 199.114 236.767 199.114 236.579C203.365 236.767 207.521 236.673 211.583 235.353C216.4 233.751 220.745 230.169 222.446 225.268C223.957 220.932 223.579 216.124 221.785 211.977C219.801 207.453 216.211 204.154 211.772 201.891C207.71 199.818 203.176 199.158 198.642 199.158C197.792 198.781 196.941 198.592 196.091 198.781C194.297 199.064 193.257 200.195 192.785 201.609C192.407 202.457 192.218 203.305 192.313 204.248C192.313 204.436 192.407 204.719 192.502 204.908C192.596 211.411 191.746 218.198 191.085 224.702C190.896 227.058 190.707 229.321 190.613 231.677C189.762 231.583 188.912 231.677 188.157 231.96C181.733 228.567 176.349 223.477 170.398 219.329C176.255 215.465 179.844 208.395 178.144 200.854C175.404 188.884 162.652 184.171 151.789 188.318C149.333 188.695 148.011 190.863 148.105 193.22C149.144 208.867 149.522 224.513 149.05 240.16C148.955 242.517 150.467 244.685 152.923 244.968C155.095 245.156 157.646 243.46 157.74 241.103C157.929 234.788 157.929 228.567 157.835 222.251C169.264 226.681 177.105 237.144 188.534 241.669C189.196 241.951 189.951 241.951 190.613 241.857C190.707 242.705 190.801 243.648 190.896 244.496C190.424 245.533 190.329 246.664 190.896 247.701C191.746 249.398 192.88 250.152 194.769 250.529C196.186 251 197.981 250.152 198.736 248.927ZM201.098 208.112C201.948 208.207 202.892 208.301 203.743 208.395C205.065 208.678 207.71 209.526 208.749 210.186C209.316 210.469 209.788 210.846 210.355 211.223C210.449 211.317 211.299 211.977 211.394 212.071C212.055 212.731 212.622 213.485 213.189 214.239C213.189 214.239 213.189 214.334 213.283 214.334C213.378 214.522 213.566 214.805 213.661 215.088C213.85 215.465 214.039 215.842 214.133 216.219C214.228 216.501 214.322 216.784 214.417 216.973C214.322 216.596 214.322 216.596 214.417 217.067C214.511 217.538 214.606 218.01 214.7 218.481C214.794 218.858 214.794 219.329 214.794 219.706C214.794 219.801 214.7 220.743 214.7 220.837C214.7 221.12 214.606 221.497 214.511 221.78C214.417 221.874 214.228 222.723 214.133 222.817C214.039 223.005 213.944 223.194 213.85 223.382C213.85 223.477 213.755 223.477 213.661 223.665C213.378 224.042 213.189 224.419 212.811 224.702C212.527 225.079 211.111 226.116 210.733 226.304C207.238 228.19 203.365 228.19 199.492 228.001C199.586 227.247 199.586 226.493 199.681 225.739C200.342 219.895 201.003 214.051 201.098 208.112ZM156.89 195.953C162.085 194.822 167.942 196.613 169.453 202.268C171.248 208.961 165.486 214.522 158.874 213.579C158.402 213.485 158.024 213.579 157.646 213.579C157.551 207.83 157.268 201.891 156.89 195.953Z" fill="#EAEEF3"/>
<path d="M142.721 159.286C142.721 159.286 124.774 159.475 124.491 148.729C124.207 138.078 129.025 137.89 129.402 134.308C129.686 130.726 129.591 124.693 132.992 122.525C136.487 120.358 152.451 112.817 194.297 119.038C236.143 125.259 254.657 133.46 253.902 142.226C253.146 150.992 256.546 149.295 256.263 153.065C255.98 156.836 254.185 158.909 252.012 160.323C249.84 161.737 252.201 165.508 248.234 168.147C244.267 170.786 244.739 168.618 236.237 171.634C227.736 174.651 225.374 173.331 217.723 170.692C209.977 168.053 211.867 166.921 193.825 168.807C175.783 170.692 142.721 159.286 142.721 159.286Z" fill="#BC7C12"/>
<path d="M138.943 128.558C139.699 124.976 157.363 119.603 190.991 125.73C224.619 131.857 248.895 134.968 247.762 141.566C246.628 148.164 228.869 157.213 193.069 149.106C157.174 141 137.337 136.381 138.943 128.558Z" fill="#193D37"/>
<path d="M247.194 203.871C246.439 193.691 238.787 174.273 234.82 170.597C233.592 169.466 230.947 168.712 228.019 168.241C229.719 172.011 234.348 182.097 236.709 189.261C239.732 198.121 243.51 203.965 236.142 205.756C228.775 207.547 222.54 199.629 221.123 189.543C220.084 181.72 219.234 171.54 218.856 167.487C215.267 167.393 212.527 167.393 212.527 167.393C212.527 167.393 210.827 192.748 220.462 205.473C230.191 218.198 247.95 214.051 247.194 203.871Z" fill="#BC7C12"/>
<path d="M123.074 85.2936C123.074 85.2936 139.888 99.4324 145.555 109.424C151.223 119.415 163.314 114.42 163.314 113.948C163.314 113.477 148.2 82.3716 148.2 82.3716C148.2 82.3716 127.608 83.4084 123.074 85.2936Z" fill="#133F7E"/>
<path d="M134.031 75.3961L155.757 111.309C155.757 111.309 170.493 111.026 170.493 110.555C170.493 110.083 156.324 76.0559 156.324 76.0559C156.324 76.0559 139.888 73.3224 134.031 75.3961Z" fill="#BFCBDC"/>
<path d="M144.893 69.4576L168.13 118.849L200.247 118.567L200.719 79.1663C200.719 79.1663 171.436 64.7447 144.893 69.4576Z" fill="#133F7E"/>
<path d="M192.974 149.107C196.091 149.861 199.114 150.426 202.042 150.898C202.326 145.431 202.042 130.726 193.447 108.858C182.3 80.6747 178.994 74.6421 178.994 74.6421L127.135 106.879C127.135 106.879 142.154 127.427 145.555 136.193C154.057 140.246 170.304 143.922 192.974 149.107Z" fill="#5373A1"/>
<path d="M159.535 111.403C149.617 119.509 152.639 131.951 158.023 140.623C164.258 142.414 171.815 144.299 180.788 146.373C186.645 142.037 191.463 135.062 189.668 127.71C186.362 114.231 172.004 101.317 159.535 111.403Z" fill="#133F7E"/>
<path d="M189.195 148.353C198.83 150.521 207.143 151.463 214.227 151.557L246.155 94.0594C246.155 94.0594 246.155 94.0594 238.126 87.7441C230.097 81.4287 197.697 63.6138 197.697 63.6138C197.697 63.6138 194.674 66.9128 188.912 85.8589C184.283 101.129 178.427 133.365 177.199 145.619C180.316 146.373 185.7 147.598 189.195 148.353Z" fill="#5373A1"/>
<path d="M192.974 149.106C199.397 150.614 205.254 151.463 210.544 151.934C210.922 150.426 211.394 148.635 211.961 146.75C219.234 120.263 253.051 118.943 253.051 118.943L235.954 95.7557C235.954 95.7557 216.022 74.0762 197.13 96.0385C183.056 112.44 176.916 134.779 174.743 144.959C180.316 146.279 186.362 147.598 192.974 149.106Z" fill="#BFCBDC"/>
<path d="M218.1 107.821C227.641 112.063 219.045 126.485 212.905 133.931C206.765 141.378 190.235 145.242 190.329 130.255C190.423 115.268 204.876 101.883 218.1 107.821Z" fill="#133F7E"/>
<path d="M239.826 106.879C226.413 104.805 224.902 104.334 224.807 104.146C224.335 105.371 209.41 142.32 208.371 151.652C218.101 152.689 225.941 152.312 231.986 151.086C233.214 146.656 236.331 140.718 244.644 136.948C259.38 130.255 273.549 128.182 273.549 128.182C273.549 128.182 256.074 109.424 239.826 106.879Z" fill="#5373A1"/>
<path d="M244.739 137.041C246.628 136.193 248.423 135.439 250.312 134.685C250.218 130.726 248.423 127.144 246.534 125.919C235.104 119.038 224.052 126.39 223.485 134.685C223.107 140.623 226.602 147.033 233.12 148.164C234.821 144.393 238.221 140.057 244.739 137.041Z" fill="#133F7E"/>
<path d="M305.855 275.791C309.822 272.492 313.695 268.91 316.623 264.668C319.551 260.332 321.441 255.242 321.252 250.152C321.157 247.796 320.496 245.156 318.607 243.743C316.056 241.857 312.278 242.894 310.105 245.062C307.838 247.23 306.799 250.341 305.855 253.357C311.806 242.706 316.245 231.206 318.89 219.235C320.307 212.92 321.157 205.568 317.095 200.572C315.206 198.216 312.183 196.613 309.35 197.273C305.193 198.121 303.21 202.834 301.793 206.887C300.092 212.072 298.392 217.256 296.692 222.534C298.676 216.973 300.092 211.223 301.132 205.473C301.887 200.855 302.359 196.048 301.32 191.523C300.281 186.904 297.353 182.569 293.008 180.778C291.213 180.024 289.135 179.741 287.34 180.495C285.546 181.343 284.412 183.04 283.751 184.831C282.523 188.036 282.428 191.617 282.523 195.011C283.09 206.793 286.962 218.104 290.741 229.321C287.907 219.141 279.972 210.469 270.054 206.793C269.109 206.416 267.976 206.133 267.031 206.51C266.276 206.793 265.709 207.547 265.331 208.207C263.158 212.072 263.725 216.879 265.048 221.026C269.204 234.034 279.878 243.648 288.096 254.582C285.64 249.115 280.634 244.779 274.777 243.177C273.266 242.8 271.471 242.612 270.337 243.648C269.676 244.214 269.393 245.157 269.298 246.005C268.826 249.115 270.432 252.226 272.132 254.865C275.816 260.709 280.256 265.988 285.357 270.701C289.796 274.754 295.086 278.43 301.132 278.43C302.171 278.43 303.493 278.053 303.682 277.016" fill="#3E6295"/>
<path d="M296.786 201.609C294.992 210.092 294.33 218.67 294.236 227.342C294.141 236.014 294.425 244.591 294.614 253.263C294.708 258.164 294.803 263.066 294.614 267.873C294.614 268.816 293.197 268.816 293.197 267.873C293.386 259.201 293.102 250.435 292.913 241.763C292.724 233.092 292.63 224.42 293.386 215.748C293.764 210.846 294.425 206.039 295.464 201.326C295.558 200.384 296.975 200.761 296.786 201.609Z" fill="white"/>
<path d="M292.252 240.443C286.396 235.636 281.389 229.886 277.516 223.383C276.383 221.497 275.438 219.612 274.494 217.727C274.21 217.162 275.06 216.69 275.344 217.256C278.555 224.042 282.901 230.264 288.19 235.542C289.702 237.05 291.308 238.464 292.913 239.784C293.386 240.066 292.724 240.821 292.252 240.443Z" fill="white"/>
<path d="M311.428 221.403C309.256 225.834 307.083 230.169 304.91 234.6C303.116 238.276 301.321 242.046 298.865 245.439C297.542 247.23 296.031 248.833 294.236 250.058C293.764 250.435 293.292 249.587 293.764 249.21C296.976 246.948 299.148 243.554 301.037 240.161C303.116 236.202 305.005 232.243 306.988 228.19C308.216 225.739 309.444 223.383 310.578 220.932C310.861 220.367 311.712 220.838 311.428 221.403Z" fill="white"/>
<path d="M277.044 249.586C278.461 251.849 279.689 254.205 281.295 256.373C282.806 258.447 284.696 260.238 286.49 262.029C286.963 262.406 286.301 263.16 285.829 262.688C283.94 260.897 282.145 259.106 280.634 257.033C279.028 254.865 277.705 252.414 276.289 250.152C275.911 249.492 276.761 249.021 277.044 249.586Z" fill="white"/>
<path d="M312.373 251.189C310.484 253.64 308.406 255.902 306.233 258.164C304.155 260.238 301.982 262.406 299.243 263.631C298.771 263.82 299.148 264.48 299.621 264.291C302.455 263.066 304.627 260.803 306.8 258.73C309.067 256.468 311.145 254.111 313.034 251.66C313.318 251.189 312.656 250.812 312.373 251.189Z" fill="white"/>
<path d="M230.569 239.972C230.569 239.972 249.178 255.619 242.471 272.114C235.67 288.61 208.938 267.873 208.938 267.873L233.12 293.228C233.12 293.228 267.031 298.318 262.78 269.569C258.53 240.821 230.569 239.972 230.569 239.972Z" fill="#5373A1"/>
<path d="M243.132 282.011C246.155 285.782 256.451 283.143 257.49 275.319C258.529 267.496 256.923 260.238 252.389 260.049C247.761 259.861 246.911 263.16 247.288 268.344C247.666 273.434 240.865 279.089 243.132 282.011Z" fill="#133F7E"/>
<path d="M72.2529 241.009C72.2529 241.009 72.2529 249.398 72.5363 251.943C72.8197 254.488 74.7089 255.619 81.1322 257.033C87.65 258.447 99.4576 260.049 112.21 257.881C124.962 255.807 129.874 253.074 130.818 252.603C131.763 252.131 131.669 250.906 131.48 248.455C131.385 246.099 131.007 240.914 130.913 239.595C130.818 238.275 72.2529 241.009 72.2529 241.009Z" fill="url(#paint0_linear)"/>
<path d="M133.37 273.717C132.898 271.172 123.735 267.872 110.605 268.438C97.3809 269.004 76.3162 271.926 74.8048 275.79C73.2934 279.561 134.693 281.163 133.37 273.717Z" fill="url(#paint1_linear)"/>
<path d="M74.6162 276.074C74.6162 276.074 74.6162 284.463 74.8996 287.008C75.183 289.553 77.0722 290.684 83.4955 292.098C90.0133 293.512 101.821 295.114 114.573 292.946C127.325 290.872 132.237 288.139 133.182 287.667C134.126 287.196 134.032 285.971 133.843 283.52C133.749 281.164 133.371 275.979 133.276 274.66C133.182 273.34 74.6162 276.074 74.6162 276.074Z" fill="url(#paint2_linear)"/>
<path d="M130.253 273.717C129.876 271.549 121.563 269.192 109.944 269.758C98.3257 270.324 79.1502 272.02 77.7333 275.508C77.0721 277.204 90.5799 277.676 103.993 277.676C117.501 277.582 130.82 277.016 130.253 273.717Z" fill="#F7961D"/>
<path d="M138.094 256.562C137.622 254.017 128.459 250.718 115.329 251.283C102.105 251.849 81.0398 254.771 79.5284 258.635C78.0171 262.5 139.416 264.102 138.094 256.562Z" fill="url(#paint3_linear)"/>
<path d="M79.3379 258.919C79.3379 258.919 79.3379 267.308 79.6213 269.853C79.9046 272.398 81.7939 273.529 88.2172 274.943C94.735 276.356 106.543 277.959 119.295 275.791C132.047 273.623 136.959 270.984 137.903 270.512C138.848 270.041 138.754 268.816 138.565 266.365C138.47 264.009 138.092 258.824 137.998 257.505C138.092 256.374 79.3379 258.919 79.3379 258.919Z" fill="url(#paint4_linear)"/>
<path d="M134.977 256.656C134.599 254.488 126.287 252.131 114.668 252.697C103.049 253.263 83.8738 254.959 82.4569 258.447C81.7957 260.143 95.3036 260.615 108.717 260.615C122.225 260.52 135.544 259.955 134.977 256.656Z" fill="#F7961D"/>
<path d="M131.008 238.653C130.536 236.108 121.373 232.809 108.243 233.374C95.113 233.94 73.9539 236.862 72.4425 240.726C70.9311 244.497 132.33 246.099 131.008 238.653Z" fill="url(#paint5_linear)"/>
<path d="M127.891 238.653C127.513 236.485 119.201 234.129 107.582 234.695C95.9634 235.166 76.7879 236.957 75.371 240.444C74.7098 242.141 88.2176 242.612 101.631 242.612C115.044 242.612 128.458 241.952 127.891 238.653Z" fill="#F7961D"/>
<path d="M168.226 285.594C169.643 283.897 166.809 275.791 159.063 267.213C151.317 258.636 137.432 246.099 133.937 247.23C130.442 248.361 163.881 290.684 168.226 285.594Z" fill="url(#paint6_linear)"/>
<path d="M133.654 247.324C133.654 247.324 127.986 252.037 126.475 253.64C124.869 255.242 125.152 257.221 127.892 262.311C130.631 267.401 136.204 276.356 144.8 283.802C153.396 291.249 157.93 292.946 158.78 293.417C159.63 293.794 160.386 292.946 161.992 291.532C163.503 290.118 166.809 287.007 167.659 286.253C168.51 285.499 133.654 247.324 133.654 247.324Z" fill="url(#paint7_linear)"/>
<path d="M166.431 283.52C167.754 282.012 164.636 275.131 157.741 267.59C150.845 260.049 138.849 248.079 135.732 249.115C134.22 249.587 141.494 259.013 149.05 268.061C156.702 277.11 164.542 285.782 166.431 283.52Z" fill="#F7961D"/>
<defs>
<linearGradient id="paint0_linear" x1="131.858" y1="245.439" x2="72.3475" y2="246.386" gradientUnits="userSpaceOnUse">
<stop stop-color="#F8E3BF"/>
<stop offset="1" stop-color="#E6BB73"/>
</linearGradient>
<linearGradient id="paint1_linear" x1="90.3598" y1="264.57" x2="135.038" y2="297.36" gradientUnits="userSpaceOnUse">
<stop stop-color="#F8E3BF"/>
<stop offset="1" stop-color="#E69716"/>
</linearGradient>
<linearGradient id="paint2_linear" x1="133.749" y1="282.2" x2="74.2389" y2="284.567" gradientUnits="userSpaceOnUse">
<stop stop-color="#F8E3BF"/>
<stop offset="1" stop-color="#E5BB73"/>
</linearGradient>
<linearGradient id="paint3_linear" x1="95.0857" y1="247.479" x2="139.764" y2="280.27" gradientUnits="userSpaceOnUse">
<stop stop-color="#F8E3BF"/>
<stop offset="1" stop-color="#E69716"/>
</linearGradient>
<linearGradient id="paint4_linear" x1="138.47" y1="266.648" x2="78.9601" y2="266.648" gradientUnits="userSpaceOnUse">
<stop stop-color="#F8E3BF"/>
<stop offset="1" stop-color="#E5BB73"/>
</linearGradient>
<linearGradient id="paint5_linear" x1="87.9977" y1="229.504" x2="132.676" y2="262.295" gradientUnits="userSpaceOnUse">
<stop stop-color="#F8E3BF"/>
<stop offset="1" stop-color="#E69716"/>
</linearGradient>
<linearGradient id="paint6_linear" x1="150.286" y1="251.458" x2="153.304" y2="300.012" gradientUnits="userSpaceOnUse">
<stop stop-color="#F8E3BF"/>
<stop offset="1" stop-color="#E69716"/>
</linearGradient>
<linearGradient id="paint7_linear" x1="164.448" y1="288.798" x2="128.165" y2="249.132" gradientUnits="userSpaceOnUse">
<stop stop-color="#F8E3BF"/>
<stop offset="1" stop-color="#E5BB73"/>
</linearGradient>
</defs>
</svg>
