<svg width="360" height="360" viewBox="0 0 360 360" fill="none" xmlns="http://www.w3.org/2000/svg">
<path d="M105.296 320.221C54.0536 319.373 44.4948 246.779 93.84 232.951C102.267 230.585 111.878 229.413 122.81 229.811C207.77 232.93 262.125 218.579 290.235 238.541C315.956 256.807 331.216 313.197 333.627 322.67C333.805 323.351 333.271 324.01 332.569 324L105.296 320.221Z" fill="#EAEEF3"/>
<path d="M127.548 320.598C134.78 314.725 153.95 299.976 170.719 294.271C191.87 287.07 200.517 271.713 212.057 254.902C217.57 246.873 221.763 236.552 224.634 227.958C197.446 228.774 163.676 231.318 122.81 229.811C111.868 229.413 102.267 230.585 93.8404 232.951C44.4953 246.779 54.0645 319.373 105.296 320.221L127.548 320.598Z" fill="#BFCBDC"/>
<path d="M308.672 234.019H244.423C237.506 234.019 231.846 228.367 231.846 221.458V163.048C231.846 156.139 237.506 150.486 244.423 150.486H308.672C315.59 150.486 321.25 156.139 321.25 163.048V221.458C321.25 228.367 315.59 234.019 308.672 234.019Z" fill="#BFCBDC"/>
<path d="M273.361 198.084C273.172 197.896 273.057 197.644 273.057 197.362C273.057 196.796 273.518 196.336 274.084 196.336H280.299L276.253 192.295C275.96 192.002 275.876 191.563 276.033 191.186C276.191 190.809 276.568 190.558 276.977 190.558H285.665C286.231 190.558 286.693 191.018 286.693 191.583C286.693 192.149 286.231 192.609 285.665 192.609H279.45L283.496 196.65C283.789 196.943 283.873 197.383 283.716 197.759C283.559 198.136 283.181 198.388 282.773 198.388H274.084C273.801 198.377 273.549 198.262 273.361 198.084Z" fill="#133F7E"/>
<path d="M297.981 183.617C297.185 182.821 295.885 182.821 295.088 183.617L290.739 187.961L286.389 183.617L290.739 179.273C291.535 178.477 291.535 177.179 290.739 176.384C289.942 175.588 288.643 175.588 287.846 176.384L283.496 180.728L282.05 179.283C279.66 176.897 275.751 176.897 273.361 179.283L264.672 187.961C262.282 190.348 262.282 194.252 264.672 196.639L269.745 201.705L265.259 206.186L260.312 204.542C259.578 204.291 258.761 204.49 258.216 205.034L256.172 207.075C255.627 207.62 255.428 208.436 255.679 209.169L257.325 214.11L254.128 217.313C253.332 218.108 253.332 219.406 254.128 220.202C254.526 220.6 255.051 220.799 255.575 220.799C256.099 220.799 256.623 220.6 257.021 220.202L261.119 216.109C261.664 215.565 261.863 214.748 261.612 214.015L259.966 209.075L260.228 208.813L265.175 210.456C265.909 210.708 266.726 210.509 267.272 209.964L272.648 204.594L277.721 209.661C280.111 212.047 284.02 212.047 286.41 209.661L295.099 200.983C297.489 198.596 297.489 194.692 295.099 192.305L293.653 190.861L298.002 186.517C298.788 185.711 298.788 184.413 297.981 183.617ZM292.196 198.083L283.507 206.761C282.721 207.546 281.4 207.546 280.614 206.761L267.575 193.739C266.789 192.954 266.789 191.635 267.575 190.85L276.264 182.172C277.05 181.387 278.371 181.387 279.157 182.172L292.196 195.194C292.982 195.969 292.982 197.298 292.196 198.083Z" fill="#133F7E"/>
<path d="M57.2292 278.068C45.92 267.349 35.3446 253.814 27.5152 240.353C23.1655 232.868 19.3085 224.536 20.105 215.921C20.3461 213.314 21.3313 210.373 23.7839 209.452C26.0583 208.593 28.5947 209.891 30.4185 211.503C33.6362 214.361 35.7324 218.245 37.5875 222.118C45.4589 238.479 52.6594 260.514 57.2292 278.068Z" fill="#5373A1"/>
<path d="M30.5229 228.764C34.9355 233.37 38.4047 238.751 41.4128 244.351C42.8278 246.978 44.1484 249.658 45.5214 252.306C46.9468 255.08 48.3618 257.854 49.651 260.691C51.0869 263.832 52.3761 267.056 53.246 270.405C53.3927 270.95 54.2417 270.719 54.095 270.175C52.5228 264.135 49.6719 258.472 46.8315 252.945C43.9702 247.366 41.2346 241.703 37.7549 236.479C35.7844 233.517 33.5939 230.701 31.1308 228.126C30.7535 227.728 30.1246 228.356 30.5229 228.764Z" fill="white"/>
<path d="M54.1999 271.567C44.442 253.081 38.3419 232.679 36.3505 211.869C35.533 203.338 35.6483 193.928 41.0251 187.249C42.9851 184.81 45.6997 182.832 48.8021 182.465C53.7806 181.879 58.3819 185.595 60.7925 189.981C64.1465 196.053 64.4295 203.296 64.419 210.236C64.3771 233.014 61.9664 255.792 57.2289 278.068" fill="#133F7E"/>
<path d="M57.2291 278.067C56.4535 257.613 58.2353 232.062 65.5826 212.958C66.8613 209.64 68.3077 206.279 70.7708 203.715C72.8041 201.6 75.7388 200.072 78.6211 200.648C81.1366 201.15 83.1385 203.181 84.2495 205.494C86.8278 210.885 85.2137 217.271 83.2852 222.934C77.2166 240.718 68.2972 262.868 57.2291 278.067Z" fill="#5373A1"/>
<path d="M56.7262 271.002C55.4475 262.251 54.1898 253.489 53.1731 244.697C52.1669 236.008 51.3599 227.289 51.0559 218.548C50.8777 213.628 50.9197 208.698 51.4856 203.799C51.5485 203.234 50.6681 203.244 50.6052 203.799C49.599 212.529 50.165 221.406 50.8568 230.146C51.5485 238.918 52.5966 247.648 53.7705 256.368C54.4413 261.33 55.154 266.281 55.8772 271.232C55.9506 271.787 56.7996 271.557 56.7262 271.002Z" fill="white"/>
<path d="M75.6551 214.246C72.1649 221.343 68.6328 228.471 66.1173 235.987C63.7905 242.938 62.1974 250.129 60.9396 257.352C60.2584 261.288 59.6819 265.255 59.2102 269.223C59.1474 269.788 60.0278 269.777 60.0907 269.223C60.9501 262.063 62.1135 254.924 63.7276 247.889C65.3731 240.719 67.6056 233.768 70.5613 227.027C72.385 222.861 74.3974 218.778 76.3993 214.696C76.6718 214.183 75.9067 213.733 75.6551 214.246Z" fill="white"/>
<rect x="168.753" y="70.5537" width="57.5931" height="56.0968" fill="#133F7E"/>
<path fill-rule="evenodd" clip-rule="evenodd" d="M232.243 142.562H167.994C161.076 142.562 155.417 136.91 155.417 130.001V71.5906C155.417 64.6819 161.076 59.0293 167.994 59.0293H232.243C239.161 59.0293 244.82 64.6819 244.82 71.5906V130.001C244.82 136.91 239.161 142.562 232.243 142.562ZM196.461 80.2474C200.308 86.9991 206.869 98.8591 206.869 104.763C206.869 110.499 202.205 115.178 196.461 115.178C190.718 115.178 186.054 110.51 186.054 104.763C186.064 98.8591 192.615 86.9991 196.461 80.2474ZM196.461 73.6003C195.874 73.6003 195.298 73.8934 194.963 74.4796C194.592 75.1358 194.166 75.8792 193.699 76.694L193.699 76.6945C189.473 84.0689 181.893 97.2985 181.893 104.773C181.893 112.823 188.412 119.345 196.461 119.345C204.511 119.345 211.03 112.823 211.03 104.773C211.03 97.3317 203.508 84.1861 199.277 76.7929C198.789 75.9393 198.344 75.1623 197.96 74.4796C197.635 73.8934 197.048 73.6003 196.461 73.6003ZM189.051 109.442C190.581 111.546 193.285 112.75 196.461 112.75C197.038 112.75 197.509 112.279 197.509 111.703C197.509 111.127 197.048 110.667 196.472 110.667C193.967 110.667 191.881 109.777 190.738 108.217C189.659 106.731 189.46 104.752 190.183 102.491C190.351 101.947 190.047 101.361 189.502 101.183C188.957 101.015 188.359 101.319 188.192 101.863C187.269 104.742 187.573 107.432 189.051 109.442Z" fill="#BFCBDC"/>
<path d="M95.0554 318.756C85.3603 317.406 60.4362 305.41 50.4268 293.319L117.988 208.457L169.188 250.129L110.326 320.18C110.316 320.19 104.75 320.106 95.0554 318.756Z" fill="url(#paint0_linear)"/>
<path d="M91.4395 227.383L143.436 283.061C146.811 286.683 152.565 286.641 155.898 282.988L273.56 153.805C276.955 150.079 276.358 144.238 272.281 141.275L208.084 94.5784C205.506 92.7047 201.911 93.092 199.804 95.4787L91.3138 218.109C88.9555 220.778 89.0079 224.787 91.4395 227.383Z" fill="#030C1A"/>
<path d="M199.804 95.4782C201.921 93.0915 205.506 92.6938 208.084 94.578L267.973 138.145C270.415 141.296 270.373 145.881 267.533 149L149.882 278.183C147.587 280.706 144.139 281.501 141.11 280.569L91.4395 227.393C89.0079 224.797 88.9555 220.777 91.3138 218.119L199.804 95.4782Z" fill="#07172E"/>
<path d="M259.913 149.67L151.958 270.405L97.833 213.942L197.068 103.727L259.913 149.67Z" fill="#133F7E"/>
<path d="M157.397 147.786L157.681 147.649L157.397 147.796V147.786Z" fill="#07172E"/>
<path d="M216.333 198.419L151.968 270.405L97.8438 213.942L156.58 148.707C155.207 152.842 147.399 177.703 148.216 206.887C149.117 238.876 167.837 249.009 172.794 241.127C177.752 233.245 171.662 217.93 180.687 213.419C189.711 208.918 202.561 205.987 207.979 201.705C209.761 200.292 212.916 199.225 216.333 198.419Z" fill="#07172E"/>
<path d="M142.849 172.688C143.3 172.688 143.729 172.856 144.065 173.17L192.184 218.422C192.53 218.746 192.729 219.186 192.739 219.667C192.75 220.149 192.571 220.599 192.247 220.934L187.394 225.969C187.058 226.314 186.608 226.513 186.115 226.513C185.654 226.513 185.224 226.335 184.889 226.021L136.938 180.413C136.592 180.078 136.393 179.639 136.393 179.157C136.382 178.676 136.571 178.226 136.917 177.88L141.602 173.201C141.927 172.866 142.377 172.688 142.849 172.688ZM142.849 171.704C142.147 171.704 141.434 171.976 140.9 172.51L136.214 177.189C135.124 178.278 135.145 180.057 136.267 181.125L184.218 226.733C184.753 227.236 185.434 227.497 186.115 227.497C186.838 227.497 187.562 227.215 188.107 226.649L192.959 221.614C194.018 220.515 193.976 218.757 192.865 217.7L144.746 172.447C144.201 171.955 143.53 171.704 142.849 171.704Z" fill="white"/>
<path d="M130.22 186.349C130.671 186.349 131.101 186.517 131.436 186.831L179.555 232.083C179.901 232.407 180.1 232.847 180.11 233.329C180.121 233.81 179.943 234.26 179.618 234.595L174.765 239.63C174.43 239.976 173.979 240.175 173.486 240.175C173.025 240.175 172.595 239.997 172.26 239.683L124.309 194.074C123.963 193.739 123.764 193.3 123.764 192.818C123.753 192.337 123.942 191.887 124.288 191.541L128.973 186.862C129.298 186.538 129.748 186.349 130.22 186.349ZM130.22 185.365C129.518 185.365 128.805 185.637 128.271 186.171L123.586 190.85C122.496 191.939 122.516 193.719 123.638 194.786L171.589 240.394C172.124 240.897 172.805 241.158 173.486 241.158C174.209 241.158 174.933 240.876 175.478 240.311L180.33 235.276C181.389 234.176 181.347 232.418 180.236 231.361L132.117 186.108C131.572 185.616 130.901 185.365 130.22 185.365Z" fill="white"/>
<path d="M119.236 199.109C119.76 199.109 120.242 199.308 120.62 199.674L167.785 245.471C168.571 246.235 168.592 247.491 167.827 248.276L161.496 254.777C161.119 255.164 160.616 255.373 160.071 255.373C159.526 255.373 159.023 255.164 158.645 254.777L112.727 207.672C111.973 206.897 111.973 205.683 112.727 204.908L117.811 199.706C118.199 199.318 118.702 199.109 119.236 199.109ZM119.236 198.125C118.461 198.125 117.695 198.429 117.109 199.015L112.025 204.217C110.904 205.369 110.904 207.201 112.025 208.352L157.943 255.457C158.53 256.054 159.295 256.357 160.071 256.357C160.846 256.357 161.611 256.054 162.198 255.457L168.529 248.957C169.671 247.784 169.65 245.9 168.466 244.759L121.301 198.962C120.735 198.408 119.991 198.125 119.236 198.125Z" fill="white"/>
<path d="M218.565 219.731C226.007 215.45 226.908 204.867 226.908 204.867C226.908 204.867 181.577 203.516 175.488 203.736C169.398 203.956 156.538 208.468 164.21 214.549C171.882 220.631 196.01 222.212 203.231 223.332C210.453 224.452 218.565 219.731 218.565 219.731Z" fill="url(#paint1_linear)"/>
<path d="M208.608 225.205C208.608 225.205 166.212 223.405 159.221 227.456C152.23 231.507 150.197 239.619 160.123 241.42C170.048 243.22 194.407 246.371 201.167 242.32C207.927 238.269 211.313 229.037 208.608 225.205Z" fill="url(#paint2_linear)"/>
<path d="M189.816 245.628C189.816 245.628 159.819 246.078 154.18 252.39C148.541 258.703 147.409 263.204 150.794 264.324C154.18 265.444 180.561 266.354 188.233 259.592C195.905 252.841 190.487 245.178 189.816 245.628Z" fill="url(#paint3_linear)"/>
<path d="M205.527 116.32L245.701 146.31C247.556 147.692 250.156 147.472 251.749 145.787L253.856 143.547L206.334 108.071L204.93 109.558C203.064 111.536 203.347 114.697 205.527 116.32Z" fill="#07172E"/>
<path d="M215.913 114.268L247.199 136.92C247.671 137.265 248.331 137.161 248.667 136.69C249.013 136.219 248.908 135.559 248.436 135.224L217.15 112.572C216.678 112.227 216.018 112.331 215.683 112.802C215.337 113.273 215.442 113.933 215.913 114.268Z" fill="#030C1A"/>
<path d="M227.663 203.955C227.663 203.955 239.391 202.155 247.514 194.493C255.637 186.83 237.588 183.229 231.729 181.879C225.87 180.529 203.315 175.567 199.248 179.178C195.182 182.79 204.657 194.493 212.329 198.104C220.001 201.715 227.663 203.955 227.663 203.955Z" fill="url(#paint4_linear)"/>
<path fill-rule="evenodd" clip-rule="evenodd" d="M105.807 263.99C106.095 264.067 106.249 264.104 106.249 264.104C106.249 264.104 113.314 298.679 95.2756 318.693L90.1608 317.563C60.6669 312.517 39.6313 288.358 35.5332 259.812L56.6317 244.288C56.6317 244.288 83.694 168.156 92.2675 155.093C100.841 142.029 119.78 146.53 137.829 153.292C148.667 157.355 155.762 160.277 159.309 163.917C161.673 166.337 162.467 169.075 161.746 172.678C159.933 181.659 148.655 186.611 134.223 183.91C119.79 181.209 112.569 179.859 112.569 179.859C112.569 179.859 127.903 192.472 122.945 214.099C118.57 233.185 108.186 258.342 105.807 263.99Z" fill="url(#paint5_linear)"/>
<path d="M93.0856 126.651C108.576 126.651 121.133 114.109 121.133 98.6387C121.133 83.1683 108.576 70.627 93.0856 70.627C77.5954 70.627 65.0381 83.1683 65.0381 98.6387C65.0381 114.109 77.5954 126.651 93.0856 126.651Z" fill="#E69716"/>
<path d="M93.0857 123.688C106.938 123.688 118.167 112.473 118.167 98.6383C118.167 84.8039 106.938 73.5889 93.0857 73.5889C79.2337 73.5889 68.0044 84.8039 68.0044 98.6383C68.0044 112.473 79.2337 123.688 93.0857 123.688Z" fill="#E69716"/>
<path d="M68.4131 177.66C75.1799 177.66 80.6655 172.182 80.6655 165.423C80.6655 158.665 75.1799 153.187 68.4131 153.187C61.6462 153.187 56.1606 158.665 56.1606 165.423C56.1606 172.182 61.6462 177.66 68.4131 177.66Z" fill="#E69716"/>
<path d="M68.4135 176.373C74.4683 176.373 79.3767 171.471 79.3767 165.424C79.3767 159.377 74.4683 154.475 68.4135 154.475C62.3586 154.475 57.4502 159.377 57.4502 165.424C57.4502 171.471 62.3586 176.373 68.4135 176.373Z" fill="#E69716"/>
<rect x="267.812" y="53.5732" width="57.5931" height="56.0968" fill="#133F7E"/>
<path fill-rule="evenodd" clip-rule="evenodd" d="M327.422 119.522H263.173C256.256 119.522 250.596 113.87 250.596 106.961V48.5613C250.596 41.6526 256.256 36 263.173 36H327.422C334.34 36 340 41.6526 340 48.5613V106.972C340 113.87 334.34 119.522 327.422 119.522ZM296.168 106.657C299.784 106.657 302.75 103.695 302.75 100.084V95.7186H315.915C318.325 95.7186 320.306 93.7507 320.306 91.3326V73.7991C320.296 71.381 318.325 69.4131 315.915 69.4131H289.576C287.165 69.4131 285.184 71.381 285.184 73.7991V91.3326C285.184 93.7402 287.155 95.7186 289.576 95.7186H298.359V97.896H276.411V67.2149H298.359V69.4027H302.75V65.0166C302.75 61.4053 299.784 58.4429 296.168 58.4429H278.612C274.996 58.4429 272.03 61.4053 272.03 65.0166V100.084C272.03 103.695 274.996 106.657 278.612 106.657H296.168ZM276.401 65.0271C276.411 63.8338 277.418 62.8394 278.602 62.8394H296.158C297.342 62.8394 298.348 63.8443 298.348 65.0271H276.401ZM298.359 100.094C298.359 101.288 297.353 102.282 296.158 102.282H278.602C277.418 102.282 276.411 101.277 276.411 100.094H298.359ZM315.915 71.6008C317.12 71.6008 318.105 72.5848 318.105 73.7886V91.3222C318.105 92.5259 317.12 93.5099 315.915 93.5099H289.576C288.37 93.5099 287.385 92.5259 287.385 91.3222V73.7991C287.385 72.5953 288.37 71.6113 289.576 71.6113H315.915V71.6008ZM290.665 91.3337H295.057C295.665 91.3337 296.158 90.831 296.158 90.2341C296.158 89.6267 295.665 89.1344 295.057 89.1344H290.665C290.058 89.1344 289.565 89.6267 289.565 90.2341C289.565 90.8415 290.058 91.3337 290.665 91.3337ZM303.84 91.3337H299.448C298.84 91.3337 298.348 90.8415 298.348 90.2341C298.348 89.6267 298.84 89.1344 299.448 89.1344H303.84C304.448 89.1344 304.94 89.6267 304.94 90.2341C304.94 90.831 304.448 91.3337 303.84 91.3337ZM308.232 91.3337H314.815C315.412 91.3337 315.915 90.831 315.915 90.2341C315.915 89.6267 315.422 89.1344 314.815 89.1344H308.232C307.624 89.1344 307.132 89.6267 307.132 90.2341C307.132 90.8415 307.624 91.3337 308.232 91.3337ZM299.962 84.0471L298.411 81.1266H298.202H296.168V84.0471H293.967V73.8305H298.212C299.491 73.8305 300.476 74.1446 301.168 74.7621C301.87 75.3797 302.216 76.2486 302.216 77.3791C302.216 78.1642 302.059 78.8446 301.744 79.3994C301.43 79.9542 300.979 80.3833 300.382 80.6764L302.457 84.0471H299.962ZM296.168 79.2005H298.202C298.82 79.2005 299.292 79.0539 299.617 78.7504C299.942 78.4573 300.109 78.0176 300.109 77.4419C300.109 76.8766 299.942 76.4475 299.617 76.1648C299.292 75.8822 298.82 75.7357 298.202 75.7357H296.168V79.2005ZM311.072 78.049C310.778 77.4314 310.37 76.9604 309.835 76.6254C309.301 76.2905 308.693 76.123 307.991 76.123C307.487 76.123 307.037 76.2277 306.628 76.437C306.23 76.6464 305.894 76.9499 305.622 77.3477V76.1962H303.473V86.8734H305.622V82.9061C305.905 83.3039 306.24 83.6074 306.649 83.8168C307.047 84.0262 307.508 84.1308 308.032 84.1308C308.735 84.1308 309.343 83.9738 309.867 83.6388C310.391 83.3143 310.789 82.8433 311.082 82.2466C311.365 81.6395 311.512 80.9486 311.512 80.1635C311.512 79.368 311.365 78.6666 311.072 78.049ZM309.343 80.0903C309.343 80.7288 309.175 81.2522 308.829 81.6604C308.483 82.0582 308.043 82.2676 307.487 82.2676C306.942 82.2676 306.492 82.0687 306.146 81.6709C305.8 81.2627 305.622 80.7393 305.622 80.0903C305.622 79.4622 305.8 78.9493 306.146 78.541C306.492 78.1328 306.942 77.9339 307.487 77.9339C308.043 77.9339 308.483 78.1328 308.829 78.541C309.175 78.9388 309.343 79.4622 309.343 80.0903Z" fill="#BFCBDC"/>
<path d="M294.281 262.742C293.746 259.037 292.29 254.211 287.856 253.719C284.03 253.301 281.421 256.86 280.771 260.209C279.827 265.066 281.148 270.269 282.112 275.021C283.297 280.841 284.114 286.431 282.521 292.262C280.593 299.348 276.306 307.377 277.469 314.778C275.698 308.665 276.631 301.609 276.526 295.36C276.453 290.838 276.033 286.305 275.153 281.857C274.503 278.58 273.675 274.906 271.254 272.425C266.684 267.736 259.41 271.253 259.169 277.46C259.012 281.344 261.213 284.704 263.278 287.802C265.846 291.654 268.078 295.632 269.441 300.081C270.447 303.347 271.097 306.707 271.925 310.015C270.866 307.869 269.724 305.713 268.078 304.006C265.269 301.096 259.127 299.128 257.943 304.467C257.461 306.655 257.471 309.062 258.949 310.884C260.595 312.904 263.33 313.448 265.51 314.694C270.73 317.677 274.304 323.477 280.907 323.414C281.138 323.414 281.305 323.33 281.421 323.194C281.777 322.964 281.976 322.451 281.588 322.053C281.473 321.938 281.588 322.053 281.746 321.592C281.746 321.582 281.746 321.603 281.746 321.592C282.081 321.362 281.798 320.912 281.463 320.493C281.358 320.368 281.557 320.629 281.463 320.493C281.358 315.448 282.49 310.381 285.152 305.964C287.846 301.505 290.34 297.129 291.986 292.146C295.109 282.736 295.696 272.519 294.281 262.742Z" fill="#BFCBDC"/>
<path d="M67.9932 75.9767H62.3334V70.3241C62.3334 68.9109 61.1699 67.749 59.755 67.749C58.34 67.749 57.1766 68.9109 57.1766 70.3241V75.9767H51.5168C50.1019 75.9767 48.9385 77.1386 48.9385 78.5518C48.9385 79.9649 50.1019 81.1269 51.5168 81.1269H57.1766V86.7794C57.1766 88.1926 58.34 89.3545 59.755 89.3545C61.1699 89.3545 62.3334 88.1926 62.3334 86.7794V81.1269H67.9932C69.4081 81.1269 70.5715 79.9649 70.5715 78.5518C70.561 77.1386 69.4081 75.9767 67.9932 75.9767Z" fill="#E69716"/>
<path d="M89.207 147.963H85.3395V144.1C85.3395 143.137 84.5534 142.342 83.5786 142.342C82.6144 142.342 81.8178 143.127 81.8178 144.1V147.963H77.9503C76.986 147.963 76.1895 148.748 76.1895 149.722C76.1895 150.685 76.9755 151.48 77.9503 151.48H81.8178V155.343C81.8178 156.306 82.6039 157.101 83.5786 157.101C84.5429 157.101 85.3395 156.316 85.3395 155.343V151.48H89.207C90.1713 151.48 90.9678 150.695 90.9678 149.722C90.9678 148.748 90.1713 147.963 89.207 147.963Z" fill="#E69716"/>
<defs>
<linearGradient id="paint0_linear" x1="247.075" y1="315.243" x2="109.821" y2="288.077" gradientUnits="userSpaceOnUse">
<stop stop-color="#F8E3BF"/>
<stop offset="1" stop-color="#E69716"/>
</linearGradient>
<linearGradient id="paint1_linear" x1="189.016" y1="237.367" x2="190.937" y2="191.236" gradientUnits="userSpaceOnUse">
<stop stop-color="#E69716"/>
<stop offset="1" stop-color="#F8E3BF"/>
</linearGradient>
<linearGradient id="paint2_linear" x1="176.804" y1="257.945" x2="178.958" y2="212.546" gradientUnits="userSpaceOnUse">
<stop stop-color="#E69716"/>
<stop offset="1" stop-color="#F8E3BF"/>
</linearGradient>
<linearGradient id="paint3_linear" x1="167.022" y1="278.759" x2="169.809" y2="233.414" gradientUnits="userSpaceOnUse">
<stop stop-color="#E69716"/>
<stop offset="1" stop-color="#F8E3BF"/>
</linearGradient>
<linearGradient id="paint4_linear" x1="219.703" y1="222.216" x2="223.916" y2="161.641" gradientUnits="userSpaceOnUse">
<stop stop-color="#E69716"/>
<stop offset="1" stop-color="#F8E3BF"/>
</linearGradient>
<linearGradient id="paint5_linear" x1="71.207" y1="224.535" x2="118.475" y2="262.88" gradientUnits="userSpaceOnUse">
<stop stop-color="#F6D9AA"/>
<stop offset="1" stop-color="#E69716"/>
</linearGradient>
</defs>
</svg>
