<svg width="360" height="360" viewBox="0 0 360 360" fill="none" xmlns="http://www.w3.org/2000/svg">
<path d="M16.8971 263.076C16.8971 210.426 29.3556 152.132 64.4486 152.132C99.5417 152.132 82.5073 30 186.517 30C290.527 30 283.747 155.239 308.363 155.239C332.979 155.239 343.991 200.239 343.991 235.053C343.991 269.867 348.244 331 175.873 331C3.50338 331 16.8971 263.076 16.8971 263.076Z" fill="#EAEEF3"/>
<path d="M175.907 331C255.489 331 297.396 317.963 319.53 300.506C299.868 293.759 269.952 289.195 225.763 288.549C112.935 286.89 58.9595 293.125 33.5415 298.569C52.5243 315.057 92.4048 331 175.907 331Z" fill="#BFCBDC"/>
<path d="M89.7882 216.094H59.85C59.1613 216.094 58.603 216.652 58.603 217.341V227.294C58.603 227.983 59.1613 228.541 59.85 228.541H89.7882C90.4769 228.541 91.0352 227.983 91.0352 227.294V217.341C91.0352 216.652 90.4769 216.094 89.7882 216.094Z" fill="#BFCBDC"/>
<path d="M132.697 204.715H130.036V261.294H132.697V204.715Z" fill="#BFCBDC"/>
<path d="M143.541 188.305H53.7935V192.981H143.541V188.305Z" fill="#BFCBDC"/>
<path d="M118.102 209.891C118.635 210.703 119.356 211.375 120.202 211.851C121.048 212.328 121.996 212.595 122.967 212.63C123.877 212.652 124.774 212.421 125.561 211.963C126.347 211.505 126.991 210.838 127.42 210.036C127.42 210.036 128.946 212.33 131.072 212.474C133.199 212.619 134.735 209.736 134.735 209.736C134.735 209.736 136.249 212.63 138.988 212.474C141.727 212.318 142.952 209.279 142.952 209.279C143.225 210.101 143.744 210.82 144.439 211.338C145.134 211.855 145.971 212.147 146.837 212.174C147.612 212.238 148.385 212.041 149.033 211.612C149.681 211.184 150.167 210.551 150.411 209.814C150.411 209.814 151.402 212.174 155.744 212.04C160.086 211.907 159.474 209.68 159.474 209.68L143.119 191.41H54.6068L34.9561 209.992C35.486 210.814 36.2055 211.496 37.0541 211.983C37.9026 212.469 38.8554 212.744 39.8326 212.786C40.7405 212.806 41.6365 212.576 42.4221 212.12C43.2077 211.664 43.8526 211.001 44.286 210.203C44.286 210.203 45.8002 212.485 47.9378 212.63C50.0755 212.775 51.5896 209.891 51.5896 209.891C51.5896 209.891 53.0815 212.786 55.8649 212.575C58.6483 212.363 59.8285 209.379 59.8285 209.379C60.1011 210.2 60.6186 210.917 61.3113 211.435C62.004 211.952 62.8387 212.245 63.703 212.274C64.4782 212.337 65.2523 212.139 65.902 211.711C66.5517 211.284 67.0396 210.651 67.288 209.914C67.288 209.914 68.2789 212.274 72.6098 212.14C76.9408 212.007 76.3396 209.78 76.3396 209.78L76.5177 209.914C77.054 210.725 77.7762 211.397 78.6243 211.874C79.4725 212.35 80.4221 212.617 81.3942 212.653C82.3033 212.672 83.2001 212.439 83.9858 211.982C84.7715 211.524 85.4157 210.859 85.8477 210.058C85.8477 210.058 87.3618 212.352 89.4995 212.497C91.6371 212.641 93.1513 209.758 93.1513 209.758C93.1513 209.758 94.6766 212.653 97.4155 212.497C100.154 212.341 101.379 209.301 101.379 209.301C101.652 210.124 102.171 210.842 102.866 211.36C103.561 211.878 104.398 212.17 105.265 212.196C106.038 212.259 106.811 212.06 107.459 211.632C108.106 211.204 108.592 210.572 108.839 209.836C108.839 209.836 109.829 212.196 114.172 212.062C118.514 211.929 117.901 209.702 117.901 209.702" fill="#BFCBDC"/>
<path d="M46.2001 258.578V249.815H151.769C151.769 249.815 155.565 259.602 148.996 259.602C142.428 259.602 45.5432 257.921 46.2001 258.578Z" fill="#BFCBDC"/>
<path d="M146.369 256.239H48.8281V299.459H146.369V256.239Z" fill="#BFCBDC"/>
<path d="M55.7419 210.493H53.0142V254.882H55.7419V210.493Z" fill="#BFCBDC"/>
<path d="M64.5594 219.01H66.4855L68.3782 225.69H66.9977L66.5969 224.265H64.5037L64.1141 225.69H62.689L64.5594 219.01ZM66.3408 223.196L65.528 220.19L64.7153 223.196H66.3408Z" fill="white"/>
<path d="M69.6706 224.945C69.1168 224.288 68.8377 223.442 68.8913 222.585V222.117C68.8913 219.99 69.9156 218.921 71.953 218.921C72.5738 218.912 73.1892 219.037 73.7566 219.289L73.6008 220.157C73.1318 220.036 72.649 219.976 72.1645 219.979C71.9144 219.954 71.6619 219.981 71.4225 220.058C71.1831 220.134 70.962 220.259 70.7728 220.425C70.4703 220.776 70.3148 221.231 70.3386 221.694V222.941C70.303 223.4 70.4378 223.856 70.7172 224.221C70.8735 224.382 71.0633 224.506 71.273 224.585C71.4828 224.664 71.7073 224.696 71.9307 224.678C72.2069 224.684 72.4829 224.661 72.7546 224.611V222.807H71.452V221.816H74.035V225.402C73.3529 225.661 72.6269 225.786 71.8973 225.769C71.4893 225.793 71.0807 225.733 70.6974 225.591C70.3141 225.449 69.9645 225.229 69.6706 224.945Z" fill="white"/>
<path d="M75.2256 219.01H79.512V220.068H76.6061V221.816H79.1446V222.862H76.6061V224.621H79.512V225.735H75.2256V219.01Z" fill="white"/>
<path d="M85.8582 219.01V225.69H84.5221L82.0282 221.437V225.69H80.7256V219.01H82.0505L84.5333 223.263V219.01H85.8582Z" fill="white"/>
<path d="M61.3979 208.912H60.8301V216.728H61.3979V208.912Z" fill="#BFCBDC"/>
<path d="M88.2973 208.912H87.7295V216.728H88.2973V208.912Z" fill="#BFCBDC"/>
<path d="M119.325 236.489C118.346 235.165 117.7 233.506 115.495 232.793C113.95 232.326 112.361 232.02 110.752 231.88C110.435 231.497 110.254 231.019 110.24 230.522C110.24 230.188 110.352 229.665 110.452 229.141C112.834 228.384 113.881 225.723 114.215 223.797C114.899 221.706 115.026 219.473 114.582 217.318C114.28 216.885 113.879 216.53 113.412 216.283C112.946 216.035 112.427 215.901 111.899 215.893C110.663 215.826 107.646 215.893 107.223 214.779C106.8 213.666 106.644 213.833 106.644 213.833C106.644 213.833 106.31 215.036 105.664 215.358C105.019 215.681 100.443 215.57 102.324 222.884C102.558 223.797 102.848 224.9 102.848 224.9C102.844 224.844 102.844 224.788 102.848 224.733C103.024 225.635 103.422 226.479 104.005 227.19C104.588 227.901 105.338 228.457 106.188 228.807C106.252 229.109 106.296 229.413 106.321 229.72C106.388 230.405 106.265 231.094 105.965 231.713C105.108 231.713 98.9508 232.069 98.3719 234.274C98.0935 235.387 96.4457 239.64 95.8223 241.232L96.6796 241.989L96.8911 249.95L108.025 249.827H119.882L120.183 241.332C120.183 241.332 120.784 240.753 121.073 240.453C120.629 239.075 120.043 237.747 119.325 236.489Z" fill="#BFCBDC"/>
<path d="M193.62 54.3485C258.262 54.3485 276.109 53.7362 277.345 85.1321C278.581 116.528 270.565 241.488 270.565 264.879C270.565 288.27 273.036 317.206 237.331 320.29C179.28 325.289 132.063 325.856 126.518 284.585C120.974 243.314 125.283 131.914 125.906 102.979C126.53 74.0433 128.979 54.3485 193.62 54.3485Z" fill="#0C2850"/>
<path d="M144.777 95.2856C145.189 87.4923 144.365 77.2274 158.327 76.8155C172.288 76.4036 176.798 76.4147 180.483 76.4147C184.168 76.4147 181.719 87.0804 193.208 87.9043C204.698 88.7281 216.589 89.5409 221.933 89.1289C227.277 88.717 226.453 75.5908 232.198 75.5908C237.943 75.5908 253.129 76.4147 258.462 76.8155C263.795 77.2163 268.316 84.208 266.668 131.814C265.02 179.42 257.639 274.632 258.05 290.642C258.462 306.651 241.228 313.621 203.874 312.797C166.521 311.973 145.189 305.816 141.526 277.916C137.863 250.016 144.777 95.2856 144.777 95.2856Z" fill="white"/>
<path d="M213.336 201.323C219.388 194.438 223.894 193.055 236.267 191.672C223.076 162.897 220.087 132.264 219.195 103.132L178.21 112.054C177.168 112.145 176.197 112.623 175.489 113.393C174.871 114.727 174.724 116.232 175.072 117.661C176.857 132.903 178.716 148.413 184.352 163.552C189.988 178.69 200.086 193.665 213.336 201.309" fill="#133F7E"/>
<path d="M247.777 145.558C244.68 148.047 243.91 150.504 243.316 153.96C243.003 155.729 243.107 157.633 242.646 159.313C242.475 159.964 242.188 160.578 241.799 161.127C241.092 161.958 240.253 162.667 239.315 163.224C234.098 166.852 225.545 171.295 222.017 176.58C221.562 176.58 221.842 176.608 219.73 176.429C227.344 163.7 230.988 142.197 228.445 126.226C250.191 119.981 250.875 143.068 247.777 145.558Z" fill="#133F7E"/>
<path d="M223.076 114.658C225.053 119.431 226.451 124.423 227.24 129.528C245.947 123.623 250.404 131.791 247.992 145.431C248.263 144.374 251.495 143.328 255.213 144.072C258.931 144.816 269.118 158.634 247.063 162.586C246.369 162.75 245.646 162.75 244.952 162.586C244.315 162.288 243.768 161.827 243.365 161.25C242.963 160.673 242.721 160.001 242.661 159.3C242.49 159.95 242.203 160.565 241.814 161.114C241.107 161.945 240.268 162.653 239.33 163.211C234.113 166.839 225.125 171.279 221.596 176.564C228.109 177.146 239.106 176.462 245.427 174.334C257.644 167.794 266.943 156.887 271.467 143.79C275.898 130.778 276.984 108.709 271.214 96.2031C256.506 105.155 238.78 107.579 223.076 114.658Z" fill="#5373A1"/>
<path d="M251.153 117.095C253.082 116.995 254.665 118.994 255.168 120.798C255.619 121.976 255.767 123.248 255.598 124.498C255.429 125.748 254.949 126.935 254.201 127.951C253.41 128.931 252.302 129.606 251.068 129.861C249.834 130.116 248.55 129.935 247.435 129.349C246.675 128.842 246.023 128.19 245.517 127.431C245.034 126.789 244.675 126.063 244.461 125.289C244.175 123.304 243.994 121.194 245.546 119.534C247.098 117.874 248.778 117.219 251.153 117.095Z" fill="white"/>
<path d="M212.577 184.535C212.429 185.472 211.284 185.814 210.347 185.948C207.216 186.379 204.063 186.632 200.904 186.707C199.818 186.707 198.48 186.573 198.078 185.561C197.975 185.191 198.02 184.795 198.203 184.456C198.386 184.118 198.693 183.864 199.06 183.747C201.826 183.42 206.361 182.542 209.142 182.528C210.081 182.425 211.029 182.622 211.849 183.093C212.096 183.237 212.297 183.45 212.426 183.706C212.555 183.962 212.608 184.25 212.577 184.535Z" fill="#133F7E"/>
<path d="M226.111 176.713C232.63 176.762 239.128 175.967 245.443 174.348C245.387 174.38 245.332 174.414 245.28 174.452C239.762 178.111 228.802 182.111 222.869 185.04C212.982 189.846 202.197 192.526 191.211 192.905C180.225 193.284 169.281 191.354 159.087 187.241L158.982 187.018L195.67 170.779C203.406 173.815 211.54 175.718 219.82 176.43C221.872 176.609 223.999 176.713 226.111 176.713ZM209.143 182.527C206.362 182.527 201.826 183.419 199.06 183.747C198.694 183.863 198.387 184.118 198.204 184.456C198.021 184.794 197.976 185.19 198.079 185.561C198.48 186.572 199.819 186.721 200.904 186.706C204.064 186.632 207.216 186.379 210.347 185.947C211.284 185.814 212.429 185.472 212.578 184.535C212.618 184.243 212.57 183.945 212.44 183.68C212.31 183.416 212.104 183.195 211.849 183.048C211.025 182.593 210.077 182.411 209.143 182.527Z" fill="#0C2850"/>
<path d="M226.111 176.713C232.63 176.762 239.128 175.967 245.443 174.348C245.387 174.38 245.332 174.414 245.28 174.452C239.762 178.111 228.802 182.111 222.869 185.04C212.982 189.846 202.197 192.526 191.211 192.905C180.225 193.284 169.281 191.354 159.087 187.241L158.982 187.018L195.67 170.779C203.406 173.815 211.54 175.718 219.82 176.43C221.872 176.609 223.999 176.713 226.111 176.713ZM209.143 182.527C206.362 182.527 201.826 183.419 199.06 183.747C198.694 183.863 198.387 184.118 198.204 184.456C198.021 184.794 197.976 185.19 198.079 185.561C198.48 186.572 199.819 186.721 200.904 186.706C204.064 186.632 207.216 186.379 210.347 185.947C211.284 185.814 212.429 185.472 212.578 184.535C212.618 184.243 212.57 183.945 212.44 183.68C212.31 183.416 212.104 183.195 211.849 183.048C211.025 182.593 210.077 182.411 209.143 182.527Z" fill="#0C2850"/>
<path d="M226.111 176.713C232.63 176.762 239.128 175.967 245.443 174.348C245.387 174.38 245.332 174.414 245.28 174.452C239.762 178.111 228.802 182.111 222.869 185.04C212.982 189.846 202.197 192.526 191.211 192.905C180.225 193.284 169.281 191.354 159.087 187.241L158.982 187.018L195.67 170.779C203.406 173.815 211.54 175.718 219.82 176.43C221.872 176.609 223.999 176.713 226.111 176.713ZM209.143 182.527C206.362 182.527 201.826 183.419 199.06 183.747C198.694 183.863 198.387 184.118 198.204 184.456C198.021 184.794 197.976 185.19 198.079 185.561C198.48 186.572 199.819 186.721 200.904 186.706C204.064 186.632 207.216 186.379 210.347 185.947C211.284 185.814 212.429 185.472 212.578 184.535C212.618 184.243 212.57 183.945 212.44 183.68C212.31 183.416 212.104 183.195 211.849 183.048C211.025 182.593 210.077 182.411 209.143 182.527Z" fill="#0C2850"/>
<path d="M186.583 183.33C186.669 184.059 186.596 184.797 186.37 185.495C186.145 186.194 185.771 186.835 185.275 187.375C184.772 187.909 184.159 188.326 183.478 188.598C182.797 188.871 182.066 188.991 181.334 188.952C180.471 188.867 179.628 188.647 178.835 188.297C177.827 187.929 176.92 187.327 176.188 186.542C175.444 185.602 175.069 184.423 175.132 183.226C175.171 182.232 175.463 181.265 175.981 180.416C176.499 179.567 177.226 178.865 178.092 178.376C178.958 177.887 179.934 177.628 180.928 177.623C181.923 177.618 182.902 177.868 183.773 178.348L184.575 179.017C185.352 179.516 185.051 180.02 185.562 180.788C186.074 181.556 186.422 182.421 186.583 183.33Z" fill="white"/>
<path d="M152.231 176.891C152.231 176.891 152.231 176.757 152.157 176.683H152.276L154.64 175.374C154.684 175.353 154.733 175.342 154.781 175.342C154.83 175.342 154.879 175.353 154.923 175.374C154.997 175.374 155.042 175.478 155.071 175.552C155.756 176.921 156.425 178.289 157.109 179.672C157.293 179.947 157.367 180.281 157.317 180.609C157.219 180.849 157.06 181.059 156.856 181.219L154.61 183.271L154.164 183.405C153.48 181.204 152.841 179.018 152.231 176.891Z" fill="#133F7E"/>
<path d="M193.393 152.786L192.65 153.024C191.068 154.356 189.382 155.559 187.608 156.623C187.536 156.704 187.441 156.762 187.336 156.79C187.231 156.819 187.12 156.816 187.017 156.784C186.913 156.751 186.821 156.688 186.752 156.604C186.683 156.521 186.639 156.419 186.627 156.311L184.783 151.849C186.885 150.372 188.952 148.884 190.984 147.387L191.713 147.283C192.248 149.127 192.798 150.957 193.393 152.786Z" fill="#133F7E"/>
<path d="M183.088 158.406C183.246 158.534 183.365 158.704 183.432 158.896C183.5 159.088 183.512 159.294 183.469 159.493C183.426 159.692 183.329 159.875 183.188 160.021C183.047 160.168 182.869 160.273 182.672 160.324L179.698 161.812C179.648 161.833 179.595 161.845 179.542 161.845C179.488 161.845 179.435 161.833 179.385 161.812C179.299 161.757 179.235 161.672 179.207 161.574C178.553 160.087 177.898 158.718 177.259 157.291L180.575 155.045L181.601 155.967C182.386 156.769 182.52 157.439 183.088 158.406Z" fill="#133F7E"/>
<path d="M157.539 117.884C157.446 118.614 157.153 119.304 156.692 119.877C155.981 120.768 155.075 121.483 154.043 121.968C153.012 122.453 151.883 122.694 150.743 122.673C148.426 122.587 146.215 121.674 144.512 120.1C144.104 119.747 143.761 119.324 143.501 118.851C143.307 118.423 143.206 117.959 143.206 117.49C143.206 117.021 143.307 116.557 143.501 116.129C143.932 115.288 144.565 114.567 145.345 114.032C146.664 113.086 148.208 112.501 149.823 112.337C151.438 112.172 153.068 112.434 154.55 113.095L155.026 113.765C156.32 114.865 157.658 116.233 157.539 117.884Z" fill="white"/>
<path d="M162.923 145.409C163.327 147.784 163.352 150.209 162.997 152.592C162.893 153.202 162.744 153.796 162.581 154.391C161.487 154.776 160.288 154.739 159.22 154.287C157.614 153.425 157.197 151.313 157.183 149.499C157.408 145.547 158.245 141.654 159.666 137.959C159.982 138.248 160.28 138.556 160.558 138.881C161.925 140.802 162.743 143.059 162.923 145.409Z" fill="#133F7E"/>
<path d="M174.626 166.064C174.603 166.268 174.508 166.458 174.359 166.599C171.021 170.319 167.391 173.765 163.503 176.905C162.64 175.21 161.51 172.25 160.767 170.51C164.554 167.596 168.465 164.86 172.5 162.302L174.478 165.648C174.568 165.768 174.62 165.913 174.626 166.064Z" fill="#133F7E"/>
<path fill-rule="evenodd" clip-rule="evenodd" d="M151.147 174.512C151.13 174.53 151.118 174.545 151.114 174.556C145.909 161.172 136.243 140.353 130.354 133.84C124.464 127.326 117.841 123.844 110.486 120.679C125.593 109.627 141.4 99.5631 157.806 90.5508L158.401 90.6698C162.862 92.1568 167.323 93.8224 171.056 96.7816C174.489 99.7849 177.242 103.486 179.131 107.637C183.325 115.98 185.838 124.977 188.202 134.048C188.203 134.054 188.203 134.061 188.204 134.067C188.418 134.895 188.632 135.723 188.846 136.551C189.771 140.142 190.698 143.735 191.712 147.298L190.984 147.387C188.951 148.884 186.884 150.371 184.783 151.849L186.627 156.31C186.639 156.418 186.683 156.52 186.752 156.604C186.821 156.688 186.913 156.75 187.016 156.783C187.12 156.816 187.231 156.818 187.336 156.79C187.441 156.761 187.535 156.703 187.608 156.622C189.382 155.559 191.067 154.355 192.649 153.023L193.393 152.785C194.588 156.541 196.008 160.22 197.646 163.805C199.551 168.33 202.233 172.488 205.572 176.088C208.973 179.665 213.487 181.982 218.376 182.661C193.393 195.375 176.187 227.347 176.187 227.347C176.187 227.347 159.293 200.833 154.103 183.419L154.55 183.285L156.795 181.233C156.999 181.074 157.158 180.863 157.256 180.623C157.303 180.296 157.229 179.963 157.048 179.687C156.818 179.221 156.589 178.758 156.362 178.296C155.912 177.383 155.464 176.475 155.011 175.567C154.981 175.493 154.936 175.389 154.862 175.389C154.818 175.368 154.769 175.357 154.721 175.357C154.672 175.357 154.623 175.368 154.579 175.389L152.215 176.698H152.096C151.997 176.348 151.797 175.975 151.597 175.602C151.407 175.246 151.216 174.891 151.114 174.556C151.125 174.541 151.136 174.526 151.147 174.512ZM157.612 117.883C157.519 118.613 157.226 119.303 156.765 119.876H156.69C155.987 120.757 155.093 121.466 154.075 121.95C153.058 122.435 151.943 122.681 150.816 122.672C148.499 122.586 146.288 121.673 144.585 120.099C144.177 119.746 143.834 119.323 143.574 118.85C143.38 118.423 143.279 117.959 143.279 117.489C143.279 117.02 143.38 116.556 143.574 116.128C144.005 115.287 144.639 114.566 145.418 114.032C146.737 113.085 148.281 112.501 149.896 112.336C151.511 112.172 153.141 112.434 154.623 113.095C156.452 114.079 158.012 115.587 157.612 117.883ZM181.139 155.745L180.663 155.046L177.302 157.291C177.581 157.913 177.862 158.523 178.145 159.137C178.512 159.933 178.881 160.734 179.25 161.574C179.262 161.624 179.284 161.671 179.315 161.712C179.346 161.753 179.384 161.787 179.429 161.812C179.478 161.834 179.531 161.845 179.585 161.845C179.639 161.845 179.692 161.834 179.741 161.812L182.715 160.325C182.912 160.274 183.091 160.169 183.232 160.022C183.372 159.875 183.47 159.692 183.513 159.494C183.556 159.295 183.543 159.088 183.476 158.896C183.409 158.704 183.29 158.535 183.132 158.407C182.581 157.44 181.911 156.546 181.139 155.745ZM163.502 176.906C167.394 173.765 171.024 170.314 174.358 166.585C174.509 166.452 174.605 166.266 174.626 166.065C174.619 165.914 174.567 165.769 174.477 165.649L172.499 162.303C168.464 164.86 164.553 167.597 160.766 170.511C160.995 171.048 161.261 171.701 161.545 172.398C162.181 173.957 162.906 175.734 163.502 176.906ZM183.477 188.628C184.157 188.355 184.77 187.938 185.273 187.405V187.375C185.765 186.838 186.137 186.202 186.363 185.509C186.588 184.816 186.663 184.084 186.582 183.36C186.421 182.451 186.073 181.586 185.561 180.818C185.415 180.599 185.278 180.37 185.139 180.14C184.754 179.499 184.362 178.848 183.771 178.378C182.901 177.898 181.921 177.648 180.927 177.653C179.933 177.658 178.956 177.918 178.09 178.406C177.224 178.895 176.498 179.597 175.98 180.446C175.462 181.295 175.17 182.262 175.131 183.256C175.068 184.453 175.443 185.632 176.187 186.572C176.919 187.357 177.826 187.958 178.834 188.327C179.627 188.676 180.47 188.897 181.332 188.981C182.064 189.02 182.796 188.9 183.477 188.628Z" fill="#5373A1"/>
<path d="M235.226 111.43C233.516 109.78 224.816 112.233 215.18 119.817C205.543 127.401 191.297 141.068 192.264 144.815C193.23 148.563 240.342 116.382 235.226 111.43Z" fill="url(#paint0_linear)"/>
<path d="M192.337 145.186C192.337 145.186 196.902 151.462 198.508 153.261C200.115 155.06 202.152 154.882 207.788 152.413C216.641 148.479 224.704 142.967 231.582 136.145C240.058 127.594 242.23 122.925 242.72 122.062C243.211 121.2 242.378 120.322 240.98 118.582C239.582 116.842 236.519 113.14 235.775 112.218C235.032 111.296 192.337 145.186 192.337 145.186Z" fill="url(#paint1_linear)"/>
<path d="M232.905 113.17C231.418 111.683 223.983 114.508 215.462 121.2C206.94 127.892 193.497 139.714 194.374 143.031C194.806 144.696 205.26 137.677 215.343 130.331C225.425 122.985 235.136 115.356 232.905 113.17Z" fill="#E69716"/>
<path d="M230.259 198.96C231.671 197.071 228.132 188.758 219.388 180.208C210.644 171.657 195.312 159.299 191.713 160.742C188.114 162.184 226.02 204.655 230.259 198.96Z" fill="url(#paint2_linear)"/>
<path d="M191.371 160.845C191.371 160.845 185.735 166.168 184.173 167.983C182.612 169.797 183.043 171.804 186.196 177.054C191.233 185.339 197.739 192.636 205.394 198.587C214.927 205.873 219.819 207.509 220.741 207.792C221.664 208.074 222.422 207.241 223.969 205.621C225.515 204 228.772 200.52 229.605 199.672C230.437 198.825 191.371 160.845 191.371 160.845Z" fill="url(#paint3_linear)"/>
<path d="M228.236 196.863C229.485 195.182 225.767 188.163 218.064 180.624C210.361 173.084 196.932 161.292 193.75 162.571C192.158 163.195 200.456 172.638 209.007 181.679C217.558 190.721 226.362 199.391 228.236 196.863Z" fill="#E69716"/>
<path d="M206.791 302.716C225.017 301.743 239.002 286.18 238.029 267.955C237.056 249.731 221.493 235.746 203.268 236.719C185.043 237.692 171.057 253.254 172.03 271.479C173.003 289.704 188.566 303.689 206.791 302.716Z" fill="#F8E3BF"/>
<path d="M206.543 298.067C222.201 297.231 234.216 283.861 233.38 268.204C232.544 252.547 219.173 240.532 203.516 241.368C187.859 242.204 175.843 255.574 176.679 271.231C177.515 286.888 190.886 298.903 206.543 298.067Z" fill="#E69716"/>
<path d="M214.372 278.047C219.317 277.783 223.126 273.545 222.862 268.599C222.598 263.654 218.359 259.845 213.414 260.109C211.306 260.221 208.85 261.59 205.905 264.293C205.891 264.306 205.877 264.319 205.863 264.332L209.779 267.868C212.5 265.442 213.645 265.354 213.694 265.351C215.749 265.241 217.51 266.824 217.619 268.879C217.729 270.934 216.147 272.695 214.092 272.804C214.041 272.807 212.804 272.844 209.578 270.463C209.205 270.187 203.105 264.862 202.575 264.471C199.359 262.097 196.771 260.998 194.663 261.11C189.718 261.374 185.909 265.612 186.173 270.558C186.437 275.503 190.676 279.312 195.621 279.048C197.729 278.935 200.185 277.567 203.129 274.864C203.143 274.852 203.156 274.839 203.169 274.827L199.264 271.282C196.538 273.713 195.39 273.803 195.341 273.806C193.286 273.915 191.525 272.333 191.416 270.278C191.306 268.223 192.888 266.462 194.943 266.352C194.994 266.35 196.352 266.143 199.415 268.663C200.977 269.949 206.074 274.421 206.46 274.686C209.755 276.949 212.264 278.159 214.372 278.047Z" fill="white"/>
<path d="M16 147.933L121.769 147.599L94.7924 142.099C94.7924 142.099 95.9057 111.828 82.6902 117.884C78.9015 119.596 75.633 122.279 73.2162 125.662C70.7994 129.044 69.3203 133.006 68.9291 137.145C68.9291 137.145 63.9746 125.043 56.8268 129.44C52.291 132.439 48.6697 136.63 46.3613 141.554C46.3613 141.554 43.8006 132.836 39.2135 132.346C35.2945 131.923 27.835 140.206 23.916 144.871L16 147.933Z" fill="#BFCBDC"/>
<path d="M295.705 270.902C294.291 268.208 292.465 265.692 291.596 262.786C290.728 259.88 291.017 256.329 293.322 254.336C293.682 254.012 294.102 253.762 294.558 253.601C295.344 253.468 296.151 253.52 296.914 253.752C297.677 253.983 298.376 254.389 298.956 254.937C299.992 256.23 300.784 257.702 301.294 259.279C301.361 259.424 301.427 259.568 301.483 259.713C301.798 260.525 301.982 261.382 302.029 262.251C301.939 263.208 302.057 264.172 302.374 265.079C302.808 265.937 304.133 266.415 304.723 265.647C304.936 265.315 305.044 264.928 305.035 264.534C305.48 259.401 304.578 254.269 304.255 249.136C303.932 244.004 304.255 238.593 306.86 234.151C307.84 232.47 309.343 230.811 311.314 230.677C312.072 230.637 312.827 230.783 313.516 231.101C314.205 231.419 314.806 231.9 315.266 232.503C316.171 233.73 316.687 235.2 316.747 236.723C316.801 239.865 315.951 242.957 314.298 245.629C312.772 248.368 310.846 250.862 309.265 253.556C308.771 254.3 308.433 255.138 308.274 256.017C308.207 256.456 308.258 256.906 308.422 257.319C308.587 257.732 308.859 258.093 309.21 258.366C309.773 258.688 310.429 258.806 311.069 258.7C313.095 258.466 314.799 257.152 316.636 256.239C317.886 255.552 319.268 255.138 320.69 255.025C322.112 254.912 323.543 255.102 324.886 255.583C327.513 256.696 329.428 259.646 328.76 262.407C328.048 265.413 324.763 267.128 321.69 267.484C318.618 267.84 315.5 267.273 312.427 267.651C310.568 267.874 308.475 268.764 308.063 270.546C307.967 271.401 308.173 272.263 308.648 272.981C309.122 273.699 309.833 274.228 310.657 274.476C312.322 274.932 314.075 274.967 315.756 274.576C317.434 274.192 319.177 274.192 320.855 274.576C321.693 274.854 322.452 275.326 323.071 275.955C323.689 276.584 324.15 277.351 324.414 278.192C324.678 279.034 324.739 279.926 324.59 280.795C324.442 281.665 324.089 282.487 323.561 283.193C321.768 285.531 318.462 286.066 315.522 285.865C312.583 285.665 309.622 284.93 306.727 285.453C306.069 285.537 305.443 285.79 304.912 286.188C303.42 287.446 304.021 289.806 304.044 291.755C304.056 293.008 303.766 294.245 303.199 295.362C302.631 296.479 301.802 297.443 300.783 298.172C299.764 298.9 298.584 299.373 297.343 299.548C296.102 299.724 294.838 299.598 293.656 299.181L292.632 299.336C291.837 299.15 291.132 298.689 290.642 298.036C290.151 297.383 289.906 296.578 289.949 295.763C290.076 294.119 290.787 292.575 291.953 291.41C293.066 290.185 294.313 289.183 295.371 287.914C296.957 286.016 297.949 283.692 298.221 281.234C298.407 279.213 298.223 277.176 297.675 275.222C297.126 273.735 296.468 272.291 295.705 270.902Z" fill="#BFCBDC"/>
<defs>
<linearGradient id="paint0_linear" x1="13692.8" y1="14806.7" x2="14925.6" y2="14928.9" gradientUnits="userSpaceOnUse">
<stop stop-color="#F8E3BF"/>
<stop offset="1" stop-color="#E69716"/>
</linearGradient>
<linearGradient id="paint1_linear" x1="15233.8" y1="13220" x2="16536.6" y2="13256" gradientUnits="userSpaceOnUse">
<stop stop-color="#F8E3BF"/>
<stop offset="1" stop-color="#E69716"/>
</linearGradient>
<linearGradient id="paint2_linear" x1="-1821" y1="12054.5" x2="-1659.06" y2="13389.4" gradientUnits="userSpaceOnUse">
<stop stop-color="#F8E3BF"/>
<stop offset="1" stop-color="#E69716"/>
</linearGradient>
<linearGradient id="paint3_linear" x1="1014.14" y1="10812.9" x2="1271.74" y2="12075.3" gradientUnits="userSpaceOnUse">
<stop stop-color="#F8E3BF"/>
<stop offset="1" stop-color="#E69716"/>
</linearGradient>
</defs>
</svg>
