<svg width="360" height="360" viewBox="0 0 360 360" fill="none" xmlns="http://www.w3.org/2000/svg">
<path d="M85.6813 66.6152C110.315 71.4119 124.508 62.444 148.027 53.2676C171.546 44.0912 194.051 32.2035 218.28 25.3212C242.508 18.4389 269.474 16.979 291.878 28.5538C312.153 38.9816 326.649 59.1072 334.557 81.0055C342.464 102.904 344.187 126.575 343.985 149.933C343.68 191.227 337.091 233.877 315.397 268.601C289.85 309.582 244.232 335.756 196.991 339.51C149.75 343.264 101.901 325.224 66.2174 293.315C53.7482 282.157 42.6984 269.331 34.6898 254.419C15.2258 218.652 14.5162 184.032 17.0505 143.155C17.7601 131.163 19.9904 110.412 23.7413 99.0455C27.4921 87.6793 34.3856 76.9386 44.6245 71.2034C56.8909 64.321 71.793 65.3638 85.6813 66.6152Z" fill="#EAEEF3"/>
<path d="M285.85 245.91H179.4C175.89 245.91 173.05 243.07 173.05 239.56V177.9C173.05 174.39 175.89 171.55 179.4 171.55H285.85C289.36 171.55 292.2 174.39 292.2 177.9V239.56C292.2 243.06 289.36 245.91 285.85 245.91Z" fill="#BFCBDC"/>
<path d="M166.08 51.6895H157.04V72.1695H166.08V51.6895Z" fill="#0C2850"/>
<path d="M173.054 57.7142V46.0342L150.074 46.0342V57.7142H173.054Z" fill="#0C2850"/>
<path d="M249.897 92.7561L243.218 86.6641L231.6 99.401L238.279 105.493L249.897 92.7561Z" fill="#0C2850"/>
<path d="M250.995 101.906L258.866 93.2764L241.888 77.7901L234.017 86.4193L250.995 101.906Z" fill="#0C2850"/>
<path d="M267.72 178.15C267.72 237.48 219.62 285.58 160.29 285.58C100.96 285.58 52.8604 237.48 52.8604 178.15C52.8604 118.82 100.96 70.7197 160.29 70.7197C219.62 70.7197 267.72 118.82 267.72 178.15Z" fill="#3582DD"/>
<path d="M267.72 178.15C267.72 237.48 219.62 285.58 160.29 285.58C100.96 285.58 52.8604 237.48 52.8604 178.15C52.8604 118.82 100.96 70.7197 160.29 70.7197C219.62 70.7197 267.72 118.82 267.72 178.15Z" fill="#0C2850"/>
<path d="M247.1 178.15C247.1 226.09 208.24 264.95 160.3 264.95C112.36 264.95 73.5005 226.09 73.5005 178.15C73.5005 130.21 112.36 91.3496 160.3 91.3496C208.23 91.3496 247.1 130.21 247.1 178.15Z" fill="#FAFAFA"/>
<path d="M160.2 102.33C159.25 102.33 158.59 101.56 158.59 100.61V73.1096C158.59 72.1596 159.25 71.3896 160.2 71.3896C161.15 71.3896 161.81 72.1596 161.81 73.1096V100.61C161.8 101.56 161.15 102.33 160.2 102.33Z" fill="#0C2850"/>
<path d="M160.2 284.54C159.25 284.54 158.59 283.77 158.59 282.82V255.32C158.59 254.37 159.25 253.6 160.2 253.6C161.15 253.6 161.81 254.37 161.81 255.32V282.82C161.8 283.77 161.15 284.54 160.2 284.54Z" fill="#0C2850"/>
<path d="M265.07 179.44H237.57C236.62 179.44 235.85 178.78 235.85 177.83C235.85 176.88 236.62 176.22 237.57 176.22H265.07C266.02 176.22 266.79 176.88 266.79 177.83C266.79 178.79 266.02 179.44 265.07 179.44Z" fill="#0C2850"/>
<path d="M82.8601 179.44H55.3601C54.4101 179.44 53.6401 178.78 53.6401 177.83C53.6401 176.88 54.4101 176.22 55.3601 176.22H82.8601C83.8101 176.22 84.5801 176.88 84.5801 177.83C84.5801 178.79 83.8101 179.44 82.8601 179.44Z" fill="#0C2850"/>
<path d="M116.55 108.319C115.97 108.319 115.41 108.029 115.09 107.509L104.02 89.6392C103.52 88.8292 103.77 87.7692 104.58 87.2692C105.39 86.7692 106.45 87.0192 106.95 87.8292L118.02 105.699C118.52 106.509 118.27 107.569 117.46 108.069C117.17 108.229 116.86 108.319 116.55 108.319Z" fill="#0C2850"/>
<path d="M215.87 268.759C215.29 268.759 214.73 268.469 214.41 267.949L203.35 250.069C202.85 249.259 203.1 248.199 203.91 247.699C204.71 247.199 205.78 247.449 206.28 248.259L217.34 266.139C217.84 266.949 217.59 268.009 216.78 268.509C216.49 268.669 216.17 268.759 215.87 268.759Z" fill="#0C2850"/>
<path d="M231.96 135.469C231.38 135.469 230.82 135.179 230.5 134.659C230 133.849 230.25 132.789 231.06 132.289L248.93 121.229C249.73 120.729 250.79 120.979 251.3 121.789C251.8 122.599 251.55 123.659 250.74 124.159L232.87 135.229C232.58 135.389 232.26 135.469 231.96 135.469Z" fill="#0C2850"/>
<path d="M71.5203 234.789C70.9503 234.789 70.3803 234.499 70.0603 233.979C69.5603 233.169 69.8103 232.109 70.6203 231.609L88.5003 220.539C89.3003 220.039 90.3603 220.289 90.8603 221.099C91.3603 221.909 91.1103 222.969 90.3003 223.469L72.4303 234.539C72.1403 234.709 71.8303 234.789 71.5203 234.789Z" fill="#0C2850"/>
<path d="M87.4702 138.73C87.1902 138.73 86.9002 138.66 86.6302 138.51L68.2702 128.26C67.4402 127.8 67.1402 126.75 67.6102 125.92C68.0702 125.09 69.1202 124.8 69.9502 125.26L88.3102 135.51C89.1402 135.97 89.4402 137.02 88.9702 137.85C88.6602 138.41 88.0802 138.73 87.4702 138.73Z" fill="#0C2850"/>
<path d="M252.22 230.72C251.94 230.72 251.65 230.65 251.38 230.5L233.03 220.25C232.2 219.79 231.9 218.74 232.37 217.91C232.83 217.08 233.88 216.79 234.71 217.25L253.07 227.5C253.9 227.96 254.19 229.01 253.73 229.84C253.41 230.4 252.83 230.72 252.22 230.72Z" fill="#0C2850"/>
<path d="M201.54 106.4C201.26 106.4 200.97 106.33 200.7 106.18C199.87 105.72 199.57 104.67 200.04 103.84L210.28 85.4899C210.75 84.6599 211.79 84.3599 212.62 84.8299C213.45 85.2899 213.75 86.3399 213.28 87.1699L203.04 105.52C202.73 106.08 202.15 106.4 201.54 106.4Z" fill="#0C2850"/>
<path d="M109.56 271.15C109.28 271.15 108.99 271.08 108.72 270.93C107.89 270.47 107.59 269.42 108.06 268.59L118.31 250.23C118.77 249.4 119.82 249.1 120.65 249.57C121.48 250.03 121.78 251.08 121.31 251.91L111.06 270.27C110.74 270.84 110.16 271.15 109.56 271.15Z" fill="#0C2850"/>
<path d="M160.1 188.03C166.617 188.03 171.9 182.747 171.9 176.23C171.9 169.713 166.617 164.43 160.1 164.43C153.583 164.43 148.3 169.713 148.3 176.23C148.3 182.747 153.583 188.03 160.1 188.03Z" fill="#0C2850"/>
<path d="M120.061 219.14L129.251 209.7C126.851 207.26 124.691 204.54 122.851 201.53L117.251 204.97L122.851 201.53C118.491 194.42 116.181 186.23 116.181 177.83C116.181 156.81 131.041 138.19 151.511 133.57C154.381 132.92 157.321 132.57 160.291 132.49V119.34C156.351 119.42 152.431 119.88 148.621 120.74C135.881 123.62 124.311 130.83 116.051 141.04C107.661 151.41 103.041 164.47 103.041 177.83C103.041 188.65 106.021 199.22 111.651 208.4C114.071 212.36 116.901 215.94 120.061 219.14Z" fill="#E69716"/>
<path d="M160.101 178.149C158.681 178.149 157.521 176.989 157.521 175.569V118.279C157.521 116.859 158.681 115.699 160.101 115.699C161.521 115.699 162.68 116.859 162.68 118.279V175.569C162.68 176.989 161.521 178.149 160.101 178.149Z" fill="#0C2850"/>
<path d="M161.931 175.38C162.931 176.38 162.931 178.02 161.931 179.03L121.421 219.54C120.421 220.54 118.781 220.54 117.771 219.54C116.771 218.54 116.771 216.9 117.771 215.89L158.281 175.38C159.291 174.37 160.931 174.37 161.931 175.38Z" fill="#0C2850"/>
<path d="M300.78 271.77H194.34C190.83 271.77 187.99 268.93 187.99 265.42V203.76C187.99 200.25 190.83 197.41 194.34 197.41H300.79C304.3 197.41 307.14 200.25 307.14 203.76V265.42C307.14 268.93 304.29 271.77 300.78 271.77Z" fill="#3E6295"/>
<path opacity="0.3" d="M286.37 293.34H169.951C166.111 293.34 163 290.23 163 286.39V218.95C163 215.11 166.111 212 169.951 212H286.37C290.21 212 293.32 215.11 293.32 218.95V286.39C293.32 290.23 290.21 293.34 286.37 293.34Z" fill="white"/>
<path d="M280.37 300.44H163.951C160.111 300.44 157 297.33 157 293.49V226.05C157 222.21 160.111 219.1 163.951 219.1H280.37C284.21 219.1 287.32 222.21 287.32 226.05V293.49C287.32 297.33 284.21 300.44 280.37 300.44Z" fill="#3E6295"/>
<path d="M287.32 227.42H157V245.91H287.32V227.42Z" fill="#133F7E"/>
<path d="M251.93 253.3H165.05V266.24H251.93V253.3Z" fill="white"/>
<path d="M273.243 287.351C274.178 282.853 271.29 278.447 266.791 277.512C262.293 276.576 257.888 279.465 256.952 283.963C256.017 288.462 258.905 292.867 263.404 293.802C267.902 294.738 272.307 291.85 273.243 287.351Z" fill="white"/>
<path d="M279.431 285.65C279.431 289.969 275.929 293.47 271.611 293.47C267.292 293.47 263.791 289.969 263.791 285.65C263.791 281.331 267.292 277.83 271.611 277.83C275.929 277.83 279.431 281.331 279.431 285.65Z" stroke="white"/>
</svg>
