<svg width="152" height="43" viewBox="0 0 152 43" fill="none" xmlns="http://www.w3.org/2000/svg">
<path d="M23.0152 10.9006C23.2562 9.5757 23.3767 8.55188 23.3767 7.88941C23.3767 5.05886 22.7139 3.01122 21.3282 1.80673C20.0027 0.602245 18.135 0 15.7853 0H4.45844L0 27.8839H6.50691L7.95289 19.0309C8.61563 19.2116 9.51937 19.3923 10.6641 19.573C11.8088 19.6934 12.9536 19.8139 14.0983 19.8139C16.2673 19.8139 18.135 19.0912 19.822 17.706C21.5089 16.2606 22.5332 13.9721 23.0152 10.9006ZM16.5685 10.1779C16.3878 11.3222 16.0263 12.2256 15.4238 12.9483C14.8213 13.6107 14.0983 13.9721 13.1946 13.9721H8.73613L10.0014 5.84178H14.4598C15.1828 5.84178 15.7853 6.02245 16.1468 6.44402C16.5083 6.86559 16.689 7.52806 16.689 8.49165C16.7493 8.853 16.689 9.39502 16.5685 10.1779Z" fill="#1B4180"/>
<path d="M31.9321 0L18.9785 27.8839H25.6662L27.8954 22.8251H36.752L37.3545 27.8839H44.1024L40.0657 0H31.9321ZM30.3054 16.9833L35.065 5.54065L36.2098 16.9833H30.3054Z" fill="#1B4180"/>
<path d="M60.7915 0L54.0436 13.0687L51.6336 0H44.5845L49.7057 20.115L48.4404 27.8839H54.9473L56.2126 20.115L68.2021 0H60.7915Z" fill="#1B4180"/>
<path d="M73.0824 17.8263L82.9632 17.4649L83.8067 12.2856L73.9861 12.0447L74.5283 8.37104C74.6488 7.58812 74.8898 7.0461 75.2513 6.62453C75.6128 6.26318 76.2153 6.08251 77.0588 6.08251H86.5782L87.4217 0.602079C83.7465 0.240732 79.9508 0.0600586 75.9743 0.0600586C74.0463 0.0600586 72.3594 0.541855 70.9736 1.50545C69.5277 2.46904 68.6842 4.21555 68.2624 6.62453L67.0574 14.3935L64.3462 30.5337L66.6959 30.1121L63.563 43.0001L76.6973 23.1863L72.0581 23.8487L73.0824 17.8263Z" fill="#1B4180"/>
<path d="M95.0126 0L82.0591 27.8839H88.7467L90.976 22.8251H99.8928L100.495 27.8839H107.243L103.146 0H95.0126ZM93.3859 16.9833L98.1456 5.54065L99.2903 16.9833H93.3859Z" fill="#1B4180"/>
<path d="M130.5 5.54065L131.403 0H112.726L111.762 5.84178H123.029L109.111 22.4035L108.268 27.8839H127.367L128.27 22.1024H116.642L130.5 5.54065Z" fill="#1B4180"/>
<path d="M151.999 0H133.322L132.358 5.84178H143.625L129.768 22.4035L128.864 27.8839H147.963L148.927 22.1024H137.299L151.096 5.54065L151.999 0Z" fill="#1B4180"/>
<path d="M80.712 34.2462L79.0995 38.3055L78.6129 34.2462H75.4408L74.2622 42.6639H76.4845L77.147 37.9418L77.5399 41.1915H79.8325L81.14 37.93L80.4775 42.6639H82.6997L83.8782 34.2462H80.712Z" fill="#333333"/>
<path d="M83.5499 42.6639H85.9715L86.5109 41.1387H88.4283L88.5455 42.6639H90.9671L90.0876 34.2462H86.7807L83.5499 42.6639ZM87.068 39.3848L88.1644 36.2054L88.3638 39.3848H87.068Z" fill="#333333"/>
<path d="M94.0455 42.7753C95.9863 42.7753 97.2762 41.8426 97.499 40.2764C97.6691 39.0739 96.9889 38.458 95.6755 37.7189L95.095 37.3904C94.7198 37.1792 94.5263 36.8683 94.5673 36.575C94.6318 36.1057 95.1419 35.83 95.8983 35.83C96.297 35.83 96.8013 35.877 97.241 35.9532L97.6573 34.5923C97.0299 34.2755 96.426 34.1348 95.5817 34.1348C93.723 34.1348 92.433 35.0968 92.2161 36.6571C92.0519 37.8244 92.562 38.499 93.6467 39.115L94.1862 39.42C94.8077 39.7719 95.2064 39.9597 95.1478 40.3703C95.0774 40.8571 94.5849 41.0801 93.6174 41.0801C93.1601 41.0801 92.5268 41.0038 91.9288 40.8923L91.5007 42.2591C92.263 42.57 93.0076 42.7753 94.0455 42.7753Z" fill="#333333"/>
<path d="M99.0352 42.6639H101.381L102.313 36.0001H103.996L104.242 34.2462H98.531L98.2847 36.0001H99.9675L99.0352 42.6639Z" fill="#333333"/>
<path d="M103.802 42.6639H109.431L109.677 40.9099H106.394L106.617 39.3261H109.484L109.73 37.5722H106.863L107.08 36.0001H110.363L110.61 34.2462H104.981L103.802 42.6639Z" fill="#333333"/>
<path d="M110.727 42.6639H113.072L113.424 40.1591H113.776C113.958 40.1591 114.145 40.1591 114.315 40.1474L115.025 42.6639H117.493L116.543 39.5256C117.306 39.0152 117.757 38.2233 117.91 37.144C118.197 35.1202 117.118 34.1348 114.614 34.1348C113.852 34.1348 113.025 34.2228 111.882 34.4457L110.727 42.6639ZM113.67 38.4052L114.01 35.9825C114.28 35.9121 114.438 35.8887 114.603 35.8887C115.289 35.8887 115.564 36.3052 115.447 37.144C115.33 37.9887 114.937 38.4052 114.263 38.4052H113.67Z" fill="#333333"/>
<path d="M124.132 34.2354H127.333L128.282 42.8098H125.91L125.792 41.1898H123.736L123.143 42.8098H120.771L124.132 34.2354ZM125.752 39.4907L125.476 36.132L124.29 39.4907H125.752Z" fill="#333333"/>
<path d="M130.179 42.099C129.586 41.5458 129.31 40.7555 129.31 39.7282C129.31 39.412 129.349 39.0959 129.389 38.7798L129.468 38.3057C129.665 36.8832 130.14 35.8558 130.891 35.1445C131.642 34.4728 132.709 34.1172 134.093 34.1172C135.041 34.1172 135.832 34.2752 136.425 34.6309L135.99 36.0139C135.674 35.9348 135.397 35.8953 135.12 35.8558C134.883 35.8163 134.567 35.8163 134.172 35.8163C133.421 35.8163 132.867 35.9743 132.511 36.2904C132.195 36.6066 131.958 37.0807 131.879 37.7129L131.642 39.2935C131.602 39.4911 131.602 39.6886 131.602 39.8862C131.602 40.3209 131.721 40.637 131.919 40.8345C132.116 41.0716 132.472 41.1506 132.946 41.1506H133.618L133.895 39.2145H132.63L132.867 37.6339H136.267L135.595 42.4151C134.765 42.7312 133.776 42.8893 132.67 42.8893C131.602 42.9288 130.733 42.6522 130.179 42.099Z" fill="#333333"/>
<path d="M138.125 34.2354H143.818L143.58 35.9344H140.181L139.944 37.6335H142.908L142.671 39.3326H139.707L139.469 41.0712H142.869L142.632 42.7703H136.939L138.125 34.2354Z" fill="#333333"/>
<path d="M152 34.2354L150.774 42.8098H148.6L146.742 38.3053L146.11 42.8098H143.936L145.161 34.2354H147.335L149.193 38.7399L149.826 34.2354H152Z" fill="#333333"/>
</svg>
