<svg width="142" height="40" viewBox="0 0 142 40" fill="none" xmlns="http://www.w3.org/2000/svg">
<path d="M21.501 10.1401C21.7262 8.90762 21.8387 7.95524 21.8387 7.33899C21.8387 4.70591 21.2196 2.80114 19.925 1.68068C18.6867 0.560228 16.9419 0 14.7468 0H4.16512L0 25.9386H6.07882L7.42967 17.7032C8.04881 17.8713 8.89309 18.0393 9.96251 18.2074C11.0319 18.3195 12.1014 18.4315 13.1708 18.4315C15.1971 18.4315 16.9419 17.7592 18.5179 16.4707C20.0939 15.1262 21.0507 12.9973 21.501 10.1401ZM15.4785 9.46785C15.3096 10.5323 14.9719 11.3726 14.4091 12.0449C13.8462 12.6611 13.1708 12.9973 12.3265 12.9973H8.16138L9.34337 5.43421H13.5085C14.1839 5.43421 14.7468 5.60228 15.0845 5.99444C15.4222 6.3866 15.5911 7.00285 15.5911 7.89921C15.6473 8.23535 15.5911 8.73955 15.4785 9.46785Z" fill="white"/>
<path d="M29.8318 0L17.7305 25.9386H23.9781L26.0607 21.2326H34.3347L34.8975 25.9386H41.2015L37.4304 0H29.8318ZM28.3121 15.7984L32.7587 5.1541L33.8281 15.7984H28.3121Z" fill="white"/>
<path d="M56.7921 0L50.4882 12.1569L48.2368 0H41.6514L46.4356 18.7116L45.2536 25.9386H51.3325L52.5144 18.7116L63.7152 0H56.7921Z" fill="white"/>
<path d="M68.274 16.5825L77.5048 16.2464L78.2928 11.4284L69.1182 11.2043L69.6248 7.78693C69.7374 7.05864 69.9625 6.55443 70.3002 6.16227C70.6379 5.82613 71.2008 5.65807 71.9888 5.65807H80.8819L81.6699 0.559991C78.2365 0.223854 74.6905 0.0557861 70.9756 0.0557861C69.1745 0.0557861 67.5985 0.503969 66.304 1.40033C64.9531 2.2967 64.1651 3.92136 63.7711 6.16227L62.6454 13.3892L60.1126 28.4033L62.3077 28.0112L59.3809 40L71.6511 21.5685L67.3171 22.1848L68.274 16.5825Z" fill="white"/>
<path d="M88.7615 0L76.6602 25.9386H82.9078L84.9904 21.2326H93.3206L93.8835 25.9386H100.187L96.36 0H88.7615ZM87.2418 15.7984L91.6884 5.1541L92.7578 15.7984H87.2418Z" fill="white"/>
<path d="M121.914 5.1541L122.758 0H105.31L104.409 5.43421H114.934L101.933 20.8405L101.145 25.9386H118.987L119.831 20.5604H108.968L121.914 5.1541Z" fill="white"/>
<path d="M141.999 0H124.551L123.65 5.43421H134.176L121.23 20.8405L120.386 25.9386H138.228L139.129 20.5604H128.266L141.155 5.1541L141.999 0Z" fill="white"/>
<path d="M75.4024 31.8566L73.896 35.6326L73.4414 31.8566H70.478L69.377 39.687H71.453L72.072 35.2943L72.439 38.3173H74.5808L75.8023 35.2834L75.1833 39.687H77.2593L78.3604 31.8566H75.4024Z" fill="#F2F4F5"/>
<path d="M78.0536 39.687H80.3159L80.8198 38.2682H82.611L82.7206 39.687H84.9829L84.1612 31.8566H81.0718L78.0536 39.687ZM81.3402 36.6367L82.3645 33.6791L82.5508 36.6367H81.3402Z" fill="#F2F4F5"/>
<path d="M87.8587 39.7906C89.6718 39.7906 90.8769 38.923 91.085 37.4661C91.2439 36.3475 90.6085 35.7745 89.3815 35.087L88.8392 34.7814C88.4886 34.585 88.3078 34.2958 88.3462 34.0229C88.4064 33.5864 88.883 33.3299 89.5896 33.3299C89.9621 33.3299 90.4332 33.3736 90.844 33.4445L91.2329 32.1786C90.6468 31.8839 90.0826 31.7529 89.2938 31.7529C87.5574 31.7529 86.3523 32.6478 86.1496 34.0993C85.9963 35.1852 86.4728 35.8127 87.4862 36.3857L87.9901 36.6694C88.5708 36.9968 88.9433 37.1714 88.8885 37.5534C88.8227 38.0063 88.3626 38.2137 87.4588 38.2137C87.0315 38.2137 86.4399 38.1427 85.8812 38.039L85.4814 39.3105C86.1935 39.5997 86.8891 39.7906 87.8587 39.7906Z" fill="#F2F4F5"/>
<path d="M92.5202 39.687H94.7113L95.5822 33.4882H97.1543L97.3844 31.8566H92.0491L91.819 33.4882H93.3911L92.5202 39.687Z" fill="#F2F4F5"/>
<path d="M96.9735 39.687H102.232L102.462 38.0554H99.3947L99.6028 36.5821H102.281L102.511 34.9506H99.8329L100.036 33.4882H103.103L103.333 31.8566H98.0746L96.9735 39.687Z" fill="#F2F4F5"/>
<path d="M103.443 39.687H105.634L105.962 37.357H106.291C106.461 37.357 106.636 37.357 106.795 37.346L107.458 39.687H109.764L108.877 36.7676C109.589 36.2929 110.01 35.5562 110.153 34.5522C110.421 32.6697 109.413 31.7529 107.074 31.7529C106.362 31.7529 105.59 31.8348 104.522 32.0421L103.443 39.687ZM106.192 35.7254L106.51 33.4718C106.762 33.4063 106.91 33.3845 107.063 33.3845C107.704 33.3845 107.962 33.7719 107.852 34.5522C107.743 35.338 107.376 35.7254 106.746 35.7254H106.192Z" fill="#F2F4F5"/>
<path d="M115.965 31.8467H118.956L119.843 39.823H117.627L117.516 38.3159H115.596L115.042 39.823H112.826L115.965 31.8467ZM117.479 36.7354L117.221 33.611L116.113 36.7354H117.479Z" fill="#F2F4F5"/>
<path d="M121.615 39.1617C121.061 38.6471 120.803 37.912 120.803 36.9563C120.803 36.6623 120.84 36.3682 120.877 36.0741L120.95 35.6331C121.135 34.3098 121.578 33.3541 122.28 32.6925C122.982 32.0676 123.979 31.7368 125.271 31.7368C126.157 31.7368 126.896 31.8838 127.45 32.2147L127.044 33.5012C126.748 33.4276 126.49 33.3909 126.231 33.3541C126.01 33.3174 125.714 33.3174 125.345 33.3174C124.643 33.3174 124.126 33.4644 123.794 33.7585C123.499 34.0525 123.277 34.4936 123.203 35.0817L122.982 36.552C122.945 36.7358 122.945 36.9196 122.945 37.1033C122.945 37.5077 123.055 37.8017 123.24 37.9855C123.425 38.2061 123.757 38.2796 124.2 38.2796H124.828L125.087 36.4785H123.905L124.126 35.0082H127.302L126.674 39.4558C125.899 39.7499 124.976 39.8969 123.942 39.8969C122.945 39.9336 122.132 39.6763 121.615 39.1617Z" fill="#F2F4F5"/>
<path d="M129.039 31.8467H134.356L134.135 33.4272H130.959L130.737 35.0078H133.507L133.285 36.5883H130.516L130.294 38.2056H133.47L133.248 39.7862H127.931L129.039 31.8467Z" fill="#F2F4F5"/>
<path d="M142 31.8467L140.856 39.823H138.824L137.089 35.6327L136.498 39.823H134.467L135.612 31.8467H137.643L139.378 36.037L139.969 31.8467H142Z" fill="#F2F4F5"/>
</svg>
