<svg width="1440" height="128" viewBox="0 0 1440 128" fill="none" xmlns="http://www.w3.org/2000/svg">
<path opacity="0.15" d="M0 67.3196C129.5 -15.8004 59.669 130.245 196.204 67.3224C283.5 27.0921 589.614 169.053 669.197 114.234C793.692 28.4783 993.287 135.281 1103.72 67.3196C1225 -7.32105 1282 124.922 1440 124.922" stroke="#1B4180"/>
<path opacity="0.15" d="M0 47.3196C129.5 -35.8004 59.669 110.245 196.204 47.3224C283.5 7.09211 589.614 149.053 669.197 94.234C793.692 8.47831 993.287 115.281 1103.72 47.3196C1225 -27.321 1282 104.922 1440 104.922" stroke="#1B4180"/>
<path opacity="0.15" d="M0 27.3196C129.5 -55.8004 59.669 90.2448 196.204 27.3224C283.5 -12.9079 589.614 129.053 669.197 74.234C793.692 -11.5217 993.287 95.2808 1103.72 27.3196C1225 -47.321 1282 84.9218 1440 84.9219" stroke="#1B4180"/>
</svg>
