<svg width="40" height="30" viewBox="0 0 40 30" fill="none" xmlns="http://www.w3.org/2000/svg">
<path d="M8.79607 12.6781C8.45209 12.6781 8.05897 12.6781 7.66585 12.7273C8.74693 10.172 11.0565 7.66585 15.0369 4.6683L10.7125 0C3.78378 5.06143 0 12.6781 0 20.2948C0 26.1916 3.53808 29.3858 8.55037 29.3858C13.5627 29.3858 17.1499 26.0934 17.1499 21.0811C17.1499 16.2162 13.7101 12.6781 8.79607 12.6781ZM31.6953 12.6781C31.3022 12.6781 30.9091 12.6781 30.516 12.7273C31.597 10.172 33.9066 7.66585 37.887 4.6683L33.5627 0C26.6339 5.06143 22.8501 12.6781 22.8501 20.2948C22.8501 26.1916 26.3882 29.3858 31.4005 29.3858C36.4128 29.3858 40 26.0934 40 21.0811C40 16.2162 36.5602 12.6781 31.6953 12.6781Z" fill="#2DC4F8"/>
</svg>
