<svg width="18" height="18" viewBox="0 0 18 18" fill="none" xmlns="http://www.w3.org/2000/svg">
<path fill-rule="evenodd" clip-rule="evenodd" d="M17.7105 14.0362C17.7475 14.3193 17.6612 14.5655 17.4521 14.7747L14.9965 17.2117C14.8857 17.3348 14.7411 17.4395 14.5626 17.5256C14.3842 17.6118 14.2088 17.6672 14.0365 17.6917C14.0242 17.6917 13.9872 17.6949 13.9256 17.7011C13.8642 17.7072 13.7842 17.7103 13.6857 17.7103C13.4518 17.7103 13.0733 17.6703 12.5501 17.5903C12.027 17.5102 11.387 17.3133 10.6301 16.9995C9.87298 16.6856 9.01448 16.2147 8.05444 15.5871C7.0944 14.9594 6.07275 14.0977 4.98959 13.0023C4.12798 12.1529 3.41408 11.3406 2.84788 10.5652C2.28168 9.78968 1.82626 9.0727 1.48162 8.41419C1.13695 7.75568 0.878468 7.15871 0.706147 6.62328C0.533826 6.08785 0.416894 5.62628 0.355351 5.23856C0.293808 4.85083 0.26919 4.5462 0.281499 4.32464C0.293808 4.10308 0.299962 3.98 0.299962 3.95538C0.324579 3.78306 0.379968 3.60766 0.466129 3.42919C0.552289 3.25071 0.656913 3.10608 0.779999 2.99531L3.23557 0.539732C3.4079 0.367411 3.60483 0.28125 3.82639 0.28125C3.9864 0.28125 4.12795 0.327407 4.25104 0.419722C4.37412 0.512037 4.47875 0.625892 4.56491 0.761287L6.54045 4.50927C6.65122 4.70621 6.682 4.92161 6.63276 5.15547C6.58353 5.38934 6.4789 5.58628 6.31889 5.74629L5.4142 6.65097C5.38959 6.67559 5.36805 6.71559 5.34958 6.77098C5.33112 6.82637 5.32189 6.87253 5.32189 6.90946C5.37112 7.16794 5.4819 7.46335 5.65422 7.79568C5.80193 8.09109 6.02964 8.45111 6.33735 8.87576C6.64507 9.30041 7.08203 9.78965 7.64822 10.3435C8.20211 10.9098 8.69446 11.3498 9.12526 11.6637C9.55597 11.9775 9.91612 12.2083 10.2054 12.356C10.4946 12.5037 10.7162 12.593 10.87 12.6237L11.1007 12.6698C11.1254 12.6698 11.1654 12.6606 11.2208 12.6421C11.2762 12.6237 11.3162 12.6021 11.3408 12.5775L12.3932 11.5066C12.6149 11.3097 12.8732 11.2113 13.1687 11.2113C13.378 11.2113 13.544 11.2482 13.6671 11.322H13.6856L17.2489 13.4268C17.5074 13.587 17.6613 13.79 17.7105 14.0362Z" fill="#010002"/>
<mask id="mask0" mask-type="alpha" maskUnits="userSpaceOnUse" x="0" y="0" width="18" height="18">
<path fill-rule="evenodd" clip-rule="evenodd" d="M17.7105 14.0362C17.7475 14.3193 17.6612 14.5655 17.4521 14.7747L14.9965 17.2117C14.8857 17.3348 14.7411 17.4395 14.5626 17.5256C14.3842 17.6118 14.2088 17.6672 14.0365 17.6917C14.0242 17.6917 13.9872 17.6949 13.9256 17.7011C13.8642 17.7072 13.7842 17.7103 13.6857 17.7103C13.4518 17.7103 13.0733 17.6703 12.5501 17.5903C12.027 17.5102 11.387 17.3133 10.6301 16.9995C9.87298 16.6856 9.01448 16.2147 8.05444 15.5871C7.0944 14.9594 6.07275 14.0977 4.98959 13.0023C4.12798 12.1529 3.41408 11.3406 2.84788 10.5652C2.28168 9.78968 1.82626 9.0727 1.48162 8.41419C1.13695 7.75568 0.878468 7.15871 0.706147 6.62328C0.533826 6.08785 0.416894 5.62628 0.355351 5.23856C0.293808 4.85083 0.26919 4.5462 0.281499 4.32464C0.293808 4.10308 0.299962 3.98 0.299962 3.95538C0.324579 3.78306 0.379968 3.60766 0.466129 3.42919C0.552289 3.25071 0.656913 3.10608 0.779999 2.99531L3.23557 0.539732C3.4079 0.367411 3.60483 0.28125 3.82639 0.28125C3.9864 0.28125 4.12795 0.327407 4.25104 0.419722C4.37412 0.512037 4.47875 0.625892 4.56491 0.761287L6.54045 4.50927C6.65122 4.70621 6.682 4.92161 6.63276 5.15547C6.58353 5.38934 6.4789 5.58628 6.31889 5.74629L5.4142 6.65097C5.38959 6.67559 5.36805 6.71559 5.34958 6.77098C5.33112 6.82637 5.32189 6.87253 5.32189 6.90946C5.37112 7.16794 5.4819 7.46335 5.65422 7.79568C5.80193 8.09109 6.02964 8.45111 6.33735 8.87576C6.64507 9.30041 7.08203 9.78965 7.64822 10.3435C8.20211 10.9098 8.69446 11.3498 9.12526 11.6637C9.55597 11.9775 9.91612 12.2083 10.2054 12.356C10.4946 12.5037 10.7162 12.593 10.87 12.6237L11.1007 12.6698C11.1254 12.6698 11.1654 12.6606 11.2208 12.6421C11.2762 12.6237 11.3162 12.6021 11.3408 12.5775L12.3932 11.5066C12.6149 11.3097 12.8732 11.2113 13.1687 11.2113C13.378 11.2113 13.544 11.2482 13.6671 11.322H13.6856L17.2489 13.4268C17.5074 13.587 17.6613 13.79 17.7105 14.0362Z" fill="white"/>
</mask>
<g mask="url(#mask0)">
<rect x="-0.28125" width="18.2812" height="18.2812" fill="#333333"/>
</g>
</svg>
