<svg width="18" height="18" viewBox="0 0 18 18" fill="none" xmlns="http://www.w3.org/2000/svg">
<path fill-rule="evenodd" clip-rule="evenodd" d="M12.89 10.7116H9.07437C9.06147 10.7116 9.04947 10.7084 9.03669 10.7079C9.02391 10.7085 9.01197 10.7116 8.99901 10.7116C8.65527 10.7116 8.37656 10.4328 8.37656 10.0891V3.73495C8.37656 3.3912 8.65527 3.1125 8.99901 3.1125C9.34276 3.1125 9.62146 3.3912 9.62146 3.73495V9.46666H12.8897C13.2335 9.46666 13.5122 9.74531 13.5122 10.0891C13.5122 10.4328 13.2337 10.7116 12.89 10.7116ZM8.99985 0C4.02943 0 0 4.02955 0 8.99985C0 13.9702 4.02943 18 8.99985 18C13.9703 18 18 13.9702 18 8.99985C18 4.02955 13.9703 0 8.99985 0Z" fill="#333333"/>
</svg>
