<svg width="16" height="16" viewBox="0 0 16 16" fill="none" xmlns="http://www.w3.org/2000/svg">
<path d="M3.63535 5.323H0.197876V15.6458H3.63535V5.323Z" fill="#333333"/>
<path d="M14.9166 6.26591C14.1945 5.47768 13.2395 5.0835 12.0521 5.0835C11.6146 5.0835 11.2169 5.13731 10.8592 5.24502C10.5016 5.35265 10.1996 5.50366 9.95299 5.69812C9.70654 5.89259 9.51025 6.07312 9.36452 6.23971C9.22595 6.39795 9.09045 6.58227 8.95823 6.79078V5.32291H5.53101L5.54151 5.82298C5.54855 6.15641 5.55202 7.18413 5.55202 8.90626C5.55202 10.6285 5.54509 12.875 5.53115 15.6459H8.95823V9.88534C8.95823 9.53125 8.99621 9.25006 9.07275 9.04155C9.21869 8.6872 9.43895 8.39054 9.73426 8.15106C10.0295 7.91128 10.3957 7.79149 10.8334 7.79149C11.4304 7.79149 11.8698 7.99807 12.1511 8.41127C12.4323 8.82442 12.5729 9.39564 12.5729 10.1248V15.6455H16V9.72926C15.9997 8.20826 15.6389 7.05387 14.9166 6.26591Z" fill="#333333"/>
<path d="M1.93746 0.354248C1.36115 0.354248 0.894175 0.522773 0.536439 0.859494C0.17874 1.19629 0 1.62149 0 2.13549C0 2.6423 0.173596 3.06604 0.520824 3.40623C0.867942 3.74645 1.32634 3.91665 1.89576 3.91665H1.9166C2.49999 3.91665 2.97054 3.7466 3.32813 3.40623C3.68572 3.06604 3.86103 2.64245 3.85413 2.13549C3.8472 1.62152 3.66999 1.19629 3.32287 0.859494C2.97579 0.522627 2.51382 0.354248 1.93746 0.354248Z" fill="#333333"/>
</svg>
