<svg width="16" height="16" viewBox="0 0 16 16" fill="none" xmlns="http://www.w3.org/2000/svg">
<g clip-path="url(#clip0)">
<path d="M16 3.0394C15.4111 3.30035 14.7793 3.47731 14.1154 3.55632C14.7933 3.15038 15.3122 2.50652 15.5581 1.74166C14.9222 2.11758 14.2203 2.39054 13.4725 2.53852C12.8736 1.89964 12.0217 1.50171 11.0769 1.50171C9.26425 1.50171 7.79452 2.97143 7.79452 4.78309C7.79452 5.04003 7.82352 5.29098 7.87952 5.53095C5.15204 5.39396 2.7335 4.08722 1.1148 2.10158C0.831848 2.5855 0.670881 3.14937 0.670881 3.75127C0.670881 4.89007 1.25078 5.89488 2.13062 6.48274C1.59271 6.46476 1.0868 6.31678 0.643901 6.07082V6.11182C0.643901 7.70151 1.77569 9.02825 3.2764 9.33021C3.00145 9.4042 2.71151 9.44519 2.41156 9.44519C2.19961 9.44519 1.99465 9.4242 1.79368 9.3842C2.21159 10.689 3.42338 11.6378 4.85912 11.6638C3.73632 12.5436 2.32058 13.0665 0.782881 13.0665C0.51794 13.0665 0.256972 13.0505 3.05176e-05 13.0215C1.45276 13.9544 3.17745 14.4983 5.0311 14.4983C11.069 14.4983 14.3694 9.49719 14.3694 5.16003L14.3583 4.73511C15.0032 4.27517 15.5611 3.69729 16 3.0394Z" fill="#333333"/>
</g>
<defs>
<clipPath id="clip0">
<rect width="16" height="16" fill="white"/>
</clipPath>
</defs>
</svg>
