<svg width="16" height="16" viewBox="0 0 16 16" fill="none" xmlns="http://www.w3.org/2000/svg">
<path d="M5.88053 3.09868C5.88053 3.50188 5.88053 5.30155 5.88053 5.30155H4.26663V7.99524H5.88053V15.9999H9.19583V7.99546H11.4205C11.4205 7.99546 11.6289 6.70386 11.7299 5.29162C11.4403 5.29162 9.20837 5.29162 9.20837 5.29162C9.20837 5.29162 9.20837 3.72452 9.20837 3.44984C9.20837 3.17456 9.56983 2.80428 9.9271 2.80428C10.2837 2.80428 11.0363 2.80428 11.7334 2.80428C11.7334 2.43753 11.7334 1.17033 11.7334 9.62221e-09C10.8028 9.62221e-09 9.74411 9.62221e-09 9.27745 9.62221e-09C5.79858 -0.000185988 5.88053 2.69618 5.88053 3.09868Z" fill="#333333"/>
</svg>
