<svg width="179" height="59" viewBox="0 0 179 59" fill="none" xmlns="http://www.w3.org/2000/svg">
<mask id="mask0" mask-type="alpha" maskUnits="userSpaceOnUse" x="0" y="0" width="179" height="59">
<path fill-rule="evenodd" clip-rule="evenodd" d="M19.1353 0C23.499 0 28.5441 2.41327 27.1387 11.477C25.5365 21.9638 19.7352 21.6114 15.802 21.3728L15.7455 21.3695C13.9314 21.2679 9.66922 20.6318 9.44265 20.4971L7.43576 33.1747H0L5.25954 0H19.1353ZM16.0632 14.9554C17.9452 14.9554 19.1465 13.7999 19.6569 10.5594C20.1439 7.37608 19.0675 6.45851 17.4348 6.45851H11.6761L10.3159 14.9554H16.0632ZM117.595 33.1747H125.028L119.949 0H111.532L95.8255 33.1747H103.855L106.943 26.513H116.468L117.595 33.1747ZM109.696 20.0657L114.419 9.43862L115.879 20.0657H109.696ZM84.7323 21.8453L84.9944 20.1988L96.972 19.7827L97.9017 13.6814L86.0934 13.1976L86.6691 9.462C86.8456 8.24609 87.1109 6.94069 89.367 6.94069H101.063L101.992 0.78373C98.1775 0.241892 88.4373 0.0620822 88.4373 0.0620822C84.6122 0.0169291 80.6218 1.6376 79.6816 7.60346L77.8819 19.2256L74.8994 35.9274L77.6183 35.4404L73.9762 50.6836L89.2783 27.2274L83.7736 28.0119L84.7323 21.8453ZM137.574 26.4218H150.972L149.884 33.1747H126.852L127.94 26.4218L145.067 6.75282H131.024L132.112 0H155.144L154.055 6.75282L137.574 26.4218ZM155.945 0.0620822L154.857 6.802H168.914L151.77 26.4339L150.682 33.1739H173.736L174.826 26.4339H161.414L177.911 6.802L179 0.0620822H155.945ZM37.6102 0L21.9041 33.1747H29.9349L33.0223 26.513H42.5464L43.6744 33.1747H51.1085L46.0288 0H37.6102ZM35.775 20.0657L40.4984 9.43862L41.9586 20.0657H35.775ZM61.0446 15.3295L69.3464 0H77.5715L63.5176 23.4305L62.0058 33.1747H54.7635L56.2761 23.4305L50.1926 0H58.042L61.0446 15.3295ZM119.844 39.4719C117.888 39.4945 115.942 39.7598 114.05 40.2597L113.833 40.3161L111.469 57.155L111.748 57.2365C113.603 57.7735 115.523 58.0484 117.453 58.0524C122.516 58.0524 125.578 56.1415 126.078 52.6671C126.347 50.6417 125.594 48.9581 124.162 48.2268C124.789 47.8067 125.317 47.2568 125.713 46.6134C126.108 45.9708 126.361 45.2499 126.455 44.5C126.636 43.2212 126.363 42.1529 125.644 41.3232C124.582 40.0944 122.63 39.4719 119.844 39.4719ZM121.656 52.222V52.2245C121.449 53.7758 120.373 54.4974 118.266 54.4974C117.615 54.5079 116.965 54.4289 116.335 54.262L116.924 50.1498H119.882C120.149 50.1256 120.418 50.1603 120.67 50.2506C120.923 50.3409 121.152 50.4861 121.343 50.6739C121.502 50.8949 121.613 51.1472 121.667 51.4141C121.721 51.681 121.717 51.956 121.656 52.222ZM121.934 44.8677C121.762 46.0998 120.977 46.7787 119.721 46.7787H117.391L117.877 43.2906C118.559 43.1188 119.26 43.0293 119.963 43.0253C120.789 43.0253 121.364 43.2067 121.673 43.5639C121.808 43.7494 121.901 43.9622 121.946 44.1864C121.991 44.4113 121.987 44.6436 121.934 44.8677H121.934ZM134.914 54.5966C136.333 54.5966 137.249 53.6629 137.492 51.9673L139.193 39.7041H143.653L141.999 51.5149C141.43 55.6085 138.636 58.0541 134.527 58.0541C132.49 58.0541 130.883 57.4421 129.881 56.2826C128.878 55.1231 128.5 53.4428 128.788 51.4206L130.417 39.7041H134.876L133.162 52.0616C133.034 52.9509 133.159 53.646 133.528 54.0709C133.707 54.2555 133.923 54.3983 134.163 54.4894C134.402 54.5797 134.659 54.6168 134.914 54.5966ZM156.138 39.7025L151.265 46.8625H150.058L151.053 39.7025H146.591L144.062 57.8218H148.522L149.553 50.4175H150.82L153.959 57.8218H158.672L154.839 48.5026L160.803 39.7025H156.138ZM167.108 54.5966C168.527 54.5966 169.442 53.6629 169.686 51.9673L171.387 39.7041H175.847L174.193 51.5149C173.624 55.6085 170.831 58.0541 166.721 58.0541C164.683 58.0541 163.075 57.4421 162.074 56.2818C161.072 55.1223 160.694 53.442 160.981 51.4206L162.61 39.7041H167.069L165.356 52.0616C165.227 52.9509 165.354 53.646 165.721 54.0709C165.9 54.2555 166.116 54.3983 166.355 54.4886C166.596 54.5797 166.852 54.6168 167.108 54.5966Z" fill="#1AB2FF"/>
</mask>
<g mask="url(#mask0)">
<path d="M263.662 -145.135H-84.6621V203.19H263.662V-145.135Z" fill="#1AB2FF"/>
<path d="M263.662 -145.135H-84.6621V203.19H263.662V-145.135Z" fill="url(#paint0_radial)" fill-opacity="0.5"/>
</g>
<defs>
<radialGradient id="paint0_radial" cx="0" cy="0" r="1" gradientUnits="userSpaceOnUse" gradientTransform="translate(-31.4459 18.5454) scale(230.2)">
<stop stop-color="white"/>
<stop offset="0.521538" stop-color="white" stop-opacity="0.05"/>
<stop offset="1" stop-color="white" stop-opacity="0"/>
</radialGradient>
</defs>
</svg>
